<?xml version="1.0" encoding="utf-8"?>
<svg xmlns="http://www.w3.org/2000/svg" xmlns:xlink="http://www.w3.org/1999/xlink" width="600" height="400" viewBox="0 0 2400 1600">
<defs>
  <clipPath id="clip430">
    <rect x="0" y="0" width="2400" height="1600"/>
  </clipPath>
</defs>
<path clip-path="url(#clip430)" d="
M0 1600 L2400 1600 L2400 0 L0 0  Z
  " fill="#ffffff" fill-rule="evenodd" fill-opacity="1"/>
<defs>
  <clipPath id="clip431">
    <rect x="480" y="0" width="1681" height="1600"/>
  </clipPath>
</defs>
<path clip-path="url(#clip430)" d="
M333.697 1340.41 L2352.76 1340.41 L2352.76 47.2441 L333.697 47.2441  Z
  " fill="#ffffff" fill-rule="evenodd" fill-opacity="1"/>
<defs>
  <clipPath id="clip432">
    <rect x="333" y="47" width="2020" height="1294"/>
  </clipPath>
</defs>
<polyline clip-path="url(#clip432)" style="stroke:#000000; stroke-linecap:butt; stroke-linejoin:round; stroke-width:2; stroke-opacity:0.1; fill:none" points="
  390.84,1340.41 390.84,47.2441 
  "/>
<polyline clip-path="url(#clip432)" style="stroke:#000000; stroke-linecap:butt; stroke-linejoin:round; stroke-width:2; stroke-opacity:0.1; fill:none" points="
  581.317,1340.41 581.317,47.2441 
  "/>
<polyline clip-path="url(#clip432)" style="stroke:#000000; stroke-linecap:butt; stroke-linejoin:round; stroke-width:2; stroke-opacity:0.1; fill:none" points="
  771.795,1340.41 771.795,47.2441 
  "/>
<polyline clip-path="url(#clip432)" style="stroke:#000000; stroke-linecap:butt; stroke-linejoin:round; stroke-width:2; stroke-opacity:0.1; fill:none" points="
  962.272,1340.41 962.272,47.2441 
  "/>
<polyline clip-path="url(#clip432)" style="stroke:#000000; stroke-linecap:butt; stroke-linejoin:round; stroke-width:2; stroke-opacity:0.1; fill:none" points="
  1152.75,1340.41 1152.75,47.2441 
  "/>
<polyline clip-path="url(#clip432)" style="stroke:#000000; stroke-linecap:butt; stroke-linejoin:round; stroke-width:2; stroke-opacity:0.1; fill:none" points="
  1343.23,1340.41 1343.23,47.2441 
  "/>
<polyline clip-path="url(#clip432)" style="stroke:#000000; stroke-linecap:butt; stroke-linejoin:round; stroke-width:2; stroke-opacity:0.1; fill:none" points="
  1533.7,1340.41 1533.7,47.2441 
  "/>
<polyline clip-path="url(#clip432)" style="stroke:#000000; stroke-linecap:butt; stroke-linejoin:round; stroke-width:2; stroke-opacity:0.1; fill:none" points="
  1724.18,1340.41 1724.18,47.2441 
  "/>
<polyline clip-path="url(#clip432)" style="stroke:#000000; stroke-linecap:butt; stroke-linejoin:round; stroke-width:2; stroke-opacity:0.1; fill:none" points="
  1914.66,1340.41 1914.66,47.2441 
  "/>
<polyline clip-path="url(#clip432)" style="stroke:#000000; stroke-linecap:butt; stroke-linejoin:round; stroke-width:2; stroke-opacity:0.1; fill:none" points="
  2105.14,1340.41 2105.14,47.2441 
  "/>
<polyline clip-path="url(#clip432)" style="stroke:#000000; stroke-linecap:butt; stroke-linejoin:round; stroke-width:2; stroke-opacity:0.1; fill:none" points="
  2295.61,1340.41 2295.61,47.2441 
  "/>
<polyline clip-path="url(#clip430)" style="stroke:#000000; stroke-linecap:butt; stroke-linejoin:round; stroke-width:4; stroke-opacity:1; fill:none" points="
  333.697,1340.41 2352.76,1340.41 
  "/>
<polyline clip-path="url(#clip430)" style="stroke:#000000; stroke-linecap:butt; stroke-linejoin:round; stroke-width:4; stroke-opacity:1; fill:none" points="
  390.84,1340.41 390.84,1321.51 
  "/>
<polyline clip-path="url(#clip430)" style="stroke:#000000; stroke-linecap:butt; stroke-linejoin:round; stroke-width:4; stroke-opacity:1; fill:none" points="
  581.317,1340.41 581.317,1321.51 
  "/>
<polyline clip-path="url(#clip430)" style="stroke:#000000; stroke-linecap:butt; stroke-linejoin:round; stroke-width:4; stroke-opacity:1; fill:none" points="
  771.795,1340.41 771.795,1321.51 
  "/>
<polyline clip-path="url(#clip430)" style="stroke:#000000; stroke-linecap:butt; stroke-linejoin:round; stroke-width:4; stroke-opacity:1; fill:none" points="
  962.272,1340.41 962.272,1321.51 
  "/>
<polyline clip-path="url(#clip430)" style="stroke:#000000; stroke-linecap:butt; stroke-linejoin:round; stroke-width:4; stroke-opacity:1; fill:none" points="
  1152.75,1340.41 1152.75,1321.51 
  "/>
<polyline clip-path="url(#clip430)" style="stroke:#000000; stroke-linecap:butt; stroke-linejoin:round; stroke-width:4; stroke-opacity:1; fill:none" points="
  1343.23,1340.41 1343.23,1321.51 
  "/>
<polyline clip-path="url(#clip430)" style="stroke:#000000; stroke-linecap:butt; stroke-linejoin:round; stroke-width:4; stroke-opacity:1; fill:none" points="
  1533.7,1340.41 1533.7,1321.51 
  "/>
<polyline clip-path="url(#clip430)" style="stroke:#000000; stroke-linecap:butt; stroke-linejoin:round; stroke-width:4; stroke-opacity:1; fill:none" points="
  1724.18,1340.41 1724.18,1321.51 
  "/>
<polyline clip-path="url(#clip430)" style="stroke:#000000; stroke-linecap:butt; stroke-linejoin:round; stroke-width:4; stroke-opacity:1; fill:none" points="
  1914.66,1340.41 1914.66,1321.51 
  "/>
<polyline clip-path="url(#clip430)" style="stroke:#000000; stroke-linecap:butt; stroke-linejoin:round; stroke-width:4; stroke-opacity:1; fill:none" points="
  2105.14,1340.41 2105.14,1321.51 
  "/>
<polyline clip-path="url(#clip430)" style="stroke:#000000; stroke-linecap:butt; stroke-linejoin:round; stroke-width:4; stroke-opacity:1; fill:none" points="
  2295.61,1340.41 2295.61,1321.51 
  "/>
<path clip-path="url(#clip430)" d="M347.195 1405.42 L363.266 1402.59 L363.95 1406.46 L342.339 1410.27 L341.656 1406.4 Q343.799 1403.22 347.509 1397.87 Q351.237 1392.49 352.167 1390.96 Q353.94 1388.08 354.504 1386.22 Q355.088 1384.33 354.795 1382.67 Q354.316 1379.96 352.1 1378.58 Q349.906 1377.21 346.852 1377.75 Q344.686 1378.13 342.402 1379.31 Q340.141 1380.48 337.675 1382.49 L336.855 1377.84 Q339.439 1376.23 341.755 1375.24 Q344.071 1374.24 346.077 1373.89 Q351.366 1372.95 354.978 1375.04 Q358.59 1377.13 359.37 1381.56 Q359.74 1383.65 359.276 1385.69 Q358.83 1387.69 357.206 1390.61 Q356.752 1391.37 354.256 1395.08 Q351.756 1398.76 347.195 1405.42 Z" fill="#000000" fill-rule="evenodd" fill-opacity="1" /><path clip-path="url(#clip430)" d="M377.997 1372.02 Q374.441 1372.65 373.259 1376.47 Q372.096 1380.28 373.334 1387.3 Q374.568 1394.3 376.965 1397.49 Q379.381 1400.66 382.937 1400.04 Q386.516 1399.4 387.679 1395.6 Q388.861 1391.78 387.627 1384.78 Q386.389 1377.76 383.973 1374.58 Q381.576 1371.39 377.997 1372.02 M377.354 1368.37 Q383.076 1367.36 386.885 1371.37 Q390.712 1375.35 392.232 1383.96 Q393.747 1392.56 391.515 1397.63 Q389.302 1402.67 383.58 1403.68 Q377.858 1404.69 374.03 1400.71 Q370.221 1396.71 368.706 1388.11 Q367.187 1379.5 369.4 1374.45 Q371.632 1369.38 377.354 1368.37 Z" fill="#000000" fill-rule="evenodd" fill-opacity="1" /><path clip-path="url(#clip430)" d="M403.434 1395.5 L410.956 1394.18 L406.378 1368.21 L398.484 1371.3 L397.744 1367.1 L405.593 1364.03 L410.198 1363.21 L415.516 1393.37 L423.039 1392.05 L423.722 1395.92 L404.117 1399.38 L403.434 1395.5 Z" fill="#000000" fill-rule="evenodd" fill-opacity="1" /><path clip-path="url(#clip430)" d="M425.859 1360.45 L447.743 1356.59 L448.089 1358.56 L441.389 1392.81 L436.579 1393.66 L442.887 1361.45 L426.542 1364.33 L425.859 1360.45 Z" fill="#000000" fill-rule="evenodd" fill-opacity="1" /><path clip-path="url(#clip430)" d="M503.421 1411.46 L519.492 1408.63 L520.176 1412.5 L498.565 1416.31 L497.881 1412.44 Q500.025 1409.26 503.734 1403.91 Q507.463 1398.53 508.392 1397 Q510.165 1394.12 510.73 1392.26 Q511.314 1390.37 511.02 1388.71 Q510.542 1385.99 508.326 1384.62 Q506.132 1383.25 503.077 1383.79 Q500.912 1384.17 498.628 1385.35 Q496.367 1386.52 493.901 1388.53 L493.081 1383.88 Q495.665 1382.27 497.981 1381.28 Q500.297 1380.28 502.303 1379.93 Q507.592 1378.99 511.204 1381.08 Q514.816 1383.17 515.596 1387.6 Q515.966 1389.69 515.501 1391.73 Q515.056 1393.73 513.432 1396.65 Q512.978 1397.41 510.482 1401.12 Q507.982 1404.8 503.421 1411.46 Z" fill="#000000" fill-rule="evenodd" fill-opacity="1" /><path clip-path="url(#clip430)" d="M534.223 1378.06 Q530.666 1378.69 529.484 1382.51 Q528.321 1386.32 529.559 1393.34 Q530.793 1400.33 533.19 1403.53 Q535.606 1406.7 539.163 1406.08 Q542.742 1405.44 543.905 1401.64 Q545.087 1397.81 543.853 1390.82 Q542.615 1383.79 540.199 1380.62 Q537.802 1377.43 534.223 1378.06 M533.579 1374.41 Q539.301 1373.4 543.11 1377.41 Q546.938 1381.39 548.458 1390 Q549.973 1398.6 547.741 1403.67 Q545.528 1408.71 539.806 1409.72 Q534.084 1410.73 530.256 1406.75 Q526.447 1402.75 524.932 1394.15 Q523.412 1385.54 525.626 1380.49 Q527.858 1375.42 533.579 1374.41 Z" fill="#000000" fill-rule="evenodd" fill-opacity="1" /><path clip-path="url(#clip430)" d="M559.659 1401.54 L567.182 1400.22 L562.604 1374.25 L554.709 1377.34 L553.97 1373.14 L561.819 1370.07 L566.423 1369.25 L571.741 1399.41 L579.264 1398.09 L579.948 1401.96 L560.343 1405.42 L559.659 1401.54 Z" fill="#000000" fill-rule="evenodd" fill-opacity="1" /><path clip-path="url(#clip430)" d="M596.247 1382.42 Q592.964 1383 591.381 1385.09 Q589.822 1387.18 590.364 1390.25 Q590.907 1393.33 593.086 1394.76 Q595.287 1396.18 598.57 1395.6 Q601.853 1395.02 603.435 1392.93 Q605.014 1390.82 604.475 1387.77 Q603.932 1384.69 601.731 1383.27 Q599.552 1381.84 596.247 1382.42 M591.296 1381.28 Q588.204 1381.07 586.182 1379.33 Q584.183 1377.59 583.668 1374.68 Q582.949 1370.59 585.426 1367.71 Q587.926 1364.83 592.987 1363.94 Q598.07 1363.04 601.383 1364.9 Q604.697 1366.76 605.416 1370.84 Q605.931 1373.76 604.624 1376.08 Q603.341 1378.4 600.529 1379.65 Q603.994 1379.84 606.238 1381.77 Q608.505 1383.69 609.08 1386.95 Q609.952 1391.9 607.387 1395.08 Q604.844 1398.25 599.213 1399.25 Q593.582 1400.24 590.084 1398.13 Q586.609 1396.02 585.737 1391.07 Q585.162 1387.81 586.633 1385.22 Q588.104 1382.64 591.296 1381.28 M588.327 1374.3 Q588.793 1376.95 590.696 1378.14 Q592.621 1379.33 595.607 1378.8 Q598.571 1378.28 599.974 1376.5 Q601.4 1374.72 600.933 1372.08 Q600.467 1369.43 598.519 1368.25 Q596.593 1367.06 593.63 1367.58 Q590.644 1368.11 589.241 1369.89 Q587.861 1371.66 588.327 1374.3 Z" fill="#000000" fill-rule="evenodd" fill-opacity="1" /><path clip-path="url(#clip430)" d="M634.206 1371.22 L627.572 1372.39 L627 1380.34 L633.679 1379.16 L634.206 1371.22 M628.499 1358.85 L627.797 1368.73 L634.453 1367.55 L635.179 1357.67 L638.826 1357.03 L638.146 1366.9 L645.259 1365.65 L645.878 1369.16 L637.876 1370.57 L637.349 1378.51 L644.599 1377.24 L645.214 1380.72 L637.075 1382.16 L636.369 1392.01 L632.721 1392.66 L633.405 1382.81 L626.726 1383.98 L626.042 1393.84 L622.372 1394.48 L623.078 1384.63 L615.897 1385.89 L615.282 1382.4 L623.307 1380.99 L623.879 1373.04 L616.539 1374.33 L615.92 1370.82 L624.149 1369.37 L624.806 1359.5 L628.499 1358.85 Z" fill="#000000" fill-rule="evenodd" fill-opacity="1" /><path clip-path="url(#clip430)" d="M658.185 1384.17 L665.708 1382.85 L661.13 1356.88 L653.235 1359.96 L652.496 1355.77 L660.344 1352.69 L664.949 1351.88 L670.267 1382.04 L677.79 1380.71 L678.473 1384.59 L658.869 1388.05 L658.185 1384.17 Z" fill="#000000" fill-rule="evenodd" fill-opacity="1" /><path clip-path="url(#clip430)" d="M694.08 1411.43 L710.152 1408.59 L710.835 1412.47 L689.224 1416.28 L688.541 1412.41 Q690.684 1409.23 694.394 1403.88 Q698.122 1398.49 699.052 1396.97 Q700.825 1394.09 701.39 1392.23 Q701.973 1390.34 701.68 1388.68 Q701.202 1385.96 698.985 1384.59 Q696.792 1383.21 693.737 1383.75 Q691.571 1384.13 689.288 1385.31 Q687.027 1386.49 684.56 1388.5 L683.74 1383.85 Q686.324 1382.24 688.64 1381.24 Q690.956 1380.25 692.962 1379.89 Q698.251 1378.96 701.863 1381.05 Q705.476 1383.14 706.255 1387.56 Q706.625 1389.66 706.161 1391.69 Q705.715 1393.7 704.091 1396.62 Q703.638 1397.38 701.142 1401.09 Q698.642 1404.77 694.08 1411.43 Z" fill="#000000" fill-rule="evenodd" fill-opacity="1" /><path clip-path="url(#clip430)" d="M724.882 1378.03 Q721.326 1378.65 720.144 1382.48 Q718.981 1386.28 720.219 1393.3 Q721.453 1400.3 723.85 1403.5 Q726.266 1406.67 729.822 1406.04 Q733.401 1405.41 734.564 1401.61 Q735.746 1397.78 734.512 1390.78 Q733.274 1383.76 730.858 1380.59 Q728.461 1377.4 724.882 1378.03 M724.239 1374.38 Q729.961 1373.37 733.77 1377.38 Q737.598 1381.35 739.117 1389.97 Q740.633 1398.57 738.401 1403.64 Q736.187 1408.68 730.465 1409.69 Q724.744 1410.7 720.916 1406.72 Q717.107 1402.71 715.591 1394.12 Q714.072 1385.5 716.285 1380.46 Q718.517 1375.39 724.239 1374.38 Z" fill="#000000" fill-rule="evenodd" fill-opacity="1" /><path clip-path="url(#clip430)" d="M750.319 1401.51 L757.842 1400.19 L753.263 1374.22 L745.369 1377.31 L744.629 1373.11 L752.478 1370.03 L757.083 1369.22 L762.401 1399.38 L769.924 1398.06 L770.607 1401.93 L751.002 1405.39 L750.319 1401.51 Z" fill="#000000" fill-rule="evenodd" fill-opacity="1" /><path clip-path="url(#clip430)" d="M786.906 1382.39 Q783.624 1382.97 782.041 1385.06 Q780.481 1387.14 781.024 1390.22 Q781.566 1393.3 783.745 1394.73 Q785.947 1396.15 789.23 1395.57 Q792.512 1394.99 794.095 1392.9 Q795.673 1390.79 795.135 1387.73 Q794.592 1384.66 792.391 1383.23 Q790.212 1381.81 786.906 1382.39 M781.956 1381.24 Q778.864 1381.04 776.842 1379.3 Q774.843 1377.56 774.328 1374.64 Q773.609 1370.56 776.086 1367.68 Q778.586 1364.8 783.646 1363.9 Q788.73 1363.01 792.043 1364.87 Q795.356 1366.73 796.076 1370.81 Q796.59 1373.73 795.284 1376.05 Q794 1378.37 791.188 1379.62 Q794.653 1379.8 796.898 1381.73 Q799.165 1383.66 799.74 1386.92 Q800.612 1391.87 798.046 1395.05 Q795.503 1398.22 789.873 1399.22 Q784.242 1400.21 780.744 1398.1 Q777.268 1395.98 776.396 1391.04 Q775.821 1387.78 777.293 1385.19 Q778.764 1382.6 781.956 1381.24 M778.986 1374.27 Q779.453 1376.91 781.355 1378.11 Q783.281 1379.29 786.267 1378.77 Q789.231 1378.24 790.633 1376.47 Q792.059 1374.69 791.593 1372.05 Q791.127 1369.4 789.178 1368.22 Q787.253 1367.03 784.289 1367.55 Q781.303 1368.08 779.9 1369.85 Q778.52 1371.62 778.986 1374.27 Z" fill="#000000" fill-rule="evenodd" fill-opacity="1" /><path clip-path="url(#clip430)" d="M824.865 1371.19 L818.232 1372.36 L817.659 1380.31 L824.339 1379.13 L824.865 1371.19 M819.159 1358.82 L818.456 1368.7 L825.113 1367.52 L825.838 1357.64 L829.486 1357 L828.806 1366.87 L835.918 1365.62 L836.537 1369.13 L828.536 1370.54 L828.009 1378.48 L835.258 1377.2 L835.873 1380.69 L827.735 1382.13 L827.028 1391.98 L823.381 1392.63 L824.065 1382.77 L817.385 1383.95 L816.701 1393.8 L813.031 1394.45 L813.738 1384.59 L806.557 1385.86 L805.942 1382.37 L813.966 1380.96 L814.539 1373.01 L807.198 1374.3 L806.579 1370.79 L814.809 1369.34 L815.466 1359.47 L819.159 1358.82 Z" fill="#000000" fill-rule="evenodd" fill-opacity="1" /><path clip-path="url(#clip430)" d="M852.014 1383.58 L868.085 1380.75 L868.768 1384.62 L847.157 1388.43 L846.474 1384.56 Q848.617 1381.38 852.327 1376.03 Q856.056 1370.65 856.985 1369.12 Q858.758 1366.24 859.323 1364.38 Q859.906 1362.49 859.613 1360.83 Q859.135 1358.11 856.918 1356.74 Q854.725 1355.37 851.67 1355.91 Q849.504 1356.29 847.221 1357.47 Q844.96 1358.64 842.493 1360.65 L841.673 1356 Q844.258 1354.39 846.574 1353.4 Q848.889 1352.4 850.896 1352.05 Q856.184 1351.11 859.796 1353.2 Q863.409 1355.29 864.188 1359.72 Q864.558 1361.81 864.094 1363.85 Q863.649 1365.85 862.024 1368.77 Q861.571 1369.53 859.075 1373.24 Q856.575 1376.92 852.014 1383.58 Z" fill="#000000" fill-rule="evenodd" fill-opacity="1" /><path clip-path="url(#clip430)" d="M884.375 1411.46 L900.447 1408.63 L901.13 1412.5 L879.519 1416.31 L878.836 1412.44 Q880.979 1409.26 884.689 1403.91 Q888.417 1398.53 889.347 1397 Q891.12 1394.12 891.685 1392.26 Q892.268 1390.37 891.975 1388.71 Q891.496 1385.99 889.28 1384.62 Q887.087 1383.25 884.032 1383.79 Q881.866 1384.17 879.582 1385.35 Q877.321 1386.52 874.855 1388.53 L874.035 1383.88 Q876.619 1382.27 878.935 1381.28 Q881.251 1380.28 883.257 1379.93 Q888.546 1378.99 892.158 1381.08 Q895.77 1383.17 896.55 1387.6 Q896.92 1389.69 896.456 1391.73 Q896.01 1393.73 894.386 1396.65 Q893.933 1397.41 891.437 1401.12 Q888.937 1404.8 884.375 1411.46 Z" fill="#000000" fill-rule="evenodd" fill-opacity="1" /><path clip-path="url(#clip430)" d="M915.177 1378.06 Q911.621 1378.69 910.439 1382.51 Q909.276 1386.32 910.514 1393.34 Q911.748 1400.33 914.145 1403.53 Q916.561 1406.7 920.117 1406.08 Q923.696 1405.44 924.859 1401.64 Q926.041 1397.81 924.807 1390.82 Q923.569 1383.79 921.153 1380.62 Q918.756 1377.43 915.177 1378.06 M914.534 1374.41 Q920.256 1373.4 924.065 1377.41 Q927.893 1381.39 929.412 1390 Q930.927 1398.6 928.695 1403.67 Q926.482 1408.71 920.76 1409.72 Q915.038 1410.73 911.211 1406.75 Q907.402 1402.75 905.886 1394.15 Q904.367 1385.54 906.58 1380.49 Q908.812 1375.42 914.534 1374.41 Z" fill="#000000" fill-rule="evenodd" fill-opacity="1" /><path clip-path="url(#clip430)" d="M940.614 1401.54 L948.137 1400.22 L943.558 1374.25 L935.664 1377.34 L934.924 1373.14 L942.773 1370.07 L947.378 1369.25 L952.696 1399.41 L960.219 1398.09 L960.902 1401.96 L941.297 1405.42 L940.614 1401.54 Z" fill="#000000" fill-rule="evenodd" fill-opacity="1" /><path clip-path="url(#clip430)" d="M970.215 1399.59 L969.476 1395.4 Q971.353 1395.91 973.207 1396.03 Q975.062 1396.15 976.771 1395.85 Q981.331 1395.05 983.186 1391.57 Q985.06 1388.07 984.3 1381.76 Q983.324 1383.95 981.48 1385.36 Q979.636 1386.77 977.174 1387.2 Q972.067 1388.1 968.538 1385.55 Q965.028 1382.97 964.083 1377.61 Q963.159 1372.37 965.701 1368.66 Q968.242 1364.94 973.394 1364.03 Q979.298 1362.99 983.199 1366.98 Q987.118 1370.94 988.637 1379.56 Q990.056 1387.61 987.074 1393.09 Q984.111 1398.55 977.66 1399.69 Q975.927 1400 974.089 1399.97 Q972.251 1399.94 970.215 1399.59 M976.835 1383.55 Q979.935 1383 981.362 1380.56 Q982.812 1378.12 982.161 1374.43 Q981.514 1370.76 979.316 1368.96 Q977.138 1367.13 974.037 1367.68 Q970.937 1368.23 969.491 1370.69 Q968.064 1373.13 968.711 1376.8 Q969.362 1380.49 971.537 1382.29 Q973.735 1384.09 976.835 1383.55 Z" fill="#000000" fill-rule="evenodd" fill-opacity="1" /><path clip-path="url(#clip430)" d="M1015.16 1371.22 L1008.53 1372.39 L1007.95 1380.34 L1014.63 1379.16 L1015.16 1371.22 M1009.45 1358.85 L1008.75 1368.73 L1015.41 1367.55 L1016.13 1357.67 L1019.78 1357.03 L1019.1 1366.9 L1026.21 1365.65 L1026.83 1369.16 L1018.83 1370.57 L1018.3 1378.51 L1025.55 1377.24 L1026.17 1380.72 L1018.03 1382.16 L1017.32 1392.01 L1013.68 1392.66 L1014.36 1382.81 L1007.68 1383.98 L1007 1393.84 L1003.33 1394.48 L1004.03 1384.63 L996.852 1385.89 L996.237 1382.4 L1004.26 1380.99 L1004.83 1373.04 L997.493 1374.33 L996.874 1370.82 L1005.1 1369.37 L1005.76 1359.5 L1009.45 1358.85 Z" fill="#000000" fill-rule="evenodd" fill-opacity="1" /><path clip-path="url(#clip430)" d="M1039.14 1384.17 L1046.66 1382.85 L1042.08 1356.88 L1034.19 1359.96 L1033.45 1355.77 L1041.3 1352.69 L1045.9 1351.88 L1051.22 1382.04 L1058.74 1380.71 L1059.43 1384.59 L1039.82 1388.05 L1039.14 1384.17 Z" fill="#000000" fill-rule="evenodd" fill-opacity="1" /><path clip-path="url(#clip430)" d="M1075.03 1411.43 L1091.11 1408.59 L1091.79 1412.47 L1070.18 1416.28 L1069.5 1412.41 Q1071.64 1409.23 1075.35 1403.88 Q1079.08 1398.49 1080.01 1396.97 Q1081.78 1394.09 1082.34 1392.23 Q1082.93 1390.34 1082.63 1388.68 Q1082.16 1385.96 1079.94 1384.59 Q1077.75 1383.21 1074.69 1383.75 Q1072.53 1384.13 1070.24 1385.31 Q1067.98 1386.49 1065.51 1388.5 L1064.69 1383.85 Q1067.28 1382.24 1069.59 1381.24 Q1071.91 1380.25 1073.92 1379.89 Q1079.21 1378.96 1082.82 1381.05 Q1086.43 1383.14 1087.21 1387.56 Q1087.58 1389.66 1087.12 1391.69 Q1086.67 1393.7 1085.05 1396.62 Q1084.59 1397.38 1082.1 1401.09 Q1079.6 1404.77 1075.03 1411.43 Z" fill="#000000" fill-rule="evenodd" fill-opacity="1" /><path clip-path="url(#clip430)" d="M1105.84 1378.03 Q1102.28 1378.65 1101.1 1382.48 Q1099.94 1386.28 1101.17 1393.3 Q1102.41 1400.3 1104.8 1403.5 Q1107.22 1406.67 1110.78 1406.04 Q1114.36 1405.41 1115.52 1401.61 Q1116.7 1397.78 1115.47 1390.78 Q1114.23 1383.76 1111.81 1380.59 Q1109.42 1377.4 1105.84 1378.03 M1105.19 1374.38 Q1110.92 1373.37 1114.72 1377.38 Q1118.55 1381.35 1120.07 1389.97 Q1121.59 1398.57 1119.36 1403.64 Q1117.14 1408.68 1111.42 1409.69 Q1105.7 1410.7 1101.87 1406.72 Q1098.06 1402.71 1096.55 1394.12 Q1095.03 1385.5 1097.24 1380.46 Q1099.47 1375.39 1105.19 1374.38 Z" fill="#000000" fill-rule="evenodd" fill-opacity="1" /><path clip-path="url(#clip430)" d="M1131.27 1401.51 L1138.8 1400.19 L1134.22 1374.22 L1126.32 1377.31 L1125.58 1373.11 L1133.43 1370.03 L1138.04 1369.22 L1143.36 1399.38 L1150.88 1398.06 L1151.56 1401.93 L1131.96 1405.39 L1131.27 1401.51 Z" fill="#000000" fill-rule="evenodd" fill-opacity="1" /><path clip-path="url(#clip430)" d="M1160.87 1399.56 L1160.14 1395.37 Q1162.01 1395.88 1163.87 1396 Q1165.72 1396.12 1167.43 1395.82 Q1171.99 1395.01 1173.85 1391.54 Q1175.72 1388.03 1174.96 1381.73 Q1173.98 1383.92 1172.14 1385.33 Q1170.3 1386.73 1167.83 1387.17 Q1162.73 1388.07 1159.2 1385.52 Q1155.69 1382.94 1154.74 1377.58 Q1153.82 1372.34 1156.36 1368.62 Q1158.9 1364.91 1164.05 1364 Q1169.96 1362.96 1173.86 1366.95 Q1177.78 1370.91 1179.3 1379.53 Q1180.72 1387.58 1177.73 1393.06 Q1174.77 1398.52 1168.32 1399.66 Q1166.59 1399.96 1164.75 1399.93 Q1162.91 1399.91 1160.87 1399.56 M1167.49 1383.51 Q1170.59 1382.97 1172.02 1380.53 Q1173.47 1378.09 1172.82 1374.39 Q1172.17 1370.72 1169.98 1368.93 Q1167.8 1367.1 1164.7 1367.65 Q1161.6 1368.19 1160.15 1370.66 Q1158.72 1373.1 1159.37 1376.77 Q1160.02 1380.46 1162.2 1382.26 Q1164.39 1384.06 1167.49 1383.51 Z" fill="#000000" fill-rule="evenodd" fill-opacity="1" /><path clip-path="url(#clip430)" d="M1205.82 1371.19 L1199.19 1372.36 L1198.61 1380.31 L1205.29 1379.13 L1205.82 1371.19 M1200.11 1358.82 L1199.41 1368.7 L1206.07 1367.52 L1206.79 1357.64 L1210.44 1357 L1209.76 1366.87 L1216.87 1365.62 L1217.49 1369.13 L1209.49 1370.54 L1208.96 1378.48 L1216.21 1377.2 L1216.83 1380.69 L1208.69 1382.13 L1207.98 1391.98 L1204.34 1392.63 L1205.02 1382.77 L1198.34 1383.95 L1197.66 1393.8 L1193.99 1394.45 L1194.69 1384.59 L1187.51 1385.86 L1186.9 1382.37 L1194.92 1380.96 L1195.49 1373.01 L1188.15 1374.3 L1187.53 1370.79 L1195.76 1369.34 L1196.42 1359.47 L1200.11 1358.82 Z" fill="#000000" fill-rule="evenodd" fill-opacity="1" /><path clip-path="url(#clip430)" d="M1232.97 1383.58 L1249.04 1380.75 L1249.72 1384.62 L1228.11 1388.43 L1227.43 1384.56 Q1229.57 1381.38 1233.28 1376.03 Q1237.01 1370.65 1237.94 1369.12 Q1239.71 1366.24 1240.28 1364.38 Q1240.86 1362.49 1240.57 1360.83 Q1240.09 1358.11 1237.87 1356.74 Q1235.68 1355.37 1232.62 1355.91 Q1230.46 1356.29 1228.18 1357.47 Q1225.91 1358.64 1223.45 1360.65 L1222.63 1356 Q1225.21 1354.39 1227.53 1353.4 Q1229.84 1352.4 1231.85 1352.05 Q1237.14 1351.11 1240.75 1353.2 Q1244.36 1355.29 1245.14 1359.72 Q1245.51 1361.81 1245.05 1363.85 Q1244.6 1365.85 1242.98 1368.77 Q1242.53 1369.53 1240.03 1373.24 Q1237.53 1376.92 1232.97 1383.58 Z" fill="#000000" fill-rule="evenodd" fill-opacity="1" /><path clip-path="url(#clip430)" d="M1265.04 1411.51 L1281.12 1408.68 L1281.8 1412.55 L1260.19 1416.36 L1259.51 1412.49 Q1261.65 1409.31 1265.36 1403.96 Q1269.09 1398.58 1270.02 1397.05 Q1271.79 1394.17 1272.35 1392.31 Q1272.94 1390.42 1272.64 1388.76 Q1272.17 1386.05 1269.95 1384.67 Q1267.76 1383.3 1264.7 1383.84 Q1262.54 1384.22 1260.25 1385.4 Q1257.99 1386.57 1255.52 1388.58 L1254.7 1383.93 Q1257.29 1382.32 1259.6 1381.33 Q1261.92 1380.33 1263.93 1379.98 Q1269.22 1379.04 1272.83 1381.13 Q1276.44 1383.22 1277.22 1387.65 Q1277.59 1389.74 1277.13 1391.78 Q1276.68 1393.78 1275.06 1396.7 Q1274.6 1397.46 1272.11 1401.17 Q1269.61 1404.85 1265.04 1411.51 Z" fill="#000000" fill-rule="evenodd" fill-opacity="1" /><path clip-path="url(#clip430)" d="M1295.85 1378.11 Q1292.29 1378.74 1291.11 1382.56 Q1289.95 1386.37 1291.18 1393.39 Q1292.42 1400.39 1294.81 1403.58 Q1297.23 1406.75 1300.79 1406.13 Q1304.37 1405.49 1305.53 1401.69 Q1306.71 1397.86 1305.48 1390.87 Q1304.24 1383.84 1301.82 1380.67 Q1299.43 1377.48 1295.85 1378.11 M1295.2 1374.46 Q1300.93 1373.45 1304.73 1377.46 Q1308.56 1381.44 1310.08 1390.05 Q1311.6 1398.65 1309.36 1403.72 Q1307.15 1408.76 1301.43 1409.77 Q1295.71 1410.78 1291.88 1406.8 Q1288.07 1402.8 1286.56 1394.2 Q1285.04 1385.59 1287.25 1380.54 Q1289.48 1375.47 1295.2 1374.46 Z" fill="#000000" fill-rule="evenodd" fill-opacity="1" /><path clip-path="url(#clip430)" d="M1321.28 1401.59 L1328.81 1400.27 L1324.23 1374.3 L1316.33 1377.39 L1315.59 1373.19 L1323.44 1370.12 L1328.05 1369.3 L1333.37 1399.46 L1340.89 1398.14 L1341.57 1402.01 L1321.97 1405.47 L1321.28 1401.59 Z" fill="#000000" fill-rule="evenodd" fill-opacity="1" /><path clip-path="url(#clip430)" d="M1350.88 1399.64 L1350.15 1395.45 Q1352.02 1395.96 1353.88 1396.08 Q1355.73 1396.2 1357.44 1395.9 Q1362 1395.1 1363.86 1391.62 Q1365.73 1388.12 1364.97 1381.81 Q1363.99 1384 1362.15 1385.41 Q1360.31 1386.82 1357.84 1387.25 Q1352.74 1388.15 1349.21 1385.6 Q1345.7 1383.02 1344.75 1377.66 Q1343.83 1372.42 1346.37 1368.71 Q1348.91 1364.99 1354.06 1364.08 Q1359.97 1363.04 1363.87 1367.03 Q1367.79 1370.99 1369.31 1379.61 Q1370.73 1387.66 1367.74 1393.14 Q1364.78 1398.6 1358.33 1399.74 Q1356.6 1400.05 1354.76 1400.02 Q1352.92 1399.99 1350.88 1399.64 M1357.5 1383.6 Q1360.6 1383.05 1362.03 1380.61 Q1363.48 1378.17 1362.83 1374.48 Q1362.18 1370.81 1359.99 1369.01 Q1357.81 1367.18 1354.71 1367.73 Q1351.61 1368.28 1350.16 1370.74 Q1348.73 1373.18 1349.38 1376.85 Q1350.03 1380.54 1352.21 1382.34 Q1354.4 1384.14 1357.5 1383.6 Z" fill="#000000" fill-rule="evenodd" fill-opacity="1" /><path clip-path="url(#clip430)" d="M1395.83 1371.27 L1389.2 1372.44 L1388.62 1380.39 L1395.3 1379.21 L1395.83 1371.27 M1390.12 1358.9 L1389.42 1368.78 L1396.08 1367.6 L1396.8 1357.72 L1400.45 1357.08 L1399.77 1366.95 L1406.88 1365.7 L1407.5 1369.21 L1399.5 1370.62 L1398.97 1378.56 L1406.22 1377.29 L1406.84 1380.77 L1398.7 1382.21 L1397.99 1392.06 L1394.35 1392.71 L1395.03 1382.86 L1388.35 1384.03 L1387.67 1393.89 L1384 1394.53 L1384.7 1384.68 L1377.52 1385.94 L1376.91 1382.46 L1384.93 1381.04 L1385.5 1373.09 L1378.16 1374.38 L1377.54 1370.87 L1385.77 1369.42 L1386.43 1359.55 L1390.12 1358.9 Z" fill="#000000" fill-rule="evenodd" fill-opacity="1" /><path clip-path="url(#clip430)" d="M1430.41 1367.43 Q1433.84 1367.55 1436.08 1369.46 Q1438.34 1371.36 1438.92 1374.65 Q1439.81 1379.68 1436.83 1383.05 Q1433.85 1386.42 1427.47 1387.55 Q1425.33 1387.93 1422.97 1387.9 Q1420.64 1387.88 1418.08 1387.47 L1417.29 1383.02 Q1419.41 1383.8 1421.79 1383.97 Q1424.17 1384.14 1426.65 1383.7 Q1430.98 1382.93 1432.94 1380.83 Q1434.92 1378.71 1434.34 1375.45 Q1433.81 1372.45 1431.39 1371.13 Q1428.99 1369.79 1425.23 1370.46 L1421.27 1371.15 L1420.6 1367.37 L1424.75 1366.64 Q1428.14 1366.04 1429.71 1364.38 Q1431.27 1362.69 1430.82 1360.14 Q1430.36 1357.52 1428.24 1356.46 Q1426.15 1355.37 1422.68 1355.98 Q1420.79 1356.31 1418.69 1357.11 Q1416.6 1357.9 1414.16 1359.22 L1413.43 1355.12 Q1415.92 1353.93 1418.14 1353.16 Q1420.38 1352.39 1422.41 1352.03 Q1427.65 1351.11 1431.13 1352.96 Q1434.6 1354.79 1435.32 1358.85 Q1435.81 1361.68 1434.54 1363.92 Q1433.26 1366.15 1430.41 1367.43 Z" fill="#000000" fill-rule="evenodd" fill-opacity="1" /><path clip-path="url(#clip430)" d="M1455.81 1411.46 L1471.88 1408.63 L1472.56 1412.5 L1450.95 1416.31 L1450.27 1412.44 Q1452.41 1409.26 1456.12 1403.91 Q1459.85 1398.53 1460.78 1397 Q1462.55 1394.12 1463.12 1392.26 Q1463.7 1390.37 1463.41 1388.71 Q1462.93 1385.99 1460.71 1384.62 Q1458.52 1383.25 1455.46 1383.79 Q1453.3 1384.17 1451.01 1385.35 Q1448.75 1386.52 1446.29 1388.53 L1445.47 1383.88 Q1448.05 1382.27 1450.37 1381.28 Q1452.68 1380.28 1454.69 1379.93 Q1459.98 1378.99 1463.59 1381.08 Q1467.2 1383.17 1467.98 1387.6 Q1468.35 1389.69 1467.89 1391.73 Q1467.44 1393.73 1465.82 1396.65 Q1465.36 1397.41 1462.87 1401.12 Q1460.37 1404.8 1455.81 1411.46 Z" fill="#000000" fill-rule="evenodd" fill-opacity="1" /><path clip-path="url(#clip430)" d="M1486.61 1378.06 Q1483.05 1378.69 1481.87 1382.51 Q1480.71 1386.32 1481.95 1393.34 Q1483.18 1400.33 1485.58 1403.53 Q1487.99 1406.7 1491.55 1406.08 Q1495.13 1405.44 1496.29 1401.64 Q1497.47 1397.81 1496.24 1390.82 Q1495 1383.79 1492.58 1380.62 Q1490.19 1377.43 1486.61 1378.06 M1485.97 1374.41 Q1491.69 1373.4 1495.5 1377.41 Q1499.32 1381.39 1500.84 1390 Q1502.36 1398.6 1500.13 1403.67 Q1497.91 1408.71 1492.19 1409.72 Q1486.47 1410.73 1482.64 1406.75 Q1478.83 1402.75 1477.32 1394.15 Q1475.8 1385.54 1478.01 1380.49 Q1480.24 1375.42 1485.97 1374.41 Z" fill="#000000" fill-rule="evenodd" fill-opacity="1" /><path clip-path="url(#clip430)" d="M1515.21 1400.99 L1531.29 1398.15 L1531.97 1402.03 L1510.36 1405.84 L1509.67 1401.96 Q1511.82 1398.79 1515.53 1393.43 Q1519.26 1388.05 1520.19 1386.52 Q1521.96 1383.65 1522.52 1381.79 Q1523.11 1379.9 1522.81 1378.23 Q1522.34 1375.52 1520.12 1374.15 Q1517.93 1372.77 1514.87 1373.31 Q1512.71 1373.69 1510.42 1374.87 Q1508.16 1376.04 1505.69 1378.05 L1504.87 1373.4 Q1507.46 1371.8 1509.77 1370.8 Q1512.09 1369.8 1514.1 1369.45 Q1519.39 1368.52 1523 1370.61 Q1526.61 1372.7 1527.39 1377.12 Q1527.76 1379.22 1527.29 1381.25 Q1526.85 1383.26 1525.23 1386.18 Q1524.77 1386.94 1522.28 1390.64 Q1519.78 1394.33 1515.21 1400.99 Z" fill="#000000" fill-rule="evenodd" fill-opacity="1" /><path clip-path="url(#clip430)" d="M1546.02 1367.58 Q1542.46 1368.21 1541.28 1372.04 Q1540.11 1375.84 1541.35 1382.86 Q1542.59 1389.86 1544.98 1393.06 Q1547.4 1396.23 1550.96 1395.6 Q1554.54 1394.97 1555.7 1391.17 Q1556.88 1387.34 1555.65 1380.34 Q1554.41 1373.32 1551.99 1370.15 Q1549.6 1366.95 1546.02 1367.58 M1545.37 1363.94 Q1551.09 1362.93 1554.9 1366.93 Q1558.73 1370.91 1560.25 1379.53 Q1561.77 1388.12 1559.53 1393.19 Q1557.32 1398.24 1551.6 1399.25 Q1545.88 1400.26 1542.05 1396.28 Q1538.24 1392.27 1536.73 1383.68 Q1535.21 1375.06 1537.42 1370.02 Q1539.65 1364.94 1545.37 1363.94 Z" fill="#000000" fill-rule="evenodd" fill-opacity="1" /><path clip-path="url(#clip430)" d="M1586.59 1371.22 L1579.96 1372.39 L1579.39 1380.34 L1586.07 1379.16 L1586.59 1371.22 M1580.89 1358.85 L1580.18 1368.73 L1586.84 1367.55 L1587.56 1357.67 L1591.21 1357.03 L1590.53 1366.9 L1597.64 1365.65 L1598.26 1369.16 L1590.26 1370.57 L1589.74 1378.51 L1596.98 1377.24 L1597.6 1380.72 L1589.46 1382.16 L1588.75 1392.01 L1585.11 1392.66 L1585.79 1382.81 L1579.11 1383.98 L1578.43 1393.84 L1574.76 1394.48 L1575.46 1384.63 L1568.28 1385.89 L1567.67 1382.4 L1575.69 1380.99 L1576.27 1373.04 L1568.92 1374.33 L1568.31 1370.82 L1576.54 1369.37 L1577.19 1359.5 L1580.89 1358.85 Z" fill="#000000" fill-rule="evenodd" fill-opacity="1" /><path clip-path="url(#clip430)" d="M1610.57 1384.17 L1618.09 1382.85 L1613.52 1356.88 L1605.62 1359.96 L1604.88 1355.77 L1612.73 1352.69 L1617.34 1351.88 L1622.65 1382.04 L1630.18 1380.71 L1630.86 1384.59 L1611.25 1388.05 L1610.57 1384.17 Z" fill="#000000" fill-rule="evenodd" fill-opacity="1" /><path clip-path="url(#clip430)" d="M1646.47 1411.43 L1662.54 1408.59 L1663.22 1412.47 L1641.61 1416.28 L1640.93 1412.41 Q1643.07 1409.23 1646.78 1403.88 Q1650.51 1398.49 1651.44 1396.97 Q1653.21 1394.09 1653.78 1392.23 Q1654.36 1390.34 1654.07 1388.68 Q1653.59 1385.96 1651.37 1384.59 Q1649.18 1383.21 1646.12 1383.75 Q1643.96 1384.13 1641.67 1385.31 Q1639.41 1386.49 1636.95 1388.5 L1636.13 1383.85 Q1638.71 1382.24 1641.03 1381.24 Q1643.34 1380.25 1645.35 1379.89 Q1650.64 1378.96 1654.25 1381.05 Q1657.86 1383.14 1658.64 1387.56 Q1659.01 1389.66 1658.55 1391.69 Q1658.1 1393.7 1656.48 1396.62 Q1656.02 1397.38 1653.53 1401.09 Q1651.03 1404.77 1646.47 1411.43 Z" fill="#000000" fill-rule="evenodd" fill-opacity="1" /><path clip-path="url(#clip430)" d="M1677.27 1378.03 Q1673.71 1378.65 1672.53 1382.48 Q1671.37 1386.28 1672.61 1393.3 Q1673.84 1400.3 1676.24 1403.5 Q1678.65 1406.67 1682.21 1406.04 Q1685.79 1405.41 1686.95 1401.61 Q1688.13 1397.78 1686.9 1390.78 Q1685.66 1383.76 1683.24 1380.59 Q1680.85 1377.4 1677.27 1378.03 M1676.63 1374.38 Q1682.35 1373.37 1686.16 1377.38 Q1689.98 1381.35 1691.5 1389.97 Q1693.02 1398.57 1690.79 1403.64 Q1688.57 1408.68 1682.85 1409.69 Q1677.13 1410.7 1673.3 1406.72 Q1669.49 1402.71 1667.98 1394.12 Q1666.46 1385.5 1668.67 1380.46 Q1670.9 1375.39 1676.63 1374.38 Z" fill="#000000" fill-rule="evenodd" fill-opacity="1" /><path clip-path="url(#clip430)" d="M1705.87 1400.95 L1721.95 1398.12 L1722.63 1401.99 L1701.02 1405.81 L1700.33 1401.93 Q1702.48 1398.76 1706.19 1393.4 Q1709.92 1388.02 1710.85 1386.49 Q1712.62 1383.62 1713.18 1381.75 Q1713.77 1379.86 1713.47 1378.2 Q1713 1375.49 1710.78 1374.12 Q1708.59 1372.74 1705.53 1373.28 Q1703.36 1373.66 1701.08 1374.84 Q1698.82 1376.01 1696.35 1378.02 L1695.53 1373.37 Q1698.12 1371.76 1700.43 1370.77 Q1702.75 1369.77 1704.76 1369.42 Q1710.04 1368.49 1713.66 1370.58 Q1717.27 1372.67 1718.05 1377.09 Q1718.42 1379.19 1717.95 1381.22 Q1717.51 1383.22 1715.88 1386.14 Q1715.43 1386.9 1712.94 1390.61 Q1710.44 1394.3 1705.87 1400.95 Z" fill="#000000" fill-rule="evenodd" fill-opacity="1" /><path clip-path="url(#clip430)" d="M1736.68 1367.55 Q1733.12 1368.18 1731.94 1372.01 Q1730.77 1375.81 1732.01 1382.83 Q1733.25 1389.83 1735.64 1393.02 Q1738.06 1396.19 1741.62 1395.57 Q1745.19 1394.94 1746.36 1391.14 Q1747.54 1387.31 1746.31 1380.31 Q1745.07 1373.29 1742.65 1370.12 Q1740.25 1366.92 1736.68 1367.55 M1736.03 1363.9 Q1741.75 1362.89 1745.56 1366.9 Q1749.39 1370.88 1750.91 1379.5 Q1752.43 1388.09 1750.19 1393.16 Q1747.98 1398.21 1742.26 1399.22 Q1736.54 1400.22 1732.71 1396.25 Q1728.9 1392.24 1727.38 1383.65 Q1725.87 1375.03 1728.08 1369.98 Q1730.31 1364.91 1736.03 1363.9 Z" fill="#000000" fill-rule="evenodd" fill-opacity="1" /><path clip-path="url(#clip430)" d="M1777.25 1371.19 L1770.62 1372.36 L1770.05 1380.31 L1776.72 1379.13 L1777.25 1371.19 M1771.55 1358.82 L1770.84 1368.7 L1777.5 1367.52 L1778.22 1357.64 L1781.87 1357 L1781.19 1366.87 L1788.3 1365.62 L1788.92 1369.13 L1780.92 1370.54 L1780.4 1378.48 L1787.64 1377.2 L1788.26 1380.69 L1780.12 1382.13 L1779.41 1391.98 L1775.77 1392.63 L1776.45 1382.77 L1769.77 1383.95 L1769.09 1393.8 L1765.42 1394.45 L1766.12 1384.59 L1758.94 1385.86 L1758.33 1382.37 L1766.35 1380.96 L1766.92 1373.01 L1759.58 1374.3 L1758.97 1370.79 L1767.2 1369.34 L1767.85 1359.47 L1771.55 1358.82 Z" fill="#000000" fill-rule="evenodd" fill-opacity="1" /><path clip-path="url(#clip430)" d="M1804.4 1383.58 L1820.47 1380.75 L1821.15 1384.62 L1799.54 1388.43 L1798.86 1384.56 Q1801 1381.38 1804.71 1376.03 Q1808.44 1370.65 1809.37 1369.12 Q1811.14 1366.24 1811.71 1364.38 Q1812.29 1362.49 1812 1360.83 Q1811.52 1358.11 1809.3 1356.74 Q1807.11 1355.37 1804.06 1355.91 Q1801.89 1356.29 1799.61 1357.47 Q1797.35 1358.64 1794.88 1360.65 L1794.06 1356 Q1796.64 1354.39 1798.96 1353.4 Q1801.28 1352.4 1803.28 1352.05 Q1808.57 1351.11 1812.18 1353.2 Q1815.79 1355.29 1816.57 1359.72 Q1816.94 1361.81 1816.48 1363.85 Q1816.03 1365.85 1814.41 1368.77 Q1813.96 1369.53 1811.46 1373.24 Q1808.96 1376.92 1804.4 1383.58 Z" fill="#000000" fill-rule="evenodd" fill-opacity="1" /><path clip-path="url(#clip430)" d="M1836.48 1411.51 L1852.55 1408.68 L1853.23 1412.55 L1831.62 1416.36 L1830.94 1412.49 Q1833.08 1409.31 1836.79 1403.96 Q1840.52 1398.58 1841.45 1397.05 Q1843.22 1394.17 1843.79 1392.31 Q1844.37 1390.42 1844.08 1388.76 Q1843.6 1386.05 1841.38 1384.67 Q1839.19 1383.3 1836.13 1383.84 Q1833.97 1384.22 1831.68 1385.4 Q1829.42 1386.57 1826.96 1388.58 L1826.14 1383.93 Q1828.72 1382.32 1831.04 1381.33 Q1833.35 1380.33 1835.36 1379.98 Q1840.65 1379.04 1844.26 1381.13 Q1847.87 1383.22 1848.65 1387.65 Q1849.02 1389.74 1848.56 1391.78 Q1848.11 1393.78 1846.49 1396.7 Q1846.03 1397.46 1843.54 1401.17 Q1841.04 1404.85 1836.48 1411.51 Z" fill="#000000" fill-rule="evenodd" fill-opacity="1" /><path clip-path="url(#clip430)" d="M1867.28 1378.11 Q1863.72 1378.74 1862.54 1382.56 Q1861.38 1386.37 1862.62 1393.39 Q1863.85 1400.39 1866.25 1403.58 Q1868.66 1406.75 1872.22 1406.13 Q1875.8 1405.49 1876.96 1401.69 Q1878.14 1397.86 1876.91 1390.87 Q1875.67 1383.84 1873.25 1380.67 Q1870.86 1377.48 1867.28 1378.11 M1866.64 1374.46 Q1872.36 1373.45 1876.17 1377.46 Q1879.99 1381.44 1881.51 1390.05 Q1883.03 1398.65 1880.8 1403.72 Q1878.58 1408.76 1872.86 1409.77 Q1867.14 1410.78 1863.31 1406.8 Q1859.5 1402.8 1857.99 1394.2 Q1856.47 1385.59 1858.68 1380.54 Q1860.91 1375.47 1866.64 1374.46 Z" fill="#000000" fill-rule="evenodd" fill-opacity="1" /><path clip-path="url(#clip430)" d="M1895.88 1401.04 L1911.96 1398.2 L1912.64 1402.08 L1891.03 1405.89 L1890.34 1402.01 Q1892.49 1398.84 1896.2 1393.48 Q1899.93 1388.1 1900.86 1386.57 Q1902.63 1383.7 1903.19 1381.84 Q1903.78 1379.95 1903.48 1378.28 Q1903.01 1375.57 1900.79 1374.2 Q1898.6 1372.82 1895.54 1373.36 Q1893.37 1373.74 1891.09 1374.92 Q1888.83 1376.09 1886.36 1378.1 L1885.54 1373.45 Q1888.13 1371.85 1890.44 1370.85 Q1892.76 1369.85 1894.77 1369.5 Q1900.05 1368.57 1903.67 1370.66 Q1907.28 1372.75 1908.06 1377.17 Q1908.43 1379.27 1907.96 1381.3 Q1907.52 1383.31 1905.89 1386.23 Q1905.44 1386.99 1902.95 1390.69 Q1900.45 1394.38 1895.88 1401.04 Z" fill="#000000" fill-rule="evenodd" fill-opacity="1" /><path clip-path="url(#clip430)" d="M1926.69 1367.63 Q1923.13 1368.26 1921.95 1372.09 Q1920.78 1375.89 1922.02 1382.91 Q1923.26 1389.91 1925.65 1393.11 Q1928.07 1396.28 1931.63 1395.65 Q1935.2 1395.02 1936.37 1391.22 Q1937.55 1387.39 1936.32 1380.39 Q1935.08 1373.37 1932.66 1370.2 Q1930.26 1367 1926.69 1367.63 M1926.04 1363.99 Q1931.76 1362.98 1935.57 1366.98 Q1939.4 1370.96 1940.92 1379.58 Q1942.44 1388.17 1940.2 1393.24 Q1937.99 1398.29 1932.27 1399.3 Q1926.55 1400.31 1922.72 1396.33 Q1918.91 1392.32 1917.39 1383.73 Q1915.88 1375.11 1918.09 1370.07 Q1920.32 1365 1926.04 1363.99 Z" fill="#000000" fill-rule="evenodd" fill-opacity="1" /><path clip-path="url(#clip430)" d="M1967.26 1371.27 L1960.63 1372.44 L1960.06 1380.39 L1966.73 1379.21 L1967.26 1371.27 M1961.56 1358.9 L1960.85 1368.78 L1967.51 1367.6 L1968.23 1357.72 L1971.88 1357.08 L1971.2 1366.95 L1978.31 1365.7 L1978.93 1369.21 L1970.93 1370.62 L1970.41 1378.56 L1977.65 1377.29 L1978.27 1380.77 L1970.13 1382.21 L1969.42 1392.06 L1965.78 1392.71 L1966.46 1382.86 L1959.78 1384.03 L1959.1 1393.89 L1955.43 1394.53 L1956.13 1384.68 L1948.95 1385.94 L1948.34 1382.46 L1956.36 1381.04 L1956.93 1373.09 L1949.59 1374.38 L1948.98 1370.87 L1957.2 1369.42 L1957.86 1359.55 L1961.56 1358.9 Z" fill="#000000" fill-rule="evenodd" fill-opacity="1" /><path clip-path="url(#clip430)" d="M2001.84 1367.43 Q2005.27 1367.55 2007.51 1369.46 Q2009.78 1371.36 2010.35 1374.65 Q2011.24 1379.68 2008.26 1383.05 Q2005.29 1386.42 1998.9 1387.55 Q1996.76 1387.93 1994.4 1387.9 Q1992.07 1387.88 1989.51 1387.47 L1988.73 1383.02 Q1990.84 1383.8 1993.22 1383.97 Q1995.6 1384.14 1998.08 1383.7 Q2002.41 1382.93 2004.37 1380.83 Q2006.35 1378.71 2005.77 1375.45 Q2005.24 1372.45 2002.82 1371.13 Q2000.43 1369.79 1996.66 1370.46 L1992.7 1371.15 L1992.03 1367.37 L1996.18 1366.64 Q1999.58 1366.04 2001.14 1364.38 Q2002.7 1362.69 2002.25 1360.14 Q2001.79 1357.52 1999.67 1356.46 Q1997.58 1355.37 1994.11 1355.98 Q1992.22 1356.31 1990.13 1357.11 Q1988.03 1357.9 1985.59 1359.22 L1984.86 1355.12 Q1987.36 1353.93 1989.57 1353.16 Q1991.81 1352.39 1993.84 1352.03 Q1999.08 1351.11 2002.56 1352.96 Q2006.03 1354.79 2006.75 1358.85 Q2007.25 1361.68 2005.97 1363.92 Q2004.7 1366.15 2001.84 1367.43 Z" fill="#000000" fill-rule="evenodd" fill-opacity="1" /><path clip-path="url(#clip430)" d="M2027.24 1411.46 L2043.31 1408.63 L2043.99 1412.5 L2022.38 1416.31 L2021.7 1412.44 Q2023.84 1409.26 2027.55 1403.91 Q2031.28 1398.53 2032.21 1397 Q2033.98 1394.12 2034.55 1392.26 Q2035.13 1390.37 2034.84 1388.71 Q2034.36 1385.99 2032.14 1384.62 Q2029.95 1383.25 2026.9 1383.79 Q2024.73 1384.17 2022.45 1385.35 Q2020.18 1386.52 2017.72 1388.53 L2016.9 1383.88 Q2019.48 1382.27 2021.8 1381.28 Q2024.11 1380.28 2026.12 1379.93 Q2031.41 1378.99 2035.02 1381.08 Q2038.63 1383.17 2039.41 1387.6 Q2039.78 1389.69 2039.32 1391.73 Q2038.87 1393.73 2037.25 1396.65 Q2036.8 1397.41 2034.3 1401.12 Q2031.8 1404.8 2027.24 1411.46 Z" fill="#000000" fill-rule="evenodd" fill-opacity="1" /><path clip-path="url(#clip430)" d="M2058.04 1378.06 Q2054.48 1378.69 2053.3 1382.51 Q2052.14 1386.32 2053.38 1393.34 Q2054.61 1400.33 2057.01 1403.53 Q2059.42 1406.7 2062.98 1406.08 Q2066.56 1405.44 2067.72 1401.64 Q2068.9 1397.81 2067.67 1390.82 Q2066.43 1383.79 2064.02 1380.62 Q2061.62 1377.43 2058.04 1378.06 M2057.4 1374.41 Q2063.12 1373.4 2066.93 1377.41 Q2070.76 1381.39 2072.28 1390 Q2073.79 1398.6 2071.56 1403.67 Q2069.35 1408.71 2063.62 1409.72 Q2057.9 1410.73 2054.07 1406.75 Q2050.27 1402.75 2048.75 1394.15 Q2047.23 1385.54 2049.44 1380.49 Q2051.68 1375.42 2057.4 1374.41 Z" fill="#000000" fill-rule="evenodd" fill-opacity="1" /><path clip-path="url(#clip430)" d="M2086.65 1400.99 L2102.72 1398.15 L2103.4 1402.03 L2081.79 1405.84 L2081.11 1401.96 Q2083.25 1398.79 2086.96 1393.43 Q2090.69 1388.05 2091.62 1386.52 Q2093.39 1383.65 2093.96 1381.79 Q2094.54 1379.9 2094.25 1378.23 Q2093.77 1375.52 2091.55 1374.15 Q2089.36 1372.77 2086.3 1373.31 Q2084.14 1373.69 2081.85 1374.87 Q2079.59 1376.04 2077.13 1378.05 L2076.31 1373.4 Q2078.89 1371.8 2081.21 1370.8 Q2083.52 1369.8 2085.53 1369.45 Q2090.82 1368.52 2094.43 1370.61 Q2098.04 1372.7 2098.82 1377.12 Q2099.19 1379.22 2098.73 1381.25 Q2098.28 1383.26 2096.66 1386.18 Q2096.2 1386.94 2093.71 1390.64 Q2091.21 1394.33 2086.65 1400.99 Z" fill="#000000" fill-rule="evenodd" fill-opacity="1" /><path clip-path="url(#clip430)" d="M2113.18 1396.31 L2120.7 1394.98 L2116.13 1369.02 L2108.23 1372.1 L2107.49 1367.91 L2115.34 1364.83 L2119.95 1364.02 L2125.26 1394.18 L2132.79 1392.85 L2133.47 1396.73 L2113.86 1400.18 L2113.18 1396.31 Z" fill="#000000" fill-rule="evenodd" fill-opacity="1" /><path clip-path="url(#clip430)" d="M2158.02 1371.22 L2151.39 1372.39 L2150.82 1380.34 L2157.5 1379.16 L2158.02 1371.22 M2152.32 1358.85 L2151.61 1368.73 L2158.27 1367.55 L2159 1357.67 L2162.64 1357.03 L2161.96 1366.9 L2169.08 1365.65 L2169.7 1369.16 L2161.69 1370.57 L2161.17 1378.51 L2168.42 1377.24 L2169.03 1380.72 L2160.89 1382.16 L2160.19 1392.01 L2156.54 1392.66 L2157.22 1382.81 L2150.54 1383.98 L2149.86 1393.84 L2146.19 1394.48 L2146.9 1384.63 L2139.72 1385.89 L2139.1 1382.4 L2147.12 1380.99 L2147.7 1373.04 L2140.36 1374.33 L2139.74 1370.82 L2147.97 1369.37 L2148.62 1359.5 L2152.32 1358.85 Z" fill="#000000" fill-rule="evenodd" fill-opacity="1" /><path clip-path="url(#clip430)" d="M2182 1384.17 L2189.53 1382.85 L2184.95 1356.88 L2177.05 1359.96 L2176.31 1355.77 L2184.16 1352.69 L2188.77 1351.88 L2194.09 1382.04 L2201.61 1380.71 L2202.29 1384.59 L2182.69 1388.05 L2182 1384.17 Z" fill="#000000" fill-rule="evenodd" fill-opacity="1" /><path clip-path="url(#clip430)" d="M2217.9 1411.43 L2233.97 1408.59 L2234.65 1412.47 L2213.04 1416.28 L2212.36 1412.41 Q2214.5 1409.23 2218.21 1403.88 Q2221.94 1398.49 2222.87 1396.97 Q2224.64 1394.09 2225.21 1392.23 Q2225.79 1390.34 2225.5 1388.68 Q2225.02 1385.96 2222.8 1384.59 Q2220.61 1383.21 2217.55 1383.75 Q2215.39 1384.13 2213.11 1385.31 Q2210.84 1386.49 2208.38 1388.5 L2207.56 1383.85 Q2210.14 1382.24 2212.46 1381.24 Q2214.77 1380.25 2216.78 1379.89 Q2222.07 1378.96 2225.68 1381.05 Q2229.29 1383.14 2230.07 1387.56 Q2230.44 1389.66 2229.98 1391.69 Q2229.53 1393.7 2227.91 1396.62 Q2227.46 1397.38 2224.96 1401.09 Q2222.46 1404.77 2217.9 1411.43 Z" fill="#000000" fill-rule="evenodd" fill-opacity="1" /><path clip-path="url(#clip430)" d="M2248.7 1378.03 Q2245.14 1378.65 2243.96 1382.48 Q2242.8 1386.28 2244.04 1393.3 Q2245.27 1400.3 2247.67 1403.5 Q2250.08 1406.67 2253.64 1406.04 Q2257.22 1405.41 2258.38 1401.61 Q2259.56 1397.78 2258.33 1390.78 Q2257.09 1383.76 2254.68 1380.59 Q2252.28 1377.4 2248.7 1378.03 M2248.06 1374.38 Q2253.78 1373.37 2257.59 1377.38 Q2261.42 1381.35 2262.94 1389.97 Q2264.45 1398.57 2262.22 1403.64 Q2260.01 1408.68 2254.28 1409.69 Q2248.56 1410.7 2244.73 1406.72 Q2240.92 1402.71 2239.41 1394.12 Q2237.89 1385.5 2240.1 1380.46 Q2242.34 1375.39 2248.06 1374.38 Z" fill="#000000" fill-rule="evenodd" fill-opacity="1" /><path clip-path="url(#clip430)" d="M2277.31 1400.95 L2293.38 1398.12 L2294.06 1401.99 L2272.45 1405.81 L2271.77 1401.93 Q2273.91 1398.76 2277.62 1393.4 Q2281.35 1388.02 2282.28 1386.49 Q2284.05 1383.62 2284.62 1381.75 Q2285.2 1379.86 2284.91 1378.2 Q2284.43 1375.49 2282.21 1374.12 Q2280.02 1372.74 2276.96 1373.28 Q2274.8 1373.66 2272.51 1374.84 Q2270.25 1376.01 2267.79 1378.02 L2266.97 1373.37 Q2269.55 1371.76 2271.87 1370.77 Q2274.18 1369.77 2276.19 1369.42 Q2281.48 1368.49 2285.09 1370.58 Q2288.7 1372.67 2289.48 1377.09 Q2289.85 1379.19 2289.39 1381.22 Q2288.94 1383.22 2287.32 1386.14 Q2286.86 1386.9 2284.37 1390.61 Q2281.87 1394.3 2277.31 1400.95 Z" fill="#000000" fill-rule="evenodd" fill-opacity="1" /><path clip-path="url(#clip430)" d="M2303.84 1396.27 L2311.36 1394.95 L2306.79 1368.98 L2298.89 1372.07 L2298.15 1367.87 L2306 1364.8 L2310.6 1363.98 L2315.92 1394.14 L2323.45 1392.82 L2324.13 1396.69 L2304.52 1400.15 L2303.84 1396.27 Z" fill="#000000" fill-rule="evenodd" fill-opacity="1" /><path clip-path="url(#clip430)" d="M2348.68 1371.19 L2342.05 1372.36 L2341.48 1380.31 L2348.16 1379.13 L2348.68 1371.19 M2342.98 1358.82 L2342.27 1368.7 L2348.93 1367.52 L2349.66 1357.64 L2353.3 1357 L2352.62 1366.87 L2359.74 1365.62 L2360.36 1369.13 L2352.35 1370.54 L2351.83 1378.48 L2359.08 1377.2 L2359.69 1380.69 L2351.55 1382.13 L2350.85 1391.98 L2347.2 1392.63 L2347.88 1382.77 L2341.2 1383.95 L2340.52 1393.8 L2336.85 1394.45 L2337.56 1384.59 L2330.38 1385.86 L2329.76 1382.37 L2337.78 1380.96 L2338.36 1373.01 L2331.02 1374.3 L2330.4 1370.79 L2338.63 1369.34 L2339.28 1359.47 L2342.98 1358.82 Z" fill="#000000" fill-rule="evenodd" fill-opacity="1" /><path clip-path="url(#clip430)" d="M2375.83 1383.58 L2391.9 1380.75 L2392.59 1384.62 L2370.98 1388.43 L2370.29 1384.56 Q2372.44 1381.38 2376.15 1376.03 Q2379.87 1370.65 2380.8 1369.12 Q2382.58 1366.24 2383.14 1364.38 Q2383.72 1362.49 2383.43 1360.83 Q2382.95 1358.11 2380.74 1356.74 Q2378.54 1355.37 2375.49 1355.91 Q2373.32 1356.29 2371.04 1357.47 Q2368.78 1358.64 2366.31 1360.65 L2365.49 1356 Q2368.08 1354.39 2370.39 1353.4 Q2372.71 1352.4 2374.71 1352.05 Q2380 1351.11 2383.61 1353.2 Q2387.23 1355.29 2388.01 1359.72 Q2388.38 1361.81 2387.91 1363.85 Q2387.47 1365.85 2385.84 1368.77 Q2385.39 1369.53 2382.89 1373.24 Q2380.39 1376.92 2375.83 1383.58 Z" fill="#000000" fill-rule="evenodd" fill-opacity="1" /><polyline clip-path="url(#clip432)" style="stroke:#000000; stroke-linecap:butt; stroke-linejoin:round; stroke-width:2; stroke-opacity:0.1; fill:none" points="
  333.697,1129.38 2352.76,1129.38 
  "/>
<polyline clip-path="url(#clip432)" style="stroke:#000000; stroke-linecap:butt; stroke-linejoin:round; stroke-width:2; stroke-opacity:0.1; fill:none" points="
  333.697,869.349 2352.76,869.349 
  "/>
<polyline clip-path="url(#clip432)" style="stroke:#000000; stroke-linecap:butt; stroke-linejoin:round; stroke-width:2; stroke-opacity:0.1; fill:none" points="
  333.697,609.316 2352.76,609.316 
  "/>
<polyline clip-path="url(#clip432)" style="stroke:#000000; stroke-linecap:butt; stroke-linejoin:round; stroke-width:2; stroke-opacity:0.1; fill:none" points="
  333.697,349.284 2352.76,349.284 
  "/>
<polyline clip-path="url(#clip432)" style="stroke:#000000; stroke-linecap:butt; stroke-linejoin:round; stroke-width:2; stroke-opacity:0.1; fill:none" points="
  333.697,89.2518 2352.76,89.2518 
  "/>
<polyline clip-path="url(#clip430)" style="stroke:#000000; stroke-linecap:butt; stroke-linejoin:round; stroke-width:4; stroke-opacity:1; fill:none" points="
  333.697,1340.41 333.697,47.2441 
  "/>
<polyline clip-path="url(#clip430)" style="stroke:#000000; stroke-linecap:butt; stroke-linejoin:round; stroke-width:4; stroke-opacity:1; fill:none" points="
  333.697,1129.38 352.595,1129.38 
  "/>
<polyline clip-path="url(#clip430)" style="stroke:#000000; stroke-linecap:butt; stroke-linejoin:round; stroke-width:4; stroke-opacity:1; fill:none" points="
  333.697,869.349 352.595,869.349 
  "/>
<polyline clip-path="url(#clip430)" style="stroke:#000000; stroke-linecap:butt; stroke-linejoin:round; stroke-width:4; stroke-opacity:1; fill:none" points="
  333.697,609.316 352.595,609.316 
  "/>
<polyline clip-path="url(#clip430)" style="stroke:#000000; stroke-linecap:butt; stroke-linejoin:round; stroke-width:4; stroke-opacity:1; fill:none" points="
  333.697,349.284 352.595,349.284 
  "/>
<polyline clip-path="url(#clip430)" style="stroke:#000000; stroke-linecap:butt; stroke-linejoin:round; stroke-width:4; stroke-opacity:1; fill:none" points="
  333.697,89.2518 352.595,89.2518 
  "/>
<path clip-path="url(#clip430)" d="M189.295 1142.73 L205.614 1142.73 L205.614 1146.66 L183.67 1146.66 L183.67 1142.73 Q186.332 1139.97 190.915 1135.34 Q195.522 1130.69 196.702 1129.35 Q198.948 1126.82 199.827 1125.09 Q200.73 1123.33 200.73 1121.64 Q200.73 1118.88 198.786 1117.15 Q196.864 1115.41 193.762 1115.41 Q191.563 1115.41 189.11 1116.17 Q186.679 1116.94 183.901 1118.49 L183.901 1113.77 Q186.725 1112.63 189.179 1112.05 Q191.633 1111.48 193.67 1111.48 Q199.04 1111.48 202.235 1114.16 Q205.429 1116.85 205.429 1121.34 Q205.429 1123.47 204.619 1125.39 Q203.832 1127.29 201.725 1129.88 Q201.147 1130.55 198.045 1133.77 Q194.943 1136.96 189.295 1142.73 Z" fill="#000000" fill-rule="evenodd" fill-opacity="1" /><path clip-path="url(#clip430)" d="M215.475 1112.1 L233.832 1112.1 L233.832 1116.04 L219.758 1116.04 L219.758 1124.51 Q220.776 1124.16 221.795 1124 Q222.813 1123.81 223.832 1123.81 Q229.619 1123.81 232.998 1126.99 Q236.378 1130.16 236.378 1135.57 Q236.378 1141.15 232.906 1144.25 Q229.434 1147.33 223.114 1147.33 Q220.938 1147.33 218.67 1146.96 Q216.424 1146.59 214.017 1145.85 L214.017 1141.15 Q216.1 1142.29 218.322 1142.84 Q220.545 1143.4 223.022 1143.4 Q227.026 1143.4 229.364 1141.29 Q231.702 1139.18 231.702 1135.57 Q231.702 1131.96 229.364 1129.86 Q227.026 1127.75 223.022 1127.75 Q221.147 1127.75 219.272 1128.17 Q217.42 1128.58 215.475 1129.46 L215.475 1112.1 Z" fill="#000000" fill-rule="evenodd" fill-opacity="1" /><path clip-path="url(#clip430)" d="M255.591 1115.18 Q251.98 1115.18 250.151 1118.74 Q248.345 1122.29 248.345 1129.42 Q248.345 1136.52 250.151 1140.09 Q251.98 1143.63 255.591 1143.63 Q259.225 1143.63 261.031 1140.09 Q262.859 1136.52 262.859 1129.42 Q262.859 1122.29 261.031 1118.74 Q259.225 1115.18 255.591 1115.18 M255.591 1111.48 Q261.401 1111.48 264.456 1116.08 Q267.535 1120.67 267.535 1129.42 Q267.535 1138.14 264.456 1142.75 Q261.401 1147.33 255.591 1147.33 Q249.781 1147.33 246.702 1142.75 Q243.646 1138.14 243.646 1129.42 Q243.646 1120.67 246.702 1116.08 Q249.781 1111.48 255.591 1111.48 Z" fill="#000000" fill-rule="evenodd" fill-opacity="1" /><path clip-path="url(#clip430)" d="M285.753 1115.18 Q282.142 1115.18 280.313 1118.74 Q278.507 1122.29 278.507 1129.42 Q278.507 1136.52 280.313 1140.09 Q282.142 1143.63 285.753 1143.63 Q289.387 1143.63 291.192 1140.09 Q293.021 1136.52 293.021 1129.42 Q293.021 1122.29 291.192 1118.74 Q289.387 1115.18 285.753 1115.18 M285.753 1111.48 Q291.563 1111.48 294.618 1116.08 Q297.697 1120.67 297.697 1129.42 Q297.697 1138.14 294.618 1142.75 Q291.563 1147.33 285.753 1147.33 Q279.943 1147.33 276.864 1142.75 Q273.808 1138.14 273.808 1129.42 Q273.808 1120.67 276.864 1116.08 Q279.943 1111.48 285.753 1111.48 Z" fill="#000000" fill-rule="evenodd" fill-opacity="1" /><path clip-path="url(#clip430)" d="M185.313 852.069 L203.67 852.069 L203.67 856.004 L189.596 856.004 L189.596 864.476 Q190.614 864.129 191.633 863.967 Q192.651 863.781 193.67 863.781 Q199.457 863.781 202.836 866.953 Q206.216 870.124 206.216 875.541 Q206.216 881.119 202.744 884.221 Q199.272 887.3 192.952 887.3 Q190.776 887.3 188.508 886.929 Q186.262 886.559 183.855 885.818 L183.855 881.119 Q185.938 882.254 188.161 882.809 Q190.383 883.365 192.86 883.365 Q196.864 883.365 199.202 881.258 Q201.54 879.152 201.54 875.541 Q201.54 871.93 199.202 869.823 Q196.864 867.717 192.86 867.717 Q190.985 867.717 189.11 868.133 Q187.258 868.55 185.313 869.43 L185.313 852.069 Z" fill="#000000" fill-rule="evenodd" fill-opacity="1" /><path clip-path="url(#clip430)" d="M225.429 855.147 Q221.818 855.147 219.989 858.712 Q218.184 862.254 218.184 869.383 Q218.184 876.49 219.989 880.055 Q221.818 883.596 225.429 883.596 Q229.063 883.596 230.869 880.055 Q232.697 876.49 232.697 869.383 Q232.697 862.254 230.869 858.712 Q229.063 855.147 225.429 855.147 M225.429 851.444 Q231.239 851.444 234.295 856.05 Q237.373 860.633 237.373 869.383 Q237.373 878.11 234.295 882.717 Q231.239 887.3 225.429 887.3 Q219.619 887.3 216.54 882.717 Q213.485 878.11 213.485 869.383 Q213.485 860.633 216.54 856.05 Q219.619 851.444 225.429 851.444 Z" fill="#000000" fill-rule="evenodd" fill-opacity="1" /><path clip-path="url(#clip430)" d="M255.591 855.147 Q251.98 855.147 250.151 858.712 Q248.345 862.254 248.345 869.383 Q248.345 876.49 250.151 880.055 Q251.98 883.596 255.591 883.596 Q259.225 883.596 261.031 880.055 Q262.859 876.49 262.859 869.383 Q262.859 862.254 261.031 858.712 Q259.225 855.147 255.591 855.147 M255.591 851.444 Q261.401 851.444 264.456 856.05 Q267.535 860.633 267.535 869.383 Q267.535 878.11 264.456 882.717 Q261.401 887.3 255.591 887.3 Q249.781 887.3 246.702 882.717 Q243.646 878.11 243.646 869.383 Q243.646 860.633 246.702 856.05 Q249.781 851.444 255.591 851.444 Z" fill="#000000" fill-rule="evenodd" fill-opacity="1" /><path clip-path="url(#clip430)" d="M285.753 855.147 Q282.142 855.147 280.313 858.712 Q278.507 862.254 278.507 869.383 Q278.507 876.49 280.313 880.055 Q282.142 883.596 285.753 883.596 Q289.387 883.596 291.192 880.055 Q293.021 876.49 293.021 869.383 Q293.021 862.254 291.192 858.712 Q289.387 855.147 285.753 855.147 M285.753 851.444 Q291.563 851.444 294.618 856.05 Q297.697 860.633 297.697 869.383 Q297.697 878.11 294.618 882.717 Q291.563 887.3 285.753 887.3 Q279.943 887.3 276.864 882.717 Q273.808 878.11 273.808 869.383 Q273.808 860.633 276.864 856.05 Q279.943 851.444 285.753 851.444 Z" fill="#000000" fill-rule="evenodd" fill-opacity="1" /><path clip-path="url(#clip430)" d="M184.087 592.036 L206.309 592.036 L206.309 594.027 L193.762 626.596 L188.878 626.596 L200.684 595.971 L184.087 595.971 L184.087 592.036 Z" fill="#000000" fill-rule="evenodd" fill-opacity="1" /><path clip-path="url(#clip430)" d="M215.475 592.036 L233.832 592.036 L233.832 595.971 L219.758 595.971 L219.758 604.444 Q220.776 604.096 221.795 603.934 Q222.813 603.749 223.832 603.749 Q229.619 603.749 232.998 606.92 Q236.378 610.092 236.378 615.508 Q236.378 621.087 232.906 624.189 Q229.434 627.268 223.114 627.268 Q220.938 627.268 218.67 626.897 Q216.424 626.527 214.017 625.786 L214.017 621.087 Q216.1 622.221 218.322 622.777 Q220.545 623.332 223.022 623.332 Q227.026 623.332 229.364 621.226 Q231.702 619.12 231.702 615.508 Q231.702 611.897 229.364 609.791 Q227.026 607.684 223.022 607.684 Q221.147 607.684 219.272 608.101 Q217.42 608.518 215.475 609.397 L215.475 592.036 Z" fill="#000000" fill-rule="evenodd" fill-opacity="1" /><path clip-path="url(#clip430)" d="M255.591 595.115 Q251.98 595.115 250.151 598.68 Q248.345 602.221 248.345 609.351 Q248.345 616.457 250.151 620.022 Q251.98 623.564 255.591 623.564 Q259.225 623.564 261.031 620.022 Q262.859 616.457 262.859 609.351 Q262.859 602.221 261.031 598.68 Q259.225 595.115 255.591 595.115 M255.591 591.411 Q261.401 591.411 264.456 596.018 Q267.535 600.601 267.535 609.351 Q267.535 618.078 264.456 622.684 Q261.401 627.268 255.591 627.268 Q249.781 627.268 246.702 622.684 Q243.646 618.078 243.646 609.351 Q243.646 600.601 246.702 596.018 Q249.781 591.411 255.591 591.411 Z" fill="#000000" fill-rule="evenodd" fill-opacity="1" /><path clip-path="url(#clip430)" d="M285.753 595.115 Q282.142 595.115 280.313 598.68 Q278.507 602.221 278.507 609.351 Q278.507 616.457 280.313 620.022 Q282.142 623.564 285.753 623.564 Q289.387 623.564 291.192 620.022 Q293.021 616.457 293.021 609.351 Q293.021 602.221 291.192 598.68 Q289.387 595.115 285.753 595.115 M285.753 591.411 Q291.563 591.411 294.618 596.018 Q297.697 600.601 297.697 609.351 Q297.697 618.078 294.618 622.684 Q291.563 627.268 285.753 627.268 Q279.943 627.268 276.864 622.684 Q273.808 618.078 273.808 609.351 Q273.808 600.601 276.864 596.018 Q279.943 591.411 285.753 591.411 Z" fill="#000000" fill-rule="evenodd" fill-opacity="1" /><path clip-path="url(#clip430)" d="M155.915 362.629 L163.554 362.629 L163.554 336.263 L155.244 337.93 L155.244 333.671 L163.508 332.004 L168.184 332.004 L168.184 362.629 L175.823 362.629 L175.823 366.564 L155.915 366.564 L155.915 362.629 Z" fill="#000000" fill-rule="evenodd" fill-opacity="1" /><path clip-path="url(#clip430)" d="M195.267 335.083 Q191.656 335.083 189.827 338.648 Q188.022 342.189 188.022 349.319 Q188.022 356.425 189.827 359.99 Q191.656 363.532 195.267 363.532 Q198.901 363.532 200.707 359.99 Q202.536 356.425 202.536 349.319 Q202.536 342.189 200.707 338.648 Q198.901 335.083 195.267 335.083 M195.267 331.379 Q201.077 331.379 204.133 335.986 Q207.211 340.569 207.211 349.319 Q207.211 358.046 204.133 362.652 Q201.077 367.235 195.267 367.235 Q189.457 367.235 186.378 362.652 Q183.323 358.046 183.323 349.319 Q183.323 340.569 186.378 335.986 Q189.457 331.379 195.267 331.379 Z" fill="#000000" fill-rule="evenodd" fill-opacity="1" /><path clip-path="url(#clip430)" d="M225.429 335.083 Q221.818 335.083 219.989 338.648 Q218.184 342.189 218.184 349.319 Q218.184 356.425 219.989 359.99 Q221.818 363.532 225.429 363.532 Q229.063 363.532 230.869 359.99 Q232.697 356.425 232.697 349.319 Q232.697 342.189 230.869 338.648 Q229.063 335.083 225.429 335.083 M225.429 331.379 Q231.239 331.379 234.295 335.986 Q237.373 340.569 237.373 349.319 Q237.373 358.046 234.295 362.652 Q231.239 367.235 225.429 367.235 Q219.619 367.235 216.54 362.652 Q213.485 358.046 213.485 349.319 Q213.485 340.569 216.54 335.986 Q219.619 331.379 225.429 331.379 Z" fill="#000000" fill-rule="evenodd" fill-opacity="1" /><path clip-path="url(#clip430)" d="M255.591 335.083 Q251.98 335.083 250.151 338.648 Q248.345 342.189 248.345 349.319 Q248.345 356.425 250.151 359.99 Q251.98 363.532 255.591 363.532 Q259.225 363.532 261.031 359.99 Q262.859 356.425 262.859 349.319 Q262.859 342.189 261.031 338.648 Q259.225 335.083 255.591 335.083 M255.591 331.379 Q261.401 331.379 264.456 335.986 Q267.535 340.569 267.535 349.319 Q267.535 358.046 264.456 362.652 Q261.401 367.235 255.591 367.235 Q249.781 367.235 246.702 362.652 Q243.646 358.046 243.646 349.319 Q243.646 340.569 246.702 335.986 Q249.781 331.379 255.591 331.379 Z" fill="#000000" fill-rule="evenodd" fill-opacity="1" /><path clip-path="url(#clip430)" d="M285.753 335.083 Q282.142 335.083 280.313 338.648 Q278.507 342.189 278.507 349.319 Q278.507 356.425 280.313 359.99 Q282.142 363.532 285.753 363.532 Q289.387 363.532 291.192 359.99 Q293.021 356.425 293.021 349.319 Q293.021 342.189 291.192 338.648 Q289.387 335.083 285.753 335.083 M285.753 331.379 Q291.563 331.379 294.618 335.986 Q297.697 340.569 297.697 349.319 Q297.697 358.046 294.618 362.652 Q291.563 367.235 285.753 367.235 Q279.943 367.235 276.864 362.652 Q273.808 358.046 273.808 349.319 Q273.808 340.569 276.864 335.986 Q279.943 331.379 285.753 331.379 Z" fill="#000000" fill-rule="evenodd" fill-opacity="1" /><path clip-path="url(#clip430)" d="M155.915 102.597 L163.554 102.597 L163.554 76.231 L155.244 77.8977 L155.244 73.6384 L163.508 71.9718 L168.184 71.9718 L168.184 102.597 L175.823 102.597 L175.823 106.532 L155.915 106.532 L155.915 102.597 Z" fill="#000000" fill-rule="evenodd" fill-opacity="1" /><path clip-path="url(#clip430)" d="M189.295 102.597 L205.614 102.597 L205.614 106.532 L183.67 106.532 L183.67 102.597 Q186.332 99.842 190.915 95.2124 Q195.522 90.5596 196.702 89.2171 Q198.948 86.6939 199.827 84.9578 Q200.73 83.1986 200.73 81.5088 Q200.73 78.7542 198.786 77.0181 Q196.864 75.282 193.762 75.282 Q191.563 75.282 189.11 76.0458 Q186.679 76.8097 183.901 78.3606 L183.901 73.6384 Q186.725 72.5042 189.179 71.9255 Q191.633 71.3468 193.67 71.3468 Q199.04 71.3468 202.235 74.032 Q205.429 76.7171 205.429 81.2078 Q205.429 83.3375 204.619 85.2588 Q203.832 87.1569 201.725 89.7495 Q201.147 90.4208 198.045 93.6383 Q194.943 96.8328 189.295 102.597 Z" fill="#000000" fill-rule="evenodd" fill-opacity="1" /><path clip-path="url(#clip430)" d="M215.475 71.9718 L233.832 71.9718 L233.832 75.907 L219.758 75.907 L219.758 84.3791 Q220.776 84.0319 221.795 83.8699 Q222.813 83.6847 223.832 83.6847 Q229.619 83.6847 232.998 86.856 Q236.378 90.0272 236.378 95.4439 Q236.378 101.023 232.906 104.124 Q229.434 107.203 223.114 107.203 Q220.938 107.203 218.67 106.833 Q216.424 106.462 214.017 105.722 L214.017 101.023 Q216.1 102.157 218.322 102.712 Q220.545 103.268 223.022 103.268 Q227.026 103.268 229.364 101.161 Q231.702 99.055 231.702 95.4439 Q231.702 91.8328 229.364 89.7263 Q227.026 87.6199 223.022 87.6199 Q221.147 87.6199 219.272 88.0365 Q217.42 88.4532 215.475 89.3328 L215.475 71.9718 Z" fill="#000000" fill-rule="evenodd" fill-opacity="1" /><path clip-path="url(#clip430)" d="M255.591 75.0505 Q251.98 75.0505 250.151 78.6153 Q248.345 82.1569 248.345 89.2865 Q248.345 96.393 250.151 99.9577 Q251.98 103.499 255.591 103.499 Q259.225 103.499 261.031 99.9577 Q262.859 96.393 262.859 89.2865 Q262.859 82.1569 261.031 78.6153 Q259.225 75.0505 255.591 75.0505 M255.591 71.3468 Q261.401 71.3468 264.456 75.9532 Q267.535 80.5366 267.535 89.2865 Q267.535 98.0133 264.456 102.62 Q261.401 107.203 255.591 107.203 Q249.781 107.203 246.702 102.62 Q243.646 98.0133 243.646 89.2865 Q243.646 80.5366 246.702 75.9532 Q249.781 71.3468 255.591 71.3468 Z" fill="#000000" fill-rule="evenodd" fill-opacity="1" /><path clip-path="url(#clip430)" d="M285.753 75.0505 Q282.142 75.0505 280.313 78.6153 Q278.507 82.1569 278.507 89.2865 Q278.507 96.393 280.313 99.9577 Q282.142 103.499 285.753 103.499 Q289.387 103.499 291.192 99.9577 Q293.021 96.393 293.021 89.2865 Q293.021 82.1569 291.192 78.6153 Q289.387 75.0505 285.753 75.0505 M285.753 71.3468 Q291.563 71.3468 294.618 75.9532 Q297.697 80.5366 297.697 89.2865 Q297.697 98.0133 294.618 102.62 Q291.563 107.203 285.753 107.203 Q279.943 107.203 276.864 102.62 Q273.808 98.0133 273.808 89.2865 Q273.808 80.5366 276.864 75.9532 Q279.943 71.3468 285.753 71.3468 Z" fill="#000000" fill-rule="evenodd" fill-opacity="1" /><polyline clip-path="url(#clip432)" style="stroke:#009af9; stroke-linecap:butt; stroke-linejoin:round; stroke-width:4; stroke-opacity:1; fill:none" points="
  390.84,1238.8 581.317,1182.64 771.795,1110.66 962.272,1032.02 1152.75,854.475 1343.23,705.008 1533.7,734.34 1724.18,83.8431 1914.66,635.32 2105.14,758.887 
  2295.61,614.517 
  "/>
<polyline clip-path="url(#clip432)" style="stroke:#e26f46; stroke-linecap:butt; stroke-linejoin:round; stroke-width:4; stroke-opacity:1; fill:none" points="
  390.84,1303.81 581.317,1271.25 771.795,1208.43 962.272,1129.38 1152.75,1007.48 1343.23,905.545 1533.7,952.767 1724.18,489.077 1914.66,940.285 2105.14,987.299 
  2295.61,912.826 
  "/>
<path clip-path="url(#clip430)" d="
M1808.18 245.87 L2285.45 245.87 L2285.45 90.3496 L1808.18 90.3496  Z
  " fill="#ffffff" fill-rule="evenodd" fill-opacity="1"/>
<polyline clip-path="url(#clip430)" style="stroke:#000000; stroke-linecap:butt; stroke-linejoin:round; stroke-width:4; stroke-opacity:1; fill:none" points="
  1808.18,245.87 2285.45,245.87 2285.45,90.3496 1808.18,90.3496 1808.18,245.87 
  "/>
<polyline clip-path="url(#clip430)" style="stroke:#009af9; stroke-linecap:butt; stroke-linejoin:round; stroke-width:4; stroke-opacity:1; fill:none" points="
  1830.61,142.19 1965.21,142.19 
  "/>
<path clip-path="url(#clip430)" d="M2011.68 145.442 L2011.68 147.525 L1992.09 147.525 Q1992.37 151.923 1994.73 154.238 Q1997.12 156.53 2001.35 156.53 Q2003.8 156.53 2006.1 155.928 Q2008.41 155.326 2010.68 154.122 L2010.68 158.15 Q2008.39 159.122 2005.98 159.632 Q2003.57 160.141 2001.1 160.141 Q1994.89 160.141 1991.26 156.53 Q1987.65 152.919 1987.65 146.761 Q1987.65 140.396 1991.07 136.669 Q1994.52 132.919 2000.36 132.919 Q2005.59 132.919 2008.62 136.298 Q2011.68 139.655 2011.68 145.442 M2007.42 144.192 Q2007.37 140.697 2005.45 138.613 Q2003.55 136.53 2000.4 136.53 Q1996.84 136.53 1994.68 138.544 Q1992.55 140.558 1992.23 144.215 L2007.42 144.192 Z" fill="#000000" fill-rule="evenodd" fill-opacity="1" /><path clip-path="url(#clip430)" d="M2039.38 133.544 L2030.01 146.159 L2039.87 159.47 L2034.85 159.47 L2027.3 149.284 L2019.75 159.47 L2014.73 159.47 L2024.8 145.905 L2015.59 133.544 L2020.61 133.544 L2027.49 142.78 L2034.36 133.544 L2039.38 133.544 Z" fill="#000000" fill-rule="evenodd" fill-opacity="1" /><path clip-path="url(#clip430)" d="M2057.67 146.437 Q2052.51 146.437 2050.52 147.618 Q2048.53 148.798 2048.53 151.646 Q2048.53 153.914 2050.01 155.257 Q2051.51 156.576 2054.08 156.576 Q2057.62 156.576 2059.75 154.076 Q2061.91 151.553 2061.91 147.386 L2061.91 146.437 L2057.67 146.437 M2066.17 144.678 L2066.17 159.47 L2061.91 159.47 L2061.91 155.534 Q2060.45 157.896 2058.27 159.03 Q2056.1 160.141 2052.95 160.141 Q2048.97 160.141 2046.61 157.919 Q2044.27 155.673 2044.27 151.923 Q2044.27 147.548 2047.18 145.326 Q2050.12 143.104 2055.93 143.104 L2061.91 143.104 L2061.91 142.687 Q2061.91 139.747 2059.96 138.15 Q2058.04 136.53 2054.55 136.53 Q2052.32 136.53 2050.22 137.062 Q2048.11 137.595 2046.17 138.66 L2046.17 134.724 Q2048.5 133.822 2050.7 133.382 Q2052.9 132.919 2054.99 132.919 Q2060.61 132.919 2063.39 135.835 Q2066.17 138.752 2066.17 144.678 Z" fill="#000000" fill-rule="evenodd" fill-opacity="1" /><path clip-path="url(#clip430)" d="M2095.12 138.521 Q2096.72 135.65 2098.94 134.285 Q2101.17 132.919 2104.17 132.919 Q2108.23 132.919 2110.42 135.766 Q2112.62 138.59 2112.62 143.822 L2112.62 159.47 L2108.34 159.47 L2108.34 143.96 Q2108.34 140.234 2107.02 138.428 Q2105.7 136.623 2102.99 136.623 Q2099.68 136.623 2097.76 138.822 Q2095.84 141.021 2095.84 144.817 L2095.84 159.47 L2091.56 159.47 L2091.56 143.96 Q2091.56 140.21 2090.24 138.428 Q2088.92 136.623 2086.17 136.623 Q2082.9 136.623 2080.98 138.845 Q2079.06 141.044 2079.06 144.817 L2079.06 159.47 L2074.78 159.47 L2074.78 133.544 L2079.06 133.544 L2079.06 137.572 Q2080.52 135.187 2082.55 134.053 Q2084.59 132.919 2087.39 132.919 Q2090.22 132.919 2092.18 134.354 Q2094.17 135.789 2095.12 138.521 Z" fill="#000000" fill-rule="evenodd" fill-opacity="1" /><path clip-path="url(#clip430)" d="M2121.12 133.544 L2125.38 133.544 L2125.38 159.47 L2121.12 159.47 L2121.12 133.544 M2121.12 123.451 L2125.38 123.451 L2125.38 128.845 L2121.12 128.845 L2121.12 123.451 Z" fill="#000000" fill-rule="evenodd" fill-opacity="1" /><path clip-path="url(#clip430)" d="M2155.84 143.822 L2155.84 159.47 L2151.58 159.47 L2151.58 143.96 Q2151.58 140.28 2150.15 138.451 Q2148.71 136.623 2145.84 136.623 Q2142.39 136.623 2140.4 138.822 Q2138.41 141.021 2138.41 144.817 L2138.41 159.47 L2134.13 159.47 L2134.13 133.544 L2138.41 133.544 L2138.41 137.572 Q2139.94 135.234 2142 134.076 Q2144.08 132.919 2146.79 132.919 Q2151.26 132.919 2153.55 135.697 Q2155.84 138.451 2155.84 143.822 Z" fill="#000000" fill-rule="evenodd" fill-opacity="1" /><path clip-path="url(#clip430)" d="M2186.51 145.442 L2186.51 147.525 L2166.93 147.525 Q2167.21 151.923 2169.57 154.238 Q2171.95 156.53 2176.19 156.53 Q2178.64 156.53 2180.93 155.928 Q2183.25 155.326 2185.52 154.122 L2185.52 158.15 Q2183.23 159.122 2180.82 159.632 Q2178.41 160.141 2175.93 160.141 Q2169.73 160.141 2166.1 156.53 Q2162.48 152.919 2162.48 146.761 Q2162.48 140.396 2165.91 136.669 Q2169.36 132.919 2175.19 132.919 Q2180.42 132.919 2183.46 136.298 Q2186.51 139.655 2186.51 145.442 M2182.25 144.192 Q2182.21 140.697 2180.29 138.613 Q2178.39 136.53 2175.24 136.53 Q2171.67 136.53 2169.52 138.544 Q2167.39 140.558 2167.07 144.215 L2182.25 144.192 Z" fill="#000000" fill-rule="evenodd" fill-opacity="1" /><path clip-path="url(#clip430)" d="M2215.68 145.442 L2215.68 147.525 L2196.1 147.525 Q2196.37 151.923 2198.73 154.238 Q2201.12 156.53 2205.35 156.53 Q2207.81 156.53 2210.1 155.928 Q2212.41 155.326 2214.68 154.122 L2214.68 158.15 Q2212.39 159.122 2209.98 159.632 Q2207.58 160.141 2205.1 160.141 Q2198.9 160.141 2195.26 156.53 Q2191.65 152.919 2191.65 146.761 Q2191.65 140.396 2195.08 136.669 Q2198.53 132.919 2204.36 132.919 Q2209.59 132.919 2212.62 136.298 Q2215.68 139.655 2215.68 145.442 M2211.42 144.192 Q2211.37 140.697 2209.45 138.613 Q2207.55 136.53 2204.41 136.53 Q2200.84 136.53 2198.69 138.544 Q2196.56 140.558 2196.23 144.215 L2211.42 144.192 Z" fill="#000000" fill-rule="evenodd" fill-opacity="1" /><path clip-path="url(#clip430)" d="M2239.2 134.308 L2239.2 138.335 Q2237.39 137.41 2235.45 136.947 Q2233.5 136.484 2231.42 136.484 Q2228.25 136.484 2226.65 137.456 Q2225.08 138.428 2225.08 140.372 Q2225.08 141.854 2226.21 142.71 Q2227.35 143.544 2230.77 144.308 L2232.23 144.632 Q2236.77 145.604 2238.66 147.386 Q2240.59 149.146 2240.59 152.317 Q2240.59 155.928 2237.72 158.034 Q2234.87 160.141 2229.87 160.141 Q2227.79 160.141 2225.52 159.724 Q2223.27 159.331 2220.77 158.521 L2220.77 154.122 Q2223.13 155.349 2225.42 155.974 Q2227.72 156.576 2229.96 156.576 Q2232.97 156.576 2234.59 155.558 Q2236.21 154.516 2236.21 152.641 Q2236.21 150.905 2235.03 149.979 Q2233.87 149.053 2229.91 148.197 L2228.43 147.849 Q2224.47 147.016 2222.72 145.303 Q2220.96 143.567 2220.96 140.558 Q2220.96 136.9 2223.55 134.91 Q2226.14 132.919 2230.91 132.919 Q2233.27 132.919 2235.35 133.266 Q2237.44 133.613 2239.2 134.308 Z" fill="#000000" fill-rule="evenodd" fill-opacity="1" /><polyline clip-path="url(#clip430)" style="stroke:#e26f46; stroke-linecap:butt; stroke-linejoin:round; stroke-width:4; stroke-opacity:1; fill:none" points="
  1830.61,194.03 1965.21,194.03 
  "/>
<path clip-path="url(#clip430)" d="M1991.93 207.421 L1991.93 221.171 L1987.65 221.171 L1987.65 185.384 L1991.93 185.384 L1991.93 189.319 Q1993.27 187.004 1995.31 185.893 Q1997.37 184.759 2000.22 184.759 Q2004.94 184.759 2007.88 188.509 Q2010.84 192.259 2010.84 198.37 Q2010.84 204.481 2007.88 208.231 Q2004.94 211.981 2000.22 211.981 Q1997.37 211.981 1995.31 210.87 Q1993.27 209.736 1991.93 207.421 M2006.42 198.37 Q2006.42 193.671 2004.48 191.009 Q2002.55 188.324 1999.18 188.324 Q1995.8 188.324 1993.85 191.009 Q1991.93 193.671 1991.93 198.37 Q1991.93 203.069 1993.85 205.754 Q1995.8 208.416 1999.18 208.416 Q2002.55 208.416 2004.48 205.754 Q2006.42 203.069 2006.42 198.37 Z" fill="#000000" fill-rule="evenodd" fill-opacity="1" /><path clip-path="url(#clip430)" d="M2029.68 198.277 Q2024.52 198.277 2022.53 199.458 Q2020.54 200.638 2020.54 203.486 Q2020.54 205.754 2022.02 207.097 Q2023.53 208.416 2026.1 208.416 Q2029.64 208.416 2031.77 205.916 Q2033.92 203.393 2033.92 199.226 L2033.92 198.277 L2029.68 198.277 M2038.18 196.518 L2038.18 211.31 L2033.92 211.31 L2033.92 207.374 Q2032.46 209.736 2030.29 210.87 Q2028.11 211.981 2024.96 211.981 Q2020.98 211.981 2018.62 209.759 Q2016.28 207.513 2016.28 203.763 Q2016.28 199.388 2019.2 197.166 Q2022.14 194.944 2027.95 194.944 L2033.92 194.944 L2033.92 194.527 Q2033.92 191.587 2031.98 189.99 Q2030.05 188.37 2026.56 188.37 Q2024.34 188.37 2022.23 188.902 Q2020.12 189.435 2018.18 190.5 L2018.18 186.564 Q2020.52 185.662 2022.72 185.222 Q2024.92 184.759 2027 184.759 Q2032.62 184.759 2035.4 187.675 Q2038.18 190.592 2038.18 196.518 Z" fill="#000000" fill-rule="evenodd" fill-opacity="1" /><path clip-path="url(#clip430)" d="M2063.48 186.148 L2063.48 190.175 Q2061.67 189.25 2059.73 188.787 Q2057.79 188.324 2055.7 188.324 Q2052.53 188.324 2050.93 189.296 Q2049.36 190.268 2049.36 192.212 Q2049.36 193.694 2050.49 194.55 Q2051.63 195.384 2055.05 196.148 L2056.51 196.472 Q2061.05 197.444 2062.95 199.226 Q2064.87 200.986 2064.87 204.157 Q2064.87 207.768 2062 209.874 Q2059.15 211.981 2054.15 211.981 Q2052.07 211.981 2049.8 211.564 Q2047.55 211.171 2045.05 210.361 L2045.05 205.962 Q2047.42 207.189 2049.71 207.814 Q2052 208.416 2054.24 208.416 Q2057.25 208.416 2058.87 207.398 Q2060.49 206.356 2060.49 204.481 Q2060.49 202.745 2059.31 201.819 Q2058.16 200.893 2054.2 200.037 L2052.72 199.689 Q2048.76 198.856 2047 197.143 Q2045.24 195.407 2045.24 192.398 Q2045.24 188.74 2047.83 186.75 Q2050.42 184.759 2055.19 184.759 Q2057.55 184.759 2059.64 185.106 Q2061.72 185.453 2063.48 186.148 Z" fill="#000000" fill-rule="evenodd" fill-opacity="1" /><path clip-path="url(#clip430)" d="M2088.18 186.148 L2088.18 190.175 Q2086.37 189.25 2084.43 188.787 Q2082.48 188.324 2080.4 188.324 Q2077.23 188.324 2075.63 189.296 Q2074.06 190.268 2074.06 192.212 Q2074.06 193.694 2075.19 194.55 Q2076.33 195.384 2079.75 196.148 L2081.21 196.472 Q2085.75 197.444 2087.65 199.226 Q2089.57 200.986 2089.57 204.157 Q2089.57 207.768 2086.7 209.874 Q2083.85 211.981 2078.85 211.981 Q2076.77 211.981 2074.5 211.564 Q2072.25 211.171 2069.75 210.361 L2069.75 205.962 Q2072.11 207.189 2074.41 207.814 Q2076.7 208.416 2078.94 208.416 Q2081.95 208.416 2083.57 207.398 Q2085.19 206.356 2085.19 204.481 Q2085.19 202.745 2084.01 201.819 Q2082.86 200.893 2078.9 200.037 L2077.42 199.689 Q2073.46 198.856 2071.7 197.143 Q2069.94 195.407 2069.94 192.398 Q2069.94 188.74 2072.53 186.75 Q2075.12 184.759 2079.89 184.759 Q2082.25 184.759 2084.34 185.106 Q2086.42 185.453 2088.18 186.148 Z" fill="#000000" fill-rule="evenodd" fill-opacity="1" /><path clip-path="url(#clip430)" d="M2118.53 197.282 L2118.53 199.365 L2098.94 199.365 Q2099.22 203.763 2101.58 206.078 Q2103.97 208.37 2108.2 208.37 Q2110.66 208.37 2112.95 207.768 Q2115.26 207.166 2117.53 205.962 L2117.53 209.99 Q2115.24 210.962 2112.83 211.472 Q2110.42 211.981 2107.95 211.981 Q2101.74 211.981 2098.11 208.37 Q2094.5 204.759 2094.5 198.601 Q2094.5 192.236 2097.92 188.509 Q2101.37 184.759 2107.21 184.759 Q2112.44 184.759 2115.47 188.138 Q2118.53 191.495 2118.53 197.282 M2114.27 196.032 Q2114.22 192.537 2112.3 190.453 Q2110.4 188.37 2107.25 188.37 Q2103.69 188.37 2101.54 190.384 Q2099.41 192.398 2099.08 196.055 L2114.27 196.032 Z" fill="#000000" fill-rule="evenodd" fill-opacity="1" /><path clip-path="url(#clip430)" d="M2140.54 189.365 Q2139.82 188.949 2138.97 188.763 Q2138.13 188.555 2137.11 188.555 Q2133.5 188.555 2131.56 190.916 Q2129.64 193.254 2129.64 197.652 L2129.64 211.31 L2125.36 211.31 L2125.36 185.384 L2129.64 185.384 L2129.64 189.412 Q2130.98 187.05 2133.13 185.916 Q2135.29 184.759 2138.36 184.759 Q2138.8 184.759 2139.34 184.828 Q2139.87 184.875 2140.52 184.99 L2140.54 189.365 Z" fill="#000000" fill-rule="evenodd" fill-opacity="1" /><path clip-path="url(#clip430)" d="M2161.54 186.148 L2161.54 190.175 Q2159.73 189.25 2157.79 188.787 Q2155.84 188.324 2153.76 188.324 Q2150.59 188.324 2148.99 189.296 Q2147.42 190.268 2147.42 192.212 Q2147.42 193.694 2148.55 194.55 Q2149.68 195.384 2153.11 196.148 L2154.57 196.472 Q2159.1 197.444 2161 199.226 Q2162.92 200.986 2162.92 204.157 Q2162.92 207.768 2160.05 209.874 Q2157.21 211.981 2152.21 211.981 Q2150.12 211.981 2147.85 211.564 Q2145.61 211.171 2143.11 210.361 L2143.11 205.962 Q2145.47 207.189 2147.76 207.814 Q2150.05 208.416 2152.3 208.416 Q2155.31 208.416 2156.93 207.398 Q2158.55 206.356 2158.55 204.481 Q2158.55 202.745 2157.37 201.819 Q2156.21 200.893 2152.25 200.037 L2150.77 199.689 Q2146.81 198.856 2145.05 197.143 Q2143.29 195.407 2143.29 192.398 Q2143.29 188.74 2145.89 186.75 Q2148.48 184.759 2153.25 184.759 Q2155.61 184.759 2157.69 185.106 Q2159.78 185.453 2161.54 186.148 Z" fill="#000000" fill-rule="evenodd" fill-opacity="1" /></svg>
