<?xml version="1.0" encoding="utf-8"?>
<svg xmlns="http://www.w3.org/2000/svg" xmlns:xlink="http://www.w3.org/1999/xlink" width="600" height="400" viewBox="0 0 2400 1600">
<defs>
  <clipPath id="clip460">
    <rect x="0" y="0" width="2400" height="1600"/>
  </clipPath>
</defs>
<path clip-path="url(#clip460)" d="
M0 1600 L2400 1600 L2400 0 L0 0  Z
  " fill="#ffffff" fill-rule="evenodd" fill-opacity="1"/>
<defs>
  <clipPath id="clip461">
    <rect x="480" y="0" width="1681" height="1600"/>
  </clipPath>
</defs>
<path clip-path="url(#clip460)" d="
M303.535 1340.54 L2352.76 1340.54 L2352.76 47.2441 L303.535 47.2441  Z
  " fill="#ffffff" fill-rule="evenodd" fill-opacity="1"/>
<defs>
  <clipPath id="clip462">
    <rect x="303" y="47" width="2050" height="1294"/>
  </clipPath>
</defs>
<polyline clip-path="url(#clip462)" style="stroke:#000000; stroke-linecap:butt; stroke-linejoin:round; stroke-width:2; stroke-opacity:0.1; fill:none" points="
  361.532,1340.54 361.532,47.2441 
  "/>
<polyline clip-path="url(#clip462)" style="stroke:#000000; stroke-linecap:butt; stroke-linejoin:round; stroke-width:2; stroke-opacity:0.1; fill:none" points="
  748.177,1340.54 748.177,47.2441 
  "/>
<polyline clip-path="url(#clip462)" style="stroke:#000000; stroke-linecap:butt; stroke-linejoin:round; stroke-width:2; stroke-opacity:0.1; fill:none" points="
  1134.82,1340.54 1134.82,47.2441 
  "/>
<polyline clip-path="url(#clip462)" style="stroke:#000000; stroke-linecap:butt; stroke-linejoin:round; stroke-width:2; stroke-opacity:0.1; fill:none" points="
  1521.47,1340.54 1521.47,47.2441 
  "/>
<polyline clip-path="url(#clip462)" style="stroke:#000000; stroke-linecap:butt; stroke-linejoin:round; stroke-width:2; stroke-opacity:0.1; fill:none" points="
  1908.11,1340.54 1908.11,47.2441 
  "/>
<polyline clip-path="url(#clip462)" style="stroke:#000000; stroke-linecap:butt; stroke-linejoin:round; stroke-width:2; stroke-opacity:0.1; fill:none" points="
  2294.76,1340.54 2294.76,47.2441 
  "/>
<polyline clip-path="url(#clip460)" style="stroke:#000000; stroke-linecap:butt; stroke-linejoin:round; stroke-width:4; stroke-opacity:1; fill:none" points="
  303.535,1340.54 2352.76,1340.54 
  "/>
<polyline clip-path="url(#clip460)" style="stroke:#000000; stroke-linecap:butt; stroke-linejoin:round; stroke-width:4; stroke-opacity:1; fill:none" points="
  361.532,1340.54 361.532,1321.64 
  "/>
<polyline clip-path="url(#clip460)" style="stroke:#000000; stroke-linecap:butt; stroke-linejoin:round; stroke-width:4; stroke-opacity:1; fill:none" points="
  748.177,1340.54 748.177,1321.64 
  "/>
<polyline clip-path="url(#clip460)" style="stroke:#000000; stroke-linecap:butt; stroke-linejoin:round; stroke-width:4; stroke-opacity:1; fill:none" points="
  1134.82,1340.54 1134.82,1321.64 
  "/>
<polyline clip-path="url(#clip460)" style="stroke:#000000; stroke-linecap:butt; stroke-linejoin:round; stroke-width:4; stroke-opacity:1; fill:none" points="
  1521.47,1340.54 1521.47,1321.64 
  "/>
<polyline clip-path="url(#clip460)" style="stroke:#000000; stroke-linecap:butt; stroke-linejoin:round; stroke-width:4; stroke-opacity:1; fill:none" points="
  1908.11,1340.54 1908.11,1321.64 
  "/>
<polyline clip-path="url(#clip460)" style="stroke:#000000; stroke-linecap:butt; stroke-linejoin:round; stroke-width:4; stroke-opacity:1; fill:none" points="
  2294.76,1340.54 2294.76,1321.64 
  "/>
<path clip-path="url(#clip460)" d="M317.488 1405.62 L333.559 1402.79 L334.243 1406.67 L312.632 1410.48 L311.948 1406.6 Q314.092 1403.43 317.801 1398.07 Q321.53 1392.69 322.459 1391.16 Q324.232 1388.29 324.797 1386.42 Q325.381 1384.53 325.087 1382.87 Q324.609 1380.16 322.393 1378.79 Q320.199 1377.41 317.144 1377.95 Q314.979 1378.33 312.695 1379.51 Q310.434 1380.68 307.968 1382.69 L307.148 1378.04 Q309.732 1376.43 312.048 1375.44 Q314.364 1374.44 316.37 1374.09 Q321.659 1373.16 325.271 1375.25 Q328.883 1377.34 329.663 1381.76 Q330.033 1383.86 329.568 1385.89 Q329.123 1387.89 327.499 1390.81 Q327.045 1391.57 324.549 1395.28 Q322.049 1398.97 317.488 1405.62 Z" fill="#000000" fill-rule="evenodd" fill-opacity="1" /><path clip-path="url(#clip460)" d="M348.29 1372.22 Q344.733 1372.85 343.552 1376.68 Q342.388 1380.48 343.626 1387.5 Q344.86 1394.5 347.258 1397.69 Q349.674 1400.87 353.23 1400.24 Q356.809 1399.61 357.972 1395.81 Q359.154 1391.98 357.92 1384.98 Q356.682 1377.96 354.266 1374.79 Q351.869 1371.59 348.29 1372.22 M347.646 1368.57 Q353.368 1367.56 357.177 1371.57 Q361.005 1375.55 362.525 1384.17 Q364.04 1392.76 361.808 1397.83 Q359.595 1402.88 353.873 1403.89 Q348.151 1404.89 344.323 1400.92 Q340.514 1396.91 338.999 1388.32 Q337.479 1379.7 339.693 1374.65 Q341.925 1369.58 347.646 1368.57 Z" fill="#000000" fill-rule="evenodd" fill-opacity="1" /><path clip-path="url(#clip460)" d="M373.726 1395.71 L381.249 1394.38 L376.671 1368.42 L368.776 1371.5 L368.037 1367.31 L375.886 1364.23 L380.491 1363.42 L385.809 1393.58 L393.331 1392.25 L394.015 1396.13 L374.41 1399.58 L373.726 1395.71 Z" fill="#000000" fill-rule="evenodd" fill-opacity="1" /><path clip-path="url(#clip460)" d="M410.314 1376.59 Q407.031 1377.17 405.448 1379.25 Q403.889 1381.34 404.431 1384.42 Q404.974 1387.49 407.153 1388.92 Q409.354 1390.34 412.637 1389.76 Q415.92 1389.18 417.502 1387.1 Q419.081 1384.98 418.542 1381.93 Q418 1378.85 415.798 1377.43 Q413.619 1376 410.314 1376.59 M405.363 1375.44 Q402.271 1375.23 400.249 1373.5 Q398.25 1371.76 397.736 1368.84 Q397.016 1364.76 399.493 1361.88 Q401.993 1358.99 407.054 1358.1 Q412.137 1357.2 415.451 1359.06 Q418.764 1360.92 419.483 1365 Q419.998 1367.92 418.691 1370.24 Q417.408 1372.56 414.596 1373.81 Q418.061 1374 420.305 1375.93 Q422.572 1377.86 423.147 1381.12 Q424.019 1386.06 421.454 1389.24 Q418.911 1392.42 413.28 1393.41 Q407.649 1394.4 404.151 1392.29 Q400.676 1390.18 399.804 1385.23 Q399.229 1381.97 400.7 1379.39 Q402.172 1376.8 405.363 1375.44 M402.394 1368.46 Q402.86 1371.11 404.763 1372.3 Q406.688 1373.49 409.675 1372.96 Q412.638 1372.44 414.041 1370.66 Q415.467 1368.88 415 1366.24 Q414.534 1363.6 412.586 1362.41 Q410.66 1361.22 407.697 1361.75 Q404.711 1362.27 403.308 1364.05 Q401.928 1365.82 402.394 1368.46 Z" fill="#000000" fill-rule="evenodd" fill-opacity="1" /><path clip-path="url(#clip460)" d="M670.281 1411.59 L686.352 1408.76 L687.035 1412.63 L665.425 1416.44 L664.741 1412.57 Q666.884 1409.39 670.594 1404.04 Q674.323 1398.66 675.252 1397.13 Q677.025 1394.26 677.59 1392.39 Q678.174 1390.5 677.88 1388.84 Q677.402 1386.13 675.186 1384.75 Q672.992 1383.38 669.937 1383.92 Q667.772 1384.3 665.488 1385.48 Q663.227 1386.65 660.761 1388.66 L659.941 1384.01 Q662.525 1382.4 664.841 1381.41 Q667.157 1380.41 669.163 1380.06 Q674.451 1379.13 678.064 1381.21 Q681.676 1383.3 682.456 1387.73 Q682.825 1389.82 682.361 1391.86 Q681.916 1393.86 680.291 1396.78 Q679.838 1397.54 677.342 1401.25 Q674.842 1404.94 670.281 1411.59 Z" fill="#000000" fill-rule="evenodd" fill-opacity="1" /><path clip-path="url(#clip460)" d="M701.082 1378.19 Q697.526 1378.82 696.344 1382.65 Q695.181 1386.45 696.419 1393.47 Q697.653 1400.47 700.05 1403.66 Q702.466 1406.83 706.023 1406.21 Q709.602 1405.58 710.765 1401.77 Q711.947 1397.95 710.713 1390.95 Q709.475 1383.93 707.059 1380.76 Q704.661 1377.56 701.082 1378.19 M700.439 1374.54 Q706.161 1373.53 709.97 1377.54 Q713.798 1381.52 715.317 1390.14 Q716.833 1398.73 714.601 1403.8 Q712.388 1408.85 706.666 1409.85 Q700.944 1410.86 697.116 1406.88 Q693.307 1402.88 691.792 1394.28 Q690.272 1385.67 692.485 1380.62 Q694.717 1375.55 700.439 1374.54 Z" fill="#000000" fill-rule="evenodd" fill-opacity="1" /><path clip-path="url(#clip460)" d="M726.519 1401.68 L734.042 1400.35 L729.464 1374.38 L721.569 1377.47 L720.83 1373.27 L728.679 1370.2 L733.283 1369.39 L738.601 1399.55 L746.124 1398.22 L746.808 1402.09 L727.203 1405.55 L726.519 1401.68 Z" fill="#000000" fill-rule="evenodd" fill-opacity="1" /><path clip-path="url(#clip460)" d="M756.121 1399.72 L755.381 1395.53 Q757.258 1396.04 759.113 1396.16 Q760.967 1396.28 762.677 1395.98 Q767.236 1395.18 769.091 1391.7 Q770.965 1388.2 770.206 1381.89 Q769.229 1384.09 767.385 1385.49 Q765.541 1386.9 763.079 1387.33 Q757.973 1388.23 754.444 1385.68 Q750.934 1383.1 749.989 1377.75 Q749.064 1372.5 751.606 1368.79 Q754.148 1365.07 759.3 1364.16 Q765.204 1363.12 769.104 1367.11 Q773.023 1371.08 774.542 1379.69 Q775.961 1387.74 772.98 1393.23 Q770.017 1398.68 763.565 1399.82 Q761.833 1400.13 759.994 1400.1 Q758.156 1400.07 756.121 1399.72 M762.74 1383.68 Q765.841 1383.13 767.268 1380.69 Q768.718 1378.25 768.066 1374.56 Q767.419 1370.89 765.222 1369.09 Q763.043 1367.27 759.943 1367.81 Q756.842 1368.36 755.396 1370.82 Q753.969 1373.26 754.617 1376.93 Q755.268 1380.62 757.442 1382.43 Q759.64 1384.22 762.74 1383.68 Z" fill="#000000" fill-rule="evenodd" fill-opacity="1" /><path clip-path="url(#clip460)" d="M801.066 1371.35 L794.432 1372.52 L793.86 1380.47 L800.539 1379.29 L801.066 1371.35 M795.359 1358.98 L794.656 1368.86 L801.313 1367.69 L802.038 1357.8 L805.686 1357.16 L805.006 1367.03 L812.118 1365.78 L812.738 1369.29 L804.736 1370.7 L804.209 1378.65 L811.458 1377.37 L812.073 1380.86 L803.935 1382.29 L803.228 1392.15 L799.581 1392.79 L800.265 1382.94 L793.586 1384.12 L792.902 1393.97 L789.232 1394.61 L789.938 1384.76 L782.757 1386.02 L782.142 1382.54 L790.167 1381.12 L790.739 1373.17 L783.399 1374.46 L782.78 1370.95 L791.009 1369.5 L791.666 1359.63 L795.359 1358.98 Z" fill="#000000" fill-rule="evenodd" fill-opacity="1" /><path clip-path="url(#clip460)" d="M825.045 1384.3 L832.568 1382.98 L827.99 1357.01 L820.095 1360.1 L819.356 1355.9 L827.204 1352.83 L831.809 1352.01 L837.127 1382.17 L844.65 1380.85 L845.333 1384.72 L825.728 1388.18 L825.045 1384.3 Z" fill="#000000" fill-rule="evenodd" fill-opacity="1" /><path clip-path="url(#clip460)" d="M1057.11 1411.56 L1073.18 1408.73 L1073.86 1412.6 L1052.25 1416.41 L1051.57 1412.54 Q1053.71 1409.36 1057.42 1404.01 Q1061.15 1398.63 1062.08 1397.1 Q1063.85 1394.22 1064.42 1392.36 Q1065 1390.47 1064.71 1388.81 Q1064.23 1386.09 1062.01 1384.72 Q1059.82 1383.35 1056.77 1383.89 Q1054.6 1384.27 1052.32 1385.45 Q1050.05 1386.62 1047.59 1388.63 L1046.77 1383.98 Q1049.35 1382.37 1051.67 1381.38 Q1053.98 1380.38 1055.99 1380.03 Q1061.28 1379.09 1064.89 1381.18 Q1068.5 1383.27 1069.28 1387.69 Q1069.65 1389.79 1069.19 1391.83 Q1068.74 1393.83 1067.12 1396.75 Q1066.67 1397.51 1064.17 1401.22 Q1061.67 1404.9 1057.11 1411.56 Z" fill="#000000" fill-rule="evenodd" fill-opacity="1" /><path clip-path="url(#clip460)" d="M1087.91 1378.16 Q1084.35 1378.79 1083.17 1382.61 Q1082.01 1386.41 1083.25 1393.44 Q1084.48 1400.43 1086.88 1403.63 Q1089.29 1406.8 1092.85 1406.17 Q1096.43 1405.54 1097.59 1401.74 Q1098.77 1397.91 1097.54 1390.92 Q1096.3 1383.89 1093.89 1380.72 Q1091.49 1377.53 1087.91 1378.16 M1087.27 1374.51 Q1092.99 1373.5 1096.8 1377.51 Q1100.63 1381.49 1102.15 1390.1 Q1103.66 1398.7 1101.43 1403.77 Q1099.22 1408.81 1093.49 1409.82 Q1087.77 1410.83 1083.94 1406.85 Q1080.13 1402.85 1078.62 1394.25 Q1077.1 1385.64 1079.31 1380.59 Q1081.55 1375.52 1087.27 1374.51 Z" fill="#000000" fill-rule="evenodd" fill-opacity="1" /><path clip-path="url(#clip460)" d="M1113.35 1401.64 L1120.87 1400.32 L1116.29 1374.35 L1108.4 1377.44 L1107.66 1373.24 L1115.51 1370.17 L1120.11 1369.35 L1125.43 1399.51 L1132.95 1398.19 L1133.64 1402.06 L1114.03 1405.52 L1113.35 1401.64 Z" fill="#000000" fill-rule="evenodd" fill-opacity="1" /><path clip-path="url(#clip460)" d="M1142.95 1399.69 L1142.21 1395.5 Q1144.09 1396.01 1145.94 1396.13 Q1147.79 1396.25 1149.5 1395.95 Q1154.06 1395.15 1155.92 1391.67 Q1157.79 1388.17 1157.03 1381.86 Q1156.06 1384.05 1154.21 1385.46 Q1152.37 1386.87 1149.91 1387.3 Q1144.8 1388.2 1141.27 1385.65 Q1137.76 1383.07 1136.82 1377.71 Q1135.89 1372.47 1138.43 1368.76 Q1140.98 1365.04 1146.13 1364.13 Q1152.03 1363.09 1155.93 1367.08 Q1159.85 1371.04 1161.37 1379.66 Q1162.79 1387.71 1159.81 1393.19 Q1156.84 1398.65 1150.39 1399.79 Q1148.66 1400.09 1146.82 1400.07 Q1144.98 1400.04 1142.95 1399.69 M1149.57 1383.65 Q1152.67 1383.1 1154.1 1380.66 Q1155.55 1378.22 1154.89 1374.53 Q1154.25 1370.86 1152.05 1369.06 Q1149.87 1367.23 1146.77 1367.78 Q1143.67 1368.33 1142.22 1370.79 Q1140.8 1373.23 1141.44 1376.9 Q1142.1 1380.59 1144.27 1382.39 Q1146.47 1384.19 1149.57 1383.65 Z" fill="#000000" fill-rule="evenodd" fill-opacity="1" /><path clip-path="url(#clip460)" d="M1187.89 1371.32 L1181.26 1372.49 L1180.69 1380.44 L1187.37 1379.26 L1187.89 1371.32 M1182.19 1358.95 L1181.48 1368.83 L1188.14 1367.65 L1188.87 1357.77 L1192.51 1357.13 L1191.83 1367 L1198.95 1365.75 L1199.57 1369.26 L1191.56 1370.67 L1191.04 1378.61 L1198.29 1377.34 L1198.9 1380.82 L1190.76 1382.26 L1190.06 1392.11 L1186.41 1392.76 L1187.09 1382.91 L1180.41 1384.08 L1179.73 1393.93 L1176.06 1394.58 L1176.77 1384.73 L1169.59 1385.99 L1168.97 1382.5 L1176.99 1381.09 L1177.57 1373.14 L1170.23 1374.43 L1169.61 1370.92 L1177.84 1369.47 L1178.49 1359.6 L1182.19 1358.95 Z" fill="#000000" fill-rule="evenodd" fill-opacity="1" /><path clip-path="url(#clip460)" d="M1215.04 1383.71 L1231.11 1380.88 L1231.8 1384.75 L1210.19 1388.56 L1209.5 1384.69 Q1211.65 1381.51 1215.36 1376.16 Q1219.08 1370.78 1220.01 1369.25 Q1221.79 1366.38 1222.35 1364.51 Q1222.93 1362.62 1222.64 1360.96 Q1222.16 1358.25 1219.95 1356.87 Q1217.75 1355.5 1214.7 1356.04 Q1212.53 1356.42 1210.25 1357.6 Q1207.99 1358.77 1205.52 1360.78 L1204.7 1356.13 Q1207.29 1354.52 1209.6 1353.53 Q1211.92 1352.53 1213.92 1352.18 Q1219.21 1351.25 1222.82 1353.33 Q1226.44 1355.42 1227.22 1359.85 Q1227.59 1361.94 1227.12 1363.98 Q1226.68 1365.98 1225.05 1368.9 Q1224.6 1369.66 1222.1 1373.37 Q1219.6 1377.06 1215.04 1383.71 Z" fill="#000000" fill-rule="evenodd" fill-opacity="1" /><path clip-path="url(#clip460)" d="M1443.57 1411.59 L1459.64 1408.76 L1460.33 1412.63 L1438.72 1416.44 L1438.03 1412.57 Q1440.18 1409.39 1443.89 1404.04 Q1447.61 1398.66 1448.54 1397.13 Q1450.32 1394.26 1450.88 1392.39 Q1451.46 1390.5 1451.17 1388.84 Q1450.69 1386.13 1448.48 1384.75 Q1446.28 1383.38 1443.23 1383.92 Q1441.06 1384.3 1438.78 1385.48 Q1436.52 1386.65 1434.05 1388.66 L1433.23 1384.01 Q1435.82 1382.4 1438.13 1381.41 Q1440.45 1380.41 1442.45 1380.06 Q1447.74 1379.13 1451.35 1381.21 Q1454.97 1383.3 1455.75 1387.73 Q1456.12 1389.82 1455.65 1391.86 Q1455.21 1393.86 1453.58 1396.78 Q1453.13 1397.54 1450.63 1401.25 Q1448.13 1404.94 1443.57 1411.59 Z" fill="#000000" fill-rule="evenodd" fill-opacity="1" /><path clip-path="url(#clip460)" d="M1474.37 1378.19 Q1470.82 1378.82 1469.64 1382.65 Q1468.47 1386.45 1469.71 1393.47 Q1470.94 1400.47 1473.34 1403.66 Q1475.76 1406.83 1479.31 1406.21 Q1482.89 1405.58 1484.06 1401.77 Q1485.24 1397.95 1484 1390.95 Q1482.77 1383.93 1480.35 1380.76 Q1477.95 1377.56 1474.37 1378.19 M1473.73 1374.54 Q1479.45 1373.53 1483.26 1377.54 Q1487.09 1381.52 1488.61 1390.14 Q1490.12 1398.73 1487.89 1403.8 Q1485.68 1408.85 1479.96 1409.85 Q1474.23 1410.86 1470.41 1406.88 Q1466.6 1402.88 1465.08 1394.28 Q1463.56 1385.67 1465.78 1380.62 Q1468.01 1375.55 1473.73 1374.54 Z" fill="#000000" fill-rule="evenodd" fill-opacity="1" /><path clip-path="url(#clip460)" d="M1502.98 1401.12 L1519.05 1398.28 L1519.73 1402.16 L1498.12 1405.97 L1497.44 1402.09 Q1499.58 1398.92 1503.29 1393.56 Q1507.02 1388.18 1507.95 1386.65 Q1509.72 1383.78 1510.29 1381.92 Q1510.87 1380.03 1510.58 1378.36 Q1510.1 1375.65 1507.88 1374.28 Q1505.69 1372.9 1502.64 1373.44 Q1500.47 1373.82 1498.19 1375 Q1495.93 1376.18 1493.46 1378.19 L1492.64 1373.54 Q1495.22 1371.93 1497.54 1370.93 Q1499.85 1369.94 1501.86 1369.58 Q1507.15 1368.65 1510.76 1370.74 Q1514.37 1372.83 1515.15 1377.25 Q1515.52 1379.35 1515.06 1381.38 Q1514.61 1383.39 1512.99 1386.31 Q1512.54 1387.07 1510.04 1390.78 Q1507.54 1394.46 1502.98 1401.12 Z" fill="#000000" fill-rule="evenodd" fill-opacity="1" /><path clip-path="url(#clip460)" d="M1533.78 1367.72 Q1530.22 1368.34 1529.04 1372.17 Q1527.88 1375.97 1529.12 1382.99 Q1530.35 1389.99 1532.75 1393.19 Q1535.16 1396.36 1538.72 1395.73 Q1542.3 1395.1 1543.46 1391.3 Q1544.64 1387.47 1543.41 1380.47 Q1542.17 1373.45 1539.76 1370.28 Q1537.36 1367.08 1533.78 1367.72 M1533.14 1364.07 Q1538.86 1363.06 1542.67 1367.06 Q1546.5 1371.04 1548.02 1379.66 Q1549.53 1388.26 1547.3 1393.33 Q1545.09 1398.37 1539.36 1399.38 Q1533.64 1400.39 1529.81 1396.41 Q1526.01 1392.4 1524.49 1383.81 Q1522.97 1375.19 1525.18 1370.15 Q1527.42 1365.08 1533.14 1364.07 Z" fill="#000000" fill-rule="evenodd" fill-opacity="1" /><path clip-path="url(#clip460)" d="M1574.36 1371.35 L1567.72 1372.52 L1567.15 1380.47 L1573.83 1379.29 L1574.36 1371.35 M1568.65 1358.98 L1567.95 1368.86 L1574.6 1367.69 L1575.33 1357.8 L1578.98 1357.16 L1578.3 1367.03 L1585.41 1365.78 L1586.03 1369.29 L1578.03 1370.7 L1577.5 1378.65 L1584.75 1377.37 L1585.36 1380.86 L1577.23 1382.29 L1576.52 1392.15 L1572.87 1392.79 L1573.56 1382.94 L1566.88 1384.12 L1566.19 1393.97 L1562.52 1394.61 L1563.23 1384.76 L1556.05 1386.02 L1555.43 1382.54 L1563.46 1381.12 L1564.03 1373.17 L1556.69 1374.46 L1556.07 1370.95 L1564.3 1369.5 L1564.96 1359.63 L1568.65 1358.98 Z" fill="#000000" fill-rule="evenodd" fill-opacity="1" /><path clip-path="url(#clip460)" d="M1598.34 1384.3 L1605.86 1382.98 L1601.28 1357.01 L1593.39 1360.1 L1592.65 1355.9 L1600.5 1352.83 L1605.1 1352.01 L1610.42 1382.17 L1617.94 1380.85 L1618.62 1384.72 L1599.02 1388.18 L1598.34 1384.3 Z" fill="#000000" fill-rule="evenodd" fill-opacity="1" /><path clip-path="url(#clip460)" d="M1830.22 1411.59 L1846.29 1408.76 L1846.97 1412.63 L1825.36 1416.44 L1824.68 1412.57 Q1826.82 1409.39 1830.53 1404.04 Q1834.26 1398.66 1835.19 1397.13 Q1836.96 1394.26 1837.53 1392.39 Q1838.11 1390.5 1837.82 1388.84 Q1837.34 1386.13 1835.12 1384.75 Q1832.93 1383.38 1829.87 1383.92 Q1827.71 1384.3 1825.42 1385.48 Q1823.16 1386.65 1820.7 1388.66 L1819.88 1384.01 Q1822.46 1382.4 1824.78 1381.41 Q1827.09 1380.41 1829.1 1380.06 Q1834.39 1379.13 1838 1381.21 Q1841.61 1383.3 1842.39 1387.73 Q1842.76 1389.82 1842.3 1391.86 Q1841.85 1393.86 1840.23 1396.78 Q1839.77 1397.54 1837.28 1401.25 Q1834.78 1404.94 1830.22 1411.59 Z" fill="#000000" fill-rule="evenodd" fill-opacity="1" /><path clip-path="url(#clip460)" d="M1861.02 1378.19 Q1857.46 1378.82 1856.28 1382.65 Q1855.12 1386.45 1856.36 1393.47 Q1857.59 1400.47 1859.99 1403.66 Q1862.4 1406.83 1865.96 1406.21 Q1869.54 1405.58 1870.7 1401.77 Q1871.88 1397.95 1870.65 1390.95 Q1869.41 1383.93 1866.99 1380.76 Q1864.6 1377.56 1861.02 1378.19 M1860.38 1374.54 Q1866.1 1373.53 1869.91 1377.54 Q1873.73 1381.52 1875.25 1390.14 Q1876.77 1398.73 1874.54 1403.8 Q1872.32 1408.85 1866.6 1409.85 Q1860.88 1410.86 1857.05 1406.88 Q1853.24 1402.88 1851.73 1394.28 Q1850.21 1385.67 1852.42 1380.62 Q1854.65 1375.55 1860.38 1374.54 Z" fill="#000000" fill-rule="evenodd" fill-opacity="1" /><path clip-path="url(#clip460)" d="M1889.62 1401.12 L1905.7 1398.28 L1906.38 1402.16 L1884.77 1405.97 L1884.08 1402.09 Q1886.23 1398.92 1889.94 1393.56 Q1893.67 1388.18 1894.6 1386.65 Q1896.37 1383.78 1896.93 1381.92 Q1897.52 1380.03 1897.22 1378.36 Q1896.75 1375.65 1894.53 1374.28 Q1892.34 1372.9 1889.28 1373.44 Q1887.12 1373.82 1884.83 1375 Q1882.57 1376.18 1880.1 1378.19 L1879.28 1373.54 Q1881.87 1371.93 1884.18 1370.93 Q1886.5 1369.94 1888.51 1369.58 Q1893.8 1368.65 1897.41 1370.74 Q1901.02 1372.83 1901.8 1377.25 Q1902.17 1379.35 1901.7 1381.38 Q1901.26 1383.39 1899.64 1386.31 Q1899.18 1387.07 1896.69 1390.78 Q1894.19 1394.46 1889.62 1401.12 Z" fill="#000000" fill-rule="evenodd" fill-opacity="1" /><path clip-path="url(#clip460)" d="M1916.16 1396.44 L1923.68 1395.11 L1919.1 1369.15 L1911.21 1372.23 L1910.47 1368.04 L1918.32 1364.96 L1922.92 1364.15 L1928.24 1394.31 L1935.76 1392.98 L1936.45 1396.86 L1916.84 1400.31 L1916.16 1396.44 Z" fill="#000000" fill-rule="evenodd" fill-opacity="1" /><path clip-path="url(#clip460)" d="M1961 1371.35 L1954.37 1372.52 L1953.8 1380.47 L1960.48 1379.29 L1961 1371.35 M1955.3 1358.98 L1954.59 1368.86 L1961.25 1367.69 L1961.97 1357.8 L1965.62 1357.16 L1964.94 1367.03 L1972.05 1365.78 L1972.67 1369.29 L1964.67 1370.7 L1964.15 1378.65 L1971.39 1377.37 L1972.01 1380.86 L1963.87 1382.29 L1963.16 1392.15 L1959.52 1392.79 L1960.2 1382.94 L1953.52 1384.12 L1952.84 1393.97 L1949.17 1394.61 L1949.87 1384.76 L1942.69 1386.02 L1942.08 1382.54 L1950.1 1381.12 L1950.68 1373.17 L1943.33 1374.46 L1942.72 1370.95 L1950.95 1369.5 L1951.6 1359.63 L1955.3 1358.98 Z" fill="#000000" fill-rule="evenodd" fill-opacity="1" /><path clip-path="url(#clip460)" d="M1984.98 1384.3 L1992.5 1382.98 L1987.93 1357.01 L1980.03 1360.1 L1979.29 1355.9 L1987.14 1352.83 L1991.75 1352.01 L1997.06 1382.17 L2004.59 1380.85 L2005.27 1384.72 L1985.66 1388.18 L1984.98 1384.3 Z" fill="#000000" fill-rule="evenodd" fill-opacity="1" /><path clip-path="url(#clip460)" d="M2217.04 1411.56 L2233.12 1408.73 L2233.8 1412.6 L2212.19 1416.41 L2211.51 1412.54 Q2213.65 1409.36 2217.36 1404.01 Q2221.09 1398.63 2222.02 1397.1 Q2223.79 1394.22 2224.35 1392.36 Q2224.94 1390.47 2224.64 1388.81 Q2224.17 1386.09 2221.95 1384.72 Q2219.76 1383.35 2216.7 1383.89 Q2214.54 1384.27 2212.25 1385.45 Q2209.99 1386.62 2207.52 1388.63 L2206.7 1383.98 Q2209.29 1382.37 2211.6 1381.38 Q2213.92 1380.38 2215.93 1380.03 Q2221.22 1379.09 2224.83 1381.18 Q2228.44 1383.27 2229.22 1387.69 Q2229.59 1389.79 2229.13 1391.83 Q2228.68 1393.83 2227.06 1396.75 Q2226.6 1397.51 2224.11 1401.22 Q2221.61 1404.9 2217.04 1411.56 Z" fill="#000000" fill-rule="evenodd" fill-opacity="1" /><path clip-path="url(#clip460)" d="M2247.85 1378.16 Q2244.29 1378.79 2243.11 1382.61 Q2241.95 1386.41 2243.18 1393.44 Q2244.42 1400.43 2246.81 1403.63 Q2249.23 1406.8 2252.79 1406.17 Q2256.37 1405.54 2257.53 1401.74 Q2258.71 1397.91 2257.48 1390.92 Q2256.24 1383.89 2253.82 1380.72 Q2251.43 1377.53 2247.85 1378.16 M2247.2 1374.51 Q2252.93 1373.5 2256.73 1377.51 Q2260.56 1381.49 2262.08 1390.1 Q2263.6 1398.7 2261.36 1403.77 Q2259.15 1408.81 2253.43 1409.82 Q2247.71 1410.83 2243.88 1406.85 Q2240.07 1402.85 2238.56 1394.25 Q2237.04 1385.64 2239.25 1380.59 Q2241.48 1375.52 2247.2 1374.51 Z" fill="#000000" fill-rule="evenodd" fill-opacity="1" /><path clip-path="url(#clip460)" d="M2276.45 1401.09 L2292.52 1398.25 L2293.21 1402.13 L2271.6 1405.94 L2270.91 1402.06 Q2273.06 1398.89 2276.77 1393.53 Q2280.49 1388.15 2281.42 1386.62 Q2283.2 1383.75 2283.76 1381.89 Q2284.35 1380 2284.05 1378.33 Q2283.57 1375.62 2281.36 1374.25 Q2279.16 1372.87 2276.11 1373.41 Q2273.94 1373.79 2271.66 1374.97 Q2269.4 1376.14 2266.93 1378.15 L2266.11 1373.5 Q2268.7 1371.9 2271.01 1370.9 Q2273.33 1369.9 2275.33 1369.55 Q2280.62 1368.62 2284.24 1370.71 Q2287.85 1372.8 2288.63 1377.22 Q2289 1379.32 2288.53 1381.35 Q2288.09 1383.36 2286.46 1386.27 Q2286.01 1387.04 2283.51 1390.74 Q2281.01 1394.43 2276.45 1401.09 Z" fill="#000000" fill-rule="evenodd" fill-opacity="1" /><path clip-path="url(#clip460)" d="M2302.99 1396.41 L2310.51 1395.08 L2305.93 1369.12 L2298.04 1372.2 L2297.3 1368 L2305.15 1364.93 L2309.75 1364.12 L2315.07 1394.28 L2322.59 1392.95 L2323.28 1396.83 L2303.67 1400.28 L2302.99 1396.41 Z" fill="#000000" fill-rule="evenodd" fill-opacity="1" /><path clip-path="url(#clip460)" d="M2347.83 1371.32 L2341.2 1372.49 L2340.62 1380.44 L2347.3 1379.26 L2347.83 1371.32 M2342.12 1358.95 L2341.42 1368.83 L2348.08 1367.65 L2348.8 1357.77 L2352.45 1357.13 L2351.77 1367 L2358.88 1365.75 L2359.5 1369.26 L2351.5 1370.67 L2350.97 1378.61 L2358.22 1377.34 L2358.84 1380.82 L2350.7 1382.26 L2349.99 1392.11 L2346.35 1392.76 L2347.03 1382.91 L2340.35 1384.08 L2339.67 1393.93 L2336 1394.58 L2336.7 1384.73 L2329.52 1385.99 L2328.91 1382.5 L2336.93 1381.09 L2337.5 1373.14 L2330.16 1374.43 L2329.54 1370.92 L2337.77 1369.47 L2338.43 1359.6 L2342.12 1358.95 Z" fill="#000000" fill-rule="evenodd" fill-opacity="1" /><path clip-path="url(#clip460)" d="M2374.98 1383.71 L2391.05 1380.88 L2391.73 1384.75 L2370.12 1388.56 L2369.44 1384.69 Q2371.58 1381.51 2375.29 1376.16 Q2379.02 1370.78 2379.95 1369.25 Q2381.72 1366.38 2382.29 1364.51 Q2382.87 1362.62 2382.58 1360.96 Q2382.1 1358.25 2379.88 1356.87 Q2377.69 1355.5 2374.63 1356.04 Q2372.47 1356.42 2370.19 1357.6 Q2367.92 1358.77 2365.46 1360.78 L2364.64 1356.13 Q2367.22 1354.52 2369.54 1353.53 Q2371.85 1352.53 2373.86 1352.18 Q2379.15 1351.25 2382.76 1353.33 Q2386.37 1355.42 2387.15 1359.85 Q2387.52 1361.94 2387.06 1363.98 Q2386.61 1365.98 2384.99 1368.9 Q2384.54 1369.66 2382.04 1373.37 Q2379.54 1377.06 2374.98 1383.71 Z" fill="#000000" fill-rule="evenodd" fill-opacity="1" /><polyline clip-path="url(#clip462)" style="stroke:#000000; stroke-linecap:butt; stroke-linejoin:round; stroke-width:2; stroke-opacity:0.1; fill:none" points="
  303.535,1248.56 2352.76,1248.56 
  "/>
<polyline clip-path="url(#clip462)" style="stroke:#000000; stroke-linecap:butt; stroke-linejoin:round; stroke-width:2; stroke-opacity:0.1; fill:none" points="
  303.535,996.818 2352.76,996.818 
  "/>
<polyline clip-path="url(#clip462)" style="stroke:#000000; stroke-linecap:butt; stroke-linejoin:round; stroke-width:2; stroke-opacity:0.1; fill:none" points="
  303.535,745.08 2352.76,745.08 
  "/>
<polyline clip-path="url(#clip462)" style="stroke:#000000; stroke-linecap:butt; stroke-linejoin:round; stroke-width:2; stroke-opacity:0.1; fill:none" points="
  303.535,493.341 2352.76,493.341 
  "/>
<polyline clip-path="url(#clip462)" style="stroke:#000000; stroke-linecap:butt; stroke-linejoin:round; stroke-width:2; stroke-opacity:0.1; fill:none" points="
  303.535,241.603 2352.76,241.603 
  "/>
<polyline clip-path="url(#clip460)" style="stroke:#000000; stroke-linecap:butt; stroke-linejoin:round; stroke-width:4; stroke-opacity:1; fill:none" points="
  303.535,1340.54 303.535,47.2441 
  "/>
<polyline clip-path="url(#clip460)" style="stroke:#000000; stroke-linecap:butt; stroke-linejoin:round; stroke-width:4; stroke-opacity:1; fill:none" points="
  303.535,1248.56 322.433,1248.56 
  "/>
<polyline clip-path="url(#clip460)" style="stroke:#000000; stroke-linecap:butt; stroke-linejoin:round; stroke-width:4; stroke-opacity:1; fill:none" points="
  303.535,996.818 322.433,996.818 
  "/>
<polyline clip-path="url(#clip460)" style="stroke:#000000; stroke-linecap:butt; stroke-linejoin:round; stroke-width:4; stroke-opacity:1; fill:none" points="
  303.535,745.08 322.433,745.08 
  "/>
<polyline clip-path="url(#clip460)" style="stroke:#000000; stroke-linecap:butt; stroke-linejoin:round; stroke-width:4; stroke-opacity:1; fill:none" points="
  303.535,493.341 322.433,493.341 
  "/>
<polyline clip-path="url(#clip460)" style="stroke:#000000; stroke-linecap:butt; stroke-linejoin:round; stroke-width:4; stroke-opacity:1; fill:none" points="
  303.535,241.603 322.433,241.603 
  "/>
<path clip-path="url(#clip460)" d="M199.434 1247.2 Q202.79 1247.92 204.665 1250.19 Q206.563 1252.46 206.563 1255.79 Q206.563 1260.91 203.045 1263.71 Q199.526 1266.51 193.045 1266.51 Q190.869 1266.51 188.554 1266.07 Q186.262 1265.65 183.809 1264.79 L183.809 1260.28 Q185.753 1261.41 188.068 1261.99 Q190.383 1262.57 192.906 1262.57 Q197.304 1262.57 199.596 1260.84 Q201.911 1259.1 201.911 1255.79 Q201.911 1252.73 199.758 1251.02 Q197.628 1249.29 193.809 1249.29 L189.781 1249.29 L189.781 1245.44 L193.994 1245.44 Q197.443 1245.44 199.272 1244.08 Q201.1 1242.69 201.1 1240.1 Q201.1 1237.43 199.202 1236.02 Q197.327 1234.59 193.809 1234.59 Q191.887 1234.59 189.688 1235 Q187.489 1235.42 184.85 1236.3 L184.85 1232.13 Q187.512 1231.39 189.827 1231.02 Q192.165 1230.65 194.225 1230.65 Q199.549 1230.65 202.651 1233.08 Q205.753 1235.49 205.753 1239.61 Q205.753 1242.48 204.11 1244.47 Q202.466 1246.44 199.434 1247.2 Z" fill="#000000" fill-rule="evenodd" fill-opacity="1" /><path clip-path="url(#clip460)" d="M225.429 1234.35 Q221.818 1234.35 219.989 1237.92 Q218.184 1241.46 218.184 1248.59 Q218.184 1255.7 219.989 1259.26 Q221.818 1262.8 225.429 1262.8 Q229.063 1262.8 230.869 1259.26 Q232.697 1255.7 232.697 1248.59 Q232.697 1241.46 230.869 1237.92 Q229.063 1234.35 225.429 1234.35 M225.429 1230.65 Q231.239 1230.65 234.295 1235.26 Q237.373 1239.84 237.373 1248.59 Q237.373 1257.32 234.295 1261.92 Q231.239 1266.51 225.429 1266.51 Q219.619 1266.51 216.54 1261.92 Q213.485 1257.32 213.485 1248.59 Q213.485 1239.84 216.54 1235.26 Q219.619 1230.65 225.429 1230.65 Z" fill="#000000" fill-rule="evenodd" fill-opacity="1" /><path clip-path="url(#clip460)" d="M255.591 1234.35 Q251.98 1234.35 250.151 1237.92 Q248.345 1241.46 248.345 1248.59 Q248.345 1255.7 250.151 1259.26 Q251.98 1262.8 255.591 1262.8 Q259.225 1262.8 261.031 1259.26 Q262.859 1255.7 262.859 1248.59 Q262.859 1241.46 261.031 1237.92 Q259.225 1234.35 255.591 1234.35 M255.591 1230.65 Q261.401 1230.65 264.456 1235.26 Q267.535 1239.84 267.535 1248.59 Q267.535 1257.32 264.456 1261.92 Q261.401 1266.51 255.591 1266.51 Q249.781 1266.51 246.702 1261.92 Q243.646 1257.32 243.646 1248.59 Q243.646 1239.84 246.702 1235.26 Q249.781 1230.65 255.591 1230.65 Z" fill="#000000" fill-rule="evenodd" fill-opacity="1" /><path clip-path="url(#clip460)" d="M195.846 994.955 Q192.698 994.955 190.846 997.107 Q189.017 999.26 189.017 1003.01 Q189.017 1006.74 190.846 1008.91 Q192.698 1011.07 195.846 1011.07 Q198.994 1011.07 200.823 1008.91 Q202.674 1006.74 202.674 1003.01 Q202.674 999.26 200.823 997.107 Q198.994 994.955 195.846 994.955 M205.128 980.302 L205.128 984.561 Q203.369 983.728 201.563 983.288 Q199.781 982.848 198.022 982.848 Q193.392 982.848 190.938 985.973 Q188.508 989.098 188.161 995.417 Q189.526 993.404 191.586 992.339 Q193.647 991.251 196.124 991.251 Q201.332 991.251 204.341 994.422 Q207.373 997.57 207.373 1003.01 Q207.373 1008.33 204.225 1011.55 Q201.077 1014.77 195.846 1014.77 Q189.85 1014.77 186.679 1010.19 Q183.508 1005.58 183.508 996.853 Q183.508 988.658 187.397 983.797 Q191.286 978.913 197.836 978.913 Q199.596 978.913 201.378 979.26 Q203.184 979.607 205.128 980.302 Z" fill="#000000" fill-rule="evenodd" fill-opacity="1" /><path clip-path="url(#clip460)" d="M225.429 982.617 Q221.818 982.617 219.989 986.181 Q218.184 989.723 218.184 996.853 Q218.184 1003.96 219.989 1007.52 Q221.818 1011.07 225.429 1011.07 Q229.063 1011.07 230.869 1007.52 Q232.697 1003.96 232.697 996.853 Q232.697 989.723 230.869 986.181 Q229.063 982.617 225.429 982.617 M225.429 978.913 Q231.239 978.913 234.295 983.519 Q237.373 988.103 237.373 996.853 Q237.373 1005.58 234.295 1010.19 Q231.239 1014.77 225.429 1014.77 Q219.619 1014.77 216.54 1010.19 Q213.485 1005.58 213.485 996.853 Q213.485 988.103 216.54 983.519 Q219.619 978.913 225.429 978.913 Z" fill="#000000" fill-rule="evenodd" fill-opacity="1" /><path clip-path="url(#clip460)" d="M255.591 982.617 Q251.98 982.617 250.151 986.181 Q248.345 989.723 248.345 996.853 Q248.345 1003.96 250.151 1007.52 Q251.98 1011.07 255.591 1011.07 Q259.225 1011.07 261.031 1007.52 Q262.859 1003.96 262.859 996.853 Q262.859 989.723 261.031 986.181 Q259.225 982.617 255.591 982.617 M255.591 978.913 Q261.401 978.913 264.456 983.519 Q267.535 988.103 267.535 996.853 Q267.535 1005.58 264.456 1010.19 Q261.401 1014.77 255.591 1014.77 Q249.781 1014.77 246.702 1010.19 Q243.646 1005.58 243.646 996.853 Q243.646 988.103 246.702 983.519 Q249.781 978.913 255.591 978.913 Z" fill="#000000" fill-rule="evenodd" fill-opacity="1" /><path clip-path="url(#clip460)" d="M185.406 761.642 L185.406 757.383 Q187.165 758.216 188.971 758.656 Q190.776 759.096 192.512 759.096 Q197.142 759.096 199.573 755.994 Q202.026 752.869 202.373 746.526 Q201.031 748.517 198.971 749.582 Q196.911 750.647 194.411 750.647 Q189.225 750.647 186.193 747.522 Q183.184 744.374 183.184 738.934 Q183.184 733.61 186.332 730.392 Q189.48 727.175 194.711 727.175 Q200.707 727.175 203.855 731.781 Q207.026 736.364 207.026 745.114 Q207.026 753.286 203.137 758.17 Q199.272 763.031 192.721 763.031 Q190.961 763.031 189.156 762.684 Q187.35 762.336 185.406 761.642 M194.711 746.989 Q197.86 746.989 199.688 744.837 Q201.54 742.684 201.54 738.934 Q201.54 735.207 199.688 733.054 Q197.86 730.878 194.711 730.878 Q191.563 730.878 189.712 733.054 Q187.883 735.207 187.883 738.934 Q187.883 742.684 189.712 744.837 Q191.563 746.989 194.711 746.989 Z" fill="#000000" fill-rule="evenodd" fill-opacity="1" /><path clip-path="url(#clip460)" d="M225.429 730.878 Q221.818 730.878 219.989 734.443 Q218.184 737.985 218.184 745.114 Q218.184 752.221 219.989 755.786 Q221.818 759.327 225.429 759.327 Q229.063 759.327 230.869 755.786 Q232.697 752.221 232.697 745.114 Q232.697 737.985 230.869 734.443 Q229.063 730.878 225.429 730.878 M225.429 727.175 Q231.239 727.175 234.295 731.781 Q237.373 736.364 237.373 745.114 Q237.373 753.841 234.295 758.448 Q231.239 763.031 225.429 763.031 Q219.619 763.031 216.54 758.448 Q213.485 753.841 213.485 745.114 Q213.485 736.364 216.54 731.781 Q219.619 727.175 225.429 727.175 Z" fill="#000000" fill-rule="evenodd" fill-opacity="1" /><path clip-path="url(#clip460)" d="M255.591 730.878 Q251.98 730.878 250.151 734.443 Q248.345 737.985 248.345 745.114 Q248.345 752.221 250.151 755.786 Q251.98 759.327 255.591 759.327 Q259.225 759.327 261.031 755.786 Q262.859 752.221 262.859 745.114 Q262.859 737.985 261.031 734.443 Q259.225 730.878 255.591 730.878 M255.591 727.175 Q261.401 727.175 264.456 731.781 Q267.535 736.364 267.535 745.114 Q267.535 753.841 264.456 758.448 Q261.401 763.031 255.591 763.031 Q249.781 763.031 246.702 758.448 Q243.646 753.841 243.646 745.114 Q243.646 736.364 246.702 731.781 Q249.781 727.175 255.591 727.175 Z" fill="#000000" fill-rule="evenodd" fill-opacity="1" /><path clip-path="url(#clip460)" d="M155.915 506.686 L163.554 506.686 L163.554 480.32 L155.244 481.987 L155.244 477.728 L163.508 476.061 L168.184 476.061 L168.184 506.686 L175.823 506.686 L175.823 510.621 L155.915 510.621 L155.915 506.686 Z" fill="#000000" fill-rule="evenodd" fill-opacity="1" /><path clip-path="url(#clip460)" d="M189.295 506.686 L205.614 506.686 L205.614 510.621 L183.67 510.621 L183.67 506.686 Q186.332 503.931 190.915 499.302 Q195.522 494.649 196.702 493.307 Q198.948 490.783 199.827 489.047 Q200.73 487.288 200.73 485.598 Q200.73 482.844 198.786 481.107 Q196.864 479.371 193.762 479.371 Q191.563 479.371 189.11 480.135 Q186.679 480.899 183.901 482.45 L183.901 477.728 Q186.725 476.594 189.179 476.015 Q191.633 475.436 193.67 475.436 Q199.04 475.436 202.235 478.121 Q205.429 480.807 205.429 485.297 Q205.429 487.427 204.619 489.348 Q203.832 491.246 201.725 493.839 Q201.147 494.51 198.045 497.728 Q194.943 500.922 189.295 506.686 Z" fill="#000000" fill-rule="evenodd" fill-opacity="1" /><path clip-path="url(#clip460)" d="M225.429 479.14 Q221.818 479.14 219.989 482.705 Q218.184 486.246 218.184 493.376 Q218.184 500.482 219.989 504.047 Q221.818 507.589 225.429 507.589 Q229.063 507.589 230.869 504.047 Q232.697 500.482 232.697 493.376 Q232.697 486.246 230.869 482.705 Q229.063 479.14 225.429 479.14 M225.429 475.436 Q231.239 475.436 234.295 480.043 Q237.373 484.626 237.373 493.376 Q237.373 502.103 234.295 506.709 Q231.239 511.293 225.429 511.293 Q219.619 511.293 216.54 506.709 Q213.485 502.103 213.485 493.376 Q213.485 484.626 216.54 480.043 Q219.619 475.436 225.429 475.436 Z" fill="#000000" fill-rule="evenodd" fill-opacity="1" /><path clip-path="url(#clip460)" d="M255.591 479.14 Q251.98 479.14 250.151 482.705 Q248.345 486.246 248.345 493.376 Q248.345 500.482 250.151 504.047 Q251.98 507.589 255.591 507.589 Q259.225 507.589 261.031 504.047 Q262.859 500.482 262.859 493.376 Q262.859 486.246 261.031 482.705 Q259.225 479.14 255.591 479.14 M255.591 475.436 Q261.401 475.436 264.456 480.043 Q267.535 484.626 267.535 493.376 Q267.535 502.103 264.456 506.709 Q261.401 511.293 255.591 511.293 Q249.781 511.293 246.702 506.709 Q243.646 502.103 243.646 493.376 Q243.646 484.626 246.702 480.043 Q249.781 475.436 255.591 475.436 Z" fill="#000000" fill-rule="evenodd" fill-opacity="1" /><path clip-path="url(#clip460)" d="M155.915 254.948 L163.554 254.948 L163.554 228.582 L155.244 230.249 L155.244 225.99 L163.508 224.323 L168.184 224.323 L168.184 254.948 L175.823 254.948 L175.823 258.883 L155.915 258.883 L155.915 254.948 Z" fill="#000000" fill-rule="evenodd" fill-opacity="1" /><path clip-path="url(#clip460)" d="M185.313 224.323 L203.67 224.323 L203.67 228.258 L189.596 228.258 L189.596 236.73 Q190.614 236.383 191.633 236.221 Q192.651 236.036 193.67 236.036 Q199.457 236.036 202.836 239.207 Q206.216 242.378 206.216 247.795 Q206.216 253.374 202.744 256.475 Q199.272 259.554 192.952 259.554 Q190.776 259.554 188.508 259.184 Q186.262 258.813 183.855 258.073 L183.855 253.374 Q185.938 254.508 188.161 255.063 Q190.383 255.619 192.86 255.619 Q196.864 255.619 199.202 253.513 Q201.54 251.406 201.54 247.795 Q201.54 244.184 199.202 242.077 Q196.864 239.971 192.86 239.971 Q190.985 239.971 189.11 240.388 Q187.258 240.804 185.313 241.684 L185.313 224.323 Z" fill="#000000" fill-rule="evenodd" fill-opacity="1" /><path clip-path="url(#clip460)" d="M225.429 227.402 Q221.818 227.402 219.989 230.966 Q218.184 234.508 218.184 241.638 Q218.184 248.744 219.989 252.309 Q221.818 255.85 225.429 255.85 Q229.063 255.85 230.869 252.309 Q232.697 248.744 232.697 241.638 Q232.697 234.508 230.869 230.966 Q229.063 227.402 225.429 227.402 M225.429 223.698 Q231.239 223.698 234.295 228.304 Q237.373 232.888 237.373 241.638 Q237.373 250.364 234.295 254.971 Q231.239 259.554 225.429 259.554 Q219.619 259.554 216.54 254.971 Q213.485 250.364 213.485 241.638 Q213.485 232.888 216.54 228.304 Q219.619 223.698 225.429 223.698 Z" fill="#000000" fill-rule="evenodd" fill-opacity="1" /><path clip-path="url(#clip460)" d="M255.591 227.402 Q251.98 227.402 250.151 230.966 Q248.345 234.508 248.345 241.638 Q248.345 248.744 250.151 252.309 Q251.98 255.85 255.591 255.85 Q259.225 255.85 261.031 252.309 Q262.859 248.744 262.859 241.638 Q262.859 234.508 261.031 230.966 Q259.225 227.402 255.591 227.402 M255.591 223.698 Q261.401 223.698 264.456 228.304 Q267.535 232.888 267.535 241.638 Q267.535 250.364 264.456 254.971 Q261.401 259.554 255.591 259.554 Q249.781 259.554 246.702 254.971 Q243.646 250.364 243.646 241.638 Q243.646 232.888 246.702 228.304 Q249.781 223.698 255.591 223.698 Z" fill="#000000" fill-rule="evenodd" fill-opacity="1" /><polyline clip-path="url(#clip462)" style="stroke:#009af9; stroke-linecap:butt; stroke-linejoin:round; stroke-width:4; stroke-opacity:1; fill:none" points="
  361.532,1217.51 748.177,1175.55 1134.82,916.262 1521.47,625.923 1908.11,83.8468 2294.76,518.515 
  "/>
<polyline clip-path="url(#clip462)" style="stroke:#e26f46; stroke-linecap:butt; stroke-linejoin:round; stroke-width:4; stroke-opacity:1; fill:none" points="
  361.532,1303.94 748.177,1294.71 1134.82,1104.23 1521.47,905.353 1908.11,389.289 2294.76,768.575 
  "/>
<path clip-path="url(#clip460)" d="
M1803.82 245.874 L2284.45 245.874 L2284.45 90.354 L1803.82 90.354  Z
  " fill="#ffffff" fill-rule="evenodd" fill-opacity="1"/>
<polyline clip-path="url(#clip460)" style="stroke:#000000; stroke-linecap:butt; stroke-linejoin:round; stroke-width:4; stroke-opacity:1; fill:none" points="
  1803.82,245.874 2284.45,245.874 2284.45,90.354 1803.82,90.354 1803.82,245.874 
  "/>
<polyline clip-path="url(#clip460)" style="stroke:#009af9; stroke-linecap:butt; stroke-linejoin:round; stroke-width:4; stroke-opacity:1; fill:none" points="
  1826.59,142.194 1963.2,142.194 
  "/>
<path clip-path="url(#clip460)" d="M2010 145.446 L2010 147.53 L1990.42 147.53 Q1990.69 151.928 1993.06 154.243 Q1995.44 156.534 1999.68 156.534 Q2002.13 156.534 2004.42 155.932 Q2006.74 155.331 2009 154.127 L2009 158.155 Q2006.71 159.127 2004.31 159.636 Q2001.9 160.145 1999.42 160.145 Q1993.22 160.145 1989.58 156.534 Q1985.97 152.923 1985.97 146.766 Q1985.97 140.4 1989.4 136.673 Q1992.85 132.923 1998.68 132.923 Q2003.91 132.923 2006.94 136.303 Q2010 139.659 2010 145.446 M2005.74 144.196 Q2005.69 140.701 2003.77 138.618 Q2001.87 136.534 1998.73 136.534 Q1995.16 136.534 1993.01 138.548 Q1990.88 140.562 1990.56 144.219 L2005.74 144.196 Z" fill="#000000" fill-rule="evenodd" fill-opacity="1" /><path clip-path="url(#clip460)" d="M2037.71 133.548 L2028.33 146.164 L2038.19 159.474 L2033.17 159.474 L2025.62 149.289 L2018.08 159.474 L2013.06 159.474 L2023.12 145.909 L2013.91 133.548 L2018.93 133.548 L2025.81 142.784 L2032.68 133.548 L2037.71 133.548 Z" fill="#000000" fill-rule="evenodd" fill-opacity="1" /><path clip-path="url(#clip460)" d="M2055.99 146.442 Q2050.83 146.442 2048.84 147.622 Q2046.85 148.803 2046.85 151.65 Q2046.85 153.918 2048.33 155.261 Q2049.84 156.581 2052.41 156.581 Q2055.95 156.581 2058.08 154.081 Q2060.23 151.557 2060.23 147.391 L2060.23 146.442 L2055.99 146.442 M2064.49 144.682 L2064.49 159.474 L2060.23 159.474 L2060.23 155.539 Q2058.77 157.9 2056.6 159.034 Q2054.42 160.145 2051.27 160.145 Q2047.29 160.145 2044.93 157.923 Q2042.59 155.678 2042.59 151.928 Q2042.59 147.553 2045.51 145.331 Q2048.45 143.108 2054.26 143.108 L2060.23 143.108 L2060.23 142.692 Q2060.23 139.752 2058.29 138.155 Q2056.36 136.534 2052.87 136.534 Q2050.65 136.534 2048.54 137.067 Q2046.43 137.599 2044.49 138.664 L2044.49 134.729 Q2046.83 133.826 2049.03 133.386 Q2051.23 132.923 2053.31 132.923 Q2058.93 132.923 2061.71 135.84 Q2064.49 138.757 2064.49 144.682 Z" fill="#000000" fill-rule="evenodd" fill-opacity="1" /><path clip-path="url(#clip460)" d="M2093.45 138.525 Q2095.05 135.655 2097.27 134.289 Q2099.49 132.923 2102.5 132.923 Q2106.55 132.923 2108.75 135.77 Q2110.95 138.594 2110.95 143.826 L2110.95 159.474 L2106.67 159.474 L2106.67 143.965 Q2106.67 140.238 2105.35 138.432 Q2104.03 136.627 2101.32 136.627 Q2098.01 136.627 2096.09 138.826 Q2094.17 141.025 2094.17 144.821 L2094.17 159.474 L2089.88 159.474 L2089.88 143.965 Q2089.88 140.215 2088.56 138.432 Q2087.24 136.627 2084.49 136.627 Q2081.23 136.627 2079.3 138.849 Q2077.38 141.048 2077.38 144.821 L2077.38 159.474 L2073.1 159.474 L2073.1 133.548 L2077.38 133.548 L2077.38 137.576 Q2078.84 135.192 2080.88 134.057 Q2082.92 132.923 2085.72 132.923 Q2088.54 132.923 2090.51 134.358 Q2092.5 135.794 2093.45 138.525 Z" fill="#000000" fill-rule="evenodd" fill-opacity="1" /><path clip-path="url(#clip460)" d="M2119.44 133.548 L2123.7 133.548 L2123.7 159.474 L2119.44 159.474 L2119.44 133.548 M2119.44 123.456 L2123.7 123.456 L2123.7 128.849 L2119.44 128.849 L2119.44 123.456 Z" fill="#000000" fill-rule="evenodd" fill-opacity="1" /><path clip-path="url(#clip460)" d="M2154.17 143.826 L2154.17 159.474 L2149.91 159.474 L2149.91 143.965 Q2149.91 140.284 2148.47 138.456 Q2147.04 136.627 2144.17 136.627 Q2140.72 136.627 2138.73 138.826 Q2136.73 141.025 2136.73 144.821 L2136.73 159.474 L2132.45 159.474 L2132.45 133.548 L2136.73 133.548 L2136.73 137.576 Q2138.26 135.238 2140.32 134.081 Q2142.41 132.923 2145.11 132.923 Q2149.58 132.923 2151.87 135.701 Q2154.17 138.456 2154.17 143.826 Z" fill="#000000" fill-rule="evenodd" fill-opacity="1" /><path clip-path="url(#clip460)" d="M2184.84 145.446 L2184.84 147.53 L2165.25 147.53 Q2165.53 151.928 2167.89 154.243 Q2170.28 156.534 2174.51 156.534 Q2176.97 156.534 2179.26 155.932 Q2181.57 155.331 2183.84 154.127 L2183.84 158.155 Q2181.55 159.127 2179.14 159.636 Q2176.73 160.145 2174.26 160.145 Q2168.05 160.145 2164.42 156.534 Q2160.81 152.923 2160.81 146.766 Q2160.81 140.4 2164.23 136.673 Q2167.68 132.923 2173.52 132.923 Q2178.75 132.923 2181.78 136.303 Q2184.84 139.659 2184.84 145.446 M2180.58 144.196 Q2180.53 140.701 2178.61 138.618 Q2176.71 136.534 2173.56 136.534 Q2170 136.534 2167.85 138.548 Q2165.72 140.562 2165.39 144.219 L2180.58 144.196 Z" fill="#000000" fill-rule="evenodd" fill-opacity="1" /><path clip-path="url(#clip460)" d="M2214 145.446 L2214 147.53 L2194.42 147.53 Q2194.7 151.928 2197.06 154.243 Q2199.44 156.534 2203.68 156.534 Q2206.13 156.534 2208.42 155.932 Q2210.74 155.331 2213.01 154.127 L2213.01 158.155 Q2210.72 159.127 2208.31 159.636 Q2205.9 160.145 2203.42 160.145 Q2197.22 160.145 2193.59 156.534 Q2189.98 152.923 2189.98 146.766 Q2189.98 140.4 2193.4 136.673 Q2196.85 132.923 2202.68 132.923 Q2207.92 132.923 2210.95 136.303 Q2214 139.659 2214 145.446 M2209.74 144.196 Q2209.7 140.701 2207.78 138.618 Q2205.88 136.534 2202.73 136.534 Q2199.17 136.534 2197.01 138.548 Q2194.88 140.562 2194.56 144.219 L2209.74 144.196 Z" fill="#000000" fill-rule="evenodd" fill-opacity="1" /><path clip-path="url(#clip460)" d="M2237.52 134.312 L2237.52 138.34 Q2235.72 137.414 2233.77 136.951 Q2231.83 136.488 2229.74 136.488 Q2226.57 136.488 2224.98 137.46 Q2223.4 138.432 2223.4 140.377 Q2223.4 141.858 2224.54 142.715 Q2225.67 143.548 2229.1 144.312 L2230.55 144.636 Q2235.09 145.608 2236.99 147.391 Q2238.91 149.15 2238.91 152.321 Q2238.91 155.932 2236.04 158.039 Q2233.19 160.145 2228.19 160.145 Q2226.11 160.145 2223.84 159.729 Q2221.6 159.335 2219.1 158.525 L2219.1 154.127 Q2221.46 155.354 2223.75 155.979 Q2226.04 156.581 2228.29 156.581 Q2231.29 156.581 2232.91 155.562 Q2234.54 154.52 2234.54 152.645 Q2234.54 150.909 2233.35 149.983 Q2232.2 149.057 2228.24 148.201 L2226.76 147.854 Q2222.8 147.02 2221.04 145.307 Q2219.28 143.571 2219.28 140.562 Q2219.28 136.905 2221.87 134.914 Q2224.47 132.923 2229.23 132.923 Q2231.6 132.923 2233.68 133.27 Q2235.76 133.618 2237.52 134.312 Z" fill="#000000" fill-rule="evenodd" fill-opacity="1" /><polyline clip-path="url(#clip460)" style="stroke:#e26f46; stroke-linecap:butt; stroke-linejoin:round; stroke-width:4; stroke-opacity:1; fill:none" points="
  1826.59,194.034 1963.2,194.034 
  "/>
<path clip-path="url(#clip460)" d="M1990.25 207.425 L1990.25 221.175 L1985.97 221.175 L1985.97 185.388 L1990.25 185.388 L1990.25 189.323 Q1991.6 187.009 1993.63 185.897 Q1995.69 184.763 1998.54 184.763 Q2003.26 184.763 2006.2 188.513 Q2009.17 192.263 2009.17 198.374 Q2009.17 204.485 2006.2 208.235 Q2003.26 211.985 1998.54 211.985 Q1995.69 211.985 1993.63 210.874 Q1991.6 209.74 1990.25 207.425 M2004.74 198.374 Q2004.74 193.675 2002.8 191.013 Q2000.88 188.328 1997.5 188.328 Q1994.12 188.328 1992.18 191.013 Q1990.25 193.675 1990.25 198.374 Q1990.25 203.073 1992.18 205.758 Q1994.12 208.421 1997.5 208.421 Q2000.88 208.421 2002.8 205.758 Q2004.74 203.073 2004.74 198.374 Z" fill="#000000" fill-rule="evenodd" fill-opacity="1" /><path clip-path="url(#clip460)" d="M2028.01 198.282 Q2022.85 198.282 2020.86 199.462 Q2018.87 200.643 2018.87 203.49 Q2018.87 205.758 2020.35 207.101 Q2021.85 208.421 2024.42 208.421 Q2027.96 208.421 2030.09 205.921 Q2032.24 203.397 2032.24 199.231 L2032.24 198.282 L2028.01 198.282 M2036.5 196.522 L2036.5 211.314 L2032.24 211.314 L2032.24 207.379 Q2030.79 209.74 2028.61 210.874 Q2026.43 211.985 2023.29 211.985 Q2019.31 211.985 2016.94 209.763 Q2014.61 207.518 2014.61 203.768 Q2014.61 199.393 2017.52 197.171 Q2020.46 194.948 2026.27 194.948 L2032.24 194.948 L2032.24 194.532 Q2032.24 191.592 2030.3 189.995 Q2028.38 188.374 2024.88 188.374 Q2022.66 188.374 2020.55 188.907 Q2018.45 189.439 2016.5 190.504 L2016.5 186.569 Q2018.84 185.666 2021.04 185.226 Q2023.24 184.763 2025.32 184.763 Q2030.95 184.763 2033.73 187.68 Q2036.5 190.597 2036.5 196.522 Z" fill="#000000" fill-rule="evenodd" fill-opacity="1" /><path clip-path="url(#clip460)" d="M2061.8 186.152 L2061.8 190.18 Q2060 189.254 2058.05 188.791 Q2056.11 188.328 2054.03 188.328 Q2050.86 188.328 2049.26 189.3 Q2047.68 190.272 2047.68 192.217 Q2047.68 193.698 2048.82 194.555 Q2049.95 195.388 2053.38 196.152 L2054.84 196.476 Q2059.37 197.448 2061.27 199.231 Q2063.19 200.99 2063.19 204.161 Q2063.19 207.772 2060.32 209.879 Q2057.48 211.985 2052.48 211.985 Q2050.39 211.985 2048.12 211.569 Q2045.88 211.175 2043.38 210.365 L2043.38 205.967 Q2045.74 207.194 2048.03 207.819 Q2050.32 208.421 2052.57 208.421 Q2055.58 208.421 2057.2 207.402 Q2058.82 206.36 2058.82 204.485 Q2058.82 202.749 2057.64 201.823 Q2056.48 200.897 2052.52 200.041 L2051.04 199.694 Q2047.08 198.86 2045.32 197.147 Q2043.56 195.411 2043.56 192.402 Q2043.56 188.745 2046.16 186.754 Q2048.75 184.763 2053.52 184.763 Q2055.88 184.763 2057.96 185.11 Q2060.05 185.458 2061.8 186.152 Z" fill="#000000" fill-rule="evenodd" fill-opacity="1" /><path clip-path="url(#clip460)" d="M2086.5 186.152 L2086.5 190.18 Q2084.7 189.254 2082.75 188.791 Q2080.81 188.328 2078.73 188.328 Q2075.55 188.328 2073.96 189.3 Q2072.38 190.272 2072.38 192.217 Q2072.38 193.698 2073.52 194.555 Q2074.65 195.388 2078.08 196.152 L2079.54 196.476 Q2084.07 197.448 2085.97 199.231 Q2087.89 200.99 2087.89 204.161 Q2087.89 207.772 2085.02 209.879 Q2082.18 211.985 2077.18 211.985 Q2075.09 211.985 2072.82 211.569 Q2070.58 211.175 2068.08 210.365 L2068.08 205.967 Q2070.44 207.194 2072.73 207.819 Q2075.02 208.421 2077.27 208.421 Q2080.28 208.421 2081.9 207.402 Q2083.52 206.36 2083.52 204.485 Q2083.52 202.749 2082.34 201.823 Q2081.18 200.897 2077.22 200.041 L2075.74 199.694 Q2071.78 198.86 2070.02 197.147 Q2068.26 195.411 2068.26 192.402 Q2068.26 188.745 2070.86 186.754 Q2073.45 184.763 2078.22 184.763 Q2080.58 184.763 2082.66 185.11 Q2084.74 185.458 2086.5 186.152 Z" fill="#000000" fill-rule="evenodd" fill-opacity="1" /><path clip-path="url(#clip460)" d="M2116.85 197.286 L2116.85 199.37 L2097.27 199.37 Q2097.55 203.768 2099.91 206.083 Q2102.29 208.374 2106.53 208.374 Q2108.98 208.374 2111.27 207.772 Q2113.59 207.171 2115.86 205.967 L2115.86 209.995 Q2113.56 210.967 2111.16 211.476 Q2108.75 211.985 2106.27 211.985 Q2100.07 211.985 2096.43 208.374 Q2092.82 204.763 2092.82 198.606 Q2092.82 192.24 2096.25 188.513 Q2099.7 184.763 2105.53 184.763 Q2110.76 184.763 2113.8 188.143 Q2116.85 191.499 2116.85 197.286 M2112.59 196.036 Q2112.55 192.541 2110.62 190.458 Q2108.73 188.374 2105.58 188.374 Q2102.01 188.374 2099.86 190.388 Q2097.73 192.402 2097.41 196.059 L2112.59 196.036 Z" fill="#000000" fill-rule="evenodd" fill-opacity="1" /><path clip-path="url(#clip460)" d="M2138.86 189.37 Q2138.15 188.953 2137.29 188.768 Q2136.46 188.559 2135.44 188.559 Q2131.83 188.559 2129.88 190.921 Q2127.96 193.259 2127.96 197.657 L2127.96 211.314 L2123.68 211.314 L2123.68 185.388 L2127.96 185.388 L2127.96 189.416 Q2129.3 187.055 2131.46 185.921 Q2133.61 184.763 2136.69 184.763 Q2137.13 184.763 2137.66 184.833 Q2138.19 184.879 2138.84 184.995 L2138.86 189.37 Z" fill="#000000" fill-rule="evenodd" fill-opacity="1" /><path clip-path="url(#clip460)" d="M2159.86 186.152 L2159.86 190.18 Q2158.05 189.254 2156.11 188.791 Q2154.17 188.328 2152.08 188.328 Q2148.91 188.328 2147.31 189.3 Q2145.74 190.272 2145.74 192.217 Q2145.74 193.698 2146.87 194.555 Q2148.01 195.388 2151.43 196.152 L2152.89 196.476 Q2157.43 197.448 2159.33 199.231 Q2161.25 200.99 2161.25 204.161 Q2161.25 207.772 2158.38 209.879 Q2155.53 211.985 2150.53 211.985 Q2148.45 211.985 2146.18 211.569 Q2143.93 211.175 2141.43 210.365 L2141.43 205.967 Q2143.8 207.194 2146.09 207.819 Q2148.38 208.421 2150.62 208.421 Q2153.63 208.421 2155.25 207.402 Q2156.87 206.36 2156.87 204.485 Q2156.87 202.749 2155.69 201.823 Q2154.54 200.897 2150.58 200.041 L2149.1 199.694 Q2145.14 198.86 2143.38 197.147 Q2141.62 195.411 2141.62 192.402 Q2141.62 188.745 2144.21 186.754 Q2146.8 184.763 2151.57 184.763 Q2153.93 184.763 2156.02 185.11 Q2158.1 185.458 2159.86 186.152 Z" fill="#000000" fill-rule="evenodd" fill-opacity="1" /></svg>
