<?xml version="1.0" encoding="utf-8"?>
<svg xmlns="http://www.w3.org/2000/svg" xmlns:xlink="http://www.w3.org/1999/xlink" width="600" height="400" viewBox="0 0 2400 1600">
<defs>
  <clipPath id="clip690">
    <rect x="0" y="0" width="2400" height="1600"/>
  </clipPath>
</defs>
<path clip-path="url(#clip690)" d="
M0 1600 L2400 1600 L2400 0 L0 0  Z
  " fill="#ffffff" fill-rule="evenodd" fill-opacity="1"/>
<defs>
  <clipPath id="clip691">
    <rect x="480" y="0" width="1681" height="1600"/>
  </clipPath>
</defs>
<path clip-path="url(#clip690)" d="
M303.535 1361.57 L2352.76 1361.57 L2352.76 47.2441 L303.535 47.2441  Z
  " fill="#ffffff" fill-rule="evenodd" fill-opacity="1"/>
<defs>
  <clipPath id="clip692">
    <rect x="303" y="47" width="2050" height="1315"/>
  </clipPath>
</defs>
<polyline clip-path="url(#clip692)" style="stroke:#000000; stroke-linecap:round; stroke-linejoin:round; stroke-width:2; stroke-opacity:0.1; fill:none" points="
  361.532,1361.57 361.532,47.2441 
  "/>
<polyline clip-path="url(#clip692)" style="stroke:#000000; stroke-linecap:round; stroke-linejoin:round; stroke-width:2; stroke-opacity:0.1; fill:none" points="
  748.177,1361.57 748.177,47.2441 
  "/>
<polyline clip-path="url(#clip692)" style="stroke:#000000; stroke-linecap:round; stroke-linejoin:round; stroke-width:2; stroke-opacity:0.1; fill:none" points="
  1134.82,1361.57 1134.82,47.2441 
  "/>
<polyline clip-path="url(#clip692)" style="stroke:#000000; stroke-linecap:round; stroke-linejoin:round; stroke-width:2; stroke-opacity:0.1; fill:none" points="
  1521.47,1361.57 1521.47,47.2441 
  "/>
<polyline clip-path="url(#clip692)" style="stroke:#000000; stroke-linecap:round; stroke-linejoin:round; stroke-width:2; stroke-opacity:0.1; fill:none" points="
  1908.11,1361.57 1908.11,47.2441 
  "/>
<polyline clip-path="url(#clip692)" style="stroke:#000000; stroke-linecap:round; stroke-linejoin:round; stroke-width:2; stroke-opacity:0.1; fill:none" points="
  2294.76,1361.57 2294.76,47.2441 
  "/>
<polyline clip-path="url(#clip690)" style="stroke:#000000; stroke-linecap:round; stroke-linejoin:round; stroke-width:4; stroke-opacity:1; fill:none" points="
  303.535,1361.57 2352.76,1361.57 
  "/>
<polyline clip-path="url(#clip690)" style="stroke:#000000; stroke-linecap:round; stroke-linejoin:round; stroke-width:4; stroke-opacity:1; fill:none" points="
  361.532,1361.57 361.532,1342.67 
  "/>
<polyline clip-path="url(#clip690)" style="stroke:#000000; stroke-linecap:round; stroke-linejoin:round; stroke-width:4; stroke-opacity:1; fill:none" points="
  748.177,1361.57 748.177,1342.67 
  "/>
<polyline clip-path="url(#clip690)" style="stroke:#000000; stroke-linecap:round; stroke-linejoin:round; stroke-width:4; stroke-opacity:1; fill:none" points="
  1134.82,1361.57 1134.82,1342.67 
  "/>
<polyline clip-path="url(#clip690)" style="stroke:#000000; stroke-linecap:round; stroke-linejoin:round; stroke-width:4; stroke-opacity:1; fill:none" points="
  1521.47,1361.57 1521.47,1342.67 
  "/>
<polyline clip-path="url(#clip690)" style="stroke:#000000; stroke-linecap:round; stroke-linejoin:round; stroke-width:4; stroke-opacity:1; fill:none" points="
  1908.11,1361.57 1908.11,1342.67 
  "/>
<polyline clip-path="url(#clip690)" style="stroke:#000000; stroke-linecap:round; stroke-linejoin:round; stroke-width:4; stroke-opacity:1; fill:none" points="
  2294.76,1361.57 2294.76,1342.67 
  "/>
<path clip-path="url(#clip690)" d="M257.185 1438.25 L273.257 1435.41 L273.94 1439.29 L252.329 1443.1 L251.646 1439.23 Q253.789 1436.05 257.499 1430.7 Q261.227 1425.31 262.157 1423.79 Q263.93 1420.91 264.495 1419.05 Q265.078 1417.16 264.785 1415.5 Q264.306 1412.78 262.09 1411.41 Q259.896 1410.03 256.842 1410.57 Q254.676 1410.95 252.392 1412.13 Q250.131 1413.31 247.665 1415.32 L246.845 1410.67 Q249.429 1409.06 251.745 1408.06 Q254.061 1407.07 256.067 1406.71 Q261.356 1405.78 264.968 1407.87 Q268.58 1409.96 269.36 1414.38 Q269.73 1416.48 269.266 1418.51 Q268.82 1420.52 267.196 1423.44 Q266.743 1424.2 264.247 1427.91 Q261.747 1431.59 257.185 1438.25 Z" fill="#000000" fill-rule="evenodd" fill-opacity="1" /><path clip-path="url(#clip690)" d="M287.987 1404.85 Q284.431 1405.47 283.249 1409.3 Q282.086 1413.1 283.324 1420.12 Q284.558 1427.12 286.955 1430.32 Q289.371 1433.49 292.927 1432.86 Q296.506 1432.23 297.669 1428.43 Q298.851 1424.6 297.617 1417.6 Q296.379 1410.58 293.963 1407.41 Q291.566 1404.22 287.987 1404.85 M287.344 1401.2 Q293.066 1400.19 296.875 1404.2 Q300.702 1408.17 302.222 1416.79 Q303.737 1425.39 301.505 1430.46 Q299.292 1435.5 293.57 1436.51 Q287.848 1437.52 284.02 1433.54 Q280.211 1429.53 278.696 1420.94 Q277.177 1412.32 279.39 1407.28 Q281.622 1402.21 287.344 1401.2 Z" fill="#000000" fill-rule="evenodd" fill-opacity="1" /><path clip-path="url(#clip690)" d="M313.424 1428.33 L320.947 1427.01 L316.368 1401.04 L308.474 1404.12 L307.734 1399.93 L315.583 1396.85 L320.188 1396.04 L325.506 1426.2 L333.029 1424.88 L333.712 1428.75 L314.107 1432.21 L313.424 1428.33 Z" fill="#000000" fill-rule="evenodd" fill-opacity="1" /><path clip-path="url(#clip690)" d="M350.011 1409.21 Q346.728 1409.79 345.146 1411.88 Q343.586 1413.96 344.129 1417.04 Q344.671 1420.12 346.85 1421.54 Q349.052 1422.97 352.334 1422.39 Q355.617 1421.81 357.2 1419.72 Q358.778 1417.61 358.24 1414.55 Q357.697 1411.48 355.495 1410.05 Q353.316 1408.63 350.011 1409.21 M345.06 1408.06 Q341.968 1407.86 339.946 1406.12 Q337.947 1404.38 337.433 1401.46 Q336.713 1397.38 339.19 1394.5 Q341.69 1391.62 346.751 1390.72 Q351.835 1389.83 355.148 1391.69 Q358.461 1393.55 359.181 1397.63 Q359.695 1400.55 358.389 1402.87 Q357.105 1405.19 354.293 1406.44 Q357.758 1406.62 360.002 1408.55 Q362.27 1410.48 362.844 1413.74 Q363.717 1418.69 361.151 1421.87 Q358.608 1425.04 352.977 1426.04 Q347.347 1427.03 343.849 1424.92 Q340.373 1422.8 339.501 1417.86 Q338.926 1414.6 340.397 1412.01 Q341.869 1409.42 345.06 1408.06 M342.091 1401.09 Q342.558 1403.73 344.46 1404.93 Q346.386 1406.11 349.372 1405.59 Q352.335 1405.06 353.738 1403.29 Q355.164 1401.51 354.698 1398.87 Q354.231 1396.22 352.283 1395.04 Q350.358 1393.85 347.394 1394.37 Q344.408 1394.9 343.005 1396.67 Q341.625 1398.44 342.091 1401.09 Z" fill="#000000" fill-rule="evenodd" fill-opacity="1" /><path clip-path="url(#clip690)" d="M576.125 1450.19 L592.197 1447.35 L592.88 1451.23 L571.269 1455.04 L570.586 1451.16 Q572.729 1447.99 576.439 1442.63 Q580.167 1437.25 581.097 1435.72 Q582.87 1432.85 583.435 1430.99 Q584.018 1429.1 583.725 1427.43 Q583.247 1424.72 581.03 1423.35 Q578.837 1421.97 575.782 1422.51 Q573.616 1422.89 571.333 1424.07 Q569.072 1425.25 566.605 1427.26 L565.785 1422.61 Q568.37 1421 570.685 1420 Q573.001 1419.01 575.007 1418.65 Q580.296 1417.72 583.908 1419.81 Q587.521 1421.9 588.3 1426.32 Q588.67 1428.42 588.206 1430.45 Q587.76 1432.46 586.136 1435.38 Q585.683 1436.14 583.187 1439.85 Q580.687 1443.53 576.125 1450.19 Z" fill="#000000" fill-rule="evenodd" fill-opacity="1" /><path clip-path="url(#clip690)" d="M606.927 1416.78 Q603.371 1417.41 602.189 1421.24 Q601.026 1425.04 602.264 1432.06 Q603.498 1439.06 605.895 1442.26 Q608.311 1445.43 611.867 1444.8 Q615.446 1444.17 616.609 1440.37 Q617.791 1436.54 616.557 1429.54 Q615.319 1422.52 612.903 1419.35 Q610.506 1416.15 606.927 1416.78 M606.284 1413.14 Q612.006 1412.13 615.815 1416.13 Q619.643 1420.11 621.162 1428.73 Q622.678 1437.32 620.446 1442.4 Q618.232 1447.44 612.51 1448.45 Q606.789 1449.46 602.961 1445.48 Q599.152 1441.47 597.636 1432.88 Q596.117 1424.26 598.33 1419.22 Q600.562 1414.15 606.284 1413.14 Z" fill="#000000" fill-rule="evenodd" fill-opacity="1" /><path clip-path="url(#clip690)" d="M632.364 1440.27 L639.887 1438.94 L635.308 1412.98 L627.414 1416.06 L626.674 1411.87 L634.523 1408.79 L639.128 1407.98 L644.446 1438.14 L651.969 1436.81 L652.652 1440.69 L633.047 1444.15 L632.364 1440.27 Z" fill="#000000" fill-rule="evenodd" fill-opacity="1" /><path clip-path="url(#clip690)" d="M661.965 1438.32 L661.226 1434.12 Q663.103 1434.64 664.957 1434.76 Q666.812 1434.88 668.522 1434.58 Q673.081 1433.77 674.936 1430.3 Q676.81 1426.79 676.05 1420.49 Q675.074 1422.68 673.23 1424.09 Q671.386 1425.49 668.924 1425.93 Q663.817 1426.83 660.288 1424.28 Q656.778 1421.7 655.834 1416.34 Q654.909 1411.1 657.451 1407.38 Q659.992 1403.67 665.144 1402.76 Q671.048 1401.72 674.949 1405.71 Q678.868 1409.67 680.387 1418.29 Q681.806 1426.33 678.824 1431.82 Q675.861 1437.28 669.41 1438.42 Q667.678 1438.72 665.839 1438.69 Q664.001 1438.66 661.965 1438.32 M668.585 1422.27 Q671.685 1421.73 673.112 1419.29 Q674.562 1416.85 673.911 1413.15 Q673.264 1409.48 671.066 1407.68 Q668.888 1405.86 665.787 1406.41 Q662.687 1406.95 661.241 1409.42 Q659.814 1411.85 660.461 1415.52 Q661.112 1419.22 663.287 1421.02 Q665.485 1422.82 668.585 1422.27 Z" fill="#000000" fill-rule="evenodd" fill-opacity="1" /><path clip-path="url(#clip690)" d="M706.91 1409.94 L700.277 1411.11 L699.704 1419.06 L706.384 1417.89 L706.91 1409.94 M701.204 1397.58 L700.501 1407.45 L707.158 1406.28 L707.883 1396.4 L711.531 1395.75 L710.851 1405.63 L717.963 1404.37 L718.582 1407.89 L710.581 1409.3 L710.054 1417.24 L717.303 1415.96 L717.918 1419.45 L709.78 1420.88 L709.073 1430.74 L705.426 1431.38 L706.11 1421.53 L699.43 1422.71 L698.746 1432.56 L695.076 1433.21 L695.783 1423.35 L688.602 1424.62 L687.987 1421.13 L696.011 1419.72 L696.584 1411.76 L689.243 1413.06 L688.624 1409.55 L696.854 1408.1 L697.511 1398.23 L701.204 1397.58 Z" fill="#000000" fill-rule="evenodd" fill-opacity="1" /><path clip-path="url(#clip690)" d="M730.89 1422.9 L738.413 1421.57 L733.834 1395.61 L725.94 1398.69 L725.2 1394.5 L733.049 1391.42 L737.654 1390.61 L742.972 1420.77 L750.495 1419.44 L751.178 1423.32 L731.573 1426.77 L730.89 1422.9 Z" fill="#000000" fill-rule="evenodd" fill-opacity="1" /><path clip-path="url(#clip690)" d="M963.136 1450.12 L979.207 1447.29 L979.89 1451.16 L958.279 1454.97 L957.596 1451.1 Q959.739 1447.92 963.449 1442.57 Q967.178 1437.19 968.107 1435.66 Q969.88 1432.79 970.445 1430.92 Q971.029 1429.03 970.735 1427.37 Q970.257 1424.66 968.04 1423.28 Q965.847 1421.91 962.792 1422.45 Q960.626 1422.83 958.343 1424.01 Q956.082 1425.18 953.615 1427.19 L952.795 1422.54 Q955.38 1420.93 957.696 1419.94 Q960.012 1418.94 962.018 1418.59 Q967.306 1417.66 970.919 1419.74 Q974.531 1421.83 975.31 1426.26 Q975.68 1428.35 975.216 1430.39 Q974.771 1432.39 973.146 1435.31 Q972.693 1436.07 970.197 1439.78 Q967.697 1443.47 963.136 1450.12 Z" fill="#000000" fill-rule="evenodd" fill-opacity="1" /><path clip-path="url(#clip690)" d="M993.937 1416.72 Q990.381 1417.35 989.199 1421.18 Q988.036 1424.98 989.274 1432 Q990.508 1439 992.905 1442.19 Q995.321 1445.36 998.877 1444.74 Q1002.46 1444.11 1003.62 1440.3 Q1004.8 1436.48 1003.57 1429.48 Q1002.33 1422.46 999.913 1419.29 Q997.516 1416.09 993.937 1416.72 M993.294 1413.07 Q999.016 1412.06 1002.83 1416.07 Q1006.65 1420.05 1008.17 1428.67 Q1009.69 1437.26 1007.46 1442.33 Q1005.24 1447.38 999.521 1448.38 Q993.799 1449.39 989.971 1445.41 Q986.162 1441.41 984.646 1432.81 Q983.127 1424.2 985.34 1419.15 Q987.572 1414.08 993.294 1413.07 Z" fill="#000000" fill-rule="evenodd" fill-opacity="1" /><path clip-path="url(#clip690)" d="M1019.37 1440.21 L1026.9 1438.88 L1022.32 1412.91 L1014.42 1416 L1013.68 1411.8 L1021.53 1408.73 L1026.14 1407.92 L1031.46 1438.08 L1038.98 1436.75 L1039.66 1440.62 L1020.06 1444.08 L1019.37 1440.21 Z" fill="#000000" fill-rule="evenodd" fill-opacity="1" /><path clip-path="url(#clip690)" d="M1048.98 1438.25 L1048.24 1434.06 Q1050.11 1434.57 1051.97 1434.69 Q1053.82 1434.81 1055.53 1434.51 Q1060.09 1433.71 1061.95 1430.23 Q1063.82 1426.73 1063.06 1420.42 Q1062.08 1422.61 1060.24 1424.02 Q1058.4 1425.43 1055.93 1425.86 Q1050.83 1426.76 1047.3 1424.21 Q1043.79 1421.63 1042.84 1416.28 Q1041.92 1411.03 1044.46 1407.32 Q1047 1403.6 1052.15 1402.69 Q1058.06 1401.65 1061.96 1405.64 Q1065.88 1409.61 1067.4 1418.22 Q1068.82 1426.27 1065.83 1431.76 Q1062.87 1437.21 1056.42 1438.35 Q1054.69 1438.66 1052.85 1438.63 Q1051.01 1438.6 1048.98 1438.25 M1055.6 1422.21 Q1058.7 1421.66 1060.12 1419.22 Q1061.57 1416.78 1060.92 1413.09 Q1060.27 1409.42 1058.08 1407.62 Q1055.9 1405.79 1052.8 1406.34 Q1049.7 1406.89 1048.25 1409.35 Q1046.82 1411.79 1047.47 1415.46 Q1048.12 1419.15 1050.3 1420.96 Q1052.49 1422.75 1055.6 1422.21 Z" fill="#000000" fill-rule="evenodd" fill-opacity="1" /><path clip-path="url(#clip690)" d="M1093.92 1409.88 L1087.29 1411.05 L1086.71 1419 L1093.39 1417.82 L1093.92 1409.88 M1088.21 1397.51 L1087.51 1407.39 L1094.17 1406.22 L1094.89 1396.33 L1098.54 1395.69 L1097.86 1405.56 L1104.97 1404.31 L1105.59 1407.82 L1097.59 1409.23 L1097.06 1417.18 L1104.31 1415.9 L1104.93 1419.39 L1096.79 1420.82 L1096.08 1430.68 L1092.44 1431.32 L1093.12 1421.47 L1086.44 1422.65 L1085.76 1432.5 L1082.09 1433.14 L1082.79 1423.29 L1075.61 1424.55 L1075 1421.07 L1083.02 1419.65 L1083.59 1411.7 L1076.25 1412.99 L1075.63 1409.48 L1083.86 1408.03 L1084.52 1398.16 L1088.21 1397.51 Z" fill="#000000" fill-rule="evenodd" fill-opacity="1" /><path clip-path="url(#clip690)" d="M1121.07 1422.27 L1137.14 1419.44 L1137.82 1423.32 L1116.21 1427.13 L1115.53 1423.25 Q1117.67 1420.08 1121.38 1414.72 Q1125.11 1409.34 1126.04 1407.81 Q1127.81 1404.94 1128.38 1403.07 Q1128.96 1401.19 1128.67 1399.52 Q1128.19 1396.81 1125.97 1395.44 Q1123.78 1394.06 1120.73 1394.6 Q1118.56 1394.98 1116.28 1396.16 Q1114.01 1397.33 1111.55 1399.34 L1110.73 1394.69 Q1113.31 1393.09 1115.63 1392.09 Q1117.94 1391.09 1119.95 1390.74 Q1125.24 1389.81 1128.85 1391.9 Q1132.46 1393.99 1133.24 1398.41 Q1133.61 1400.51 1133.15 1402.54 Q1132.7 1404.55 1131.08 1407.46 Q1130.63 1408.23 1128.13 1411.93 Q1125.63 1415.62 1121.07 1422.27 Z" fill="#000000" fill-rule="evenodd" fill-opacity="1" /><path clip-path="url(#clip690)" d="M1349.42 1450.19 L1365.49 1447.35 L1366.17 1451.23 L1344.56 1455.04 L1343.88 1451.16 Q1346.02 1447.99 1349.73 1442.63 Q1353.46 1437.25 1354.39 1435.72 Q1356.16 1432.85 1356.73 1430.99 Q1357.31 1429.1 1357.02 1427.43 Q1356.54 1424.72 1354.32 1423.35 Q1352.13 1421.97 1349.07 1422.51 Q1346.91 1422.89 1344.62 1424.07 Q1342.36 1425.25 1339.9 1427.26 L1339.08 1422.61 Q1341.66 1421 1343.98 1420 Q1346.29 1419.01 1348.3 1418.65 Q1353.59 1417.72 1357.2 1419.81 Q1360.81 1421.9 1361.59 1426.32 Q1361.96 1428.42 1361.5 1430.45 Q1361.05 1432.46 1359.43 1435.38 Q1358.97 1436.14 1356.48 1439.85 Q1353.98 1443.53 1349.42 1450.19 Z" fill="#000000" fill-rule="evenodd" fill-opacity="1" /><path clip-path="url(#clip690)" d="M1380.22 1416.78 Q1376.66 1417.41 1375.48 1421.24 Q1374.32 1425.04 1375.55 1432.06 Q1376.79 1439.06 1379.19 1442.26 Q1381.6 1445.43 1385.16 1444.8 Q1388.74 1444.17 1389.9 1440.37 Q1391.08 1436.54 1389.85 1429.54 Q1388.61 1422.52 1386.19 1419.35 Q1383.8 1416.15 1380.22 1416.78 M1379.57 1413.14 Q1385.3 1412.13 1389.11 1416.13 Q1392.93 1420.11 1394.45 1428.73 Q1395.97 1437.32 1393.74 1442.4 Q1391.52 1447.44 1385.8 1448.45 Q1380.08 1449.46 1376.25 1445.48 Q1372.44 1441.47 1370.93 1432.88 Q1369.41 1424.26 1371.62 1419.22 Q1373.85 1414.15 1379.57 1413.14 Z" fill="#000000" fill-rule="evenodd" fill-opacity="1" /><path clip-path="url(#clip690)" d="M1408.82 1439.71 L1424.89 1436.88 L1425.58 1440.75 L1403.97 1444.56 L1403.28 1440.69 Q1405.43 1437.51 1409.14 1432.16 Q1412.87 1426.78 1413.8 1425.25 Q1415.57 1422.37 1416.13 1420.51 Q1416.72 1418.62 1416.42 1416.96 Q1415.94 1414.25 1413.73 1412.87 Q1411.53 1411.5 1408.48 1412.04 Q1406.31 1412.42 1404.03 1413.6 Q1401.77 1414.77 1399.3 1416.78 L1398.48 1412.13 Q1401.07 1410.52 1403.38 1409.53 Q1405.7 1408.53 1407.71 1408.18 Q1412.99 1407.24 1416.61 1409.33 Q1420.22 1411.42 1421 1415.85 Q1421.37 1417.94 1420.9 1419.98 Q1420.46 1421.98 1418.83 1424.9 Q1418.38 1425.66 1415.88 1429.37 Q1413.38 1433.05 1408.82 1439.71 Z" fill="#000000" fill-rule="evenodd" fill-opacity="1" /><path clip-path="url(#clip690)" d="M1439.63 1406.31 Q1436.07 1406.94 1434.89 1410.76 Q1433.72 1414.57 1434.96 1421.59 Q1436.2 1428.59 1438.59 1431.78 Q1441.01 1434.95 1444.57 1434.33 Q1448.14 1433.7 1449.31 1429.89 Q1450.49 1426.07 1449.26 1419.07 Q1448.02 1412.05 1445.6 1408.88 Q1443.2 1405.68 1439.63 1406.31 M1438.98 1402.66 Q1444.7 1401.65 1448.51 1405.66 Q1452.34 1409.64 1453.86 1418.26 Q1455.38 1426.85 1453.14 1431.92 Q1450.93 1436.96 1445.21 1437.97 Q1439.49 1438.98 1435.66 1435 Q1431.85 1431 1430.33 1422.4 Q1428.82 1413.79 1431.03 1408.74 Q1433.26 1403.67 1438.98 1402.66 Z" fill="#000000" fill-rule="evenodd" fill-opacity="1" /><path clip-path="url(#clip690)" d="M1480.2 1409.94 L1473.57 1411.11 L1473 1419.06 L1479.67 1417.89 L1480.2 1409.94 M1474.49 1397.58 L1473.79 1407.45 L1480.45 1406.28 L1481.17 1396.4 L1484.82 1395.75 L1484.14 1405.63 L1491.25 1404.37 L1491.87 1407.89 L1483.87 1409.3 L1483.34 1417.24 L1490.59 1415.96 L1491.21 1419.45 L1483.07 1420.88 L1482.36 1430.74 L1478.72 1431.38 L1479.4 1421.53 L1472.72 1422.71 L1472.04 1432.56 L1468.37 1433.21 L1469.07 1423.35 L1461.89 1424.62 L1461.28 1421.13 L1469.3 1419.72 L1469.87 1411.76 L1462.53 1413.06 L1461.92 1409.55 L1470.14 1408.1 L1470.8 1398.23 L1474.49 1397.58 Z" fill="#000000" fill-rule="evenodd" fill-opacity="1" /><path clip-path="url(#clip690)" d="M1504.18 1422.9 L1511.7 1421.57 L1507.13 1395.61 L1499.23 1398.69 L1498.49 1394.5 L1506.34 1391.42 L1510.94 1390.61 L1516.26 1420.77 L1523.79 1419.44 L1524.47 1423.32 L1504.86 1426.77 L1504.18 1422.9 Z" fill="#000000" fill-rule="evenodd" fill-opacity="1" /><path clip-path="url(#clip690)" d="M1736.06 1450.19 L1752.13 1447.35 L1752.82 1451.23 L1731.21 1455.04 L1730.52 1451.16 Q1732.67 1447.99 1736.38 1442.63 Q1740.1 1437.25 1741.03 1435.72 Q1742.81 1432.85 1743.37 1430.99 Q1743.95 1429.1 1743.66 1427.43 Q1743.18 1424.72 1740.97 1423.35 Q1738.77 1421.97 1735.72 1422.51 Q1733.55 1422.89 1731.27 1424.07 Q1729.01 1425.25 1726.54 1427.26 L1725.72 1422.61 Q1728.31 1421 1730.62 1420 Q1732.94 1419.01 1734.94 1418.65 Q1740.23 1417.72 1743.84 1419.81 Q1747.46 1421.9 1748.24 1426.32 Q1748.61 1428.42 1748.14 1430.45 Q1747.7 1432.46 1746.07 1435.38 Q1745.62 1436.14 1743.12 1439.85 Q1740.62 1443.53 1736.06 1450.19 Z" fill="#000000" fill-rule="evenodd" fill-opacity="1" /><path clip-path="url(#clip690)" d="M1766.86 1416.78 Q1763.31 1417.41 1762.13 1421.24 Q1760.96 1425.04 1762.2 1432.06 Q1763.43 1439.06 1765.83 1442.26 Q1768.25 1445.43 1771.8 1444.8 Q1775.38 1444.17 1776.55 1440.37 Q1777.73 1436.54 1776.49 1429.54 Q1775.26 1422.52 1772.84 1419.35 Q1770.44 1416.15 1766.86 1416.78 M1766.22 1413.14 Q1771.94 1412.13 1775.75 1416.13 Q1779.58 1420.11 1781.1 1428.73 Q1782.61 1437.32 1780.38 1442.4 Q1778.17 1447.44 1772.45 1448.45 Q1766.72 1449.46 1762.9 1445.48 Q1759.09 1441.47 1757.57 1432.88 Q1756.05 1424.26 1758.27 1419.22 Q1760.5 1414.15 1766.22 1413.14 Z" fill="#000000" fill-rule="evenodd" fill-opacity="1" /><path clip-path="url(#clip690)" d="M1795.47 1439.71 L1811.54 1436.88 L1812.22 1440.75 L1790.61 1444.56 L1789.93 1440.69 Q1792.07 1437.51 1795.78 1432.16 Q1799.51 1426.78 1800.44 1425.25 Q1802.21 1422.37 1802.78 1420.51 Q1803.36 1418.62 1803.07 1416.96 Q1802.59 1414.25 1800.37 1412.87 Q1798.18 1411.5 1795.13 1412.04 Q1792.96 1412.42 1790.68 1413.6 Q1788.42 1414.77 1785.95 1416.78 L1785.13 1412.13 Q1787.71 1410.52 1790.03 1409.53 Q1792.34 1408.53 1794.35 1408.18 Q1799.64 1407.24 1803.25 1409.33 Q1806.86 1411.42 1807.64 1415.85 Q1808.01 1417.94 1807.55 1419.98 Q1807.1 1421.98 1805.48 1424.9 Q1805.03 1425.66 1802.53 1429.37 Q1800.03 1433.05 1795.47 1439.71 Z" fill="#000000" fill-rule="evenodd" fill-opacity="1" /><path clip-path="url(#clip690)" d="M1822 1435.03 L1829.53 1433.71 L1824.95 1407.74 L1817.05 1410.83 L1816.31 1406.63 L1824.16 1403.55 L1828.77 1402.74 L1834.09 1432.9 L1841.61 1431.58 L1842.29 1435.45 L1822.69 1438.91 L1822 1435.03 Z" fill="#000000" fill-rule="evenodd" fill-opacity="1" /><path clip-path="url(#clip690)" d="M1866.85 1409.94 L1860.21 1411.11 L1859.64 1419.06 L1866.32 1417.89 L1866.85 1409.94 M1861.14 1397.58 L1860.44 1407.45 L1867.09 1406.28 L1867.82 1396.4 L1871.47 1395.75 L1870.79 1405.63 L1877.9 1404.37 L1878.52 1407.89 L1870.52 1409.3 L1869.99 1417.24 L1877.24 1415.96 L1877.85 1419.45 L1869.72 1420.88 L1869.01 1430.74 L1865.36 1431.38 L1866.05 1421.53 L1859.37 1422.71 L1858.68 1432.56 L1855.01 1433.21 L1855.72 1423.35 L1848.54 1424.62 L1847.92 1421.13 L1855.95 1419.72 L1856.52 1411.76 L1849.18 1413.06 L1848.56 1409.55 L1856.79 1408.1 L1857.45 1398.23 L1861.14 1397.58 Z" fill="#000000" fill-rule="evenodd" fill-opacity="1" /><path clip-path="url(#clip690)" d="M1890.83 1422.9 L1898.35 1421.57 L1893.77 1395.61 L1885.88 1398.69 L1885.14 1394.5 L1892.99 1391.42 L1897.59 1390.61 L1902.91 1420.77 L1910.43 1419.44 L1911.11 1423.32 L1891.51 1426.77 L1890.83 1422.9 Z" fill="#000000" fill-rule="evenodd" fill-opacity="1" /><path clip-path="url(#clip690)" d="M2123.07 1450.12 L2139.14 1447.29 L2139.83 1451.16 L2118.22 1454.97 L2117.53 1451.1 Q2119.68 1447.92 2123.39 1442.57 Q2127.11 1437.19 2128.04 1435.66 Q2129.82 1432.79 2130.38 1430.92 Q2130.96 1429.03 2130.67 1427.37 Q2130.19 1424.66 2127.98 1423.28 Q2125.78 1421.91 2122.73 1422.45 Q2120.56 1422.83 2118.28 1424.01 Q2116.02 1425.18 2113.55 1427.19 L2112.73 1422.54 Q2115.32 1420.93 2117.63 1419.94 Q2119.95 1418.94 2121.95 1418.59 Q2127.24 1417.66 2130.85 1419.74 Q2134.47 1421.83 2135.25 1426.26 Q2135.62 1428.35 2135.15 1430.39 Q2134.71 1432.39 2133.08 1435.31 Q2132.63 1436.07 2130.13 1439.78 Q2127.63 1443.47 2123.07 1450.12 Z" fill="#000000" fill-rule="evenodd" fill-opacity="1" /><path clip-path="url(#clip690)" d="M2153.87 1416.72 Q2150.32 1417.35 2149.14 1421.18 Q2147.97 1424.98 2149.21 1432 Q2150.44 1439 2152.84 1442.19 Q2155.26 1445.36 2158.81 1444.74 Q2162.39 1444.11 2163.56 1440.3 Q2164.74 1436.48 2163.5 1429.48 Q2162.27 1422.46 2159.85 1419.29 Q2157.45 1416.09 2153.87 1416.72 M2153.23 1413.07 Q2158.95 1412.06 2162.76 1416.07 Q2166.59 1420.05 2168.11 1428.67 Q2169.62 1437.26 2167.39 1442.33 Q2165.18 1447.38 2159.46 1448.38 Q2153.73 1449.39 2149.91 1445.41 Q2146.1 1441.41 2144.58 1432.81 Q2143.06 1424.2 2145.28 1419.15 Q2147.51 1414.08 2153.23 1413.07 Z" fill="#000000" fill-rule="evenodd" fill-opacity="1" /><path clip-path="url(#clip690)" d="M2182.48 1439.65 L2198.55 1436.81 L2199.23 1440.69 L2177.62 1444.5 L2176.94 1440.62 Q2179.08 1437.45 2182.79 1432.09 Q2186.52 1426.71 2187.45 1425.18 Q2189.22 1422.31 2189.79 1420.45 Q2190.37 1418.56 2190.08 1416.89 Q2189.6 1414.18 2187.38 1412.81 Q2185.19 1411.43 2182.14 1411.97 Q2179.97 1412.35 2177.69 1413.53 Q2175.43 1414.71 2172.96 1416.72 L2172.14 1412.07 Q2174.72 1410.46 2177.04 1409.46 Q2179.36 1408.47 2181.36 1408.11 Q2186.65 1407.18 2190.26 1409.27 Q2193.87 1411.36 2194.65 1415.78 Q2195.02 1417.88 2194.56 1419.91 Q2194.11 1421.92 2192.49 1424.84 Q2192.04 1425.6 2189.54 1429.31 Q2187.04 1432.99 2182.48 1439.65 Z" fill="#000000" fill-rule="evenodd" fill-opacity="1" /><path clip-path="url(#clip690)" d="M2209.01 1434.97 L2216.54 1433.64 L2211.96 1407.68 L2204.06 1410.76 L2203.32 1406.57 L2211.17 1403.49 L2215.78 1402.68 L2221.1 1432.84 L2228.62 1431.51 L2229.3 1435.39 L2209.7 1438.84 L2209.01 1434.97 Z" fill="#000000" fill-rule="evenodd" fill-opacity="1" /><path clip-path="url(#clip690)" d="M2253.86 1409.88 L2247.22 1411.05 L2246.65 1419 L2253.33 1417.82 L2253.86 1409.88 M2248.15 1397.51 L2247.45 1407.39 L2254.1 1406.22 L2254.83 1396.33 L2258.48 1395.69 L2257.8 1405.56 L2264.91 1404.31 L2265.53 1407.82 L2257.53 1409.23 L2257 1417.18 L2264.25 1415.9 L2264.86 1419.39 L2256.73 1420.82 L2256.02 1430.68 L2252.37 1431.32 L2253.06 1421.47 L2246.38 1422.65 L2245.69 1432.5 L2242.02 1433.14 L2242.73 1423.29 L2235.55 1424.55 L2234.93 1421.07 L2242.96 1419.65 L2243.53 1411.7 L2236.19 1412.99 L2235.57 1409.48 L2243.8 1408.03 L2244.46 1398.16 L2248.15 1397.51 Z" fill="#000000" fill-rule="evenodd" fill-opacity="1" /><path clip-path="url(#clip690)" d="M2281 1422.27 L2297.08 1419.44 L2297.76 1423.32 L2276.15 1427.13 L2275.47 1423.25 Q2277.61 1420.08 2281.32 1414.72 Q2285.05 1409.34 2285.98 1407.81 Q2287.75 1404.94 2288.31 1403.07 Q2288.9 1401.19 2288.6 1399.52 Q2288.13 1396.81 2285.91 1395.44 Q2283.72 1394.06 2280.66 1394.6 Q2278.5 1394.98 2276.21 1396.16 Q2273.95 1397.33 2271.48 1399.34 L2270.66 1394.69 Q2273.25 1393.09 2275.57 1392.09 Q2277.88 1391.09 2279.89 1390.74 Q2285.18 1389.81 2288.79 1391.9 Q2292.4 1393.99 2293.18 1398.41 Q2293.55 1400.51 2293.09 1402.54 Q2292.64 1404.55 2291.02 1407.46 Q2290.56 1408.23 2288.07 1411.93 Q2285.57 1415.62 2281 1422.27 Z" fill="#000000" fill-rule="evenodd" fill-opacity="1" /><polyline clip-path="url(#clip692)" style="stroke:#000000; stroke-linecap:round; stroke-linejoin:round; stroke-width:2; stroke-opacity:0.1; fill:none" points="
  303.535,1268.09 2352.76,1268.09 
  "/>
<polyline clip-path="url(#clip692)" style="stroke:#000000; stroke-linecap:round; stroke-linejoin:round; stroke-width:2; stroke-opacity:0.1; fill:none" points="
  303.535,1012.26 2352.76,1012.26 
  "/>
<polyline clip-path="url(#clip692)" style="stroke:#000000; stroke-linecap:round; stroke-linejoin:round; stroke-width:2; stroke-opacity:0.1; fill:none" points="
  303.535,756.427 2352.76,756.427 
  "/>
<polyline clip-path="url(#clip692)" style="stroke:#000000; stroke-linecap:round; stroke-linejoin:round; stroke-width:2; stroke-opacity:0.1; fill:none" points="
  303.535,500.595 2352.76,500.595 
  "/>
<polyline clip-path="url(#clip692)" style="stroke:#000000; stroke-linecap:round; stroke-linejoin:round; stroke-width:2; stroke-opacity:0.1; fill:none" points="
  303.535,244.763 2352.76,244.763 
  "/>
<polyline clip-path="url(#clip690)" style="stroke:#000000; stroke-linecap:round; stroke-linejoin:round; stroke-width:4; stroke-opacity:1; fill:none" points="
  303.535,1361.57 303.535,47.2441 
  "/>
<polyline clip-path="url(#clip690)" style="stroke:#000000; stroke-linecap:round; stroke-linejoin:round; stroke-width:4; stroke-opacity:1; fill:none" points="
  303.535,1268.09 322.433,1268.09 
  "/>
<polyline clip-path="url(#clip690)" style="stroke:#000000; stroke-linecap:round; stroke-linejoin:round; stroke-width:4; stroke-opacity:1; fill:none" points="
  303.535,1012.26 322.433,1012.26 
  "/>
<polyline clip-path="url(#clip690)" style="stroke:#000000; stroke-linecap:round; stroke-linejoin:round; stroke-width:4; stroke-opacity:1; fill:none" points="
  303.535,756.427 322.433,756.427 
  "/>
<polyline clip-path="url(#clip690)" style="stroke:#000000; stroke-linecap:round; stroke-linejoin:round; stroke-width:4; stroke-opacity:1; fill:none" points="
  303.535,500.595 322.433,500.595 
  "/>
<polyline clip-path="url(#clip690)" style="stroke:#000000; stroke-linecap:round; stroke-linejoin:round; stroke-width:4; stroke-opacity:1; fill:none" points="
  303.535,244.763 322.433,244.763 
  "/>
<path clip-path="url(#clip690)" d="M199.434 1266.74 Q202.79 1267.45 204.665 1269.72 Q206.563 1271.99 206.563 1275.33 Q206.563 1280.44 203.045 1283.24 Q199.526 1286.04 193.045 1286.04 Q190.869 1286.04 188.554 1285.6 Q186.262 1285.19 183.809 1284.33 L183.809 1279.82 Q185.753 1280.95 188.068 1281.53 Q190.383 1282.11 192.906 1282.11 Q197.304 1282.11 199.596 1280.37 Q201.911 1278.64 201.911 1275.33 Q201.911 1272.27 199.758 1270.56 Q197.628 1268.82 193.809 1268.82 L189.781 1268.82 L189.781 1264.98 L193.994 1264.98 Q197.443 1264.98 199.272 1263.61 Q201.1 1262.22 201.1 1259.63 Q201.1 1256.97 199.202 1255.56 Q197.327 1254.12 193.809 1254.12 Q191.887 1254.12 189.688 1254.54 Q187.489 1254.95 184.85 1255.83 L184.85 1251.67 Q187.512 1250.93 189.827 1250.56 Q192.165 1250.19 194.225 1250.19 Q199.549 1250.19 202.651 1252.62 Q205.753 1255.02 205.753 1259.14 Q205.753 1262.02 204.11 1264.01 Q202.466 1265.97 199.434 1266.74 Z" fill="#000000" fill-rule="evenodd" fill-opacity="1" /><path clip-path="url(#clip690)" d="M225.429 1253.89 Q221.818 1253.89 219.989 1257.45 Q218.184 1261 218.184 1268.13 Q218.184 1275.23 219.989 1278.8 Q221.818 1282.34 225.429 1282.34 Q229.063 1282.34 230.869 1278.8 Q232.697 1275.23 232.697 1268.13 Q232.697 1261 230.869 1257.45 Q229.063 1253.89 225.429 1253.89 M225.429 1250.19 Q231.239 1250.19 234.295 1254.79 Q237.373 1259.38 237.373 1268.13 Q237.373 1276.85 234.295 1281.46 Q231.239 1286.04 225.429 1286.04 Q219.619 1286.04 216.54 1281.46 Q213.485 1276.85 213.485 1268.13 Q213.485 1259.38 216.54 1254.79 Q219.619 1250.19 225.429 1250.19 Z" fill="#000000" fill-rule="evenodd" fill-opacity="1" /><path clip-path="url(#clip690)" d="M255.591 1253.89 Q251.98 1253.89 250.151 1257.45 Q248.345 1261 248.345 1268.13 Q248.345 1275.23 250.151 1278.8 Q251.98 1282.34 255.591 1282.34 Q259.225 1282.34 261.031 1278.8 Q262.859 1275.23 262.859 1268.13 Q262.859 1261 261.031 1257.45 Q259.225 1253.89 255.591 1253.89 M255.591 1250.19 Q261.401 1250.19 264.456 1254.79 Q267.535 1259.38 267.535 1268.13 Q267.535 1276.85 264.456 1281.46 Q261.401 1286.04 255.591 1286.04 Q249.781 1286.04 246.702 1281.46 Q243.646 1276.85 243.646 1268.13 Q243.646 1259.38 246.702 1254.79 Q249.781 1250.19 255.591 1250.19 Z" fill="#000000" fill-rule="evenodd" fill-opacity="1" /><path clip-path="url(#clip690)" d="M195.846 1010.4 Q192.698 1010.4 190.846 1012.55 Q189.017 1014.7 189.017 1018.45 Q189.017 1022.18 190.846 1024.35 Q192.698 1026.51 195.846 1026.51 Q198.994 1026.51 200.823 1024.35 Q202.674 1022.18 202.674 1018.45 Q202.674 1014.7 200.823 1012.55 Q198.994 1010.4 195.846 1010.4 M205.128 995.743 L205.128 1000 Q203.369 999.169 201.563 998.729 Q199.781 998.29 198.022 998.29 Q193.392 998.29 190.938 1001.41 Q188.508 1004.54 188.161 1010.86 Q189.526 1008.85 191.586 1007.78 Q193.647 1006.69 196.124 1006.69 Q201.332 1006.69 204.341 1009.86 Q207.373 1013.01 207.373 1018.45 Q207.373 1023.78 204.225 1026.99 Q201.077 1030.21 195.846 1030.21 Q189.85 1030.21 186.679 1025.63 Q183.508 1021.02 183.508 1012.29 Q183.508 1004.1 187.397 999.239 Q191.286 994.354 197.836 994.354 Q199.596 994.354 201.378 994.702 Q203.184 995.049 205.128 995.743 Z" fill="#000000" fill-rule="evenodd" fill-opacity="1" /><path clip-path="url(#clip690)" d="M225.429 998.058 Q221.818 998.058 219.989 1001.62 Q218.184 1005.16 218.184 1012.29 Q218.184 1019.4 219.989 1022.97 Q221.818 1026.51 225.429 1026.51 Q229.063 1026.51 230.869 1022.97 Q232.697 1019.4 232.697 1012.29 Q232.697 1005.16 230.869 1001.62 Q229.063 998.058 225.429 998.058 M225.429 994.354 Q231.239 994.354 234.295 998.961 Q237.373 1003.54 237.373 1012.29 Q237.373 1021.02 234.295 1025.63 Q231.239 1030.21 225.429 1030.21 Q219.619 1030.21 216.54 1025.63 Q213.485 1021.02 213.485 1012.29 Q213.485 1003.54 216.54 998.961 Q219.619 994.354 225.429 994.354 Z" fill="#000000" fill-rule="evenodd" fill-opacity="1" /><path clip-path="url(#clip690)" d="M255.591 998.058 Q251.98 998.058 250.151 1001.62 Q248.345 1005.16 248.345 1012.29 Q248.345 1019.4 250.151 1022.97 Q251.98 1026.51 255.591 1026.51 Q259.225 1026.51 261.031 1022.97 Q262.859 1019.4 262.859 1012.29 Q262.859 1005.16 261.031 1001.62 Q259.225 998.058 255.591 998.058 M255.591 994.354 Q261.401 994.354 264.456 998.961 Q267.535 1003.54 267.535 1012.29 Q267.535 1021.02 264.456 1025.63 Q261.401 1030.21 255.591 1030.21 Q249.781 1030.21 246.702 1025.63 Q243.646 1021.02 243.646 1012.29 Q243.646 1003.54 246.702 998.961 Q249.781 994.354 255.591 994.354 Z" fill="#000000" fill-rule="evenodd" fill-opacity="1" /><path clip-path="url(#clip690)" d="M185.406 772.99 L185.406 768.731 Q187.165 769.564 188.971 770.004 Q190.776 770.444 192.512 770.444 Q197.142 770.444 199.573 767.342 Q202.026 764.217 202.373 757.874 Q201.031 759.865 198.971 760.93 Q196.911 761.995 194.411 761.995 Q189.225 761.995 186.193 758.87 Q183.184 755.721 183.184 750.282 Q183.184 744.958 186.332 741.74 Q189.48 738.522 194.711 738.522 Q200.707 738.522 203.855 743.129 Q207.026 747.712 207.026 756.462 Q207.026 764.633 203.137 769.518 Q199.272 774.379 192.721 774.379 Q190.961 774.379 189.156 774.032 Q187.35 773.684 185.406 772.99 M194.711 758.337 Q197.86 758.337 199.688 756.184 Q201.54 754.032 201.54 750.282 Q201.54 746.555 199.688 744.402 Q197.86 742.226 194.711 742.226 Q191.563 742.226 189.712 744.402 Q187.883 746.555 187.883 750.282 Q187.883 754.032 189.712 756.184 Q191.563 758.337 194.711 758.337 Z" fill="#000000" fill-rule="evenodd" fill-opacity="1" /><path clip-path="url(#clip690)" d="M225.429 742.226 Q221.818 742.226 219.989 745.791 Q218.184 749.333 218.184 756.462 Q218.184 763.569 219.989 767.133 Q221.818 770.675 225.429 770.675 Q229.063 770.675 230.869 767.133 Q232.697 763.569 232.697 756.462 Q232.697 749.333 230.869 745.791 Q229.063 742.226 225.429 742.226 M225.429 738.522 Q231.239 738.522 234.295 743.129 Q237.373 747.712 237.373 756.462 Q237.373 765.189 234.295 769.795 Q231.239 774.379 225.429 774.379 Q219.619 774.379 216.54 769.795 Q213.485 765.189 213.485 756.462 Q213.485 747.712 216.54 743.129 Q219.619 738.522 225.429 738.522 Z" fill="#000000" fill-rule="evenodd" fill-opacity="1" /><path clip-path="url(#clip690)" d="M255.591 742.226 Q251.98 742.226 250.151 745.791 Q248.345 749.333 248.345 756.462 Q248.345 763.569 250.151 767.133 Q251.98 770.675 255.591 770.675 Q259.225 770.675 261.031 767.133 Q262.859 763.569 262.859 756.462 Q262.859 749.333 261.031 745.791 Q259.225 742.226 255.591 742.226 M255.591 738.522 Q261.401 738.522 264.456 743.129 Q267.535 747.712 267.535 756.462 Q267.535 765.189 264.456 769.795 Q261.401 774.379 255.591 774.379 Q249.781 774.379 246.702 769.795 Q243.646 765.189 243.646 756.462 Q243.646 747.712 246.702 743.129 Q249.781 738.522 255.591 738.522 Z" fill="#000000" fill-rule="evenodd" fill-opacity="1" /><path clip-path="url(#clip690)" d="M155.915 513.94 L163.554 513.94 L163.554 487.575 L155.244 489.241 L155.244 484.982 L163.508 483.315 L168.184 483.315 L168.184 513.94 L175.823 513.94 L175.823 517.875 L155.915 517.875 L155.915 513.94 Z" fill="#000000" fill-rule="evenodd" fill-opacity="1" /><path clip-path="url(#clip690)" d="M189.295 513.94 L205.614 513.94 L205.614 517.875 L183.67 517.875 L183.67 513.94 Q186.332 511.186 190.915 506.556 Q195.522 501.903 196.702 500.561 Q198.948 498.038 199.827 496.301 Q200.73 494.542 200.73 492.852 Q200.73 490.098 198.786 488.362 Q196.864 486.626 193.762 486.626 Q191.563 486.626 189.11 487.389 Q186.679 488.153 183.901 489.704 L183.901 484.982 Q186.725 483.848 189.179 483.269 Q191.633 482.69 193.67 482.69 Q199.04 482.69 202.235 485.376 Q205.429 488.061 205.429 492.552 Q205.429 494.681 204.619 496.602 Q203.832 498.501 201.725 501.093 Q201.147 501.764 198.045 504.982 Q194.943 508.176 189.295 513.94 Z" fill="#000000" fill-rule="evenodd" fill-opacity="1" /><path clip-path="url(#clip690)" d="M225.429 486.394 Q221.818 486.394 219.989 489.959 Q218.184 493.501 218.184 500.63 Q218.184 507.737 219.989 511.301 Q221.818 514.843 225.429 514.843 Q229.063 514.843 230.869 511.301 Q232.697 507.737 232.697 500.63 Q232.697 493.501 230.869 489.959 Q229.063 486.394 225.429 486.394 M225.429 482.69 Q231.239 482.69 234.295 487.297 Q237.373 491.88 237.373 500.63 Q237.373 509.357 234.295 513.963 Q231.239 518.547 225.429 518.547 Q219.619 518.547 216.54 513.963 Q213.485 509.357 213.485 500.63 Q213.485 491.88 216.54 487.297 Q219.619 482.69 225.429 482.69 Z" fill="#000000" fill-rule="evenodd" fill-opacity="1" /><path clip-path="url(#clip690)" d="M255.591 486.394 Q251.98 486.394 250.151 489.959 Q248.345 493.501 248.345 500.63 Q248.345 507.737 250.151 511.301 Q251.98 514.843 255.591 514.843 Q259.225 514.843 261.031 511.301 Q262.859 507.737 262.859 500.63 Q262.859 493.501 261.031 489.959 Q259.225 486.394 255.591 486.394 M255.591 482.69 Q261.401 482.69 264.456 487.297 Q267.535 491.88 267.535 500.63 Q267.535 509.357 264.456 513.963 Q261.401 518.547 255.591 518.547 Q249.781 518.547 246.702 513.963 Q243.646 509.357 243.646 500.63 Q243.646 491.88 246.702 487.297 Q249.781 482.69 255.591 482.69 Z" fill="#000000" fill-rule="evenodd" fill-opacity="1" /><path clip-path="url(#clip690)" d="M155.915 258.108 L163.554 258.108 L163.554 231.743 L155.244 233.409 L155.244 229.15 L163.508 227.483 L168.184 227.483 L168.184 258.108 L175.823 258.108 L175.823 262.043 L155.915 262.043 L155.915 258.108 Z" fill="#000000" fill-rule="evenodd" fill-opacity="1" /><path clip-path="url(#clip690)" d="M185.313 227.483 L203.67 227.483 L203.67 231.419 L189.596 231.419 L189.596 239.891 Q190.614 239.544 191.633 239.382 Q192.651 239.196 193.67 239.196 Q199.457 239.196 202.836 242.368 Q206.216 245.539 206.216 250.956 Q206.216 256.534 202.744 259.636 Q199.272 262.715 192.952 262.715 Q190.776 262.715 188.508 262.344 Q186.262 261.974 183.855 261.233 L183.855 256.534 Q185.938 257.668 188.161 258.224 Q190.383 258.78 192.86 258.78 Q196.864 258.78 199.202 256.673 Q201.54 254.567 201.54 250.956 Q201.54 247.344 199.202 245.238 Q196.864 243.132 192.86 243.132 Q190.985 243.132 189.11 243.548 Q187.258 243.965 185.313 244.844 L185.313 227.483 Z" fill="#000000" fill-rule="evenodd" fill-opacity="1" /><path clip-path="url(#clip690)" d="M225.429 230.562 Q221.818 230.562 219.989 234.127 Q218.184 237.669 218.184 244.798 Q218.184 251.905 219.989 255.469 Q221.818 259.011 225.429 259.011 Q229.063 259.011 230.869 255.469 Q232.697 251.905 232.697 244.798 Q232.697 237.669 230.869 234.127 Q229.063 230.562 225.429 230.562 M225.429 226.858 Q231.239 226.858 234.295 231.465 Q237.373 236.048 237.373 244.798 Q237.373 253.525 234.295 258.131 Q231.239 262.715 225.429 262.715 Q219.619 262.715 216.54 258.131 Q213.485 253.525 213.485 244.798 Q213.485 236.048 216.54 231.465 Q219.619 226.858 225.429 226.858 Z" fill="#000000" fill-rule="evenodd" fill-opacity="1" /><path clip-path="url(#clip690)" d="M255.591 230.562 Q251.98 230.562 250.151 234.127 Q248.345 237.669 248.345 244.798 Q248.345 251.905 250.151 255.469 Q251.98 259.011 255.591 259.011 Q259.225 259.011 261.031 255.469 Q262.859 251.905 262.859 244.798 Q262.859 237.669 261.031 234.127 Q259.225 230.562 255.591 230.562 M255.591 226.858 Q261.401 226.858 264.456 231.465 Q267.535 236.048 267.535 244.798 Q267.535 253.525 264.456 258.131 Q261.401 262.715 255.591 262.715 Q249.781 262.715 246.702 258.131 Q243.646 253.525 243.646 244.798 Q243.646 236.048 246.702 231.465 Q249.781 226.858 255.591 226.858 Z" fill="#000000" fill-rule="evenodd" fill-opacity="1" /><polyline clip-path="url(#clip692)" style="stroke:#009af9; stroke-linecap:round; stroke-linejoin:round; stroke-width:4; stroke-opacity:1; fill:none" points="
  361.532,1236.54 748.177,1193.9 1134.82,930.393 1521.47,635.334 1908.11,84.4421 2294.76,526.179 
  "/>
<polyline clip-path="url(#clip692)" style="stroke:#e26f46; stroke-linecap:round; stroke-linejoin:round; stroke-width:4; stroke-opacity:1; fill:none" points="
  361.532,1324.37 748.177,1314.99 1134.82,1121.41 1521.47,919.307 1908.11,394.852 2294.76,780.305 
  "/>
<path clip-path="url(#clip690)" d="
M1803.82 246.575 L2284.45 246.575 L2284.45 91.055 L1803.82 91.055  Z
  " fill="#ffffff" fill-rule="evenodd" fill-opacity="1"/>
<polyline clip-path="url(#clip690)" style="stroke:#000000; stroke-linecap:round; stroke-linejoin:round; stroke-width:4; stroke-opacity:1; fill:none" points="
  1803.82,246.575 2284.45,246.575 2284.45,91.055 1803.82,91.055 1803.82,246.575 
  "/>
<polyline clip-path="url(#clip690)" style="stroke:#009af9; stroke-linecap:round; stroke-linejoin:round; stroke-width:4; stroke-opacity:1; fill:none" points="
  1826.59,142.895 1963.2,142.895 
  "/>
<path clip-path="url(#clip690)" d="M2010 146.147 L2010 148.231 L1990.42 148.231 Q1990.69 152.629 1993.06 154.944 Q1995.44 157.235 1999.68 157.235 Q2002.13 157.235 2004.42 156.633 Q2006.74 156.032 2009 154.828 L2009 158.856 Q2006.71 159.828 2004.31 160.337 Q2001.9 160.846 1999.42 160.846 Q1993.22 160.846 1989.58 157.235 Q1985.97 153.624 1985.97 147.467 Q1985.97 141.101 1989.4 137.374 Q1992.85 133.624 1998.68 133.624 Q2003.91 133.624 2006.94 137.004 Q2010 140.36 2010 146.147 M2005.74 144.897 Q2005.69 141.402 2003.77 139.319 Q2001.87 137.235 1998.73 137.235 Q1995.16 137.235 1993.01 139.249 Q1990.88 141.263 1990.56 144.92 L2005.74 144.897 Z" fill="#000000" fill-rule="evenodd" fill-opacity="1" /><path clip-path="url(#clip690)" d="M2037.71 134.249 L2028.33 146.865 L2038.19 160.175 L2033.17 160.175 L2025.62 149.99 L2018.08 160.175 L2013.06 160.175 L2023.12 146.61 L2013.91 134.249 L2018.93 134.249 L2025.81 143.485 L2032.68 134.249 L2037.71 134.249 Z" fill="#000000" fill-rule="evenodd" fill-opacity="1" /><path clip-path="url(#clip690)" d="M2055.99 147.143 Q2050.83 147.143 2048.84 148.323 Q2046.85 149.504 2046.85 152.351 Q2046.85 154.62 2048.33 155.962 Q2049.84 157.282 2052.41 157.282 Q2055.95 157.282 2058.08 154.782 Q2060.23 152.258 2060.23 148.092 L2060.23 147.143 L2055.99 147.143 M2064.49 145.383 L2064.49 160.175 L2060.23 160.175 L2060.23 156.24 Q2058.77 158.601 2056.6 159.735 Q2054.42 160.846 2051.27 160.846 Q2047.29 160.846 2044.93 158.624 Q2042.59 156.379 2042.59 152.629 Q2042.59 148.254 2045.51 146.032 Q2048.45 143.809 2054.26 143.809 L2060.23 143.809 L2060.23 143.393 Q2060.23 140.453 2058.29 138.856 Q2056.36 137.235 2052.87 137.235 Q2050.65 137.235 2048.54 137.768 Q2046.43 138.3 2044.49 139.365 L2044.49 135.43 Q2046.83 134.527 2049.03 134.087 Q2051.23 133.624 2053.31 133.624 Q2058.93 133.624 2061.71 136.541 Q2064.49 139.458 2064.49 145.383 Z" fill="#000000" fill-rule="evenodd" fill-opacity="1" /><path clip-path="url(#clip690)" d="M2093.45 139.226 Q2095.05 136.356 2097.27 134.99 Q2099.49 133.624 2102.5 133.624 Q2106.55 133.624 2108.75 136.471 Q2110.95 139.296 2110.95 144.527 L2110.95 160.175 L2106.67 160.175 L2106.67 144.666 Q2106.67 140.939 2105.35 139.133 Q2104.03 137.328 2101.32 137.328 Q2098.01 137.328 2096.09 139.527 Q2094.17 141.726 2094.17 145.522 L2094.17 160.175 L2089.88 160.175 L2089.88 144.666 Q2089.88 140.916 2088.56 139.133 Q2087.24 137.328 2084.49 137.328 Q2081.23 137.328 2079.3 139.55 Q2077.38 141.749 2077.38 145.522 L2077.38 160.175 L2073.1 160.175 L2073.1 134.249 L2077.38 134.249 L2077.38 138.277 Q2078.84 135.893 2080.88 134.759 Q2082.92 133.624 2085.72 133.624 Q2088.54 133.624 2090.51 135.059 Q2092.5 136.495 2093.45 139.226 Z" fill="#000000" fill-rule="evenodd" fill-opacity="1" /><path clip-path="url(#clip690)" d="M2119.44 134.249 L2123.7 134.249 L2123.7 160.175 L2119.44 160.175 L2119.44 134.249 M2119.44 124.157 L2123.7 124.157 L2123.7 129.55 L2119.44 129.55 L2119.44 124.157 Z" fill="#000000" fill-rule="evenodd" fill-opacity="1" /><path clip-path="url(#clip690)" d="M2154.17 144.527 L2154.17 160.175 L2149.91 160.175 L2149.91 144.666 Q2149.91 140.985 2148.47 139.157 Q2147.04 137.328 2144.17 137.328 Q2140.72 137.328 2138.73 139.527 Q2136.73 141.726 2136.73 145.522 L2136.73 160.175 L2132.45 160.175 L2132.45 134.249 L2136.73 134.249 L2136.73 138.277 Q2138.26 135.939 2140.32 134.782 Q2142.41 133.624 2145.11 133.624 Q2149.58 133.624 2151.87 136.402 Q2154.17 139.157 2154.17 144.527 Z" fill="#000000" fill-rule="evenodd" fill-opacity="1" /><path clip-path="url(#clip690)" d="M2184.84 146.147 L2184.84 148.231 L2165.25 148.231 Q2165.53 152.629 2167.89 154.944 Q2170.28 157.235 2174.51 157.235 Q2176.97 157.235 2179.26 156.633 Q2181.57 156.032 2183.84 154.828 L2183.84 158.856 Q2181.55 159.828 2179.14 160.337 Q2176.73 160.846 2174.26 160.846 Q2168.05 160.846 2164.42 157.235 Q2160.81 153.624 2160.81 147.467 Q2160.81 141.101 2164.23 137.374 Q2167.68 133.624 2173.52 133.624 Q2178.75 133.624 2181.78 137.004 Q2184.84 140.36 2184.84 146.147 M2180.58 144.897 Q2180.53 141.402 2178.61 139.319 Q2176.71 137.235 2173.56 137.235 Q2170 137.235 2167.85 139.249 Q2165.72 141.263 2165.39 144.92 L2180.58 144.897 Z" fill="#000000" fill-rule="evenodd" fill-opacity="1" /><path clip-path="url(#clip690)" d="M2214 146.147 L2214 148.231 L2194.42 148.231 Q2194.7 152.629 2197.06 154.944 Q2199.44 157.235 2203.68 157.235 Q2206.13 157.235 2208.42 156.633 Q2210.74 156.032 2213.01 154.828 L2213.01 158.856 Q2210.72 159.828 2208.31 160.337 Q2205.9 160.846 2203.42 160.846 Q2197.22 160.846 2193.59 157.235 Q2189.98 153.624 2189.98 147.467 Q2189.98 141.101 2193.4 137.374 Q2196.85 133.624 2202.68 133.624 Q2207.92 133.624 2210.95 137.004 Q2214 140.36 2214 146.147 M2209.74 144.897 Q2209.7 141.402 2207.78 139.319 Q2205.88 137.235 2202.73 137.235 Q2199.17 137.235 2197.01 139.249 Q2194.88 141.263 2194.56 144.92 L2209.74 144.897 Z" fill="#000000" fill-rule="evenodd" fill-opacity="1" /><path clip-path="url(#clip690)" d="M2237.52 135.013 L2237.52 139.041 Q2235.72 138.115 2233.77 137.652 Q2231.83 137.189 2229.74 137.189 Q2226.57 137.189 2224.98 138.161 Q2223.4 139.133 2223.4 141.078 Q2223.4 142.559 2224.54 143.416 Q2225.67 144.249 2229.1 145.013 L2230.55 145.337 Q2235.09 146.309 2236.99 148.092 Q2238.91 149.851 2238.91 153.022 Q2238.91 156.633 2236.04 158.74 Q2233.19 160.846 2228.19 160.846 Q2226.11 160.846 2223.84 160.43 Q2221.6 160.036 2219.1 159.226 L2219.1 154.828 Q2221.46 156.055 2223.75 156.68 Q2226.04 157.282 2228.29 157.282 Q2231.29 157.282 2232.91 156.263 Q2234.54 155.221 2234.54 153.346 Q2234.54 151.61 2233.35 150.684 Q2232.2 149.758 2228.24 148.902 L2226.76 148.555 Q2222.8 147.721 2221.04 146.008 Q2219.28 144.272 2219.28 141.263 Q2219.28 137.606 2221.87 135.615 Q2224.47 133.624 2229.23 133.624 Q2231.6 133.624 2233.68 133.971 Q2235.76 134.319 2237.52 135.013 Z" fill="#000000" fill-rule="evenodd" fill-opacity="1" /><polyline clip-path="url(#clip690)" style="stroke:#e26f46; stroke-linecap:round; stroke-linejoin:round; stroke-width:4; stroke-opacity:1; fill:none" points="
  1826.59,194.735 1963.2,194.735 
  "/>
<path clip-path="url(#clip690)" d="M1990.25 208.126 L1990.25 221.876 L1985.97 221.876 L1985.97 186.089 L1990.25 186.089 L1990.25 190.024 Q1991.6 187.71 1993.63 186.599 Q1995.69 185.464 1998.54 185.464 Q2003.26 185.464 2006.2 189.214 Q2009.17 192.964 2009.17 199.075 Q2009.17 205.186 2006.2 208.936 Q2003.26 212.686 1998.54 212.686 Q1995.69 212.686 1993.63 211.575 Q1991.6 210.441 1990.25 208.126 M2004.74 199.075 Q2004.74 194.376 2002.8 191.714 Q2000.88 189.029 1997.5 189.029 Q1994.12 189.029 1992.18 191.714 Q1990.25 194.376 1990.25 199.075 Q1990.25 203.774 1992.18 206.46 Q1994.12 209.122 1997.5 209.122 Q2000.88 209.122 2002.8 206.46 Q2004.74 203.774 2004.74 199.075 Z" fill="#000000" fill-rule="evenodd" fill-opacity="1" /><path clip-path="url(#clip690)" d="M2028.01 198.983 Q2022.85 198.983 2020.86 200.163 Q2018.87 201.344 2018.87 204.191 Q2018.87 206.46 2020.35 207.802 Q2021.85 209.122 2024.42 209.122 Q2027.96 209.122 2030.09 206.622 Q2032.24 204.098 2032.24 199.932 L2032.24 198.983 L2028.01 198.983 M2036.5 197.223 L2036.5 212.015 L2032.24 212.015 L2032.24 208.08 Q2030.79 210.441 2028.61 211.575 Q2026.43 212.686 2023.29 212.686 Q2019.31 212.686 2016.94 210.464 Q2014.61 208.219 2014.61 204.469 Q2014.61 200.094 2017.52 197.872 Q2020.46 195.649 2026.27 195.649 L2032.24 195.649 L2032.24 195.233 Q2032.24 192.293 2030.3 190.696 Q2028.38 189.075 2024.88 189.075 Q2022.66 189.075 2020.55 189.608 Q2018.45 190.14 2016.5 191.205 L2016.5 187.27 Q2018.84 186.367 2021.04 185.927 Q2023.24 185.464 2025.32 185.464 Q2030.95 185.464 2033.73 188.381 Q2036.5 191.298 2036.5 197.223 Z" fill="#000000" fill-rule="evenodd" fill-opacity="1" /><path clip-path="url(#clip690)" d="M2061.8 186.853 L2061.8 190.881 Q2060 189.955 2058.05 189.492 Q2056.11 189.029 2054.03 189.029 Q2050.86 189.029 2049.26 190.001 Q2047.68 190.973 2047.68 192.918 Q2047.68 194.399 2048.82 195.256 Q2049.95 196.089 2053.38 196.853 L2054.84 197.177 Q2059.37 198.149 2061.27 199.932 Q2063.19 201.691 2063.19 204.862 Q2063.19 208.473 2060.32 210.58 Q2057.48 212.686 2052.48 212.686 Q2050.39 212.686 2048.12 212.27 Q2045.88 211.876 2043.38 211.066 L2043.38 206.668 Q2045.74 207.895 2048.03 208.52 Q2050.32 209.122 2052.57 209.122 Q2055.58 209.122 2057.2 208.103 Q2058.82 207.061 2058.82 205.186 Q2058.82 203.45 2057.64 202.524 Q2056.48 201.598 2052.52 200.742 L2051.04 200.395 Q2047.08 199.561 2045.32 197.848 Q2043.56 196.112 2043.56 193.103 Q2043.56 189.446 2046.16 187.455 Q2048.75 185.464 2053.52 185.464 Q2055.88 185.464 2057.96 185.811 Q2060.05 186.159 2061.8 186.853 Z" fill="#000000" fill-rule="evenodd" fill-opacity="1" /><path clip-path="url(#clip690)" d="M2086.5 186.853 L2086.5 190.881 Q2084.7 189.955 2082.75 189.492 Q2080.81 189.029 2078.73 189.029 Q2075.55 189.029 2073.96 190.001 Q2072.38 190.973 2072.38 192.918 Q2072.38 194.399 2073.52 195.256 Q2074.65 196.089 2078.08 196.853 L2079.54 197.177 Q2084.07 198.149 2085.97 199.932 Q2087.89 201.691 2087.89 204.862 Q2087.89 208.473 2085.02 210.58 Q2082.18 212.686 2077.18 212.686 Q2075.09 212.686 2072.82 212.27 Q2070.58 211.876 2068.08 211.066 L2068.08 206.668 Q2070.44 207.895 2072.73 208.52 Q2075.02 209.122 2077.27 209.122 Q2080.28 209.122 2081.9 208.103 Q2083.52 207.061 2083.52 205.186 Q2083.52 203.45 2082.34 202.524 Q2081.18 201.598 2077.22 200.742 L2075.74 200.395 Q2071.78 199.561 2070.02 197.848 Q2068.26 196.112 2068.26 193.103 Q2068.26 189.446 2070.86 187.455 Q2073.45 185.464 2078.22 185.464 Q2080.58 185.464 2082.66 185.811 Q2084.74 186.159 2086.5 186.853 Z" fill="#000000" fill-rule="evenodd" fill-opacity="1" /><path clip-path="url(#clip690)" d="M2116.85 197.987 L2116.85 200.071 L2097.27 200.071 Q2097.55 204.469 2099.91 206.784 Q2102.29 209.075 2106.53 209.075 Q2108.98 209.075 2111.27 208.473 Q2113.59 207.872 2115.86 206.668 L2115.86 210.696 Q2113.56 211.668 2111.16 212.177 Q2108.75 212.686 2106.27 212.686 Q2100.07 212.686 2096.43 209.075 Q2092.82 205.464 2092.82 199.307 Q2092.82 192.941 2096.25 189.214 Q2099.7 185.464 2105.53 185.464 Q2110.76 185.464 2113.8 188.844 Q2116.85 192.2 2116.85 197.987 M2112.59 196.737 Q2112.55 193.242 2110.62 191.159 Q2108.73 189.075 2105.58 189.075 Q2102.01 189.075 2099.86 191.089 Q2097.73 193.103 2097.41 196.76 L2112.59 196.737 Z" fill="#000000" fill-rule="evenodd" fill-opacity="1" /><path clip-path="url(#clip690)" d="M2138.86 190.071 Q2138.15 189.654 2137.29 189.469 Q2136.46 189.261 2135.44 189.261 Q2131.83 189.261 2129.88 191.622 Q2127.96 193.96 2127.96 198.358 L2127.96 212.015 L2123.68 212.015 L2123.68 186.089 L2127.96 186.089 L2127.96 190.117 Q2129.3 187.756 2131.46 186.622 Q2133.61 185.464 2136.69 185.464 Q2137.13 185.464 2137.66 185.534 Q2138.19 185.58 2138.84 185.696 L2138.86 190.071 Z" fill="#000000" fill-rule="evenodd" fill-opacity="1" /><path clip-path="url(#clip690)" d="M2159.86 186.853 L2159.86 190.881 Q2158.05 189.955 2156.11 189.492 Q2154.17 189.029 2152.08 189.029 Q2148.91 189.029 2147.31 190.001 Q2145.74 190.973 2145.74 192.918 Q2145.74 194.399 2146.87 195.256 Q2148.01 196.089 2151.43 196.853 L2152.89 197.177 Q2157.43 198.149 2159.33 199.932 Q2161.25 201.691 2161.25 204.862 Q2161.25 208.473 2158.38 210.58 Q2155.53 212.686 2150.53 212.686 Q2148.45 212.686 2146.18 212.27 Q2143.93 211.876 2141.43 211.066 L2141.43 206.668 Q2143.8 207.895 2146.09 208.52 Q2148.38 209.122 2150.62 209.122 Q2153.63 209.122 2155.25 208.103 Q2156.87 207.061 2156.87 205.186 Q2156.87 203.45 2155.69 202.524 Q2154.54 201.598 2150.58 200.742 L2149.1 200.395 Q2145.14 199.561 2143.38 197.848 Q2141.62 196.112 2141.62 193.103 Q2141.62 189.446 2144.21 187.455 Q2146.8 185.464 2151.57 185.464 Q2153.93 185.464 2156.02 185.811 Q2158.1 186.159 2159.86 186.853 Z" fill="#000000" fill-rule="evenodd" fill-opacity="1" /></svg>
