<?xml version="1.0" encoding="utf-8"?>
<svg xmlns="http://www.w3.org/2000/svg" xmlns:xlink="http://www.w3.org/1999/xlink" width="600" height="400" viewBox="0 0 2400 1600">
<defs>
  <clipPath id="clip660">
    <rect x="0" y="0" width="2400" height="1600"/>
  </clipPath>
</defs>
<path clip-path="url(#clip660)" d="
M0 1600 L2400 1600 L2400 0 L0 0  Z
  " fill="#ffffff" fill-rule="evenodd" fill-opacity="1"/>
<defs>
  <clipPath id="clip661">
    <rect x="480" y="0" width="1681" height="1600"/>
  </clipPath>
</defs>
<path clip-path="url(#clip660)" d="
M333.697 1361.51 L2352.76 1361.51 L2352.76 47.2441 L333.697 47.2441  Z
  " fill="#ffffff" fill-rule="evenodd" fill-opacity="1"/>
<defs>
  <clipPath id="clip662">
    <rect x="333" y="47" width="2020" height="1315"/>
  </clipPath>
</defs>
<polyline clip-path="url(#clip662)" style="stroke:#000000; stroke-linecap:round; stroke-linejoin:round; stroke-width:2; stroke-opacity:0.1; fill:none" points="
  390.84,1361.51 390.84,47.2441 
  "/>
<polyline clip-path="url(#clip662)" style="stroke:#000000; stroke-linecap:round; stroke-linejoin:round; stroke-width:2; stroke-opacity:0.1; fill:none" points="
  581.317,1361.51 581.317,47.2441 
  "/>
<polyline clip-path="url(#clip662)" style="stroke:#000000; stroke-linecap:round; stroke-linejoin:round; stroke-width:2; stroke-opacity:0.1; fill:none" points="
  771.795,1361.51 771.795,47.2441 
  "/>
<polyline clip-path="url(#clip662)" style="stroke:#000000; stroke-linecap:round; stroke-linejoin:round; stroke-width:2; stroke-opacity:0.1; fill:none" points="
  962.272,1361.51 962.272,47.2441 
  "/>
<polyline clip-path="url(#clip662)" style="stroke:#000000; stroke-linecap:round; stroke-linejoin:round; stroke-width:2; stroke-opacity:0.1; fill:none" points="
  1152.75,1361.51 1152.75,47.2441 
  "/>
<polyline clip-path="url(#clip662)" style="stroke:#000000; stroke-linecap:round; stroke-linejoin:round; stroke-width:2; stroke-opacity:0.1; fill:none" points="
  1343.23,1361.51 1343.23,47.2441 
  "/>
<polyline clip-path="url(#clip662)" style="stroke:#000000; stroke-linecap:round; stroke-linejoin:round; stroke-width:2; stroke-opacity:0.1; fill:none" points="
  1533.7,1361.51 1533.7,47.2441 
  "/>
<polyline clip-path="url(#clip662)" style="stroke:#000000; stroke-linecap:round; stroke-linejoin:round; stroke-width:2; stroke-opacity:0.1; fill:none" points="
  1724.18,1361.51 1724.18,47.2441 
  "/>
<polyline clip-path="url(#clip662)" style="stroke:#000000; stroke-linecap:round; stroke-linejoin:round; stroke-width:2; stroke-opacity:0.1; fill:none" points="
  1914.66,1361.51 1914.66,47.2441 
  "/>
<polyline clip-path="url(#clip662)" style="stroke:#000000; stroke-linecap:round; stroke-linejoin:round; stroke-width:2; stroke-opacity:0.1; fill:none" points="
  2105.14,1361.51 2105.14,47.2441 
  "/>
<polyline clip-path="url(#clip662)" style="stroke:#000000; stroke-linecap:round; stroke-linejoin:round; stroke-width:2; stroke-opacity:0.1; fill:none" points="
  2295.61,1361.51 2295.61,47.2441 
  "/>
<polyline clip-path="url(#clip660)" style="stroke:#000000; stroke-linecap:round; stroke-linejoin:round; stroke-width:4; stroke-opacity:1; fill:none" points="
  333.697,1361.51 2352.76,1361.51 
  "/>
<polyline clip-path="url(#clip660)" style="stroke:#000000; stroke-linecap:round; stroke-linejoin:round; stroke-width:4; stroke-opacity:1; fill:none" points="
  390.84,1361.51 390.84,1342.61 
  "/>
<polyline clip-path="url(#clip660)" style="stroke:#000000; stroke-linecap:round; stroke-linejoin:round; stroke-width:4; stroke-opacity:1; fill:none" points="
  581.317,1361.51 581.317,1342.61 
  "/>
<polyline clip-path="url(#clip660)" style="stroke:#000000; stroke-linecap:round; stroke-linejoin:round; stroke-width:4; stroke-opacity:1; fill:none" points="
  771.795,1361.51 771.795,1342.61 
  "/>
<polyline clip-path="url(#clip660)" style="stroke:#000000; stroke-linecap:round; stroke-linejoin:round; stroke-width:4; stroke-opacity:1; fill:none" points="
  962.272,1361.51 962.272,1342.61 
  "/>
<polyline clip-path="url(#clip660)" style="stroke:#000000; stroke-linecap:round; stroke-linejoin:round; stroke-width:4; stroke-opacity:1; fill:none" points="
  1152.75,1361.51 1152.75,1342.61 
  "/>
<polyline clip-path="url(#clip660)" style="stroke:#000000; stroke-linecap:round; stroke-linejoin:round; stroke-width:4; stroke-opacity:1; fill:none" points="
  1343.23,1361.51 1343.23,1342.61 
  "/>
<polyline clip-path="url(#clip660)" style="stroke:#000000; stroke-linecap:round; stroke-linejoin:round; stroke-width:4; stroke-opacity:1; fill:none" points="
  1533.7,1361.51 1533.7,1342.61 
  "/>
<polyline clip-path="url(#clip660)" style="stroke:#000000; stroke-linecap:round; stroke-linejoin:round; stroke-width:4; stroke-opacity:1; fill:none" points="
  1724.18,1361.51 1724.18,1342.61 
  "/>
<polyline clip-path="url(#clip660)" style="stroke:#000000; stroke-linecap:round; stroke-linejoin:round; stroke-width:4; stroke-opacity:1; fill:none" points="
  1914.66,1361.51 1914.66,1342.61 
  "/>
<polyline clip-path="url(#clip660)" style="stroke:#000000; stroke-linecap:round; stroke-linejoin:round; stroke-width:4; stroke-opacity:1; fill:none" points="
  2105.14,1361.51 2105.14,1342.61 
  "/>
<polyline clip-path="url(#clip660)" style="stroke:#000000; stroke-linecap:round; stroke-linejoin:round; stroke-width:4; stroke-opacity:1; fill:none" points="
  2295.61,1361.51 2295.61,1342.61 
  "/>
<path clip-path="url(#clip660)" d="M287.291 1438.04 L303.363 1435.21 L304.046 1439.08 L282.435 1442.89 L281.752 1439.02 Q283.895 1435.84 287.605 1430.49 Q291.333 1425.11 292.263 1423.58 Q294.036 1420.7 294.601 1418.84 Q295.184 1416.95 294.891 1415.29 Q294.412 1412.57 292.196 1411.2 Q290.003 1409.83 286.948 1410.37 Q284.782 1410.75 282.498 1411.93 Q280.237 1413.1 277.771 1415.11 L276.951 1410.46 Q279.535 1408.85 281.851 1407.86 Q284.167 1406.86 286.173 1406.51 Q291.462 1405.57 295.074 1407.66 Q298.686 1409.75 299.466 1414.18 Q299.836 1416.27 299.372 1418.31 Q298.926 1420.31 297.302 1423.23 Q296.849 1423.99 294.353 1427.7 Q291.853 1431.38 287.291 1438.04 Z" fill="#000000" fill-rule="evenodd" fill-opacity="1" /><path clip-path="url(#clip660)" d="M318.093 1404.64 Q314.537 1405.27 313.355 1409.09 Q312.192 1412.9 313.43 1419.92 Q314.664 1426.91 317.061 1430.11 Q319.477 1433.28 323.033 1432.66 Q326.612 1432.02 327.775 1428.22 Q328.957 1424.39 327.723 1417.4 Q326.485 1410.37 324.069 1407.2 Q321.672 1404.01 318.093 1404.64 M317.45 1400.99 Q323.172 1399.98 326.981 1403.99 Q330.809 1407.97 332.328 1416.58 Q333.843 1425.18 331.611 1430.25 Q329.398 1435.29 323.676 1436.3 Q317.954 1437.31 314.127 1433.33 Q310.318 1429.33 308.802 1420.73 Q307.283 1412.12 309.496 1407.07 Q311.728 1402 317.45 1400.99 Z" fill="#000000" fill-rule="evenodd" fill-opacity="1" /><path clip-path="url(#clip660)" d="M343.53 1428.12 L351.053 1426.8 L346.474 1400.83 L338.58 1403.92 L337.84 1399.72 L345.689 1396.65 L350.294 1395.83 L355.612 1425.99 L363.135 1424.67 L363.818 1428.54 L344.213 1432 L343.53 1428.12 Z" fill="#000000" fill-rule="evenodd" fill-opacity="1" /><path clip-path="url(#clip660)" d="M365.955 1393.07 L387.84 1389.21 L388.185 1391.17 L381.485 1425.43 L376.675 1426.28 L382.983 1394.07 L366.638 1396.95 L365.955 1393.07 Z" fill="#000000" fill-rule="evenodd" fill-opacity="1" /><path clip-path="url(#clip660)" d="M409.265 1450.12 L425.337 1447.29 L426.02 1451.16 L404.409 1454.97 L403.726 1451.1 Q405.869 1447.92 409.579 1442.57 Q413.307 1437.18 414.237 1435.66 Q416.01 1432.78 416.575 1430.92 Q417.158 1429.03 416.865 1427.37 Q416.387 1424.65 414.17 1423.28 Q411.977 1421.91 408.922 1422.44 Q406.756 1422.83 404.473 1424 Q402.212 1425.18 399.745 1427.19 L398.925 1422.54 Q401.51 1420.93 403.825 1419.93 Q406.141 1418.94 408.147 1418.58 Q413.436 1417.65 417.048 1419.74 Q420.661 1421.83 421.44 1426.25 Q421.81 1428.35 421.346 1430.38 Q420.9 1432.39 419.276 1435.31 Q418.823 1436.07 416.327 1439.78 Q413.827 1443.46 409.265 1450.12 Z" fill="#000000" fill-rule="evenodd" fill-opacity="1" /><path clip-path="url(#clip660)" d="M440.067 1416.72 Q436.511 1417.34 435.329 1421.17 Q434.166 1424.97 435.404 1432 Q436.638 1438.99 439.035 1442.19 Q441.451 1445.36 445.007 1444.73 Q448.586 1444.1 449.749 1440.3 Q450.931 1436.47 449.697 1429.48 Q448.459 1422.45 446.043 1419.28 Q443.646 1416.09 440.067 1416.72 M439.424 1413.07 Q445.146 1412.06 448.955 1416.07 Q452.783 1420.05 454.302 1428.66 Q455.818 1437.26 453.586 1442.33 Q451.372 1447.37 445.65 1448.38 Q439.929 1449.39 436.101 1445.41 Q432.292 1441.41 430.776 1432.81 Q429.257 1424.19 431.47 1419.15 Q433.702 1414.08 439.424 1413.07 Z" fill="#000000" fill-rule="evenodd" fill-opacity="1" /><path clip-path="url(#clip660)" d="M465.504 1440.2 L473.027 1438.88 L468.449 1412.91 L460.554 1416 L459.814 1411.8 L467.663 1408.73 L472.268 1407.91 L477.586 1438.07 L485.109 1436.75 L485.792 1440.62 L466.187 1444.08 L465.504 1440.2 Z" fill="#000000" fill-rule="evenodd" fill-opacity="1" /><path clip-path="url(#clip660)" d="M502.091 1421.08 Q498.809 1421.66 497.226 1423.75 Q495.666 1425.84 496.209 1428.91 Q496.752 1431.99 498.93 1433.42 Q501.132 1434.84 504.415 1434.26 Q507.697 1433.68 509.28 1431.59 Q510.858 1429.48 510.32 1426.42 Q509.777 1423.35 507.576 1421.93 Q505.397 1420.5 502.091 1421.08 M497.141 1419.93 Q494.049 1419.73 492.027 1417.99 Q490.028 1416.25 489.513 1413.33 Q488.794 1409.25 491.271 1406.37 Q493.771 1403.49 498.831 1402.59 Q503.915 1401.7 507.228 1403.56 Q510.541 1405.42 511.261 1409.5 Q511.775 1412.42 510.469 1414.74 Q509.185 1417.06 506.373 1418.31 Q509.838 1418.49 512.083 1420.43 Q514.35 1422.35 514.925 1425.61 Q515.797 1430.56 513.231 1433.74 Q510.688 1436.91 505.058 1437.91 Q499.427 1438.9 495.929 1436.79 Q492.453 1434.68 491.581 1429.73 Q491.006 1426.47 492.478 1423.88 Q493.949 1421.3 497.141 1419.93 M494.172 1412.96 Q494.638 1415.6 496.54 1416.8 Q498.466 1417.98 501.452 1417.46 Q504.416 1416.94 505.819 1415.16 Q507.244 1413.38 506.778 1410.74 Q506.312 1408.09 504.363 1406.91 Q502.438 1405.72 499.475 1406.24 Q496.488 1406.77 495.085 1408.54 Q493.705 1410.32 494.172 1412.96 Z" fill="#000000" fill-rule="evenodd" fill-opacity="1" /><path clip-path="url(#clip660)" d="M540.051 1409.88 L533.417 1411.05 L532.844 1419 L539.524 1417.82 L540.051 1409.88 M534.344 1397.51 L533.641 1407.39 L540.298 1406.21 L541.023 1396.33 L544.671 1395.69 L543.991 1405.56 L551.103 1404.31 L551.722 1407.82 L543.721 1409.23 L543.194 1417.17 L550.443 1415.89 L551.058 1419.38 L542.92 1420.82 L542.213 1430.67 L538.566 1431.32 L539.25 1421.46 L532.57 1422.64 L531.886 1432.49 L528.216 1433.14 L528.923 1423.29 L521.742 1424.55 L521.127 1421.06 L529.151 1419.65 L529.724 1411.7 L522.383 1412.99 L521.764 1409.48 L529.994 1408.03 L530.651 1398.16 L534.344 1397.51 Z" fill="#000000" fill-rule="evenodd" fill-opacity="1" /><path clip-path="url(#clip660)" d="M564.03 1422.83 L571.553 1421.5 L566.974 1395.54 L559.08 1398.62 L558.34 1394.43 L566.189 1391.35 L570.794 1390.54 L576.112 1420.7 L583.635 1419.37 L584.318 1423.25 L564.713 1426.71 L564.03 1422.83 Z" fill="#000000" fill-rule="evenodd" fill-opacity="1" /><path clip-path="url(#clip660)" d="M600.107 1450.06 L616.179 1447.22 L616.862 1451.1 L595.251 1454.91 L594.568 1451.03 Q596.711 1447.86 600.421 1442.5 Q604.149 1437.12 605.079 1435.59 Q606.852 1432.72 607.417 1430.86 Q608 1428.97 607.707 1427.3 Q607.229 1424.59 605.012 1423.22 Q602.819 1421.84 599.764 1422.38 Q597.598 1422.76 595.315 1423.94 Q593.054 1425.11 590.587 1427.12 L589.767 1422.47 Q592.352 1420.87 594.667 1419.87 Q596.983 1418.87 598.989 1418.52 Q604.278 1417.59 607.89 1419.68 Q611.503 1421.77 612.282 1426.19 Q612.652 1428.29 612.188 1430.32 Q611.742 1432.33 610.118 1435.24 Q609.665 1436.01 607.169 1439.71 Q604.669 1443.4 600.107 1450.06 Z" fill="#000000" fill-rule="evenodd" fill-opacity="1" /><path clip-path="url(#clip660)" d="M630.909 1416.65 Q627.353 1417.28 626.171 1421.11 Q625.008 1424.91 626.246 1431.93 Q627.48 1438.93 629.877 1442.13 Q632.293 1445.3 635.849 1444.67 Q639.428 1444.04 640.591 1440.24 Q641.773 1436.41 640.539 1429.41 Q639.301 1422.39 636.885 1419.22 Q634.488 1416.02 630.909 1416.65 M630.266 1413.01 Q635.988 1412 639.797 1416 Q643.625 1419.98 645.144 1428.6 Q646.66 1437.19 644.428 1442.26 Q642.214 1447.31 636.492 1448.32 Q630.771 1449.33 626.943 1445.35 Q623.134 1441.34 621.618 1432.75 Q620.099 1424.13 622.312 1419.09 Q624.544 1414.01 630.266 1413.01 Z" fill="#000000" fill-rule="evenodd" fill-opacity="1" /><path clip-path="url(#clip660)" d="M656.346 1440.14 L663.869 1438.81 L659.291 1412.85 L651.396 1415.93 L650.656 1411.74 L658.505 1408.66 L663.11 1407.85 L668.428 1438.01 L675.951 1436.68 L676.634 1440.56 L657.029 1444.01 L656.346 1440.14 Z" fill="#000000" fill-rule="evenodd" fill-opacity="1" /><path clip-path="url(#clip660)" d="M692.933 1421.02 Q689.651 1421.6 688.068 1423.69 Q686.508 1425.77 687.051 1428.85 Q687.594 1431.93 689.772 1433.35 Q691.974 1434.77 695.257 1434.19 Q698.539 1433.62 700.122 1431.53 Q701.7 1429.42 701.162 1426.36 Q700.619 1423.28 698.418 1421.86 Q696.239 1420.44 692.933 1421.02 M687.983 1419.87 Q684.891 1419.66 682.869 1417.93 Q680.87 1416.19 680.355 1413.27 Q679.636 1409.19 682.113 1406.31 Q684.613 1403.42 689.673 1402.53 Q694.757 1401.63 698.07 1403.49 Q701.383 1405.35 702.103 1409.44 Q702.617 1412.35 701.311 1414.68 Q700.027 1416.99 697.215 1418.24 Q700.68 1418.43 702.925 1420.36 Q705.192 1422.29 705.767 1425.55 Q706.639 1430.5 704.073 1433.67 Q701.53 1436.85 695.9 1437.84 Q690.269 1438.84 686.771 1436.73 Q683.295 1434.61 682.423 1429.66 Q681.848 1426.4 683.32 1423.82 Q684.791 1421.23 687.983 1419.87 M685.014 1412.9 Q685.48 1415.54 687.382 1416.73 Q689.308 1417.92 692.294 1417.39 Q695.258 1416.87 696.661 1415.1 Q698.086 1413.32 697.62 1410.67 Q697.154 1408.03 695.205 1406.84 Q693.28 1405.66 690.317 1406.18 Q687.33 1406.7 685.927 1408.48 Q684.547 1410.25 685.014 1412.9 Z" fill="#000000" fill-rule="evenodd" fill-opacity="1" /><path clip-path="url(#clip660)" d="M730.893 1409.81 L724.259 1410.98 L723.686 1418.93 L730.366 1417.76 L730.893 1409.81 M725.186 1397.44 L724.483 1407.32 L731.14 1406.15 L731.865 1396.27 L735.513 1395.62 L734.833 1405.5 L741.945 1404.24 L742.564 1407.75 L734.563 1409.17 L734.036 1417.11 L741.285 1415.83 L741.9 1419.32 L733.762 1420.75 L733.055 1430.61 L729.408 1431.25 L730.092 1421.4 L723.412 1422.58 L722.728 1432.43 L719.058 1433.08 L719.765 1423.22 L712.584 1424.49 L711.969 1421 L719.993 1419.58 L720.566 1411.63 L713.225 1412.93 L712.606 1409.42 L720.836 1407.97 L721.493 1398.1 L725.186 1397.44 Z" fill="#000000" fill-rule="evenodd" fill-opacity="1" /><path clip-path="url(#clip660)" d="M758.041 1422.21 L774.112 1419.37 L774.795 1423.25 L753.184 1427.06 L752.501 1423.18 Q754.644 1420.01 758.354 1414.65 Q762.083 1409.27 763.012 1407.75 Q764.785 1404.87 765.35 1403.01 Q765.934 1401.12 765.64 1399.45 Q765.162 1396.74 762.945 1395.37 Q760.752 1393.99 757.697 1394.53 Q755.531 1394.91 753.248 1396.09 Q750.987 1397.27 748.521 1399.28 L747.701 1394.63 Q750.285 1393.02 752.601 1392.02 Q754.917 1391.03 756.923 1390.67 Q762.211 1389.74 765.824 1391.83 Q769.436 1393.92 770.216 1398.34 Q770.585 1400.44 770.121 1402.47 Q769.676 1404.48 768.051 1407.4 Q767.598 1408.16 765.102 1411.87 Q762.602 1415.55 758.041 1422.21 Z" fill="#000000" fill-rule="evenodd" fill-opacity="1" /><path clip-path="url(#clip660)" d="M790.22 1450.12 L806.291 1447.29 L806.975 1451.16 L785.364 1454.97 L784.68 1451.1 Q786.824 1447.92 790.533 1442.57 Q794.262 1437.18 795.191 1435.66 Q796.965 1432.78 797.529 1430.92 Q798.113 1429.03 797.819 1427.37 Q797.341 1424.65 795.125 1423.28 Q792.931 1421.91 789.877 1422.44 Q787.711 1422.83 785.427 1424 Q783.166 1425.18 780.7 1427.19 L779.88 1422.54 Q782.464 1420.93 784.78 1419.93 Q787.096 1418.94 789.102 1418.58 Q794.391 1417.65 798.003 1419.74 Q801.615 1421.83 802.395 1426.25 Q802.765 1428.35 802.3 1430.38 Q801.855 1432.39 800.231 1435.31 Q799.777 1436.07 797.281 1439.78 Q794.781 1443.46 790.22 1450.12 Z" fill="#000000" fill-rule="evenodd" fill-opacity="1" /><path clip-path="url(#clip660)" d="M821.022 1416.72 Q817.466 1417.34 816.284 1421.17 Q815.12 1424.97 816.359 1432 Q817.593 1438.99 819.99 1442.19 Q822.406 1445.36 825.962 1444.73 Q829.541 1444.1 830.704 1440.3 Q831.886 1436.47 830.652 1429.48 Q829.414 1422.45 826.998 1419.28 Q824.601 1416.09 821.022 1416.72 M820.379 1413.07 Q826.1 1412.06 829.91 1416.07 Q833.737 1420.05 835.257 1428.66 Q836.772 1437.26 834.54 1442.33 Q832.327 1447.37 826.605 1448.38 Q820.883 1449.39 817.055 1445.41 Q813.246 1441.41 811.731 1432.81 Q810.211 1424.19 812.425 1419.15 Q814.657 1414.08 820.379 1413.07 Z" fill="#000000" fill-rule="evenodd" fill-opacity="1" /><path clip-path="url(#clip660)" d="M846.459 1440.2 L853.981 1438.88 L849.403 1412.91 L841.509 1416 L840.769 1411.8 L848.618 1408.73 L853.223 1407.91 L858.541 1438.07 L866.063 1436.75 L866.747 1440.62 L847.142 1444.08 L846.459 1440.2 Z" fill="#000000" fill-rule="evenodd" fill-opacity="1" /><path clip-path="url(#clip660)" d="M876.06 1438.25 L875.32 1434.06 Q877.197 1434.57 879.052 1434.69 Q880.906 1434.81 882.616 1434.51 Q887.175 1433.71 889.03 1430.23 Q890.904 1426.73 890.145 1420.42 Q889.168 1422.61 887.324 1424.02 Q885.48 1425.43 883.018 1425.86 Q877.912 1426.76 874.383 1424.21 Q870.873 1421.63 869.928 1416.27 Q869.004 1411.03 871.545 1407.32 Q874.087 1403.6 879.239 1402.69 Q885.143 1401.65 889.043 1405.64 Q892.962 1409.6 894.482 1418.22 Q895.901 1426.27 892.919 1431.75 Q889.956 1437.21 883.505 1438.35 Q881.772 1438.65 879.934 1438.63 Q878.095 1438.6 876.06 1438.25 M882.68 1422.21 Q885.78 1421.66 887.207 1419.22 Q888.657 1416.78 888.006 1413.09 Q887.359 1409.42 885.161 1407.62 Q882.982 1405.79 879.882 1406.34 Q876.782 1406.89 875.336 1409.35 Q873.909 1411.79 874.556 1415.46 Q875.207 1419.15 877.382 1420.95 Q879.579 1422.75 882.68 1422.21 Z" fill="#000000" fill-rule="evenodd" fill-opacity="1" /><path clip-path="url(#clip660)" d="M921.005 1409.88 L914.371 1411.05 L913.799 1419 L920.478 1417.82 L921.005 1409.88 M915.298 1397.51 L914.596 1407.39 L921.252 1406.21 L921.978 1396.33 L925.625 1395.69 L924.945 1405.56 L932.058 1404.31 L932.677 1407.82 L924.675 1409.23 L924.149 1417.17 L931.398 1415.89 L932.013 1419.38 L923.874 1420.82 L923.168 1430.67 L919.52 1431.32 L920.204 1421.46 L913.525 1422.64 L912.841 1432.49 L909.171 1433.14 L909.877 1423.29 L902.697 1424.55 L902.082 1421.06 L910.106 1419.65 L910.678 1411.7 L903.338 1412.99 L902.719 1409.48 L910.948 1408.03 L911.605 1398.16 L915.298 1397.51 Z" fill="#000000" fill-rule="evenodd" fill-opacity="1" /><path clip-path="url(#clip660)" d="M944.984 1422.83 L952.507 1421.5 L947.929 1395.54 L940.034 1398.62 L939.295 1394.43 L947.144 1391.35 L951.749 1390.54 L957.066 1420.7 L964.589 1419.37 L965.273 1423.25 L945.668 1426.71 L944.984 1422.83 Z" fill="#000000" fill-rule="evenodd" fill-opacity="1" /><path clip-path="url(#clip660)" d="M981.062 1450.06 L997.133 1447.22 L997.817 1451.1 L976.206 1454.91 L975.522 1451.03 Q977.666 1447.86 981.375 1442.5 Q985.104 1437.12 986.033 1435.59 Q987.807 1432.72 988.371 1430.86 Q988.955 1428.97 988.661 1427.3 Q988.183 1424.59 985.967 1423.22 Q983.773 1421.84 980.719 1422.38 Q978.553 1422.76 976.269 1423.94 Q974.008 1425.11 971.542 1427.12 L970.722 1422.47 Q973.306 1420.87 975.622 1419.87 Q977.938 1418.87 979.944 1418.52 Q985.233 1417.59 988.845 1419.68 Q992.457 1421.77 993.237 1426.19 Q993.607 1428.29 993.142 1430.32 Q992.697 1432.33 991.073 1435.24 Q990.619 1436.01 988.123 1439.71 Q985.623 1443.4 981.062 1450.06 Z" fill="#000000" fill-rule="evenodd" fill-opacity="1" /><path clip-path="url(#clip660)" d="M1011.86 1416.65 Q1008.31 1417.28 1007.13 1421.11 Q1005.96 1424.91 1007.2 1431.93 Q1008.43 1438.93 1010.83 1442.13 Q1013.25 1445.3 1016.8 1444.67 Q1020.38 1444.04 1021.55 1440.24 Q1022.73 1436.41 1021.49 1429.41 Q1020.26 1422.39 1017.84 1419.22 Q1015.44 1416.02 1011.86 1416.65 M1011.22 1413.01 Q1016.94 1412 1020.75 1416 Q1024.58 1419.98 1026.1 1428.6 Q1027.61 1437.19 1025.38 1442.26 Q1023.17 1447.31 1017.45 1448.32 Q1011.73 1449.33 1007.9 1445.35 Q1004.09 1441.34 1002.57 1432.75 Q1001.05 1424.13 1003.27 1419.09 Q1005.5 1414.01 1011.22 1413.01 Z" fill="#000000" fill-rule="evenodd" fill-opacity="1" /><path clip-path="url(#clip660)" d="M1037.3 1440.14 L1044.82 1438.81 L1040.25 1412.85 L1032.35 1415.93 L1031.61 1411.74 L1039.46 1408.66 L1044.06 1407.85 L1049.38 1438.01 L1056.91 1436.68 L1057.59 1440.56 L1037.98 1444.01 L1037.3 1440.14 Z" fill="#000000" fill-rule="evenodd" fill-opacity="1" /><path clip-path="url(#clip660)" d="M1066.9 1438.19 L1066.16 1433.99 Q1068.04 1434.51 1069.89 1434.63 Q1071.75 1434.75 1073.46 1434.45 Q1078.02 1433.64 1079.87 1430.16 Q1081.75 1426.66 1080.99 1420.35 Q1080.01 1422.55 1078.17 1423.95 Q1076.32 1425.36 1073.86 1425.79 Q1068.75 1426.7 1065.22 1424.14 Q1061.71 1421.57 1060.77 1416.21 Q1059.85 1410.97 1062.39 1407.25 Q1064.93 1403.54 1070.08 1402.63 Q1075.99 1401.59 1079.89 1405.58 Q1083.8 1409.54 1085.32 1418.16 Q1086.74 1426.2 1083.76 1431.69 Q1080.8 1437.15 1074.35 1438.28 Q1072.61 1438.59 1070.78 1438.56 Q1068.94 1438.53 1066.9 1438.19 M1073.52 1422.14 Q1076.62 1421.59 1078.05 1419.16 Q1079.5 1416.71 1078.85 1413.02 Q1078.2 1409.35 1076 1407.55 Q1073.82 1405.73 1070.72 1406.27 Q1067.62 1406.82 1066.18 1409.29 Q1064.75 1411.72 1065.4 1415.39 Q1066.05 1419.09 1068.22 1420.89 Q1070.42 1422.69 1073.52 1422.14 Z" fill="#000000" fill-rule="evenodd" fill-opacity="1" /><path clip-path="url(#clip660)" d="M1111.85 1409.81 L1105.21 1410.98 L1104.64 1418.93 L1111.32 1417.76 L1111.85 1409.81 M1106.14 1397.44 L1105.44 1407.32 L1112.09 1406.15 L1112.82 1396.27 L1116.47 1395.62 L1115.79 1405.5 L1122.9 1404.24 L1123.52 1407.75 L1115.52 1409.17 L1114.99 1417.11 L1122.24 1415.83 L1122.85 1419.32 L1114.72 1420.75 L1114.01 1430.61 L1110.36 1431.25 L1111.05 1421.4 L1104.37 1422.58 L1103.68 1432.43 L1100.01 1433.08 L1100.72 1423.22 L1093.54 1424.49 L1092.92 1421 L1100.95 1419.58 L1101.52 1411.63 L1094.18 1412.93 L1093.56 1409.42 L1101.79 1407.97 L1102.45 1398.1 L1106.14 1397.44 Z" fill="#000000" fill-rule="evenodd" fill-opacity="1" /><path clip-path="url(#clip660)" d="M1139 1422.21 L1155.07 1419.37 L1155.75 1423.25 L1134.14 1427.06 L1133.46 1423.18 Q1135.6 1420.01 1139.31 1414.65 Q1143.04 1409.27 1143.97 1407.75 Q1145.74 1404.87 1146.3 1403.01 Q1146.89 1401.12 1146.59 1399.45 Q1146.12 1396.74 1143.9 1395.37 Q1141.71 1393.99 1138.65 1394.53 Q1136.49 1394.91 1134.2 1396.09 Q1131.94 1397.27 1129.48 1399.28 L1128.66 1394.63 Q1131.24 1393.02 1133.56 1392.02 Q1135.87 1391.03 1137.88 1390.67 Q1143.17 1389.74 1146.78 1391.83 Q1150.39 1393.92 1151.17 1398.34 Q1151.54 1400.44 1151.08 1402.47 Q1150.63 1404.48 1149.01 1407.4 Q1148.55 1408.16 1146.06 1411.87 Q1143.56 1415.55 1139 1422.21 Z" fill="#000000" fill-rule="evenodd" fill-opacity="1" /><path clip-path="url(#clip660)" d="M1170.6 1450.22 L1186.68 1447.39 L1187.36 1451.26 L1165.75 1455.07 L1165.07 1451.2 Q1167.21 1448.02 1170.92 1442.67 Q1174.65 1437.28 1175.58 1435.76 Q1177.35 1432.88 1177.91 1431.02 Q1178.5 1429.13 1178.2 1427.47 Q1177.73 1424.75 1175.51 1423.38 Q1173.32 1422.01 1170.26 1422.54 Q1168.1 1422.93 1165.81 1424.1 Q1163.55 1425.28 1161.08 1427.29 L1160.26 1422.64 Q1162.85 1421.03 1165.16 1420.04 Q1167.48 1419.04 1169.49 1418.69 Q1174.78 1417.75 1178.39 1419.84 Q1182 1421.93 1182.78 1426.35 Q1183.15 1428.45 1182.69 1430.48 Q1182.24 1432.49 1180.62 1435.41 Q1180.16 1436.17 1177.67 1439.88 Q1175.17 1443.56 1170.6 1450.22 Z" fill="#000000" fill-rule="evenodd" fill-opacity="1" /><path clip-path="url(#clip660)" d="M1201.41 1416.82 Q1197.85 1417.45 1196.67 1421.27 Q1195.51 1425.07 1196.74 1432.1 Q1197.98 1439.09 1200.37 1442.29 Q1202.79 1445.46 1206.35 1444.83 Q1209.93 1444.2 1211.09 1440.4 Q1212.27 1436.57 1211.04 1429.58 Q1209.8 1422.55 1207.38 1419.38 Q1204.99 1416.19 1201.41 1416.82 M1200.76 1413.17 Q1206.49 1412.16 1210.29 1416.17 Q1214.12 1420.15 1215.64 1428.76 Q1217.16 1437.36 1214.92 1442.43 Q1212.71 1447.47 1206.99 1448.48 Q1201.27 1449.49 1197.44 1445.51 Q1193.63 1441.51 1192.12 1432.91 Q1190.6 1424.29 1192.81 1419.25 Q1195.04 1414.18 1200.76 1413.17 Z" fill="#000000" fill-rule="evenodd" fill-opacity="1" /><path clip-path="url(#clip660)" d="M1226.84 1440.3 L1234.37 1438.98 L1229.79 1413.01 L1221.89 1416.1 L1221.15 1411.9 L1229 1408.83 L1233.61 1408.01 L1238.93 1438.17 L1246.45 1436.85 L1247.13 1440.72 L1227.53 1444.18 L1226.84 1440.3 Z" fill="#000000" fill-rule="evenodd" fill-opacity="1" /><path clip-path="url(#clip660)" d="M1256.44 1438.35 L1255.7 1434.16 Q1257.58 1434.67 1259.44 1434.79 Q1261.29 1434.91 1263 1434.61 Q1267.56 1433.81 1269.42 1430.33 Q1271.29 1426.83 1270.53 1420.52 Q1269.55 1422.71 1267.71 1424.12 Q1265.86 1425.53 1263.4 1425.96 Q1258.3 1426.86 1254.77 1424.31 Q1251.26 1421.73 1250.31 1416.37 Q1249.39 1411.13 1251.93 1407.42 Q1254.47 1403.7 1259.62 1402.79 Q1265.53 1401.75 1269.43 1405.74 Q1273.35 1409.7 1274.87 1418.32 Q1276.29 1426.37 1273.3 1431.85 Q1270.34 1437.31 1263.89 1438.45 Q1262.16 1438.75 1260.32 1438.73 Q1258.48 1438.7 1256.44 1438.35 M1263.06 1422.31 Q1266.16 1421.76 1267.59 1419.32 Q1269.04 1416.88 1268.39 1413.19 Q1267.74 1409.52 1265.55 1407.72 Q1263.37 1405.89 1260.27 1406.44 Q1257.17 1406.99 1255.72 1409.45 Q1254.29 1411.89 1254.94 1415.56 Q1255.59 1419.25 1257.77 1421.05 Q1259.96 1422.85 1263.06 1422.31 Z" fill="#000000" fill-rule="evenodd" fill-opacity="1" /><path clip-path="url(#clip660)" d="M1301.39 1409.98 L1294.76 1411.15 L1294.18 1419.1 L1300.86 1417.92 L1301.39 1409.98 M1295.68 1397.61 L1294.98 1407.49 L1301.64 1406.31 L1302.36 1396.43 L1306.01 1395.79 L1305.33 1405.66 L1312.44 1404.41 L1313.06 1407.92 L1305.06 1409.33 L1304.53 1417.27 L1311.78 1416 L1312.4 1419.48 L1304.26 1420.92 L1303.55 1430.77 L1299.9 1431.42 L1300.59 1421.57 L1293.91 1422.74 L1293.23 1432.59 L1289.56 1433.24 L1290.26 1423.39 L1283.08 1424.65 L1282.47 1421.16 L1290.49 1419.75 L1291.06 1411.8 L1283.72 1413.09 L1283.1 1409.58 L1291.33 1408.13 L1291.99 1398.26 L1295.68 1397.61 Z" fill="#000000" fill-rule="evenodd" fill-opacity="1" /><path clip-path="url(#clip660)" d="M1335.97 1406.14 Q1339.4 1406.26 1341.64 1408.17 Q1343.9 1410.07 1344.48 1413.36 Q1345.37 1418.39 1342.39 1421.76 Q1339.41 1425.13 1333.03 1426.26 Q1330.89 1426.64 1328.53 1426.6 Q1326.2 1426.59 1323.64 1426.17 L1322.85 1421.73 Q1324.97 1422.51 1327.35 1422.68 Q1329.73 1422.84 1332.21 1422.41 Q1336.54 1421.64 1338.5 1419.54 Q1340.48 1417.42 1339.9 1414.16 Q1339.37 1411.15 1336.95 1409.84 Q1334.55 1408.5 1330.79 1409.16 L1326.83 1409.86 L1326.16 1406.08 L1330.31 1405.35 Q1333.7 1404.75 1335.27 1403.09 Q1336.83 1401.4 1336.38 1398.85 Q1335.92 1396.23 1333.8 1395.17 Q1331.7 1394.08 1328.24 1394.69 Q1326.35 1395.02 1324.25 1395.81 Q1322.16 1396.61 1319.72 1397.93 L1318.99 1393.83 Q1321.48 1392.64 1323.7 1391.87 Q1325.94 1391.1 1327.97 1390.74 Q1333.21 1389.82 1336.69 1391.67 Q1340.16 1393.5 1340.88 1397.56 Q1341.37 1400.39 1340.1 1402.63 Q1338.82 1404.86 1335.97 1406.14 Z" fill="#000000" fill-rule="evenodd" fill-opacity="1" /><path clip-path="url(#clip660)" d="M1361.65 1450.12 L1377.72 1447.29 L1378.41 1451.16 L1356.8 1454.97 L1356.11 1451.1 Q1358.26 1447.92 1361.97 1442.57 Q1365.69 1437.18 1366.62 1435.66 Q1368.4 1432.78 1368.96 1430.92 Q1369.54 1429.03 1369.25 1427.37 Q1368.77 1424.65 1366.56 1423.28 Q1364.36 1421.91 1361.31 1422.44 Q1359.14 1422.83 1356.86 1424 Q1354.6 1425.18 1352.13 1427.19 L1351.31 1422.54 Q1353.9 1420.93 1356.21 1419.93 Q1358.53 1418.94 1360.53 1418.58 Q1365.82 1417.65 1369.43 1419.74 Q1373.05 1421.83 1373.83 1426.25 Q1374.2 1428.35 1373.73 1430.38 Q1373.29 1432.39 1371.66 1435.31 Q1371.21 1436.07 1368.71 1439.78 Q1366.21 1443.46 1361.65 1450.12 Z" fill="#000000" fill-rule="evenodd" fill-opacity="1" /><path clip-path="url(#clip660)" d="M1392.45 1416.72 Q1388.9 1417.34 1387.72 1421.17 Q1386.55 1424.97 1387.79 1432 Q1389.02 1438.99 1391.42 1442.19 Q1393.84 1445.36 1397.39 1444.73 Q1400.97 1444.1 1402.14 1440.3 Q1403.32 1436.47 1402.08 1429.48 Q1400.85 1422.45 1398.43 1419.28 Q1396.03 1416.09 1392.45 1416.72 M1391.81 1413.07 Q1397.53 1412.06 1401.34 1416.07 Q1405.17 1420.05 1406.69 1428.66 Q1408.2 1437.26 1405.97 1442.33 Q1403.76 1447.37 1398.04 1448.38 Q1392.31 1449.39 1388.49 1445.41 Q1384.68 1441.41 1383.16 1432.81 Q1381.64 1424.19 1383.86 1419.15 Q1386.09 1414.08 1391.81 1413.07 Z" fill="#000000" fill-rule="evenodd" fill-opacity="1" /><path clip-path="url(#clip660)" d="M1421.06 1439.64 L1437.13 1436.81 L1437.81 1440.69 L1416.2 1444.5 L1415.52 1440.62 Q1417.66 1437.45 1421.37 1432.09 Q1425.1 1426.71 1426.03 1425.18 Q1427.8 1422.31 1428.37 1420.44 Q1428.95 1418.56 1428.66 1416.89 Q1428.18 1414.18 1425.96 1412.81 Q1423.77 1411.43 1420.72 1411.97 Q1418.55 1412.35 1416.27 1413.53 Q1414.01 1414.7 1411.54 1416.71 L1410.72 1412.06 Q1413.3 1410.46 1415.62 1409.46 Q1417.93 1408.46 1419.94 1408.11 Q1425.23 1407.18 1428.84 1409.27 Q1432.45 1411.36 1433.23 1415.78 Q1433.6 1417.88 1433.14 1419.91 Q1432.69 1421.92 1431.07 1424.83 Q1430.62 1425.6 1428.12 1429.3 Q1425.62 1432.99 1421.06 1439.64 Z" fill="#000000" fill-rule="evenodd" fill-opacity="1" /><path clip-path="url(#clip660)" d="M1451.86 1406.24 Q1448.3 1406.87 1447.12 1410.7 Q1445.96 1414.5 1447.2 1421.52 Q1448.43 1428.52 1450.83 1431.72 Q1453.24 1434.89 1456.8 1434.26 Q1460.38 1433.63 1461.54 1429.83 Q1462.72 1426 1461.49 1419 Q1460.25 1411.98 1457.84 1408.81 Q1455.44 1405.61 1451.86 1406.24 M1451.22 1402.59 Q1456.94 1401.59 1460.75 1405.59 Q1464.58 1409.57 1466.1 1418.19 Q1467.61 1426.78 1465.38 1431.85 Q1463.17 1436.9 1457.44 1437.91 Q1451.72 1438.92 1447.89 1434.94 Q1444.09 1430.93 1442.57 1422.34 Q1441.05 1413.72 1443.26 1408.67 Q1445.5 1403.6 1451.22 1402.59 Z" fill="#000000" fill-rule="evenodd" fill-opacity="1" /><path clip-path="url(#clip660)" d="M1492.44 1409.88 L1485.8 1411.05 L1485.23 1419 L1491.91 1417.82 L1492.44 1409.88 M1486.73 1397.51 L1486.03 1407.39 L1492.68 1406.21 L1493.41 1396.33 L1497.06 1395.69 L1496.38 1405.56 L1503.49 1404.31 L1504.11 1407.82 L1496.11 1409.23 L1495.58 1417.17 L1502.83 1415.89 L1503.44 1419.38 L1495.31 1420.82 L1494.6 1430.67 L1490.95 1431.32 L1491.64 1421.46 L1484.96 1422.64 L1484.27 1432.49 L1480.6 1433.14 L1481.31 1423.29 L1474.13 1424.55 L1473.51 1421.06 L1481.54 1419.65 L1482.11 1411.7 L1474.77 1412.99 L1474.15 1409.48 L1482.38 1408.03 L1483.04 1398.16 L1486.73 1397.51 Z" fill="#000000" fill-rule="evenodd" fill-opacity="1" /><path clip-path="url(#clip660)" d="M1516.42 1422.83 L1523.94 1421.5 L1519.36 1395.54 L1511.47 1398.62 L1510.73 1394.43 L1518.58 1391.35 L1523.18 1390.54 L1528.5 1420.7 L1536.02 1419.37 L1536.7 1423.25 L1517.1 1426.71 L1516.42 1422.83 Z" fill="#000000" fill-rule="evenodd" fill-opacity="1" /><path clip-path="url(#clip660)" d="M1552.49 1450.06 L1568.57 1447.22 L1569.25 1451.1 L1547.64 1454.91 L1546.95 1451.03 Q1549.1 1447.86 1552.81 1442.5 Q1556.54 1437.12 1557.47 1435.59 Q1559.24 1432.72 1559.8 1430.86 Q1560.39 1428.97 1560.09 1427.3 Q1559.61 1424.59 1557.4 1423.22 Q1555.2 1421.84 1552.15 1422.38 Q1549.98 1422.76 1547.7 1423.94 Q1545.44 1425.11 1542.97 1427.12 L1542.15 1422.47 Q1544.74 1420.87 1547.05 1419.87 Q1549.37 1418.87 1551.38 1418.52 Q1556.66 1417.59 1560.28 1419.68 Q1563.89 1421.77 1564.67 1426.19 Q1565.04 1428.29 1564.57 1430.32 Q1564.13 1432.33 1562.5 1435.24 Q1562.05 1436.01 1559.56 1439.71 Q1557.06 1443.4 1552.49 1450.06 Z" fill="#000000" fill-rule="evenodd" fill-opacity="1" /><path clip-path="url(#clip660)" d="M1583.3 1416.65 Q1579.74 1417.28 1578.56 1421.11 Q1577.39 1424.91 1578.63 1431.93 Q1579.87 1438.93 1582.26 1442.13 Q1584.68 1445.3 1588.24 1444.67 Q1591.81 1444.04 1592.98 1440.24 Q1594.16 1436.41 1592.93 1429.41 Q1591.69 1422.39 1589.27 1419.22 Q1586.87 1416.02 1583.3 1416.65 M1582.65 1413.01 Q1588.37 1412 1592.18 1416 Q1596.01 1419.98 1597.53 1428.6 Q1599.05 1437.19 1596.81 1442.26 Q1594.6 1447.31 1588.88 1448.32 Q1583.16 1449.33 1579.33 1445.35 Q1575.52 1441.34 1574 1432.75 Q1572.49 1424.13 1574.7 1419.09 Q1576.93 1414.01 1582.65 1413.01 Z" fill="#000000" fill-rule="evenodd" fill-opacity="1" /><path clip-path="url(#clip660)" d="M1611.9 1439.58 L1627.97 1436.75 L1628.66 1440.62 L1607.04 1444.43 L1606.36 1440.56 Q1608.5 1437.38 1612.21 1432.03 Q1615.94 1426.64 1616.87 1425.12 Q1618.65 1422.24 1619.21 1420.38 Q1619.79 1418.49 1619.5 1416.83 Q1619.02 1414.11 1616.81 1412.74 Q1614.61 1411.37 1611.56 1411.9 Q1609.39 1412.29 1607.11 1413.47 Q1604.85 1414.64 1602.38 1416.65 L1601.56 1412 Q1604.15 1410.39 1606.46 1409.4 Q1608.78 1408.4 1610.78 1408.05 Q1616.07 1407.11 1619.68 1409.2 Q1623.3 1411.29 1624.08 1415.71 Q1624.45 1417.81 1623.98 1419.84 Q1623.54 1421.85 1621.91 1424.77 Q1621.46 1425.53 1618.96 1429.24 Q1616.46 1432.92 1611.9 1439.58 Z" fill="#000000" fill-rule="evenodd" fill-opacity="1" /><path clip-path="url(#clip660)" d="M1642.7 1406.18 Q1639.15 1406.81 1637.96 1410.63 Q1636.8 1414.43 1638.04 1421.46 Q1639.27 1428.45 1641.67 1431.65 Q1644.09 1434.82 1647.64 1434.19 Q1651.22 1433.56 1652.39 1429.76 Q1653.57 1425.93 1652.33 1418.94 Q1651.09 1411.91 1648.68 1408.74 Q1646.28 1405.55 1642.7 1406.18 M1642.06 1402.53 Q1647.78 1401.52 1651.59 1405.53 Q1655.42 1409.51 1656.94 1418.12 Q1658.45 1426.72 1656.22 1431.79 Q1654.01 1436.83 1648.29 1437.84 Q1642.56 1438.85 1638.74 1434.87 Q1634.93 1430.87 1633.41 1422.27 Q1631.89 1413.65 1634.11 1408.61 Q1636.34 1403.54 1642.06 1402.53 Z" fill="#000000" fill-rule="evenodd" fill-opacity="1" /><path clip-path="url(#clip660)" d="M1683.28 1409.81 L1676.65 1410.98 L1676.07 1418.93 L1682.75 1417.76 L1683.28 1409.81 M1677.57 1397.44 L1676.87 1407.32 L1683.53 1406.15 L1684.25 1396.27 L1687.9 1395.62 L1687.22 1405.5 L1694.33 1404.24 L1694.95 1407.75 L1686.95 1409.17 L1686.42 1417.11 L1693.67 1415.83 L1694.29 1419.32 L1686.15 1420.75 L1685.44 1430.61 L1681.79 1431.25 L1682.48 1421.4 L1675.8 1422.58 L1675.11 1432.43 L1671.44 1433.08 L1672.15 1423.22 L1664.97 1424.49 L1664.36 1421 L1672.38 1419.58 L1672.95 1411.63 L1665.61 1412.93 L1664.99 1409.42 L1673.22 1407.97 L1673.88 1398.1 L1677.57 1397.44 Z" fill="#000000" fill-rule="evenodd" fill-opacity="1" /><path clip-path="url(#clip660)" d="M1710.43 1422.21 L1726.5 1419.37 L1727.18 1423.25 L1705.57 1427.06 L1704.89 1423.18 Q1707.03 1420.01 1710.74 1414.65 Q1714.47 1409.27 1715.4 1407.75 Q1717.17 1404.87 1717.74 1403.01 Q1718.32 1401.12 1718.03 1399.45 Q1717.55 1396.74 1715.33 1395.37 Q1713.14 1393.99 1710.08 1394.53 Q1707.92 1394.91 1705.63 1396.09 Q1703.37 1397.27 1700.91 1399.28 L1700.09 1394.63 Q1702.67 1393.02 1704.99 1392.02 Q1707.3 1391.03 1709.31 1390.67 Q1714.6 1389.74 1718.21 1391.83 Q1721.82 1393.92 1722.6 1398.34 Q1722.97 1400.44 1722.51 1402.47 Q1722.06 1404.48 1720.44 1407.4 Q1719.98 1408.16 1717.49 1411.87 Q1714.99 1415.55 1710.43 1422.21 Z" fill="#000000" fill-rule="evenodd" fill-opacity="1" /><path clip-path="url(#clip660)" d="M1742.04 1450.22 L1758.11 1447.39 L1758.79 1451.26 L1737.18 1455.07 L1736.5 1451.2 Q1738.64 1448.02 1742.35 1442.67 Q1746.08 1437.28 1747.01 1435.76 Q1748.78 1432.88 1749.35 1431.02 Q1749.93 1429.13 1749.64 1427.47 Q1749.16 1424.75 1746.94 1423.38 Q1744.75 1422.01 1741.69 1422.54 Q1739.53 1422.93 1737.24 1424.1 Q1734.98 1425.28 1732.52 1427.29 L1731.7 1422.64 Q1734.28 1421.03 1736.6 1420.04 Q1738.91 1419.04 1740.92 1418.69 Q1746.21 1417.75 1749.82 1419.84 Q1753.43 1421.93 1754.21 1426.35 Q1754.58 1428.45 1754.12 1430.48 Q1753.67 1432.49 1752.05 1435.41 Q1751.59 1436.17 1749.1 1439.88 Q1746.6 1443.56 1742.04 1450.22 Z" fill="#000000" fill-rule="evenodd" fill-opacity="1" /><path clip-path="url(#clip660)" d="M1772.84 1416.82 Q1769.28 1417.45 1768.1 1421.27 Q1766.94 1425.07 1768.17 1432.1 Q1769.41 1439.09 1771.81 1442.29 Q1774.22 1445.46 1777.78 1444.83 Q1781.36 1444.2 1782.52 1440.4 Q1783.7 1436.57 1782.47 1429.58 Q1781.23 1422.55 1778.81 1419.38 Q1776.42 1416.19 1772.84 1416.82 M1772.19 1413.17 Q1777.92 1412.16 1781.73 1416.17 Q1785.55 1420.15 1787.07 1428.76 Q1788.59 1437.36 1786.36 1442.43 Q1784.14 1447.47 1778.42 1448.48 Q1772.7 1449.49 1768.87 1445.51 Q1765.06 1441.51 1763.55 1432.91 Q1762.03 1424.29 1764.24 1419.25 Q1766.47 1414.18 1772.19 1413.17 Z" fill="#000000" fill-rule="evenodd" fill-opacity="1" /><path clip-path="url(#clip660)" d="M1801.44 1439.75 L1817.52 1436.91 L1818.2 1440.79 L1796.59 1444.6 L1795.9 1440.72 Q1798.05 1437.55 1801.76 1432.19 Q1805.49 1426.81 1806.42 1425.28 Q1808.19 1422.41 1808.75 1420.55 Q1809.34 1418.66 1809.04 1416.99 Q1808.56 1414.28 1806.35 1412.91 Q1804.15 1411.53 1801.1 1412.07 Q1798.93 1412.45 1796.65 1413.63 Q1794.39 1414.8 1791.92 1416.81 L1791.1 1412.16 Q1793.69 1410.56 1796 1409.56 Q1798.32 1408.56 1800.33 1408.21 Q1805.61 1407.28 1809.23 1409.37 Q1812.84 1411.46 1813.62 1415.88 Q1813.99 1417.98 1813.52 1420.01 Q1813.08 1422.02 1811.45 1424.93 Q1811 1425.7 1808.51 1429.4 Q1806.01 1433.09 1801.44 1439.75 Z" fill="#000000" fill-rule="evenodd" fill-opacity="1" /><path clip-path="url(#clip660)" d="M1832.25 1406.34 Q1828.69 1406.97 1827.51 1410.8 Q1826.34 1414.6 1827.58 1421.62 Q1828.82 1428.62 1831.21 1431.82 Q1833.63 1434.99 1837.19 1434.36 Q1840.76 1433.73 1841.93 1429.93 Q1843.11 1426.1 1841.88 1419.1 Q1840.64 1412.08 1838.22 1408.91 Q1835.82 1405.71 1832.25 1406.34 M1831.6 1402.7 Q1837.32 1401.69 1841.13 1405.69 Q1844.96 1409.67 1846.48 1418.29 Q1848 1426.88 1845.76 1431.95 Q1843.55 1437 1837.83 1438.01 Q1832.11 1439.02 1828.28 1435.04 Q1824.47 1431.03 1822.95 1422.44 Q1821.44 1413.82 1823.65 1408.78 Q1825.88 1403.7 1831.6 1402.7 Z" fill="#000000" fill-rule="evenodd" fill-opacity="1" /><path clip-path="url(#clip660)" d="M1872.82 1409.98 L1866.19 1411.15 L1865.62 1419.1 L1872.29 1417.92 L1872.82 1409.98 M1867.11 1397.61 L1866.41 1407.49 L1873.07 1406.31 L1873.79 1396.43 L1877.44 1395.79 L1876.76 1405.66 L1883.87 1404.41 L1884.49 1407.92 L1876.49 1409.33 L1875.96 1417.27 L1883.21 1416 L1883.83 1419.48 L1875.69 1420.92 L1874.98 1430.77 L1871.34 1431.42 L1872.02 1421.57 L1865.34 1422.74 L1864.66 1432.59 L1860.99 1433.24 L1861.69 1423.39 L1854.51 1424.65 L1853.9 1421.16 L1861.92 1419.75 L1862.49 1411.8 L1855.15 1413.09 L1854.54 1409.58 L1862.76 1408.13 L1863.42 1398.26 L1867.11 1397.61 Z" fill="#000000" fill-rule="evenodd" fill-opacity="1" /><path clip-path="url(#clip660)" d="M1907.4 1406.14 Q1910.83 1406.26 1913.07 1408.17 Q1915.34 1410.07 1915.91 1413.36 Q1916.8 1418.39 1913.82 1421.76 Q1910.85 1425.13 1904.46 1426.26 Q1902.32 1426.64 1899.96 1426.6 Q1897.63 1426.59 1895.07 1426.17 L1894.29 1421.73 Q1896.4 1422.51 1898.78 1422.68 Q1901.16 1422.84 1903.64 1422.41 Q1907.97 1421.64 1909.93 1419.54 Q1911.91 1417.42 1911.33 1414.16 Q1910.8 1411.15 1908.38 1409.84 Q1905.99 1408.5 1902.22 1409.16 L1898.26 1409.86 L1897.59 1406.08 L1901.74 1405.35 Q1905.14 1404.75 1906.7 1403.09 Q1908.26 1401.4 1907.81 1398.85 Q1907.35 1396.23 1905.23 1395.17 Q1903.14 1394.08 1899.67 1394.69 Q1897.78 1395.02 1895.69 1395.81 Q1893.59 1396.61 1891.15 1397.93 L1890.42 1393.83 Q1892.92 1392.64 1895.13 1391.87 Q1897.37 1391.1 1899.4 1390.74 Q1904.64 1389.82 1908.12 1391.67 Q1911.59 1393.5 1912.31 1397.56 Q1912.81 1400.39 1911.53 1402.63 Q1910.26 1404.86 1907.4 1406.14 Z" fill="#000000" fill-rule="evenodd" fill-opacity="1" /><path clip-path="url(#clip660)" d="M1933.08 1450.12 L1949.15 1447.29 L1949.84 1451.16 L1928.23 1454.97 L1927.54 1451.1 Q1929.69 1447.92 1933.4 1442.57 Q1937.13 1437.18 1938.05 1435.66 Q1939.83 1432.78 1940.39 1430.92 Q1940.98 1429.03 1940.68 1427.37 Q1940.2 1424.65 1937.99 1423.28 Q1935.79 1421.91 1932.74 1422.44 Q1930.57 1422.83 1928.29 1424 Q1926.03 1425.18 1923.56 1427.19 L1922.74 1422.54 Q1925.33 1420.93 1927.64 1419.93 Q1929.96 1418.94 1931.97 1418.58 Q1937.25 1417.65 1940.87 1419.74 Q1944.48 1421.83 1945.26 1426.25 Q1945.63 1428.35 1945.16 1430.38 Q1944.72 1432.39 1943.09 1435.31 Q1942.64 1436.07 1940.14 1439.78 Q1937.64 1443.46 1933.08 1450.12 Z" fill="#000000" fill-rule="evenodd" fill-opacity="1" /><path clip-path="url(#clip660)" d="M1963.89 1416.72 Q1960.33 1417.34 1959.15 1421.17 Q1957.98 1424.97 1959.22 1432 Q1960.46 1438.99 1962.85 1442.19 Q1965.27 1445.36 1968.83 1444.73 Q1972.4 1444.1 1973.57 1440.3 Q1974.75 1436.47 1973.52 1429.48 Q1972.28 1422.45 1969.86 1419.28 Q1967.46 1416.09 1963.89 1416.72 M1963.24 1413.07 Q1968.96 1412.06 1972.77 1416.07 Q1976.6 1420.05 1978.12 1428.66 Q1979.64 1437.26 1977.4 1442.33 Q1975.19 1447.37 1969.47 1448.38 Q1963.75 1449.39 1959.92 1445.41 Q1956.11 1441.41 1954.59 1432.81 Q1953.07 1424.19 1955.29 1419.15 Q1957.52 1414.08 1963.24 1413.07 Z" fill="#000000" fill-rule="evenodd" fill-opacity="1" /><path clip-path="url(#clip660)" d="M1992.49 1439.64 L2008.56 1436.81 L2009.25 1440.69 L1987.63 1444.5 L1986.95 1440.62 Q1989.09 1437.45 1992.8 1432.09 Q1996.53 1426.71 1997.46 1425.18 Q1999.24 1422.31 1999.8 1420.44 Q2000.38 1418.56 2000.09 1416.89 Q1999.61 1414.18 1997.4 1412.81 Q1995.2 1411.43 1992.15 1411.97 Q1989.98 1412.35 1987.7 1413.53 Q1985.44 1414.7 1982.97 1416.71 L1982.15 1412.06 Q1984.73 1410.46 1987.05 1409.46 Q1989.37 1408.46 1991.37 1408.11 Q1996.66 1407.18 2000.27 1409.27 Q2003.89 1411.36 2004.67 1415.78 Q2005.04 1417.88 2004.57 1419.91 Q2004.13 1421.92 2002.5 1424.83 Q2002.05 1425.6 1999.55 1429.3 Q1997.05 1432.99 1992.49 1439.64 Z" fill="#000000" fill-rule="evenodd" fill-opacity="1" /><path clip-path="url(#clip660)" d="M2019.03 1434.97 L2026.55 1433.64 L2021.97 1407.67 L2014.08 1410.76 L2013.34 1406.56 L2021.18 1403.49 L2025.79 1402.68 L2031.11 1432.84 L2038.63 1431.51 L2039.31 1435.38 L2019.71 1438.84 L2019.03 1434.97 Z" fill="#000000" fill-rule="evenodd" fill-opacity="1" /><path clip-path="url(#clip660)" d="M2063.87 1409.88 L2057.23 1411.05 L2056.66 1419 L2063.34 1417.82 L2063.87 1409.88 M2058.16 1397.51 L2057.46 1407.39 L2064.12 1406.21 L2064.84 1396.33 L2068.49 1395.69 L2067.81 1405.56 L2074.92 1404.31 L2075.54 1407.82 L2067.54 1409.23 L2067.01 1417.17 L2074.26 1415.89 L2074.88 1419.38 L2066.74 1420.82 L2066.03 1430.67 L2062.38 1431.32 L2063.07 1421.46 L2056.39 1422.64 L2055.7 1432.49 L2052.03 1433.14 L2052.74 1423.29 L2045.56 1424.55 L2044.95 1421.06 L2052.97 1419.65 L2053.54 1411.7 L2046.2 1412.99 L2045.58 1409.48 L2053.81 1408.03 L2054.47 1398.16 L2058.16 1397.51 Z" fill="#000000" fill-rule="evenodd" fill-opacity="1" /><path clip-path="url(#clip660)" d="M2087.85 1422.83 L2095.37 1421.5 L2090.79 1395.54 L2082.9 1398.62 L2082.16 1394.43 L2090.01 1391.35 L2094.61 1390.54 L2099.93 1420.7 L2107.45 1419.37 L2108.14 1423.25 L2088.53 1426.71 L2087.85 1422.83 Z" fill="#000000" fill-rule="evenodd" fill-opacity="1" /><path clip-path="url(#clip660)" d="M2123.93 1450.06 L2140 1447.22 L2140.68 1451.1 L2119.07 1454.91 L2118.39 1451.03 Q2120.53 1447.86 2124.24 1442.5 Q2127.97 1437.12 2128.9 1435.59 Q2130.67 1432.72 2131.23 1430.86 Q2131.82 1428.97 2131.53 1427.3 Q2131.05 1424.59 2128.83 1423.22 Q2126.64 1421.84 2123.58 1422.38 Q2121.42 1422.76 2119.13 1423.94 Q2116.87 1425.11 2114.41 1427.12 L2113.59 1422.47 Q2116.17 1420.87 2118.49 1419.87 Q2120.8 1418.87 2122.81 1418.52 Q2128.1 1417.59 2131.71 1419.68 Q2135.32 1421.77 2136.1 1426.19 Q2136.47 1428.29 2136.01 1430.32 Q2135.56 1432.33 2133.94 1435.24 Q2133.48 1436.01 2130.99 1439.71 Q2128.49 1443.4 2123.93 1450.06 Z" fill="#000000" fill-rule="evenodd" fill-opacity="1" /><path clip-path="url(#clip660)" d="M2154.73 1416.65 Q2151.17 1417.28 2149.99 1421.11 Q2148.83 1424.91 2150.06 1431.93 Q2151.3 1438.93 2153.7 1442.13 Q2156.11 1445.3 2159.67 1444.67 Q2163.25 1444.04 2164.41 1440.24 Q2165.59 1436.41 2164.36 1429.41 Q2163.12 1422.39 2160.7 1419.22 Q2158.31 1416.02 2154.73 1416.65 M2154.08 1413.01 Q2159.81 1412 2163.62 1416 Q2167.44 1419.98 2168.96 1428.6 Q2170.48 1437.19 2168.25 1442.26 Q2166.03 1447.31 2160.31 1448.32 Q2154.59 1449.33 2150.76 1445.35 Q2146.95 1441.34 2145.44 1432.75 Q2143.92 1424.13 2146.13 1419.09 Q2148.36 1414.01 2154.08 1413.01 Z" fill="#000000" fill-rule="evenodd" fill-opacity="1" /><path clip-path="url(#clip660)" d="M2183.33 1439.58 L2199.4 1436.75 L2200.09 1440.62 L2178.48 1444.43 L2177.79 1440.56 Q2179.94 1437.38 2183.65 1432.03 Q2187.37 1426.64 2188.3 1425.12 Q2190.08 1422.24 2190.64 1420.38 Q2191.23 1418.49 2190.93 1416.83 Q2190.45 1414.11 2188.24 1412.74 Q2186.04 1411.37 2182.99 1411.9 Q2180.82 1412.29 2178.54 1413.47 Q2176.28 1414.64 2173.81 1416.65 L2172.99 1412 Q2175.58 1410.39 2177.89 1409.4 Q2180.21 1408.4 2182.21 1408.05 Q2187.5 1407.11 2191.12 1409.2 Q2194.73 1411.29 2195.51 1415.71 Q2195.88 1417.81 2195.41 1419.84 Q2194.97 1421.85 2193.34 1424.77 Q2192.89 1425.53 2190.39 1429.24 Q2187.89 1432.92 2183.33 1439.58 Z" fill="#000000" fill-rule="evenodd" fill-opacity="1" /><path clip-path="url(#clip660)" d="M2209.87 1434.9 L2217.39 1433.58 L2212.81 1407.61 L2204.92 1410.69 L2204.18 1406.5 L2212.03 1403.42 L2216.63 1402.61 L2221.95 1432.77 L2229.47 1431.44 L2230.16 1435.32 L2210.55 1438.78 L2209.87 1434.9 Z" fill="#000000" fill-rule="evenodd" fill-opacity="1" /><path clip-path="url(#clip660)" d="M2254.71 1409.81 L2248.08 1410.98 L2247.5 1418.93 L2254.18 1417.76 L2254.71 1409.81 M2249 1397.44 L2248.3 1407.32 L2254.96 1406.15 L2255.68 1396.27 L2259.33 1395.62 L2258.65 1405.5 L2265.76 1404.24 L2266.38 1407.75 L2258.38 1409.17 L2257.85 1417.11 L2265.1 1415.83 L2265.72 1419.32 L2257.58 1420.75 L2256.87 1430.61 L2253.23 1431.25 L2253.91 1421.4 L2247.23 1422.58 L2246.55 1432.43 L2242.88 1433.08 L2243.58 1423.22 L2236.4 1424.49 L2235.79 1421 L2243.81 1419.58 L2244.38 1411.63 L2237.04 1412.93 L2236.42 1409.42 L2244.65 1407.97 L2245.31 1398.1 L2249 1397.44 Z" fill="#000000" fill-rule="evenodd" fill-opacity="1" /><path clip-path="url(#clip660)" d="M2281.86 1422.21 L2297.93 1419.37 L2298.61 1423.25 L2277 1427.06 L2276.32 1423.18 Q2278.46 1420.01 2282.17 1414.65 Q2285.9 1409.27 2286.83 1407.75 Q2288.6 1404.87 2289.17 1403.01 Q2289.75 1401.12 2289.46 1399.45 Q2288.98 1396.74 2286.76 1395.37 Q2284.57 1393.99 2281.52 1394.53 Q2279.35 1394.91 2277.07 1396.09 Q2274.8 1397.27 2272.34 1399.28 L2271.52 1394.63 Q2274.1 1393.02 2276.42 1392.02 Q2278.73 1391.03 2280.74 1390.67 Q2286.03 1389.74 2289.64 1391.83 Q2293.25 1393.92 2294.03 1398.34 Q2294.4 1400.44 2293.94 1402.47 Q2293.49 1404.48 2291.87 1407.4 Q2291.42 1408.16 2288.92 1411.87 Q2286.42 1415.55 2281.86 1422.21 Z" fill="#000000" fill-rule="evenodd" fill-opacity="1" /><polyline clip-path="url(#clip662)" style="stroke:#000000; stroke-linecap:round; stroke-linejoin:round; stroke-width:2; stroke-opacity:0.1; fill:none" points="
  333.697,1147.03 2352.76,1147.03 
  "/>
<polyline clip-path="url(#clip662)" style="stroke:#000000; stroke-linecap:round; stroke-linejoin:round; stroke-width:2; stroke-opacity:0.1; fill:none" points="
  333.697,882.76 2352.76,882.76 
  "/>
<polyline clip-path="url(#clip662)" style="stroke:#000000; stroke-linecap:round; stroke-linejoin:round; stroke-width:2; stroke-opacity:0.1; fill:none" points="
  333.697,618.486 2352.76,618.486 
  "/>
<polyline clip-path="url(#clip662)" style="stroke:#000000; stroke-linecap:round; stroke-linejoin:round; stroke-width:2; stroke-opacity:0.1; fill:none" points="
  333.697,354.211 2352.76,354.211 
  "/>
<polyline clip-path="url(#clip662)" style="stroke:#000000; stroke-linecap:round; stroke-linejoin:round; stroke-width:2; stroke-opacity:0.1; fill:none" points="
  333.697,89.9371 2352.76,89.9371 
  "/>
<polyline clip-path="url(#clip660)" style="stroke:#000000; stroke-linecap:round; stroke-linejoin:round; stroke-width:4; stroke-opacity:1; fill:none" points="
  333.697,1361.51 333.697,47.2441 
  "/>
<polyline clip-path="url(#clip660)" style="stroke:#000000; stroke-linecap:round; stroke-linejoin:round; stroke-width:4; stroke-opacity:1; fill:none" points="
  333.697,1147.03 352.595,1147.03 
  "/>
<polyline clip-path="url(#clip660)" style="stroke:#000000; stroke-linecap:round; stroke-linejoin:round; stroke-width:4; stroke-opacity:1; fill:none" points="
  333.697,882.76 352.595,882.76 
  "/>
<polyline clip-path="url(#clip660)" style="stroke:#000000; stroke-linecap:round; stroke-linejoin:round; stroke-width:4; stroke-opacity:1; fill:none" points="
  333.697,618.486 352.595,618.486 
  "/>
<polyline clip-path="url(#clip660)" style="stroke:#000000; stroke-linecap:round; stroke-linejoin:round; stroke-width:4; stroke-opacity:1; fill:none" points="
  333.697,354.211 352.595,354.211 
  "/>
<polyline clip-path="url(#clip660)" style="stroke:#000000; stroke-linecap:round; stroke-linejoin:round; stroke-width:4; stroke-opacity:1; fill:none" points="
  333.697,89.9371 352.595,89.9371 
  "/>
<path clip-path="url(#clip660)" d="M189.295 1160.38 L205.614 1160.38 L205.614 1164.31 L183.67 1164.31 L183.67 1160.38 Q186.332 1157.62 190.915 1152.99 Q195.522 1148.34 196.702 1147 Q198.948 1144.48 199.827 1142.74 Q200.73 1140.98 200.73 1139.29 Q200.73 1136.54 198.786 1134.8 Q196.864 1133.06 193.762 1133.06 Q191.563 1133.06 189.11 1133.83 Q186.679 1134.59 183.901 1136.14 L183.901 1131.42 Q186.725 1130.29 189.179 1129.71 Q191.633 1129.13 193.67 1129.13 Q199.04 1129.13 202.235 1131.81 Q205.429 1134.5 205.429 1138.99 Q205.429 1141.12 204.619 1143.04 Q203.832 1144.94 201.725 1147.53 Q201.147 1148.2 198.045 1151.42 Q194.943 1154.62 189.295 1160.38 Z" fill="#000000" fill-rule="evenodd" fill-opacity="1" /><path clip-path="url(#clip660)" d="M215.475 1129.75 L233.832 1129.75 L233.832 1133.69 L219.758 1133.69 L219.758 1142.16 Q220.776 1141.81 221.795 1141.65 Q222.813 1141.47 223.832 1141.47 Q229.619 1141.47 232.998 1144.64 Q236.378 1147.81 236.378 1153.23 Q236.378 1158.8 232.906 1161.91 Q229.434 1164.99 223.114 1164.99 Q220.938 1164.99 218.67 1164.62 Q216.424 1164.24 214.017 1163.5 L214.017 1158.8 Q216.1 1159.94 218.322 1160.49 Q220.545 1161.05 223.022 1161.05 Q227.026 1161.05 229.364 1158.94 Q231.702 1156.84 231.702 1153.23 Q231.702 1149.62 229.364 1147.51 Q227.026 1145.4 223.022 1145.4 Q221.147 1145.4 219.272 1145.82 Q217.42 1146.24 215.475 1147.12 L215.475 1129.75 Z" fill="#000000" fill-rule="evenodd" fill-opacity="1" /><path clip-path="url(#clip660)" d="M255.591 1132.83 Q251.98 1132.83 250.151 1136.4 Q248.345 1139.94 248.345 1147.07 Q248.345 1154.18 250.151 1157.74 Q251.98 1161.28 255.591 1161.28 Q259.225 1161.28 261.031 1157.74 Q262.859 1154.18 262.859 1147.07 Q262.859 1139.94 261.031 1136.4 Q259.225 1132.83 255.591 1132.83 M255.591 1129.13 Q261.401 1129.13 264.456 1133.74 Q267.535 1138.32 267.535 1147.07 Q267.535 1155.8 264.456 1160.4 Q261.401 1164.99 255.591 1164.99 Q249.781 1164.99 246.702 1160.4 Q243.646 1155.8 243.646 1147.07 Q243.646 1138.32 246.702 1133.74 Q249.781 1129.13 255.591 1129.13 Z" fill="#000000" fill-rule="evenodd" fill-opacity="1" /><path clip-path="url(#clip660)" d="M285.753 1132.83 Q282.142 1132.83 280.313 1136.4 Q278.507 1139.94 278.507 1147.07 Q278.507 1154.18 280.313 1157.74 Q282.142 1161.28 285.753 1161.28 Q289.387 1161.28 291.192 1157.74 Q293.021 1154.18 293.021 1147.07 Q293.021 1139.94 291.192 1136.4 Q289.387 1132.83 285.753 1132.83 M285.753 1129.13 Q291.563 1129.13 294.618 1133.74 Q297.697 1138.32 297.697 1147.07 Q297.697 1155.8 294.618 1160.4 Q291.563 1164.99 285.753 1164.99 Q279.943 1164.99 276.864 1160.4 Q273.808 1155.8 273.808 1147.07 Q273.808 1138.32 276.864 1133.74 Q279.943 1129.13 285.753 1129.13 Z" fill="#000000" fill-rule="evenodd" fill-opacity="1" /><path clip-path="url(#clip660)" d="M185.313 865.48 L203.67 865.48 L203.67 869.415 L189.596 869.415 L189.596 877.887 Q190.614 877.54 191.633 877.378 Q192.651 877.193 193.67 877.193 Q199.457 877.193 202.836 880.364 Q206.216 883.535 206.216 888.952 Q206.216 894.531 202.744 897.633 Q199.272 900.711 192.952 900.711 Q190.776 900.711 188.508 900.341 Q186.262 899.97 183.855 899.23 L183.855 894.531 Q185.938 895.665 188.161 896.22 Q190.383 896.776 192.86 896.776 Q196.864 896.776 199.202 894.67 Q201.54 892.563 201.54 888.952 Q201.54 885.341 199.202 883.234 Q196.864 881.128 192.86 881.128 Q190.985 881.128 189.11 881.545 Q187.258 881.961 185.313 882.841 L185.313 865.48 Z" fill="#000000" fill-rule="evenodd" fill-opacity="1" /><path clip-path="url(#clip660)" d="M225.429 868.559 Q221.818 868.559 219.989 872.123 Q218.184 875.665 218.184 882.795 Q218.184 889.901 219.989 893.466 Q221.818 897.008 225.429 897.008 Q229.063 897.008 230.869 893.466 Q232.697 889.901 232.697 882.795 Q232.697 875.665 230.869 872.123 Q229.063 868.559 225.429 868.559 M225.429 864.855 Q231.239 864.855 234.295 869.461 Q237.373 874.045 237.373 882.795 Q237.373 891.521 234.295 896.128 Q231.239 900.711 225.429 900.711 Q219.619 900.711 216.54 896.128 Q213.485 891.521 213.485 882.795 Q213.485 874.045 216.54 869.461 Q219.619 864.855 225.429 864.855 Z" fill="#000000" fill-rule="evenodd" fill-opacity="1" /><path clip-path="url(#clip660)" d="M255.591 868.559 Q251.98 868.559 250.151 872.123 Q248.345 875.665 248.345 882.795 Q248.345 889.901 250.151 893.466 Q251.98 897.008 255.591 897.008 Q259.225 897.008 261.031 893.466 Q262.859 889.901 262.859 882.795 Q262.859 875.665 261.031 872.123 Q259.225 868.559 255.591 868.559 M255.591 864.855 Q261.401 864.855 264.456 869.461 Q267.535 874.045 267.535 882.795 Q267.535 891.521 264.456 896.128 Q261.401 900.711 255.591 900.711 Q249.781 900.711 246.702 896.128 Q243.646 891.521 243.646 882.795 Q243.646 874.045 246.702 869.461 Q249.781 864.855 255.591 864.855 Z" fill="#000000" fill-rule="evenodd" fill-opacity="1" /><path clip-path="url(#clip660)" d="M285.753 868.559 Q282.142 868.559 280.313 872.123 Q278.507 875.665 278.507 882.795 Q278.507 889.901 280.313 893.466 Q282.142 897.008 285.753 897.008 Q289.387 897.008 291.192 893.466 Q293.021 889.901 293.021 882.795 Q293.021 875.665 291.192 872.123 Q289.387 868.559 285.753 868.559 M285.753 864.855 Q291.563 864.855 294.618 869.461 Q297.697 874.045 297.697 882.795 Q297.697 891.521 294.618 896.128 Q291.563 900.711 285.753 900.711 Q279.943 900.711 276.864 896.128 Q273.808 891.521 273.808 882.795 Q273.808 874.045 276.864 869.461 Q279.943 864.855 285.753 864.855 Z" fill="#000000" fill-rule="evenodd" fill-opacity="1" /><path clip-path="url(#clip660)" d="M184.087 601.206 L206.309 601.206 L206.309 603.196 L193.762 635.766 L188.878 635.766 L200.684 605.141 L184.087 605.141 L184.087 601.206 Z" fill="#000000" fill-rule="evenodd" fill-opacity="1" /><path clip-path="url(#clip660)" d="M215.475 601.206 L233.832 601.206 L233.832 605.141 L219.758 605.141 L219.758 613.613 Q220.776 613.266 221.795 613.104 Q222.813 612.919 223.832 612.919 Q229.619 612.919 232.998 616.09 Q236.378 619.261 236.378 624.678 Q236.378 630.256 232.906 633.358 Q229.434 636.437 223.114 636.437 Q220.938 636.437 218.67 636.067 Q216.424 635.696 214.017 634.955 L214.017 630.256 Q216.1 631.391 218.322 631.946 Q220.545 632.502 223.022 632.502 Q227.026 632.502 229.364 630.395 Q231.702 628.289 231.702 624.678 Q231.702 621.067 229.364 618.96 Q227.026 616.854 223.022 616.854 Q221.147 616.854 219.272 617.27 Q217.42 617.687 215.475 618.567 L215.475 601.206 Z" fill="#000000" fill-rule="evenodd" fill-opacity="1" /><path clip-path="url(#clip660)" d="M255.591 604.284 Q251.98 604.284 250.151 607.849 Q248.345 611.391 248.345 618.52 Q248.345 625.627 250.151 629.192 Q251.98 632.733 255.591 632.733 Q259.225 632.733 261.031 629.192 Q262.859 625.627 262.859 618.52 Q262.859 611.391 261.031 607.849 Q259.225 604.284 255.591 604.284 M255.591 600.581 Q261.401 600.581 264.456 605.187 Q267.535 609.77 267.535 618.52 Q267.535 627.247 264.456 631.854 Q261.401 636.437 255.591 636.437 Q249.781 636.437 246.702 631.854 Q243.646 627.247 243.646 618.52 Q243.646 609.77 246.702 605.187 Q249.781 600.581 255.591 600.581 Z" fill="#000000" fill-rule="evenodd" fill-opacity="1" /><path clip-path="url(#clip660)" d="M285.753 604.284 Q282.142 604.284 280.313 607.849 Q278.507 611.391 278.507 618.52 Q278.507 625.627 280.313 629.192 Q282.142 632.733 285.753 632.733 Q289.387 632.733 291.192 629.192 Q293.021 625.627 293.021 618.52 Q293.021 611.391 291.192 607.849 Q289.387 604.284 285.753 604.284 M285.753 600.581 Q291.563 600.581 294.618 605.187 Q297.697 609.77 297.697 618.52 Q297.697 627.247 294.618 631.854 Q291.563 636.437 285.753 636.437 Q279.943 636.437 276.864 631.854 Q273.808 627.247 273.808 618.52 Q273.808 609.77 276.864 605.187 Q279.943 600.581 285.753 600.581 Z" fill="#000000" fill-rule="evenodd" fill-opacity="1" /><path clip-path="url(#clip660)" d="M155.915 367.556 L163.554 367.556 L163.554 341.191 L155.244 342.857 L155.244 338.598 L163.508 336.931 L168.184 336.931 L168.184 367.556 L175.823 367.556 L175.823 371.491 L155.915 371.491 L155.915 367.556 Z" fill="#000000" fill-rule="evenodd" fill-opacity="1" /><path clip-path="url(#clip660)" d="M195.267 340.01 Q191.656 340.01 189.827 343.575 Q188.022 347.116 188.022 354.246 Q188.022 361.353 189.827 364.917 Q191.656 368.459 195.267 368.459 Q198.901 368.459 200.707 364.917 Q202.536 361.353 202.536 354.246 Q202.536 347.116 200.707 343.575 Q198.901 340.01 195.267 340.01 M195.267 336.306 Q201.077 336.306 204.133 340.913 Q207.211 345.496 207.211 354.246 Q207.211 362.973 204.133 367.579 Q201.077 372.163 195.267 372.163 Q189.457 372.163 186.378 367.579 Q183.323 362.973 183.323 354.246 Q183.323 345.496 186.378 340.913 Q189.457 336.306 195.267 336.306 Z" fill="#000000" fill-rule="evenodd" fill-opacity="1" /><path clip-path="url(#clip660)" d="M225.429 340.01 Q221.818 340.01 219.989 343.575 Q218.184 347.116 218.184 354.246 Q218.184 361.353 219.989 364.917 Q221.818 368.459 225.429 368.459 Q229.063 368.459 230.869 364.917 Q232.697 361.353 232.697 354.246 Q232.697 347.116 230.869 343.575 Q229.063 340.01 225.429 340.01 M225.429 336.306 Q231.239 336.306 234.295 340.913 Q237.373 345.496 237.373 354.246 Q237.373 362.973 234.295 367.579 Q231.239 372.163 225.429 372.163 Q219.619 372.163 216.54 367.579 Q213.485 362.973 213.485 354.246 Q213.485 345.496 216.54 340.913 Q219.619 336.306 225.429 336.306 Z" fill="#000000" fill-rule="evenodd" fill-opacity="1" /><path clip-path="url(#clip660)" d="M255.591 340.01 Q251.98 340.01 250.151 343.575 Q248.345 347.116 248.345 354.246 Q248.345 361.353 250.151 364.917 Q251.98 368.459 255.591 368.459 Q259.225 368.459 261.031 364.917 Q262.859 361.353 262.859 354.246 Q262.859 347.116 261.031 343.575 Q259.225 340.01 255.591 340.01 M255.591 336.306 Q261.401 336.306 264.456 340.913 Q267.535 345.496 267.535 354.246 Q267.535 362.973 264.456 367.579 Q261.401 372.163 255.591 372.163 Q249.781 372.163 246.702 367.579 Q243.646 362.973 243.646 354.246 Q243.646 345.496 246.702 340.913 Q249.781 336.306 255.591 336.306 Z" fill="#000000" fill-rule="evenodd" fill-opacity="1" /><path clip-path="url(#clip660)" d="M285.753 340.01 Q282.142 340.01 280.313 343.575 Q278.507 347.116 278.507 354.246 Q278.507 361.353 280.313 364.917 Q282.142 368.459 285.753 368.459 Q289.387 368.459 291.192 364.917 Q293.021 361.353 293.021 354.246 Q293.021 347.116 291.192 343.575 Q289.387 340.01 285.753 340.01 M285.753 336.306 Q291.563 336.306 294.618 340.913 Q297.697 345.496 297.697 354.246 Q297.697 362.973 294.618 367.579 Q291.563 372.163 285.753 372.163 Q279.943 372.163 276.864 367.579 Q273.808 362.973 273.808 354.246 Q273.808 345.496 276.864 340.913 Q279.943 336.306 285.753 336.306 Z" fill="#000000" fill-rule="evenodd" fill-opacity="1" /><path clip-path="url(#clip660)" d="M155.915 103.282 L163.554 103.282 L163.554 76.9163 L155.244 78.583 L155.244 74.3237 L163.508 72.6571 L168.184 72.6571 L168.184 103.282 L175.823 103.282 L175.823 107.217 L155.915 107.217 L155.915 103.282 Z" fill="#000000" fill-rule="evenodd" fill-opacity="1" /><path clip-path="url(#clip660)" d="M189.295 103.282 L205.614 103.282 L205.614 107.217 L183.67 107.217 L183.67 103.282 Q186.332 100.527 190.915 95.8977 Q195.522 91.2449 196.702 89.9024 Q198.948 87.3792 199.827 85.6431 Q200.73 83.8839 200.73 82.1941 Q200.73 79.4394 198.786 77.7033 Q196.864 75.9672 193.762 75.9672 Q191.563 75.9672 189.11 76.7311 Q186.679 77.495 183.901 79.0459 L183.901 74.3237 Q186.725 73.1895 189.179 72.6108 Q191.633 72.0321 193.67 72.0321 Q199.04 72.0321 202.235 74.7172 Q205.429 77.4024 205.429 81.8931 Q205.429 84.0228 204.619 85.944 Q203.832 87.8422 201.725 90.4348 Q201.147 91.1061 198.045 94.3236 Q194.943 97.5181 189.295 103.282 Z" fill="#000000" fill-rule="evenodd" fill-opacity="1" /><path clip-path="url(#clip660)" d="M215.475 72.6571 L233.832 72.6571 L233.832 76.5922 L219.758 76.5922 L219.758 85.0644 Q220.776 84.7172 221.795 84.5552 Q222.813 84.37 223.832 84.37 Q229.619 84.37 232.998 87.5413 Q236.378 90.7125 236.378 96.1292 Q236.378 101.708 232.906 104.81 Q229.434 107.888 223.114 107.888 Q220.938 107.888 218.67 107.518 Q216.424 107.148 214.017 106.407 L214.017 101.708 Q216.1 102.842 218.322 103.398 Q220.545 103.953 223.022 103.953 Q227.026 103.953 229.364 101.847 Q231.702 99.7403 231.702 96.1292 Q231.702 92.5181 229.364 90.4116 Q227.026 88.3051 223.022 88.3051 Q221.147 88.3051 219.272 88.7218 Q217.42 89.1385 215.475 90.0181 L215.475 72.6571 Z" fill="#000000" fill-rule="evenodd" fill-opacity="1" /><path clip-path="url(#clip660)" d="M255.591 75.7358 Q251.98 75.7358 250.151 79.3006 Q248.345 82.8422 248.345 89.9718 Q248.345 97.0782 250.151 100.643 Q251.98 104.185 255.591 104.185 Q259.225 104.185 261.031 100.643 Q262.859 97.0782 262.859 89.9718 Q262.859 82.8422 261.031 79.3006 Q259.225 75.7358 255.591 75.7358 M255.591 72.0321 Q261.401 72.0321 264.456 76.6385 Q267.535 81.2218 267.535 89.9718 Q267.535 98.6986 264.456 103.305 Q261.401 107.888 255.591 107.888 Q249.781 107.888 246.702 103.305 Q243.646 98.6986 243.646 89.9718 Q243.646 81.2218 246.702 76.6385 Q249.781 72.0321 255.591 72.0321 Z" fill="#000000" fill-rule="evenodd" fill-opacity="1" /><path clip-path="url(#clip660)" d="M285.753 75.7358 Q282.142 75.7358 280.313 79.3006 Q278.507 82.8422 278.507 89.9718 Q278.507 97.0782 280.313 100.643 Q282.142 104.185 285.753 104.185 Q289.387 104.185 291.192 100.643 Q293.021 97.0782 293.021 89.9718 Q293.021 82.8422 291.192 79.3006 Q289.387 75.7358 285.753 75.7358 M285.753 72.0321 Q291.563 72.0321 294.618 76.6385 Q297.697 81.2218 297.697 89.9718 Q297.697 98.6986 294.618 103.305 Q291.563 107.888 285.753 107.888 Q279.943 107.888 276.864 103.305 Q273.808 98.6986 273.808 89.9718 Q273.808 81.2218 276.864 76.6385 Q279.943 72.0321 285.753 72.0321 Z" fill="#000000" fill-rule="evenodd" fill-opacity="1" /><polyline clip-path="url(#clip662)" style="stroke:#009af9; stroke-linecap:round; stroke-linejoin:round; stroke-width:4; stroke-opacity:1; fill:none" points="
  390.84,1258.24 581.317,1201.16 771.795,1128.01 962.272,1048.09 1152.75,867.643 1343.23,715.739 1533.7,745.549 1724.18,84.4402 1914.66,644.913 2105.14,770.496 
  2295.61,623.771 
  "/>
<polyline clip-path="url(#clip662)" style="stroke:#e26f46; stroke-linecap:round; stroke-linejoin:round; stroke-width:4; stroke-opacity:1; fill:none" points="
  390.84,1324.31 581.317,1291.22 771.795,1227.37 962.272,1147.03 1152.75,1023.14 1343.23,919.547 1533.7,967.539 1724.18,496.285 1914.66,954.854 2105.14,1002.63 
  2295.61,926.947 
  "/>
<path clip-path="url(#clip660)" d="
M1808.18 246.573 L2285.45 246.573 L2285.45 91.0528 L1808.18 91.0528  Z
  " fill="#ffffff" fill-rule="evenodd" fill-opacity="1"/>
<polyline clip-path="url(#clip660)" style="stroke:#000000; stroke-linecap:round; stroke-linejoin:round; stroke-width:4; stroke-opacity:1; fill:none" points="
  1808.18,246.573 2285.45,246.573 2285.45,91.0528 1808.18,91.0528 1808.18,246.573 
  "/>
<polyline clip-path="url(#clip660)" style="stroke:#009af9; stroke-linecap:round; stroke-linejoin:round; stroke-width:4; stroke-opacity:1; fill:none" points="
  1830.61,142.893 1965.21,142.893 
  "/>
<path clip-path="url(#clip660)" d="M2011.68 146.145 L2011.68 148.228 L1992.09 148.228 Q1992.37 152.627 1994.73 154.941 Q1997.12 157.233 2001.35 157.233 Q2003.8 157.233 2006.1 156.631 Q2008.41 156.029 2010.68 154.826 L2010.68 158.853 Q2008.39 159.826 2005.98 160.335 Q2003.57 160.844 2001.1 160.844 Q1994.89 160.844 1991.26 157.233 Q1987.65 153.622 1987.65 147.465 Q1987.65 141.099 1991.07 137.372 Q1994.52 133.622 2000.36 133.622 Q2005.59 133.622 2008.62 137.002 Q2011.68 140.358 2011.68 146.145 M2007.42 144.895 Q2007.37 141.4 2005.45 139.316 Q2003.55 137.233 2000.4 137.233 Q1996.84 137.233 1994.68 139.247 Q1992.55 141.261 1992.23 144.918 L2007.42 144.895 Z" fill="#000000" fill-rule="evenodd" fill-opacity="1" /><path clip-path="url(#clip660)" d="M2039.38 134.247 L2030.01 146.863 L2039.87 160.173 L2034.85 160.173 L2027.3 149.988 L2019.75 160.173 L2014.73 160.173 L2024.8 146.608 L2015.59 134.247 L2020.61 134.247 L2027.49 143.483 L2034.36 134.247 L2039.38 134.247 Z" fill="#000000" fill-rule="evenodd" fill-opacity="1" /><path clip-path="url(#clip660)" d="M2057.67 147.14 Q2052.51 147.14 2050.52 148.321 Q2048.53 149.502 2048.53 152.349 Q2048.53 154.617 2050.01 155.96 Q2051.51 157.279 2054.08 157.279 Q2057.62 157.279 2059.75 154.779 Q2061.91 152.256 2061.91 148.09 L2061.91 147.14 L2057.67 147.14 M2066.17 145.381 L2066.17 160.173 L2061.91 160.173 L2061.91 156.238 Q2060.45 158.599 2058.27 159.733 Q2056.1 160.844 2052.95 160.844 Q2048.97 160.844 2046.61 158.622 Q2044.27 156.377 2044.27 152.627 Q2044.27 148.252 2047.18 146.029 Q2050.12 143.807 2055.93 143.807 L2061.91 143.807 L2061.91 143.39 Q2061.91 140.451 2059.96 138.853 Q2058.04 137.233 2054.55 137.233 Q2052.32 137.233 2050.22 137.766 Q2048.11 138.298 2046.17 139.363 L2046.17 135.428 Q2048.5 134.525 2050.7 134.085 Q2052.9 133.622 2054.99 133.622 Q2060.61 133.622 2063.39 136.539 Q2066.17 139.455 2066.17 145.381 Z" fill="#000000" fill-rule="evenodd" fill-opacity="1" /><path clip-path="url(#clip660)" d="M2095.12 139.224 Q2096.72 136.353 2098.94 134.988 Q2101.17 133.622 2104.17 133.622 Q2108.23 133.622 2110.42 136.469 Q2112.62 139.293 2112.62 144.525 L2112.62 160.173 L2108.34 160.173 L2108.34 144.664 Q2108.34 140.937 2107.02 139.131 Q2105.7 137.326 2102.99 137.326 Q2099.68 137.326 2097.76 139.525 Q2095.84 141.724 2095.84 145.52 L2095.84 160.173 L2091.56 160.173 L2091.56 144.664 Q2091.56 140.914 2090.24 139.131 Q2088.92 137.326 2086.17 137.326 Q2082.9 137.326 2080.98 139.548 Q2079.06 141.747 2079.06 145.52 L2079.06 160.173 L2074.78 160.173 L2074.78 134.247 L2079.06 134.247 L2079.06 138.275 Q2080.52 135.891 2082.55 134.756 Q2084.59 133.622 2087.39 133.622 Q2090.22 133.622 2092.18 135.057 Q2094.17 136.492 2095.12 139.224 Z" fill="#000000" fill-rule="evenodd" fill-opacity="1" /><path clip-path="url(#clip660)" d="M2121.12 134.247 L2125.38 134.247 L2125.38 160.173 L2121.12 160.173 L2121.12 134.247 M2121.12 124.154 L2125.38 124.154 L2125.38 129.548 L2121.12 129.548 L2121.12 124.154 Z" fill="#000000" fill-rule="evenodd" fill-opacity="1" /><path clip-path="url(#clip660)" d="M2155.84 144.525 L2155.84 160.173 L2151.58 160.173 L2151.58 144.664 Q2151.58 140.983 2150.15 139.154 Q2148.71 137.326 2145.84 137.326 Q2142.39 137.326 2140.4 139.525 Q2138.41 141.724 2138.41 145.52 L2138.41 160.173 L2134.13 160.173 L2134.13 134.247 L2138.41 134.247 L2138.41 138.275 Q2139.94 135.937 2142 134.779 Q2144.08 133.622 2146.79 133.622 Q2151.26 133.622 2153.55 136.4 Q2155.84 139.154 2155.84 144.525 Z" fill="#000000" fill-rule="evenodd" fill-opacity="1" /><path clip-path="url(#clip660)" d="M2186.51 146.145 L2186.51 148.228 L2166.93 148.228 Q2167.21 152.627 2169.57 154.941 Q2171.95 157.233 2176.19 157.233 Q2178.64 157.233 2180.93 156.631 Q2183.25 156.029 2185.52 154.826 L2185.52 158.853 Q2183.23 159.826 2180.82 160.335 Q2178.41 160.844 2175.93 160.844 Q2169.73 160.844 2166.1 157.233 Q2162.48 153.622 2162.48 147.465 Q2162.48 141.099 2165.91 137.372 Q2169.36 133.622 2175.19 133.622 Q2180.42 133.622 2183.46 137.002 Q2186.51 140.358 2186.51 146.145 M2182.25 144.895 Q2182.21 141.4 2180.29 139.316 Q2178.39 137.233 2175.24 137.233 Q2171.67 137.233 2169.52 139.247 Q2167.39 141.261 2167.07 144.918 L2182.25 144.895 Z" fill="#000000" fill-rule="evenodd" fill-opacity="1" /><path clip-path="url(#clip660)" d="M2215.68 146.145 L2215.68 148.228 L2196.1 148.228 Q2196.37 152.627 2198.73 154.941 Q2201.12 157.233 2205.35 157.233 Q2207.81 157.233 2210.1 156.631 Q2212.41 156.029 2214.68 154.826 L2214.68 158.853 Q2212.39 159.826 2209.98 160.335 Q2207.58 160.844 2205.1 160.844 Q2198.9 160.844 2195.26 157.233 Q2191.65 153.622 2191.65 147.465 Q2191.65 141.099 2195.08 137.372 Q2198.53 133.622 2204.36 133.622 Q2209.59 133.622 2212.62 137.002 Q2215.68 140.358 2215.68 146.145 M2211.42 144.895 Q2211.37 141.4 2209.45 139.316 Q2207.55 137.233 2204.41 137.233 Q2200.84 137.233 2198.69 139.247 Q2196.56 141.261 2196.23 144.918 L2211.42 144.895 Z" fill="#000000" fill-rule="evenodd" fill-opacity="1" /><path clip-path="url(#clip660)" d="M2239.2 135.011 L2239.2 139.039 Q2237.39 138.113 2235.45 137.65 Q2233.5 137.187 2231.42 137.187 Q2228.25 137.187 2226.65 138.159 Q2225.08 139.131 2225.08 141.076 Q2225.08 142.557 2226.21 143.414 Q2227.35 144.247 2230.77 145.011 L2232.23 145.335 Q2236.77 146.307 2238.66 148.09 Q2240.59 149.849 2240.59 153.02 Q2240.59 156.631 2237.72 158.738 Q2234.87 160.844 2229.87 160.844 Q2227.79 160.844 2225.52 160.427 Q2223.27 160.034 2220.77 159.224 L2220.77 154.826 Q2223.13 156.052 2225.42 156.677 Q2227.72 157.279 2229.96 157.279 Q2232.97 157.279 2234.59 156.261 Q2236.21 155.219 2236.21 153.344 Q2236.21 151.608 2235.03 150.682 Q2233.87 149.756 2229.91 148.9 L2228.43 148.552 Q2224.47 147.719 2222.72 146.006 Q2220.96 144.27 2220.96 141.261 Q2220.96 137.603 2223.55 135.613 Q2226.14 133.622 2230.91 133.622 Q2233.27 133.622 2235.35 133.969 Q2237.44 134.316 2239.2 135.011 Z" fill="#000000" fill-rule="evenodd" fill-opacity="1" /><polyline clip-path="url(#clip660)" style="stroke:#e26f46; stroke-linecap:round; stroke-linejoin:round; stroke-width:4; stroke-opacity:1; fill:none" points="
  1830.61,194.733 1965.21,194.733 
  "/>
<path clip-path="url(#clip660)" d="M1991.93 208.124 L1991.93 221.874 L1987.65 221.874 L1987.65 186.087 L1991.93 186.087 L1991.93 190.022 Q1993.27 187.707 1995.31 186.596 Q1997.37 185.462 2000.22 185.462 Q2004.94 185.462 2007.88 189.212 Q2010.84 192.962 2010.84 199.073 Q2010.84 205.184 2007.88 208.934 Q2004.94 212.684 2000.22 212.684 Q1997.37 212.684 1995.31 211.573 Q1993.27 210.439 1991.93 208.124 M2006.42 199.073 Q2006.42 194.374 2004.48 191.712 Q2002.55 189.027 1999.18 189.027 Q1995.8 189.027 1993.85 191.712 Q1991.93 194.374 1991.93 199.073 Q1991.93 203.772 1993.85 206.457 Q1995.8 209.119 1999.18 209.119 Q2002.55 209.119 2004.48 206.457 Q2006.42 203.772 2006.42 199.073 Z" fill="#000000" fill-rule="evenodd" fill-opacity="1" /><path clip-path="url(#clip660)" d="M2029.68 198.98 Q2024.52 198.98 2022.53 200.161 Q2020.54 201.342 2020.54 204.189 Q2020.54 206.457 2022.02 207.8 Q2023.53 209.119 2026.1 209.119 Q2029.64 209.119 2031.77 206.619 Q2033.92 204.096 2033.92 199.93 L2033.92 198.98 L2029.68 198.98 M2038.18 197.221 L2038.18 212.013 L2033.92 212.013 L2033.92 208.078 Q2032.46 210.439 2030.29 211.573 Q2028.11 212.684 2024.96 212.684 Q2020.98 212.684 2018.62 210.462 Q2016.28 208.217 2016.28 204.467 Q2016.28 200.092 2019.2 197.869 Q2022.14 195.647 2027.95 195.647 L2033.92 195.647 L2033.92 195.23 Q2033.92 192.291 2031.98 190.693 Q2030.05 189.073 2026.56 189.073 Q2024.34 189.073 2022.23 189.606 Q2020.12 190.138 2018.18 191.203 L2018.18 187.268 Q2020.52 186.365 2022.72 185.925 Q2024.92 185.462 2027 185.462 Q2032.62 185.462 2035.4 188.379 Q2038.18 191.295 2038.18 197.221 Z" fill="#000000" fill-rule="evenodd" fill-opacity="1" /><path clip-path="url(#clip660)" d="M2063.48 186.851 L2063.48 190.879 Q2061.67 189.953 2059.73 189.49 Q2057.79 189.027 2055.7 189.027 Q2052.53 189.027 2050.93 189.999 Q2049.36 190.971 2049.36 192.916 Q2049.36 194.397 2050.49 195.254 Q2051.63 196.087 2055.05 196.851 L2056.51 197.175 Q2061.05 198.147 2062.95 199.93 Q2064.87 201.689 2064.87 204.86 Q2064.87 208.471 2062 210.578 Q2059.15 212.684 2054.15 212.684 Q2052.07 212.684 2049.8 212.267 Q2047.55 211.874 2045.05 211.064 L2045.05 206.666 Q2047.42 207.892 2049.71 208.517 Q2052 209.119 2054.24 209.119 Q2057.25 209.119 2058.87 208.101 Q2060.49 207.059 2060.49 205.184 Q2060.49 203.448 2059.31 202.522 Q2058.16 201.596 2054.2 200.74 L2052.72 200.392 Q2048.76 199.559 2047 197.846 Q2045.24 196.11 2045.24 193.101 Q2045.24 189.443 2047.83 187.453 Q2050.42 185.462 2055.19 185.462 Q2057.55 185.462 2059.64 185.809 Q2061.72 186.156 2063.48 186.851 Z" fill="#000000" fill-rule="evenodd" fill-opacity="1" /><path clip-path="url(#clip660)" d="M2088.18 186.851 L2088.18 190.879 Q2086.37 189.953 2084.43 189.49 Q2082.48 189.027 2080.4 189.027 Q2077.23 189.027 2075.63 189.999 Q2074.06 190.971 2074.06 192.916 Q2074.06 194.397 2075.19 195.254 Q2076.33 196.087 2079.75 196.851 L2081.21 197.175 Q2085.75 198.147 2087.65 199.93 Q2089.57 201.689 2089.57 204.86 Q2089.57 208.471 2086.7 210.578 Q2083.85 212.684 2078.85 212.684 Q2076.77 212.684 2074.5 212.267 Q2072.25 211.874 2069.75 211.064 L2069.75 206.666 Q2072.11 207.892 2074.41 208.517 Q2076.7 209.119 2078.94 209.119 Q2081.95 209.119 2083.57 208.101 Q2085.19 207.059 2085.19 205.184 Q2085.19 203.448 2084.01 202.522 Q2082.86 201.596 2078.9 200.74 L2077.42 200.392 Q2073.46 199.559 2071.7 197.846 Q2069.94 196.11 2069.94 193.101 Q2069.94 189.443 2072.53 187.453 Q2075.12 185.462 2079.89 185.462 Q2082.25 185.462 2084.34 185.809 Q2086.42 186.156 2088.18 186.851 Z" fill="#000000" fill-rule="evenodd" fill-opacity="1" /><path clip-path="url(#clip660)" d="M2118.53 197.985 L2118.53 200.068 L2098.94 200.068 Q2099.22 204.467 2101.58 206.781 Q2103.97 209.073 2108.2 209.073 Q2110.66 209.073 2112.95 208.471 Q2115.26 207.869 2117.53 206.666 L2117.53 210.693 Q2115.24 211.666 2112.83 212.175 Q2110.42 212.684 2107.95 212.684 Q2101.74 212.684 2098.11 209.073 Q2094.5 205.462 2094.5 199.305 Q2094.5 192.939 2097.92 189.212 Q2101.37 185.462 2107.21 185.462 Q2112.44 185.462 2115.47 188.842 Q2118.53 192.198 2118.53 197.985 M2114.27 196.735 Q2114.22 193.24 2112.3 191.156 Q2110.4 189.073 2107.25 189.073 Q2103.69 189.073 2101.54 191.087 Q2099.41 193.101 2099.08 196.758 L2114.27 196.735 Z" fill="#000000" fill-rule="evenodd" fill-opacity="1" /><path clip-path="url(#clip660)" d="M2140.54 190.068 Q2139.82 189.652 2138.97 189.467 Q2138.13 189.258 2137.11 189.258 Q2133.5 189.258 2131.56 191.619 Q2129.64 193.957 2129.64 198.355 L2129.64 212.013 L2125.36 212.013 L2125.36 186.087 L2129.64 186.087 L2129.64 190.115 Q2130.98 187.754 2133.13 186.619 Q2135.29 185.462 2138.36 185.462 Q2138.8 185.462 2139.34 185.531 Q2139.87 185.578 2140.52 185.694 L2140.54 190.068 Z" fill="#000000" fill-rule="evenodd" fill-opacity="1" /><path clip-path="url(#clip660)" d="M2161.54 186.851 L2161.54 190.879 Q2159.73 189.953 2157.79 189.49 Q2155.84 189.027 2153.76 189.027 Q2150.59 189.027 2148.99 189.999 Q2147.42 190.971 2147.42 192.916 Q2147.42 194.397 2148.55 195.254 Q2149.68 196.087 2153.11 196.851 L2154.57 197.175 Q2159.1 198.147 2161 199.93 Q2162.92 201.689 2162.92 204.86 Q2162.92 208.471 2160.05 210.578 Q2157.21 212.684 2152.21 212.684 Q2150.12 212.684 2147.85 212.267 Q2145.61 211.874 2143.11 211.064 L2143.11 206.666 Q2145.47 207.892 2147.76 208.517 Q2150.05 209.119 2152.3 209.119 Q2155.31 209.119 2156.93 208.101 Q2158.55 207.059 2158.55 205.184 Q2158.55 203.448 2157.37 202.522 Q2156.21 201.596 2152.25 200.74 L2150.77 200.392 Q2146.81 199.559 2145.05 197.846 Q2143.29 196.11 2143.29 193.101 Q2143.29 189.443 2145.89 187.453 Q2148.48 185.462 2153.25 185.462 Q2155.61 185.462 2157.69 185.809 Q2159.78 186.156 2161.54 186.851 Z" fill="#000000" fill-rule="evenodd" fill-opacity="1" /></svg>
