<?xml version="1.0" encoding="utf-8"?>
<svg xmlns="http://www.w3.org/2000/svg" xmlns:xlink="http://www.w3.org/1999/xlink" width="600" height="400" viewBox="0 0 2400 1600">
<defs>
  <clipPath id="clip410">
    <rect x="0" y="0" width="2400" height="1600"/>
  </clipPath>
</defs>
<path clip-path="url(#clip410)" d="
M0 1600 L2400 1600 L2400 0 L0 0  Z
  " fill="#ffffff" fill-rule="evenodd" fill-opacity="1"/>
<defs>
  <clipPath id="clip411">
    <rect x="480" y="0" width="1681" height="1600"/>
  </clipPath>
</defs>
<path clip-path="url(#clip410)" d="
M206.992 1401.01 L2352.76 1401.01 L2352.76 47.2441 L206.992 47.2441  Z
  " fill="#ffffff" fill-rule="evenodd" fill-opacity="1"/>
<defs>
  <clipPath id="clip412">
    <rect x="206" y="47" width="2147" height="1355"/>
  </clipPath>
</defs>
<polyline clip-path="url(#clip412)" style="stroke:#000000; stroke-width:2; stroke-opacity:0.1; fill:none" points="
  470.152,1401.01 470.152,47.2441 
  "/>
<polyline clip-path="url(#clip412)" style="stroke:#000000; stroke-width:2; stroke-opacity:0.1; fill:none" points="
  875.013,1401.01 875.013,47.2441 
  "/>
<polyline clip-path="url(#clip412)" style="stroke:#000000; stroke-width:2; stroke-opacity:0.1; fill:none" points="
  1279.87,1401.01 1279.87,47.2441 
  "/>
<polyline clip-path="url(#clip412)" style="stroke:#000000; stroke-width:2; stroke-opacity:0.1; fill:none" points="
  1684.74,1401.01 1684.74,47.2441 
  "/>
<polyline clip-path="url(#clip412)" style="stroke:#000000; stroke-width:2; stroke-opacity:0.1; fill:none" points="
  2089.6,1401.01 2089.6,47.2441 
  "/>
<polyline clip-path="url(#clip410)" style="stroke:#000000; stroke-width:4; stroke-opacity:1; fill:none" points="
  206.992,1401.01 2352.76,1401.01 
  "/>
<polyline clip-path="url(#clip410)" style="stroke:#000000; stroke-width:4; stroke-opacity:1; fill:none" points="
  470.152,1401.01 470.152,1384.76 
  "/>
<polyline clip-path="url(#clip410)" style="stroke:#000000; stroke-width:4; stroke-opacity:1; fill:none" points="
  875.013,1401.01 875.013,1384.76 
  "/>
<polyline clip-path="url(#clip410)" style="stroke:#000000; stroke-width:4; stroke-opacity:1; fill:none" points="
  1279.87,1401.01 1279.87,1384.76 
  "/>
<polyline clip-path="url(#clip410)" style="stroke:#000000; stroke-width:4; stroke-opacity:1; fill:none" points="
  1684.74,1401.01 1684.74,1384.76 
  "/>
<polyline clip-path="url(#clip410)" style="stroke:#000000; stroke-width:4; stroke-opacity:1; fill:none" points="
  2089.6,1401.01 2089.6,1384.76 
  "/>
<path clip-path="url(#clip410)" d="M 0 0 M439.052 1444.85 L468.728 1444.85 L468.728 1448.79 L439.052 1448.79 L439.052 1444.85 Z" fill="#000000" fill-rule="evenodd" fill-opacity="1" /><path clip-path="url(#clip410)" d="M 0 0 M491.668 1431.19 L479.862 1449.64 L491.668 1449.64 L491.668 1431.19 M490.441 1427.12 L496.321 1427.12 L496.321 1449.64 L501.251 1449.64 L501.251 1453.53 L496.321 1453.53 L496.321 1461.68 L491.668 1461.68 L491.668 1453.53 L476.066 1453.53 L476.066 1449.02 L490.441 1427.12 Z" fill="#000000" fill-rule="evenodd" fill-opacity="1" /><path clip-path="url(#clip410)" d="M 0 0 M844.955 1444.85 L874.631 1444.85 L874.631 1448.79 L844.955 1448.79 L844.955 1444.85 Z" fill="#000000" fill-rule="evenodd" fill-opacity="1" /><path clip-path="url(#clip410)" d="M 0 0 M888.751 1457.74 L905.071 1457.74 L905.071 1461.68 L883.126 1461.68 L883.126 1457.74 Q885.788 1454.99 890.372 1450.36 Q894.978 1445.71 896.159 1444.37 Q898.404 1441.84 899.284 1440.11 Q900.186 1438.35 900.186 1436.66 Q900.186 1433.9 898.242 1432.17 Q896.321 1430.43 893.219 1430.43 Q891.02 1430.43 888.566 1431.19 Q886.136 1431.96 883.358 1433.51 L883.358 1428.79 Q886.182 1427.65 888.636 1427.07 Q891.089 1426.49 893.126 1426.49 Q898.497 1426.49 901.691 1429.18 Q904.885 1431.87 904.885 1436.36 Q904.885 1438.49 904.075 1440.41 Q903.288 1442.3 901.182 1444.9 Q900.603 1445.57 897.501 1448.79 Q894.399 1451.98 888.751 1457.74 Z" fill="#000000" fill-rule="evenodd" fill-opacity="1" /><path clip-path="url(#clip410)" d="M 0 0 M1279.87 1430.2 Q1276.26 1430.2 1274.43 1433.76 Q1272.63 1437.31 1272.63 1444.43 Q1272.63 1451.54 1274.43 1455.11 Q1276.26 1458.65 1279.87 1458.65 Q1283.51 1458.65 1285.31 1455.11 Q1287.14 1451.54 1287.14 1444.43 Q1287.14 1437.31 1285.31 1433.76 Q1283.51 1430.2 1279.87 1430.2 M1279.87 1426.49 Q1285.68 1426.49 1288.74 1431.1 Q1291.82 1435.68 1291.82 1444.43 Q1291.82 1453.16 1288.74 1457.77 Q1285.68 1462.35 1279.87 1462.35 Q1274.06 1462.35 1270.99 1457.77 Q1267.93 1453.16 1267.93 1444.43 Q1267.93 1435.68 1270.99 1431.1 Q1274.06 1426.49 1279.87 1426.49 Z" fill="#000000" fill-rule="evenodd" fill-opacity="1" /><path clip-path="url(#clip410)" d="M 0 0 M1679.39 1457.74 L1695.71 1457.74 L1695.71 1461.68 L1673.76 1461.68 L1673.76 1457.74 Q1676.42 1454.99 1681.01 1450.36 Q1685.61 1445.71 1686.8 1444.37 Q1689.04 1441.84 1689.92 1440.11 Q1690.82 1438.35 1690.82 1436.66 Q1690.82 1433.9 1688.88 1432.17 Q1686.96 1430.43 1683.86 1430.43 Q1681.66 1430.43 1679.2 1431.19 Q1676.77 1431.96 1673.99 1433.51 L1673.99 1428.79 Q1676.82 1427.65 1679.27 1427.07 Q1681.73 1426.49 1683.76 1426.49 Q1689.13 1426.49 1692.33 1429.18 Q1695.52 1431.87 1695.52 1436.36 Q1695.52 1438.49 1694.71 1440.41 Q1693.92 1442.3 1691.82 1444.9 Q1691.24 1445.57 1688.14 1448.79 Q1685.04 1451.98 1679.39 1457.74 Z" fill="#000000" fill-rule="evenodd" fill-opacity="1" /><path clip-path="url(#clip410)" d="M 0 0 M2092.61 1431.19 L2080.8 1449.64 L2092.61 1449.64 L2092.61 1431.19 M2091.38 1427.12 L2097.26 1427.12 L2097.26 1449.64 L2102.19 1449.64 L2102.19 1453.53 L2097.26 1453.53 L2097.26 1461.68 L2092.61 1461.68 L2092.61 1453.53 L2077 1453.53 L2077 1449.02 L2091.38 1427.12 Z" fill="#000000" fill-rule="evenodd" fill-opacity="1" /><path clip-path="url(#clip410)" d="M 0 0 M1296.49 1510.22 L1283.6 1527.57 L1297.16 1545.87 L1290.25 1545.87 L1279.87 1531.87 L1269.5 1545.87 L1262.59 1545.87 L1276.44 1527.22 L1263.77 1510.22 L1270.68 1510.22 L1280.13 1522.92 L1289.58 1510.22 L1296.49 1510.22 Z" fill="#000000" fill-rule="evenodd" fill-opacity="1" /><polyline clip-path="url(#clip412)" style="stroke:#000000; stroke-width:2; stroke-opacity:0.1; fill:none" points="
  206.992,1365.92 2352.76,1365.92 
  "/>
<polyline clip-path="url(#clip412)" style="stroke:#000000; stroke-width:2; stroke-opacity:0.1; fill:none" points="
  206.992,1039.97 2352.76,1039.97 
  "/>
<polyline clip-path="url(#clip412)" style="stroke:#000000; stroke-width:2; stroke-opacity:0.1; fill:none" points="
  206.992,714.013 2352.76,714.013 
  "/>
<polyline clip-path="url(#clip412)" style="stroke:#000000; stroke-width:2; stroke-opacity:0.1; fill:none" points="
  206.992,388.06 2352.76,388.06 
  "/>
<polyline clip-path="url(#clip412)" style="stroke:#000000; stroke-width:2; stroke-opacity:0.1; fill:none" points="
  206.992,62.1076 2352.76,62.1076 
  "/>
<polyline clip-path="url(#clip410)" style="stroke:#000000; stroke-width:4; stroke-opacity:1; fill:none" points="
  206.992,1401.01 206.992,47.2441 
  "/>
<polyline clip-path="url(#clip410)" style="stroke:#000000; stroke-width:4; stroke-opacity:1; fill:none" points="
  206.992,1365.92 232.741,1365.92 
  "/>
<polyline clip-path="url(#clip410)" style="stroke:#000000; stroke-width:4; stroke-opacity:1; fill:none" points="
  206.992,1039.97 232.741,1039.97 
  "/>
<polyline clip-path="url(#clip410)" style="stroke:#000000; stroke-width:4; stroke-opacity:1; fill:none" points="
  206.992,714.013 232.741,714.013 
  "/>
<polyline clip-path="url(#clip410)" style="stroke:#000000; stroke-width:4; stroke-opacity:1; fill:none" points="
  206.992,388.06 232.741,388.06 
  "/>
<polyline clip-path="url(#clip410)" style="stroke:#000000; stroke-width:4; stroke-opacity:1; fill:none" points="
  206.992,62.1076 232.741,62.1076 
  "/>
<path clip-path="url(#clip410)" d="M 0 0 M83.6546 1351.72 Q80.0435 1351.72 78.2148 1355.28 Q76.4093 1358.82 76.4093 1365.95 Q76.4093 1373.06 78.2148 1376.62 Q80.0435 1380.17 83.6546 1380.17 Q87.2889 1380.17 89.0944 1376.62 Q90.9231 1373.06 90.9231 1365.95 Q90.9231 1358.82 89.0944 1355.28 Q87.2889 1351.72 83.6546 1351.72 M83.6546 1348.01 Q89.4648 1348.01 92.5203 1352.62 Q95.599 1357.2 95.599 1365.95 Q95.599 1374.68 92.5203 1379.29 Q89.4648 1383.87 83.6546 1383.87 Q77.8445 1383.87 74.7658 1379.29 Q71.7103 1374.68 71.7103 1365.95 Q71.7103 1357.2 74.7658 1352.62 Q77.8445 1348.01 83.6546 1348.01 Z" fill="#000000" fill-rule="evenodd" fill-opacity="1" /><path clip-path="url(#clip410)" d="M 0 0 M103.817 1377.32 L108.701 1377.32 L108.701 1383.2 L103.817 1383.2 L103.817 1377.32 Z" fill="#000000" fill-rule="evenodd" fill-opacity="1" /><path clip-path="url(#clip410)" d="M 0 0 M128.886 1351.72 Q125.275 1351.72 123.446 1355.28 Q121.641 1358.82 121.641 1365.95 Q121.641 1373.06 123.446 1376.62 Q125.275 1380.17 128.886 1380.17 Q132.52 1380.17 134.326 1376.62 Q136.154 1373.06 136.154 1365.95 Q136.154 1358.82 134.326 1355.28 Q132.52 1351.72 128.886 1351.72 M128.886 1348.01 Q134.696 1348.01 137.752 1352.62 Q140.83 1357.2 140.83 1365.95 Q140.83 1374.68 137.752 1379.29 Q134.696 1383.87 128.886 1383.87 Q123.076 1383.87 119.997 1379.29 Q116.941 1374.68 116.941 1365.95 Q116.941 1357.2 119.997 1352.62 Q123.076 1348.01 128.886 1348.01 Z" fill="#000000" fill-rule="evenodd" fill-opacity="1" /><path clip-path="url(#clip410)" d="M 0 0 M159.048 1351.72 Q155.437 1351.72 153.608 1355.28 Q151.802 1358.82 151.802 1365.95 Q151.802 1373.06 153.608 1376.62 Q155.437 1380.17 159.048 1380.17 Q162.682 1380.17 164.488 1376.62 Q166.316 1373.06 166.316 1365.95 Q166.316 1358.82 164.488 1355.28 Q162.682 1351.72 159.048 1351.72 M159.048 1348.01 Q164.858 1348.01 167.913 1352.62 Q170.992 1357.2 170.992 1365.95 Q170.992 1374.68 167.913 1379.29 Q164.858 1383.87 159.048 1383.87 Q153.238 1383.87 150.159 1379.29 Q147.103 1374.68 147.103 1365.95 Q147.103 1357.2 150.159 1352.62 Q153.238 1348.01 159.048 1348.01 Z" fill="#000000" fill-rule="evenodd" fill-opacity="1" /><path clip-path="url(#clip410)" d="M 0 0 M84.65 1025.76 Q81.0389 1025.76 79.2102 1029.33 Q77.4047 1032.87 77.4047 1040 Q77.4047 1047.11 79.2102 1050.67 Q81.0389 1054.21 84.65 1054.21 Q88.2842 1054.21 90.0898 1050.67 Q91.9185 1047.11 91.9185 1040 Q91.9185 1032.87 90.0898 1029.33 Q88.2842 1025.76 84.65 1025.76 M84.65 1022.06 Q90.4602 1022.06 93.5157 1026.67 Q96.5944 1031.25 96.5944 1040 Q96.5944 1048.73 93.5157 1053.33 Q90.4602 1057.92 84.65 1057.92 Q78.8398 1057.92 75.7612 1053.33 Q72.7056 1048.73 72.7056 1040 Q72.7056 1031.25 75.7612 1026.67 Q78.8398 1022.06 84.65 1022.06 Z" fill="#000000" fill-rule="evenodd" fill-opacity="1" /><path clip-path="url(#clip410)" d="M 0 0 M104.812 1051.37 L109.696 1051.37 L109.696 1057.25 L104.812 1057.25 L104.812 1051.37 Z" fill="#000000" fill-rule="evenodd" fill-opacity="1" /><path clip-path="url(#clip410)" d="M 0 0 M123.909 1053.31 L140.228 1053.31 L140.228 1057.25 L118.284 1057.25 L118.284 1053.31 Q120.946 1050.56 125.529 1045.93 Q130.136 1041.27 131.316 1039.93 Q133.562 1037.41 134.441 1035.67 Q135.344 1033.91 135.344 1032.22 Q135.344 1029.47 133.4 1027.73 Q131.478 1026 128.377 1026 Q126.178 1026 123.724 1026.76 Q121.293 1027.52 118.516 1029.07 L118.516 1024.35 Q121.34 1023.22 123.793 1022.64 Q126.247 1022.06 128.284 1022.06 Q133.654 1022.06 136.849 1024.75 Q140.043 1027.43 140.043 1031.92 Q140.043 1034.05 139.233 1035.97 Q138.446 1037.87 136.34 1040.46 Q135.761 1041.13 132.659 1044.35 Q129.557 1047.55 123.909 1053.31 Z" fill="#000000" fill-rule="evenodd" fill-opacity="1" /><path clip-path="url(#clip410)" d="M 0 0 M150.089 1022.69 L168.446 1022.69 L168.446 1026.62 L154.372 1026.62 L154.372 1035.09 Q155.39 1034.75 156.409 1034.58 Q157.427 1034.4 158.446 1034.4 Q164.233 1034.4 167.613 1037.57 Q170.992 1040.74 170.992 1046.16 Q170.992 1051.74 167.52 1054.84 Q164.048 1057.92 157.728 1057.92 Q155.552 1057.92 153.284 1057.55 Q151.039 1057.18 148.631 1056.43 L148.631 1051.74 Q150.714 1052.87 152.937 1053.43 Q155.159 1053.98 157.636 1053.98 Q161.64 1053.98 163.978 1051.87 Q166.316 1049.77 166.316 1046.16 Q166.316 1042.55 163.978 1040.44 Q161.64 1038.33 157.636 1038.33 Q155.761 1038.33 153.886 1038.75 Q152.034 1039.17 150.089 1040.05 L150.089 1022.69 Z" fill="#000000" fill-rule="evenodd" fill-opacity="1" /><path clip-path="url(#clip410)" d="M 0 0 M83.6546 699.811 Q80.0435 699.811 78.2148 703.376 Q76.4093 706.918 76.4093 714.047 Q76.4093 721.154 78.2148 724.719 Q80.0435 728.26 83.6546 728.26 Q87.2889 728.26 89.0944 724.719 Q90.9231 721.154 90.9231 714.047 Q90.9231 706.918 89.0944 703.376 Q87.2889 699.811 83.6546 699.811 M83.6546 696.108 Q89.4648 696.108 92.5203 700.714 Q95.599 705.297 95.599 714.047 Q95.599 722.774 92.5203 727.381 Q89.4648 731.964 83.6546 731.964 Q77.8445 731.964 74.7658 727.381 Q71.7103 722.774 71.7103 714.047 Q71.7103 705.297 74.7658 700.714 Q77.8445 696.108 83.6546 696.108 Z" fill="#000000" fill-rule="evenodd" fill-opacity="1" /><path clip-path="url(#clip410)" d="M 0 0 M103.817 725.413 L108.701 725.413 L108.701 731.293 L103.817 731.293 L103.817 725.413 Z" fill="#000000" fill-rule="evenodd" fill-opacity="1" /><path clip-path="url(#clip410)" d="M 0 0 M118.932 696.733 L137.289 696.733 L137.289 700.668 L123.215 700.668 L123.215 709.14 Q124.233 708.793 125.252 708.631 Q126.27 708.445 127.289 708.445 Q133.076 708.445 136.455 711.617 Q139.835 714.788 139.835 720.205 Q139.835 725.783 136.363 728.885 Q132.89 731.964 126.571 731.964 Q124.395 731.964 122.127 731.594 Q119.881 731.223 117.474 730.482 L117.474 725.783 Q119.557 726.918 121.779 727.473 Q124.002 728.029 126.478 728.029 Q130.483 728.029 132.821 725.922 Q135.159 723.816 135.159 720.205 Q135.159 716.594 132.821 714.487 Q130.483 712.381 126.478 712.381 Q124.603 712.381 122.728 712.797 Q120.877 713.214 118.932 714.094 L118.932 696.733 Z" fill="#000000" fill-rule="evenodd" fill-opacity="1" /><path clip-path="url(#clip410)" d="M 0 0 M159.048 699.811 Q155.437 699.811 153.608 703.376 Q151.802 706.918 151.802 714.047 Q151.802 721.154 153.608 724.719 Q155.437 728.26 159.048 728.26 Q162.682 728.26 164.488 724.719 Q166.316 721.154 166.316 714.047 Q166.316 706.918 164.488 703.376 Q162.682 699.811 159.048 699.811 M159.048 696.108 Q164.858 696.108 167.913 700.714 Q170.992 705.297 170.992 714.047 Q170.992 722.774 167.913 727.381 Q164.858 731.964 159.048 731.964 Q153.238 731.964 150.159 727.381 Q147.103 722.774 147.103 714.047 Q147.103 705.297 150.159 700.714 Q153.238 696.108 159.048 696.108 Z" fill="#000000" fill-rule="evenodd" fill-opacity="1" /><path clip-path="url(#clip410)" d="M 0 0 M84.65 373.859 Q81.0389 373.859 79.2102 377.424 Q77.4047 380.965 77.4047 388.095 Q77.4047 395.201 79.2102 398.766 Q81.0389 402.308 84.65 402.308 Q88.2842 402.308 90.0898 398.766 Q91.9185 395.201 91.9185 388.095 Q91.9185 380.965 90.0898 377.424 Q88.2842 373.859 84.65 373.859 M84.65 370.155 Q90.4602 370.155 93.5157 374.762 Q96.5944 379.345 96.5944 388.095 Q96.5944 396.822 93.5157 401.428 Q90.4602 406.011 84.65 406.011 Q78.8398 406.011 75.7612 401.428 Q72.7056 396.822 72.7056 388.095 Q72.7056 379.345 75.7612 374.762 Q78.8398 370.155 84.65 370.155 Z" fill="#000000" fill-rule="evenodd" fill-opacity="1" /><path clip-path="url(#clip410)" d="M 0 0 M104.812 399.46 L109.696 399.46 L109.696 405.34 L104.812 405.34 L104.812 399.46 Z" fill="#000000" fill-rule="evenodd" fill-opacity="1" /><path clip-path="url(#clip410)" d="M 0 0 M118.701 370.78 L140.923 370.78 L140.923 372.771 L128.377 405.34 L123.492 405.34 L135.298 374.715 L118.701 374.715 L118.701 370.78 Z" fill="#000000" fill-rule="evenodd" fill-opacity="1" /><path clip-path="url(#clip410)" d="M 0 0 M150.089 370.78 L168.446 370.78 L168.446 374.715 L154.372 374.715 L154.372 383.187 Q155.39 382.84 156.409 382.678 Q157.427 382.493 158.446 382.493 Q164.233 382.493 167.613 385.664 Q170.992 388.836 170.992 394.252 Q170.992 399.831 167.52 402.933 Q164.048 406.011 157.728 406.011 Q155.552 406.011 153.284 405.641 Q151.039 405.271 148.631 404.53 L148.631 399.831 Q150.714 400.965 152.937 401.521 Q155.159 402.076 157.636 402.076 Q161.64 402.076 163.978 399.97 Q166.316 397.863 166.316 394.252 Q166.316 390.641 163.978 388.535 Q161.64 386.428 157.636 386.428 Q155.761 386.428 153.886 386.845 Q152.034 387.261 150.089 388.141 L150.089 370.78 Z" fill="#000000" fill-rule="evenodd" fill-opacity="1" /><path clip-path="url(#clip410)" d="M 0 0 M74.4649 75.4524 L82.1037 75.4524 L82.1037 49.0868 L73.7936 50.7535 L73.7936 46.4942 L82.0574 44.8276 L86.7333 44.8276 L86.7333 75.4524 L94.3722 75.4524 L94.3722 79.3876 L74.4649 79.3876 L74.4649 75.4524 Z" fill="#000000" fill-rule="evenodd" fill-opacity="1" /><path clip-path="url(#clip410)" d="M 0 0 M103.817 73.508 L108.701 73.508 L108.701 79.3876 L103.817 79.3876 L103.817 73.508 Z" fill="#000000" fill-rule="evenodd" fill-opacity="1" /><path clip-path="url(#clip410)" d="M 0 0 M128.886 47.9062 Q125.275 47.9062 123.446 51.471 Q121.641 55.0127 121.641 62.1423 Q121.641 69.2487 123.446 72.8135 Q125.275 76.3552 128.886 76.3552 Q132.52 76.3552 134.326 72.8135 Q136.154 69.2487 136.154 62.1423 Q136.154 55.0127 134.326 51.471 Q132.52 47.9062 128.886 47.9062 M128.886 44.2026 Q134.696 44.2026 137.752 48.809 Q140.83 53.3923 140.83 62.1423 Q140.83 70.8691 137.752 75.4755 Q134.696 80.0589 128.886 80.0589 Q123.076 80.0589 119.997 75.4755 Q116.941 70.8691 116.941 62.1423 Q116.941 53.3923 119.997 48.809 Q123.076 44.2026 128.886 44.2026 Z" fill="#000000" fill-rule="evenodd" fill-opacity="1" /><path clip-path="url(#clip410)" d="M 0 0 M159.048 47.9062 Q155.437 47.9062 153.608 51.471 Q151.802 55.0127 151.802 62.1423 Q151.802 69.2487 153.608 72.8135 Q155.437 76.3552 159.048 76.3552 Q162.682 76.3552 164.488 72.8135 Q166.316 69.2487 166.316 62.1423 Q166.316 55.0127 164.488 51.471 Q162.682 47.9062 159.048 47.9062 M159.048 44.2026 Q164.858 44.2026 167.913 48.809 Q170.992 53.3923 170.992 62.1423 Q170.992 70.8691 167.913 75.4755 Q164.858 80.0589 159.048 80.0589 Q153.238 80.0589 150.159 75.4755 Q147.103 70.8691 147.103 62.1423 Q147.103 53.3923 150.159 48.809 Q153.238 44.2026 159.048 44.2026 Z" fill="#000000" fill-rule="evenodd" fill-opacity="1" /><path clip-path="url(#clip410)" d="M 0 0 M24.7644 722.439 Q31.1301 724.922 33.0717 727.277 Q35.0132 729.632 35.0132 733.579 L35.0132 738.258 L30.1116 738.258 L30.1116 734.82 Q30.1116 732.401 28.9658 731.065 Q27.82 729.728 23.5549 728.105 L20.8813 727.054 L-14.1937 741.473 L-14.1937 735.266 L13.6881 724.126 L-14.1937 712.986 L-14.1937 706.779 L24.7644 722.439 Z" fill="#000000" fill-rule="evenodd" fill-opacity="1" /><polyline clip-path="url(#clip412)" style="stroke:#009af9; stroke-width:4; stroke-opacity:1; fill:none" points="
  267.721,1362.69 287.49,1362.36 470.283,1357.19 580.134,1350.97 673.012,1342.42 773.903,1327.68 866.916,1306.4 916.775,1290.73 966.635,1271.26 1024.4,1242.95 
  1082.17,1207.28 1133.51,1168.42 1184.84,1122.07 1229.86,1074.9 1274.88,1021.56 1373.04,885.797 1471.79,730.943 1580.96,558.223 1684.84,412.619 1738.85,348.577 
  1792.85,293.397 1838.31,253.711 1883.77,219.833 1939.28,185.592 1994.78,158.162 2046.95,137.602 2099.13,121.227 2182.71,101.838 2266.3,88.6715 2279.16,87.0673 
  2292.03,85.5582 
  "/>
<circle clip-path="url(#clip412)" cx="470.152" cy="1341.67" r="14" fill="#e26f46" fill-rule="evenodd" fill-opacity="1" stroke="#000000" stroke-opacity="1" stroke-width="3.2"/>
<circle clip-path="url(#clip412)" cx="490.395" cy="1329.58" r="14" fill="#e26f46" fill-rule="evenodd" fill-opacity="1" stroke="#000000" stroke-opacity="1" stroke-width="3.2"/>
<circle clip-path="url(#clip412)" cx="510.638" cy="1340.38" r="14" fill="#e26f46" fill-rule="evenodd" fill-opacity="1" stroke="#000000" stroke-opacity="1" stroke-width="3.2"/>
<circle clip-path="url(#clip412)" cx="530.881" cy="1348.18" r="14" fill="#e26f46" fill-rule="evenodd" fill-opacity="1" stroke="#000000" stroke-opacity="1" stroke-width="3.2"/>
<circle clip-path="url(#clip412)" cx="551.124" cy="1358.11" r="14" fill="#e26f46" fill-rule="evenodd" fill-opacity="1" stroke="#000000" stroke-opacity="1" stroke-width="3.2"/>
<circle clip-path="url(#clip412)" cx="571.367" cy="1360.26" r="14" fill="#e26f46" fill-rule="evenodd" fill-opacity="1" stroke="#000000" stroke-opacity="1" stroke-width="3.2"/>
<circle clip-path="url(#clip412)" cx="591.61" cy="1337.31" r="14" fill="#e26f46" fill-rule="evenodd" fill-opacity="1" stroke="#000000" stroke-opacity="1" stroke-width="3.2"/>
<circle clip-path="url(#clip412)" cx="611.853" cy="1349.45" r="14" fill="#e26f46" fill-rule="evenodd" fill-opacity="1" stroke="#000000" stroke-opacity="1" stroke-width="3.2"/>
<circle clip-path="url(#clip412)" cx="632.096" cy="1343.09" r="14" fill="#e26f46" fill-rule="evenodd" fill-opacity="1" stroke="#000000" stroke-opacity="1" stroke-width="3.2"/>
<circle clip-path="url(#clip412)" cx="652.339" cy="1347.19" r="14" fill="#e26f46" fill-rule="evenodd" fill-opacity="1" stroke="#000000" stroke-opacity="1" stroke-width="3.2"/>
<circle clip-path="url(#clip412)" cx="672.582" cy="1346.89" r="14" fill="#e26f46" fill-rule="evenodd" fill-opacity="1" stroke="#000000" stroke-opacity="1" stroke-width="3.2"/>
<circle clip-path="url(#clip412)" cx="692.825" cy="1351.05" r="14" fill="#e26f46" fill-rule="evenodd" fill-opacity="1" stroke="#000000" stroke-opacity="1" stroke-width="3.2"/>
<circle clip-path="url(#clip412)" cx="713.068" cy="1348.98" r="14" fill="#e26f46" fill-rule="evenodd" fill-opacity="1" stroke="#000000" stroke-opacity="1" stroke-width="3.2"/>
<circle clip-path="url(#clip412)" cx="733.312" cy="1330.19" r="14" fill="#e26f46" fill-rule="evenodd" fill-opacity="1" stroke="#000000" stroke-opacity="1" stroke-width="3.2"/>
<circle clip-path="url(#clip412)" cx="753.555" cy="1323.52" r="14" fill="#e26f46" fill-rule="evenodd" fill-opacity="1" stroke="#000000" stroke-opacity="1" stroke-width="3.2"/>
<circle clip-path="url(#clip412)" cx="773.798" cy="1322.9" r="14" fill="#e26f46" fill-rule="evenodd" fill-opacity="1" stroke="#000000" stroke-opacity="1" stroke-width="3.2"/>
<circle clip-path="url(#clip412)" cx="794.041" cy="1327.48" r="14" fill="#e26f46" fill-rule="evenodd" fill-opacity="1" stroke="#000000" stroke-opacity="1" stroke-width="3.2"/>
<circle clip-path="url(#clip412)" cx="814.284" cy="1329.12" r="14" fill="#e26f46" fill-rule="evenodd" fill-opacity="1" stroke="#000000" stroke-opacity="1" stroke-width="3.2"/>
<circle clip-path="url(#clip412)" cx="834.527" cy="1324.21" r="14" fill="#e26f46" fill-rule="evenodd" fill-opacity="1" stroke="#000000" stroke-opacity="1" stroke-width="3.2"/>
<circle clip-path="url(#clip412)" cx="854.77" cy="1319.82" r="14" fill="#e26f46" fill-rule="evenodd" fill-opacity="1" stroke="#000000" stroke-opacity="1" stroke-width="3.2"/>
<circle clip-path="url(#clip412)" cx="875.013" cy="1316.85" r="14" fill="#e26f46" fill-rule="evenodd" fill-opacity="1" stroke="#000000" stroke-opacity="1" stroke-width="3.2"/>
<circle clip-path="url(#clip412)" cx="895.256" cy="1294.52" r="14" fill="#e26f46" fill-rule="evenodd" fill-opacity="1" stroke="#000000" stroke-opacity="1" stroke-width="3.2"/>
<circle clip-path="url(#clip412)" cx="915.499" cy="1297.29" r="14" fill="#e26f46" fill-rule="evenodd" fill-opacity="1" stroke="#000000" stroke-opacity="1" stroke-width="3.2"/>
<circle clip-path="url(#clip412)" cx="935.742" cy="1295.3" r="14" fill="#e26f46" fill-rule="evenodd" fill-opacity="1" stroke="#000000" stroke-opacity="1" stroke-width="3.2"/>
<circle clip-path="url(#clip412)" cx="955.985" cy="1272.15" r="14" fill="#e26f46" fill-rule="evenodd" fill-opacity="1" stroke="#000000" stroke-opacity="1" stroke-width="3.2"/>
<circle clip-path="url(#clip412)" cx="976.228" cy="1247.14" r="14" fill="#e26f46" fill-rule="evenodd" fill-opacity="1" stroke="#000000" stroke-opacity="1" stroke-width="3.2"/>
<circle clip-path="url(#clip412)" cx="996.471" cy="1280.65" r="14" fill="#e26f46" fill-rule="evenodd" fill-opacity="1" stroke="#000000" stroke-opacity="1" stroke-width="3.2"/>
<circle clip-path="url(#clip412)" cx="1016.71" cy="1285.35" r="14" fill="#e26f46" fill-rule="evenodd" fill-opacity="1" stroke="#000000" stroke-opacity="1" stroke-width="3.2"/>
<circle clip-path="url(#clip412)" cx="1036.96" cy="1225.66" r="14" fill="#e26f46" fill-rule="evenodd" fill-opacity="1" stroke="#000000" stroke-opacity="1" stroke-width="3.2"/>
<circle clip-path="url(#clip412)" cx="1057.2" cy="1193.51" r="14" fill="#e26f46" fill-rule="evenodd" fill-opacity="1" stroke="#000000" stroke-opacity="1" stroke-width="3.2"/>
<circle clip-path="url(#clip412)" cx="1077.44" cy="1221.86" r="14" fill="#e26f46" fill-rule="evenodd" fill-opacity="1" stroke="#000000" stroke-opacity="1" stroke-width="3.2"/>
<circle clip-path="url(#clip412)" cx="1097.69" cy="1191.77" r="14" fill="#e26f46" fill-rule="evenodd" fill-opacity="1" stroke="#000000" stroke-opacity="1" stroke-width="3.2"/>
<circle clip-path="url(#clip412)" cx="1117.93" cy="1183" r="14" fill="#e26f46" fill-rule="evenodd" fill-opacity="1" stroke="#000000" stroke-opacity="1" stroke-width="3.2"/>
<circle clip-path="url(#clip412)" cx="1138.17" cy="1134.11" r="14" fill="#e26f46" fill-rule="evenodd" fill-opacity="1" stroke="#000000" stroke-opacity="1" stroke-width="3.2"/>
<circle clip-path="url(#clip412)" cx="1158.42" cy="1159.92" r="14" fill="#e26f46" fill-rule="evenodd" fill-opacity="1" stroke="#000000" stroke-opacity="1" stroke-width="3.2"/>
<circle clip-path="url(#clip412)" cx="1178.66" cy="1127.2" r="14" fill="#e26f46" fill-rule="evenodd" fill-opacity="1" stroke="#000000" stroke-opacity="1" stroke-width="3.2"/>
<circle clip-path="url(#clip412)" cx="1198.9" cy="1130.74" r="14" fill="#e26f46" fill-rule="evenodd" fill-opacity="1" stroke="#000000" stroke-opacity="1" stroke-width="3.2"/>
<circle clip-path="url(#clip412)" cx="1219.14" cy="1098.17" r="14" fill="#e26f46" fill-rule="evenodd" fill-opacity="1" stroke="#000000" stroke-opacity="1" stroke-width="3.2"/>
<circle clip-path="url(#clip412)" cx="1239.39" cy="1067.43" r="14" fill="#e26f46" fill-rule="evenodd" fill-opacity="1" stroke="#000000" stroke-opacity="1" stroke-width="3.2"/>
<circle clip-path="url(#clip412)" cx="1259.63" cy="1029.69" r="14" fill="#e26f46" fill-rule="evenodd" fill-opacity="1" stroke="#000000" stroke-opacity="1" stroke-width="3.2"/>
<circle clip-path="url(#clip412)" cx="1279.87" cy="1029.93" r="14" fill="#e26f46" fill-rule="evenodd" fill-opacity="1" stroke="#000000" stroke-opacity="1" stroke-width="3.2"/>
<circle clip-path="url(#clip412)" cx="1300.12" cy="993.541" r="14" fill="#e26f46" fill-rule="evenodd" fill-opacity="1" stroke="#000000" stroke-opacity="1" stroke-width="3.2"/>
<circle clip-path="url(#clip412)" cx="1320.36" cy="964.865" r="14" fill="#e26f46" fill-rule="evenodd" fill-opacity="1" stroke="#000000" stroke-opacity="1" stroke-width="3.2"/>
<circle clip-path="url(#clip412)" cx="1340.6" cy="913.323" r="14" fill="#e26f46" fill-rule="evenodd" fill-opacity="1" stroke="#000000" stroke-opacity="1" stroke-width="3.2"/>
<circle clip-path="url(#clip412)" cx="1360.85" cy="898.53" r="14" fill="#e26f46" fill-rule="evenodd" fill-opacity="1" stroke="#000000" stroke-opacity="1" stroke-width="3.2"/>
<circle clip-path="url(#clip412)" cx="1381.09" cy="876.644" r="14" fill="#e26f46" fill-rule="evenodd" fill-opacity="1" stroke="#000000" stroke-opacity="1" stroke-width="3.2"/>
<circle clip-path="url(#clip412)" cx="1401.33" cy="845.106" r="14" fill="#e26f46" fill-rule="evenodd" fill-opacity="1" stroke="#000000" stroke-opacity="1" stroke-width="3.2"/>
<circle clip-path="url(#clip412)" cx="1421.58" cy="791.1" r="14" fill="#e26f46" fill-rule="evenodd" fill-opacity="1" stroke="#000000" stroke-opacity="1" stroke-width="3.2"/>
<circle clip-path="url(#clip412)" cx="1441.82" cy="819.969" r="14" fill="#e26f46" fill-rule="evenodd" fill-opacity="1" stroke="#000000" stroke-opacity="1" stroke-width="3.2"/>
<circle clip-path="url(#clip412)" cx="1462.06" cy="765.356" r="14" fill="#e26f46" fill-rule="evenodd" fill-opacity="1" stroke="#000000" stroke-opacity="1" stroke-width="3.2"/>
<circle clip-path="url(#clip412)" cx="1482.3" cy="711.161" r="14" fill="#e26f46" fill-rule="evenodd" fill-opacity="1" stroke="#000000" stroke-opacity="1" stroke-width="3.2"/>
<circle clip-path="url(#clip412)" cx="1502.55" cy="684.147" r="14" fill="#e26f46" fill-rule="evenodd" fill-opacity="1" stroke="#000000" stroke-opacity="1" stroke-width="3.2"/>
<circle clip-path="url(#clip412)" cx="1522.79" cy="632.185" r="14" fill="#e26f46" fill-rule="evenodd" fill-opacity="1" stroke="#000000" stroke-opacity="1" stroke-width="3.2"/>
<circle clip-path="url(#clip412)" cx="1543.03" cy="601.703" r="14" fill="#e26f46" fill-rule="evenodd" fill-opacity="1" stroke="#000000" stroke-opacity="1" stroke-width="3.2"/>
<circle clip-path="url(#clip412)" cx="1563.28" cy="584.942" r="14" fill="#e26f46" fill-rule="evenodd" fill-opacity="1" stroke="#000000" stroke-opacity="1" stroke-width="3.2"/>
<circle clip-path="url(#clip412)" cx="1583.52" cy="569.214" r="14" fill="#e26f46" fill-rule="evenodd" fill-opacity="1" stroke="#000000" stroke-opacity="1" stroke-width="3.2"/>
<circle clip-path="url(#clip412)" cx="1603.76" cy="518.437" r="14" fill="#e26f46" fill-rule="evenodd" fill-opacity="1" stroke="#000000" stroke-opacity="1" stroke-width="3.2"/>
<circle clip-path="url(#clip412)" cx="1624.01" cy="498.826" r="14" fill="#e26f46" fill-rule="evenodd" fill-opacity="1" stroke="#000000" stroke-opacity="1" stroke-width="3.2"/>
<circle clip-path="url(#clip412)" cx="1644.25" cy="473.478" r="14" fill="#e26f46" fill-rule="evenodd" fill-opacity="1" stroke="#000000" stroke-opacity="1" stroke-width="3.2"/>
<circle clip-path="url(#clip412)" cx="1664.49" cy="447.265" r="14" fill="#e26f46" fill-rule="evenodd" fill-opacity="1" stroke="#000000" stroke-opacity="1" stroke-width="3.2"/>
<circle clip-path="url(#clip412)" cx="1684.74" cy="404.076" r="14" fill="#e26f46" fill-rule="evenodd" fill-opacity="1" stroke="#000000" stroke-opacity="1" stroke-width="3.2"/>
<circle clip-path="url(#clip412)" cx="1704.98" cy="399.72" r="14" fill="#e26f46" fill-rule="evenodd" fill-opacity="1" stroke="#000000" stroke-opacity="1" stroke-width="3.2"/>
<circle clip-path="url(#clip412)" cx="1725.22" cy="365.816" r="14" fill="#e26f46" fill-rule="evenodd" fill-opacity="1" stroke="#000000" stroke-opacity="1" stroke-width="3.2"/>
<circle clip-path="url(#clip412)" cx="1745.46" cy="342.934" r="14" fill="#e26f46" fill-rule="evenodd" fill-opacity="1" stroke="#000000" stroke-opacity="1" stroke-width="3.2"/>
<circle clip-path="url(#clip412)" cx="1765.71" cy="309.048" r="14" fill="#e26f46" fill-rule="evenodd" fill-opacity="1" stroke="#000000" stroke-opacity="1" stroke-width="3.2"/>
<circle clip-path="url(#clip412)" cx="1785.95" cy="306.513" r="14" fill="#e26f46" fill-rule="evenodd" fill-opacity="1" stroke="#000000" stroke-opacity="1" stroke-width="3.2"/>
<circle clip-path="url(#clip412)" cx="1806.19" cy="267.755" r="14" fill="#e26f46" fill-rule="evenodd" fill-opacity="1" stroke="#000000" stroke-opacity="1" stroke-width="3.2"/>
<circle clip-path="url(#clip412)" cx="1826.44" cy="277.304" r="14" fill="#e26f46" fill-rule="evenodd" fill-opacity="1" stroke="#000000" stroke-opacity="1" stroke-width="3.2"/>
<circle clip-path="url(#clip412)" cx="1846.68" cy="244.728" r="14" fill="#e26f46" fill-rule="evenodd" fill-opacity="1" stroke="#000000" stroke-opacity="1" stroke-width="3.2"/>
<circle clip-path="url(#clip412)" cx="1866.92" cy="195.582" r="14" fill="#e26f46" fill-rule="evenodd" fill-opacity="1" stroke="#000000" stroke-opacity="1" stroke-width="3.2"/>
<circle clip-path="url(#clip412)" cx="1887.17" cy="231" r="14" fill="#e26f46" fill-rule="evenodd" fill-opacity="1" stroke="#000000" stroke-opacity="1" stroke-width="3.2"/>
<circle clip-path="url(#clip412)" cx="1907.41" cy="208.319" r="14" fill="#e26f46" fill-rule="evenodd" fill-opacity="1" stroke="#000000" stroke-opacity="1" stroke-width="3.2"/>
<circle clip-path="url(#clip412)" cx="1927.65" cy="181.094" r="14" fill="#e26f46" fill-rule="evenodd" fill-opacity="1" stroke="#000000" stroke-opacity="1" stroke-width="3.2"/>
<circle clip-path="url(#clip412)" cx="1947.89" cy="218.927" r="14" fill="#e26f46" fill-rule="evenodd" fill-opacity="1" stroke="#000000" stroke-opacity="1" stroke-width="3.2"/>
<circle clip-path="url(#clip412)" cx="1968.14" cy="170.748" r="14" fill="#e26f46" fill-rule="evenodd" fill-opacity="1" stroke="#000000" stroke-opacity="1" stroke-width="3.2"/>
<circle clip-path="url(#clip412)" cx="1988.38" cy="169.701" r="14" fill="#e26f46" fill-rule="evenodd" fill-opacity="1" stroke="#000000" stroke-opacity="1" stroke-width="3.2"/>
<circle clip-path="url(#clip412)" cx="2008.62" cy="118.248" r="14" fill="#e26f46" fill-rule="evenodd" fill-opacity="1" stroke="#000000" stroke-opacity="1" stroke-width="3.2"/>
<circle clip-path="url(#clip412)" cx="2028.87" cy="125.68" r="14" fill="#e26f46" fill-rule="evenodd" fill-opacity="1" stroke="#000000" stroke-opacity="1" stroke-width="3.2"/>
<circle clip-path="url(#clip412)" cx="2049.11" cy="132.703" r="14" fill="#e26f46" fill-rule="evenodd" fill-opacity="1" stroke="#000000" stroke-opacity="1" stroke-width="3.2"/>
<circle clip-path="url(#clip412)" cx="2069.35" cy="113.353" r="14" fill="#e26f46" fill-rule="evenodd" fill-opacity="1" stroke="#000000" stroke-opacity="1" stroke-width="3.2"/>
<circle clip-path="url(#clip412)" cx="2089.6" cy="141.948" r="14" fill="#e26f46" fill-rule="evenodd" fill-opacity="1" stroke="#000000" stroke-opacity="1" stroke-width="3.2"/>
<path clip-path="url(#clip410)" d="
M278.518 273.81 L846.147 273.81 L846.147 92.3696 L278.518 92.3696  Z
  " fill="#ffffff" fill-rule="evenodd" fill-opacity="1"/>
<polyline clip-path="url(#clip410)" style="stroke:#000000; stroke-width:4; stroke-opacity:1; fill:none" points="
  278.518,273.81 846.147,273.81 846.147,92.3696 278.518,92.3696 278.518,273.81 
  "/>
<polyline clip-path="url(#clip410)" style="stroke:#009af9; stroke-width:4; stroke-opacity:1; fill:none" points="
  302.359,152.85 445.41,152.85 
  "/>
<path clip-path="url(#clip410)" d="M 0 0 M487.678 144.968 L487.678 148.995 Q485.872 148.069 483.928 147.607 Q481.984 147.144 479.9 147.144 Q476.729 147.144 475.132 148.116 Q473.558 149.088 473.558 151.032 Q473.558 152.514 474.692 153.37 Q475.826 154.204 479.252 154.968 L480.71 155.292 Q485.247 156.264 487.146 158.046 Q489.067 159.806 489.067 162.977 Q489.067 166.588 486.196 168.694 Q483.349 170.801 478.349 170.801 Q476.266 170.801 473.997 170.384 Q471.752 169.991 469.252 169.18 L469.252 164.782 Q471.613 166.009 473.905 166.634 Q476.197 167.236 478.442 167.236 Q481.451 167.236 483.072 166.218 Q484.692 165.176 484.692 163.301 Q484.692 161.565 483.511 160.639 Q482.354 159.713 478.396 158.856 L476.914 158.509 Q472.956 157.676 471.197 155.963 Q469.437 154.227 469.437 151.218 Q469.437 147.56 472.03 145.57 Q474.622 143.579 479.391 143.579 Q481.752 143.579 483.835 143.926 Q485.919 144.273 487.678 144.968 Z" fill="#000000" fill-rule="evenodd" fill-opacity="1" /><path clip-path="url(#clip410)" d="M 0 0 M495.849 144.204 L500.108 144.204 L500.108 170.13 L495.849 170.13 L495.849 144.204 M495.849 134.111 L500.108 134.111 L500.108 139.505 L495.849 139.505 L495.849 134.111 Z" fill="#000000" fill-rule="evenodd" fill-opacity="1" /><path clip-path="url(#clip410)" d="M 0 0 M526.081 156.866 Q526.081 152.236 524.159 149.69 Q522.261 147.144 518.812 147.144 Q515.386 147.144 513.465 149.69 Q511.567 152.236 511.567 156.866 Q511.567 161.472 513.465 164.018 Q515.386 166.565 518.812 166.565 Q522.261 166.565 524.159 164.018 Q526.081 161.472 526.081 156.866 M530.34 166.912 Q530.34 173.532 527.4 176.75 Q524.46 179.991 518.395 179.991 Q516.15 179.991 514.159 179.643 Q512.169 179.319 510.294 178.625 L510.294 174.481 Q512.169 175.5 513.997 175.986 Q515.826 176.472 517.724 176.472 Q521.914 176.472 523.997 174.273 Q526.081 172.097 526.081 167.676 L526.081 165.569 Q524.761 167.861 522.701 168.995 Q520.641 170.13 517.77 170.13 Q513.002 170.13 510.085 166.495 Q507.169 162.861 507.169 156.866 Q507.169 150.847 510.085 147.213 Q513.002 143.579 517.77 143.579 Q520.641 143.579 522.701 144.713 Q524.761 145.847 526.081 148.139 L526.081 144.204 L530.34 144.204 L530.34 166.912 Z" fill="#000000" fill-rule="evenodd" fill-opacity="1" /><path clip-path="url(#clip410)" d="M 0 0 M559.298 149.181 Q560.895 146.31 563.117 144.945 Q565.34 143.579 568.349 143.579 Q572.4 143.579 574.599 146.426 Q576.798 149.25 576.798 154.481 L576.798 170.13 L572.515 170.13 L572.515 154.62 Q572.515 150.894 571.196 149.088 Q569.877 147.282 567.168 147.282 Q563.858 147.282 561.937 149.482 Q560.016 151.681 560.016 155.477 L560.016 170.13 L555.733 170.13 L555.733 154.62 Q555.733 150.87 554.414 149.088 Q553.094 147.282 550.34 147.282 Q547.076 147.282 545.155 149.505 Q543.233 151.704 543.233 155.477 L543.233 170.13 L538.951 170.13 L538.951 144.204 L543.233 144.204 L543.233 148.232 Q544.692 145.847 546.729 144.713 Q548.766 143.579 551.567 143.579 Q554.391 143.579 556.358 145.014 Q558.349 146.449 559.298 149.181 Z" fill="#000000" fill-rule="evenodd" fill-opacity="1" /><path clip-path="url(#clip410)" d="M 0 0 M595.339 147.19 Q591.914 147.19 589.923 149.875 Q587.932 152.537 587.932 157.19 Q587.932 161.843 589.9 164.528 Q591.89 167.19 595.339 167.19 Q598.742 167.19 600.733 164.505 Q602.724 161.819 602.724 157.19 Q602.724 152.583 600.733 149.898 Q598.742 147.19 595.339 147.19 M595.339 143.579 Q600.895 143.579 604.066 147.19 Q607.238 150.801 607.238 157.19 Q607.238 163.556 604.066 167.19 Q600.895 170.801 595.339 170.801 Q589.761 170.801 586.589 167.19 Q583.441 163.556 583.441 157.19 Q583.441 150.801 586.589 147.19 Q589.761 143.579 595.339 143.579 Z" fill="#000000" fill-rule="evenodd" fill-opacity="1" /><path clip-path="url(#clip410)" d="M 0 0 M614.298 144.204 L618.557 144.204 L618.557 170.13 L614.298 170.13 L614.298 144.204 M614.298 134.111 L618.557 134.111 L618.557 139.505 L614.298 139.505 L614.298 134.111 Z" fill="#000000" fill-rule="evenodd" fill-opacity="1" /><path clip-path="url(#clip410)" d="M 0 0 M644.529 148.139 L644.529 134.111 L648.788 134.111 L648.788 170.13 L644.529 170.13 L644.529 166.241 Q643.186 168.555 641.126 169.69 Q639.089 170.801 636.219 170.801 Q631.52 170.801 628.557 167.051 Q625.617 163.301 625.617 157.19 Q625.617 151.079 628.557 147.329 Q631.52 143.579 636.219 143.579 Q639.089 143.579 641.126 144.713 Q643.186 145.824 644.529 148.139 M630.015 157.19 Q630.015 161.889 631.936 164.574 Q633.881 167.236 637.261 167.236 Q640.64 167.236 642.585 164.574 Q644.529 161.889 644.529 157.19 Q644.529 152.491 642.585 149.829 Q640.64 147.144 637.261 147.144 Q633.881 147.144 631.936 149.829 Q630.015 152.491 630.015 157.19 Z" fill="#000000" fill-rule="evenodd" fill-opacity="1" /><path clip-path="url(#clip410)" d="M 0 0 M691.288 145.199 L691.288 149.181 Q689.482 148.185 687.654 147.699 Q685.848 147.19 683.996 147.19 Q679.853 147.19 677.561 149.829 Q675.27 152.444 675.27 157.19 Q675.27 161.935 677.561 164.574 Q679.853 167.19 683.996 167.19 Q685.848 167.19 687.654 166.704 Q689.482 166.194 691.288 165.199 L691.288 169.134 Q689.506 169.968 687.584 170.384 Q685.686 170.801 683.533 170.801 Q677.677 170.801 674.228 167.12 Q670.779 163.44 670.779 157.19 Q670.779 150.847 674.251 147.213 Q677.746 143.579 683.811 143.579 Q685.779 143.579 687.654 143.995 Q689.529 144.389 691.288 145.199 Z" fill="#000000" fill-rule="evenodd" fill-opacity="1" /><path clip-path="url(#clip410)" d="M 0 0 M698.256 159.898 L698.256 144.204 L702.515 144.204 L702.515 159.736 Q702.515 163.417 703.95 165.268 Q705.385 167.097 708.255 167.097 Q711.705 167.097 713.695 164.898 Q715.709 162.699 715.709 158.903 L715.709 144.204 L719.968 144.204 L719.968 170.13 L715.709 170.13 L715.709 166.148 Q714.158 168.509 712.098 169.667 Q710.061 170.801 707.353 170.801 Q702.885 170.801 700.57 168.023 Q698.256 165.245 698.256 159.898 M708.973 143.579 L708.973 143.579 Z" fill="#000000" fill-rule="evenodd" fill-opacity="1" /><path clip-path="url(#clip410)" d="M 0 0 M743.765 148.185 Q743.047 147.769 742.19 147.583 Q741.357 147.375 740.339 147.375 Q736.728 147.375 734.783 149.736 Q732.862 152.074 732.862 156.472 L732.862 170.13 L728.579 170.13 L728.579 144.204 L732.862 144.204 L732.862 148.232 Q734.204 145.87 736.357 144.736 Q738.51 143.579 741.589 143.579 Q742.028 143.579 742.561 143.648 Q743.093 143.695 743.741 143.81 L743.765 148.185 Z" fill="#000000" fill-rule="evenodd" fill-opacity="1" /><path clip-path="url(#clip410)" d="M 0 0 M745.177 144.204 L749.69 144.204 L757.792 165.963 L765.894 144.204 L770.408 144.204 L760.686 170.13 L754.899 170.13 L745.177 144.204 Z" fill="#000000" fill-rule="evenodd" fill-opacity="1" /><path clip-path="url(#clip410)" d="M 0 0 M798.463 156.102 L798.463 158.185 L778.88 158.185 Q779.158 162.583 781.519 164.898 Q783.903 167.19 788.139 167.19 Q790.593 167.19 792.885 166.588 Q795.199 165.986 797.468 164.782 L797.468 168.81 Q795.176 169.782 792.769 170.292 Q790.362 170.801 787.885 170.801 Q781.681 170.801 778.047 167.19 Q774.436 163.579 774.436 157.421 Q774.436 151.056 777.862 147.329 Q781.311 143.579 787.144 143.579 Q792.375 143.579 795.408 146.958 Q798.463 150.315 798.463 156.102 M794.204 154.852 Q794.158 151.357 792.237 149.273 Q790.338 147.19 787.19 147.19 Q783.625 147.19 781.473 149.204 Q779.343 151.218 779.019 154.875 L794.204 154.852 Z" fill="#000000" fill-rule="evenodd" fill-opacity="1" /><circle clip-path="url(#clip410)" cx="373.885" cy="213.33" r="23" fill="#e26f46" fill-rule="evenodd" fill-opacity="1" stroke="#000000" stroke-opacity="1" stroke-width="5.12"/>
<path clip-path="url(#clip410)" d="M 0 0 M481.15 207.67 Q477.724 207.67 475.734 210.355 Q473.743 213.017 473.743 217.67 Q473.743 222.323 475.71 225.008 Q477.701 227.67 481.15 227.67 Q484.553 227.67 486.544 224.985 Q488.534 222.299 488.534 217.67 Q488.534 213.063 486.544 210.378 Q484.553 207.67 481.15 207.67 M481.15 204.059 Q486.706 204.059 489.877 207.67 Q493.048 211.281 493.048 217.67 Q493.048 224.036 489.877 227.67 Q486.706 231.281 481.15 231.281 Q475.572 231.281 472.4 227.67 Q469.252 224.036 469.252 217.67 Q469.252 211.281 472.4 207.67 Q475.572 204.059 481.15 204.059 Z" fill="#000000" fill-rule="evenodd" fill-opacity="1" /><path clip-path="url(#clip410)" d="M 0 0 M518.719 217.67 Q518.719 212.971 516.775 210.309 Q514.854 207.624 511.474 207.624 Q508.095 207.624 506.15 210.309 Q504.229 212.971 504.229 217.67 Q504.229 222.369 506.15 225.054 Q508.095 227.716 511.474 227.716 Q514.854 227.716 516.775 225.054 Q518.719 222.369 518.719 217.67 M504.229 208.619 Q505.571 206.304 507.608 205.193 Q509.669 204.059 512.516 204.059 Q517.238 204.059 520.178 207.809 Q523.141 211.559 523.141 217.67 Q523.141 223.781 520.178 227.531 Q517.238 231.281 512.516 231.281 Q509.669 231.281 507.608 230.17 Q505.571 229.035 504.229 226.721 L504.229 230.61 L499.946 230.61 L499.946 194.591 L504.229 194.591 L504.229 208.619 Z" fill="#000000" fill-rule="evenodd" fill-opacity="1" /><path clip-path="url(#clip410)" d="M 0 0 M546.729 205.448 L546.729 209.475 Q544.923 208.549 542.979 208.087 Q541.034 207.624 538.951 207.624 Q535.78 207.624 534.182 208.596 Q532.608 209.568 532.608 211.512 Q532.608 212.994 533.743 213.85 Q534.877 214.684 538.303 215.448 L539.761 215.772 Q544.298 216.744 546.196 218.526 Q548.117 220.286 548.117 223.457 Q548.117 227.068 545.247 229.174 Q542.4 231.281 537.4 231.281 Q535.317 231.281 533.048 230.864 Q530.803 230.471 528.303 229.66 L528.303 225.262 Q530.664 226.489 532.956 227.114 Q535.247 227.716 537.493 227.716 Q540.502 227.716 542.122 226.698 Q543.742 225.656 543.742 223.781 Q543.742 222.045 542.562 221.119 Q541.405 220.193 537.446 219.336 L535.965 218.989 Q532.006 218.156 530.247 216.443 Q528.488 214.707 528.488 211.698 Q528.488 208.04 531.081 206.05 Q533.673 204.059 538.442 204.059 Q540.803 204.059 542.886 204.406 Q544.969 204.753 546.729 205.448 Z" fill="#000000" fill-rule="evenodd" fill-opacity="1" /><path clip-path="url(#clip410)" d="M 0 0 M577.076 216.582 L577.076 218.665 L557.492 218.665 Q557.77 223.063 560.131 225.378 Q562.516 227.67 566.752 227.67 Q569.205 227.67 571.497 227.068 Q573.812 226.466 576.08 225.262 L576.08 229.29 Q573.789 230.262 571.381 230.772 Q568.974 231.281 566.497 231.281 Q560.293 231.281 556.659 227.67 Q553.048 224.059 553.048 217.901 Q553.048 211.536 556.474 207.809 Q559.923 204.059 565.756 204.059 Q570.988 204.059 574.02 207.438 Q577.076 210.795 577.076 216.582 M572.816 215.332 Q572.77 211.837 570.849 209.753 Q568.951 207.67 565.803 207.67 Q562.238 207.67 560.085 209.684 Q557.955 211.698 557.631 215.355 L572.816 215.332 Z" fill="#000000" fill-rule="evenodd" fill-opacity="1" /><path clip-path="url(#clip410)" d="M 0 0 M599.089 208.665 Q598.372 208.249 597.515 208.063 Q596.682 207.855 595.664 207.855 Q592.052 207.855 590.108 210.216 Q588.187 212.554 588.187 216.952 L588.187 230.61 L583.904 230.61 L583.904 204.684 L588.187 204.684 L588.187 208.712 Q589.529 206.35 591.682 205.216 Q593.835 204.059 596.913 204.059 Q597.353 204.059 597.886 204.128 Q598.418 204.175 599.066 204.29 L599.089 208.665 Z" fill="#000000" fill-rule="evenodd" fill-opacity="1" /><path clip-path="url(#clip410)" d="M 0 0 M600.501 204.684 L605.015 204.684 L613.117 226.443 L621.219 204.684 L625.733 204.684 L616.011 230.61 L610.224 230.61 L600.501 204.684 Z" fill="#000000" fill-rule="evenodd" fill-opacity="1" /><path clip-path="url(#clip410)" d="M 0 0 M653.788 216.582 L653.788 218.665 L634.205 218.665 Q634.483 223.063 636.844 225.378 Q639.228 227.67 643.464 227.67 Q645.918 227.67 648.21 227.068 Q650.524 226.466 652.793 225.262 L652.793 229.29 Q650.501 230.262 648.094 230.772 Q645.686 231.281 643.21 231.281 Q637.006 231.281 633.372 227.67 Q629.761 224.059 629.761 217.901 Q629.761 211.536 633.186 207.809 Q636.636 204.059 642.469 204.059 Q647.7 204.059 650.733 207.438 Q653.788 210.795 653.788 216.582 M649.529 215.332 Q649.483 211.837 647.561 209.753 Q645.663 207.67 642.515 207.67 Q638.95 207.67 636.798 209.684 Q634.668 211.698 634.344 215.355 L649.529 215.332 Z" fill="#000000" fill-rule="evenodd" fill-opacity="1" /><path clip-path="url(#clip410)" d="M 0 0 M677.839 208.619 L677.839 194.591 L682.098 194.591 L682.098 230.61 L677.839 230.61 L677.839 226.721 Q676.496 229.035 674.436 230.17 Q672.399 231.281 669.529 231.281 Q664.83 231.281 661.867 227.531 Q658.927 223.781 658.927 217.67 Q658.927 211.559 661.867 207.809 Q664.83 204.059 669.529 204.059 Q672.399 204.059 674.436 205.193 Q676.496 206.304 677.839 208.619 M663.325 217.67 Q663.325 222.369 665.246 225.054 Q667.191 227.716 670.571 227.716 Q673.95 227.716 675.895 225.054 Q677.839 222.369 677.839 217.67 Q677.839 212.971 675.895 210.309 Q673.95 207.624 670.571 207.624 Q667.191 207.624 665.246 210.309 Q663.325 212.971 663.325 217.67 Z" fill="#000000" fill-rule="evenodd" fill-opacity="1" /></svg>
