<?xml version="1.0" encoding="utf-8"?>
<svg xmlns="http://www.w3.org/2000/svg" xmlns:xlink="http://www.w3.org/1999/xlink" width="600" height="400" viewBox="0 0 2400 1600">
<defs>
  <clipPath id="clip940">
    <rect x="0" y="0" width="2400" height="1600"/>
  </clipPath>
</defs>
<path clip-path="url(#clip940)" d="
M0 1600 L2400 1600 L2400 0 L0 0  Z
  " fill="#ffffff" fill-rule="evenodd" fill-opacity="1"/>
<defs>
  <clipPath id="clip941">
    <rect x="480" y="0" width="1681" height="1600"/>
  </clipPath>
</defs>
<path clip-path="url(#clip940)" d="
M290.526 1382.2 L2352.76 1382.2 L2352.76 47.2441 L290.526 47.2441  Z
  " fill="#ffffff" fill-rule="evenodd" fill-opacity="1"/>
<defs>
  <clipPath id="clip942">
    <rect x="290" y="47" width="2063" height="1336"/>
  </clipPath>
</defs>
<polyline clip-path="url(#clip942)" style="stroke:#000000; stroke-linecap:butt; stroke-linejoin:round; stroke-width:2; stroke-opacity:0.1; fill:none" points="
  543.441,1382.2 543.441,47.2441 
  "/>
<polyline clip-path="url(#clip942)" style="stroke:#000000; stroke-linecap:butt; stroke-linejoin:round; stroke-width:2; stroke-opacity:0.1; fill:none" points="
  932.541,1382.2 932.541,47.2441 
  "/>
<polyline clip-path="url(#clip942)" style="stroke:#000000; stroke-linecap:butt; stroke-linejoin:round; stroke-width:2; stroke-opacity:0.1; fill:none" points="
  1321.64,1382.2 1321.64,47.2441 
  "/>
<polyline clip-path="url(#clip942)" style="stroke:#000000; stroke-linecap:butt; stroke-linejoin:round; stroke-width:2; stroke-opacity:0.1; fill:none" points="
  1710.74,1382.2 1710.74,47.2441 
  "/>
<polyline clip-path="url(#clip942)" style="stroke:#000000; stroke-linecap:butt; stroke-linejoin:round; stroke-width:2; stroke-opacity:0.1; fill:none" points="
  2099.84,1382.2 2099.84,47.2441 
  "/>
<polyline clip-path="url(#clip940)" style="stroke:#000000; stroke-linecap:butt; stroke-linejoin:round; stroke-width:4; stroke-opacity:1; fill:none" points="
  290.526,1382.2 2352.76,1382.2 
  "/>
<polyline clip-path="url(#clip940)" style="stroke:#000000; stroke-linecap:butt; stroke-linejoin:round; stroke-width:4; stroke-opacity:1; fill:none" points="
  543.441,1382.2 543.441,1363.3 
  "/>
<polyline clip-path="url(#clip940)" style="stroke:#000000; stroke-linecap:butt; stroke-linejoin:round; stroke-width:4; stroke-opacity:1; fill:none" points="
  932.541,1382.2 932.541,1363.3 
  "/>
<polyline clip-path="url(#clip940)" style="stroke:#000000; stroke-linecap:butt; stroke-linejoin:round; stroke-width:4; stroke-opacity:1; fill:none" points="
  1321.64,1382.2 1321.64,1363.3 
  "/>
<polyline clip-path="url(#clip940)" style="stroke:#000000; stroke-linecap:butt; stroke-linejoin:round; stroke-width:4; stroke-opacity:1; fill:none" points="
  1710.74,1382.2 1710.74,1363.3 
  "/>
<polyline clip-path="url(#clip940)" style="stroke:#000000; stroke-linecap:butt; stroke-linejoin:round; stroke-width:4; stroke-opacity:1; fill:none" points="
  2099.84,1382.2 2099.84,1363.3 
  "/>
<path clip-path="url(#clip940)" d="M538.094 1440.66 L554.413 1440.66 L554.413 1444.6 L532.469 1444.6 L532.469 1440.66 Q535.131 1437.91 539.714 1433.28 Q544.321 1428.62 545.501 1427.28 Q547.746 1424.76 548.626 1423.02 Q549.529 1421.26 549.529 1419.57 Q549.529 1416.82 547.584 1415.08 Q545.663 1413.35 542.561 1413.35 Q540.362 1413.35 537.909 1414.11 Q535.478 1414.87 532.7 1416.42 L532.7 1411.7 Q535.524 1410.57 537.978 1409.99 Q540.432 1409.41 542.469 1409.41 Q547.839 1409.41 551.034 1412.1 Q554.228 1414.78 554.228 1419.27 Q554.228 1421.4 553.418 1423.32 Q552.631 1425.22 550.524 1427.81 Q549.946 1428.48 546.844 1431.7 Q543.742 1434.9 538.094 1440.66 Z" fill="#000000" fill-rule="evenodd" fill-opacity="1" /><path clip-path="url(#clip940)" d="M935.55 1414.11 L923.745 1432.56 L935.55 1432.56 L935.55 1414.11 M934.323 1410.04 L940.203 1410.04 L940.203 1432.56 L945.133 1432.56 L945.133 1436.45 L940.203 1436.45 L940.203 1444.6 L935.55 1444.6 L935.55 1436.45 L919.948 1436.45 L919.948 1431.93 L934.323 1410.04 Z" fill="#000000" fill-rule="evenodd" fill-opacity="1" /><path clip-path="url(#clip940)" d="M1322.05 1425.45 Q1318.9 1425.45 1317.05 1427.61 Q1315.22 1429.76 1315.22 1433.51 Q1315.22 1437.23 1317.05 1439.41 Q1318.9 1441.56 1322.05 1441.56 Q1325.19 1441.56 1327.02 1439.41 Q1328.87 1437.23 1328.87 1433.51 Q1328.87 1429.76 1327.02 1427.61 Q1325.19 1425.45 1322.05 1425.45 M1331.33 1410.8 L1331.33 1415.06 Q1329.57 1414.23 1327.76 1413.79 Q1325.98 1413.35 1324.22 1413.35 Q1319.59 1413.35 1317.14 1416.47 Q1314.71 1419.6 1314.36 1425.92 Q1315.73 1423.9 1317.79 1422.84 Q1319.85 1421.75 1322.32 1421.75 Q1327.53 1421.75 1330.54 1424.92 Q1333.57 1428.07 1333.57 1433.51 Q1333.57 1438.83 1330.43 1442.05 Q1327.28 1445.27 1322.05 1445.27 Q1316.05 1445.27 1312.88 1440.68 Q1309.71 1436.08 1309.71 1427.35 Q1309.71 1419.16 1313.6 1414.3 Q1317.49 1409.41 1324.04 1409.41 Q1325.8 1409.41 1327.58 1409.76 Q1329.38 1410.11 1331.33 1410.8 Z" fill="#000000" fill-rule="evenodd" fill-opacity="1" /><path clip-path="url(#clip940)" d="M1710.74 1428.18 Q1707.41 1428.18 1705.49 1429.97 Q1703.59 1431.75 1703.59 1434.87 Q1703.59 1438 1705.49 1439.78 Q1707.41 1441.56 1710.74 1441.56 Q1714.07 1441.56 1716 1439.78 Q1717.92 1437.98 1717.92 1434.87 Q1717.92 1431.75 1716 1429.97 Q1714.1 1428.18 1710.74 1428.18 M1706.07 1426.19 Q1703.06 1425.45 1701.37 1423.39 Q1699.7 1421.33 1699.7 1418.37 Q1699.7 1414.23 1702.64 1411.82 Q1705.6 1409.41 1710.74 1409.41 Q1715.9 1409.41 1718.84 1411.82 Q1721.78 1414.23 1721.78 1418.37 Q1721.78 1421.33 1720.09 1423.39 Q1718.43 1425.45 1715.44 1426.19 Q1718.82 1426.98 1720.69 1429.27 Q1722.59 1431.56 1722.59 1434.87 Q1722.59 1439.9 1719.51 1442.58 Q1716.46 1445.27 1710.74 1445.27 Q1705.02 1445.27 1701.94 1442.58 Q1698.89 1439.9 1698.89 1434.87 Q1698.89 1431.56 1700.79 1429.27 Q1702.69 1426.98 1706.07 1426.19 M1704.35 1418.81 Q1704.35 1421.49 1706.02 1423 Q1707.71 1424.5 1710.74 1424.5 Q1713.75 1424.5 1715.44 1423 Q1717.15 1421.49 1717.15 1418.81 Q1717.15 1416.12 1715.44 1414.62 Q1713.75 1413.11 1710.74 1413.11 Q1707.71 1413.11 1706.02 1414.62 Q1704.35 1416.12 1704.35 1418.81 Z" fill="#000000" fill-rule="evenodd" fill-opacity="1" /><path clip-path="url(#clip940)" d="M2074.53 1440.66 L2082.17 1440.66 L2082.17 1414.3 L2073.86 1415.96 L2073.86 1411.7 L2082.12 1410.04 L2086.8 1410.04 L2086.8 1440.66 L2094.44 1440.66 L2094.44 1444.6 L2074.53 1444.6 L2074.53 1440.66 Z" fill="#000000" fill-rule="evenodd" fill-opacity="1" /><path clip-path="url(#clip940)" d="M2113.88 1413.11 Q2110.27 1413.11 2108.44 1416.68 Q2106.63 1420.22 2106.63 1427.35 Q2106.63 1434.46 2108.44 1438.02 Q2110.27 1441.56 2113.88 1441.56 Q2117.51 1441.56 2119.32 1438.02 Q2121.15 1434.46 2121.15 1427.35 Q2121.15 1420.22 2119.32 1416.68 Q2117.51 1413.11 2113.88 1413.11 M2113.88 1409.41 Q2119.69 1409.41 2122.75 1414.02 Q2125.82 1418.6 2125.82 1427.35 Q2125.82 1436.08 2122.75 1440.68 Q2119.69 1445.27 2113.88 1445.27 Q2108.07 1445.27 2104.99 1440.68 Q2101.94 1436.08 2101.94 1427.35 Q2101.94 1418.6 2104.99 1414.02 Q2108.07 1409.41 2113.88 1409.41 Z" fill="#000000" fill-rule="evenodd" fill-opacity="1" /><polyline clip-path="url(#clip942)" style="stroke:#000000; stroke-linecap:butt; stroke-linejoin:round; stroke-width:2; stroke-opacity:0.1; fill:none" points="
  290.526,1078.39 2352.76,1078.39 
  "/>
<polyline clip-path="url(#clip942)" style="stroke:#000000; stroke-linecap:butt; stroke-linejoin:round; stroke-width:2; stroke-opacity:0.1; fill:none" points="
  290.526,745.461 2352.76,745.461 
  "/>
<polyline clip-path="url(#clip942)" style="stroke:#000000; stroke-linecap:butt; stroke-linejoin:round; stroke-width:2; stroke-opacity:0.1; fill:none" points="
  290.526,412.527 2352.76,412.527 
  "/>
<polyline clip-path="url(#clip942)" style="stroke:#000000; stroke-linecap:butt; stroke-linejoin:round; stroke-width:2; stroke-opacity:0.1; fill:none" points="
  290.526,79.5933 2352.76,79.5933 
  "/>
<polyline clip-path="url(#clip940)" style="stroke:#000000; stroke-linecap:butt; stroke-linejoin:round; stroke-width:4; stroke-opacity:1; fill:none" points="
  290.526,1382.2 290.526,47.2441 
  "/>
<polyline clip-path="url(#clip940)" style="stroke:#000000; stroke-linecap:butt; stroke-linejoin:round; stroke-width:4; stroke-opacity:1; fill:none" points="
  290.526,1078.39 309.424,1078.39 
  "/>
<polyline clip-path="url(#clip940)" style="stroke:#000000; stroke-linecap:butt; stroke-linejoin:round; stroke-width:4; stroke-opacity:1; fill:none" points="
  290.526,745.461 309.424,745.461 
  "/>
<polyline clip-path="url(#clip940)" style="stroke:#000000; stroke-linecap:butt; stroke-linejoin:round; stroke-width:4; stroke-opacity:1; fill:none" points="
  290.526,412.527 309.424,412.527 
  "/>
<polyline clip-path="url(#clip940)" style="stroke:#000000; stroke-linecap:butt; stroke-linejoin:round; stroke-width:4; stroke-opacity:1; fill:none" points="
  290.526,79.5933 309.424,79.5933 
  "/>
<path clip-path="url(#clip940)" d="M167.188 1064.19 Q163.577 1064.19 161.749 1067.76 Q159.943 1071.3 159.943 1078.43 Q159.943 1085.54 161.749 1089.1 Q163.577 1092.64 167.188 1092.64 Q170.823 1092.64 172.628 1089.1 Q174.457 1085.54 174.457 1078.43 Q174.457 1071.3 172.628 1067.76 Q170.823 1064.19 167.188 1064.19 M167.188 1060.49 Q172.999 1060.49 176.054 1065.1 Q179.133 1069.68 179.133 1078.43 Q179.133 1087.16 176.054 1091.76 Q172.999 1096.35 167.188 1096.35 Q161.378 1096.35 158.3 1091.76 Q155.244 1087.16 155.244 1078.43 Q155.244 1069.68 158.3 1065.1 Q161.378 1060.49 167.188 1060.49 Z" fill="#000000" fill-rule="evenodd" fill-opacity="1" /><path clip-path="url(#clip940)" d="M187.35 1089.8 L192.235 1089.8 L192.235 1095.67 L187.35 1095.67 L187.35 1089.8 Z" fill="#000000" fill-rule="evenodd" fill-opacity="1" /><path clip-path="url(#clip940)" d="M212.42 1064.19 Q208.809 1064.19 206.98 1067.76 Q205.174 1071.3 205.174 1078.43 Q205.174 1085.54 206.98 1089.1 Q208.809 1092.64 212.42 1092.64 Q216.054 1092.64 217.859 1089.1 Q219.688 1085.54 219.688 1078.43 Q219.688 1071.3 217.859 1067.76 Q216.054 1064.19 212.42 1064.19 M212.42 1060.49 Q218.23 1060.49 221.285 1065.1 Q224.364 1069.68 224.364 1078.43 Q224.364 1087.16 221.285 1091.76 Q218.23 1096.35 212.42 1096.35 Q206.61 1096.35 203.531 1091.76 Q200.475 1087.16 200.475 1078.43 Q200.475 1069.68 203.531 1065.1 Q206.61 1060.49 212.42 1060.49 Z" fill="#000000" fill-rule="evenodd" fill-opacity="1" /><path clip-path="url(#clip940)" d="M242.582 1064.19 Q238.97 1064.19 237.142 1067.76 Q235.336 1071.3 235.336 1078.43 Q235.336 1085.54 237.142 1089.1 Q238.97 1092.64 242.582 1092.64 Q246.216 1092.64 248.021 1089.1 Q249.85 1085.54 249.85 1078.43 Q249.85 1071.3 248.021 1067.76 Q246.216 1064.19 242.582 1064.19 M242.582 1060.49 Q248.392 1060.49 251.447 1065.1 Q254.526 1069.68 254.526 1078.43 Q254.526 1087.16 251.447 1091.76 Q248.392 1096.35 242.582 1096.35 Q236.771 1096.35 233.693 1091.76 Q230.637 1087.16 230.637 1078.43 Q230.637 1069.68 233.693 1065.1 Q236.771 1060.49 242.582 1060.49 Z" fill="#000000" fill-rule="evenodd" fill-opacity="1" /><path clip-path="url(#clip940)" d="M168.184 731.26 Q164.573 731.26 162.744 734.824 Q160.939 738.366 160.939 745.496 Q160.939 752.602 162.744 756.167 Q164.573 759.709 168.184 759.709 Q171.818 759.709 173.624 756.167 Q175.452 752.602 175.452 745.496 Q175.452 738.366 173.624 734.824 Q171.818 731.26 168.184 731.26 M168.184 727.556 Q173.994 727.556 177.05 732.162 Q180.128 736.746 180.128 745.496 Q180.128 754.223 177.05 758.829 Q173.994 763.412 168.184 763.412 Q162.374 763.412 159.295 758.829 Q156.239 754.223 156.239 745.496 Q156.239 736.746 159.295 732.162 Q162.374 727.556 168.184 727.556 Z" fill="#000000" fill-rule="evenodd" fill-opacity="1" /><path clip-path="url(#clip940)" d="M188.346 756.861 L193.23 756.861 L193.23 762.741 L188.346 762.741 L188.346 756.861 Z" fill="#000000" fill-rule="evenodd" fill-opacity="1" /><path clip-path="url(#clip940)" d="M213.415 731.26 Q209.804 731.26 207.975 734.824 Q206.17 738.366 206.17 745.496 Q206.17 752.602 207.975 756.167 Q209.804 759.709 213.415 759.709 Q217.049 759.709 218.855 756.167 Q220.684 752.602 220.684 745.496 Q220.684 738.366 218.855 734.824 Q217.049 731.26 213.415 731.26 M213.415 727.556 Q219.225 727.556 222.281 732.162 Q225.359 736.746 225.359 745.496 Q225.359 754.223 222.281 758.829 Q219.225 763.412 213.415 763.412 Q207.605 763.412 204.526 758.829 Q201.471 754.223 201.471 745.496 Q201.471 736.746 204.526 732.162 Q207.605 727.556 213.415 727.556 Z" fill="#000000" fill-rule="evenodd" fill-opacity="1" /><path clip-path="url(#clip940)" d="M233.623 728.181 L251.98 728.181 L251.98 732.116 L237.906 732.116 L237.906 740.588 Q238.924 740.241 239.943 740.079 Q240.961 739.894 241.98 739.894 Q247.767 739.894 251.146 743.065 Q254.526 746.236 254.526 751.653 Q254.526 757.232 251.054 760.334 Q247.582 763.412 241.262 763.412 Q239.086 763.412 236.818 763.042 Q234.572 762.672 232.165 761.931 L232.165 757.232 Q234.248 758.366 236.471 758.922 Q238.693 759.477 241.17 759.477 Q245.174 759.477 247.512 757.371 Q249.85 755.264 249.85 751.653 Q249.85 748.042 247.512 745.936 Q245.174 743.829 241.17 743.829 Q239.295 743.829 237.42 744.246 Q235.568 744.662 233.623 745.542 L233.623 728.181 Z" fill="#000000" fill-rule="evenodd" fill-opacity="1" /><path clip-path="url(#clip940)" d="M167.188 398.326 Q163.577 398.326 161.749 401.891 Q159.943 405.432 159.943 412.562 Q159.943 419.668 161.749 423.233 Q163.577 426.775 167.188 426.775 Q170.823 426.775 172.628 423.233 Q174.457 419.668 174.457 412.562 Q174.457 405.432 172.628 401.891 Q170.823 398.326 167.188 398.326 M167.188 394.622 Q172.999 394.622 176.054 399.229 Q179.133 403.812 179.133 412.562 Q179.133 421.289 176.054 425.895 Q172.999 430.478 167.188 430.478 Q161.378 430.478 158.3 425.895 Q155.244 421.289 155.244 412.562 Q155.244 403.812 158.3 399.229 Q161.378 394.622 167.188 394.622 Z" fill="#000000" fill-rule="evenodd" fill-opacity="1" /><path clip-path="url(#clip940)" d="M187.35 423.928 L192.235 423.928 L192.235 429.807 L187.35 429.807 L187.35 423.928 Z" fill="#000000" fill-rule="evenodd" fill-opacity="1" /><path clip-path="url(#clip940)" d="M203.23 425.872 L210.869 425.872 L210.869 399.506 L202.559 401.173 L202.559 396.914 L210.823 395.247 L215.498 395.247 L215.498 425.872 L223.137 425.872 L223.137 429.807 L203.23 429.807 L203.23 425.872 Z" fill="#000000" fill-rule="evenodd" fill-opacity="1" /><path clip-path="url(#clip940)" d="M242.582 398.326 Q238.97 398.326 237.142 401.891 Q235.336 405.432 235.336 412.562 Q235.336 419.668 237.142 423.233 Q238.97 426.775 242.582 426.775 Q246.216 426.775 248.021 423.233 Q249.85 419.668 249.85 412.562 Q249.85 405.432 248.021 401.891 Q246.216 398.326 242.582 398.326 M242.582 394.622 Q248.392 394.622 251.447 399.229 Q254.526 403.812 254.526 412.562 Q254.526 421.289 251.447 425.895 Q248.392 430.478 242.582 430.478 Q236.771 430.478 233.693 425.895 Q230.637 421.289 230.637 412.562 Q230.637 403.812 233.693 399.229 Q236.771 394.622 242.582 394.622 Z" fill="#000000" fill-rule="evenodd" fill-opacity="1" /><path clip-path="url(#clip940)" d="M168.184 65.3919 Q164.573 65.3919 162.744 68.9567 Q160.939 72.4984 160.939 79.628 Q160.939 86.7344 162.744 90.2992 Q164.573 93.8409 168.184 93.8409 Q171.818 93.8409 173.624 90.2992 Q175.452 86.7344 175.452 79.628 Q175.452 72.4984 173.624 68.9567 Q171.818 65.3919 168.184 65.3919 M168.184 61.6883 Q173.994 61.6883 177.05 66.2947 Q180.128 70.878 180.128 79.628 Q180.128 88.3548 177.05 92.9612 Q173.994 97.5446 168.184 97.5446 Q162.374 97.5446 159.295 92.9612 Q156.239 88.3548 156.239 79.628 Q156.239 70.878 159.295 66.2947 Q162.374 61.6883 168.184 61.6883 Z" fill="#000000" fill-rule="evenodd" fill-opacity="1" /><path clip-path="url(#clip940)" d="M188.346 90.9937 L193.23 90.9937 L193.23 96.8733 L188.346 96.8733 L188.346 90.9937 Z" fill="#000000" fill-rule="evenodd" fill-opacity="1" /><path clip-path="url(#clip940)" d="M204.225 92.9381 L211.864 92.9381 L211.864 66.5725 L203.554 68.2392 L203.554 63.9799 L211.818 62.3133 L216.494 62.3133 L216.494 92.9381 L224.133 92.9381 L224.133 96.8733 L204.225 96.8733 L204.225 92.9381 Z" fill="#000000" fill-rule="evenodd" fill-opacity="1" /><path clip-path="url(#clip940)" d="M233.623 62.3133 L251.98 62.3133 L251.98 66.2484 L237.906 66.2484 L237.906 74.7206 Q238.924 74.3734 239.943 74.2113 Q240.961 74.0262 241.98 74.0262 Q247.767 74.0262 251.146 77.1974 Q254.526 80.3687 254.526 85.7854 Q254.526 91.364 251.054 94.4659 Q247.582 97.5446 241.262 97.5446 Q239.086 97.5446 236.818 97.1742 Q234.572 96.8038 232.165 96.0631 L232.165 91.364 Q234.248 92.4983 236.471 93.0538 Q238.693 93.6094 241.17 93.6094 Q245.174 93.6094 247.512 91.5029 Q249.85 89.3965 249.85 85.7854 Q249.85 82.1743 247.512 80.0678 Q245.174 77.9613 241.17 77.9613 Q239.295 77.9613 237.42 78.378 Q235.568 78.7947 233.623 79.6743 L233.623 62.3133 Z" fill="#000000" fill-rule="evenodd" fill-opacity="1" /><circle clip-path="url(#clip942)" cx="348.891" cy="1055.11" r="14" fill="#009af9" fill-rule="evenodd" fill-opacity="1" stroke="#000000" stroke-opacity="1" stroke-width="3.2"/>
<circle clip-path="url(#clip942)" cx="543.441" cy="705.881" r="14" fill="#009af9" fill-rule="evenodd" fill-opacity="1" stroke="#000000" stroke-opacity="1" stroke-width="3.2"/>
<circle clip-path="url(#clip942)" cx="737.991" cy="434.257" r="14" fill="#009af9" fill-rule="evenodd" fill-opacity="1" stroke="#000000" stroke-opacity="1" stroke-width="3.2"/>
<circle clip-path="url(#clip942)" cx="932.541" cy="240.24" r="14" fill="#009af9" fill-rule="evenodd" fill-opacity="1" stroke="#000000" stroke-opacity="1" stroke-width="3.2"/>
<circle clip-path="url(#clip942)" cx="1127.09" cy="123.829" r="14" fill="#009af9" fill-rule="evenodd" fill-opacity="1" stroke="#000000" stroke-opacity="1" stroke-width="3.2"/>
<circle clip-path="url(#clip942)" cx="1321.64" cy="85.0257" r="14" fill="#009af9" fill-rule="evenodd" fill-opacity="1" stroke="#000000" stroke-opacity="1" stroke-width="3.2"/>
<circle clip-path="url(#clip942)" cx="1516.19" cy="123.829" r="14" fill="#009af9" fill-rule="evenodd" fill-opacity="1" stroke="#000000" stroke-opacity="1" stroke-width="3.2"/>
<circle clip-path="url(#clip942)" cx="1710.74" cy="240.24" r="14" fill="#009af9" fill-rule="evenodd" fill-opacity="1" stroke="#000000" stroke-opacity="1" stroke-width="3.2"/>
<circle clip-path="url(#clip942)" cx="1905.29" cy="434.257" r="14" fill="#009af9" fill-rule="evenodd" fill-opacity="1" stroke="#000000" stroke-opacity="1" stroke-width="3.2"/>
<circle clip-path="url(#clip942)" cx="2099.84" cy="705.881" r="14" fill="#009af9" fill-rule="evenodd" fill-opacity="1" stroke="#000000" stroke-opacity="1" stroke-width="3.2"/>
<circle clip-path="url(#clip942)" cx="2294.39" cy="1055.11" r="14" fill="#009af9" fill-rule="evenodd" fill-opacity="1" stroke="#000000" stroke-opacity="1" stroke-width="3.2"/>
<circle clip-path="url(#clip942)" cx="348.891" cy="1265.94" r="14" fill="#e26f46" fill-rule="evenodd" fill-opacity="1" stroke="#000000" stroke-opacity="1" stroke-width="3.2"/>
<circle clip-path="url(#clip942)" cx="543.441" cy="1343.55" r="14" fill="#e26f46" fill-rule="evenodd" fill-opacity="1" stroke="#000000" stroke-opacity="1" stroke-width="3.2"/>
<circle clip-path="url(#clip942)" cx="737.991" cy="1344.41" r="14" fill="#e26f46" fill-rule="evenodd" fill-opacity="1" stroke="#000000" stroke-opacity="1" stroke-width="3.2"/>
<circle clip-path="url(#clip942)" cx="932.541" cy="1287.72" r="14" fill="#e26f46" fill-rule="evenodd" fill-opacity="1" stroke="#000000" stroke-opacity="1" stroke-width="3.2"/>
<circle clip-path="url(#clip942)" cx="1127.09" cy="1192.65" r="14" fill="#e26f46" fill-rule="evenodd" fill-opacity="1" stroke="#000000" stroke-opacity="1" stroke-width="3.2"/>
<circle clip-path="url(#clip942)" cx="1321.64" cy="1078.39" r="14" fill="#e26f46" fill-rule="evenodd" fill-opacity="1" stroke="#000000" stroke-opacity="1" stroke-width="3.2"/>
<circle clip-path="url(#clip942)" cx="1516.19" cy="964.14" r="14" fill="#e26f46" fill-rule="evenodd" fill-opacity="1" stroke="#000000" stroke-opacity="1" stroke-width="3.2"/>
<circle clip-path="url(#clip942)" cx="1710.74" cy="869.072" r="14" fill="#e26f46" fill-rule="evenodd" fill-opacity="1" stroke="#000000" stroke-opacity="1" stroke-width="3.2"/>
<circle clip-path="url(#clip942)" cx="1905.29" cy="812.375" r="14" fill="#e26f46" fill-rule="evenodd" fill-opacity="1" stroke="#000000" stroke-opacity="1" stroke-width="3.2"/>
<circle clip-path="url(#clip942)" cx="2099.84" cy="813.238" r="14" fill="#e26f46" fill-rule="evenodd" fill-opacity="1" stroke="#000000" stroke-opacity="1" stroke-width="3.2"/>
<circle clip-path="url(#clip942)" cx="2294.39" cy="890.845" r="14" fill="#e26f46" fill-rule="evenodd" fill-opacity="1" stroke="#000000" stroke-opacity="1" stroke-width="3.2"/>
<circle clip-path="url(#clip942)" cx="348.891" cy="1020.19" r="14" fill="#3da44d" fill-rule="evenodd" fill-opacity="1" stroke="#000000" stroke-opacity="1" stroke-width="3.2"/>
<circle clip-path="url(#clip942)" cx="543.441" cy="1055.11" r="14" fill="#3da44d" fill-rule="evenodd" fill-opacity="1" stroke="#000000" stroke-opacity="1" stroke-width="3.2"/>
<circle clip-path="url(#clip942)" cx="737.991" cy="1082.28" r="14" fill="#3da44d" fill-rule="evenodd" fill-opacity="1" stroke="#000000" stroke-opacity="1" stroke-width="3.2"/>
<circle clip-path="url(#clip942)" cx="932.541" cy="1101.68" r="14" fill="#3da44d" fill-rule="evenodd" fill-opacity="1" stroke="#000000" stroke-opacity="1" stroke-width="3.2"/>
<circle clip-path="url(#clip942)" cx="1127.09" cy="1113.32" r="14" fill="#3da44d" fill-rule="evenodd" fill-opacity="1" stroke="#000000" stroke-opacity="1" stroke-width="3.2"/>
<circle clip-path="url(#clip942)" cx="1321.64" cy="1117.2" r="14" fill="#3da44d" fill-rule="evenodd" fill-opacity="1" stroke="#000000" stroke-opacity="1" stroke-width="3.2"/>
<circle clip-path="url(#clip942)" cx="1516.19" cy="1113.32" r="14" fill="#3da44d" fill-rule="evenodd" fill-opacity="1" stroke="#000000" stroke-opacity="1" stroke-width="3.2"/>
<circle clip-path="url(#clip942)" cx="1710.74" cy="1101.68" r="14" fill="#3da44d" fill-rule="evenodd" fill-opacity="1" stroke="#000000" stroke-opacity="1" stroke-width="3.2"/>
<circle clip-path="url(#clip942)" cx="1905.29" cy="1082.28" r="14" fill="#3da44d" fill-rule="evenodd" fill-opacity="1" stroke="#000000" stroke-opacity="1" stroke-width="3.2"/>
<circle clip-path="url(#clip942)" cx="2099.84" cy="1055.11" r="14" fill="#3da44d" fill-rule="evenodd" fill-opacity="1" stroke="#000000" stroke-opacity="1" stroke-width="3.2"/>
<circle clip-path="url(#clip942)" cx="2294.39" cy="1020.19" r="14" fill="#3da44d" fill-rule="evenodd" fill-opacity="1" stroke="#000000" stroke-opacity="1" stroke-width="3.2"/>
<path clip-path="url(#clip940)" d="
M1299.35 299.102 L2284.01 299.102 L2284.01 91.7425 L1299.35 91.7425  Z
  " fill="#ffffff" fill-rule="evenodd" fill-opacity="1"/>
<polyline clip-path="url(#clip940)" style="stroke:#000000; stroke-linecap:butt; stroke-linejoin:round; stroke-width:4; stroke-opacity:1; fill:none" points="
  1299.35,299.102 2284.01,299.102 2284.01,91.7425 1299.35,91.7425 1299.35,299.102 
  "/>
<circle clip-path="url(#clip940)" cx="1391" cy="143.582" r="23" fill="#009af9" fill-rule="evenodd" fill-opacity="1" stroke="#000000" stroke-opacity="1" stroke-width="5.12"/>
<path clip-path="url(#clip940)" d="M1482.66 134.937 L1486.92 134.937 L1492.24 155.168 L1497.54 134.937 L1502.57 134.937 L1507.89 155.168 L1513.19 134.937 L1517.45 134.937 L1510.67 160.862 L1505.65 160.862 L1500.07 139.613 L1494.46 160.862 L1489.44 160.862 L1482.66 134.937 Z" fill="#000000" fill-rule="evenodd" fill-opacity="1" /><path clip-path="url(#clip940)" d="M1523.91 134.937 L1528.17 134.937 L1528.17 160.862 L1523.91 160.862 L1523.91 134.937 M1523.91 124.844 L1528.17 124.844 L1528.17 130.238 L1523.91 130.238 L1523.91 124.844 Z" fill="#000000" fill-rule="evenodd" fill-opacity="1" /><path clip-path="url(#clip940)" d="M1558.63 145.214 L1558.63 160.862 L1554.37 160.862 L1554.37 145.353 Q1554.37 141.673 1552.94 139.844 Q1551.5 138.015 1548.63 138.015 Q1545.18 138.015 1543.19 140.214 Q1541.2 142.414 1541.2 146.21 L1541.2 160.862 L1536.92 160.862 L1536.92 134.937 L1541.2 134.937 L1541.2 138.964 Q1542.73 136.627 1544.79 135.469 Q1546.87 134.312 1549.58 134.312 Q1554.05 134.312 1556.34 137.089 Q1558.63 139.844 1558.63 145.214 Z" fill="#000000" fill-rule="evenodd" fill-opacity="1" /><path clip-path="url(#clip940)" d="M1584.19 138.872 L1584.19 124.844 L1588.45 124.844 L1588.45 160.862 L1584.19 160.862 L1584.19 156.974 Q1582.84 159.288 1580.78 160.423 Q1578.75 161.534 1575.88 161.534 Q1571.18 161.534 1568.21 157.784 Q1565.27 154.034 1565.27 147.923 Q1565.27 141.812 1568.21 138.062 Q1571.18 134.312 1575.88 134.312 Q1578.75 134.312 1580.78 135.446 Q1582.84 136.557 1584.19 138.872 M1569.67 147.923 Q1569.67 152.622 1571.59 155.307 Q1573.54 157.969 1576.92 157.969 Q1580.3 157.969 1582.24 155.307 Q1584.19 152.622 1584.19 147.923 Q1584.19 143.224 1582.24 140.562 Q1580.3 137.877 1576.92 137.877 Q1573.54 137.877 1571.59 140.562 Q1569.67 143.224 1569.67 147.923 Z" fill="#000000" fill-rule="evenodd" fill-opacity="1" /><path clip-path="url(#clip940)" d="M1607.27 137.923 Q1603.84 137.923 1601.85 140.608 Q1599.86 143.27 1599.86 147.923 Q1599.86 152.575 1601.83 155.261 Q1603.82 157.923 1607.27 157.923 Q1610.67 157.923 1612.66 155.238 Q1614.65 152.552 1614.65 147.923 Q1614.65 143.316 1612.66 140.631 Q1610.67 137.923 1607.27 137.923 M1607.27 134.312 Q1612.82 134.312 1615.99 137.923 Q1619.16 141.534 1619.16 147.923 Q1619.16 154.288 1615.99 157.923 Q1612.82 161.534 1607.27 161.534 Q1601.69 161.534 1598.52 157.923 Q1595.37 154.288 1595.37 147.923 Q1595.37 141.534 1598.52 137.923 Q1601.69 134.312 1607.27 134.312 Z" fill="#000000" fill-rule="evenodd" fill-opacity="1" /><path clip-path="url(#clip940)" d="M1623.75 134.937 L1628.01 134.937 L1633.33 155.168 L1638.63 134.937 L1643.65 134.937 L1648.98 155.168 L1654.28 134.937 L1658.54 134.937 L1651.76 160.862 L1646.73 160.862 L1641.15 139.613 L1635.55 160.862 L1630.53 160.862 L1623.75 134.937 Z" fill="#000000" fill-rule="evenodd" fill-opacity="1" /><path clip-path="url(#clip940)" d="M1693.19 124.844 L1693.19 128.386 L1689.12 128.386 Q1686.82 128.386 1685.92 129.312 Q1685.04 130.238 1685.04 132.645 L1685.04 134.937 L1692.06 134.937 L1692.06 138.247 L1685.04 138.247 L1685.04 160.862 L1680.76 160.862 L1680.76 138.247 L1676.69 138.247 L1676.69 134.937 L1680.76 134.937 L1680.76 133.131 Q1680.76 128.802 1682.77 126.835 Q1684.79 124.844 1689.16 124.844 L1693.19 124.844 Z" fill="#000000" fill-rule="evenodd" fill-opacity="1" /><path clip-path="url(#clip940)" d="M1706.8 137.923 Q1703.38 137.923 1701.38 140.608 Q1699.39 143.27 1699.39 147.923 Q1699.39 152.575 1701.36 155.261 Q1703.35 157.923 1706.8 157.923 Q1710.2 157.923 1712.2 155.238 Q1714.19 152.552 1714.19 147.923 Q1714.19 143.316 1712.2 140.631 Q1710.2 137.923 1706.8 137.923 M1706.8 134.312 Q1712.36 134.312 1715.53 137.923 Q1718.7 141.534 1718.7 147.923 Q1718.7 154.288 1715.53 157.923 Q1712.36 161.534 1706.8 161.534 Q1701.22 161.534 1698.05 157.923 Q1694.9 154.288 1694.9 147.923 Q1694.9 141.534 1698.05 137.923 Q1701.22 134.312 1706.8 134.312 Z" fill="#000000" fill-rule="evenodd" fill-opacity="1" /><path clip-path="url(#clip940)" d="M1740.78 138.918 Q1740.07 138.501 1739.21 138.316 Q1738.38 138.108 1737.36 138.108 Q1733.75 138.108 1731.8 140.469 Q1729.88 142.807 1729.88 147.205 L1729.88 160.862 L1725.6 160.862 L1725.6 134.937 L1729.88 134.937 L1729.88 138.964 Q1731.22 136.603 1733.38 135.469 Q1735.53 134.312 1738.61 134.312 Q1739.05 134.312 1739.58 134.381 Q1740.11 134.427 1740.76 134.543 L1740.78 138.918 Z" fill="#000000" fill-rule="evenodd" fill-opacity="1" /><path clip-path="url(#clip940)" d="M1776.85 135.701 L1776.85 139.728 Q1775.04 138.802 1773.1 138.339 Q1771.15 137.877 1769.07 137.877 Q1765.9 137.877 1764.3 138.849 Q1762.73 139.821 1762.73 141.765 Q1762.73 143.247 1763.86 144.103 Q1765 144.937 1768.42 145.701 L1769.88 146.025 Q1774.42 146.997 1776.32 148.779 Q1778.24 150.538 1778.24 153.71 Q1778.24 157.321 1775.37 159.427 Q1772.52 161.534 1767.52 161.534 Q1765.44 161.534 1763.17 161.117 Q1760.92 160.724 1758.42 159.913 L1758.42 155.515 Q1760.78 156.742 1763.07 157.367 Q1765.37 157.969 1767.61 157.969 Q1770.62 157.969 1772.24 156.95 Q1773.86 155.909 1773.86 154.034 Q1773.86 152.298 1772.68 151.372 Q1771.52 150.446 1767.57 149.589 L1766.08 149.242 Q1762.13 148.409 1760.37 146.696 Q1758.61 144.96 1758.61 141.951 Q1758.61 138.293 1761.2 136.302 Q1763.79 134.312 1768.56 134.312 Q1770.92 134.312 1773 134.659 Q1775.09 135.006 1776.85 135.701 Z" fill="#000000" fill-rule="evenodd" fill-opacity="1" /><path clip-path="url(#clip940)" d="M1805.2 139.914 Q1806.8 137.043 1809.02 135.677 Q1811.25 134.312 1814.25 134.312 Q1818.31 134.312 1820.5 137.159 Q1822.7 139.983 1822.7 145.214 L1822.7 160.862 L1818.42 160.862 L1818.42 145.353 Q1818.42 141.626 1817.1 139.821 Q1815.78 138.015 1813.07 138.015 Q1809.76 138.015 1807.84 140.214 Q1805.92 142.414 1805.92 146.21 L1805.92 160.862 L1801.64 160.862 L1801.64 145.353 Q1801.64 141.603 1800.32 139.821 Q1799 138.015 1796.25 138.015 Q1792.98 138.015 1791.06 140.238 Q1789.14 142.437 1789.14 146.21 L1789.14 160.862 L1784.86 160.862 L1784.86 134.937 L1789.14 134.937 L1789.14 138.964 Q1790.6 136.58 1792.63 135.446 Q1794.67 134.312 1797.47 134.312 Q1800.3 134.312 1802.26 135.747 Q1804.25 137.182 1805.2 139.914 Z" fill="#000000" fill-rule="evenodd" fill-opacity="1" /><path clip-path="url(#clip940)" d="M1841.25 137.923 Q1837.82 137.923 1835.83 140.608 Q1833.84 143.27 1833.84 147.923 Q1833.84 152.575 1835.81 155.261 Q1837.8 157.923 1841.25 157.923 Q1844.65 157.923 1846.64 155.238 Q1848.63 152.552 1848.63 147.923 Q1848.63 143.316 1846.64 140.631 Q1844.65 137.923 1841.25 137.923 M1841.25 134.312 Q1846.8 134.312 1849.97 137.923 Q1853.14 141.534 1853.14 147.923 Q1853.14 154.288 1849.97 157.923 Q1846.8 161.534 1841.25 161.534 Q1835.67 161.534 1832.5 157.923 Q1829.35 154.288 1829.35 147.923 Q1829.35 141.534 1832.5 137.923 Q1835.67 134.312 1841.25 134.312 Z" fill="#000000" fill-rule="evenodd" fill-opacity="1" /><path clip-path="url(#clip940)" d="M1870.25 137.923 Q1866.82 137.923 1864.83 140.608 Q1862.84 143.27 1862.84 147.923 Q1862.84 152.575 1864.81 155.261 Q1866.8 157.923 1870.25 157.923 Q1873.65 157.923 1875.64 155.238 Q1877.63 152.552 1877.63 147.923 Q1877.63 143.316 1875.64 140.631 Q1873.65 137.923 1870.25 137.923 M1870.25 134.312 Q1875.81 134.312 1878.98 137.923 Q1882.15 141.534 1882.15 147.923 Q1882.15 154.288 1878.98 157.923 Q1875.81 161.534 1870.25 161.534 Q1864.67 161.534 1861.5 157.923 Q1858.35 154.288 1858.35 147.923 Q1858.35 141.534 1861.5 137.923 Q1864.67 134.312 1870.25 134.312 Z" fill="#000000" fill-rule="evenodd" fill-opacity="1" /><path clip-path="url(#clip940)" d="M1893.42 127.576 L1893.42 134.937 L1902.19 134.937 L1902.19 138.247 L1893.42 138.247 L1893.42 152.321 Q1893.42 155.492 1894.28 156.395 Q1895.16 157.298 1897.82 157.298 L1902.19 157.298 L1902.19 160.862 L1897.82 160.862 Q1892.89 160.862 1891.01 159.034 Q1889.14 157.182 1889.14 152.321 L1889.14 138.247 L1886.01 138.247 L1886.01 134.937 L1889.14 134.937 L1889.14 127.576 L1893.42 127.576 Z" fill="#000000" fill-rule="evenodd" fill-opacity="1" /><path clip-path="url(#clip940)" d="M1929.35 145.214 L1929.35 160.862 L1925.09 160.862 L1925.09 145.353 Q1925.09 141.673 1923.65 139.844 Q1922.22 138.015 1919.35 138.015 Q1915.9 138.015 1913.91 140.214 Q1911.92 142.414 1911.92 146.21 L1911.92 160.862 L1907.63 160.862 L1907.63 124.844 L1911.92 124.844 L1911.92 138.964 Q1913.44 136.627 1915.5 135.469 Q1917.59 134.312 1920.3 134.312 Q1924.76 134.312 1927.05 137.089 Q1929.35 139.844 1929.35 145.214 Z" fill="#000000" fill-rule="evenodd" fill-opacity="1" /><path clip-path="url(#clip940)" d="M1937.84 134.937 L1942.1 134.937 L1942.1 160.862 L1937.84 160.862 L1937.84 134.937 M1937.84 124.844 L1942.1 124.844 L1942.1 130.238 L1937.84 130.238 L1937.84 124.844 Z" fill="#000000" fill-rule="evenodd" fill-opacity="1" /><path clip-path="url(#clip940)" d="M1972.56 145.214 L1972.56 160.862 L1968.3 160.862 L1968.3 145.353 Q1968.3 141.673 1966.87 139.844 Q1965.43 138.015 1962.56 138.015 Q1959.11 138.015 1957.12 140.214 Q1955.13 142.414 1955.13 146.21 L1955.13 160.862 L1950.85 160.862 L1950.85 134.937 L1955.13 134.937 L1955.13 138.964 Q1956.66 136.627 1958.72 135.469 Q1960.8 134.312 1963.51 134.312 Q1967.98 134.312 1970.27 137.089 Q1972.56 139.844 1972.56 145.214 Z" fill="#000000" fill-rule="evenodd" fill-opacity="1" /><path clip-path="url(#clip940)" d="M1998.12 147.599 Q1998.12 142.969 1996.2 140.423 Q1994.3 137.877 1990.85 137.877 Q1987.43 137.877 1985.5 140.423 Q1983.61 142.969 1983.61 147.599 Q1983.61 152.205 1985.5 154.751 Q1987.43 157.298 1990.85 157.298 Q1994.3 157.298 1996.2 154.751 Q1998.12 152.205 1998.12 147.599 M2002.38 157.645 Q2002.38 164.265 1999.44 167.483 Q1996.5 170.724 1990.43 170.724 Q1988.19 170.724 1986.2 170.376 Q1984.21 170.052 1982.33 169.358 L1982.33 165.214 Q1984.21 166.233 1986.04 166.719 Q1987.86 167.205 1989.76 167.205 Q1993.95 167.205 1996.04 165.006 Q1998.12 162.83 1998.12 158.409 L1998.12 156.302 Q1996.8 158.594 1994.74 159.728 Q1992.68 160.862 1989.81 160.862 Q1985.04 160.862 1982.12 157.228 Q1979.21 153.594 1979.21 147.599 Q1979.21 141.58 1982.12 137.946 Q1985.04 134.312 1989.81 134.312 Q1992.68 134.312 1994.74 135.446 Q1996.8 136.58 1998.12 138.872 L1998.12 134.937 L2002.38 134.937 L2002.38 157.645 Z" fill="#000000" fill-rule="evenodd" fill-opacity="1" /><circle clip-path="url(#clip940)" cx="1391" cy="195.422" r="23" fill="#e26f46" fill-rule="evenodd" fill-opacity="1" stroke="#000000" stroke-opacity="1" stroke-width="5.12"/>
<path clip-path="url(#clip940)" d="M1482.66 186.777 L1486.92 186.777 L1492.24 207.008 L1497.54 186.777 L1502.57 186.777 L1507.89 207.008 L1513.19 186.777 L1517.45 186.777 L1510.67 212.702 L1505.65 212.702 L1500.07 191.453 L1494.46 212.702 L1489.44 212.702 L1482.66 186.777 Z" fill="#000000" fill-rule="evenodd" fill-opacity="1" /><path clip-path="url(#clip940)" d="M1523.91 186.777 L1528.17 186.777 L1528.17 212.702 L1523.91 212.702 L1523.91 186.777 M1523.91 176.684 L1528.17 176.684 L1528.17 182.078 L1523.91 182.078 L1523.91 176.684 Z" fill="#000000" fill-rule="evenodd" fill-opacity="1" /><path clip-path="url(#clip940)" d="M1558.63 197.054 L1558.63 212.702 L1554.37 212.702 L1554.37 197.193 Q1554.37 193.513 1552.94 191.684 Q1551.5 189.855 1548.63 189.855 Q1545.18 189.855 1543.19 192.054 Q1541.2 194.254 1541.2 198.05 L1541.2 212.702 L1536.92 212.702 L1536.92 186.777 L1541.2 186.777 L1541.2 190.804 Q1542.73 188.467 1544.79 187.309 Q1546.87 186.152 1549.58 186.152 Q1554.05 186.152 1556.34 188.929 Q1558.63 191.684 1558.63 197.054 Z" fill="#000000" fill-rule="evenodd" fill-opacity="1" /><path clip-path="url(#clip940)" d="M1584.19 190.712 L1584.19 176.684 L1588.45 176.684 L1588.45 212.702 L1584.19 212.702 L1584.19 208.814 Q1582.84 211.128 1580.78 212.263 Q1578.75 213.374 1575.88 213.374 Q1571.18 213.374 1568.21 209.624 Q1565.27 205.874 1565.27 199.763 Q1565.27 193.652 1568.21 189.902 Q1571.18 186.152 1575.88 186.152 Q1578.75 186.152 1580.78 187.286 Q1582.84 188.397 1584.19 190.712 M1569.67 199.763 Q1569.67 204.462 1571.59 207.147 Q1573.54 209.809 1576.92 209.809 Q1580.3 209.809 1582.24 207.147 Q1584.19 204.462 1584.19 199.763 Q1584.19 195.064 1582.24 192.402 Q1580.3 189.717 1576.92 189.717 Q1573.54 189.717 1571.59 192.402 Q1569.67 195.064 1569.67 199.763 Z" fill="#000000" fill-rule="evenodd" fill-opacity="1" /><path clip-path="url(#clip940)" d="M1607.27 189.763 Q1603.84 189.763 1601.85 192.448 Q1599.86 195.11 1599.86 199.763 Q1599.86 204.415 1601.83 207.101 Q1603.82 209.763 1607.27 209.763 Q1610.67 209.763 1612.66 207.078 Q1614.65 204.392 1614.65 199.763 Q1614.65 195.156 1612.66 192.471 Q1610.67 189.763 1607.27 189.763 M1607.27 186.152 Q1612.82 186.152 1615.99 189.763 Q1619.16 193.374 1619.16 199.763 Q1619.16 206.128 1615.99 209.763 Q1612.82 213.374 1607.27 213.374 Q1601.69 213.374 1598.52 209.763 Q1595.37 206.128 1595.37 199.763 Q1595.37 193.374 1598.52 189.763 Q1601.69 186.152 1607.27 186.152 Z" fill="#000000" fill-rule="evenodd" fill-opacity="1" /><path clip-path="url(#clip940)" d="M1623.75 186.777 L1628.01 186.777 L1633.33 207.008 L1638.63 186.777 L1643.65 186.777 L1648.98 207.008 L1654.28 186.777 L1658.54 186.777 L1651.76 212.702 L1646.73 212.702 L1641.15 191.453 L1635.55 212.702 L1630.53 212.702 L1623.75 186.777 Z" fill="#000000" fill-rule="evenodd" fill-opacity="1" /><path clip-path="url(#clip940)" d="M1693.19 176.684 L1693.19 180.226 L1689.12 180.226 Q1686.82 180.226 1685.92 181.152 Q1685.04 182.078 1685.04 184.485 L1685.04 186.777 L1692.06 186.777 L1692.06 190.087 L1685.04 190.087 L1685.04 212.702 L1680.76 212.702 L1680.76 190.087 L1676.69 190.087 L1676.69 186.777 L1680.76 186.777 L1680.76 184.971 Q1680.76 180.642 1682.77 178.675 Q1684.79 176.684 1689.16 176.684 L1693.19 176.684 Z" fill="#000000" fill-rule="evenodd" fill-opacity="1" /><path clip-path="url(#clip940)" d="M1706.8 189.763 Q1703.38 189.763 1701.38 192.448 Q1699.39 195.11 1699.39 199.763 Q1699.39 204.415 1701.36 207.101 Q1703.35 209.763 1706.8 209.763 Q1710.2 209.763 1712.2 207.078 Q1714.19 204.392 1714.19 199.763 Q1714.19 195.156 1712.2 192.471 Q1710.2 189.763 1706.8 189.763 M1706.8 186.152 Q1712.36 186.152 1715.53 189.763 Q1718.7 193.374 1718.7 199.763 Q1718.7 206.128 1715.53 209.763 Q1712.36 213.374 1706.8 213.374 Q1701.22 213.374 1698.05 209.763 Q1694.9 206.128 1694.9 199.763 Q1694.9 193.374 1698.05 189.763 Q1701.22 186.152 1706.8 186.152 Z" fill="#000000" fill-rule="evenodd" fill-opacity="1" /><path clip-path="url(#clip940)" d="M1740.78 190.758 Q1740.07 190.341 1739.21 190.156 Q1738.38 189.948 1737.36 189.948 Q1733.75 189.948 1731.8 192.309 Q1729.88 194.647 1729.88 199.045 L1729.88 212.702 L1725.6 212.702 L1725.6 186.777 L1729.88 186.777 L1729.88 190.804 Q1731.22 188.443 1733.38 187.309 Q1735.53 186.152 1738.61 186.152 Q1739.05 186.152 1739.58 186.221 Q1740.11 186.267 1740.76 186.383 L1740.78 190.758 Z" fill="#000000" fill-rule="evenodd" fill-opacity="1" /><path clip-path="url(#clip940)" d="M1761.73 208.767 L1769.37 208.767 L1769.37 182.402 L1761.06 184.068 L1761.06 179.809 L1769.32 178.142 L1774 178.142 L1774 208.767 L1781.64 208.767 L1781.64 212.702 L1761.73 212.702 L1761.73 208.767 Z" fill="#000000" fill-rule="evenodd" fill-opacity="1" /><path clip-path="url(#clip940)" d="M1807.01 187.541 L1807.01 191.568 Q1805.2 190.642 1803.26 190.179 Q1801.31 189.717 1799.23 189.717 Q1796.06 189.717 1794.46 190.689 Q1792.89 191.661 1792.89 193.605 Q1792.89 195.087 1794.02 195.943 Q1795.16 196.777 1798.58 197.541 L1800.04 197.865 Q1804.58 198.837 1806.48 200.619 Q1808.4 202.378 1808.4 205.55 Q1808.4 209.161 1805.53 211.267 Q1802.68 213.374 1797.68 213.374 Q1795.6 213.374 1793.33 212.957 Q1791.08 212.564 1788.58 211.753 L1788.58 207.355 Q1790.94 208.582 1793.24 209.207 Q1795.53 209.809 1797.77 209.809 Q1800.78 209.809 1802.4 208.79 Q1804.02 207.749 1804.02 205.874 Q1804.02 204.138 1802.84 203.212 Q1801.69 202.286 1797.73 201.429 L1796.25 201.082 Q1792.29 200.249 1790.53 198.536 Q1788.77 196.8 1788.77 193.791 Q1788.77 190.133 1791.36 188.142 Q1793.95 186.152 1798.72 186.152 Q1801.08 186.152 1803.17 186.499 Q1805.25 186.846 1807.01 187.541 Z" fill="#000000" fill-rule="evenodd" fill-opacity="1" /><path clip-path="url(#clip940)" d="M1819.39 179.416 L1819.39 186.777 L1828.17 186.777 L1828.17 190.087 L1819.39 190.087 L1819.39 204.161 Q1819.39 207.332 1820.25 208.235 Q1821.13 209.138 1823.79 209.138 L1828.17 209.138 L1828.17 212.702 L1823.79 212.702 Q1818.86 212.702 1816.99 210.874 Q1815.11 209.022 1815.11 204.161 L1815.11 190.087 L1811.99 190.087 L1811.99 186.777 L1815.11 186.777 L1815.11 179.416 L1819.39 179.416 Z" fill="#000000" fill-rule="evenodd" fill-opacity="1" /><path clip-path="url(#clip940)" d="M1858.88 189.763 Q1855.46 189.763 1853.47 192.448 Q1851.48 195.11 1851.48 199.763 Q1851.48 204.415 1853.44 207.101 Q1855.43 209.763 1858.88 209.763 Q1862.29 209.763 1864.28 207.078 Q1866.27 204.392 1866.27 199.763 Q1866.27 195.156 1864.28 192.471 Q1862.29 189.763 1858.88 189.763 M1858.88 186.152 Q1864.44 186.152 1867.61 189.763 Q1870.78 193.374 1870.78 199.763 Q1870.78 206.128 1867.61 209.763 Q1864.44 213.374 1858.88 213.374 Q1853.31 213.374 1850.13 209.763 Q1846.99 206.128 1846.99 199.763 Q1846.99 193.374 1850.13 189.763 Q1853.31 186.152 1858.88 186.152 Z" fill="#000000" fill-rule="evenodd" fill-opacity="1" /><path clip-path="url(#clip940)" d="M1892.87 190.758 Q1892.15 190.341 1891.29 190.156 Q1890.46 189.948 1889.44 189.948 Q1885.83 189.948 1883.88 192.309 Q1881.96 194.647 1881.96 199.045 L1881.96 212.702 L1877.68 212.702 L1877.68 186.777 L1881.96 186.777 L1881.96 190.804 Q1883.31 188.443 1885.46 187.309 Q1887.61 186.152 1890.69 186.152 Q1891.13 186.152 1891.66 186.221 Q1892.19 186.267 1892.84 186.383 L1892.87 190.758 Z" fill="#000000" fill-rule="evenodd" fill-opacity="1" /><path clip-path="url(#clip940)" d="M1913.56 190.712 L1913.56 176.684 L1917.82 176.684 L1917.82 212.702 L1913.56 212.702 L1913.56 208.814 Q1912.22 211.128 1910.16 212.263 Q1908.12 213.374 1905.25 213.374 Q1900.55 213.374 1897.59 209.624 Q1894.65 205.874 1894.65 199.763 Q1894.65 193.652 1897.59 189.902 Q1900.55 186.152 1905.25 186.152 Q1908.12 186.152 1910.16 187.286 Q1912.22 188.397 1913.56 190.712 M1899.05 199.763 Q1899.05 204.462 1900.97 207.147 Q1902.91 209.809 1906.29 209.809 Q1909.67 209.809 1911.62 207.147 Q1913.56 204.462 1913.56 199.763 Q1913.56 195.064 1911.62 192.402 Q1909.67 189.717 1906.29 189.717 Q1902.91 189.717 1900.97 192.402 Q1899.05 195.064 1899.05 199.763 Z" fill="#000000" fill-rule="evenodd" fill-opacity="1" /><path clip-path="url(#clip940)" d="M1948.77 198.675 L1948.77 200.758 L1929.18 200.758 Q1929.46 205.156 1931.82 207.471 Q1934.21 209.763 1938.44 209.763 Q1940.9 209.763 1943.19 209.161 Q1945.5 208.559 1947.77 207.355 L1947.77 211.383 Q1945.48 212.355 1943.07 212.865 Q1940.67 213.374 1938.19 213.374 Q1931.99 213.374 1928.35 209.763 Q1924.74 206.152 1924.74 199.994 Q1924.74 193.629 1928.17 189.902 Q1931.62 186.152 1937.45 186.152 Q1942.68 186.152 1945.71 189.531 Q1948.77 192.888 1948.77 198.675 M1944.51 197.425 Q1944.46 193.929 1942.54 191.846 Q1940.64 189.763 1937.49 189.763 Q1933.93 189.763 1931.78 191.777 Q1929.65 193.791 1929.32 197.448 L1944.51 197.425 Z" fill="#000000" fill-rule="evenodd" fill-opacity="1" /><path clip-path="url(#clip940)" d="M1970.78 190.758 Q1970.06 190.341 1969.21 190.156 Q1968.37 189.948 1967.36 189.948 Q1963.74 189.948 1961.8 192.309 Q1959.88 194.647 1959.88 199.045 L1959.88 212.702 L1955.6 212.702 L1955.6 186.777 L1959.88 186.777 L1959.88 190.804 Q1961.22 188.443 1963.37 187.309 Q1965.53 186.152 1968.61 186.152 Q1969.05 186.152 1969.58 186.221 Q1970.11 186.267 1970.76 186.383 L1970.78 190.758 Z" fill="#000000" fill-rule="evenodd" fill-opacity="1" /><path clip-path="url(#clip940)" d="M2007.38 190.712 L2007.38 176.684 L2011.64 176.684 L2011.64 212.702 L2007.38 212.702 L2007.38 208.814 Q2006.04 211.128 2003.98 212.263 Q2001.94 213.374 1999.07 213.374 Q1994.37 213.374 1991.41 209.624 Q1988.47 205.874 1988.47 199.763 Q1988.47 193.652 1991.41 189.902 Q1994.37 186.152 1999.07 186.152 Q2001.94 186.152 2003.98 187.286 Q2006.04 188.397 2007.38 190.712 M1992.86 199.763 Q1992.86 204.462 1994.79 207.147 Q1996.73 209.809 2000.11 209.809 Q2003.49 209.809 2005.43 207.147 Q2007.38 204.462 2007.38 199.763 Q2007.38 195.064 2005.43 192.402 Q2003.49 189.717 2000.11 189.717 Q1996.73 189.717 1994.79 192.402 Q1992.86 195.064 1992.86 199.763 Z" fill="#000000" fill-rule="evenodd" fill-opacity="1" /><path clip-path="url(#clip940)" d="M2042.59 198.675 L2042.59 200.758 L2023 200.758 Q2023.28 205.156 2025.64 207.471 Q2028.03 209.763 2032.26 209.763 Q2034.72 209.763 2037.01 209.161 Q2039.32 208.559 2041.59 207.355 L2041.59 211.383 Q2039.3 212.355 2036.89 212.865 Q2034.48 213.374 2032.01 213.374 Q2025.8 213.374 2022.17 209.763 Q2018.56 206.152 2018.56 199.994 Q2018.56 193.629 2021.99 189.902 Q2025.43 186.152 2031.27 186.152 Q2036.5 186.152 2039.53 189.531 Q2042.59 192.888 2042.59 198.675 M2038.33 197.425 Q2038.28 193.929 2036.36 191.846 Q2034.46 189.763 2031.31 189.763 Q2027.75 189.763 2025.6 191.777 Q2023.47 193.791 2023.14 197.448 L2038.33 197.425 Z" fill="#000000" fill-rule="evenodd" fill-opacity="1" /><path clip-path="url(#clip940)" d="M2064.6 190.758 Q2063.88 190.341 2063.03 190.156 Q2062.19 189.948 2061.17 189.948 Q2057.56 189.948 2055.62 192.309 Q2053.7 194.647 2053.7 199.045 L2053.7 212.702 L2049.42 212.702 L2049.42 186.777 L2053.7 186.777 L2053.7 190.804 Q2055.04 188.443 2057.19 187.309 Q2059.35 186.152 2062.42 186.152 Q2062.86 186.152 2063.4 186.221 Q2063.93 186.267 2064.58 186.383 L2064.6 190.758 Z" fill="#000000" fill-rule="evenodd" fill-opacity="1" /><path clip-path="url(#clip940)" d="M2069.07 186.777 L2073.33 186.777 L2073.33 212.702 L2069.07 212.702 L2069.07 186.777 M2069.07 176.684 L2073.33 176.684 L2073.33 182.078 L2069.07 182.078 L2069.07 176.684 Z" fill="#000000" fill-rule="evenodd" fill-opacity="1" /><path clip-path="url(#clip940)" d="M2079.18 186.777 L2083.7 186.777 L2091.8 208.536 L2099.9 186.777 L2104.42 186.777 L2094.69 212.702 L2088.91 212.702 L2079.18 186.777 Z" fill="#000000" fill-rule="evenodd" fill-opacity="1" /><path clip-path="url(#clip940)" d="M2122.08 199.67 Q2116.92 199.67 2114.92 200.851 Q2112.93 202.031 2112.93 204.878 Q2112.93 207.147 2114.42 208.49 Q2115.92 209.809 2118.49 209.809 Q2122.03 209.809 2124.16 207.309 Q2126.31 204.786 2126.31 200.619 L2126.31 199.67 L2122.08 199.67 M2130.57 197.911 L2130.57 212.702 L2126.31 212.702 L2126.31 208.767 Q2124.85 211.128 2122.68 212.263 Q2120.5 213.374 2117.35 213.374 Q2113.37 213.374 2111.01 211.152 Q2108.67 208.906 2108.67 205.156 Q2108.67 200.781 2111.59 198.559 Q2114.53 196.337 2120.34 196.337 L2126.31 196.337 L2126.31 195.92 Q2126.31 192.98 2124.37 191.383 Q2122.45 189.763 2118.95 189.763 Q2116.73 189.763 2114.62 190.295 Q2112.52 190.828 2110.57 191.892 L2110.57 187.957 Q2112.91 187.054 2115.11 186.615 Q2117.31 186.152 2119.39 186.152 Q2125.02 186.152 2127.79 189.068 Q2130.57 191.985 2130.57 197.911 Z" fill="#000000" fill-rule="evenodd" fill-opacity="1" /><path clip-path="url(#clip940)" d="M2143.56 179.416 L2143.56 186.777 L2152.33 186.777 L2152.33 190.087 L2143.56 190.087 L2143.56 204.161 Q2143.56 207.332 2144.41 208.235 Q2145.29 209.138 2147.96 209.138 L2152.33 209.138 L2152.33 212.702 L2147.96 212.702 Q2143.03 212.702 2141.15 210.874 Q2139.28 209.022 2139.28 204.161 L2139.28 190.087 L2136.15 190.087 L2136.15 186.777 L2139.28 186.777 L2139.28 179.416 L2143.56 179.416 Z" fill="#000000" fill-rule="evenodd" fill-opacity="1" /><path clip-path="url(#clip940)" d="M2157.93 186.777 L2162.19 186.777 L2162.19 212.702 L2157.93 212.702 L2157.93 186.777 M2157.93 176.684 L2162.19 176.684 L2162.19 182.078 L2157.93 182.078 L2157.93 176.684 Z" fill="#000000" fill-rule="evenodd" fill-opacity="1" /><path clip-path="url(#clip940)" d="M2168.05 186.777 L2172.56 186.777 L2180.66 208.536 L2188.77 186.777 L2193.28 186.777 L2183.56 212.702 L2177.77 212.702 L2168.05 186.777 Z" fill="#000000" fill-rule="evenodd" fill-opacity="1" /><path clip-path="url(#clip940)" d="M2221.34 198.675 L2221.34 200.758 L2201.75 200.758 Q2202.03 205.156 2204.39 207.471 Q2206.78 209.763 2211.01 209.763 Q2213.47 209.763 2215.76 209.161 Q2218.07 208.559 2220.34 207.355 L2220.34 211.383 Q2218.05 212.355 2215.64 212.865 Q2213.23 213.374 2210.76 213.374 Q2204.55 213.374 2200.92 209.763 Q2197.31 206.152 2197.31 199.994 Q2197.31 193.629 2200.73 189.902 Q2204.18 186.152 2210.02 186.152 Q2215.25 186.152 2218.28 189.531 Q2221.34 192.888 2221.34 198.675 M2217.08 197.425 Q2217.03 193.929 2215.11 191.846 Q2213.21 189.763 2210.06 189.763 Q2206.5 189.763 2204.35 191.777 Q2202.22 193.791 2201.89 197.448 L2217.08 197.425 Z" fill="#000000" fill-rule="evenodd" fill-opacity="1" /><circle clip-path="url(#clip940)" cx="1391" cy="247.262" r="23" fill="#3da44d" fill-rule="evenodd" fill-opacity="1" stroke="#000000" stroke-opacity="1" stroke-width="5.12"/>
<path clip-path="url(#clip940)" d="M1482.66 238.617 L1486.92 238.617 L1492.24 258.848 L1497.54 238.617 L1502.57 238.617 L1507.89 258.848 L1513.19 238.617 L1517.45 238.617 L1510.67 264.542 L1505.65 264.542 L1500.07 243.293 L1494.46 264.542 L1489.44 264.542 L1482.66 238.617 Z" fill="#000000" fill-rule="evenodd" fill-opacity="1" /><path clip-path="url(#clip940)" d="M1523.91 238.617 L1528.17 238.617 L1528.17 264.542 L1523.91 264.542 L1523.91 238.617 M1523.91 228.524 L1528.17 228.524 L1528.17 233.918 L1523.91 233.918 L1523.91 228.524 Z" fill="#000000" fill-rule="evenodd" fill-opacity="1" /><path clip-path="url(#clip940)" d="M1558.63 248.894 L1558.63 264.542 L1554.37 264.542 L1554.37 249.033 Q1554.37 245.353 1552.94 243.524 Q1551.5 241.695 1548.63 241.695 Q1545.18 241.695 1543.19 243.894 Q1541.2 246.094 1541.2 249.89 L1541.2 264.542 L1536.92 264.542 L1536.92 238.617 L1541.2 238.617 L1541.2 242.644 Q1542.73 240.307 1544.79 239.149 Q1546.87 237.992 1549.58 237.992 Q1554.05 237.992 1556.34 240.769 Q1558.63 243.524 1558.63 248.894 Z" fill="#000000" fill-rule="evenodd" fill-opacity="1" /><path clip-path="url(#clip940)" d="M1584.19 242.552 L1584.19 228.524 L1588.45 228.524 L1588.45 264.542 L1584.19 264.542 L1584.19 260.654 Q1582.84 262.968 1580.78 264.103 Q1578.75 265.214 1575.88 265.214 Q1571.18 265.214 1568.21 261.464 Q1565.27 257.714 1565.27 251.603 Q1565.27 245.492 1568.21 241.742 Q1571.18 237.992 1575.88 237.992 Q1578.75 237.992 1580.78 239.126 Q1582.84 240.237 1584.19 242.552 M1569.67 251.603 Q1569.67 256.302 1571.59 258.987 Q1573.54 261.649 1576.92 261.649 Q1580.3 261.649 1582.24 258.987 Q1584.19 256.302 1584.19 251.603 Q1584.19 246.904 1582.24 244.242 Q1580.3 241.557 1576.92 241.557 Q1573.54 241.557 1571.59 244.242 Q1569.67 246.904 1569.67 251.603 Z" fill="#000000" fill-rule="evenodd" fill-opacity="1" /><path clip-path="url(#clip940)" d="M1607.27 241.603 Q1603.84 241.603 1601.85 244.288 Q1599.86 246.95 1599.86 251.603 Q1599.86 256.255 1601.83 258.941 Q1603.82 261.603 1607.27 261.603 Q1610.67 261.603 1612.66 258.918 Q1614.65 256.232 1614.65 251.603 Q1614.65 246.996 1612.66 244.311 Q1610.67 241.603 1607.27 241.603 M1607.27 237.992 Q1612.82 237.992 1615.99 241.603 Q1619.16 245.214 1619.16 251.603 Q1619.16 257.968 1615.99 261.603 Q1612.82 265.214 1607.27 265.214 Q1601.69 265.214 1598.52 261.603 Q1595.37 257.968 1595.37 251.603 Q1595.37 245.214 1598.52 241.603 Q1601.69 237.992 1607.27 237.992 Z" fill="#000000" fill-rule="evenodd" fill-opacity="1" /><path clip-path="url(#clip940)" d="M1623.75 238.617 L1628.01 238.617 L1633.33 258.848 L1638.63 238.617 L1643.65 238.617 L1648.98 258.848 L1654.28 238.617 L1658.54 238.617 L1651.76 264.542 L1646.73 264.542 L1641.15 243.293 L1635.55 264.542 L1630.53 264.542 L1623.75 238.617 Z" fill="#000000" fill-rule="evenodd" fill-opacity="1" /><path clip-path="url(#clip940)" d="M1693.19 228.524 L1693.19 232.066 L1689.12 232.066 Q1686.82 232.066 1685.92 232.992 Q1685.04 233.918 1685.04 236.325 L1685.04 238.617 L1692.06 238.617 L1692.06 241.927 L1685.04 241.927 L1685.04 264.542 L1680.76 264.542 L1680.76 241.927 L1676.69 241.927 L1676.69 238.617 L1680.76 238.617 L1680.76 236.811 Q1680.76 232.482 1682.77 230.515 Q1684.79 228.524 1689.16 228.524 L1693.19 228.524 Z" fill="#000000" fill-rule="evenodd" fill-opacity="1" /><path clip-path="url(#clip940)" d="M1706.8 241.603 Q1703.38 241.603 1701.38 244.288 Q1699.39 246.95 1699.39 251.603 Q1699.39 256.255 1701.36 258.941 Q1703.35 261.603 1706.8 261.603 Q1710.2 261.603 1712.2 258.918 Q1714.19 256.232 1714.19 251.603 Q1714.19 246.996 1712.2 244.311 Q1710.2 241.603 1706.8 241.603 M1706.8 237.992 Q1712.36 237.992 1715.53 241.603 Q1718.7 245.214 1718.7 251.603 Q1718.7 257.968 1715.53 261.603 Q1712.36 265.214 1706.8 265.214 Q1701.22 265.214 1698.05 261.603 Q1694.9 257.968 1694.9 251.603 Q1694.9 245.214 1698.05 241.603 Q1701.22 237.992 1706.8 237.992 Z" fill="#000000" fill-rule="evenodd" fill-opacity="1" /><path clip-path="url(#clip940)" d="M1740.78 242.598 Q1740.07 242.181 1739.21 241.996 Q1738.38 241.788 1737.36 241.788 Q1733.75 241.788 1731.8 244.149 Q1729.88 246.487 1729.88 250.885 L1729.88 264.542 L1725.6 264.542 L1725.6 238.617 L1729.88 238.617 L1729.88 242.644 Q1731.22 240.283 1733.38 239.149 Q1735.53 237.992 1738.61 237.992 Q1739.05 237.992 1739.58 238.061 Q1740.11 238.107 1740.76 238.223 L1740.78 242.598 Z" fill="#000000" fill-rule="evenodd" fill-opacity="1" /><path clip-path="url(#clip940)" d="M1764.95 260.607 L1781.27 260.607 L1781.27 264.542 L1759.32 264.542 L1759.32 260.607 Q1761.99 257.853 1766.57 253.223 Q1771.18 248.57 1772.36 247.228 Q1774.6 244.705 1775.48 242.969 Q1776.38 241.209 1776.38 239.519 Q1776.38 236.765 1774.44 235.029 Q1772.52 233.293 1769.42 233.293 Q1767.22 233.293 1764.76 234.057 Q1762.33 234.82 1759.56 236.371 L1759.56 231.649 Q1762.38 230.515 1764.83 229.936 Q1767.29 229.357 1769.32 229.357 Q1774.69 229.357 1777.89 232.043 Q1781.08 234.728 1781.08 239.219 Q1781.08 241.348 1780.27 243.269 Q1779.49 245.168 1777.38 247.76 Q1776.8 248.431 1773.7 251.649 Q1770.6 254.843 1764.95 260.607 Z" fill="#000000" fill-rule="evenodd" fill-opacity="1" /><path clip-path="url(#clip940)" d="M1812.03 248.894 L1812.03 264.542 L1807.77 264.542 L1807.77 249.033 Q1807.77 245.353 1806.34 243.524 Q1804.9 241.695 1802.03 241.695 Q1798.58 241.695 1796.59 243.894 Q1794.6 246.094 1794.6 249.89 L1794.6 264.542 L1790.32 264.542 L1790.32 238.617 L1794.6 238.617 L1794.6 242.644 Q1796.13 240.307 1798.19 239.149 Q1800.27 237.992 1802.98 237.992 Q1807.45 237.992 1809.74 240.769 Q1812.03 243.524 1812.03 248.894 Z" fill="#000000" fill-rule="evenodd" fill-opacity="1" /><path clip-path="url(#clip940)" d="M1837.59 242.552 L1837.59 228.524 L1841.85 228.524 L1841.85 264.542 L1837.59 264.542 L1837.59 260.654 Q1836.25 262.968 1834.19 264.103 Q1832.15 265.214 1829.28 265.214 Q1824.58 265.214 1821.62 261.464 Q1818.68 257.714 1818.68 251.603 Q1818.68 245.492 1821.62 241.742 Q1824.58 237.992 1829.28 237.992 Q1832.15 237.992 1834.19 239.126 Q1836.25 240.237 1837.59 242.552 M1823.07 251.603 Q1823.07 256.302 1825 258.987 Q1826.94 261.649 1830.32 261.649 Q1833.7 261.649 1835.64 258.987 Q1837.59 256.302 1837.59 251.603 Q1837.59 246.904 1835.64 244.242 Q1833.7 241.557 1830.32 241.557 Q1826.94 241.557 1825 244.242 Q1823.07 246.904 1823.07 251.603 Z" fill="#000000" fill-rule="evenodd" fill-opacity="1" /><path clip-path="url(#clip940)" d="M1875.74 241.603 Q1872.31 241.603 1870.32 244.288 Q1868.33 246.95 1868.33 251.603 Q1868.33 256.255 1870.3 258.941 Q1872.29 261.603 1875.74 261.603 Q1879.14 261.603 1881.13 258.918 Q1883.12 256.232 1883.12 251.603 Q1883.12 246.996 1881.13 244.311 Q1879.14 241.603 1875.74 241.603 M1875.74 237.992 Q1881.29 237.992 1884.46 241.603 Q1887.63 245.214 1887.63 251.603 Q1887.63 257.968 1884.46 261.603 Q1881.29 265.214 1875.74 265.214 Q1870.16 265.214 1866.99 261.603 Q1863.84 257.968 1863.84 251.603 Q1863.84 245.214 1866.99 241.603 Q1870.16 237.992 1875.74 237.992 Z" fill="#000000" fill-rule="evenodd" fill-opacity="1" /><path clip-path="url(#clip940)" d="M1909.72 242.598 Q1909 242.181 1908.14 241.996 Q1907.31 241.788 1906.29 241.788 Q1902.68 241.788 1900.74 244.149 Q1898.81 246.487 1898.81 250.885 L1898.81 264.542 L1894.53 264.542 L1894.53 238.617 L1898.81 238.617 L1898.81 242.644 Q1900.16 240.283 1902.31 239.149 Q1904.46 237.992 1907.54 237.992 Q1907.98 237.992 1908.51 238.061 Q1909.05 238.107 1909.69 238.223 L1909.72 242.598 Z" fill="#000000" fill-rule="evenodd" fill-opacity="1" /><path clip-path="url(#clip940)" d="M1930.41 242.552 L1930.41 228.524 L1934.67 228.524 L1934.67 264.542 L1930.41 264.542 L1930.41 260.654 Q1929.07 262.968 1927.01 264.103 Q1924.97 265.214 1922.1 265.214 Q1917.4 265.214 1914.44 261.464 Q1911.5 257.714 1911.5 251.603 Q1911.5 245.492 1914.44 241.742 Q1917.4 237.992 1922.1 237.992 Q1924.97 237.992 1927.01 239.126 Q1929.07 240.237 1930.41 242.552 M1915.9 251.603 Q1915.9 256.302 1917.82 258.987 Q1919.76 261.649 1923.14 261.649 Q1926.52 261.649 1928.47 258.987 Q1930.41 256.302 1930.41 251.603 Q1930.41 246.904 1928.47 244.242 Q1926.52 241.557 1923.14 241.557 Q1919.76 241.557 1917.82 244.242 Q1915.9 246.904 1915.9 251.603 Z" fill="#000000" fill-rule="evenodd" fill-opacity="1" /><path clip-path="url(#clip940)" d="M1965.62 250.515 L1965.62 252.598 L1946.04 252.598 Q1946.31 256.996 1948.68 259.311 Q1951.06 261.603 1955.3 261.603 Q1957.75 261.603 1960.04 261.001 Q1962.36 260.399 1964.62 259.195 L1964.62 263.223 Q1962.33 264.195 1959.93 264.705 Q1957.52 265.214 1955.04 265.214 Q1948.84 265.214 1945.2 261.603 Q1941.59 257.992 1941.59 251.834 Q1941.59 245.469 1945.02 241.742 Q1948.47 237.992 1954.3 237.992 Q1959.53 237.992 1962.56 241.371 Q1965.62 244.728 1965.62 250.515 M1961.36 249.265 Q1961.31 245.769 1959.39 243.686 Q1957.49 241.603 1954.35 241.603 Q1950.78 241.603 1948.63 243.617 Q1946.5 245.631 1946.18 249.288 L1961.36 249.265 Z" fill="#000000" fill-rule="evenodd" fill-opacity="1" /><path clip-path="url(#clip940)" d="M1987.63 242.598 Q1986.92 242.181 1986.06 241.996 Q1985.23 241.788 1984.21 241.788 Q1980.6 241.788 1978.65 244.149 Q1976.73 246.487 1976.73 250.885 L1976.73 264.542 L1972.45 264.542 L1972.45 238.617 L1976.73 238.617 L1976.73 242.644 Q1978.07 240.283 1980.23 239.149 Q1982.38 237.992 1985.46 237.992 Q1985.9 237.992 1986.43 238.061 Q1986.96 238.107 1987.61 238.223 L1987.63 242.598 Z" fill="#000000" fill-rule="evenodd" fill-opacity="1" /><path clip-path="url(#clip940)" d="M2024.23 242.552 L2024.23 228.524 L2028.49 228.524 L2028.49 264.542 L2024.23 264.542 L2024.23 260.654 Q2022.89 262.968 2020.83 264.103 Q2018.79 265.214 2015.92 265.214 Q2011.22 265.214 2008.26 261.464 Q2005.32 257.714 2005.32 251.603 Q2005.32 245.492 2008.26 241.742 Q2011.22 237.992 2015.92 237.992 Q2018.79 237.992 2020.83 239.126 Q2022.89 240.237 2024.23 242.552 M2009.72 251.603 Q2009.72 256.302 2011.64 258.987 Q2013.58 261.649 2016.96 261.649 Q2020.34 261.649 2022.29 258.987 Q2024.23 256.302 2024.23 251.603 Q2024.23 246.904 2022.29 244.242 Q2020.34 241.557 2016.96 241.557 Q2013.58 241.557 2011.64 244.242 Q2009.72 246.904 2009.72 251.603 Z" fill="#000000" fill-rule="evenodd" fill-opacity="1" /><path clip-path="url(#clip940)" d="M2059.44 250.515 L2059.44 252.598 L2039.86 252.598 Q2040.13 256.996 2042.49 259.311 Q2044.88 261.603 2049.11 261.603 Q2051.57 261.603 2053.86 261.001 Q2056.17 260.399 2058.44 259.195 L2058.44 263.223 Q2056.15 264.195 2053.74 264.705 Q2051.34 265.214 2048.86 265.214 Q2042.66 265.214 2039.02 261.603 Q2035.41 257.992 2035.41 251.834 Q2035.41 245.469 2038.84 241.742 Q2042.29 237.992 2048.12 237.992 Q2053.35 237.992 2056.38 241.371 Q2059.44 244.728 2059.44 250.515 M2055.18 249.265 Q2055.13 245.769 2053.21 243.686 Q2051.31 241.603 2048.17 241.603 Q2044.6 241.603 2042.45 243.617 Q2040.32 245.631 2039.99 249.288 L2055.18 249.265 Z" fill="#000000" fill-rule="evenodd" fill-opacity="1" /><path clip-path="url(#clip940)" d="M2081.45 242.598 Q2080.73 242.181 2079.88 241.996 Q2079.04 241.788 2078.03 241.788 Q2074.42 241.788 2072.47 244.149 Q2070.55 246.487 2070.55 250.885 L2070.55 264.542 L2066.27 264.542 L2066.27 238.617 L2070.55 238.617 L2070.55 242.644 Q2071.89 240.283 2074.04 239.149 Q2076.2 237.992 2079.28 237.992 Q2079.72 237.992 2080.25 238.061 Q2080.78 238.107 2081.43 238.223 L2081.45 242.598 Z" fill="#000000" fill-rule="evenodd" fill-opacity="1" /><path clip-path="url(#clip940)" d="M2085.92 238.617 L2090.18 238.617 L2090.18 264.542 L2085.92 264.542 L2085.92 238.617 M2085.92 228.524 L2090.18 228.524 L2090.18 233.918 L2085.92 233.918 L2085.92 228.524 Z" fill="#000000" fill-rule="evenodd" fill-opacity="1" /><path clip-path="url(#clip940)" d="M2096.04 238.617 L2100.55 238.617 L2108.65 260.376 L2116.75 238.617 L2121.27 238.617 L2111.54 264.542 L2105.76 264.542 L2096.04 238.617 Z" fill="#000000" fill-rule="evenodd" fill-opacity="1" /><path clip-path="url(#clip940)" d="M2138.93 251.51 Q2133.77 251.51 2131.78 252.691 Q2129.79 253.871 2129.79 256.718 Q2129.79 258.987 2131.27 260.33 Q2132.77 261.649 2135.34 261.649 Q2138.88 261.649 2141.01 259.149 Q2143.16 256.626 2143.16 252.459 L2143.16 251.51 L2138.93 251.51 M2147.42 249.751 L2147.42 264.542 L2143.16 264.542 L2143.16 260.607 Q2141.71 262.968 2139.53 264.103 Q2137.35 265.214 2134.21 265.214 Q2130.23 265.214 2127.86 262.992 Q2125.53 260.746 2125.53 256.996 Q2125.53 252.621 2128.44 250.399 Q2131.38 248.177 2137.19 248.177 L2143.16 248.177 L2143.16 247.76 Q2143.16 244.82 2141.22 243.223 Q2139.3 241.603 2135.8 241.603 Q2133.58 241.603 2131.48 242.135 Q2129.37 242.668 2127.42 243.732 L2127.42 239.797 Q2129.76 238.894 2131.96 238.455 Q2134.16 237.992 2136.24 237.992 Q2141.87 237.992 2144.65 240.908 Q2147.42 243.825 2147.42 249.751 Z" fill="#000000" fill-rule="evenodd" fill-opacity="1" /><path clip-path="url(#clip940)" d="M2160.41 231.256 L2160.41 238.617 L2169.18 238.617 L2169.18 241.927 L2160.41 241.927 L2160.41 256.001 Q2160.41 259.172 2161.27 260.075 Q2162.15 260.978 2164.81 260.978 L2169.18 260.978 L2169.18 264.542 L2164.81 264.542 Q2159.88 264.542 2158 262.714 Q2156.13 260.862 2156.13 256.001 L2156.13 241.927 L2153 241.927 L2153 238.617 L2156.13 238.617 L2156.13 231.256 L2160.41 231.256 Z" fill="#000000" fill-rule="evenodd" fill-opacity="1" /><path clip-path="url(#clip940)" d="M2174.79 238.617 L2179.04 238.617 L2179.04 264.542 L2174.79 264.542 L2174.79 238.617 M2174.79 228.524 L2179.04 228.524 L2179.04 233.918 L2174.79 233.918 L2174.79 228.524 Z" fill="#000000" fill-rule="evenodd" fill-opacity="1" /><path clip-path="url(#clip940)" d="M2184.9 238.617 L2189.41 238.617 L2197.52 260.376 L2205.62 238.617 L2210.13 238.617 L2200.41 264.542 L2194.62 264.542 L2184.9 238.617 Z" fill="#000000" fill-rule="evenodd" fill-opacity="1" /><path clip-path="url(#clip940)" d="M2238.19 250.515 L2238.19 252.598 L2218.6 252.598 Q2218.88 256.996 2221.24 259.311 Q2223.63 261.603 2227.86 261.603 Q2230.32 261.603 2232.61 261.001 Q2234.92 260.399 2237.19 259.195 L2237.19 263.223 Q2234.9 264.195 2232.49 264.705 Q2230.09 265.214 2227.61 265.214 Q2221.41 265.214 2217.77 261.603 Q2214.16 257.992 2214.16 251.834 Q2214.16 245.469 2217.59 241.742 Q2221.03 237.992 2226.87 237.992 Q2232.1 237.992 2235.13 241.371 Q2238.19 244.728 2238.19 250.515 M2233.93 249.265 Q2233.88 245.769 2231.96 243.686 Q2230.06 241.603 2226.91 241.603 Q2223.35 241.603 2221.2 243.617 Q2219.07 245.631 2218.74 249.288 L2233.93 249.265 Z" fill="#000000" fill-rule="evenodd" fill-opacity="1" /></svg>
