<?xml version="1.0" encoding="utf-8"?>
<svg xmlns="http://www.w3.org/2000/svg" xmlns:xlink="http://www.w3.org/1999/xlink" width="150" height="100" viewBox="0 0 600 400">
<defs>
  <clipPath id="clip540">
    <rect x="0" y="0" width="600" height="400"/>
  </clipPath>
</defs>
<path clip-path="url(#clip540)" d="
M0 400 L600 400 L600 0 L0 0  Z
  " fill="#ffffff" fill-rule="evenodd" fill-opacity="1"/>
<defs>
  <clipPath id="clip541">
    <rect x="120" y="0" width="421" height="400"/>
  </clipPath>
</defs>
<path clip-path="url(#clip540)" d="
M47.811 354.189 L588.189 354.189 L588.189 11.811 L47.811 11.811  Z
  " fill="#ffffff" fill-rule="evenodd" fill-opacity="1"/>
<defs>
  <clipPath id="clip542">
    <rect x="47" y="11" width="541" height="343"/>
  </clipPath>
</defs>
<polyline clip-path="url(#clip542)" style="stroke:#000000; stroke-width:0.5; stroke-opacity:0.1; fill:none" points="
  114.084,354.189 114.084,11.811 
  "/>
<polyline clip-path="url(#clip542)" style="stroke:#000000; stroke-width:0.5; stroke-opacity:0.1; fill:none" points="
  216.042,354.189 216.042,11.811 
  "/>
<polyline clip-path="url(#clip542)" style="stroke:#000000; stroke-width:0.5; stroke-opacity:0.1; fill:none" points="
  318,354.189 318,11.811 
  "/>
<polyline clip-path="url(#clip542)" style="stroke:#000000; stroke-width:0.5; stroke-opacity:0.1; fill:none" points="
  419.958,354.189 419.958,11.811 
  "/>
<polyline clip-path="url(#clip542)" style="stroke:#000000; stroke-width:0.5; stroke-opacity:0.1; fill:none" points="
  521.916,354.189 521.916,11.811 
  "/>
<polyline clip-path="url(#clip540)" style="stroke:#000000; stroke-width:1; stroke-opacity:1; fill:none" points="
  47.811,354.189 588.189,354.189 
  "/>
<polyline clip-path="url(#clip540)" style="stroke:#000000; stroke-width:1; stroke-opacity:1; fill:none" points="
  114.084,354.189 114.084,350.08 
  "/>
<polyline clip-path="url(#clip540)" style="stroke:#000000; stroke-width:1; stroke-opacity:1; fill:none" points="
  216.042,354.189 216.042,350.08 
  "/>
<polyline clip-path="url(#clip540)" style="stroke:#000000; stroke-width:1; stroke-opacity:1; fill:none" points="
  318,354.189 318,350.08 
  "/>
<polyline clip-path="url(#clip540)" style="stroke:#000000; stroke-width:1; stroke-opacity:1; fill:none" points="
  419.958,354.189 419.958,350.08 
  "/>
<polyline clip-path="url(#clip540)" style="stroke:#000000; stroke-width:1; stroke-opacity:1; fill:none" points="
  521.916,354.189 521.916,350.08 
  "/>
<path clip-path="url(#clip540)" d="M 0 0 M112.747 368.373 L116.827 368.373 L116.827 369.357 L111.341 369.357 L111.341 368.373 Q112.006 367.685 113.152 366.527 Q114.304 365.364 114.599 365.028 Q115.16 364.398 115.38 363.963 Q115.606 363.524 115.606 363.101 Q115.606 362.413 115.12 361.979 Q114.639 361.545 113.864 361.545 Q113.314 361.545 112.701 361.735 Q112.093 361.926 111.399 362.314 L111.399 361.134 Q112.105 360.85 112.718 360.705 Q113.331 360.561 113.841 360.561 Q115.183 360.561 115.982 361.232 Q116.781 361.903 116.781 363.026 Q116.781 363.558 116.578 364.039 Q116.381 364.513 115.855 365.161 Q115.71 365.329 114.934 366.134 Q114.159 366.932 112.747 368.373 Z" fill="#000000" fill-rule="evenodd" fill-opacity="1" /><path clip-path="url(#clip540)" d="M 0 0 M216.794 361.735 L213.843 366.348 L216.794 366.348 L216.794 361.735 M216.487 360.717 L217.957 360.717 L217.957 366.348 L219.19 366.348 L219.19 367.32 L217.957 367.32 L217.957 369.357 L216.794 369.357 L216.794 367.32 L212.894 367.32 L212.894 366.191 L216.487 360.717 Z" fill="#000000" fill-rule="evenodd" fill-opacity="1" /><path clip-path="url(#clip540)" d="M 0 0 M318.101 364.571 Q317.314 364.571 316.851 365.109 Q316.394 365.648 316.394 366.585 Q316.394 367.517 316.851 368.061 Q317.314 368.599 318.101 368.599 Q318.888 368.599 319.345 368.061 Q319.808 367.517 319.808 366.585 Q319.808 365.648 319.345 365.109 Q318.888 364.571 318.101 364.571 M320.422 360.908 L320.422 361.973 Q319.982 361.764 319.531 361.654 Q319.085 361.545 318.645 361.545 Q317.488 361.545 316.874 362.326 Q316.267 363.107 316.18 364.687 Q316.521 364.183 317.036 363.917 Q317.552 363.645 318.171 363.645 Q319.473 363.645 320.225 364.438 Q320.983 365.225 320.983 366.585 Q320.983 367.916 320.196 368.72 Q319.409 369.525 318.101 369.525 Q316.602 369.525 315.81 368.379 Q315.017 367.227 315.017 365.046 Q315.017 362.997 315.989 361.782 Q316.961 360.561 318.599 360.561 Q319.039 360.561 319.484 360.648 Q319.936 360.734 320.422 360.908 Z" fill="#000000" fill-rule="evenodd" fill-opacity="1" /><path clip-path="url(#clip540)" d="M 0 0 M419.958 365.254 Q419.125 365.254 418.644 365.7 Q418.17 366.145 418.17 366.926 Q418.17 367.708 418.644 368.153 Q419.125 368.599 419.958 368.599 Q420.791 368.599 421.272 368.153 Q421.752 367.702 421.752 366.926 Q421.752 366.145 421.272 365.7 Q420.797 365.254 419.958 365.254 M418.789 364.756 Q418.037 364.571 417.614 364.056 Q417.198 363.541 417.198 362.8 Q417.198 361.764 417.933 361.163 Q418.673 360.561 419.958 360.561 Q421.249 360.561 421.984 361.163 Q422.719 361.764 422.719 362.8 Q422.719 363.541 422.296 364.056 Q421.879 364.571 421.133 364.756 Q421.978 364.953 422.447 365.526 Q422.921 366.099 422.921 366.926 Q422.921 368.182 422.151 368.854 Q421.387 369.525 419.958 369.525 Q418.529 369.525 417.759 368.854 Q416.995 368.182 416.995 366.926 Q416.995 366.099 417.47 365.526 Q417.944 364.953 418.789 364.756 M418.361 362.91 Q418.361 363.582 418.778 363.958 Q419.2 364.334 419.958 364.334 Q420.71 364.334 421.133 363.958 Q421.561 363.582 421.561 362.91 Q421.561 362.239 421.133 361.863 Q420.71 361.487 419.958 361.487 Q419.2 361.487 418.778 361.863 Q418.361 362.239 418.361 362.91 Z" fill="#000000" fill-rule="evenodd" fill-opacity="1" /><path clip-path="url(#clip540)" d="M 0 0 M516.135 368.373 L518.045 368.373 L518.045 361.782 L515.967 362.198 L515.967 361.134 L518.033 360.717 L519.202 360.717 L519.202 368.373 L521.112 368.373 L521.112 369.357 L516.135 369.357 L516.135 368.373 Z" fill="#000000" fill-rule="evenodd" fill-opacity="1" /><path clip-path="url(#clip540)" d="M 0 0 M524.879 361.487 Q523.976 361.487 523.519 362.378 Q523.068 363.263 523.068 365.046 Q523.068 366.822 523.519 367.713 Q523.976 368.599 524.879 368.599 Q525.788 368.599 526.239 367.713 Q526.696 366.822 526.696 365.046 Q526.696 363.263 526.239 362.378 Q525.788 361.487 524.879 361.487 M524.879 360.561 Q526.332 360.561 527.096 361.712 Q527.865 362.858 527.865 365.046 Q527.865 367.227 527.096 368.379 Q526.332 369.525 524.879 369.525 Q523.427 369.525 522.657 368.379 Q521.893 367.227 521.893 365.046 Q521.893 362.858 522.657 361.712 Q523.427 360.561 524.879 360.561 Z" fill="#000000" fill-rule="evenodd" fill-opacity="1" /><polyline clip-path="url(#clip542)" style="stroke:#000000; stroke-width:0.5; stroke-opacity:0.1; fill:none" points="
  47.811,276.272 588.189,276.272 
  "/>
<polyline clip-path="url(#clip542)" style="stroke:#000000; stroke-width:0.5; stroke-opacity:0.1; fill:none" points="
  47.811,190.884 588.189,190.884 
  "/>
<polyline clip-path="url(#clip542)" style="stroke:#000000; stroke-width:0.5; stroke-opacity:0.1; fill:none" points="
  47.811,105.496 588.189,105.496 
  "/>
<polyline clip-path="url(#clip542)" style="stroke:#000000; stroke-width:0.5; stroke-opacity:0.1; fill:none" points="
  47.811,20.1077 588.189,20.1077 
  "/>
<polyline clip-path="url(#clip540)" style="stroke:#000000; stroke-width:1; stroke-opacity:1; fill:none" points="
  47.811,354.189 47.811,11.811 
  "/>
<polyline clip-path="url(#clip540)" style="stroke:#000000; stroke-width:1; stroke-opacity:1; fill:none" points="
  47.811,276.272 54.2956,276.272 
  "/>
<polyline clip-path="url(#clip540)" style="stroke:#000000; stroke-width:1; stroke-opacity:1; fill:none" points="
  47.811,190.884 54.2956,190.884 
  "/>
<polyline clip-path="url(#clip540)" style="stroke:#000000; stroke-width:1; stroke-opacity:1; fill:none" points="
  47.811,105.496 54.2956,105.496 
  "/>
<polyline clip-path="url(#clip540)" style="stroke:#000000; stroke-width:1; stroke-opacity:1; fill:none" points="
  47.811,20.1077 54.2956,20.1077 
  "/>
<path clip-path="url(#clip540)" d="M 0 0 M19.8296 272.722 Q18.9269 272.722 18.4697 273.613 Q18.0183 274.499 18.0183 276.281 Q18.0183 278.058 18.4697 278.949 Q18.9269 279.834 19.8296 279.834 Q20.7382 279.834 21.1896 278.949 Q21.6468 278.058 21.6468 276.281 Q21.6468 274.499 21.1896 273.613 Q20.7382 272.722 19.8296 272.722 M19.8296 271.796 Q21.2822 271.796 22.0461 272.948 Q22.8157 274.094 22.8157 276.281 Q22.8157 278.463 22.0461 279.614 Q21.2822 280.76 19.8296 280.76 Q18.3771 280.76 17.6074 279.614 Q16.8435 278.463 16.8435 276.281 Q16.8435 274.094 17.6074 272.948 Q18.3771 271.796 19.8296 271.796 Z" fill="#000000" fill-rule="evenodd" fill-opacity="1" /><path clip-path="url(#clip540)" d="M 0 0 M24.0831 279.123 L25.3042 279.123 L25.3042 280.592 L24.0831 280.592 L24.0831 279.123 Z" fill="#000000" fill-rule="evenodd" fill-opacity="1" /><path clip-path="url(#clip540)" d="M 0 0 M29.0715 272.722 Q28.1687 272.722 27.7115 273.613 Q27.2602 274.499 27.2602 276.281 Q27.2602 278.058 27.7115 278.949 Q28.1687 279.834 29.0715 279.834 Q29.9801 279.834 30.4314 278.949 Q30.8886 278.058 30.8886 276.281 Q30.8886 274.499 30.4314 273.613 Q29.9801 272.722 29.0715 272.722 M29.0715 271.796 Q30.524 271.796 31.2879 272.948 Q32.0576 274.094 32.0576 276.281 Q32.0576 278.463 31.2879 279.614 Q30.524 280.76 29.0715 280.76 Q27.619 280.76 26.8493 279.614 Q26.0854 278.463 26.0854 276.281 Q26.0854 274.094 26.8493 272.948 Q27.619 271.796 29.0715 271.796 Z" fill="#000000" fill-rule="evenodd" fill-opacity="1" /><path clip-path="url(#clip540)" d="M 0 0 M35.8249 272.722 Q34.9222 272.722 34.465 273.613 Q34.0136 274.499 34.0136 276.281 Q34.0136 278.058 34.465 278.949 Q34.9222 279.834 35.8249 279.834 Q36.7335 279.834 37.1849 278.949 Q37.642 278.058 37.642 276.281 Q37.642 274.499 37.1849 273.613 Q36.7335 272.722 35.8249 272.722 M35.8249 271.796 Q37.2775 271.796 38.0414 272.948 Q38.811 274.094 38.811 276.281 Q38.811 278.463 38.0414 279.614 Q37.2775 280.76 35.8249 280.76 Q34.3724 280.76 33.6027 279.614 Q32.8388 278.463 32.8388 276.281 Q32.8388 274.094 33.6027 272.948 Q34.3724 271.796 35.8249 271.796 Z" fill="#000000" fill-rule="evenodd" fill-opacity="1" /><path clip-path="url(#clip540)" d="M 0 0 M20.0785 187.334 Q19.1757 187.334 18.7185 188.225 Q18.2672 189.11 18.2672 190.893 Q18.2672 192.669 18.7185 193.561 Q19.1757 194.446 20.0785 194.446 Q20.987 194.446 21.4384 193.561 Q21.8956 192.669 21.8956 190.893 Q21.8956 189.11 21.4384 188.225 Q20.987 187.334 20.0785 187.334 M20.0785 186.408 Q21.531 186.408 22.2949 187.56 Q23.0646 188.705 23.0646 190.893 Q23.0646 193.075 22.2949 194.226 Q21.531 195.372 20.0785 195.372 Q18.6259 195.372 17.8563 194.226 Q17.0924 193.075 17.0924 190.893 Q17.0924 188.705 17.8563 187.56 Q18.6259 186.408 20.0785 186.408 Z" fill="#000000" fill-rule="evenodd" fill-opacity="1" /><path clip-path="url(#clip540)" d="M 0 0 M24.3319 193.734 L25.553 193.734 L25.553 195.204 L24.3319 195.204 L24.3319 193.734 Z" fill="#000000" fill-rule="evenodd" fill-opacity="1" /><path clip-path="url(#clip540)" d="M 0 0 M29.3203 187.334 Q28.4176 187.334 27.9604 188.225 Q27.509 189.11 27.509 190.893 Q27.509 192.669 27.9604 193.561 Q28.4176 194.446 29.3203 194.446 Q30.2289 194.446 30.6803 193.561 Q31.1375 192.669 31.1375 190.893 Q31.1375 189.11 30.6803 188.225 Q30.2289 187.334 29.3203 187.334 M29.3203 186.408 Q30.7729 186.408 31.5368 187.56 Q32.3064 188.705 32.3064 190.893 Q32.3064 193.075 31.5368 194.226 Q30.7729 195.372 29.3203 195.372 Q27.8678 195.372 27.0981 194.226 Q26.3342 193.075 26.3342 190.893 Q26.3342 188.705 27.0981 187.56 Q27.8678 186.408 29.3203 186.408 Z" fill="#000000" fill-rule="evenodd" fill-opacity="1" /><path clip-path="url(#clip540)" d="M 0 0 M33.5854 186.564 L38.1745 186.564 L38.1745 187.548 L34.656 187.548 L34.656 189.666 Q34.9106 189.579 35.1652 189.539 Q35.4198 189.492 35.6745 189.492 Q37.1212 189.492 37.9661 190.285 Q38.811 191.078 38.811 192.432 Q38.811 193.827 37.943 194.602 Q37.0749 195.372 35.4951 195.372 Q34.9511 195.372 34.384 195.279 Q33.8226 195.187 33.2208 195.002 L33.2208 193.827 Q33.7416 194.11 34.2972 194.249 Q34.8527 194.388 35.4719 194.388 Q36.4731 194.388 37.0576 193.862 Q37.642 193.335 37.642 192.432 Q37.642 191.529 37.0576 191.003 Q36.4731 190.476 35.4719 190.476 Q35.0032 190.476 34.5344 190.58 Q34.0715 190.685 33.5854 190.904 L33.5854 186.564 Z" fill="#000000" fill-rule="evenodd" fill-opacity="1" /><path clip-path="url(#clip540)" d="M 0 0 M20.1364 101.946 Q19.2336 101.946 18.7764 102.837 Q18.325 103.722 18.325 105.505 Q18.325 107.281 18.7764 108.172 Q19.2336 109.058 20.1364 109.058 Q21.0449 109.058 21.4963 108.172 Q21.9535 107.281 21.9535 105.505 Q21.9535 103.722 21.4963 102.837 Q21.0449 101.946 20.1364 101.946 M20.1364 101.02 Q21.5889 101.02 22.3528 102.171 Q23.1225 103.317 23.1225 105.505 Q23.1225 107.686 22.3528 108.838 Q21.5889 109.984 20.1364 109.984 Q18.6838 109.984 17.9141 108.838 Q17.1503 107.686 17.1503 105.505 Q17.1503 103.317 17.9141 102.171 Q18.6838 101.02 20.1364 101.02 Z" fill="#000000" fill-rule="evenodd" fill-opacity="1" /><path clip-path="url(#clip540)" d="M 0 0 M24.3898 108.346 L25.6109 108.346 L25.6109 109.816 L24.3898 109.816 L24.3898 108.346 Z" fill="#000000" fill-rule="evenodd" fill-opacity="1" /><path clip-path="url(#clip540)" d="M 0 0 M27.0808 108.832 L28.9905 108.832 L28.9905 102.241 L26.9129 102.657 L26.9129 101.593 L28.9789 101.176 L30.1479 101.176 L30.1479 108.832 L32.0576 108.832 L32.0576 109.816 L27.0808 109.816 L27.0808 108.832 Z" fill="#000000" fill-rule="evenodd" fill-opacity="1" /><path clip-path="url(#clip540)" d="M 0 0 M35.8249 101.946 Q34.9222 101.946 34.465 102.837 Q34.0136 103.722 34.0136 105.505 Q34.0136 107.281 34.465 108.172 Q34.9222 109.058 35.8249 109.058 Q36.7335 109.058 37.1849 108.172 Q37.642 107.281 37.642 105.505 Q37.642 103.722 37.1849 102.837 Q36.7335 101.946 35.8249 101.946 M35.8249 101.02 Q37.2775 101.02 38.0414 102.171 Q38.811 103.317 38.811 105.505 Q38.811 107.686 38.0414 108.838 Q37.2775 109.984 35.8249 109.984 Q34.3724 109.984 33.6027 108.838 Q32.8388 107.686 32.8388 105.505 Q32.8388 103.317 33.6027 102.171 Q34.3724 101.02 35.8249 101.02 Z" fill="#000000" fill-rule="evenodd" fill-opacity="1" /><path clip-path="url(#clip540)" d="M 0 0 M20.3852 16.5574 Q19.4824 16.5574 19.0253 17.4486 Q18.5739 18.334 18.5739 20.1164 Q18.5739 21.893 19.0253 22.7842 Q19.4824 23.6696 20.3852 23.6696 Q21.2938 23.6696 21.7451 22.7842 Q22.2023 21.893 22.2023 20.1164 Q22.2023 18.334 21.7451 17.4486 Q21.2938 16.5574 20.3852 16.5574 M20.3852 15.6314 Q21.8377 15.6314 22.6016 16.783 Q23.3713 17.9289 23.3713 20.1164 Q23.3713 22.2981 22.6016 23.4497 Q21.8377 24.5955 20.3852 24.5955 Q18.9327 24.5955 18.163 23.4497 Q17.3991 22.2981 17.3991 20.1164 Q17.3991 17.9289 18.163 16.783 Q18.9327 15.6314 20.3852 15.6314 Z" fill="#000000" fill-rule="evenodd" fill-opacity="1" /><path clip-path="url(#clip540)" d="M 0 0 M24.6386 22.9578 L25.8597 22.9578 L25.8597 24.4277 L24.6386 24.4277 L24.6386 22.9578 Z" fill="#000000" fill-rule="evenodd" fill-opacity="1" /><path clip-path="url(#clip540)" d="M 0 0 M27.3296 23.4439 L29.2393 23.4439 L29.2393 16.8525 L27.1618 17.2692 L27.1618 16.2043 L29.2277 15.7877 L30.3967 15.7877 L30.3967 23.4439 L32.3064 23.4439 L32.3064 24.4277 L27.3296 24.4277 L27.3296 23.4439 Z" fill="#000000" fill-rule="evenodd" fill-opacity="1" /><path clip-path="url(#clip540)" d="M 0 0 M33.5854 15.7877 L38.1745 15.7877 L38.1745 16.7715 L34.656 16.7715 L34.656 18.8895 Q34.9106 18.8027 35.1652 18.7622 Q35.4198 18.7159 35.6745 18.7159 Q37.1212 18.7159 37.9661 19.5087 Q38.811 20.3015 38.811 21.6557 Q38.811 23.0504 37.943 23.8258 Q37.0749 24.5955 35.4951 24.5955 Q34.9511 24.5955 34.384 24.5029 Q33.8226 24.4103 33.2208 24.2251 L33.2208 23.0504 Q33.7416 23.3339 34.2972 23.4728 Q34.8527 23.6117 35.4719 23.6117 Q36.4731 23.6117 37.0576 23.0851 Q37.642 22.5585 37.642 21.6557 Q37.642 20.7529 37.0576 20.2263 Q36.4731 19.6997 35.4719 19.6997 Q35.0032 19.6997 34.5344 19.8039 Q34.0715 19.908 33.5854 20.1279 L33.5854 15.7877 Z" fill="#000000" fill-rule="evenodd" fill-opacity="1" /><circle clip-path="url(#clip542)" cx="63.1047" cy="270.301" r="3" fill="#009af9" fill-rule="evenodd" fill-opacity="1" stroke="#000000" stroke-opacity="1" stroke-width="0.8"/>
<circle clip-path="url(#clip542)" cx="114.084" cy="180.733" r="3" fill="#009af9" fill-rule="evenodd" fill-opacity="1" stroke="#000000" stroke-opacity="1" stroke-width="0.8"/>
<circle clip-path="url(#clip542)" cx="165.063" cy="111.069" r="3" fill="#009af9" fill-rule="evenodd" fill-opacity="1" stroke="#000000" stroke-opacity="1" stroke-width="0.8"/>
<circle clip-path="url(#clip542)" cx="216.042" cy="61.309" r="3" fill="#009af9" fill-rule="evenodd" fill-opacity="1" stroke="#000000" stroke-opacity="1" stroke-width="0.8"/>
<circle clip-path="url(#clip542)" cx="267.021" cy="31.453" r="3" fill="#009af9" fill-rule="evenodd" fill-opacity="1" stroke="#000000" stroke-opacity="1" stroke-width="0.8"/>
<circle clip-path="url(#clip542)" cx="318" cy="21.501" r="3" fill="#009af9" fill-rule="evenodd" fill-opacity="1" stroke="#000000" stroke-opacity="1" stroke-width="0.8"/>
<circle clip-path="url(#clip542)" cx="368.979" cy="31.453" r="3" fill="#009af9" fill-rule="evenodd" fill-opacity="1" stroke="#000000" stroke-opacity="1" stroke-width="0.8"/>
<circle clip-path="url(#clip542)" cx="419.958" cy="61.309" r="3" fill="#009af9" fill-rule="evenodd" fill-opacity="1" stroke="#000000" stroke-opacity="1" stroke-width="0.8"/>
<circle clip-path="url(#clip542)" cx="470.937" cy="111.069" r="3" fill="#009af9" fill-rule="evenodd" fill-opacity="1" stroke="#000000" stroke-opacity="1" stroke-width="0.8"/>
<circle clip-path="url(#clip542)" cx="521.916" cy="180.733" r="3" fill="#009af9" fill-rule="evenodd" fill-opacity="1" stroke="#000000" stroke-opacity="1" stroke-width="0.8"/>
<circle clip-path="url(#clip542)" cx="572.895" cy="270.301" r="3" fill="#009af9" fill-rule="evenodd" fill-opacity="1" stroke="#000000" stroke-opacity="1" stroke-width="0.8"/>
<circle clip-path="url(#clip542)" cx="63.1047" cy="324.374" r="3" fill="#e26f46" fill-rule="evenodd" fill-opacity="1" stroke="#000000" stroke-opacity="1" stroke-width="0.8"/>
<circle clip-path="url(#clip542)" cx="114.084" cy="344.278" r="3" fill="#e26f46" fill-rule="evenodd" fill-opacity="1" stroke="#000000" stroke-opacity="1" stroke-width="0.8"/>
<circle clip-path="url(#clip542)" cx="165.063" cy="344.499" r="3" fill="#e26f46" fill-rule="evenodd" fill-opacity="1" stroke="#000000" stroke-opacity="1" stroke-width="0.8"/>
<circle clip-path="url(#clip542)" cx="216.042" cy="329.958" r="3" fill="#e26f46" fill-rule="evenodd" fill-opacity="1" stroke="#000000" stroke-opacity="1" stroke-width="0.8"/>
<circle clip-path="url(#clip542)" cx="267.021" cy="305.576" r="3" fill="#e26f46" fill-rule="evenodd" fill-opacity="1" stroke="#000000" stroke-opacity="1" stroke-width="0.8"/>
<circle clip-path="url(#clip542)" cx="318" cy="276.272" r="3" fill="#e26f46" fill-rule="evenodd" fill-opacity="1" stroke="#000000" stroke-opacity="1" stroke-width="0.8"/>
<circle clip-path="url(#clip542)" cx="368.979" cy="246.969" r="3" fill="#e26f46" fill-rule="evenodd" fill-opacity="1" stroke="#000000" stroke-opacity="1" stroke-width="0.8"/>
<circle clip-path="url(#clip542)" cx="419.958" cy="222.587" r="3" fill="#e26f46" fill-rule="evenodd" fill-opacity="1" stroke="#000000" stroke-opacity="1" stroke-width="0.8"/>
<circle clip-path="url(#clip542)" cx="470.937" cy="208.046" r="3" fill="#e26f46" fill-rule="evenodd" fill-opacity="1" stroke="#000000" stroke-opacity="1" stroke-width="0.8"/>
<circle clip-path="url(#clip542)" cx="521.916" cy="208.267" r="3" fill="#e26f46" fill-rule="evenodd" fill-opacity="1" stroke="#000000" stroke-opacity="1" stroke-width="0.8"/>
<circle clip-path="url(#clip542)" cx="572.895" cy="228.171" r="3" fill="#e26f46" fill-rule="evenodd" fill-opacity="1" stroke="#000000" stroke-opacity="1" stroke-width="0.8"/>
<circle clip-path="url(#clip542)" cx="63.1047" cy="261.344" r="3" fill="#3da44d" fill-rule="evenodd" fill-opacity="1" stroke="#000000" stroke-opacity="1" stroke-width="0.8"/>
<circle clip-path="url(#clip542)" cx="114.084" cy="270.301" r="3" fill="#3da44d" fill-rule="evenodd" fill-opacity="1" stroke="#000000" stroke-opacity="1" stroke-width="0.8"/>
<circle clip-path="url(#clip542)" cx="165.063" cy="277.268" r="3" fill="#3da44d" fill-rule="evenodd" fill-opacity="1" stroke="#000000" stroke-opacity="1" stroke-width="0.8"/>
<circle clip-path="url(#clip542)" cx="216.042" cy="282.244" r="3" fill="#3da44d" fill-rule="evenodd" fill-opacity="1" stroke="#000000" stroke-opacity="1" stroke-width="0.8"/>
<circle clip-path="url(#clip542)" cx="267.021" cy="285.229" r="3" fill="#3da44d" fill-rule="evenodd" fill-opacity="1" stroke="#000000" stroke-opacity="1" stroke-width="0.8"/>
<circle clip-path="url(#clip542)" cx="318" cy="286.224" r="3" fill="#3da44d" fill-rule="evenodd" fill-opacity="1" stroke="#000000" stroke-opacity="1" stroke-width="0.8"/>
<circle clip-path="url(#clip542)" cx="368.979" cy="285.229" r="3" fill="#3da44d" fill-rule="evenodd" fill-opacity="1" stroke="#000000" stroke-opacity="1" stroke-width="0.8"/>
<circle clip-path="url(#clip542)" cx="419.958" cy="282.244" r="3" fill="#3da44d" fill-rule="evenodd" fill-opacity="1" stroke="#000000" stroke-opacity="1" stroke-width="0.8"/>
<circle clip-path="url(#clip542)" cx="470.937" cy="277.268" r="3" fill="#3da44d" fill-rule="evenodd" fill-opacity="1" stroke="#000000" stroke-opacity="1" stroke-width="0.8"/>
<circle clip-path="url(#clip542)" cx="521.916" cy="270.301" r="3" fill="#3da44d" fill-rule="evenodd" fill-opacity="1" stroke="#000000" stroke-opacity="1" stroke-width="0.8"/>
<circle clip-path="url(#clip542)" cx="572.895" cy="261.344" r="3" fill="#3da44d" fill-rule="evenodd" fill-opacity="1" stroke="#000000" stroke-opacity="1" stroke-width="0.8"/>
<path clip-path="url(#clip540)" d="
M338.133 83.7036 L570.176 83.7036 L570.176 23.2236 L338.133 23.2236  Z
  " fill="#ffffff" fill-rule="evenodd" fill-opacity="1"/>
<polyline clip-path="url(#clip540)" style="stroke:#000000; stroke-width:1; stroke-opacity:1; fill:none" points="
  338.133,83.7036 570.176,83.7036 570.176,23.2236 338.133,23.2236 338.133,83.7036 
  "/>
<circle clip-path="url(#clip540)" cx="362.15" cy="38.3436" r="5" fill="#009af9" fill-rule="evenodd" fill-opacity="1" stroke="#000000" stroke-opacity="1" stroke-width="1.28"/>
<path clip-path="url(#clip540)" d="M 0 0 M386.167 36.1822 L387.231 36.1822 L388.562 41.24 L389.888 36.1822 L391.143 36.1822 L392.474 41.24 L393.8 36.1822 L394.864 36.1822 L393.169 42.6636 L391.913 42.6636 L390.518 37.3512 L389.118 42.6636 L387.862 42.6636 L386.167 36.1822 Z" fill="#000000" fill-rule="evenodd" fill-opacity="1" /><path clip-path="url(#clip540)" d="M 0 0 M395.981 36.1822 L397.046 36.1822 L397.046 42.6636 L395.981 42.6636 L395.981 36.1822 M395.981 33.659 L397.046 33.659 L397.046 35.0074 L395.981 35.0074 L395.981 33.659 Z" fill="#000000" fill-rule="evenodd" fill-opacity="1" /><path clip-path="url(#clip540)" d="M 0 0 M403.551 38.7516 L403.551 42.6636 L402.486 42.6636 L402.486 38.7863 Q402.486 37.8662 402.127 37.409 Q401.768 36.9518 401.051 36.9518 Q400.189 36.9518 399.691 37.5016 Q399.193 38.0514 399.193 39.0004 L399.193 42.6636 L398.123 42.6636 L398.123 36.1822 L399.193 36.1822 L399.193 37.1891 Q399.575 36.6046 400.09 36.3153 Q400.611 36.0259 401.288 36.0259 Q402.405 36.0259 402.978 36.7204 Q403.551 37.409 403.551 38.7516 Z" fill="#000000" fill-rule="evenodd" fill-opacity="1" /><path clip-path="url(#clip540)" d="M 0 0 M408.933 37.166 L408.933 33.659 L409.997 33.659 L409.997 42.6636 L408.933 42.6636 L408.933 41.6914 Q408.597 42.2701 408.082 42.5537 Q407.573 42.8314 406.855 42.8314 Q405.68 42.8314 404.94 41.894 Q404.205 40.9565 404.205 39.4287 Q404.205 37.9009 404.94 36.9634 Q405.68 36.0259 406.855 36.0259 Q407.573 36.0259 408.082 36.3095 Q408.597 36.5873 408.933 37.166 M405.304 39.4287 Q405.304 40.6034 405.785 41.2747 Q406.271 41.9402 407.116 41.9402 Q407.96 41.9402 408.447 41.2747 Q408.933 40.6034 408.933 39.4287 Q408.933 38.2539 408.447 37.5884 Q407.96 36.9171 407.116 36.9171 Q406.271 36.9171 405.785 37.5884 Q405.304 38.2539 405.304 39.4287 Z" fill="#000000" fill-rule="evenodd" fill-opacity="1" /><path clip-path="url(#clip540)" d="M 0 0 M413.626 36.9287 Q412.769 36.9287 412.272 37.6 Q411.774 38.2655 411.774 39.4287 Q411.774 40.5919 412.266 41.2632 Q412.764 41.9287 413.626 41.9287 Q414.477 41.9287 414.974 41.2574 Q415.472 40.5861 415.472 39.4287 Q415.472 38.2771 414.974 37.6058 Q414.477 36.9287 413.626 36.9287 M413.626 36.0259 Q415.015 36.0259 415.808 36.9287 Q416.6 37.8315 416.6 39.4287 Q416.6 41.0201 415.808 41.9287 Q415.015 42.8314 413.626 42.8314 Q412.231 42.8314 411.438 41.9287 Q410.651 41.0201 410.651 39.4287 Q410.651 37.8315 411.438 36.9287 Q412.231 36.0259 413.626 36.0259 Z" fill="#000000" fill-rule="evenodd" fill-opacity="1" /><path clip-path="url(#clip540)" d="M 0 0 M417.098 36.1822 L418.163 36.1822 L419.494 41.24 L420.819 36.1822 L422.075 36.1822 L423.406 41.24 L424.731 36.1822 L425.796 36.1822 L424.1 42.6636 L422.845 42.6636 L421.45 37.3512 L420.05 42.6636 L418.794 42.6636 L417.098 36.1822 Z" fill="#000000" fill-rule="evenodd" fill-opacity="1" /><path clip-path="url(#clip540)" d="M 0 0 M433.961 33.659 L433.961 34.5445 L432.943 34.5445 Q432.37 34.5445 432.144 34.7759 Q431.924 35.0074 431.924 35.6093 L431.924 36.1822 L433.678 36.1822 L433.678 37.0097 L431.924 37.0097 L431.924 42.6636 L430.854 42.6636 L430.854 37.0097 L429.835 37.0097 L429.835 36.1822 L430.854 36.1822 L430.854 35.7308 Q430.854 34.6486 431.357 34.1567 Q431.861 33.659 432.955 33.659 L433.961 33.659 Z" fill="#000000" fill-rule="evenodd" fill-opacity="1" /><path clip-path="url(#clip540)" d="M 0 0 M437.59 36.9287 Q436.733 36.9287 436.236 37.6 Q435.738 38.2655 435.738 39.4287 Q435.738 40.5919 436.23 41.2632 Q436.728 41.9287 437.59 41.9287 Q438.441 41.9287 438.938 41.2574 Q439.436 40.5861 439.436 39.4287 Q439.436 38.2771 438.938 37.6058 Q438.441 36.9287 437.59 36.9287 M437.59 36.0259 Q438.979 36.0259 439.772 36.9287 Q440.564 37.8315 440.564 39.4287 Q440.564 41.0201 439.772 41.9287 Q438.979 42.8314 437.59 42.8314 Q436.195 42.8314 435.402 41.9287 Q434.615 41.0201 434.615 39.4287 Q434.615 37.8315 435.402 36.9287 Q436.195 36.0259 437.59 36.0259 Z" fill="#000000" fill-rule="evenodd" fill-opacity="1" /><path clip-path="url(#clip540)" d="M 0 0 M445.437 37.1775 Q445.258 37.0734 445.044 37.0271 Q444.835 36.975 444.581 36.975 Q443.678 36.975 443.192 37.5653 Q442.711 38.1498 442.711 39.2493 L442.711 42.6636 L441.641 42.6636 L441.641 36.1822 L442.711 36.1822 L442.711 37.1891 Q443.047 36.5988 443.585 36.3153 Q444.123 36.0259 444.893 36.0259 Q445.003 36.0259 445.136 36.0433 Q445.269 36.0549 445.431 36.0838 L445.437 37.1775 Z" fill="#000000" fill-rule="evenodd" fill-opacity="1" /><path clip-path="url(#clip540)" d="M 0 0 M454.453 36.3731 L454.453 37.3801 Q454.002 37.1486 453.516 37.0329 Q453.03 36.9171 452.509 36.9171 Q451.716 36.9171 451.317 37.1602 Q450.923 37.4032 450.923 37.8893 Q450.923 38.2597 451.207 38.4738 Q451.49 38.6822 452.347 38.8731 L452.711 38.9542 Q453.846 39.1972 454.32 39.6428 Q454.8 40.0826 454.8 40.8754 Q454.8 41.7782 454.083 42.3048 Q453.371 42.8314 452.121 42.8314 Q451.6 42.8314 451.033 42.7273 Q450.472 42.6289 449.847 42.4264 L449.847 41.3268 Q450.437 41.6335 451.01 41.7898 Q451.583 41.9402 452.144 41.9402 Q452.897 41.9402 453.302 41.6856 Q453.707 41.4252 453.707 40.9565 Q453.707 40.5224 453.412 40.2909 Q453.122 40.0595 452.133 39.8454 L451.762 39.7585 Q450.773 39.5502 450.333 39.122 Q449.893 38.6879 449.893 37.9356 Q449.893 37.0213 450.541 36.5236 Q451.189 36.0259 452.382 36.0259 Q452.972 36.0259 453.493 36.1127 Q454.013 36.1995 454.453 36.3731 Z" fill="#000000" fill-rule="evenodd" fill-opacity="1" /><path clip-path="url(#clip540)" d="M 0 0 M460.964 37.4264 Q461.363 36.7088 461.918 36.3674 Q462.474 36.0259 463.226 36.0259 Q464.239 36.0259 464.789 36.7377 Q465.339 37.4437 465.339 38.7516 L465.339 42.6636 L464.268 42.6636 L464.268 38.7863 Q464.268 37.8546 463.938 37.4032 Q463.608 36.9518 462.931 36.9518 Q462.104 36.9518 461.623 37.5016 Q461.143 38.0514 461.143 39.0004 L461.143 42.6636 L460.072 42.6636 L460.072 38.7863 Q460.072 37.8488 459.743 37.4032 Q459.413 36.9518 458.724 36.9518 Q457.908 36.9518 457.428 37.5074 Q456.947 38.0572 456.947 39.0004 L456.947 42.6636 L455.877 42.6636 L455.877 36.1822 L456.947 36.1822 L456.947 37.1891 Q457.312 36.5931 457.821 36.3095 Q458.331 36.0259 459.031 36.0259 Q459.737 36.0259 460.229 36.3847 Q460.726 36.7435 460.964 37.4264 Z" fill="#000000" fill-rule="evenodd" fill-opacity="1" /><path clip-path="url(#clip540)" d="M 0 0 M468.967 36.9287 Q468.111 36.9287 467.613 37.6 Q467.115 38.2655 467.115 39.4287 Q467.115 40.5919 467.607 41.2632 Q468.105 41.9287 468.967 41.9287 Q469.818 41.9287 470.315 41.2574 Q470.813 40.5861 470.813 39.4287 Q470.813 38.2771 470.315 37.6058 Q469.818 36.9287 468.967 36.9287 M468.967 36.0259 Q470.356 36.0259 471.149 36.9287 Q471.942 37.8315 471.942 39.4287 Q471.942 41.0201 471.149 41.9287 Q470.356 42.8314 468.967 42.8314 Q467.572 42.8314 466.78 41.9287 Q465.993 41.0201 465.993 39.4287 Q465.993 37.8315 466.78 36.9287 Q467.572 36.0259 468.967 36.0259 Z" fill="#000000" fill-rule="evenodd" fill-opacity="1" /><path clip-path="url(#clip540)" d="M 0 0 M475.57 36.9287 Q474.714 36.9287 474.216 37.6 Q473.718 38.2655 473.718 39.4287 Q473.718 40.5919 474.21 41.2632 Q474.708 41.9287 475.57 41.9287 Q476.421 41.9287 476.918 41.2574 Q477.416 40.5861 477.416 39.4287 Q477.416 38.2771 476.918 37.6058 Q476.421 36.9287 475.57 36.9287 M475.57 36.0259 Q476.959 36.0259 477.752 36.9287 Q478.545 37.8315 478.545 39.4287 Q478.545 41.0201 477.752 41.9287 Q476.959 42.8314 475.57 42.8314 Q474.175 42.8314 473.383 41.9287 Q472.596 41.0201 472.596 39.4287 Q472.596 37.8315 473.383 36.9287 Q474.175 36.0259 475.57 36.0259 Z" fill="#000000" fill-rule="evenodd" fill-opacity="1" /><path clip-path="url(#clip540)" d="M 0 0 M480.715 34.3419 L480.715 36.1822 L482.908 36.1822 L482.908 37.0097 L480.715 37.0097 L480.715 40.5282 Q480.715 41.321 480.929 41.5467 Q481.149 41.7724 481.814 41.7724 L482.908 41.7724 L482.908 42.6636 L481.814 42.6636 Q480.582 42.6636 480.113 42.2064 Q479.644 41.7435 479.644 40.5282 L479.644 37.0097 L478.863 37.0097 L478.863 36.1822 L479.644 36.1822 L479.644 34.3419 L480.715 34.3419 Z" fill="#000000" fill-rule="evenodd" fill-opacity="1" /><path clip-path="url(#clip540)" d="M 0 0 M489.413 38.7516 L489.413 42.6636 L488.348 42.6636 L488.348 38.7863 Q488.348 37.8662 487.989 37.409 Q487.63 36.9518 486.913 36.9518 Q486.05 36.9518 485.553 37.5016 Q485.055 38.0514 485.055 39.0004 L485.055 42.6636 L483.984 42.6636 L483.984 33.659 L485.055 33.659 L485.055 37.1891 Q485.437 36.6046 485.952 36.3153 Q486.473 36.0259 487.15 36.0259 Q488.267 36.0259 488.84 36.7204 Q489.413 37.409 489.413 38.7516 Z" fill="#000000" fill-rule="evenodd" fill-opacity="1" /><path clip-path="url(#clip540)" d="M 0 0 M490.529 36.1822 L491.594 36.1822 L491.594 42.6636 L490.529 42.6636 L490.529 36.1822 M490.529 33.659 L491.594 33.659 L491.594 35.0074 L490.529 35.0074 L490.529 33.659 Z" fill="#000000" fill-rule="evenodd" fill-opacity="1" /><path clip-path="url(#clip540)" d="M 0 0 M498.099 38.7516 L498.099 42.6636 L497.034 42.6636 L497.034 38.7863 Q497.034 37.8662 496.675 37.409 Q496.316 36.9518 495.599 36.9518 Q494.737 36.9518 494.239 37.5016 Q493.741 38.0514 493.741 39.0004 L493.741 42.6636 L492.671 42.6636 L492.671 36.1822 L493.741 36.1822 L493.741 37.1891 Q494.123 36.6046 494.638 36.3153 Q495.159 36.0259 495.836 36.0259 Q496.953 36.0259 497.526 36.7204 Q498.099 37.409 498.099 38.7516 Z" fill="#000000" fill-rule="evenodd" fill-opacity="1" /><path clip-path="url(#clip540)" d="M 0 0 M503.481 39.3477 Q503.481 38.1903 503 37.5537 Q502.526 36.9171 501.664 36.9171 Q500.807 36.9171 500.327 37.5537 Q499.852 38.1903 499.852 39.3477 Q499.852 40.4993 500.327 41.1359 Q500.807 41.7724 501.664 41.7724 Q502.526 41.7724 503 41.1359 Q503.481 40.4993 503.481 39.3477 M504.546 41.8592 Q504.546 43.5143 503.811 44.3187 Q503.076 45.1289 501.559 45.1289 Q500.998 45.1289 500.5 45.0421 Q500.003 44.9611 499.534 44.7875 L499.534 43.7516 Q500.003 44.0062 500.46 44.1277 Q500.917 44.2493 501.392 44.2493 Q502.439 44.2493 502.96 43.6995 Q503.481 43.1555 503.481 42.0502 L503.481 41.5236 Q503.151 42.0965 502.636 42.3801 Q502.121 42.6636 501.403 42.6636 Q500.211 42.6636 499.482 41.7551 Q498.753 40.8465 498.753 39.3477 Q498.753 37.843 499.482 36.9345 Q500.211 36.0259 501.403 36.0259 Q502.121 36.0259 502.636 36.3095 Q503.151 36.5931 503.481 37.166 L503.481 36.1822 L504.546 36.1822 L504.546 41.8592 Z" fill="#000000" fill-rule="evenodd" fill-opacity="1" /><circle clip-path="url(#clip540)" cx="362.15" cy="53.4636" r="5" fill="#e26f46" fill-rule="evenodd" fill-opacity="1" stroke="#000000" stroke-opacity="1" stroke-width="1.28"/>
<path clip-path="url(#clip540)" d="M 0 0 M386.167 51.3022 L387.231 51.3022 L388.562 56.36 L389.888 51.3022 L391.143 51.3022 L392.474 56.36 L393.8 51.3022 L394.864 51.3022 L393.169 57.7836 L391.913 57.7836 L390.518 52.4712 L389.118 57.7836 L387.862 57.7836 L386.167 51.3022 Z" fill="#000000" fill-rule="evenodd" fill-opacity="1" /><path clip-path="url(#clip540)" d="M 0 0 M395.981 51.3022 L397.046 51.3022 L397.046 57.7836 L395.981 57.7836 L395.981 51.3022 M395.981 48.779 L397.046 48.779 L397.046 50.1274 L395.981 50.1274 L395.981 48.779 Z" fill="#000000" fill-rule="evenodd" fill-opacity="1" /><path clip-path="url(#clip540)" d="M 0 0 M403.551 53.8716 L403.551 57.7836 L402.486 57.7836 L402.486 53.9063 Q402.486 52.9862 402.127 52.529 Q401.768 52.0718 401.051 52.0718 Q400.189 52.0718 399.691 52.6216 Q399.193 53.1714 399.193 54.1204 L399.193 57.7836 L398.123 57.7836 L398.123 51.3022 L399.193 51.3022 L399.193 52.3091 Q399.575 51.7246 400.09 51.4353 Q400.611 51.1459 401.288 51.1459 Q402.405 51.1459 402.978 51.8404 Q403.551 52.529 403.551 53.8716 Z" fill="#000000" fill-rule="evenodd" fill-opacity="1" /><path clip-path="url(#clip540)" d="M 0 0 M408.933 52.286 L408.933 48.779 L409.997 48.779 L409.997 57.7836 L408.933 57.7836 L408.933 56.8114 Q408.597 57.3901 408.082 57.6737 Q407.573 57.9514 406.855 57.9514 Q405.68 57.9514 404.94 57.014 Q404.205 56.0765 404.205 54.5487 Q404.205 53.0209 404.94 52.0834 Q405.68 51.1459 406.855 51.1459 Q407.573 51.1459 408.082 51.4295 Q408.597 51.7073 408.933 52.286 M405.304 54.5487 Q405.304 55.7234 405.785 56.3947 Q406.271 57.0602 407.116 57.0602 Q407.96 57.0602 408.447 56.3947 Q408.933 55.7234 408.933 54.5487 Q408.933 53.3739 408.447 52.7084 Q407.96 52.0371 407.116 52.0371 Q406.271 52.0371 405.785 52.7084 Q405.304 53.3739 405.304 54.5487 Z" fill="#000000" fill-rule="evenodd" fill-opacity="1" /><path clip-path="url(#clip540)" d="M 0 0 M413.626 52.0487 Q412.769 52.0487 412.272 52.72 Q411.774 53.3855 411.774 54.5487 Q411.774 55.7119 412.266 56.3832 Q412.764 57.0487 413.626 57.0487 Q414.477 57.0487 414.974 56.3774 Q415.472 55.7061 415.472 54.5487 Q415.472 53.3971 414.974 52.7258 Q414.477 52.0487 413.626 52.0487 M413.626 51.1459 Q415.015 51.1459 415.808 52.0487 Q416.6 52.9515 416.6 54.5487 Q416.6 56.1401 415.808 57.0487 Q415.015 57.9514 413.626 57.9514 Q412.231 57.9514 411.438 57.0487 Q410.651 56.1401 410.651 54.5487 Q410.651 52.9515 411.438 52.0487 Q412.231 51.1459 413.626 51.1459 Z" fill="#000000" fill-rule="evenodd" fill-opacity="1" /><path clip-path="url(#clip540)" d="M 0 0 M417.098 51.3022 L418.163 51.3022 L419.494 56.36 L420.819 51.3022 L422.075 51.3022 L423.406 56.36 L424.731 51.3022 L425.796 51.3022 L424.1 57.7836 L422.845 57.7836 L421.45 52.4712 L420.05 57.7836 L418.794 57.7836 L417.098 51.3022 Z" fill="#000000" fill-rule="evenodd" fill-opacity="1" /><path clip-path="url(#clip540)" d="M 0 0 M433.961 48.779 L433.961 49.6645 L432.943 49.6645 Q432.37 49.6645 432.144 49.8959 Q431.924 50.1274 431.924 50.7293 L431.924 51.3022 L433.678 51.3022 L433.678 52.1297 L431.924 52.1297 L431.924 57.7836 L430.854 57.7836 L430.854 52.1297 L429.835 52.1297 L429.835 51.3022 L430.854 51.3022 L430.854 50.8508 Q430.854 49.7686 431.357 49.2767 Q431.861 48.779 432.955 48.779 L433.961 48.779 Z" fill="#000000" fill-rule="evenodd" fill-opacity="1" /><path clip-path="url(#clip540)" d="M 0 0 M437.59 52.0487 Q436.733 52.0487 436.236 52.72 Q435.738 53.3855 435.738 54.5487 Q435.738 55.7119 436.23 56.3832 Q436.728 57.0487 437.59 57.0487 Q438.441 57.0487 438.938 56.3774 Q439.436 55.7061 439.436 54.5487 Q439.436 53.3971 438.938 52.7258 Q438.441 52.0487 437.59 52.0487 M437.59 51.1459 Q438.979 51.1459 439.772 52.0487 Q440.564 52.9515 440.564 54.5487 Q440.564 56.1401 439.772 57.0487 Q438.979 57.9514 437.59 57.9514 Q436.195 57.9514 435.402 57.0487 Q434.615 56.1401 434.615 54.5487 Q434.615 52.9515 435.402 52.0487 Q436.195 51.1459 437.59 51.1459 Z" fill="#000000" fill-rule="evenodd" fill-opacity="1" /><path clip-path="url(#clip540)" d="M 0 0 M445.437 52.2975 Q445.258 52.1934 445.044 52.1471 Q444.835 52.095 444.581 52.095 Q443.678 52.095 443.192 52.6853 Q442.711 53.2698 442.711 54.3693 L442.711 57.7836 L441.641 57.7836 L441.641 51.3022 L442.711 51.3022 L442.711 52.3091 Q443.047 51.7188 443.585 51.4353 Q444.123 51.1459 444.893 51.1459 Q445.003 51.1459 445.136 51.1633 Q445.269 51.1749 445.431 51.2038 L445.437 52.2975 Z" fill="#000000" fill-rule="evenodd" fill-opacity="1" /><path clip-path="url(#clip540)" d="M 0 0 M450.674 56.7998 L452.584 56.7998 L452.584 50.2084 L450.507 50.6251 L450.507 49.5603 L452.572 49.1436 L453.741 49.1436 L453.741 56.7998 L455.651 56.7998 L455.651 57.7836 L450.674 57.7836 L450.674 56.7998 Z" fill="#000000" fill-rule="evenodd" fill-opacity="1" /><path clip-path="url(#clip540)" d="M 0 0 M460.9 51.4931 L460.9 52.5001 Q460.449 52.2686 459.962 52.1529 Q459.476 52.0371 458.956 52.0371 Q458.163 52.0371 457.763 52.2802 Q457.37 52.5232 457.37 53.0093 Q457.37 53.3797 457.653 53.5938 Q457.937 53.8022 458.794 53.9931 L459.158 54.0742 Q460.292 54.3172 460.767 54.7628 Q461.247 55.2026 461.247 55.9954 Q461.247 56.8982 460.53 57.4248 Q459.818 57.9514 458.568 57.9514 Q458.047 57.9514 457.48 57.8473 Q456.919 57.7489 456.294 57.5464 L456.294 56.4468 Q456.884 56.7535 457.457 56.9098 Q458.03 57.0602 458.591 57.0602 Q459.343 57.0602 459.748 56.8056 Q460.153 56.5452 460.153 56.0765 Q460.153 55.6424 459.858 55.4109 Q459.569 55.1795 458.579 54.9654 L458.209 54.8785 Q457.219 54.6702 456.78 54.242 Q456.34 53.8079 456.34 53.0556 Q456.34 52.1413 456.988 51.6436 Q457.636 51.1459 458.828 51.1459 Q459.419 51.1459 459.939 51.2327 Q460.46 51.3195 460.9 51.4931 Z" fill="#000000" fill-rule="evenodd" fill-opacity="1" /><path clip-path="url(#clip540)" d="M 0 0 M463.417 49.4619 L463.417 51.3022 L465.611 51.3022 L465.611 52.1297 L463.417 52.1297 L463.417 55.6482 Q463.417 56.441 463.631 56.6667 Q463.851 56.8924 464.517 56.8924 L465.611 56.8924 L465.611 57.7836 L464.517 57.7836 Q463.284 57.7836 462.815 57.3264 Q462.347 56.8635 462.347 55.6482 L462.347 52.1297 L461.565 52.1297 L461.565 51.3022 L462.347 51.3022 L462.347 49.4619 L463.417 49.4619 Z" fill="#000000" fill-rule="evenodd" fill-opacity="1" /><path clip-path="url(#clip540)" d="M 0 0 M473.006 52.0487 Q472.15 52.0487 471.652 52.72 Q471.155 53.3855 471.155 54.5487 Q471.155 55.7119 471.646 56.3832 Q472.144 57.0487 473.006 57.0487 Q473.857 57.0487 474.355 56.3774 Q474.852 55.7061 474.852 54.5487 Q474.852 53.3971 474.355 52.7258 Q473.857 52.0487 473.006 52.0487 M473.006 51.1459 Q474.395 51.1459 475.188 52.0487 Q475.981 52.9515 475.981 54.5487 Q475.981 56.1401 475.188 57.0487 Q474.395 57.9514 473.006 57.9514 Q471.612 57.9514 470.819 57.0487 Q470.032 56.1401 470.032 54.5487 Q470.032 52.9515 470.819 52.0487 Q471.612 51.1459 473.006 51.1459 Z" fill="#000000" fill-rule="evenodd" fill-opacity="1" /><path clip-path="url(#clip540)" d="M 0 0 M480.854 52.2975 Q480.674 52.1934 480.46 52.1471 Q480.252 52.095 479.997 52.095 Q479.094 52.095 478.608 52.6853 Q478.128 53.2698 478.128 54.3693 L478.128 57.7836 L477.057 57.7836 L477.057 51.3022 L478.128 51.3022 L478.128 52.3091 Q478.464 51.7188 479.002 51.4353 Q479.54 51.1459 480.31 51.1459 Q480.42 51.1459 480.553 51.1633 Q480.686 51.1749 480.848 51.2038 L480.854 52.2975 Z" fill="#000000" fill-rule="evenodd" fill-opacity="1" /><path clip-path="url(#clip540)" d="M 0 0 M486.027 52.286 L486.027 48.779 L487.092 48.779 L487.092 57.7836 L486.027 57.7836 L486.027 56.8114 Q485.692 57.3901 485.176 57.6737 Q484.667 57.9514 483.95 57.9514 Q482.775 57.9514 482.034 57.014 Q481.299 56.0765 481.299 54.5487 Q481.299 53.0209 482.034 52.0834 Q482.775 51.1459 483.95 51.1459 Q484.667 51.1459 485.176 51.4295 Q485.692 51.7073 486.027 52.286 M482.399 54.5487 Q482.399 55.7234 482.879 56.3947 Q483.365 57.0602 484.21 57.0602 Q485.055 57.0602 485.541 56.3947 Q486.027 55.7234 486.027 54.5487 Q486.027 53.3739 485.541 52.7084 Q485.055 52.0371 484.21 52.0371 Q483.365 52.0371 482.879 52.7084 Q482.399 53.3739 482.399 54.5487 Z" fill="#000000" fill-rule="evenodd" fill-opacity="1" /><path clip-path="url(#clip540)" d="M 0 0 M493.753 54.2767 L493.753 54.7975 L488.857 54.7975 Q488.926 55.8971 489.517 56.4758 Q490.113 57.0487 491.172 57.0487 Q491.785 57.0487 492.358 56.8982 Q492.937 56.7477 493.504 56.4468 L493.504 57.4538 Q492.931 57.6968 492.329 57.8241 Q491.727 57.9514 491.108 57.9514 Q489.557 57.9514 488.649 57.0487 Q487.746 56.1459 487.746 54.6066 Q487.746 53.0151 488.602 52.0834 Q489.465 51.1459 490.923 51.1459 Q492.231 51.1459 492.989 51.9908 Q493.753 52.8299 493.753 54.2767 M492.688 53.9642 Q492.676 53.0904 492.196 52.5695 Q491.722 52.0487 490.935 52.0487 Q490.043 52.0487 489.505 52.5522 Q488.973 53.0556 488.892 53.97 L492.688 53.9642 Z" fill="#000000" fill-rule="evenodd" fill-opacity="1" /><path clip-path="url(#clip540)" d="M 0 0 M498.625 52.2975 Q498.446 52.1934 498.232 52.1471 Q498.024 52.095 497.769 52.095 Q496.866 52.095 496.38 52.6853 Q495.9 53.2698 495.9 54.3693 L495.9 57.7836 L494.829 57.7836 L494.829 51.3022 L495.9 51.3022 L495.9 52.3091 Q496.235 51.7188 496.774 51.4353 Q497.312 51.1459 498.081 51.1459 Q498.191 51.1459 498.325 51.1633 Q498.458 51.1749 498.62 51.2038 L498.625 52.2975 Z" fill="#000000" fill-rule="evenodd" fill-opacity="1" /><path clip-path="url(#clip540)" d="M 0 0 M507.775 52.286 L507.775 48.779 L508.84 48.779 L508.84 57.7836 L507.775 57.7836 L507.775 56.8114 Q507.439 57.3901 506.924 57.6737 Q506.415 57.9514 505.697 57.9514 Q504.522 57.9514 503.782 57.014 Q503.047 56.0765 503.047 54.5487 Q503.047 53.0209 503.782 52.0834 Q504.522 51.1459 505.697 51.1459 Q506.415 51.1459 506.924 51.4295 Q507.439 51.7073 507.775 52.286 M504.146 54.5487 Q504.146 55.7234 504.627 56.3947 Q505.113 57.0602 505.958 57.0602 Q506.803 57.0602 507.289 56.3947 Q507.775 55.7234 507.775 54.5487 Q507.775 53.3739 507.289 52.7084 Q506.803 52.0371 505.958 52.0371 Q505.113 52.0371 504.627 52.7084 Q504.146 53.3739 504.146 54.5487 Z" fill="#000000" fill-rule="evenodd" fill-opacity="1" /><path clip-path="url(#clip540)" d="M 0 0 M515.5 54.2767 L515.5 54.7975 L510.605 54.7975 Q510.674 55.8971 511.264 56.4758 Q511.86 57.0487 512.919 57.0487 Q513.533 57.0487 514.106 56.8982 Q514.684 56.7477 515.252 56.4468 L515.252 57.4538 Q514.679 57.6968 514.077 57.8241 Q513.475 57.9514 512.856 57.9514 Q511.305 57.9514 510.396 57.0487 Q509.493 56.1459 509.493 54.6066 Q509.493 53.0151 510.35 52.0834 Q511.212 51.1459 512.671 51.1459 Q513.978 51.1459 514.736 51.9908 Q515.5 52.8299 515.5 54.2767 M514.436 53.9642 Q514.424 53.0904 513.944 52.5695 Q513.469 52.0487 512.682 52.0487 Q511.791 52.0487 511.253 52.5522 Q510.72 53.0556 510.639 53.97 L514.436 53.9642 Z" fill="#000000" fill-rule="evenodd" fill-opacity="1" /><path clip-path="url(#clip540)" d="M 0 0 M520.373 52.2975 Q520.194 52.1934 519.98 52.1471 Q519.771 52.095 519.517 52.095 Q518.614 52.095 518.128 52.6853 Q517.647 53.2698 517.647 54.3693 L517.647 57.7836 L516.577 57.7836 L516.577 51.3022 L517.647 51.3022 L517.647 52.3091 Q517.983 51.7188 518.521 51.4353 Q519.059 51.1459 519.829 51.1459 Q519.939 51.1459 520.072 51.1633 Q520.205 51.1749 520.367 51.2038 L520.373 52.2975 Z" fill="#000000" fill-rule="evenodd" fill-opacity="1" /><path clip-path="url(#clip540)" d="M 0 0 M521.49 51.3022 L522.555 51.3022 L522.555 57.7836 L521.49 57.7836 L521.49 51.3022 M521.49 48.779 L522.555 48.779 L522.555 50.1274 L521.49 50.1274 L521.49 48.779 Z" fill="#000000" fill-rule="evenodd" fill-opacity="1" /><path clip-path="url(#clip540)" d="M 0 0 M522.908 51.3022 L524.036 51.3022 L526.062 56.742 L528.087 51.3022 L529.216 51.3022 L526.785 57.7836 L525.338 57.7836 L522.908 51.3022 Z" fill="#000000" fill-rule="evenodd" fill-opacity="1" /><path clip-path="url(#clip540)" d="M 0 0 M533.278 54.5255 Q531.988 54.5255 531.49 54.8207 Q530.992 55.1158 530.992 55.8276 Q530.992 56.3947 531.363 56.7304 Q531.739 57.0602 532.381 57.0602 Q533.266 57.0602 533.799 56.4352 Q534.337 55.8045 534.337 54.7628 L534.337 54.5255 L533.278 54.5255 M535.402 54.0857 L535.402 57.7836 L534.337 57.7836 L534.337 56.7998 Q533.973 57.3901 533.429 57.6737 Q532.885 57.9514 532.098 57.9514 Q531.102 57.9514 530.512 57.3959 Q529.927 56.8346 529.927 55.8971 Q529.927 54.8033 530.657 54.2478 Q531.392 53.6922 532.844 53.6922 L534.337 53.6922 L534.337 53.588 Q534.337 52.8531 533.851 52.4538 Q533.371 52.0487 532.497 52.0487 Q531.941 52.0487 531.415 52.1818 Q530.888 52.3149 530.402 52.5811 L530.402 51.5973 Q530.986 51.3716 531.536 51.2617 Q532.086 51.1459 532.607 51.1459 Q534.013 51.1459 534.707 51.8751 Q535.402 52.6043 535.402 54.0857 Z" fill="#000000" fill-rule="evenodd" fill-opacity="1" /><path clip-path="url(#clip540)" d="M 0 0 M537.572 49.4619 L537.572 51.3022 L539.765 51.3022 L539.765 52.1297 L537.572 52.1297 L537.572 55.6482 Q537.572 56.441 537.786 56.6667 Q538.006 56.8924 538.672 56.8924 L539.765 56.8924 L539.765 57.7836 L538.672 57.7836 Q537.439 57.7836 536.97 57.3264 Q536.501 56.8635 536.501 55.6482 L536.501 52.1297 L535.72 52.1297 L535.72 51.3022 L536.501 51.3022 L536.501 49.4619 L537.572 49.4619 Z" fill="#000000" fill-rule="evenodd" fill-opacity="1" /><path clip-path="url(#clip540)" d="M 0 0 M540.882 51.3022 L541.947 51.3022 L541.947 57.7836 L540.882 57.7836 L540.882 51.3022 M540.882 48.779 L541.947 48.779 L541.947 50.1274 L540.882 50.1274 L540.882 48.779 Z" fill="#000000" fill-rule="evenodd" fill-opacity="1" /><path clip-path="url(#clip540)" d="M 0 0 M542.3 51.3022 L543.428 51.3022 L545.454 56.742 L547.479 51.3022 L548.608 51.3022 L546.177 57.7836 L544.731 57.7836 L542.3 51.3022 Z" fill="#000000" fill-rule="evenodd" fill-opacity="1" /><path clip-path="url(#clip540)" d="M 0 0 M555.269 54.2767 L555.269 54.7975 L550.373 54.7975 Q550.442 55.8971 551.033 56.4758 Q551.629 57.0487 552.688 57.0487 Q553.301 57.0487 553.874 56.8982 Q554.453 56.7477 555.02 56.4468 L555.02 57.4538 Q554.447 57.6968 553.845 57.8241 Q553.243 57.9514 552.624 57.9514 Q551.073 57.9514 550.165 57.0487 Q549.262 56.1459 549.262 54.6066 Q549.262 53.0151 550.118 52.0834 Q550.981 51.1459 552.439 51.1459 Q553.747 51.1459 554.505 51.9908 Q555.269 52.8299 555.269 54.2767 M554.204 53.9642 Q554.192 53.0904 553.712 52.5695 Q553.237 52.0487 552.45 52.0487 Q551.559 52.0487 551.021 52.5522 Q550.489 53.0556 550.408 53.97 L554.204 53.9642 Z" fill="#000000" fill-rule="evenodd" fill-opacity="1" /><circle clip-path="url(#clip540)" cx="362.15" cy="68.5836" r="5" fill="#3da44d" fill-rule="evenodd" fill-opacity="1" stroke="#000000" stroke-opacity="1" stroke-width="1.28"/>
<path clip-path="url(#clip540)" d="M 0 0 M386.167 66.4222 L387.231 66.4222 L388.562 71.48 L389.888 66.4222 L391.143 66.4222 L392.474 71.48 L393.8 66.4222 L394.864 66.4222 L393.169 72.9036 L391.913 72.9036 L390.518 67.5912 L389.118 72.9036 L387.862 72.9036 L386.167 66.4222 Z" fill="#000000" fill-rule="evenodd" fill-opacity="1" /><path clip-path="url(#clip540)" d="M 0 0 M395.981 66.4222 L397.046 66.4222 L397.046 72.9036 L395.981 72.9036 L395.981 66.4222 M395.981 63.899 L397.046 63.899 L397.046 65.2474 L395.981 65.2474 L395.981 63.899 Z" fill="#000000" fill-rule="evenodd" fill-opacity="1" /><path clip-path="url(#clip540)" d="M 0 0 M403.551 68.9916 L403.551 72.9036 L402.486 72.9036 L402.486 69.0263 Q402.486 68.1062 402.127 67.649 Q401.768 67.1918 401.051 67.1918 Q400.189 67.1918 399.691 67.7416 Q399.193 68.2914 399.193 69.2404 L399.193 72.9036 L398.123 72.9036 L398.123 66.4222 L399.193 66.4222 L399.193 67.4291 Q399.575 66.8446 400.09 66.5553 Q400.611 66.2659 401.288 66.2659 Q402.405 66.2659 402.978 66.9604 Q403.551 67.649 403.551 68.9916 Z" fill="#000000" fill-rule="evenodd" fill-opacity="1" /><path clip-path="url(#clip540)" d="M 0 0 M408.933 67.406 L408.933 63.899 L409.997 63.899 L409.997 72.9036 L408.933 72.9036 L408.933 71.9314 Q408.597 72.5101 408.082 72.7937 Q407.573 73.0714 406.855 73.0714 Q405.68 73.0714 404.94 72.134 Q404.205 71.1965 404.205 69.6687 Q404.205 68.1409 404.94 67.2034 Q405.68 66.2659 406.855 66.2659 Q407.573 66.2659 408.082 66.5495 Q408.597 66.8273 408.933 67.406 M405.304 69.6687 Q405.304 70.8434 405.785 71.5147 Q406.271 72.1802 407.116 72.1802 Q407.96 72.1802 408.447 71.5147 Q408.933 70.8434 408.933 69.6687 Q408.933 68.4939 408.447 67.8284 Q407.96 67.1571 407.116 67.1571 Q406.271 67.1571 405.785 67.8284 Q405.304 68.4939 405.304 69.6687 Z" fill="#000000" fill-rule="evenodd" fill-opacity="1" /><path clip-path="url(#clip540)" d="M 0 0 M413.626 67.1687 Q412.769 67.1687 412.272 67.84 Q411.774 68.5055 411.774 69.6687 Q411.774 70.8319 412.266 71.5032 Q412.764 72.1687 413.626 72.1687 Q414.477 72.1687 414.974 71.4974 Q415.472 70.8261 415.472 69.6687 Q415.472 68.5171 414.974 67.8458 Q414.477 67.1687 413.626 67.1687 M413.626 66.2659 Q415.015 66.2659 415.808 67.1687 Q416.6 68.0715 416.6 69.6687 Q416.6 71.2601 415.808 72.1687 Q415.015 73.0714 413.626 73.0714 Q412.231 73.0714 411.438 72.1687 Q410.651 71.2601 410.651 69.6687 Q410.651 68.0715 411.438 67.1687 Q412.231 66.2659 413.626 66.2659 Z" fill="#000000" fill-rule="evenodd" fill-opacity="1" /><path clip-path="url(#clip540)" d="M 0 0 M417.098 66.4222 L418.163 66.4222 L419.494 71.48 L420.819 66.4222 L422.075 66.4222 L423.406 71.48 L424.731 66.4222 L425.796 66.4222 L424.1 72.9036 L422.845 72.9036 L421.45 67.5912 L420.05 72.9036 L418.794 72.9036 L417.098 66.4222 Z" fill="#000000" fill-rule="evenodd" fill-opacity="1" /><path clip-path="url(#clip540)" d="M 0 0 M433.961 63.899 L433.961 64.7845 L432.943 64.7845 Q432.37 64.7845 432.144 65.0159 Q431.924 65.2474 431.924 65.8493 L431.924 66.4222 L433.678 66.4222 L433.678 67.2497 L431.924 67.2497 L431.924 72.9036 L430.854 72.9036 L430.854 67.2497 L429.835 67.2497 L429.835 66.4222 L430.854 66.4222 L430.854 65.9708 Q430.854 64.8886 431.357 64.3967 Q431.861 63.899 432.955 63.899 L433.961 63.899 Z" fill="#000000" fill-rule="evenodd" fill-opacity="1" /><path clip-path="url(#clip540)" d="M 0 0 M437.59 67.1687 Q436.733 67.1687 436.236 67.84 Q435.738 68.5055 435.738 69.6687 Q435.738 70.8319 436.23 71.5032 Q436.728 72.1687 437.59 72.1687 Q438.441 72.1687 438.938 71.4974 Q439.436 70.8261 439.436 69.6687 Q439.436 68.5171 438.938 67.8458 Q438.441 67.1687 437.59 67.1687 M437.59 66.2659 Q438.979 66.2659 439.772 67.1687 Q440.564 68.0715 440.564 69.6687 Q440.564 71.2601 439.772 72.1687 Q438.979 73.0714 437.59 73.0714 Q436.195 73.0714 435.402 72.1687 Q434.615 71.2601 434.615 69.6687 Q434.615 68.0715 435.402 67.1687 Q436.195 66.2659 437.59 66.2659 Z" fill="#000000" fill-rule="evenodd" fill-opacity="1" /><path clip-path="url(#clip540)" d="M 0 0 M445.437 67.4175 Q445.258 67.3134 445.044 67.2671 Q444.835 67.215 444.581 67.215 Q443.678 67.215 443.192 67.8053 Q442.711 68.3898 442.711 69.4893 L442.711 72.9036 L441.641 72.9036 L441.641 66.4222 L442.711 66.4222 L442.711 67.4291 Q443.047 66.8388 443.585 66.5553 Q444.123 66.2659 444.893 66.2659 Q445.003 66.2659 445.136 66.2833 Q445.269 66.2949 445.431 66.3238 L445.437 67.4175 Z" fill="#000000" fill-rule="evenodd" fill-opacity="1" /><path clip-path="url(#clip540)" d="M 0 0 M451.479 71.9198 L455.559 71.9198 L455.559 72.9036 L450.072 72.9036 L450.072 71.9198 Q450.738 71.2312 451.884 70.0738 Q453.035 68.9106 453.331 68.5749 Q453.892 67.9442 454.112 67.5101 Q454.338 67.0703 454.338 66.6479 Q454.338 65.9592 453.851 65.5252 Q453.371 65.0912 452.596 65.0912 Q452.046 65.0912 451.432 65.2821 Q450.825 65.4731 450.13 65.8608 L450.13 64.6803 Q450.836 64.3967 451.45 64.252 Q452.063 64.1074 452.572 64.1074 Q453.915 64.1074 454.714 64.7787 Q455.512 65.45 455.512 66.5726 Q455.512 67.105 455.31 67.5854 Q455.113 68.0599 454.586 68.708 Q454.442 68.8759 453.666 69.6803 Q452.891 70.4789 451.479 71.9198 Z" fill="#000000" fill-rule="evenodd" fill-opacity="1" /><path clip-path="url(#clip540)" d="M 0 0 M462.063 68.9916 L462.063 72.9036 L460.998 72.9036 L460.998 69.0263 Q460.998 68.1062 460.64 67.649 Q460.281 67.1918 459.563 67.1918 Q458.701 67.1918 458.203 67.7416 Q457.706 68.2914 457.706 69.2404 L457.706 72.9036 L456.635 72.9036 L456.635 66.4222 L457.706 66.4222 L457.706 67.4291 Q458.087 66.8446 458.603 66.5553 Q459.123 66.2659 459.8 66.2659 Q460.917 66.2659 461.49 66.9604 Q462.063 67.649 462.063 68.9916 Z" fill="#000000" fill-rule="evenodd" fill-opacity="1" /><path clip-path="url(#clip540)" d="M 0 0 M467.445 67.406 L467.445 63.899 L468.51 63.899 L468.51 72.9036 L467.445 72.9036 L467.445 71.9314 Q467.109 72.5101 466.594 72.7937 Q466.085 73.0714 465.368 73.0714 Q464.193 73.0714 463.452 72.134 Q462.717 71.1965 462.717 69.6687 Q462.717 68.1409 463.452 67.2034 Q464.193 66.2659 465.368 66.2659 Q466.085 66.2659 466.594 66.5495 Q467.109 66.8273 467.445 67.406 M463.817 69.6687 Q463.817 70.8434 464.297 71.5147 Q464.783 72.1802 465.628 72.1802 Q466.473 72.1802 466.959 71.5147 Q467.445 70.8434 467.445 69.6687 Q467.445 68.4939 466.959 67.8284 Q466.473 67.1571 465.628 67.1571 Q464.783 67.1571 464.297 67.8284 Q463.817 68.4939 463.817 69.6687 Z" fill="#000000" fill-rule="evenodd" fill-opacity="1" /><path clip-path="url(#clip540)" d="M 0 0 M475.906 67.1687 Q475.049 67.1687 474.552 67.84 Q474.054 68.5055 474.054 69.6687 Q474.054 70.8319 474.546 71.5032 Q475.043 72.1687 475.906 72.1687 Q476.756 72.1687 477.254 71.4974 Q477.752 70.8261 477.752 69.6687 Q477.752 68.5171 477.254 67.8458 Q476.756 67.1687 475.906 67.1687 M475.906 66.2659 Q477.295 66.2659 478.087 67.1687 Q478.88 68.0715 478.88 69.6687 Q478.88 71.2601 478.087 72.1687 Q477.295 73.0714 475.906 73.0714 Q474.511 73.0714 473.718 72.1687 Q472.931 71.2601 472.931 69.6687 Q472.931 68.0715 473.718 67.1687 Q474.511 66.2659 475.906 66.2659 Z" fill="#000000" fill-rule="evenodd" fill-opacity="1" /><path clip-path="url(#clip540)" d="M 0 0 M483.753 67.4175 Q483.573 67.3134 483.359 67.2671 Q483.151 67.215 482.896 67.215 Q481.994 67.215 481.508 67.8053 Q481.027 68.3898 481.027 69.4893 L481.027 72.9036 L479.957 72.9036 L479.957 66.4222 L481.027 66.4222 L481.027 67.4291 Q481.363 66.8388 481.901 66.5553 Q482.439 66.2659 483.209 66.2659 Q483.319 66.2659 483.452 66.2833 Q483.585 66.2949 483.747 66.3238 L483.753 67.4175 Z" fill="#000000" fill-rule="evenodd" fill-opacity="1" /><path clip-path="url(#clip540)" d="M 0 0 M488.926 67.406 L488.926 63.899 L489.991 63.899 L489.991 72.9036 L488.926 72.9036 L488.926 71.9314 Q488.591 72.5101 488.076 72.7937 Q487.567 73.0714 486.849 73.0714 Q485.674 73.0714 484.933 72.134 Q484.198 71.1965 484.198 69.6687 Q484.198 68.1409 484.933 67.2034 Q485.674 66.2659 486.849 66.2659 Q487.567 66.2659 488.076 66.5495 Q488.591 66.8273 488.926 67.406 M485.298 69.6687 Q485.298 70.8434 485.778 71.5147 Q486.264 72.1802 487.109 72.1802 Q487.954 72.1802 488.44 71.5147 Q488.926 70.8434 488.926 69.6687 Q488.926 68.4939 488.44 67.8284 Q487.954 67.1571 487.109 67.1571 Q486.264 67.1571 485.778 67.8284 Q485.298 68.4939 485.298 69.6687 Z" fill="#000000" fill-rule="evenodd" fill-opacity="1" /><path clip-path="url(#clip540)" d="M 0 0 M496.652 69.3967 L496.652 69.9175 L491.756 69.9175 Q491.826 71.0171 492.416 71.5958 Q493.012 72.1687 494.071 72.1687 Q494.685 72.1687 495.257 72.0182 Q495.836 71.8677 496.403 71.5668 L496.403 72.5738 Q495.83 72.8168 495.229 72.9441 Q494.627 73.0714 494.007 73.0714 Q492.457 73.0714 491.548 72.1687 Q490.645 71.2659 490.645 69.7266 Q490.645 68.1351 491.502 67.2034 Q492.364 66.2659 493.822 66.2659 Q495.13 66.2659 495.888 67.1108 Q496.652 67.9499 496.652 69.3967 M495.587 69.0842 Q495.576 68.2104 495.095 67.6895 Q494.621 67.1687 493.834 67.1687 Q492.943 67.1687 492.404 67.6722 Q491.872 68.1756 491.791 69.09 L495.587 69.0842 Z" fill="#000000" fill-rule="evenodd" fill-opacity="1" /><path clip-path="url(#clip540)" d="M 0 0 M501.525 67.4175 Q501.345 67.3134 501.131 67.2671 Q500.923 67.215 500.668 67.215 Q499.766 67.215 499.279 67.8053 Q498.799 68.3898 498.799 69.4893 L498.799 72.9036 L497.728 72.9036 L497.728 66.4222 L498.799 66.4222 L498.799 67.4291 Q499.135 66.8388 499.673 66.5553 Q500.211 66.2659 500.981 66.2659 Q501.091 66.2659 501.224 66.2833 Q501.357 66.2949 501.519 66.3238 L501.525 67.4175 Z" fill="#000000" fill-rule="evenodd" fill-opacity="1" /><path clip-path="url(#clip540)" d="M 0 0 M510.674 67.406 L510.674 63.899 L511.739 63.899 L511.739 72.9036 L510.674 72.9036 L510.674 71.9314 Q510.338 72.5101 509.823 72.7937 Q509.314 73.0714 508.596 73.0714 Q507.422 73.0714 506.681 72.134 Q505.946 71.1965 505.946 69.6687 Q505.946 68.1409 506.681 67.2034 Q507.422 66.2659 508.596 66.2659 Q509.314 66.2659 509.823 66.5495 Q510.338 66.8273 510.674 67.406 M507.046 69.6687 Q507.046 70.8434 507.526 71.5147 Q508.012 72.1802 508.857 72.1802 Q509.702 72.1802 510.188 71.5147 Q510.674 70.8434 510.674 69.6687 Q510.674 68.4939 510.188 67.8284 Q509.702 67.1571 508.857 67.1571 Q508.012 67.1571 507.526 67.8284 Q507.046 68.4939 507.046 69.6687 Z" fill="#000000" fill-rule="evenodd" fill-opacity="1" /><path clip-path="url(#clip540)" d="M 0 0 M518.4 69.3967 L518.4 69.9175 L513.504 69.9175 Q513.573 71.0171 514.164 71.5958 Q514.76 72.1687 515.819 72.1687 Q516.432 72.1687 517.005 72.0182 Q517.584 71.8677 518.151 71.5668 L518.151 72.5738 Q517.578 72.8168 516.976 72.9441 Q516.374 73.0714 515.755 73.0714 Q514.204 73.0714 513.296 72.1687 Q512.393 71.2659 512.393 69.7266 Q512.393 68.1351 513.249 67.2034 Q514.112 66.2659 515.57 66.2659 Q516.878 66.2659 517.636 67.1108 Q518.4 67.9499 518.4 69.3967 M517.335 69.0842 Q517.323 68.2104 516.843 67.6895 Q516.368 67.1687 515.581 67.1687 Q514.69 67.1687 514.152 67.6722 Q513.62 68.1756 513.539 69.09 L517.335 69.0842 Z" fill="#000000" fill-rule="evenodd" fill-opacity="1" /><path clip-path="url(#clip540)" d="M 0 0 M523.272 67.4175 Q523.093 67.3134 522.879 67.2671 Q522.67 67.215 522.416 67.215 Q521.513 67.215 521.027 67.8053 Q520.547 68.3898 520.547 69.4893 L520.547 72.9036 L519.476 72.9036 L519.476 66.4222 L520.547 66.4222 L520.547 67.4291 Q520.882 66.8388 521.42 66.5553 Q521.959 66.2659 522.728 66.2659 Q522.838 66.2659 522.971 66.2833 Q523.105 66.2949 523.267 66.3238 L523.272 67.4175 Z" fill="#000000" fill-rule="evenodd" fill-opacity="1" /><path clip-path="url(#clip540)" d="M 0 0 M524.389 66.4222 L525.454 66.4222 L525.454 72.9036 L524.389 72.9036 L524.389 66.4222 M524.389 63.899 L525.454 63.899 L525.454 65.2474 L524.389 65.2474 L524.389 63.899 Z" fill="#000000" fill-rule="evenodd" fill-opacity="1" /><path clip-path="url(#clip540)" d="M 0 0 M525.807 66.4222 L526.936 66.4222 L528.961 71.862 L530.986 66.4222 L532.115 66.4222 L529.684 72.9036 L528.238 72.9036 L525.807 66.4222 Z" fill="#000000" fill-rule="evenodd" fill-opacity="1" /><path clip-path="url(#clip540)" d="M 0 0 M536.177 69.6455 Q534.887 69.6455 534.389 69.9407 Q533.891 70.2358 533.891 70.9476 Q533.891 71.5147 534.262 71.8504 Q534.638 72.1802 535.28 72.1802 Q536.166 72.1802 536.698 71.5552 Q537.236 70.9245 537.236 69.8828 L537.236 69.6455 L536.177 69.6455 M538.301 69.2057 L538.301 72.9036 L537.236 72.9036 L537.236 71.9198 Q536.872 72.5101 536.328 72.7937 Q535.784 73.0714 534.997 73.0714 Q534.001 73.0714 533.411 72.5159 Q532.827 71.9546 532.827 71.0171 Q532.827 69.9233 533.556 69.3678 Q534.291 68.8122 535.743 68.8122 L537.236 68.8122 L537.236 68.708 Q537.236 67.9731 536.75 67.5738 Q536.27 67.1687 535.396 67.1687 Q534.841 67.1687 534.314 67.3018 Q533.787 67.4349 533.301 67.7011 L533.301 66.7173 Q533.886 66.4916 534.435 66.3817 Q534.985 66.2659 535.506 66.2659 Q536.912 66.2659 537.607 66.9951 Q538.301 67.7243 538.301 69.2057 Z" fill="#000000" fill-rule="evenodd" fill-opacity="1" /><path clip-path="url(#clip540)" d="M 0 0 M540.471 64.5819 L540.471 66.4222 L542.665 66.4222 L542.665 67.2497 L540.471 67.2497 L540.471 70.7682 Q540.471 71.561 540.685 71.7867 Q540.905 72.0124 541.571 72.0124 L542.665 72.0124 L542.665 72.9036 L541.571 72.9036 Q540.338 72.9036 539.869 72.4464 Q539.401 71.9835 539.401 70.7682 L539.401 67.2497 L538.619 67.2497 L538.619 66.4222 L539.401 66.4222 L539.401 64.5819 L540.471 64.5819 Z" fill="#000000" fill-rule="evenodd" fill-opacity="1" /><path clip-path="url(#clip540)" d="M 0 0 M543.781 66.4222 L544.846 66.4222 L544.846 72.9036 L543.781 72.9036 L543.781 66.4222 M543.781 63.899 L544.846 63.899 L544.846 65.2474 L543.781 65.2474 L543.781 63.899 Z" fill="#000000" fill-rule="evenodd" fill-opacity="1" /><path clip-path="url(#clip540)" d="M 0 0 M545.199 66.4222 L546.328 66.4222 L548.353 71.862 L550.379 66.4222 L551.507 66.4222 L549.077 72.9036 L547.63 72.9036 L545.199 66.4222 Z" fill="#000000" fill-rule="evenodd" fill-opacity="1" /><path clip-path="url(#clip540)" d="M 0 0 M558.168 69.3967 L558.168 69.9175 L553.272 69.9175 Q553.342 71.0171 553.932 71.5958 Q554.528 72.1687 555.587 72.1687 Q556.2 72.1687 556.773 72.0182 Q557.352 71.8677 557.919 71.5668 L557.919 72.5738 Q557.346 72.8168 556.744 72.9441 Q556.143 73.0714 555.523 73.0714 Q553.972 73.0714 553.064 72.1687 Q552.161 71.2659 552.161 69.7266 Q552.161 68.1351 553.018 67.2034 Q553.88 66.2659 555.338 66.2659 Q556.646 66.2659 557.404 67.1108 Q558.168 67.9499 558.168 69.3967 M557.103 69.0842 Q557.092 68.2104 556.611 67.6895 Q556.137 67.1687 555.35 67.1687 Q554.459 67.1687 553.92 67.6722 Q553.388 68.1756 553.307 69.09 L557.103 69.0842 Z" fill="#000000" fill-rule="evenodd" fill-opacity="1" /></svg>
