<?xml version="1.0" encoding="utf-8"?>
<svg xmlns="http://www.w3.org/2000/svg" xmlns:xlink="http://www.w3.org/1999/xlink" width="150" height="100" viewBox="0 0 600 400">
<defs>
  <clipPath id="clip570">
    <rect x="0" y="0" width="600" height="400"/>
  </clipPath>
</defs>
<path clip-path="url(#clip570)" d="
M0 400 L600 400 L600 0 L0 0  Z
  " fill="#ffffff" fill-rule="evenodd" fill-opacity="1"/>
<defs>
  <clipPath id="clip571">
    <rect x="120" y="0" width="421" height="400"/>
  </clipPath>
</defs>
<path clip-path="url(#clip570)" d="
M51.748 350.252 L588.189 350.252 L588.189 11.811 L51.748 11.811  Z
  " fill="#ffffff" fill-rule="evenodd" fill-opacity="1"/>
<defs>
  <clipPath id="clip572">
    <rect x="51" y="11" width="537" height="339"/>
  </clipPath>
</defs>
<polyline clip-path="url(#clip572)" style="stroke:#000000; stroke-width:0.5; stroke-opacity:0.1; fill:none" points="
  117.538,350.252 117.538,11.811 
  "/>
<polyline clip-path="url(#clip572)" style="stroke:#000000; stroke-width:0.5; stroke-opacity:0.1; fill:none" points="
  218.753,350.252 218.753,11.811 
  "/>
<polyline clip-path="url(#clip572)" style="stroke:#000000; stroke-width:0.5; stroke-opacity:0.1; fill:none" points="
  319.969,350.252 319.969,11.811 
  "/>
<polyline clip-path="url(#clip572)" style="stroke:#000000; stroke-width:0.5; stroke-opacity:0.1; fill:none" points="
  421.184,350.252 421.184,11.811 
  "/>
<polyline clip-path="url(#clip572)" style="stroke:#000000; stroke-width:0.5; stroke-opacity:0.1; fill:none" points="
  522.399,350.252 522.399,11.811 
  "/>
<polyline clip-path="url(#clip570)" style="stroke:#000000; stroke-width:1; stroke-opacity:1; fill:none" points="
  51.748,350.252 588.189,350.252 
  "/>
<polyline clip-path="url(#clip570)" style="stroke:#000000; stroke-width:1; stroke-opacity:1; fill:none" points="
  117.538,350.252 117.538,346.191 
  "/>
<polyline clip-path="url(#clip570)" style="stroke:#000000; stroke-width:1; stroke-opacity:1; fill:none" points="
  218.753,350.252 218.753,346.191 
  "/>
<polyline clip-path="url(#clip570)" style="stroke:#000000; stroke-width:1; stroke-opacity:1; fill:none" points="
  319.969,350.252 319.969,346.191 
  "/>
<polyline clip-path="url(#clip570)" style="stroke:#000000; stroke-width:1; stroke-opacity:1; fill:none" points="
  421.184,350.252 421.184,346.191 
  "/>
<polyline clip-path="url(#clip570)" style="stroke:#000000; stroke-width:1; stroke-opacity:1; fill:none" points="
  522.399,350.252 522.399,346.191 
  "/>
<path clip-path="url(#clip570)" d="M 0 0 M110.391 361.213 L117.81 361.213 L117.81 362.197 L110.391 362.197 L110.391 361.213 Z" fill="#000000" fill-rule="evenodd" fill-opacity="1" /><path clip-path="url(#clip570)" d="M 0 0 M122.289 357.798 L119.338 362.411 L122.289 362.411 L122.289 357.798 M121.982 356.78 L123.452 356.78 L123.452 362.411 L124.685 362.411 L124.685 363.383 L123.452 363.383 L123.452 365.42 L122.289 365.42 L122.289 363.383 L118.389 363.383 L118.389 362.254 L121.982 356.78 Z" fill="#000000" fill-rule="evenodd" fill-opacity="1" /><path clip-path="url(#clip570)" d="M 0 0 M211.867 361.213 L219.286 361.213 L219.286 362.197 L211.867 362.197 L211.867 361.213 Z" fill="#000000" fill-rule="evenodd" fill-opacity="1" /><path clip-path="url(#clip570)" d="M 0 0 M221.56 364.436 L225.64 364.436 L225.64 365.42 L220.154 365.42 L220.154 364.436 Q220.819 363.748 221.965 362.59 Q223.117 361.427 223.412 361.091 Q223.973 360.461 224.193 360.026 Q224.419 359.587 224.419 359.164 Q224.419 358.476 223.933 358.042 Q223.452 357.608 222.677 357.608 Q222.127 357.608 221.514 357.798 Q220.906 357.989 220.212 358.377 L220.212 357.197 Q220.918 356.913 221.531 356.768 Q222.144 356.624 222.654 356.624 Q223.996 356.624 224.795 357.295 Q225.593 357.966 225.593 359.089 Q225.593 359.621 225.391 360.102 Q225.194 360.576 224.668 361.224 Q224.523 361.392 223.747 362.197 Q222.972 362.995 221.56 364.436 Z" fill="#000000" fill-rule="evenodd" fill-opacity="1" /><path clip-path="url(#clip570)" d="M 0 0 M319.969 357.55 Q319.066 357.55 318.609 358.441 Q318.157 359.326 318.157 361.109 Q318.157 362.885 318.609 363.776 Q319.066 364.662 319.969 364.662 Q320.877 364.662 321.328 363.776 Q321.786 362.885 321.786 361.109 Q321.786 359.326 321.328 358.441 Q320.877 357.55 319.969 357.55 M319.969 356.624 Q321.421 356.624 322.185 357.775 Q322.955 358.921 322.955 361.109 Q322.955 363.29 322.185 364.442 Q321.421 365.588 319.969 365.588 Q318.516 365.588 317.746 364.442 Q316.982 363.29 316.982 361.109 Q316.982 358.921 317.746 357.775 Q318.516 356.624 319.969 356.624 Z" fill="#000000" fill-rule="evenodd" fill-opacity="1" /><path clip-path="url(#clip570)" d="M 0 0 M419.847 364.436 L423.927 364.436 L423.927 365.42 L418.441 365.42 L418.441 364.436 Q419.106 363.748 420.252 362.59 Q421.404 361.427 421.699 361.091 Q422.26 360.461 422.48 360.026 Q422.706 359.587 422.706 359.164 Q422.706 358.476 422.22 358.042 Q421.739 357.608 420.964 357.608 Q420.414 357.608 419.801 357.798 Q419.193 357.989 418.499 358.377 L418.499 357.197 Q419.205 356.913 419.818 356.768 Q420.431 356.624 420.941 356.624 Q422.283 356.624 423.082 357.295 Q423.881 357.966 423.881 359.089 Q423.881 359.621 423.678 360.102 Q423.481 360.576 422.955 361.224 Q422.81 361.392 422.034 362.197 Q421.259 362.995 419.847 364.436 Z" fill="#000000" fill-rule="evenodd" fill-opacity="1" /><path clip-path="url(#clip570)" d="M 0 0 M523.151 357.798 L520.2 362.411 L523.151 362.411 L523.151 357.798 M522.845 356.78 L524.315 356.78 L524.315 362.411 L525.547 362.411 L525.547 363.383 L524.315 363.383 L524.315 365.42 L523.151 365.42 L523.151 363.383 L519.251 363.383 L519.251 362.254 L522.845 356.78 Z" fill="#000000" fill-rule="evenodd" fill-opacity="1" /><path clip-path="url(#clip570)" d="M 0 0 M324.122 377.556 L320.899 381.893 L324.289 386.468 L322.563 386.468 L319.969 382.967 L317.374 386.468 L315.648 386.468 L319.109 381.805 L315.942 377.556 L317.669 377.556 L320.032 380.731 L322.395 377.556 L324.122 377.556 Z" fill="#000000" fill-rule="evenodd" fill-opacity="1" /><polyline clip-path="url(#clip572)" style="stroke:#000000; stroke-width:0.5; stroke-opacity:0.1; fill:none" points="
  51.748,341.479 588.189,341.479 
  "/>
<polyline clip-path="url(#clip572)" style="stroke:#000000; stroke-width:0.5; stroke-opacity:0.1; fill:none" points="
  51.748,259.991 588.189,259.991 
  "/>
<polyline clip-path="url(#clip572)" style="stroke:#000000; stroke-width:0.5; stroke-opacity:0.1; fill:none" points="
  51.748,178.503 588.189,178.503 
  "/>
<polyline clip-path="url(#clip572)" style="stroke:#000000; stroke-width:0.5; stroke-opacity:0.1; fill:none" points="
  51.748,97.015 588.189,97.015 
  "/>
<polyline clip-path="url(#clip572)" style="stroke:#000000; stroke-width:0.5; stroke-opacity:0.1; fill:none" points="
  51.748,15.5269 588.189,15.5269 
  "/>
<polyline clip-path="url(#clip570)" style="stroke:#000000; stroke-width:1; stroke-opacity:1; fill:none" points="
  51.748,350.252 51.748,11.811 
  "/>
<polyline clip-path="url(#clip570)" style="stroke:#000000; stroke-width:1; stroke-opacity:1; fill:none" points="
  51.748,341.479 58.1853,341.479 
  "/>
<polyline clip-path="url(#clip570)" style="stroke:#000000; stroke-width:1; stroke-opacity:1; fill:none" points="
  51.748,259.991 58.1853,259.991 
  "/>
<polyline clip-path="url(#clip570)" style="stroke:#000000; stroke-width:1; stroke-opacity:1; fill:none" points="
  51.748,178.503 58.1853,178.503 
  "/>
<polyline clip-path="url(#clip570)" style="stroke:#000000; stroke-width:1; stroke-opacity:1; fill:none" points="
  51.748,97.015 58.1853,97.015 
  "/>
<polyline clip-path="url(#clip570)" style="stroke:#000000; stroke-width:1; stroke-opacity:1; fill:none" points="
  51.748,15.5269 58.1853,15.5269 
  "/>
<path clip-path="url(#clip570)" d="M 0 0 M23.7667 337.929 Q22.8639 337.929 22.4067 338.82 Q21.9553 339.706 21.9553 341.488 Q21.9553 343.265 22.4067 344.156 Q22.8639 345.041 23.7667 345.041 Q24.6752 345.041 25.1266 344.156 Q25.5838 343.265 25.5838 341.488 Q25.5838 339.706 25.1266 338.82 Q24.6752 337.929 23.7667 337.929 M23.7667 337.003 Q25.2192 337.003 25.9831 338.155 Q26.7527 339.301 26.7527 341.488 Q26.7527 343.67 25.9831 344.821 Q25.2192 345.967 23.7667 345.967 Q22.3141 345.967 21.5444 344.821 Q20.7806 343.67 20.7806 341.488 Q20.7806 339.301 21.5444 338.155 Q22.3141 337.003 23.7667 337.003 Z" fill="#000000" fill-rule="evenodd" fill-opacity="1" /><path clip-path="url(#clip570)" d="M 0 0 M28.0201 344.33 L29.2412 344.33 L29.2412 345.799 L28.0201 345.799 L28.0201 344.33 Z" fill="#000000" fill-rule="evenodd" fill-opacity="1" /><path clip-path="url(#clip570)" d="M 0 0 M33.0085 337.929 Q32.1057 337.929 31.6486 338.82 Q31.1972 339.706 31.1972 341.488 Q31.1972 343.265 31.6486 344.156 Q32.1057 345.041 33.0085 345.041 Q33.9171 345.041 34.3684 344.156 Q34.8256 343.265 34.8256 341.488 Q34.8256 339.706 34.3684 338.82 Q33.9171 337.929 33.0085 337.929 M33.0085 337.003 Q34.461 337.003 35.2249 338.155 Q35.9946 339.301 35.9946 341.488 Q35.9946 343.67 35.2249 344.821 Q34.461 345.967 33.0085 345.967 Q31.556 345.967 30.7863 344.821 Q30.0224 343.67 30.0224 341.488 Q30.0224 339.301 30.7863 338.155 Q31.556 337.003 33.0085 337.003 Z" fill="#000000" fill-rule="evenodd" fill-opacity="1" /><path clip-path="url(#clip570)" d="M 0 0 M39.7619 337.929 Q38.8592 337.929 38.402 338.82 Q37.9506 339.706 37.9506 341.488 Q37.9506 343.265 38.402 344.156 Q38.8592 345.041 39.7619 345.041 Q40.6705 345.041 41.1219 344.156 Q41.5791 343.265 41.5791 341.488 Q41.5791 339.706 41.1219 338.82 Q40.6705 337.929 39.7619 337.929 M39.7619 337.003 Q41.2145 337.003 41.9784 338.155 Q42.748 339.301 42.748 341.488 Q42.748 343.67 41.9784 344.821 Q41.2145 345.967 39.7619 345.967 Q38.3094 345.967 37.5397 344.821 Q36.7758 343.67 36.7758 341.488 Q36.7758 339.301 37.5397 338.155 Q38.3094 337.003 39.7619 337.003 Z" fill="#000000" fill-rule="evenodd" fill-opacity="1" /><path clip-path="url(#clip570)" d="M 0 0 M24.4148 256.441 Q23.512 256.441 23.0548 257.332 Q22.6035 258.218 22.6035 260 Q22.6035 261.777 23.0548 262.668 Q23.512 263.553 24.4148 263.553 Q25.3234 263.553 25.7747 262.668 Q26.2319 261.777 26.2319 260 Q26.2319 258.218 25.7747 257.332 Q25.3234 256.441 24.4148 256.441 M24.4148 255.515 Q25.8673 255.515 26.6312 256.667 Q27.4009 257.812 27.4009 260 Q27.4009 262.182 26.6312 263.333 Q25.8673 264.479 24.4148 264.479 Q22.9623 264.479 22.1926 263.333 Q21.4287 262.182 21.4287 260 Q21.4287 257.812 22.1926 256.667 Q22.9623 255.515 24.4148 255.515 Z" fill="#000000" fill-rule="evenodd" fill-opacity="1" /><path clip-path="url(#clip570)" d="M 0 0 M28.6682 262.841 L29.8893 262.841 L29.8893 264.311 L28.6682 264.311 L28.6682 262.841 Z" fill="#000000" fill-rule="evenodd" fill-opacity="1" /><path clip-path="url(#clip570)" d="M 0 0 M32.1636 263.327 L36.2434 263.327 L36.2434 264.311 L30.7574 264.311 L30.7574 263.327 Q31.4229 262.639 32.5687 261.481 Q33.7203 260.318 34.0154 259.983 Q34.5768 259.352 34.7967 258.918 Q35.0224 258.478 35.0224 258.056 Q35.0224 257.367 34.5363 256.933 Q34.0559 256.499 33.2805 256.499 Q32.7307 256.499 32.1173 256.69 Q31.5097 256.881 30.8152 257.268 L30.8152 256.088 Q31.5212 255.804 32.1347 255.66 Q32.7481 255.515 33.2573 255.515 Q34.5999 255.515 35.3985 256.186 Q36.1971 256.858 36.1971 257.98 Q36.1971 258.513 35.9946 258.993 Q35.7978 259.468 35.2712 260.116 Q35.1265 260.284 34.3511 261.088 Q33.5756 261.887 32.1636 263.327 Z" fill="#000000" fill-rule="evenodd" fill-opacity="1" /><path clip-path="url(#clip570)" d="M 0 0 M37.5224 255.671 L42.1115 255.671 L42.1115 256.655 L38.593 256.655 L38.593 258.773 Q38.8476 258.686 39.1022 258.646 Q39.3568 258.6 39.6115 258.6 Q41.0582 258.6 41.9031 259.392 Q42.748 260.185 42.748 261.539 Q42.748 262.934 41.88 263.709 Q41.0119 264.479 39.4321 264.479 Q38.8881 264.479 38.321 264.387 Q37.7596 264.294 37.1578 264.109 L37.1578 262.934 Q37.6786 263.218 38.2342 263.356 Q38.7897 263.495 39.4089 263.495 Q40.4101 263.495 40.9946 262.969 Q41.5791 262.442 41.5791 261.539 Q41.5791 260.637 40.9946 260.11 Q40.4101 259.583 39.4089 259.583 Q38.9402 259.583 38.4714 259.687 Q38.0085 259.792 37.5224 260.012 L37.5224 255.671 Z" fill="#000000" fill-rule="evenodd" fill-opacity="1" /><path clip-path="url(#clip570)" d="M 0 0 M24.0155 174.953 Q23.1127 174.953 22.6555 175.844 Q22.2042 176.729 22.2042 178.512 Q22.2042 180.288 22.6555 181.18 Q23.1127 182.065 24.0155 182.065 Q24.9241 182.065 25.3754 181.18 Q25.8326 180.288 25.8326 178.512 Q25.8326 176.729 25.3754 175.844 Q24.9241 174.953 24.0155 174.953 M24.0155 174.027 Q25.468 174.027 26.2319 175.179 Q27.0016 176.324 27.0016 178.512 Q27.0016 180.694 26.2319 181.845 Q25.468 182.991 24.0155 182.991 Q22.563 182.991 21.7933 181.845 Q21.0294 180.694 21.0294 178.512 Q21.0294 176.324 21.7933 175.179 Q22.563 174.027 24.0155 174.027 Z" fill="#000000" fill-rule="evenodd" fill-opacity="1" /><path clip-path="url(#clip570)" d="M 0 0 M28.2689 181.353 L29.49 181.353 L29.49 182.823 L28.2689 182.823 L28.2689 181.353 Z" fill="#000000" fill-rule="evenodd" fill-opacity="1" /><path clip-path="url(#clip570)" d="M 0 0 M30.7689 174.183 L35.358 174.183 L35.358 175.167 L31.8395 175.167 L31.8395 177.285 Q32.0942 177.198 32.3488 177.158 Q32.6034 177.111 32.858 177.111 Q34.3048 177.111 35.1497 177.904 Q35.9946 178.697 35.9946 180.051 Q35.9946 181.446 35.1265 182.221 Q34.2585 182.991 32.6786 182.991 Q32.1347 182.991 31.5675 182.898 Q31.0062 182.806 30.4043 182.621 L30.4043 181.446 Q30.9252 181.729 31.4807 181.868 Q32.0363 182.007 32.6555 182.007 Q33.6566 182.007 34.2411 181.481 Q34.8256 180.954 34.8256 180.051 Q34.8256 179.148 34.2411 178.622 Q33.6566 178.095 32.6555 178.095 Q32.1867 178.095 31.718 178.199 Q31.255 178.303 30.7689 178.523 L30.7689 174.183 Z" fill="#000000" fill-rule="evenodd" fill-opacity="1" /><path clip-path="url(#clip570)" d="M 0 0 M39.7619 174.953 Q38.8592 174.953 38.402 175.844 Q37.9506 176.729 37.9506 178.512 Q37.9506 180.288 38.402 181.18 Q38.8592 182.065 39.7619 182.065 Q40.6705 182.065 41.1219 181.18 Q41.5791 180.288 41.5791 178.512 Q41.5791 176.729 41.1219 175.844 Q40.6705 174.953 39.7619 174.953 M39.7619 174.027 Q41.2145 174.027 41.9784 175.179 Q42.748 176.324 42.748 178.512 Q42.748 180.694 41.9784 181.845 Q41.2145 182.991 39.7619 182.991 Q38.3094 182.991 37.5397 181.845 Q36.7758 180.694 36.7758 178.512 Q36.7758 176.324 37.5397 175.179 Q38.3094 174.027 39.7619 174.027 Z" fill="#000000" fill-rule="evenodd" fill-opacity="1" /><path clip-path="url(#clip570)" d="M 0 0 M24.2412 93.4647 Q23.3384 93.4647 22.8812 94.3559 Q22.4299 95.2413 22.4299 97.0237 Q22.4299 98.8003 22.8812 99.6915 Q23.3384 100.577 24.2412 100.577 Q25.1497 100.577 25.6011 99.6915 Q26.0583 98.8003 26.0583 97.0237 Q26.0583 95.2413 25.6011 94.3559 Q25.1497 93.4647 24.2412 93.4647 M24.2412 92.5388 Q25.6937 92.5388 26.4576 93.6904 Q27.2273 94.8362 27.2273 97.0237 Q27.2273 99.2054 26.4576 100.357 Q25.6937 101.503 24.2412 101.503 Q22.7886 101.503 22.019 100.357 Q21.2551 99.2054 21.2551 97.0237 Q21.2551 94.8362 22.019 93.6904 Q22.7886 92.5388 24.2412 92.5388 Z" fill="#000000" fill-rule="evenodd" fill-opacity="1" /><path clip-path="url(#clip570)" d="M 0 0 M28.4946 99.8651 L29.7157 99.8651 L29.7157 101.335 L28.4946 101.335 L28.4946 99.8651 Z" fill="#000000" fill-rule="evenodd" fill-opacity="1" /><path clip-path="url(#clip570)" d="M 0 0 M30.6879 92.695 L36.2434 92.695 L36.2434 93.1927 L33.1069 101.335 L31.8858 101.335 L34.8372 93.6788 L30.6879 93.6788 L30.6879 92.695 Z" fill="#000000" fill-rule="evenodd" fill-opacity="1" /><path clip-path="url(#clip570)" d="M 0 0 M37.5224 92.695 L42.1115 92.695 L42.1115 93.6788 L38.593 93.6788 L38.593 95.7969 Q38.8476 95.7101 39.1022 95.6695 Q39.3568 95.6232 39.6115 95.6232 Q41.0582 95.6232 41.9031 96.4161 Q42.748 97.2089 42.748 98.563 Q42.748 99.9577 41.88 100.733 Q41.0119 101.503 39.4321 101.503 Q38.8881 101.503 38.321 101.41 Q37.7596 101.318 37.1578 101.132 L37.1578 99.9577 Q37.6786 100.241 38.2342 100.38 Q38.7897 100.519 39.4089 100.519 Q40.4101 100.519 40.9946 99.9924 Q41.5791 99.4658 41.5791 98.563 Q41.5791 97.6603 40.9946 97.1337 Q40.4101 96.607 39.4089 96.607 Q38.9402 96.607 38.4714 96.7112 Q38.0085 96.8154 37.5224 97.0353 L37.5224 92.695 Z" fill="#000000" fill-rule="evenodd" fill-opacity="1" /><path clip-path="url(#clip570)" d="M 0 0 M21.7759 18.8631 L23.6856 18.8631 L23.6856 12.2717 L21.6081 12.6884 L21.6081 11.6236 L23.6741 11.2069 L24.843 11.2069 L24.843 18.8631 L26.7527 18.8631 L26.7527 19.8469 L21.7759 19.8469 L21.7759 18.8631 Z" fill="#000000" fill-rule="evenodd" fill-opacity="1" /><path clip-path="url(#clip570)" d="M 0 0 M28.0201 18.377 L29.2412 18.377 L29.2412 19.8469 L28.0201 19.8469 L28.0201 18.377 Z" fill="#000000" fill-rule="evenodd" fill-opacity="1" /><path clip-path="url(#clip570)" d="M 0 0 M33.0085 11.9766 Q32.1057 11.9766 31.6486 12.8678 Q31.1972 13.7532 31.1972 15.5356 Q31.1972 17.3122 31.6486 18.2034 Q32.1057 19.0888 33.0085 19.0888 Q33.9171 19.0888 34.3684 18.2034 Q34.8256 17.3122 34.8256 15.5356 Q34.8256 13.7532 34.3684 12.8678 Q33.9171 11.9766 33.0085 11.9766 M33.0085 11.0506 Q34.461 11.0506 35.2249 12.2023 Q35.9946 13.3481 35.9946 15.5356 Q35.9946 17.7173 35.2249 18.8689 Q34.461 20.0147 33.0085 20.0147 Q31.556 20.0147 30.7863 18.8689 Q30.0224 17.7173 30.0224 15.5356 Q30.0224 13.3481 30.7863 12.2023 Q31.556 11.0506 33.0085 11.0506 Z" fill="#000000" fill-rule="evenodd" fill-opacity="1" /><path clip-path="url(#clip570)" d="M 0 0 M39.7619 11.9766 Q38.8592 11.9766 38.402 12.8678 Q37.9506 13.7532 37.9506 15.5356 Q37.9506 17.3122 38.402 18.2034 Q38.8592 19.0888 39.7619 19.0888 Q40.6705 19.0888 41.1219 18.2034 Q41.5791 17.3122 41.5791 15.5356 Q41.5791 13.7532 41.1219 12.8678 Q40.6705 11.9766 39.7619 11.9766 M39.7619 11.0506 Q41.2145 11.0506 41.9784 12.2023 Q42.748 13.3481 42.748 15.5356 Q42.748 17.7173 41.9784 18.8689 Q41.2145 20.0147 39.7619 20.0147 Q38.3094 20.0147 37.5397 18.8689 Q36.7758 17.7173 36.7758 15.5356 Q36.7758 13.3481 37.5397 12.2023 Q38.3094 11.0506 39.7619 11.0506 Z" fill="#000000" fill-rule="evenodd" fill-opacity="1" /><path clip-path="url(#clip570)" d="M 0 0 M9.0441 180.61 Q10.6355 181.23 11.1209 181.819 Q11.6063 182.408 11.6063 183.395 L11.6063 184.564 L10.3809 184.564 L10.3809 183.705 Q10.3809 183.1 10.0944 182.766 Q9.80798 182.432 8.74173 182.026 L8.07333 181.764 L-0.695433 185.368 L-0.695433 183.816 L6.27502 181.031 L-0.695433 178.246 L-0.695433 176.695 L9.0441 180.61 Z" fill="#000000" fill-rule="evenodd" fill-opacity="1" /><polyline clip-path="url(#clip572)" style="stroke:#009af9; stroke-width:1; stroke-opacity:1; fill:none" points="
  66.9303,340.673 71.8726,340.591 117.571,339.296 145.034,337.741 168.253,335.605 193.476,331.92 216.729,326.599 229.194,322.683 241.659,317.815 256.101,310.736 
  270.542,301.819 283.377,292.105 296.211,280.518 307.465,268.724 318.72,255.39 343.26,221.449 367.947,182.736 395.241,139.556 421.211,103.155 434.712,87.1442 
  448.213,73.3491 459.578,63.4277 470.944,54.9584 484.819,46.3981 498.695,39.5404 511.738,34.4004 524.782,30.3068 545.678,25.4594 566.575,22.1679 569.791,21.7668 
  573.007,21.3895 
  "/>
<circle clip-path="url(#clip572)" cx="117.538" cy="335.418" r="3" fill="#e26f46" fill-rule="evenodd" fill-opacity="1" stroke="#000000" stroke-opacity="1" stroke-width="0.8"/>
<circle clip-path="url(#clip572)" cx="122.599" cy="332.394" r="3" fill="#e26f46" fill-rule="evenodd" fill-opacity="1" stroke="#000000" stroke-opacity="1" stroke-width="0.8"/>
<circle clip-path="url(#clip572)" cx="127.659" cy="335.094" r="3" fill="#e26f46" fill-rule="evenodd" fill-opacity="1" stroke="#000000" stroke-opacity="1" stroke-width="0.8"/>
<circle clip-path="url(#clip572)" cx="132.72" cy="337.044" r="3" fill="#e26f46" fill-rule="evenodd" fill-opacity="1" stroke="#000000" stroke-opacity="1" stroke-width="0.8"/>
<circle clip-path="url(#clip572)" cx="137.781" cy="339.529" r="3" fill="#e26f46" fill-rule="evenodd" fill-opacity="1" stroke="#000000" stroke-opacity="1" stroke-width="0.8"/>
<circle clip-path="url(#clip572)" cx="142.842" cy="340.065" r="3" fill="#e26f46" fill-rule="evenodd" fill-opacity="1" stroke="#000000" stroke-opacity="1" stroke-width="0.8"/>
<circle clip-path="url(#clip572)" cx="147.903" cy="334.329" r="3" fill="#e26f46" fill-rule="evenodd" fill-opacity="1" stroke="#000000" stroke-opacity="1" stroke-width="0.8"/>
<circle clip-path="url(#clip572)" cx="152.963" cy="337.362" r="3" fill="#e26f46" fill-rule="evenodd" fill-opacity="1" stroke="#000000" stroke-opacity="1" stroke-width="0.8"/>
<circle clip-path="url(#clip572)" cx="158.024" cy="335.771" r="3" fill="#e26f46" fill-rule="evenodd" fill-opacity="1" stroke="#000000" stroke-opacity="1" stroke-width="0.8"/>
<circle clip-path="url(#clip572)" cx="163.085" cy="336.799" r="3" fill="#e26f46" fill-rule="evenodd" fill-opacity="1" stroke="#000000" stroke-opacity="1" stroke-width="0.8"/>
<circle clip-path="url(#clip572)" cx="168.146" cy="336.723" r="3" fill="#e26f46" fill-rule="evenodd" fill-opacity="1" stroke="#000000" stroke-opacity="1" stroke-width="0.8"/>
<circle clip-path="url(#clip572)" cx="173.206" cy="337.763" r="3" fill="#e26f46" fill-rule="evenodd" fill-opacity="1" stroke="#000000" stroke-opacity="1" stroke-width="0.8"/>
<circle clip-path="url(#clip572)" cx="178.267" cy="337.245" r="3" fill="#e26f46" fill-rule="evenodd" fill-opacity="1" stroke="#000000" stroke-opacity="1" stroke-width="0.8"/>
<circle clip-path="url(#clip572)" cx="183.328" cy="332.549" r="3" fill="#e26f46" fill-rule="evenodd" fill-opacity="1" stroke="#000000" stroke-opacity="1" stroke-width="0.8"/>
<circle clip-path="url(#clip572)" cx="188.389" cy="330.879" r="3" fill="#e26f46" fill-rule="evenodd" fill-opacity="1" stroke="#000000" stroke-opacity="1" stroke-width="0.8"/>
<circle clip-path="url(#clip572)" cx="193.449" cy="330.726" r="3" fill="#e26f46" fill-rule="evenodd" fill-opacity="1" stroke="#000000" stroke-opacity="1" stroke-width="0.8"/>
<circle clip-path="url(#clip572)" cx="198.51" cy="331.869" r="3" fill="#e26f46" fill-rule="evenodd" fill-opacity="1" stroke="#000000" stroke-opacity="1" stroke-width="0.8"/>
<circle clip-path="url(#clip572)" cx="203.571" cy="332.28" r="3" fill="#e26f46" fill-rule="evenodd" fill-opacity="1" stroke="#000000" stroke-opacity="1" stroke-width="0.8"/>
<circle clip-path="url(#clip572)" cx="208.632" cy="331.052" r="3" fill="#e26f46" fill-rule="evenodd" fill-opacity="1" stroke="#000000" stroke-opacity="1" stroke-width="0.8"/>
<circle clip-path="url(#clip572)" cx="213.692" cy="329.955" r="3" fill="#e26f46" fill-rule="evenodd" fill-opacity="1" stroke="#000000" stroke-opacity="1" stroke-width="0.8"/>
<circle clip-path="url(#clip572)" cx="218.753" cy="329.214" r="3" fill="#e26f46" fill-rule="evenodd" fill-opacity="1" stroke="#000000" stroke-opacity="1" stroke-width="0.8"/>
<circle clip-path="url(#clip572)" cx="223.814" cy="323.631" r="3" fill="#e26f46" fill-rule="evenodd" fill-opacity="1" stroke="#000000" stroke-opacity="1" stroke-width="0.8"/>
<circle clip-path="url(#clip572)" cx="228.875" cy="324.322" r="3" fill="#e26f46" fill-rule="evenodd" fill-opacity="1" stroke="#000000" stroke-opacity="1" stroke-width="0.8"/>
<circle clip-path="url(#clip572)" cx="233.936" cy="323.824" r="3" fill="#e26f46" fill-rule="evenodd" fill-opacity="1" stroke="#000000" stroke-opacity="1" stroke-width="0.8"/>
<circle clip-path="url(#clip572)" cx="238.996" cy="318.038" r="3" fill="#e26f46" fill-rule="evenodd" fill-opacity="1" stroke="#000000" stroke-opacity="1" stroke-width="0.8"/>
<circle clip-path="url(#clip572)" cx="244.057" cy="311.786" r="3" fill="#e26f46" fill-rule="evenodd" fill-opacity="1" stroke="#000000" stroke-opacity="1" stroke-width="0.8"/>
<circle clip-path="url(#clip572)" cx="249.118" cy="320.164" r="3" fill="#e26f46" fill-rule="evenodd" fill-opacity="1" stroke="#000000" stroke-opacity="1" stroke-width="0.8"/>
<circle clip-path="url(#clip572)" cx="254.179" cy="321.338" r="3" fill="#e26f46" fill-rule="evenodd" fill-opacity="1" stroke="#000000" stroke-opacity="1" stroke-width="0.8"/>
<circle clip-path="url(#clip572)" cx="259.239" cy="306.416" r="3" fill="#e26f46" fill-rule="evenodd" fill-opacity="1" stroke="#000000" stroke-opacity="1" stroke-width="0.8"/>
<circle clip-path="url(#clip572)" cx="264.3" cy="298.378" r="3" fill="#e26f46" fill-rule="evenodd" fill-opacity="1" stroke="#000000" stroke-opacity="1" stroke-width="0.8"/>
<circle clip-path="url(#clip572)" cx="269.361" cy="305.464" r="3" fill="#e26f46" fill-rule="evenodd" fill-opacity="1" stroke="#000000" stroke-opacity="1" stroke-width="0.8"/>
<circle clip-path="url(#clip572)" cx="274.422" cy="297.943" r="3" fill="#e26f46" fill-rule="evenodd" fill-opacity="1" stroke="#000000" stroke-opacity="1" stroke-width="0.8"/>
<circle clip-path="url(#clip572)" cx="279.482" cy="295.751" r="3" fill="#e26f46" fill-rule="evenodd" fill-opacity="1" stroke="#000000" stroke-opacity="1" stroke-width="0.8"/>
<circle clip-path="url(#clip572)" cx="284.543" cy="283.527" r="3" fill="#e26f46" fill-rule="evenodd" fill-opacity="1" stroke="#000000" stroke-opacity="1" stroke-width="0.8"/>
<circle clip-path="url(#clip572)" cx="289.604" cy="289.98" r="3" fill="#e26f46" fill-rule="evenodd" fill-opacity="1" stroke="#000000" stroke-opacity="1" stroke-width="0.8"/>
<circle clip-path="url(#clip572)" cx="294.665" cy="281.799" r="3" fill="#e26f46" fill-rule="evenodd" fill-opacity="1" stroke="#000000" stroke-opacity="1" stroke-width="0.8"/>
<circle clip-path="url(#clip572)" cx="299.725" cy="282.686" r="3" fill="#e26f46" fill-rule="evenodd" fill-opacity="1" stroke="#000000" stroke-opacity="1" stroke-width="0.8"/>
<circle clip-path="url(#clip572)" cx="304.786" cy="274.542" r="3" fill="#e26f46" fill-rule="evenodd" fill-opacity="1" stroke="#000000" stroke-opacity="1" stroke-width="0.8"/>
<circle clip-path="url(#clip572)" cx="309.847" cy="266.857" r="3" fill="#e26f46" fill-rule="evenodd" fill-opacity="1" stroke="#000000" stroke-opacity="1" stroke-width="0.8"/>
<circle clip-path="url(#clip572)" cx="314.908" cy="257.423" r="3" fill="#e26f46" fill-rule="evenodd" fill-opacity="1" stroke="#000000" stroke-opacity="1" stroke-width="0.8"/>
<circle clip-path="url(#clip572)" cx="319.969" cy="257.484" r="3" fill="#e26f46" fill-rule="evenodd" fill-opacity="1" stroke="#000000" stroke-opacity="1" stroke-width="0.8"/>
<circle clip-path="url(#clip572)" cx="325.029" cy="248.385" r="3" fill="#e26f46" fill-rule="evenodd" fill-opacity="1" stroke="#000000" stroke-opacity="1" stroke-width="0.8"/>
<circle clip-path="url(#clip572)" cx="330.09" cy="241.216" r="3" fill="#e26f46" fill-rule="evenodd" fill-opacity="1" stroke="#000000" stroke-opacity="1" stroke-width="0.8"/>
<circle clip-path="url(#clip572)" cx="335.151" cy="228.331" r="3" fill="#e26f46" fill-rule="evenodd" fill-opacity="1" stroke="#000000" stroke-opacity="1" stroke-width="0.8"/>
<circle clip-path="url(#clip572)" cx="340.212" cy="224.633" r="3" fill="#e26f46" fill-rule="evenodd" fill-opacity="1" stroke="#000000" stroke-opacity="1" stroke-width="0.8"/>
<circle clip-path="url(#clip572)" cx="345.272" cy="219.161" r="3" fill="#e26f46" fill-rule="evenodd" fill-opacity="1" stroke="#000000" stroke-opacity="1" stroke-width="0.8"/>
<circle clip-path="url(#clip572)" cx="350.333" cy="211.276" r="3" fill="#e26f46" fill-rule="evenodd" fill-opacity="1" stroke="#000000" stroke-opacity="1" stroke-width="0.8"/>
<circle clip-path="url(#clip572)" cx="355.394" cy="197.775" r="3" fill="#e26f46" fill-rule="evenodd" fill-opacity="1" stroke="#000000" stroke-opacity="1" stroke-width="0.8"/>
<circle clip-path="url(#clip572)" cx="360.455" cy="204.992" r="3" fill="#e26f46" fill-rule="evenodd" fill-opacity="1" stroke="#000000" stroke-opacity="1" stroke-width="0.8"/>
<circle clip-path="url(#clip572)" cx="365.515" cy="191.339" r="3" fill="#e26f46" fill-rule="evenodd" fill-opacity="1" stroke="#000000" stroke-opacity="1" stroke-width="0.8"/>
<circle clip-path="url(#clip572)" cx="370.576" cy="177.79" r="3" fill="#e26f46" fill-rule="evenodd" fill-opacity="1" stroke="#000000" stroke-opacity="1" stroke-width="0.8"/>
<circle clip-path="url(#clip572)" cx="375.637" cy="171.037" r="3" fill="#e26f46" fill-rule="evenodd" fill-opacity="1" stroke="#000000" stroke-opacity="1" stroke-width="0.8"/>
<circle clip-path="url(#clip572)" cx="380.698" cy="158.046" r="3" fill="#e26f46" fill-rule="evenodd" fill-opacity="1" stroke="#000000" stroke-opacity="1" stroke-width="0.8"/>
<circle clip-path="url(#clip572)" cx="385.758" cy="150.426" r="3" fill="#e26f46" fill-rule="evenodd" fill-opacity="1" stroke="#000000" stroke-opacity="1" stroke-width="0.8"/>
<circle clip-path="url(#clip572)" cx="390.819" cy="146.235" r="3" fill="#e26f46" fill-rule="evenodd" fill-opacity="1" stroke="#000000" stroke-opacity="1" stroke-width="0.8"/>
<circle clip-path="url(#clip572)" cx="395.88" cy="142.304" r="3" fill="#e26f46" fill-rule="evenodd" fill-opacity="1" stroke="#000000" stroke-opacity="1" stroke-width="0.8"/>
<circle clip-path="url(#clip572)" cx="400.941" cy="129.609" r="3" fill="#e26f46" fill-rule="evenodd" fill-opacity="1" stroke="#000000" stroke-opacity="1" stroke-width="0.8"/>
<circle clip-path="url(#clip572)" cx="406.001" cy="124.707" r="3" fill="#e26f46" fill-rule="evenodd" fill-opacity="1" stroke="#000000" stroke-opacity="1" stroke-width="0.8"/>
<circle clip-path="url(#clip572)" cx="411.062" cy="118.37" r="3" fill="#e26f46" fill-rule="evenodd" fill-opacity="1" stroke="#000000" stroke-opacity="1" stroke-width="0.8"/>
<circle clip-path="url(#clip572)" cx="416.123" cy="111.816" r="3" fill="#e26f46" fill-rule="evenodd" fill-opacity="1" stroke="#000000" stroke-opacity="1" stroke-width="0.8"/>
<circle clip-path="url(#clip572)" cx="421.184" cy="101.019" r="3" fill="#e26f46" fill-rule="evenodd" fill-opacity="1" stroke="#000000" stroke-opacity="1" stroke-width="0.8"/>
<circle clip-path="url(#clip572)" cx="426.245" cy="99.9299" r="3" fill="#e26f46" fill-rule="evenodd" fill-opacity="1" stroke="#000000" stroke-opacity="1" stroke-width="0.8"/>
<circle clip-path="url(#clip572)" cx="431.305" cy="91.4539" r="3" fill="#e26f46" fill-rule="evenodd" fill-opacity="1" stroke="#000000" stroke-opacity="1" stroke-width="0.8"/>
<circle clip-path="url(#clip572)" cx="436.366" cy="85.7334" r="3" fill="#e26f46" fill-rule="evenodd" fill-opacity="1" stroke="#000000" stroke-opacity="1" stroke-width="0.8"/>
<circle clip-path="url(#clip572)" cx="441.427" cy="77.262" r="3" fill="#e26f46" fill-rule="evenodd" fill-opacity="1" stroke="#000000" stroke-opacity="1" stroke-width="0.8"/>
<circle clip-path="url(#clip572)" cx="446.488" cy="76.6281" r="3" fill="#e26f46" fill-rule="evenodd" fill-opacity="1" stroke="#000000" stroke-opacity="1" stroke-width="0.8"/>
<circle clip-path="url(#clip572)" cx="451.548" cy="66.9388" r="3" fill="#e26f46" fill-rule="evenodd" fill-opacity="1" stroke="#000000" stroke-opacity="1" stroke-width="0.8"/>
<circle clip-path="url(#clip572)" cx="456.609" cy="69.3259" r="3" fill="#e26f46" fill-rule="evenodd" fill-opacity="1" stroke="#000000" stroke-opacity="1" stroke-width="0.8"/>
<circle clip-path="url(#clip572)" cx="461.67" cy="61.1819" r="3" fill="#e26f46" fill-rule="evenodd" fill-opacity="1" stroke="#000000" stroke-opacity="1" stroke-width="0.8"/>
<circle clip-path="url(#clip572)" cx="466.731" cy="48.8955" r="3" fill="#e26f46" fill-rule="evenodd" fill-opacity="1" stroke="#000000" stroke-opacity="1" stroke-width="0.8"/>
<circle clip-path="url(#clip572)" cx="471.791" cy="57.7499" r="3" fill="#e26f46" fill-rule="evenodd" fill-opacity="1" stroke="#000000" stroke-opacity="1" stroke-width="0.8"/>
<circle clip-path="url(#clip572)" cx="476.852" cy="52.0797" r="3" fill="#e26f46" fill-rule="evenodd" fill-opacity="1" stroke="#000000" stroke-opacity="1" stroke-width="0.8"/>
<circle clip-path="url(#clip572)" cx="481.913" cy="45.2736" r="3" fill="#e26f46" fill-rule="evenodd" fill-opacity="1" stroke="#000000" stroke-opacity="1" stroke-width="0.8"/>
<circle clip-path="url(#clip572)" cx="486.974" cy="54.7318" r="3" fill="#e26f46" fill-rule="evenodd" fill-opacity="1" stroke="#000000" stroke-opacity="1" stroke-width="0.8"/>
<circle clip-path="url(#clip572)" cx="492.034" cy="42.687" r="3" fill="#e26f46" fill-rule="evenodd" fill-opacity="1" stroke="#000000" stroke-opacity="1" stroke-width="0.8"/>
<circle clip-path="url(#clip572)" cx="497.095" cy="42.4252" r="3" fill="#e26f46" fill-rule="evenodd" fill-opacity="1" stroke="#000000" stroke-opacity="1" stroke-width="0.8"/>
<circle clip-path="url(#clip572)" cx="502.156" cy="29.5621" r="3" fill="#e26f46" fill-rule="evenodd" fill-opacity="1" stroke="#000000" stroke-opacity="1" stroke-width="0.8"/>
<circle clip-path="url(#clip572)" cx="507.217" cy="31.4201" r="3" fill="#e26f46" fill-rule="evenodd" fill-opacity="1" stroke="#000000" stroke-opacity="1" stroke-width="0.8"/>
<circle clip-path="url(#clip572)" cx="512.278" cy="33.1757" r="3" fill="#e26f46" fill-rule="evenodd" fill-opacity="1" stroke="#000000" stroke-opacity="1" stroke-width="0.8"/>
<circle clip-path="url(#clip572)" cx="517.338" cy="28.3382" r="3" fill="#e26f46" fill-rule="evenodd" fill-opacity="1" stroke="#000000" stroke-opacity="1" stroke-width="0.8"/>
<circle clip-path="url(#clip572)" cx="522.399" cy="35.4871" r="3" fill="#e26f46" fill-rule="evenodd" fill-opacity="1" stroke="#000000" stroke-opacity="1" stroke-width="0.8"/>
<path clip-path="url(#clip570)" d="
M69.6294 68.4524 L202.764 68.4524 L202.764 23.0924 L69.6294 23.0924  Z
  " fill="#ffffff" fill-rule="evenodd" fill-opacity="1"/>
<polyline clip-path="url(#clip570)" style="stroke:#000000; stroke-width:1; stroke-opacity:1; fill:none" points="
  69.6294,68.4524 202.764,68.4524 202.764,23.0924 69.6294,23.0924 69.6294,68.4524 
  "/>
<polyline clip-path="url(#clip570)" style="stroke:#009af9; stroke-width:1; stroke-opacity:1; fill:none" points="
  75.5899,38.2124 111.353,38.2124 
  "/>
<path clip-path="url(#clip570)" d="M 0 0 M121.919 36.2419 L121.919 37.2489 Q121.468 37.0174 120.982 36.9016 Q120.496 36.7859 119.975 36.7859 Q119.182 36.7859 118.783 37.0289 Q118.389 37.272 118.389 37.7581 Q118.389 38.1285 118.673 38.3426 Q118.957 38.5509 119.813 38.7419 L120.178 38.8229 Q121.312 39.066 121.786 39.5116 Q122.267 39.9514 122.267 40.7442 Q122.267 41.647 121.549 42.1736 Q120.837 42.7002 119.587 42.7002 Q119.066 42.7002 118.499 42.596 Q117.938 42.4977 117.313 42.2951 L117.313 41.1956 Q117.903 41.5023 118.476 41.6586 Q119.049 41.809 119.61 41.809 Q120.363 41.809 120.768 41.5544 Q121.173 41.294 121.173 40.8252 Q121.173 40.3912 120.878 40.1597 Q120.588 39.9282 119.599 39.7141 L119.229 39.6273 Q118.239 39.419 117.799 38.9907 Q117.359 38.5567 117.359 37.8044 Q117.359 36.8901 118.007 36.3924 Q118.656 35.8947 119.848 35.8947 Q120.438 35.8947 120.959 35.9815 Q121.48 36.0683 121.919 36.2419 Z" fill="#000000" fill-rule="evenodd" fill-opacity="1" /><path clip-path="url(#clip570)" d="M 0 0 M123.384 36.0509 L124.448 36.0509 L124.448 42.5324 L123.384 42.5324 L123.384 36.0509 M123.384 33.5278 L124.448 33.5278 L124.448 34.8762 L123.384 34.8762 L123.384 33.5278 Z" fill="#000000" fill-rule="evenodd" fill-opacity="1" /><path clip-path="url(#clip570)" d="M 0 0 M129.83 39.2164 Q129.83 38.059 129.35 37.4225 Q128.875 36.7859 128.013 36.7859 Q127.157 36.7859 126.676 37.4225 Q126.202 38.059 126.202 39.2164 Q126.202 40.368 126.676 41.0046 Q127.157 41.6412 128.013 41.6412 Q128.875 41.6412 129.35 41.0046 Q129.83 40.368 129.83 39.2164 M130.895 41.728 Q130.895 43.3831 130.16 44.1875 Q129.425 44.9977 127.909 44.9977 Q127.348 44.9977 126.85 44.9108 Q126.352 44.8298 125.884 44.6562 L125.884 43.6203 Q126.352 43.875 126.81 43.9965 Q127.267 44.118 127.741 44.118 Q128.789 44.118 129.309 43.5683 Q129.83 43.0243 129.83 41.919 L129.83 41.3923 Q129.5 41.9653 128.985 42.2488 Q128.47 42.5324 127.753 42.5324 Q126.561 42.5324 125.832 41.6238 Q125.102 40.7153 125.102 39.2164 Q125.102 37.7118 125.832 36.8033 Q126.561 35.8947 127.753 35.8947 Q128.47 35.8947 128.985 36.1783 Q129.5 36.4618 129.83 37.0347 L129.83 36.0509 L130.895 36.0509 L130.895 41.728 Z" fill="#000000" fill-rule="evenodd" fill-opacity="1" /><path clip-path="url(#clip570)" d="M 0 0 M137.058 37.2951 Q137.458 36.5776 138.013 36.2361 Q138.569 35.8947 139.321 35.8947 Q140.334 35.8947 140.884 36.6065 Q141.433 37.3125 141.433 38.6204 L141.433 42.5324 L140.363 42.5324 L140.363 38.6551 Q140.363 37.7234 140.033 37.272 Q139.703 36.8206 139.026 36.8206 Q138.198 36.8206 137.718 37.3704 Q137.238 37.9201 137.238 38.8692 L137.238 42.5324 L136.167 42.5324 L136.167 38.6551 Q136.167 37.7176 135.837 37.272 Q135.507 36.8206 134.819 36.8206 Q134.003 36.8206 133.522 37.3762 Q133.042 37.9259 133.042 38.8692 L133.042 42.5324 L131.972 42.5324 L131.972 36.0509 L133.042 36.0509 L133.042 37.0579 Q133.407 36.4618 133.916 36.1783 Q134.425 35.8947 135.125 35.8947 Q135.831 35.8947 136.323 36.2535 Q136.821 36.6123 137.058 37.2951 Z" fill="#000000" fill-rule="evenodd" fill-opacity="1" /><path clip-path="url(#clip570)" d="M 0 0 M145.062 36.7975 Q144.205 36.7975 143.708 37.4688 Q143.21 38.1343 143.21 39.2975 Q143.21 40.4606 143.702 41.1319 Q144.199 41.7974 145.062 41.7974 Q145.912 41.7974 146.41 41.1261 Q146.908 40.4549 146.908 39.2975 Q146.908 38.1458 146.41 37.4745 Q145.912 36.7975 145.062 36.7975 M145.062 35.8947 Q146.451 35.8947 147.243 36.7975 Q148.036 37.7002 148.036 39.2975 Q148.036 40.8889 147.243 41.7974 Q146.451 42.7002 145.062 42.7002 Q143.667 42.7002 142.874 41.7974 Q142.087 40.8889 142.087 39.2975 Q142.087 37.7002 142.874 36.7975 Q143.667 35.8947 145.062 35.8947 Z" fill="#000000" fill-rule="evenodd" fill-opacity="1" /><path clip-path="url(#clip570)" d="M 0 0 M149.153 36.0509 L150.218 36.0509 L150.218 42.5324 L149.153 42.5324 L149.153 36.0509 M149.153 33.5278 L150.218 33.5278 L150.218 34.8762 L149.153 34.8762 L149.153 33.5278 Z" fill="#000000" fill-rule="evenodd" fill-opacity="1" /><path clip-path="url(#clip570)" d="M 0 0 M155.6 37.0347 L155.6 33.5278 L156.665 33.5278 L156.665 42.5324 L155.6 42.5324 L155.6 41.5602 Q155.264 42.1389 154.749 42.4224 Q154.24 42.7002 153.522 42.7002 Q152.348 42.7002 151.607 41.7627 Q150.872 40.8252 150.872 39.2975 Q150.872 37.7697 151.607 36.8322 Q152.348 35.8947 153.522 35.8947 Q154.24 35.8947 154.749 36.1783 Q155.264 36.456 155.6 37.0347 M151.971 39.2975 Q151.971 40.4722 152.452 41.1435 Q152.938 41.809 153.783 41.809 Q154.628 41.809 155.114 41.1435 Q155.6 40.4722 155.6 39.2975 Q155.6 38.1227 155.114 37.4572 Q154.628 36.7859 153.783 36.7859 Q152.938 36.7859 152.452 37.4572 Q151.971 38.1227 151.971 39.2975 Z" fill="#000000" fill-rule="evenodd" fill-opacity="1" /><path clip-path="url(#clip570)" d="M 0 0 M166.213 36.2998 L166.213 37.2951 Q165.762 37.0463 165.305 36.9248 Q164.853 36.7975 164.39 36.7975 Q163.354 36.7975 162.782 37.4572 Q162.209 38.1111 162.209 39.2975 Q162.209 40.4838 162.782 41.1435 Q163.354 41.7974 164.39 41.7974 Q164.853 41.7974 165.305 41.6759 Q165.762 41.5486 166.213 41.2998 L166.213 42.2835 Q165.768 42.4919 165.287 42.596 Q164.813 42.7002 164.275 42.7002 Q162.81 42.7002 161.948 41.7801 Q161.086 40.8599 161.086 39.2975 Q161.086 37.7118 161.954 36.8033 Q162.828 35.8947 164.344 35.8947 Q164.836 35.8947 165.305 35.9989 Q165.773 36.0972 166.213 36.2998 Z" fill="#000000" fill-rule="evenodd" fill-opacity="1" /><path clip-path="url(#clip570)" d="M 0 0 M167.22 39.9745 L167.22 36.0509 L168.285 36.0509 L168.285 39.934 Q168.285 40.8542 168.644 41.3171 Q169.003 41.7743 169.72 41.7743 Q170.582 41.7743 171.08 41.2245 Q171.584 40.6748 171.584 39.7257 L171.584 36.0509 L172.648 36.0509 L172.648 42.5324 L171.584 42.5324 L171.584 41.537 Q171.196 42.1273 170.681 42.4166 Q170.172 42.7002 169.494 42.7002 Q168.378 42.7002 167.799 42.0058 Q167.22 41.3113 167.22 39.9745 M169.9 35.8947 L169.9 35.8947 Z" fill="#000000" fill-rule="evenodd" fill-opacity="1" /><path clip-path="url(#clip570)" d="M 0 0 M177.521 37.0463 Q177.342 36.9421 177.128 36.8958 Q176.919 36.8438 176.665 36.8438 Q175.762 36.8438 175.276 37.434 Q174.795 38.0185 174.795 39.1181 L174.795 42.5324 L173.725 42.5324 L173.725 36.0509 L174.795 36.0509 L174.795 37.0579 Q175.131 36.4676 175.669 36.184 Q176.207 35.8947 176.977 35.8947 Q177.087 35.8947 177.22 35.9121 Q177.353 35.9236 177.515 35.9526 L177.521 37.0463 Z" fill="#000000" fill-rule="evenodd" fill-opacity="1" /><path clip-path="url(#clip570)" d="M 0 0 M177.874 36.0509 L179.003 36.0509 L181.028 41.4907 L183.053 36.0509 L184.182 36.0509 L181.751 42.5324 L180.305 42.5324 L177.874 36.0509 Z" fill="#000000" fill-rule="evenodd" fill-opacity="1" /><path clip-path="url(#clip570)" d="M 0 0 M190.843 39.0255 L190.843 39.5463 L185.947 39.5463 Q186.016 40.6458 186.607 41.2245 Q187.203 41.7974 188.262 41.7974 Q188.875 41.7974 189.448 41.647 Q190.027 41.4965 190.594 41.1956 L190.594 42.2025 Q190.021 42.4456 189.419 42.5729 Q188.817 42.7002 188.198 42.7002 Q186.647 42.7002 185.739 41.7974 Q184.836 40.8947 184.836 39.3553 Q184.836 37.7639 185.692 36.8322 Q186.555 35.8947 188.013 35.8947 Q189.321 35.8947 190.079 36.7396 Q190.843 37.5787 190.843 39.0255 M189.778 38.713 Q189.766 37.8391 189.286 37.3183 Q188.811 36.7975 188.024 36.7975 Q187.133 36.7975 186.595 37.3009 Q186.063 37.8044 185.982 38.7188 L189.778 38.713 Z" fill="#000000" fill-rule="evenodd" fill-opacity="1" /><circle clip-path="url(#clip570)" cx="93.4712" cy="53.3324" r="5" fill="#e26f46" fill-rule="evenodd" fill-opacity="1" stroke="#000000" stroke-opacity="1" stroke-width="1.28"/>
<path clip-path="url(#clip570)" d="M 0 0 M120.288 51.9175 Q119.431 51.9175 118.933 52.5888 Q118.436 53.2543 118.436 54.4175 Q118.436 55.5806 118.928 56.2519 Q119.425 56.9174 120.288 56.9174 Q121.138 56.9174 121.636 56.2461 Q122.134 55.5749 122.134 54.4175 Q122.134 53.2658 121.636 52.5945 Q121.138 51.9175 120.288 51.9175 M120.288 51.0147 Q121.676 51.0147 122.469 51.9175 Q123.262 52.8202 123.262 54.4175 Q123.262 56.0089 122.469 56.9174 Q121.676 57.8202 120.288 57.8202 Q118.893 57.8202 118.1 56.9174 Q117.313 56.0089 117.313 54.4175 Q117.313 52.8202 118.1 51.9175 Q118.893 51.0147 120.288 51.0147 Z" fill="#000000" fill-rule="evenodd" fill-opacity="1" /><path clip-path="url(#clip570)" d="M 0 0 M129.032 54.4175 Q129.032 53.2427 128.546 52.5772 Q128.065 51.9059 127.22 51.9059 Q126.375 51.9059 125.889 52.5772 Q125.409 53.2427 125.409 54.4175 Q125.409 55.5922 125.889 56.2635 Q126.375 56.929 127.22 56.929 Q128.065 56.929 128.546 56.2635 Q129.032 55.5922 129.032 54.4175 M125.409 52.1547 Q125.745 51.576 126.254 51.2983 Q126.769 51.0147 127.481 51.0147 Q128.661 51.0147 129.396 51.9522 Q130.137 52.8897 130.137 54.4175 Q130.137 55.9452 129.396 56.8827 Q128.661 57.8202 127.481 57.8202 Q126.769 57.8202 126.254 57.5424 Q125.745 57.2589 125.409 56.6802 L125.409 57.6524 L124.338 57.6524 L124.338 48.6478 L125.409 48.6478 L125.409 52.1547 Z" fill="#000000" fill-rule="evenodd" fill-opacity="1" /><path clip-path="url(#clip570)" d="M 0 0 M135.386 51.3619 L135.386 52.3689 Q134.934 52.1374 134.448 52.0216 Q133.962 51.9059 133.441 51.9059 Q132.649 51.9059 132.249 52.1489 Q131.856 52.392 131.856 52.8781 Q131.856 53.2485 132.139 53.4626 Q132.423 53.6709 133.279 53.8619 L133.644 53.9429 Q134.778 54.186 135.253 54.6316 Q135.733 55.0714 135.733 55.8642 Q135.733 56.767 135.015 57.2936 Q134.304 57.8202 133.054 57.8202 Q132.533 57.8202 131.966 57.716 Q131.404 57.6177 130.779 57.4151 L130.779 56.3156 Q131.37 56.6223 131.943 56.7786 Q132.516 56.929 133.077 56.929 Q133.829 56.929 134.234 56.6744 Q134.639 56.414 134.639 55.9452 Q134.639 55.5112 134.344 55.2797 Q134.055 55.0482 133.065 54.8341 L132.695 54.7473 Q131.705 54.539 131.266 54.1107 Q130.826 53.6767 130.826 52.9244 Q130.826 52.0101 131.474 51.5124 Q132.122 51.0147 133.314 51.0147 Q133.904 51.0147 134.425 51.1015 Q134.946 51.1883 135.386 51.3619 Z" fill="#000000" fill-rule="evenodd" fill-opacity="1" /><path clip-path="url(#clip570)" d="M 0 0 M142.394 54.1455 L142.394 54.6663 L137.498 54.6663 Q137.568 55.7658 138.158 56.3445 Q138.754 56.9174 139.813 56.9174 Q140.426 56.9174 140.999 56.767 Q141.578 56.6165 142.145 56.3156 L142.145 57.3225 Q141.572 57.5656 140.97 57.6929 Q140.368 57.8202 139.749 57.8202 Q138.198 57.8202 137.29 56.9174 Q136.387 56.0147 136.387 54.4753 Q136.387 52.8839 137.243 51.9522 Q138.106 51.0147 139.564 51.0147 Q140.872 51.0147 141.63 51.8596 Q142.394 52.6987 142.394 54.1455 M141.329 53.833 Q141.318 52.9591 140.837 52.4383 Q140.363 51.9175 139.576 51.9175 Q138.684 51.9175 138.146 52.4209 Q137.614 52.9244 137.533 53.8388 L141.329 53.833 Z" fill="#000000" fill-rule="evenodd" fill-opacity="1" /><path clip-path="url(#clip570)" d="M 0 0 M147.267 52.1663 Q147.087 52.0621 146.873 52.0158 Q146.665 51.9638 146.41 51.9638 Q145.507 51.9638 145.021 52.554 Q144.541 53.1385 144.541 54.2381 L144.541 57.6524 L143.47 57.6524 L143.47 51.1709 L144.541 51.1709 L144.541 52.1779 Q144.877 51.5876 145.415 51.304 Q145.953 51.0147 146.723 51.0147 Q146.833 51.0147 146.966 51.0321 Q147.099 51.0436 147.261 51.0726 L147.267 52.1663 Z" fill="#000000" fill-rule="evenodd" fill-opacity="1" /><path clip-path="url(#clip570)" d="M 0 0 M147.62 51.1709 L148.748 51.1709 L150.774 56.6107 L152.799 51.1709 L153.927 51.1709 L151.497 57.6524 L150.05 57.6524 L147.62 51.1709 Z" fill="#000000" fill-rule="evenodd" fill-opacity="1" /><path clip-path="url(#clip570)" d="M 0 0 M160.588 54.1455 L160.588 54.6663 L155.692 54.6663 Q155.762 55.7658 156.352 56.3445 Q156.948 56.9174 158.007 56.9174 Q158.621 56.9174 159.194 56.767 Q159.772 56.6165 160.339 56.3156 L160.339 57.3225 Q159.767 57.5656 159.165 57.6929 Q158.563 57.8202 157.944 57.8202 Q156.393 57.8202 155.484 56.9174 Q154.581 56.0147 154.581 54.4753 Q154.581 52.8839 155.438 51.9522 Q156.3 51.0147 157.758 51.0147 Q159.066 51.0147 159.824 51.8596 Q160.588 52.6987 160.588 54.1455 M159.523 53.833 Q159.512 52.9591 159.032 52.4383 Q158.557 51.9175 157.77 51.9175 Q156.879 51.9175 156.341 52.4209 Q155.808 52.9244 155.727 53.8388 L159.523 53.833 Z" fill="#000000" fill-rule="evenodd" fill-opacity="1" /><path clip-path="url(#clip570)" d="M 0 0 M165.97 52.1547 L165.97 48.6478 L167.035 48.6478 L167.035 57.6524 L165.97 57.6524 L165.97 56.6802 Q165.635 57.2589 165.119 57.5424 Q164.61 57.8202 163.893 57.8202 Q162.718 57.8202 161.977 56.8827 Q161.242 55.9452 161.242 54.4175 Q161.242 52.8897 161.977 51.9522 Q162.718 51.0147 163.893 51.0147 Q164.61 51.0147 165.119 51.2983 Q165.635 51.576 165.97 52.1547 M162.342 54.4175 Q162.342 55.5922 162.822 56.2635 Q163.308 56.929 164.153 56.929 Q164.998 56.929 165.484 56.2635 Q165.97 55.5922 165.97 54.4175 Q165.97 53.2427 165.484 52.5772 Q164.998 51.9059 164.153 51.9059 Q163.308 51.9059 162.822 52.5772 Q162.342 53.2427 162.342 54.4175 Z" fill="#000000" fill-rule="evenodd" fill-opacity="1" /></svg>
