<?xml version="1.0" encoding="utf-8"?>
<svg xmlns="http://www.w3.org/2000/svg" xmlns:xlink="http://www.w3.org/1999/xlink" width="600" height="400" viewBox="0 0 2400 1600">
<defs>
  <clipPath id="clip880">
    <rect x="0" y="0" width="2400" height="1600"/>
  </clipPath>
</defs>
<path clip-path="url(#clip880)" d="
M0 1600 L2400 1600 L2400 0 L0 0  Z
  " fill="#ffffff" fill-rule="evenodd" fill-opacity="1"/>
<defs>
  <clipPath id="clip881">
    <rect x="480" y="0" width="1681" height="1600"/>
  </clipPath>
</defs>
<path clip-path="url(#clip880)" d="
M290.526 1382.2 L2352.76 1382.2 L2352.76 47.2441 L290.526 47.2441  Z
  " fill="#ffffff" fill-rule="evenodd" fill-opacity="1"/>
<defs>
  <clipPath id="clip882">
    <rect x="290" y="47" width="2063" height="1336"/>
  </clipPath>
</defs>
<polyline clip-path="url(#clip882)" style="stroke:#000000; stroke-linecap:butt; stroke-linejoin:round; stroke-width:2; stroke-opacity:0.1; fill:none" points="
  543.441,1382.2 543.441,47.2441 
  "/>
<polyline clip-path="url(#clip882)" style="stroke:#000000; stroke-linecap:butt; stroke-linejoin:round; stroke-width:2; stroke-opacity:0.1; fill:none" points="
  932.541,1382.2 932.541,47.2441 
  "/>
<polyline clip-path="url(#clip882)" style="stroke:#000000; stroke-linecap:butt; stroke-linejoin:round; stroke-width:2; stroke-opacity:0.1; fill:none" points="
  1321.64,1382.2 1321.64,47.2441 
  "/>
<polyline clip-path="url(#clip882)" style="stroke:#000000; stroke-linecap:butt; stroke-linejoin:round; stroke-width:2; stroke-opacity:0.1; fill:none" points="
  1710.74,1382.2 1710.74,47.2441 
  "/>
<polyline clip-path="url(#clip882)" style="stroke:#000000; stroke-linecap:butt; stroke-linejoin:round; stroke-width:2; stroke-opacity:0.1; fill:none" points="
  2099.84,1382.2 2099.84,47.2441 
  "/>
<polyline clip-path="url(#clip880)" style="stroke:#000000; stroke-linecap:butt; stroke-linejoin:round; stroke-width:4; stroke-opacity:1; fill:none" points="
  290.526,1382.2 2352.76,1382.2 
  "/>
<polyline clip-path="url(#clip880)" style="stroke:#000000; stroke-linecap:butt; stroke-linejoin:round; stroke-width:4; stroke-opacity:1; fill:none" points="
  543.441,1382.2 543.441,1363.3 
  "/>
<polyline clip-path="url(#clip880)" style="stroke:#000000; stroke-linecap:butt; stroke-linejoin:round; stroke-width:4; stroke-opacity:1; fill:none" points="
  932.541,1382.2 932.541,1363.3 
  "/>
<polyline clip-path="url(#clip880)" style="stroke:#000000; stroke-linecap:butt; stroke-linejoin:round; stroke-width:4; stroke-opacity:1; fill:none" points="
  1321.64,1382.2 1321.64,1363.3 
  "/>
<polyline clip-path="url(#clip880)" style="stroke:#000000; stroke-linecap:butt; stroke-linejoin:round; stroke-width:4; stroke-opacity:1; fill:none" points="
  1710.74,1382.2 1710.74,1363.3 
  "/>
<polyline clip-path="url(#clip880)" style="stroke:#000000; stroke-linecap:butt; stroke-linejoin:round; stroke-width:4; stroke-opacity:1; fill:none" points="
  2099.84,1382.2 2099.84,1363.3 
  "/>
<path clip-path="url(#clip880)" d="M512.342 1426.04 L542.017 1426.04 L542.017 1429.97 L512.342 1429.97 L512.342 1426.04 Z" fill="#000000" fill-rule="evenodd" fill-opacity="1" /><path clip-path="url(#clip880)" d="M564.957 1412.38 L553.152 1430.83 L564.957 1430.83 L564.957 1412.38 M563.73 1408.31 L569.61 1408.31 L569.61 1430.83 L574.54 1430.83 L574.54 1434.72 L569.61 1434.72 L569.61 1442.87 L564.957 1442.87 L564.957 1434.72 L549.355 1434.72 L549.355 1430.21 L563.73 1408.31 Z" fill="#000000" fill-rule="evenodd" fill-opacity="1" /><path clip-path="url(#clip880)" d="M902.483 1426.04 L932.159 1426.04 L932.159 1429.97 L902.483 1429.97 L902.483 1426.04 Z" fill="#000000" fill-rule="evenodd" fill-opacity="1" /><path clip-path="url(#clip880)" d="M946.279 1438.93 L962.599 1438.93 L962.599 1442.87 L940.654 1442.87 L940.654 1438.93 Q943.316 1436.18 947.9 1431.55 Q952.506 1426.9 953.687 1425.55 Q955.932 1423.03 956.812 1421.29 Q957.714 1419.53 957.714 1417.84 Q957.714 1415.09 955.77 1413.35 Q953.849 1411.62 950.747 1411.62 Q948.548 1411.62 946.094 1412.38 Q943.664 1413.15 940.886 1414.7 L940.886 1409.97 Q943.71 1408.84 946.164 1408.26 Q948.617 1407.68 950.654 1407.68 Q956.025 1407.68 959.219 1410.37 Q962.413 1413.05 962.413 1417.54 Q962.413 1419.67 961.603 1421.59 Q960.816 1423.49 958.71 1426.09 Q958.131 1426.76 955.029 1429.97 Q951.927 1433.17 946.279 1438.93 Z" fill="#000000" fill-rule="evenodd" fill-opacity="1" /><path clip-path="url(#clip880)" d="M1321.64 1411.39 Q1318.03 1411.39 1316.2 1414.95 Q1314.4 1418.49 1314.4 1425.62 Q1314.4 1432.73 1316.2 1436.29 Q1318.03 1439.84 1321.64 1439.84 Q1325.28 1439.84 1327.08 1436.29 Q1328.91 1432.73 1328.91 1425.62 Q1328.91 1418.49 1327.08 1414.95 Q1325.28 1411.39 1321.64 1411.39 M1321.64 1407.68 Q1327.45 1407.68 1330.51 1412.29 Q1333.59 1416.87 1333.59 1425.62 Q1333.59 1434.35 1330.51 1438.96 Q1327.45 1443.54 1321.64 1443.54 Q1315.83 1443.54 1312.75 1438.96 Q1309.7 1434.35 1309.7 1425.62 Q1309.7 1416.87 1312.75 1412.29 Q1315.83 1407.68 1321.64 1407.68 Z" fill="#000000" fill-rule="evenodd" fill-opacity="1" /><path clip-path="url(#clip880)" d="M1705.39 1438.93 L1721.71 1438.93 L1721.71 1442.87 L1699.77 1442.87 L1699.77 1438.93 Q1702.43 1436.18 1707.01 1431.55 Q1711.62 1426.9 1712.8 1425.55 Q1715.05 1423.03 1715.93 1421.29 Q1716.83 1419.53 1716.83 1417.84 Q1716.83 1415.09 1714.88 1413.35 Q1712.96 1411.62 1709.86 1411.62 Q1707.66 1411.62 1705.21 1412.38 Q1702.78 1413.15 1700 1414.7 L1700 1409.97 Q1702.82 1408.84 1705.28 1408.26 Q1707.73 1407.68 1709.77 1407.68 Q1715.14 1407.68 1718.33 1410.37 Q1721.53 1413.05 1721.53 1417.54 Q1721.53 1419.67 1720.72 1421.59 Q1719.93 1423.49 1717.82 1426.09 Q1717.25 1426.76 1714.14 1429.97 Q1711.04 1433.17 1705.39 1438.93 Z" fill="#000000" fill-rule="evenodd" fill-opacity="1" /><path clip-path="url(#clip880)" d="M2102.85 1412.38 L2091.04 1430.83 L2102.85 1430.83 L2102.85 1412.38 M2101.62 1408.31 L2107.5 1408.31 L2107.5 1430.83 L2112.43 1430.83 L2112.43 1434.72 L2107.5 1434.72 L2107.5 1442.87 L2102.85 1442.87 L2102.85 1434.72 L2087.25 1434.72 L2087.25 1430.21 L2101.62 1408.31 Z" fill="#000000" fill-rule="evenodd" fill-opacity="1" /><polyline clip-path="url(#clip882)" style="stroke:#000000; stroke-linecap:butt; stroke-linejoin:round; stroke-width:2; stroke-opacity:0.1; fill:none" points="
  290.526,1350.04 2352.76,1350.04 
  "/>
<polyline clip-path="url(#clip882)" style="stroke:#000000; stroke-linecap:butt; stroke-linejoin:round; stroke-width:2; stroke-opacity:0.1; fill:none" points="
  290.526,1101.42 2352.76,1101.42 
  "/>
<polyline clip-path="url(#clip882)" style="stroke:#000000; stroke-linecap:butt; stroke-linejoin:round; stroke-width:2; stroke-opacity:0.1; fill:none" points="
  290.526,852.797 2352.76,852.797 
  "/>
<polyline clip-path="url(#clip882)" style="stroke:#000000; stroke-linecap:butt; stroke-linejoin:round; stroke-width:2; stroke-opacity:0.1; fill:none" points="
  290.526,604.176 2352.76,604.176 
  "/>
<polyline clip-path="url(#clip882)" style="stroke:#000000; stroke-linecap:butt; stroke-linejoin:round; stroke-width:2; stroke-opacity:0.1; fill:none" points="
  290.526,355.555 2352.76,355.555 
  "/>
<polyline clip-path="url(#clip882)" style="stroke:#000000; stroke-linecap:butt; stroke-linejoin:round; stroke-width:2; stroke-opacity:0.1; fill:none" points="
  290.526,106.934 2352.76,106.934 
  "/>
<polyline clip-path="url(#clip880)" style="stroke:#000000; stroke-linecap:butt; stroke-linejoin:round; stroke-width:4; stroke-opacity:1; fill:none" points="
  290.526,1382.2 290.526,47.2441 
  "/>
<polyline clip-path="url(#clip880)" style="stroke:#000000; stroke-linecap:butt; stroke-linejoin:round; stroke-width:4; stroke-opacity:1; fill:none" points="
  290.526,1350.04 309.424,1350.04 
  "/>
<polyline clip-path="url(#clip880)" style="stroke:#000000; stroke-linecap:butt; stroke-linejoin:round; stroke-width:4; stroke-opacity:1; fill:none" points="
  290.526,1101.42 309.424,1101.42 
  "/>
<polyline clip-path="url(#clip880)" style="stroke:#000000; stroke-linecap:butt; stroke-linejoin:round; stroke-width:4; stroke-opacity:1; fill:none" points="
  290.526,852.797 309.424,852.797 
  "/>
<polyline clip-path="url(#clip880)" style="stroke:#000000; stroke-linecap:butt; stroke-linejoin:round; stroke-width:4; stroke-opacity:1; fill:none" points="
  290.526,604.176 309.424,604.176 
  "/>
<polyline clip-path="url(#clip880)" style="stroke:#000000; stroke-linecap:butt; stroke-linejoin:round; stroke-width:4; stroke-opacity:1; fill:none" points="
  290.526,355.555 309.424,355.555 
  "/>
<polyline clip-path="url(#clip880)" style="stroke:#000000; stroke-linecap:butt; stroke-linejoin:round; stroke-width:4; stroke-opacity:1; fill:none" points="
  290.526,106.934 309.424,106.934 
  "/>
<path clip-path="url(#clip880)" d="M167.188 1335.84 Q163.577 1335.84 161.749 1339.4 Q159.943 1342.94 159.943 1350.07 Q159.943 1357.18 161.749 1360.74 Q163.577 1364.29 167.188 1364.29 Q170.823 1364.29 172.628 1360.74 Q174.457 1357.18 174.457 1350.07 Q174.457 1342.94 172.628 1339.4 Q170.823 1335.84 167.188 1335.84 M167.188 1332.13 Q172.999 1332.13 176.054 1336.74 Q179.133 1341.32 179.133 1350.07 Q179.133 1358.8 176.054 1363.41 Q172.999 1367.99 167.188 1367.99 Q161.378 1367.99 158.3 1363.41 Q155.244 1358.8 155.244 1350.07 Q155.244 1341.32 158.3 1336.74 Q161.378 1332.13 167.188 1332.13 Z" fill="#000000" fill-rule="evenodd" fill-opacity="1" /><path clip-path="url(#clip880)" d="M187.35 1361.44 L192.235 1361.44 L192.235 1367.32 L187.35 1367.32 L187.35 1361.44 Z" fill="#000000" fill-rule="evenodd" fill-opacity="1" /><path clip-path="url(#clip880)" d="M212.42 1335.84 Q208.809 1335.84 206.98 1339.4 Q205.174 1342.94 205.174 1350.07 Q205.174 1357.18 206.98 1360.74 Q208.809 1364.29 212.42 1364.29 Q216.054 1364.29 217.859 1360.74 Q219.688 1357.18 219.688 1350.07 Q219.688 1342.94 217.859 1339.4 Q216.054 1335.84 212.42 1335.84 M212.42 1332.13 Q218.23 1332.13 221.285 1336.74 Q224.364 1341.32 224.364 1350.07 Q224.364 1358.8 221.285 1363.41 Q218.23 1367.99 212.42 1367.99 Q206.61 1367.99 203.531 1363.41 Q200.475 1358.8 200.475 1350.07 Q200.475 1341.32 203.531 1336.74 Q206.61 1332.13 212.42 1332.13 Z" fill="#000000" fill-rule="evenodd" fill-opacity="1" /><path clip-path="url(#clip880)" d="M242.582 1335.84 Q238.97 1335.84 237.142 1339.4 Q235.336 1342.94 235.336 1350.07 Q235.336 1357.18 237.142 1360.74 Q238.97 1364.29 242.582 1364.29 Q246.216 1364.29 248.021 1360.74 Q249.85 1357.18 249.85 1350.07 Q249.85 1342.94 248.021 1339.4 Q246.216 1335.84 242.582 1335.84 M242.582 1332.13 Q248.392 1332.13 251.447 1336.74 Q254.526 1341.32 254.526 1350.07 Q254.526 1358.8 251.447 1363.41 Q248.392 1367.99 242.582 1367.99 Q236.771 1367.99 233.693 1363.41 Q230.637 1358.8 230.637 1350.07 Q230.637 1341.32 233.693 1336.74 Q236.771 1332.13 242.582 1332.13 Z" fill="#000000" fill-rule="evenodd" fill-opacity="1" /><path clip-path="url(#clip880)" d="M168.184 1087.22 Q164.573 1087.22 162.744 1090.78 Q160.939 1094.32 160.939 1101.45 Q160.939 1108.56 162.744 1112.12 Q164.573 1115.67 168.184 1115.67 Q171.818 1115.67 173.624 1112.12 Q175.452 1108.56 175.452 1101.45 Q175.452 1094.32 173.624 1090.78 Q171.818 1087.22 168.184 1087.22 M168.184 1083.51 Q173.994 1083.51 177.05 1088.12 Q180.128 1092.7 180.128 1101.45 Q180.128 1110.18 177.05 1114.79 Q173.994 1119.37 168.184 1119.37 Q162.374 1119.37 159.295 1114.79 Q156.239 1110.18 156.239 1101.45 Q156.239 1092.7 159.295 1088.12 Q162.374 1083.51 168.184 1083.51 Z" fill="#000000" fill-rule="evenodd" fill-opacity="1" /><path clip-path="url(#clip880)" d="M188.346 1112.82 L193.23 1112.82 L193.23 1118.7 L188.346 1118.7 L188.346 1112.82 Z" fill="#000000" fill-rule="evenodd" fill-opacity="1" /><path clip-path="url(#clip880)" d="M213.415 1087.22 Q209.804 1087.22 207.975 1090.78 Q206.17 1094.32 206.17 1101.45 Q206.17 1108.56 207.975 1112.12 Q209.804 1115.67 213.415 1115.67 Q217.049 1115.67 218.855 1112.12 Q220.684 1108.56 220.684 1101.45 Q220.684 1094.32 218.855 1090.78 Q217.049 1087.22 213.415 1087.22 M213.415 1083.51 Q219.225 1083.51 222.281 1088.12 Q225.359 1092.7 225.359 1101.45 Q225.359 1110.18 222.281 1114.79 Q219.225 1119.37 213.415 1119.37 Q207.605 1119.37 204.526 1114.79 Q201.471 1110.18 201.471 1101.45 Q201.471 1092.7 204.526 1088.12 Q207.605 1083.51 213.415 1083.51 Z" fill="#000000" fill-rule="evenodd" fill-opacity="1" /><path clip-path="url(#clip880)" d="M233.623 1084.14 L251.98 1084.14 L251.98 1088.07 L237.906 1088.07 L237.906 1096.54 Q238.924 1096.2 239.943 1096.04 Q240.961 1095.85 241.98 1095.85 Q247.767 1095.85 251.146 1099.02 Q254.526 1102.19 254.526 1107.61 Q254.526 1113.19 251.054 1116.29 Q247.582 1119.37 241.262 1119.37 Q239.086 1119.37 236.818 1119 Q234.572 1118.63 232.165 1117.89 L232.165 1113.19 Q234.248 1114.32 236.471 1114.88 Q238.693 1115.43 241.17 1115.43 Q245.174 1115.43 247.512 1113.33 Q249.85 1111.22 249.85 1107.61 Q249.85 1104 247.512 1101.89 Q245.174 1099.79 241.17 1099.79 Q239.295 1099.79 237.42 1100.2 Q235.568 1100.62 233.623 1101.5 L233.623 1084.14 Z" fill="#000000" fill-rule="evenodd" fill-opacity="1" /><path clip-path="url(#clip880)" d="M167.188 838.595 Q163.577 838.595 161.749 842.16 Q159.943 845.702 159.943 852.831 Q159.943 859.938 161.749 863.503 Q163.577 867.044 167.188 867.044 Q170.823 867.044 172.628 863.503 Q174.457 859.938 174.457 852.831 Q174.457 845.702 172.628 842.16 Q170.823 838.595 167.188 838.595 M167.188 834.892 Q172.999 834.892 176.054 839.498 Q179.133 844.081 179.133 852.831 Q179.133 861.558 176.054 866.165 Q172.999 870.748 167.188 870.748 Q161.378 870.748 158.3 866.165 Q155.244 861.558 155.244 852.831 Q155.244 844.081 158.3 839.498 Q161.378 834.892 167.188 834.892 Z" fill="#000000" fill-rule="evenodd" fill-opacity="1" /><path clip-path="url(#clip880)" d="M187.35 864.197 L192.235 864.197 L192.235 870.077 L187.35 870.077 L187.35 864.197 Z" fill="#000000" fill-rule="evenodd" fill-opacity="1" /><path clip-path="url(#clip880)" d="M203.23 866.141 L210.869 866.141 L210.869 839.776 L202.559 841.442 L202.559 837.183 L210.823 835.517 L215.498 835.517 L215.498 866.141 L223.137 866.141 L223.137 870.077 L203.23 870.077 L203.23 866.141 Z" fill="#000000" fill-rule="evenodd" fill-opacity="1" /><path clip-path="url(#clip880)" d="M242.582 838.595 Q238.97 838.595 237.142 842.16 Q235.336 845.702 235.336 852.831 Q235.336 859.938 237.142 863.503 Q238.97 867.044 242.582 867.044 Q246.216 867.044 248.021 863.503 Q249.85 859.938 249.85 852.831 Q249.85 845.702 248.021 842.16 Q246.216 838.595 242.582 838.595 M242.582 834.892 Q248.392 834.892 251.447 839.498 Q254.526 844.081 254.526 852.831 Q254.526 861.558 251.447 866.165 Q248.392 870.748 242.582 870.748 Q236.771 870.748 233.693 866.165 Q230.637 861.558 230.637 852.831 Q230.637 844.081 233.693 839.498 Q236.771 834.892 242.582 834.892 Z" fill="#000000" fill-rule="evenodd" fill-opacity="1" /><path clip-path="url(#clip880)" d="M168.184 589.974 Q164.573 589.974 162.744 593.539 Q160.939 597.081 160.939 604.21 Q160.939 611.317 162.744 614.882 Q164.573 618.423 168.184 618.423 Q171.818 618.423 173.624 614.882 Q175.452 611.317 175.452 604.21 Q175.452 597.081 173.624 593.539 Q171.818 589.974 168.184 589.974 M168.184 586.271 Q173.994 586.271 177.05 590.877 Q180.128 595.461 180.128 604.21 Q180.128 612.937 177.05 617.544 Q173.994 622.127 168.184 622.127 Q162.374 622.127 159.295 617.544 Q156.239 612.937 156.239 604.21 Q156.239 595.461 159.295 590.877 Q162.374 586.271 168.184 586.271 Z" fill="#000000" fill-rule="evenodd" fill-opacity="1" /><path clip-path="url(#clip880)" d="M188.346 615.576 L193.23 615.576 L193.23 621.456 L188.346 621.456 L188.346 615.576 Z" fill="#000000" fill-rule="evenodd" fill-opacity="1" /><path clip-path="url(#clip880)" d="M204.225 617.521 L211.864 617.521 L211.864 591.155 L203.554 592.822 L203.554 588.562 L211.818 586.896 L216.494 586.896 L216.494 617.521 L224.133 617.521 L224.133 621.456 L204.225 621.456 L204.225 617.521 Z" fill="#000000" fill-rule="evenodd" fill-opacity="1" /><path clip-path="url(#clip880)" d="M233.623 586.896 L251.98 586.896 L251.98 590.831 L237.906 590.831 L237.906 599.303 Q238.924 598.956 239.943 598.794 Q240.961 598.609 241.98 598.609 Q247.767 598.609 251.146 601.78 Q254.526 604.951 254.526 610.368 Q254.526 615.947 251.054 619.048 Q247.582 622.127 241.262 622.127 Q239.086 622.127 236.818 621.757 Q234.572 621.386 232.165 620.646 L232.165 615.947 Q234.248 617.081 236.471 617.636 Q238.693 618.192 241.17 618.192 Q245.174 618.192 247.512 616.085 Q249.85 613.979 249.85 610.368 Q249.85 606.757 247.512 604.65 Q245.174 602.544 241.17 602.544 Q239.295 602.544 237.42 602.96 Q235.568 603.377 233.623 604.257 L233.623 586.896 Z" fill="#000000" fill-rule="evenodd" fill-opacity="1" /><path clip-path="url(#clip880)" d="M167.188 341.354 Q163.577 341.354 161.749 344.918 Q159.943 348.46 159.943 355.59 Q159.943 362.696 161.749 366.261 Q163.577 369.802 167.188 369.802 Q170.823 369.802 172.628 366.261 Q174.457 362.696 174.457 355.59 Q174.457 348.46 172.628 344.918 Q170.823 341.354 167.188 341.354 M167.188 337.65 Q172.999 337.65 176.054 342.256 Q179.133 346.84 179.133 355.59 Q179.133 364.316 176.054 368.923 Q172.999 373.506 167.188 373.506 Q161.378 373.506 158.3 368.923 Q155.244 364.316 155.244 355.59 Q155.244 346.84 158.3 342.256 Q161.378 337.65 167.188 337.65 Z" fill="#000000" fill-rule="evenodd" fill-opacity="1" /><path clip-path="url(#clip880)" d="M187.35 366.955 L192.235 366.955 L192.235 372.835 L187.35 372.835 L187.35 366.955 Z" fill="#000000" fill-rule="evenodd" fill-opacity="1" /><path clip-path="url(#clip880)" d="M206.448 368.9 L222.767 368.9 L222.767 372.835 L200.823 372.835 L200.823 368.9 Q203.485 366.145 208.068 361.516 Q212.674 356.863 213.855 355.52 Q216.1 352.997 216.98 351.261 Q217.883 349.502 217.883 347.812 Q217.883 345.057 215.938 343.321 Q214.017 341.585 210.915 341.585 Q208.716 341.585 206.262 342.349 Q203.832 343.113 201.054 344.664 L201.054 339.942 Q203.878 338.807 206.332 338.229 Q208.785 337.65 210.823 337.65 Q216.193 337.65 219.387 340.335 Q222.582 343.02 222.582 347.511 Q222.582 349.641 221.772 351.562 Q220.984 353.46 218.878 356.053 Q218.299 356.724 215.197 359.941 Q212.096 363.136 206.448 368.9 Z" fill="#000000" fill-rule="evenodd" fill-opacity="1" /><path clip-path="url(#clip880)" d="M242.582 341.354 Q238.97 341.354 237.142 344.918 Q235.336 348.46 235.336 355.59 Q235.336 362.696 237.142 366.261 Q238.97 369.802 242.582 369.802 Q246.216 369.802 248.021 366.261 Q249.85 362.696 249.85 355.59 Q249.85 348.46 248.021 344.918 Q246.216 341.354 242.582 341.354 M242.582 337.65 Q248.392 337.65 251.447 342.256 Q254.526 346.84 254.526 355.59 Q254.526 364.316 251.447 368.923 Q248.392 373.506 242.582 373.506 Q236.771 373.506 233.693 368.923 Q230.637 364.316 230.637 355.59 Q230.637 346.84 233.693 342.256 Q236.771 337.65 242.582 337.65 Z" fill="#000000" fill-rule="evenodd" fill-opacity="1" /><path clip-path="url(#clip880)" d="M168.184 92.7327 Q164.573 92.7327 162.744 96.2975 Q160.939 99.8392 160.939 106.969 Q160.939 114.075 162.744 117.64 Q164.573 121.182 168.184 121.182 Q171.818 121.182 173.624 117.64 Q175.452 114.075 175.452 106.969 Q175.452 99.8392 173.624 96.2975 Q171.818 92.7327 168.184 92.7327 M168.184 89.029 Q173.994 89.029 177.05 93.6355 Q180.128 98.2188 180.128 106.969 Q180.128 115.696 177.05 120.302 Q173.994 124.885 168.184 124.885 Q162.374 124.885 159.295 120.302 Q156.239 115.696 156.239 106.969 Q156.239 98.2188 159.295 93.6355 Q162.374 89.029 168.184 89.029 Z" fill="#000000" fill-rule="evenodd" fill-opacity="1" /><path clip-path="url(#clip880)" d="M188.346 118.334 L193.23 118.334 L193.23 124.214 L188.346 124.214 L188.346 118.334 Z" fill="#000000" fill-rule="evenodd" fill-opacity="1" /><path clip-path="url(#clip880)" d="M207.443 120.279 L223.762 120.279 L223.762 124.214 L201.818 124.214 L201.818 120.279 Q204.48 117.524 209.063 112.895 Q213.67 108.242 214.85 106.899 Q217.096 104.376 217.975 102.64 Q218.878 100.881 218.878 99.191 Q218.878 96.4364 216.934 94.7003 Q215.012 92.9642 211.91 92.9642 Q209.711 92.9642 207.258 93.7281 Q204.827 94.492 202.049 96.0429 L202.049 91.3207 Q204.873 90.1864 207.327 89.6077 Q209.781 89.029 211.818 89.029 Q217.188 89.029 220.383 91.7142 Q223.577 94.3994 223.577 98.8901 Q223.577 101.02 222.767 102.941 Q221.98 104.839 219.873 107.432 Q219.295 108.103 216.193 111.321 Q213.091 114.515 207.443 120.279 Z" fill="#000000" fill-rule="evenodd" fill-opacity="1" /><path clip-path="url(#clip880)" d="M233.623 89.654 L251.98 89.654 L251.98 93.5892 L237.906 93.5892 L237.906 102.061 Q238.924 101.714 239.943 101.552 Q240.961 101.367 241.98 101.367 Q247.767 101.367 251.146 104.538 Q254.526 107.709 254.526 113.126 Q254.526 118.705 251.054 121.807 Q247.582 124.885 241.262 124.885 Q239.086 124.885 236.818 124.515 Q234.572 124.145 232.165 123.404 L232.165 118.705 Q234.248 119.839 236.471 120.395 Q238.693 120.95 241.17 120.95 Q245.174 120.95 247.512 118.844 Q249.85 116.737 249.85 113.126 Q249.85 109.515 247.512 107.409 Q245.174 105.302 241.17 105.302 Q239.295 105.302 237.42 105.719 Q235.568 106.135 233.623 107.015 L233.623 89.654 Z" fill="#000000" fill-rule="evenodd" fill-opacity="1" /><polyline clip-path="url(#clip882)" style="stroke:#009af9; stroke-linecap:butt; stroke-linejoin:round; stroke-width:4; stroke-opacity:1; fill:none" points="
  348.891,1337.77 367.89,1336.52 543.567,1316.96 649.142,1293.67 738.404,1262.03 786.885,1238.27 835.367,1208.49 880.063,1174.6 924.759,1133.4 972.677,1079.83 
  1020.6,1015.24 1048.36,972.352 1076.11,925.286 1103.87,874.014 1131.63,818.631 1230.31,593.995 1316.84,383.602 1340.43,329.692 1364.01,279.251 1387.6,233.405 
  1411.18,193.253 1434.91,159.643 1458.63,133.744 1482.36,116.285 1506.08,107.772 1532.32,109.066 1558.55,121.549 1584.78,144.773 1611.01,177.927 1635.97,217.671 
  1660.93,264.233 1685.89,316.334 1710.84,372.643 1762.75,497.56 1814.65,624.434 1858.34,726.694 1902.03,821.278 1955.37,923.7 2008.71,1010.7 2058.86,1078.79 
  2109,1134.79 2149.17,1171.95 2189.33,1203.13 2229.5,1229.17 2269.67,1250.79 2275.85,1253.78 2282.03,1256.67 2288.21,1259.48 2294.39,1262.21 
  "/>
<circle clip-path="url(#clip882)" cx="543.441" cy="1310.97" r="14" fill="#e26f46" fill-rule="evenodd" fill-opacity="1" stroke="#000000" stroke-opacity="1" stroke-width="3.2"/>
<circle clip-path="url(#clip882)" cx="562.896" cy="1291.72" r="14" fill="#e26f46" fill-rule="evenodd" fill-opacity="1" stroke="#000000" stroke-opacity="1" stroke-width="3.2"/>
<circle clip-path="url(#clip882)" cx="582.351" cy="1283.99" r="14" fill="#e26f46" fill-rule="evenodd" fill-opacity="1" stroke="#000000" stroke-opacity="1" stroke-width="3.2"/>
<circle clip-path="url(#clip882)" cx="601.806" cy="1268.51" r="14" fill="#e26f46" fill-rule="evenodd" fill-opacity="1" stroke="#000000" stroke-opacity="1" stroke-width="3.2"/>
<circle clip-path="url(#clip882)" cx="621.261" cy="1237.28" r="14" fill="#e26f46" fill-rule="evenodd" fill-opacity="1" stroke="#000000" stroke-opacity="1" stroke-width="3.2"/>
<circle clip-path="url(#clip882)" cx="640.716" cy="1235.74" r="14" fill="#e26f46" fill-rule="evenodd" fill-opacity="1" stroke="#000000" stroke-opacity="1" stroke-width="3.2"/>
<circle clip-path="url(#clip882)" cx="660.171" cy="1215.62" r="14" fill="#e26f46" fill-rule="evenodd" fill-opacity="1" stroke="#000000" stroke-opacity="1" stroke-width="3.2"/>
<circle clip-path="url(#clip882)" cx="679.626" cy="1211.67" r="14" fill="#e26f46" fill-rule="evenodd" fill-opacity="1" stroke="#000000" stroke-opacity="1" stroke-width="3.2"/>
<circle clip-path="url(#clip882)" cx="699.081" cy="1234.13" r="14" fill="#e26f46" fill-rule="evenodd" fill-opacity="1" stroke="#000000" stroke-opacity="1" stroke-width="3.2"/>
<circle clip-path="url(#clip882)" cx="718.536" cy="1264.68" r="14" fill="#e26f46" fill-rule="evenodd" fill-opacity="1" stroke="#000000" stroke-opacity="1" stroke-width="3.2"/>
<circle clip-path="url(#clip882)" cx="737.991" cy="1287.57" r="14" fill="#e26f46" fill-rule="evenodd" fill-opacity="1" stroke="#000000" stroke-opacity="1" stroke-width="3.2"/>
<circle clip-path="url(#clip882)" cx="757.446" cy="1326.15" r="14" fill="#e26f46" fill-rule="evenodd" fill-opacity="1" stroke="#000000" stroke-opacity="1" stroke-width="3.2"/>
<circle clip-path="url(#clip882)" cx="776.901" cy="1340.19" r="14" fill="#e26f46" fill-rule="evenodd" fill-opacity="1" stroke="#000000" stroke-opacity="1" stroke-width="3.2"/>
<circle clip-path="url(#clip882)" cx="796.356" cy="1344.41" r="14" fill="#e26f46" fill-rule="evenodd" fill-opacity="1" stroke="#000000" stroke-opacity="1" stroke-width="3.2"/>
<circle clip-path="url(#clip882)" cx="815.811" cy="1292.02" r="14" fill="#e26f46" fill-rule="evenodd" fill-opacity="1" stroke="#000000" stroke-opacity="1" stroke-width="3.2"/>
<circle clip-path="url(#clip882)" cx="835.266" cy="1225.39" r="14" fill="#e26f46" fill-rule="evenodd" fill-opacity="1" stroke="#000000" stroke-opacity="1" stroke-width="3.2"/>
<circle clip-path="url(#clip882)" cx="854.721" cy="1183.04" r="14" fill="#e26f46" fill-rule="evenodd" fill-opacity="1" stroke="#000000" stroke-opacity="1" stroke-width="3.2"/>
<circle clip-path="url(#clip882)" cx="874.176" cy="1118.59" r="14" fill="#e26f46" fill-rule="evenodd" fill-opacity="1" stroke="#000000" stroke-opacity="1" stroke-width="3.2"/>
<circle clip-path="url(#clip882)" cx="893.631" cy="1102.06" r="14" fill="#e26f46" fill-rule="evenodd" fill-opacity="1" stroke="#000000" stroke-opacity="1" stroke-width="3.2"/>
<circle clip-path="url(#clip882)" cx="913.086" cy="1094.84" r="14" fill="#e26f46" fill-rule="evenodd" fill-opacity="1" stroke="#000000" stroke-opacity="1" stroke-width="3.2"/>
<circle clip-path="url(#clip882)" cx="932.541" cy="1079.54" r="14" fill="#e26f46" fill-rule="evenodd" fill-opacity="1" stroke="#000000" stroke-opacity="1" stroke-width="3.2"/>
<circle clip-path="url(#clip882)" cx="951.996" cy="1091.14" r="14" fill="#e26f46" fill-rule="evenodd" fill-opacity="1" stroke="#000000" stroke-opacity="1" stroke-width="3.2"/>
<circle clip-path="url(#clip882)" cx="971.451" cy="1114.98" r="14" fill="#e26f46" fill-rule="evenodd" fill-opacity="1" stroke="#000000" stroke-opacity="1" stroke-width="3.2"/>
<circle clip-path="url(#clip882)" cx="990.906" cy="1128.12" r="14" fill="#e26f46" fill-rule="evenodd" fill-opacity="1" stroke="#000000" stroke-opacity="1" stroke-width="3.2"/>
<circle clip-path="url(#clip882)" cx="1010.36" cy="1104.94" r="14" fill="#e26f46" fill-rule="evenodd" fill-opacity="1" stroke="#000000" stroke-opacity="1" stroke-width="3.2"/>
<circle clip-path="url(#clip882)" cx="1029.82" cy="1046.38" r="14" fill="#e26f46" fill-rule="evenodd" fill-opacity="1" stroke="#000000" stroke-opacity="1" stroke-width="3.2"/>
<circle clip-path="url(#clip882)" cx="1049.27" cy="971.3" r="14" fill="#e26f46" fill-rule="evenodd" fill-opacity="1" stroke="#000000" stroke-opacity="1" stroke-width="3.2"/>
<circle clip-path="url(#clip882)" cx="1068.73" cy="896.303" r="14" fill="#e26f46" fill-rule="evenodd" fill-opacity="1" stroke="#000000" stroke-opacity="1" stroke-width="3.2"/>
<circle clip-path="url(#clip882)" cx="1088.18" cy="812.436" r="14" fill="#e26f46" fill-rule="evenodd" fill-opacity="1" stroke="#000000" stroke-opacity="1" stroke-width="3.2"/>
<circle clip-path="url(#clip882)" cx="1107.64" cy="748.222" r="14" fill="#e26f46" fill-rule="evenodd" fill-opacity="1" stroke="#000000" stroke-opacity="1" stroke-width="3.2"/>
<circle clip-path="url(#clip882)" cx="1127.09" cy="701.41" r="14" fill="#e26f46" fill-rule="evenodd" fill-opacity="1" stroke="#000000" stroke-opacity="1" stroke-width="3.2"/>
<circle clip-path="url(#clip882)" cx="1146.55" cy="693.739" r="14" fill="#e26f46" fill-rule="evenodd" fill-opacity="1" stroke="#000000" stroke-opacity="1" stroke-width="3.2"/>
<circle clip-path="url(#clip882)" cx="1166" cy="705.002" r="14" fill="#e26f46" fill-rule="evenodd" fill-opacity="1" stroke="#000000" stroke-opacity="1" stroke-width="3.2"/>
<circle clip-path="url(#clip882)" cx="1185.46" cy="718.976" r="14" fill="#e26f46" fill-rule="evenodd" fill-opacity="1" stroke="#000000" stroke-opacity="1" stroke-width="3.2"/>
<circle clip-path="url(#clip882)" cx="1204.91" cy="720.39" r="14" fill="#e26f46" fill-rule="evenodd" fill-opacity="1" stroke="#000000" stroke-opacity="1" stroke-width="3.2"/>
<circle clip-path="url(#clip882)" cx="1224.37" cy="684.046" r="14" fill="#e26f46" fill-rule="evenodd" fill-opacity="1" stroke="#000000" stroke-opacity="1" stroke-width="3.2"/>
<circle clip-path="url(#clip882)" cx="1243.82" cy="644.618" r="14" fill="#e26f46" fill-rule="evenodd" fill-opacity="1" stroke="#000000" stroke-opacity="1" stroke-width="3.2"/>
<circle clip-path="url(#clip882)" cx="1263.28" cy="570.164" r="14" fill="#e26f46" fill-rule="evenodd" fill-opacity="1" stroke="#000000" stroke-opacity="1" stroke-width="3.2"/>
<circle clip-path="url(#clip882)" cx="1282.73" cy="496.03" r="14" fill="#e26f46" fill-rule="evenodd" fill-opacity="1" stroke="#000000" stroke-opacity="1" stroke-width="3.2"/>
<circle clip-path="url(#clip882)" cx="1302.19" cy="437.396" r="14" fill="#e26f46" fill-rule="evenodd" fill-opacity="1" stroke="#000000" stroke-opacity="1" stroke-width="3.2"/>
<circle clip-path="url(#clip882)" cx="1321.64" cy="403.629" r="14" fill="#e26f46" fill-rule="evenodd" fill-opacity="1" stroke="#000000" stroke-opacity="1" stroke-width="3.2"/>
<circle clip-path="url(#clip882)" cx="1341.1" cy="371.107" r="14" fill="#e26f46" fill-rule="evenodd" fill-opacity="1" stroke="#000000" stroke-opacity="1" stroke-width="3.2"/>
<circle clip-path="url(#clip882)" cx="1360.55" cy="346.293" r="14" fill="#e26f46" fill-rule="evenodd" fill-opacity="1" stroke="#000000" stroke-opacity="1" stroke-width="3.2"/>
<circle clip-path="url(#clip882)" cx="1380.01" cy="305.974" r="14" fill="#e26f46" fill-rule="evenodd" fill-opacity="1" stroke="#000000" stroke-opacity="1" stroke-width="3.2"/>
<circle clip-path="url(#clip882)" cx="1399.46" cy="271.835" r="14" fill="#e26f46" fill-rule="evenodd" fill-opacity="1" stroke="#000000" stroke-opacity="1" stroke-width="3.2"/>
<circle clip-path="url(#clip882)" cx="1418.92" cy="229.508" r="14" fill="#e26f46" fill-rule="evenodd" fill-opacity="1" stroke="#000000" stroke-opacity="1" stroke-width="3.2"/>
<circle clip-path="url(#clip882)" cx="1438.37" cy="187.928" r="14" fill="#e26f46" fill-rule="evenodd" fill-opacity="1" stroke="#000000" stroke-opacity="1" stroke-width="3.2"/>
<circle clip-path="url(#clip882)" cx="1457.83" cy="157.568" r="14" fill="#e26f46" fill-rule="evenodd" fill-opacity="1" stroke="#000000" stroke-opacity="1" stroke-width="3.2"/>
<circle clip-path="url(#clip882)" cx="1477.28" cy="105.674" r="14" fill="#e26f46" fill-rule="evenodd" fill-opacity="1" stroke="#000000" stroke-opacity="1" stroke-width="3.2"/>
<circle clip-path="url(#clip882)" cx="1496.74" cy="85.0257" r="14" fill="#e26f46" fill-rule="evenodd" fill-opacity="1" stroke="#000000" stroke-opacity="1" stroke-width="3.2"/>
<circle clip-path="url(#clip882)" cx="1516.19" cy="99.5097" r="14" fill="#e26f46" fill-rule="evenodd" fill-opacity="1" stroke="#000000" stroke-opacity="1" stroke-width="3.2"/>
<circle clip-path="url(#clip882)" cx="1535.65" cy="120.844" r="14" fill="#e26f46" fill-rule="evenodd" fill-opacity="1" stroke="#000000" stroke-opacity="1" stroke-width="3.2"/>
<circle clip-path="url(#clip882)" cx="1555.1" cy="136.038" r="14" fill="#e26f46" fill-rule="evenodd" fill-opacity="1" stroke="#000000" stroke-opacity="1" stroke-width="3.2"/>
<circle clip-path="url(#clip882)" cx="1574.56" cy="146.504" r="14" fill="#e26f46" fill-rule="evenodd" fill-opacity="1" stroke="#000000" stroke-opacity="1" stroke-width="3.2"/>
<circle clip-path="url(#clip882)" cx="1594.01" cy="156.407" r="14" fill="#e26f46" fill-rule="evenodd" fill-opacity="1" stroke="#000000" stroke-opacity="1" stroke-width="3.2"/>
<circle clip-path="url(#clip882)" cx="1613.47" cy="146.256" r="14" fill="#e26f46" fill-rule="evenodd" fill-opacity="1" stroke="#000000" stroke-opacity="1" stroke-width="3.2"/>
<circle clip-path="url(#clip882)" cx="1632.92" cy="160.911" r="14" fill="#e26f46" fill-rule="evenodd" fill-opacity="1" stroke="#000000" stroke-opacity="1" stroke-width="3.2"/>
<circle clip-path="url(#clip882)" cx="1652.38" cy="175.285" r="14" fill="#e26f46" fill-rule="evenodd" fill-opacity="1" stroke="#000000" stroke-opacity="1" stroke-width="3.2"/>
<circle clip-path="url(#clip882)" cx="1671.83" cy="207.066" r="14" fill="#e26f46" fill-rule="evenodd" fill-opacity="1" stroke="#000000" stroke-opacity="1" stroke-width="3.2"/>
<circle clip-path="url(#clip882)" cx="1691.29" cy="263.219" r="14" fill="#e26f46" fill-rule="evenodd" fill-opacity="1" stroke="#000000" stroke-opacity="1" stroke-width="3.2"/>
<circle clip-path="url(#clip882)" cx="1710.74" cy="331.527" r="14" fill="#e26f46" fill-rule="evenodd" fill-opacity="1" stroke="#000000" stroke-opacity="1" stroke-width="3.2"/>
<circle clip-path="url(#clip882)" cx="1730.2" cy="409.152" r="14" fill="#e26f46" fill-rule="evenodd" fill-opacity="1" stroke="#000000" stroke-opacity="1" stroke-width="3.2"/>
<circle clip-path="url(#clip882)" cx="1749.65" cy="494.795" r="14" fill="#e26f46" fill-rule="evenodd" fill-opacity="1" stroke="#000000" stroke-opacity="1" stroke-width="3.2"/>
<circle clip-path="url(#clip882)" cx="1769.11" cy="565.475" r="14" fill="#e26f46" fill-rule="evenodd" fill-opacity="1" stroke="#000000" stroke-opacity="1" stroke-width="3.2"/>
<circle clip-path="url(#clip882)" cx="1788.56" cy="605.1" r="14" fill="#e26f46" fill-rule="evenodd" fill-opacity="1" stroke="#000000" stroke-opacity="1" stroke-width="3.2"/>
<circle clip-path="url(#clip882)" cx="1808.02" cy="633.055" r="14" fill="#e26f46" fill-rule="evenodd" fill-opacity="1" stroke="#000000" stroke-opacity="1" stroke-width="3.2"/>
<circle clip-path="url(#clip882)" cx="1827.47" cy="634.946" r="14" fill="#e26f46" fill-rule="evenodd" fill-opacity="1" stroke="#000000" stroke-opacity="1" stroke-width="3.2"/>
<circle clip-path="url(#clip882)" cx="1846.93" cy="667.423" r="14" fill="#e26f46" fill-rule="evenodd" fill-opacity="1" stroke="#000000" stroke-opacity="1" stroke-width="3.2"/>
<circle clip-path="url(#clip882)" cx="1866.38" cy="693.31" r="14" fill="#e26f46" fill-rule="evenodd" fill-opacity="1" stroke="#000000" stroke-opacity="1" stroke-width="3.2"/>
<circle clip-path="url(#clip882)" cx="1885.84" cy="747.066" r="14" fill="#e26f46" fill-rule="evenodd" fill-opacity="1" stroke="#000000" stroke-opacity="1" stroke-width="3.2"/>
<circle clip-path="url(#clip882)" cx="1905.29" cy="790.611" r="14" fill="#e26f46" fill-rule="evenodd" fill-opacity="1" stroke="#000000" stroke-opacity="1" stroke-width="3.2"/>
<circle clip-path="url(#clip882)" cx="1924.75" cy="850.04" r="14" fill="#e26f46" fill-rule="evenodd" fill-opacity="1" stroke="#000000" stroke-opacity="1" stroke-width="3.2"/>
<circle clip-path="url(#clip882)" cx="1944.2" cy="924.126" r="14" fill="#e26f46" fill-rule="evenodd" fill-opacity="1" stroke="#000000" stroke-opacity="1" stroke-width="3.2"/>
<circle clip-path="url(#clip882)" cx="1963.66" cy="986.883" r="14" fill="#e26f46" fill-rule="evenodd" fill-opacity="1" stroke="#000000" stroke-opacity="1" stroke-width="3.2"/>
<circle clip-path="url(#clip882)" cx="1983.11" cy="1023.56" r="14" fill="#e26f46" fill-rule="evenodd" fill-opacity="1" stroke="#000000" stroke-opacity="1" stroke-width="3.2"/>
<circle clip-path="url(#clip882)" cx="2002.57" cy="1061" r="14" fill="#e26f46" fill-rule="evenodd" fill-opacity="1" stroke="#000000" stroke-opacity="1" stroke-width="3.2"/>
<circle clip-path="url(#clip882)" cx="2022.02" cy="1097.92" r="14" fill="#e26f46" fill-rule="evenodd" fill-opacity="1" stroke="#000000" stroke-opacity="1" stroke-width="3.2"/>
<circle clip-path="url(#clip882)" cx="2041.48" cy="1138.55" r="14" fill="#e26f46" fill-rule="evenodd" fill-opacity="1" stroke="#000000" stroke-opacity="1" stroke-width="3.2"/>
<circle clip-path="url(#clip882)" cx="2060.93" cy="1199.61" r="14" fill="#e26f46" fill-rule="evenodd" fill-opacity="1" stroke="#000000" stroke-opacity="1" stroke-width="3.2"/>
<circle clip-path="url(#clip882)" cx="2080.39" cy="1257.92" r="14" fill="#e26f46" fill-rule="evenodd" fill-opacity="1" stroke="#000000" stroke-opacity="1" stroke-width="3.2"/>
<circle clip-path="url(#clip882)" cx="2099.84" cy="1309.92" r="14" fill="#e26f46" fill-rule="evenodd" fill-opacity="1" stroke="#000000" stroke-opacity="1" stroke-width="3.2"/>
<path clip-path="url(#clip880)" d="
M359.267 247.262 L1322.15 247.262 L1322.15 91.7425 L359.267 91.7425  Z
  " fill="#ffffff" fill-rule="evenodd" fill-opacity="1"/>
<polyline clip-path="url(#clip880)" style="stroke:#000000; stroke-linecap:butt; stroke-linejoin:round; stroke-width:4; stroke-opacity:1; fill:none" points="
  359.267,247.262 1322.15,247.262 1322.15,91.7425 359.267,91.7425 359.267,247.262 
  "/>
<polyline clip-path="url(#clip880)" style="stroke:#009af9; stroke-linecap:butt; stroke-linejoin:round; stroke-width:4; stroke-opacity:1; fill:none" points="
  382.181,143.582 519.663,143.582 
  "/>
<path clip-path="url(#clip880)" d="M549.984 127.576 L549.984 134.937 L558.757 134.937 L558.757 138.247 L549.984 138.247 L549.984 152.321 Q549.984 155.492 550.84 156.395 Q551.72 157.298 554.382 157.298 L558.757 157.298 L558.757 160.862 L554.382 160.862 Q549.451 160.862 547.576 159.034 Q545.701 157.182 545.701 152.321 L545.701 138.247 L542.576 138.247 L542.576 134.937 L545.701 134.937 L545.701 127.576 L549.984 127.576 Z" fill="#000000" fill-rule="evenodd" fill-opacity="1" /><path clip-path="url(#clip880)" d="M585.909 145.214 L585.909 160.862 L581.65 160.862 L581.65 145.353 Q581.65 141.673 580.215 139.844 Q578.78 138.015 575.909 138.015 Q572.46 138.015 570.47 140.214 Q568.479 142.414 568.479 146.21 L568.479 160.862 L564.197 160.862 L564.197 124.844 L568.479 124.844 L568.479 138.964 Q570.007 136.627 572.067 135.469 Q574.15 134.312 576.859 134.312 Q581.326 134.312 583.618 137.089 Q585.909 139.844 585.909 145.214 Z" fill="#000000" fill-rule="evenodd" fill-opacity="1" /><path clip-path="url(#clip880)" d="M616.581 146.835 L616.581 148.918 L596.997 148.918 Q597.275 153.316 599.636 155.631 Q602.02 157.923 606.257 157.923 Q608.71 157.923 611.002 157.321 Q613.317 156.719 615.585 155.515 L615.585 159.543 Q613.294 160.515 610.886 161.025 Q608.479 161.534 606.002 161.534 Q599.798 161.534 596.164 157.923 Q592.553 154.312 592.553 148.154 Q592.553 141.789 595.979 138.062 Q599.428 134.312 605.261 134.312 Q610.493 134.312 613.525 137.691 Q616.581 141.048 616.581 146.835 M612.321 145.585 Q612.275 142.089 610.354 140.006 Q608.456 137.923 605.307 137.923 Q601.743 137.923 599.59 139.937 Q597.46 141.951 597.136 145.608 L612.321 145.585 Z" fill="#000000" fill-rule="evenodd" fill-opacity="1" /><path clip-path="url(#clip880)" d="M633.617 137.923 Q630.192 137.923 628.201 140.608 Q626.21 143.27 626.21 147.923 Q626.21 152.575 628.178 155.261 Q630.168 157.923 633.617 157.923 Q637.02 157.923 639.011 155.238 Q641.002 152.552 641.002 147.923 Q641.002 143.316 639.011 140.631 Q637.02 137.923 633.617 137.923 M633.617 134.312 Q639.173 134.312 642.344 137.923 Q645.516 141.534 645.516 147.923 Q645.516 154.288 642.344 157.923 Q639.173 161.534 633.617 161.534 Q628.039 161.534 624.868 157.923 Q621.719 154.288 621.719 147.923 Q621.719 141.534 624.868 137.923 Q628.039 134.312 633.617 134.312 Z" fill="#000000" fill-rule="evenodd" fill-opacity="1" /><path clip-path="url(#clip880)" d="M667.599 138.918 Q666.881 138.501 666.025 138.316 Q665.191 138.108 664.173 138.108 Q660.562 138.108 658.617 140.469 Q656.696 142.807 656.696 147.205 L656.696 160.862 L652.414 160.862 L652.414 134.937 L656.696 134.937 L656.696 138.964 Q658.039 136.603 660.191 135.469 Q662.344 134.312 665.423 134.312 Q665.863 134.312 666.395 134.381 Q666.927 134.427 667.576 134.543 L667.599 138.918 Z" fill="#000000" fill-rule="evenodd" fill-opacity="1" /><path clip-path="url(#clip880)" d="M693.2 146.835 L693.2 148.918 L673.617 148.918 Q673.895 153.316 676.256 155.631 Q678.64 157.923 682.876 157.923 Q685.33 157.923 687.622 157.321 Q689.937 156.719 692.205 155.515 L692.205 159.543 Q689.913 160.515 687.506 161.025 Q685.099 161.534 682.622 161.534 Q676.418 161.534 672.784 157.923 Q669.173 154.312 669.173 148.154 Q669.173 141.789 672.599 138.062 Q676.048 134.312 681.881 134.312 Q687.113 134.312 690.145 137.691 Q693.2 141.048 693.2 146.835 M688.941 145.585 Q688.895 142.089 686.974 140.006 Q685.076 137.923 681.927 137.923 Q678.363 137.923 676.21 139.937 Q674.08 141.951 673.756 145.608 L688.941 145.585 Z" fill="#000000" fill-rule="evenodd" fill-opacity="1" /><path clip-path="url(#clip880)" d="M704.404 127.576 L704.404 134.937 L713.177 134.937 L713.177 138.247 L704.404 138.247 L704.404 152.321 Q704.404 155.492 705.261 156.395 Q706.14 157.298 708.802 157.298 L713.177 157.298 L713.177 160.862 L708.802 160.862 Q703.872 160.862 701.997 159.034 Q700.122 157.182 700.122 152.321 L700.122 138.247 L696.997 138.247 L696.997 134.937 L700.122 134.937 L700.122 127.576 L704.404 127.576 Z" fill="#000000" fill-rule="evenodd" fill-opacity="1" /><path clip-path="url(#clip880)" d="M718.779 134.937 L723.038 134.937 L723.038 160.862 L718.779 160.862 L718.779 134.937 M718.779 124.844 L723.038 124.844 L723.038 130.238 L718.779 130.238 L718.779 124.844 Z" fill="#000000" fill-rule="evenodd" fill-opacity="1" /><path clip-path="url(#clip880)" d="M750.608 135.932 L750.608 139.914 Q748.802 138.918 746.973 138.432 Q745.168 137.923 743.316 137.923 Q739.172 137.923 736.881 140.562 Q734.589 143.177 734.589 147.923 Q734.589 152.668 736.881 155.307 Q739.172 157.923 743.316 157.923 Q745.168 157.923 746.973 157.437 Q748.802 156.927 750.608 155.932 L750.608 159.867 Q748.825 160.7 746.904 161.117 Q745.006 161.534 742.853 161.534 Q736.997 161.534 733.547 157.853 Q730.098 154.173 730.098 147.923 Q730.098 141.58 733.571 137.946 Q737.066 134.312 743.131 134.312 Q745.098 134.312 746.973 134.728 Q748.848 135.122 750.608 135.932 Z" fill="#000000" fill-rule="evenodd" fill-opacity="1" /><path clip-path="url(#clip880)" d="M769.797 147.83 Q764.635 147.83 762.645 149.011 Q760.654 150.191 760.654 153.038 Q760.654 155.307 762.135 156.65 Q763.64 157.969 766.209 157.969 Q769.751 157.969 771.881 155.469 Q774.033 152.946 774.033 148.779 L774.033 147.83 L769.797 147.83 M778.293 146.071 L778.293 160.862 L774.033 160.862 L774.033 156.927 Q772.575 159.288 770.399 160.423 Q768.223 161.534 765.075 161.534 Q761.094 161.534 758.733 159.312 Q756.395 157.066 756.395 153.316 Q756.395 148.941 759.311 146.719 Q762.251 144.497 768.061 144.497 L774.033 144.497 L774.033 144.08 Q774.033 141.14 772.089 139.543 Q770.168 137.923 766.672 137.923 Q764.45 137.923 762.344 138.455 Q760.237 138.988 758.293 140.052 L758.293 136.117 Q760.631 135.214 762.83 134.775 Q765.029 134.312 767.112 134.312 Q772.737 134.312 775.515 137.228 Q778.293 140.145 778.293 146.071 Z" fill="#000000" fill-rule="evenodd" fill-opacity="1" /><path clip-path="url(#clip880)" d="M787.066 124.844 L791.325 124.844 L791.325 160.862 L787.066 160.862 L787.066 124.844 Z" fill="#000000" fill-rule="evenodd" fill-opacity="1" /><path clip-path="url(#clip880)" d="M816.718 156.927 L824.357 156.927 L824.357 130.562 L816.047 132.228 L816.047 127.969 L824.311 126.302 L828.987 126.302 L828.987 156.927 L836.626 156.927 L836.626 160.862 L816.718 160.862 L816.718 156.927 Z" fill="#000000" fill-rule="evenodd" fill-opacity="1" /><path clip-path="url(#clip880)" d="M861.996 135.701 L861.996 139.728 Q860.19 138.802 858.246 138.339 Q856.301 137.877 854.218 137.877 Q851.047 137.877 849.45 138.849 Q847.876 139.821 847.876 141.765 Q847.876 143.247 849.01 144.103 Q850.144 144.937 853.57 145.701 L855.028 146.025 Q859.565 146.997 861.463 148.779 Q863.385 150.538 863.385 153.71 Q863.385 157.321 860.514 159.427 Q857.667 161.534 852.667 161.534 Q850.584 161.534 848.315 161.117 Q846.07 160.724 843.57 159.913 L843.57 155.515 Q845.931 156.742 848.223 157.367 Q850.514 157.969 852.76 157.969 Q855.769 157.969 857.389 156.95 Q859.01 155.909 859.01 154.034 Q859.01 152.298 857.829 151.372 Q856.672 150.446 852.714 149.589 L851.232 149.242 Q847.274 148.409 845.514 146.696 Q843.755 144.96 843.755 141.951 Q843.755 138.293 846.348 136.302 Q848.94 134.312 853.709 134.312 Q856.07 134.312 858.153 134.659 Q860.237 135.006 861.996 135.701 Z" fill="#000000" fill-rule="evenodd" fill-opacity="1" /><path clip-path="url(#clip880)" d="M874.38 127.576 L874.38 134.937 L883.153 134.937 L883.153 138.247 L874.38 138.247 L874.38 152.321 Q874.38 155.492 875.237 156.395 Q876.116 157.298 878.778 157.298 L883.153 157.298 L883.153 160.862 L878.778 160.862 Q873.848 160.862 871.973 159.034 Q870.098 157.182 870.098 152.321 L870.098 138.247 L866.973 138.247 L866.973 134.937 L870.098 134.937 L870.098 127.576 L874.38 127.576 Z" fill="#000000" fill-rule="evenodd" fill-opacity="1" /><path clip-path="url(#clip880)" d="M913.871 137.923 Q910.445 137.923 908.454 140.608 Q906.463 143.27 906.463 147.923 Q906.463 152.575 908.431 155.261 Q910.422 157.923 913.871 157.923 Q917.273 157.923 919.264 155.238 Q921.255 152.552 921.255 147.923 Q921.255 143.316 919.264 140.631 Q917.273 137.923 913.871 137.923 M913.871 134.312 Q919.426 134.312 922.597 137.923 Q925.769 141.534 925.769 147.923 Q925.769 154.288 922.597 157.923 Q919.426 161.534 913.871 161.534 Q908.292 161.534 905.121 157.923 Q901.973 154.288 901.973 147.923 Q901.973 141.534 905.121 137.923 Q908.292 134.312 913.871 134.312 Z" fill="#000000" fill-rule="evenodd" fill-opacity="1" /><path clip-path="url(#clip880)" d="M947.852 138.918 Q947.134 138.501 946.278 138.316 Q945.445 138.108 944.426 138.108 Q940.815 138.108 938.87 140.469 Q936.949 142.807 936.949 147.205 L936.949 160.862 L932.667 160.862 L932.667 134.937 L936.949 134.937 L936.949 138.964 Q938.292 136.603 940.445 135.469 Q942.597 134.312 945.676 134.312 Q946.116 134.312 946.648 134.381 Q947.181 134.427 947.829 134.543 L947.852 138.918 Z" fill="#000000" fill-rule="evenodd" fill-opacity="1" /><path clip-path="url(#clip880)" d="M968.546 138.872 L968.546 124.844 L972.805 124.844 L972.805 160.862 L968.546 160.862 L968.546 156.974 Q967.204 159.288 965.143 160.423 Q963.106 161.534 960.236 161.534 Q955.537 161.534 952.574 157.784 Q949.634 154.034 949.634 147.923 Q949.634 141.812 952.574 138.062 Q955.537 134.312 960.236 134.312 Q963.106 134.312 965.143 135.446 Q967.204 136.557 968.546 138.872 M954.032 147.923 Q954.032 152.622 955.954 155.307 Q957.898 157.969 961.278 157.969 Q964.657 157.969 966.602 155.307 Q968.546 152.622 968.546 147.923 Q968.546 143.224 966.602 140.562 Q964.657 137.877 961.278 137.877 Q957.898 137.877 955.954 140.562 Q954.032 143.224 954.032 147.923 Z" fill="#000000" fill-rule="evenodd" fill-opacity="1" /><path clip-path="url(#clip880)" d="M1003.75 146.835 L1003.75 148.918 L984.171 148.918 Q984.449 153.316 986.81 155.631 Q989.194 157.923 993.43 157.923 Q995.884 157.923 998.176 157.321 Q1000.49 156.719 1002.76 155.515 L1002.76 159.543 Q1000.47 160.515 998.06 161.025 Q995.653 161.534 993.176 161.534 Q986.972 161.534 983.338 157.923 Q979.727 154.312 979.727 148.154 Q979.727 141.789 983.153 138.062 Q986.602 134.312 992.435 134.312 Q997.666 134.312 1000.7 137.691 Q1003.75 141.048 1003.75 146.835 M999.495 145.585 Q999.449 142.089 997.528 140.006 Q995.629 137.923 992.481 137.923 Q988.916 137.923 986.764 139.937 Q984.634 141.951 984.31 145.608 L999.495 145.585 Z" fill="#000000" fill-rule="evenodd" fill-opacity="1" /><path clip-path="url(#clip880)" d="M1025.77 138.918 Q1025.05 138.501 1024.19 138.316 Q1023.36 138.108 1022.34 138.108 Q1018.73 138.108 1016.79 140.469 Q1014.87 142.807 1014.87 147.205 L1014.87 160.862 L1010.58 160.862 L1010.58 134.937 L1014.87 134.937 L1014.87 138.964 Q1016.21 136.603 1018.36 135.469 Q1020.51 134.312 1023.59 134.312 Q1024.03 134.312 1024.56 134.381 Q1025.1 134.427 1025.75 134.543 L1025.77 138.918 Z" fill="#000000" fill-rule="evenodd" fill-opacity="1" /><path clip-path="url(#clip880)" d="M1062.37 138.872 L1062.37 124.844 L1066.62 124.844 L1066.62 160.862 L1062.37 160.862 L1062.37 156.974 Q1061.02 159.288 1058.96 160.423 Q1056.93 161.534 1054.06 161.534 Q1049.36 161.534 1046.39 157.784 Q1043.45 154.034 1043.45 147.923 Q1043.45 141.812 1046.39 138.062 Q1049.36 134.312 1054.06 134.312 Q1056.93 134.312 1058.96 135.446 Q1061.02 136.557 1062.37 138.872 M1047.85 147.923 Q1047.85 152.622 1049.77 155.307 Q1051.72 157.969 1055.1 157.969 Q1058.48 157.969 1060.42 155.307 Q1062.37 152.622 1062.37 147.923 Q1062.37 143.224 1060.42 140.562 Q1058.48 137.877 1055.1 137.877 Q1051.72 137.877 1049.77 140.562 Q1047.85 143.224 1047.85 147.923 Z" fill="#000000" fill-rule="evenodd" fill-opacity="1" /><path clip-path="url(#clip880)" d="M1097.57 146.835 L1097.57 148.918 L1077.99 148.918 Q1078.27 153.316 1080.63 155.631 Q1083.01 157.923 1087.25 157.923 Q1089.7 157.923 1091.99 157.321 Q1094.31 156.719 1096.58 155.515 L1096.58 159.543 Q1094.29 160.515 1091.88 161.025 Q1089.47 161.534 1086.99 161.534 Q1080.79 161.534 1077.16 157.923 Q1073.55 154.312 1073.55 148.154 Q1073.55 141.789 1076.97 138.062 Q1080.42 134.312 1086.25 134.312 Q1091.49 134.312 1094.52 137.691 Q1097.57 141.048 1097.57 146.835 M1093.31 145.585 Q1093.27 142.089 1091.35 140.006 Q1089.45 137.923 1086.3 137.923 Q1082.74 137.923 1080.58 139.937 Q1078.45 141.951 1078.13 145.608 L1093.31 145.585 Z" fill="#000000" fill-rule="evenodd" fill-opacity="1" /><path clip-path="url(#clip880)" d="M1119.59 138.918 Q1118.87 138.501 1118.01 138.316 Q1117.18 138.108 1116.16 138.108 Q1112.55 138.108 1110.61 140.469 Q1108.68 142.807 1108.68 147.205 L1108.68 160.862 L1104.4 160.862 L1104.4 134.937 L1108.68 134.937 L1108.68 138.964 Q1110.03 136.603 1112.18 135.469 Q1114.33 134.312 1117.41 134.312 Q1117.85 134.312 1118.38 134.381 Q1118.92 134.427 1119.56 134.543 L1119.59 138.918 Z" fill="#000000" fill-rule="evenodd" fill-opacity="1" /><path clip-path="url(#clip880)" d="M1124.05 134.937 L1128.31 134.937 L1128.31 160.862 L1124.05 160.862 L1124.05 134.937 M1124.05 124.844 L1128.31 124.844 L1128.31 130.238 L1124.05 130.238 L1124.05 124.844 Z" fill="#000000" fill-rule="evenodd" fill-opacity="1" /><path clip-path="url(#clip880)" d="M1134.17 134.937 L1138.68 134.937 L1146.79 156.696 L1154.89 134.937 L1159.4 134.937 L1149.68 160.862 L1143.89 160.862 L1134.17 134.937 Z" fill="#000000" fill-rule="evenodd" fill-opacity="1" /><path clip-path="url(#clip880)" d="M1177.06 147.83 Q1171.9 147.83 1169.91 149.011 Q1167.92 150.191 1167.92 153.038 Q1167.92 155.307 1169.4 156.65 Q1170.91 157.969 1173.48 157.969 Q1177.02 157.969 1179.15 155.469 Q1181.3 152.946 1181.3 148.779 L1181.3 147.83 L1177.06 147.83 M1185.56 146.071 L1185.56 160.862 L1181.3 160.862 L1181.3 156.927 Q1179.84 159.288 1177.67 160.423 Q1175.49 161.534 1172.34 161.534 Q1168.36 161.534 1166 159.312 Q1163.66 157.066 1163.66 153.316 Q1163.66 148.941 1166.58 146.719 Q1169.52 144.497 1175.33 144.497 L1181.3 144.497 L1181.3 144.08 Q1181.3 141.14 1179.36 139.543 Q1177.43 137.923 1173.94 137.923 Q1171.72 137.923 1169.61 138.455 Q1167.5 138.988 1165.56 140.052 L1165.56 136.117 Q1167.9 135.214 1170.1 134.775 Q1172.3 134.312 1174.38 134.312 Q1180 134.312 1182.78 137.228 Q1185.56 140.145 1185.56 146.071 Z" fill="#000000" fill-rule="evenodd" fill-opacity="1" /><path clip-path="url(#clip880)" d="M1198.55 127.576 L1198.55 134.937 L1207.32 134.937 L1207.32 138.247 L1198.55 138.247 L1198.55 152.321 Q1198.55 155.492 1199.4 156.395 Q1200.28 157.298 1202.94 157.298 L1207.32 157.298 L1207.32 160.862 L1202.94 160.862 Q1198.01 160.862 1196.14 159.034 Q1194.26 157.182 1194.26 152.321 L1194.26 138.247 L1191.14 138.247 L1191.14 134.937 L1194.26 134.937 L1194.26 127.576 L1198.55 127.576 Z" fill="#000000" fill-rule="evenodd" fill-opacity="1" /><path clip-path="url(#clip880)" d="M1212.92 134.937 L1217.18 134.937 L1217.18 160.862 L1212.92 160.862 L1212.92 134.937 M1212.92 124.844 L1217.18 124.844 L1217.18 130.238 L1212.92 130.238 L1212.92 124.844 Z" fill="#000000" fill-rule="evenodd" fill-opacity="1" /><path clip-path="url(#clip880)" d="M1223.04 134.937 L1227.55 134.937 L1235.65 156.696 L1243.75 134.937 L1248.27 134.937 L1238.54 160.862 L1232.76 160.862 L1223.04 134.937 Z" fill="#000000" fill-rule="evenodd" fill-opacity="1" /><path clip-path="url(#clip880)" d="M1276.32 146.835 L1276.32 148.918 L1256.74 148.918 Q1257.02 153.316 1259.38 155.631 Q1261.76 157.923 1266 157.923 Q1268.45 157.923 1270.74 157.321 Q1273.06 156.719 1275.33 155.515 L1275.33 159.543 Q1273.04 160.515 1270.63 161.025 Q1268.22 161.534 1265.74 161.534 Q1259.54 161.534 1255.91 157.923 Q1252.29 154.312 1252.29 148.154 Q1252.29 141.789 1255.72 138.062 Q1259.17 134.312 1265 134.312 Q1270.23 134.312 1273.27 137.691 Q1276.32 141.048 1276.32 146.835 M1272.06 145.585 Q1272.02 142.089 1270.1 140.006 Q1268.2 137.923 1265.05 137.923 Q1261.48 137.923 1259.33 139.937 Q1257.2 141.951 1256.88 145.608 L1272.06 145.585 Z" fill="#000000" fill-rule="evenodd" fill-opacity="1" /><circle clip-path="url(#clip880)" cx="450.922" cy="195.422" r="23" fill="#e26f46" fill-rule="evenodd" fill-opacity="1" stroke="#000000" stroke-opacity="1" stroke-width="5.12"/>
<path clip-path="url(#clip880)" d="M561.002 187.541 L561.002 191.568 Q559.197 190.642 557.252 190.179 Q555.308 189.717 553.224 189.717 Q550.053 189.717 548.456 190.689 Q546.882 191.661 546.882 193.605 Q546.882 195.087 548.016 195.943 Q549.15 196.777 552.576 197.541 L554.035 197.865 Q558.572 198.837 560.47 200.619 Q562.391 202.378 562.391 205.55 Q562.391 209.161 559.521 211.267 Q556.673 213.374 551.673 213.374 Q549.59 213.374 547.322 212.957 Q545.076 212.564 542.576 211.753 L542.576 207.355 Q544.937 208.582 547.229 209.207 Q549.521 209.809 551.766 209.809 Q554.775 209.809 556.396 208.79 Q558.016 207.749 558.016 205.874 Q558.016 204.138 556.835 203.212 Q555.678 202.286 551.72 201.429 L550.238 201.082 Q546.28 200.249 544.521 198.536 Q542.761 196.8 542.761 193.791 Q542.761 190.133 545.354 188.142 Q547.947 186.152 552.715 186.152 Q555.076 186.152 557.16 186.499 Q559.243 186.846 561.002 187.541 Z" fill="#000000" fill-rule="evenodd" fill-opacity="1" /><path clip-path="url(#clip880)" d="M589.358 191.754 Q590.956 188.883 593.178 187.517 Q595.4 186.152 598.409 186.152 Q602.46 186.152 604.659 188.999 Q606.858 191.823 606.858 197.054 L606.858 212.702 L602.576 212.702 L602.576 197.193 Q602.576 193.466 601.257 191.661 Q599.937 189.855 597.229 189.855 Q593.919 189.855 591.997 192.054 Q590.076 194.254 590.076 198.05 L590.076 212.702 L585.794 212.702 L585.794 197.193 Q585.794 193.443 584.474 191.661 Q583.155 189.855 580.4 189.855 Q577.136 189.855 575.215 192.078 Q573.294 194.277 573.294 198.05 L573.294 212.702 L569.011 212.702 L569.011 186.777 L573.294 186.777 L573.294 190.804 Q574.752 188.42 576.789 187.286 Q578.826 186.152 581.627 186.152 Q584.451 186.152 586.419 187.587 Q588.409 189.022 589.358 191.754 Z" fill="#000000" fill-rule="evenodd" fill-opacity="1" /><path clip-path="url(#clip880)" d="M625.4 189.763 Q621.974 189.763 619.983 192.448 Q617.993 195.11 617.993 199.763 Q617.993 204.415 619.96 207.101 Q621.951 209.763 625.4 209.763 Q628.803 209.763 630.793 207.078 Q632.784 204.392 632.784 199.763 Q632.784 195.156 630.793 192.471 Q628.803 189.763 625.4 189.763 M625.4 186.152 Q630.955 186.152 634.127 189.763 Q637.298 193.374 637.298 199.763 Q637.298 206.128 634.127 209.763 Q630.955 213.374 625.4 213.374 Q619.821 213.374 616.65 209.763 Q613.502 206.128 613.502 199.763 Q613.502 193.374 616.65 189.763 Q619.821 186.152 625.4 186.152 Z" fill="#000000" fill-rule="evenodd" fill-opacity="1" /><path clip-path="url(#clip880)" d="M654.404 189.763 Q650.978 189.763 648.988 192.448 Q646.997 195.11 646.997 199.763 Q646.997 204.415 648.965 207.101 Q650.955 209.763 654.404 209.763 Q657.807 209.763 659.798 207.078 Q661.789 204.392 661.789 199.763 Q661.789 195.156 659.798 192.471 Q657.807 189.763 654.404 189.763 M654.404 186.152 Q659.96 186.152 663.131 189.763 Q666.302 193.374 666.302 199.763 Q666.302 206.128 663.131 209.763 Q659.96 213.374 654.404 213.374 Q648.826 213.374 645.654 209.763 Q642.506 206.128 642.506 199.763 Q642.506 193.374 645.654 189.763 Q648.826 186.152 654.404 186.152 Z" fill="#000000" fill-rule="evenodd" fill-opacity="1" /><path clip-path="url(#clip880)" d="M677.576 179.416 L677.576 186.777 L686.349 186.777 L686.349 190.087 L677.576 190.087 L677.576 204.161 Q677.576 207.332 678.432 208.235 Q679.312 209.138 681.974 209.138 L686.349 209.138 L686.349 212.702 L681.974 212.702 Q677.043 212.702 675.168 210.874 Q673.293 209.022 673.293 204.161 L673.293 190.087 L670.168 190.087 L670.168 186.777 L673.293 186.777 L673.293 179.416 L677.576 179.416 Z" fill="#000000" fill-rule="evenodd" fill-opacity="1" /><path clip-path="url(#clip880)" d="M713.501 197.054 L713.501 212.702 L709.242 212.702 L709.242 197.193 Q709.242 193.513 707.807 191.684 Q706.372 189.855 703.501 189.855 Q700.052 189.855 698.062 192.054 Q696.071 194.254 696.071 198.05 L696.071 212.702 L691.788 212.702 L691.788 176.684 L696.071 176.684 L696.071 190.804 Q697.599 188.467 699.659 187.309 Q701.742 186.152 704.45 186.152 Q708.918 186.152 711.21 188.929 Q713.501 191.684 713.501 197.054 Z" fill="#000000" fill-rule="evenodd" fill-opacity="1" /><path clip-path="url(#clip880)" d="M744.172 198.675 L744.172 200.758 L724.589 200.758 Q724.867 205.156 727.228 207.471 Q729.612 209.763 733.848 209.763 Q736.302 209.763 738.594 209.161 Q740.909 208.559 743.177 207.355 L743.177 211.383 Q740.885 212.355 738.478 212.865 Q736.071 213.374 733.594 213.374 Q727.39 213.374 723.756 209.763 Q720.145 206.152 720.145 199.994 Q720.145 193.629 723.571 189.902 Q727.02 186.152 732.853 186.152 Q738.085 186.152 741.117 189.531 Q744.172 192.888 744.172 198.675 M739.913 197.425 Q739.867 193.929 737.946 191.846 Q736.047 189.763 732.899 189.763 Q729.335 189.763 727.182 191.777 Q725.052 193.791 724.728 197.448 L739.913 197.425 Z" fill="#000000" fill-rule="evenodd" fill-opacity="1" /><path clip-path="url(#clip880)" d="M768.223 190.712 L768.223 176.684 L772.482 176.684 L772.482 212.702 L768.223 212.702 L768.223 208.814 Q766.881 211.128 764.82 212.263 Q762.783 213.374 759.913 213.374 Q755.214 213.374 752.251 209.624 Q749.311 205.874 749.311 199.763 Q749.311 193.652 752.251 189.902 Q755.214 186.152 759.913 186.152 Q762.783 186.152 764.82 187.286 Q766.881 188.397 768.223 190.712 M753.709 199.763 Q753.709 204.462 755.631 207.147 Q757.575 209.809 760.955 209.809 Q764.334 209.809 766.279 207.147 Q768.223 204.462 768.223 199.763 Q768.223 195.064 766.279 192.402 Q764.334 189.717 760.955 189.717 Q757.575 189.717 755.631 192.402 Q753.709 195.064 753.709 199.763 Z" fill="#000000" fill-rule="evenodd" fill-opacity="1" /><path clip-path="url(#clip880)" d="M797.737 208.767 L805.376 208.767 L805.376 182.402 L797.066 184.068 L797.066 179.809 L805.33 178.142 L810.005 178.142 L810.005 208.767 L817.644 208.767 L817.644 212.702 L797.737 212.702 L797.737 208.767 Z" fill="#000000" fill-rule="evenodd" fill-opacity="1" /><path clip-path="url(#clip880)" d="M843.015 187.541 L843.015 191.568 Q841.209 190.642 839.265 190.179 Q837.32 189.717 835.237 189.717 Q832.065 189.717 830.468 190.689 Q828.894 191.661 828.894 193.605 Q828.894 195.087 830.028 195.943 Q831.163 196.777 834.589 197.541 L836.047 197.865 Q840.584 198.837 842.482 200.619 Q844.403 202.378 844.403 205.55 Q844.403 209.161 841.533 211.267 Q838.686 213.374 833.686 213.374 Q831.603 213.374 829.334 212.957 Q827.089 212.564 824.589 211.753 L824.589 207.355 Q826.95 208.582 829.241 209.207 Q831.533 209.809 833.778 209.809 Q836.788 209.809 838.408 208.79 Q840.028 207.749 840.028 205.874 Q840.028 204.138 838.848 203.212 Q837.69 202.286 833.732 201.429 L832.251 201.082 Q828.292 200.249 826.533 198.536 Q824.774 196.8 824.774 193.791 Q824.774 190.133 827.366 188.142 Q829.959 186.152 834.728 186.152 Q837.089 186.152 839.172 186.499 Q841.255 186.846 843.015 187.541 Z" fill="#000000" fill-rule="evenodd" fill-opacity="1" /><path clip-path="url(#clip880)" d="M855.399 179.416 L855.399 186.777 L864.172 186.777 L864.172 190.087 L855.399 190.087 L855.399 204.161 Q855.399 207.332 856.255 208.235 Q857.135 209.138 859.797 209.138 L864.172 209.138 L864.172 212.702 L859.797 212.702 Q854.866 212.702 852.991 210.874 Q851.116 209.022 851.116 204.161 L851.116 190.087 L847.991 190.087 L847.991 186.777 L851.116 186.777 L851.116 179.416 L855.399 179.416 Z" fill="#000000" fill-rule="evenodd" fill-opacity="1" /><path clip-path="url(#clip880)" d="M894.889 189.763 Q891.463 189.763 889.473 192.448 Q887.482 195.11 887.482 199.763 Q887.482 204.415 889.449 207.101 Q891.44 209.763 894.889 209.763 Q898.292 209.763 900.283 207.078 Q902.273 204.392 902.273 199.763 Q902.273 195.156 900.283 192.471 Q898.292 189.763 894.889 189.763 M894.889 186.152 Q900.445 186.152 903.616 189.763 Q906.787 193.374 906.787 199.763 Q906.787 206.128 903.616 209.763 Q900.445 213.374 894.889 213.374 Q889.311 213.374 886.139 209.763 Q882.991 206.128 882.991 199.763 Q882.991 193.374 886.139 189.763 Q889.311 186.152 894.889 186.152 Z" fill="#000000" fill-rule="evenodd" fill-opacity="1" /><path clip-path="url(#clip880)" d="M928.871 190.758 Q928.153 190.341 927.296 190.156 Q926.463 189.948 925.445 189.948 Q921.834 189.948 919.889 192.309 Q917.968 194.647 917.968 199.045 L917.968 212.702 L913.685 212.702 L913.685 186.777 L917.968 186.777 L917.968 190.804 Q919.31 188.443 921.463 187.309 Q923.616 186.152 926.695 186.152 Q927.134 186.152 927.667 186.221 Q928.199 186.267 928.847 186.383 L928.871 190.758 Z" fill="#000000" fill-rule="evenodd" fill-opacity="1" /><path clip-path="url(#clip880)" d="M949.565 190.712 L949.565 176.684 L953.824 176.684 L953.824 212.702 L949.565 212.702 L949.565 208.814 Q948.222 211.128 946.162 212.263 Q944.125 213.374 941.255 213.374 Q936.556 213.374 933.593 209.624 Q930.653 205.874 930.653 199.763 Q930.653 193.652 933.593 189.902 Q936.556 186.152 941.255 186.152 Q944.125 186.152 946.162 187.286 Q948.222 188.397 949.565 190.712 M935.051 199.763 Q935.051 204.462 936.972 207.147 Q938.917 209.809 942.296 209.809 Q945.676 209.809 947.62 207.147 Q949.565 204.462 949.565 199.763 Q949.565 195.064 947.62 192.402 Q945.676 189.717 942.296 189.717 Q938.917 189.717 936.972 192.402 Q935.051 195.064 935.051 199.763 Z" fill="#000000" fill-rule="evenodd" fill-opacity="1" /><path clip-path="url(#clip880)" d="M984.773 198.675 L984.773 200.758 L965.19 200.758 Q965.468 205.156 967.829 207.471 Q970.213 209.763 974.449 209.763 Q976.903 209.763 979.194 209.161 Q981.509 208.559 983.778 207.355 L983.778 211.383 Q981.486 212.355 979.079 212.865 Q976.671 213.374 974.194 213.374 Q967.991 213.374 964.356 209.763 Q960.745 206.152 960.745 199.994 Q960.745 193.629 964.171 189.902 Q967.62 186.152 973.454 186.152 Q978.685 186.152 981.717 189.531 Q984.773 192.888 984.773 198.675 M980.514 197.425 Q980.467 193.929 978.546 191.846 Q976.648 189.763 973.5 189.763 Q969.935 189.763 967.782 191.777 Q965.653 193.791 965.329 197.448 L980.514 197.425 Z" fill="#000000" fill-rule="evenodd" fill-opacity="1" /><path clip-path="url(#clip880)" d="M1006.79 190.758 Q1006.07 190.341 1005.21 190.156 Q1004.38 189.948 1003.36 189.948 Q999.75 189.948 997.805 192.309 Q995.884 194.647 995.884 199.045 L995.884 212.702 L991.602 212.702 L991.602 186.777 L995.884 186.777 L995.884 190.804 Q997.227 188.443 999.379 187.309 Q1001.53 186.152 1004.61 186.152 Q1005.05 186.152 1005.58 186.221 Q1006.12 186.267 1006.76 186.383 L1006.79 190.758 Z" fill="#000000" fill-rule="evenodd" fill-opacity="1" /><path clip-path="url(#clip880)" d="M1043.38 190.712 L1043.38 176.684 L1047.64 176.684 L1047.64 212.702 L1043.38 212.702 L1043.38 208.814 Q1042.04 211.128 1039.98 212.263 Q1037.94 213.374 1035.07 213.374 Q1030.37 213.374 1027.41 209.624 Q1024.47 205.874 1024.47 199.763 Q1024.47 193.652 1027.41 189.902 Q1030.37 186.152 1035.07 186.152 Q1037.94 186.152 1039.98 187.286 Q1042.04 188.397 1043.38 190.712 M1028.87 199.763 Q1028.87 204.462 1030.79 207.147 Q1032.74 209.809 1036.12 209.809 Q1039.49 209.809 1041.44 207.147 Q1043.38 204.462 1043.38 199.763 Q1043.38 195.064 1041.44 192.402 Q1039.49 189.717 1036.12 189.717 Q1032.74 189.717 1030.79 192.402 Q1028.87 195.064 1028.87 199.763 Z" fill="#000000" fill-rule="evenodd" fill-opacity="1" /><path clip-path="url(#clip880)" d="M1078.59 198.675 L1078.59 200.758 L1059.01 200.758 Q1059.29 205.156 1061.65 207.471 Q1064.03 209.763 1068.27 209.763 Q1070.72 209.763 1073.01 209.161 Q1075.33 208.559 1077.6 207.355 L1077.6 211.383 Q1075.3 212.355 1072.9 212.865 Q1070.49 213.374 1068.01 213.374 Q1061.81 213.374 1058.18 209.763 Q1054.56 206.152 1054.56 199.994 Q1054.56 193.629 1057.99 189.902 Q1061.44 186.152 1067.27 186.152 Q1072.5 186.152 1075.54 189.531 Q1078.59 192.888 1078.59 198.675 M1074.33 197.425 Q1074.29 193.929 1072.37 191.846 Q1070.47 189.763 1067.32 189.763 Q1063.75 189.763 1061.6 191.777 Q1059.47 193.791 1059.15 197.448 L1074.33 197.425 Z" fill="#000000" fill-rule="evenodd" fill-opacity="1" /><path clip-path="url(#clip880)" d="M1100.61 190.758 Q1099.89 190.341 1099.03 190.156 Q1098.2 189.948 1097.18 189.948 Q1093.57 189.948 1091.62 192.309 Q1089.7 194.647 1089.7 199.045 L1089.7 212.702 L1085.42 212.702 L1085.42 186.777 L1089.7 186.777 L1089.7 190.804 Q1091.05 188.443 1093.2 187.309 Q1095.35 186.152 1098.43 186.152 Q1098.87 186.152 1099.4 186.221 Q1099.93 186.267 1100.58 186.383 L1100.61 190.758 Z" fill="#000000" fill-rule="evenodd" fill-opacity="1" /><path clip-path="url(#clip880)" d="M1105.07 186.777 L1109.33 186.777 L1109.33 212.702 L1105.07 212.702 L1105.07 186.777 M1105.07 176.684 L1109.33 176.684 L1109.33 182.078 L1105.07 182.078 L1105.07 176.684 Z" fill="#000000" fill-rule="evenodd" fill-opacity="1" /><path clip-path="url(#clip880)" d="M1115.19 186.777 L1119.7 186.777 L1127.8 208.536 L1135.91 186.777 L1140.42 186.777 L1130.7 212.702 L1124.91 212.702 L1115.19 186.777 Z" fill="#000000" fill-rule="evenodd" fill-opacity="1" /><path clip-path="url(#clip880)" d="M1158.08 199.67 Q1152.92 199.67 1150.93 200.851 Q1148.94 202.031 1148.94 204.878 Q1148.94 207.147 1150.42 208.49 Q1151.92 209.809 1154.49 209.809 Q1158.04 209.809 1160.17 207.309 Q1162.32 204.786 1162.32 200.619 L1162.32 199.67 L1158.08 199.67 M1166.58 197.911 L1166.58 212.702 L1162.32 212.702 L1162.32 208.767 Q1160.86 211.128 1158.68 212.263 Q1156.51 213.374 1153.36 213.374 Q1149.38 213.374 1147.02 211.152 Q1144.68 208.906 1144.68 205.156 Q1144.68 200.781 1147.6 198.559 Q1150.54 196.337 1156.35 196.337 L1162.32 196.337 L1162.32 195.92 Q1162.32 192.98 1160.37 191.383 Q1158.45 189.763 1154.96 189.763 Q1152.74 189.763 1150.63 190.295 Q1148.52 190.828 1146.58 191.892 L1146.58 187.957 Q1148.92 187.054 1151.11 186.615 Q1153.31 186.152 1155.4 186.152 Q1161.02 186.152 1163.8 189.068 Q1166.58 191.985 1166.58 197.911 Z" fill="#000000" fill-rule="evenodd" fill-opacity="1" /><path clip-path="url(#clip880)" d="M1179.56 179.416 L1179.56 186.777 L1188.34 186.777 L1188.34 190.087 L1179.56 190.087 L1179.56 204.161 Q1179.56 207.332 1180.42 208.235 Q1181.3 209.138 1183.96 209.138 L1188.34 209.138 L1188.34 212.702 L1183.96 212.702 Q1179.03 212.702 1177.16 210.874 Q1175.28 209.022 1175.28 204.161 L1175.28 190.087 L1172.16 190.087 L1172.16 186.777 L1175.28 186.777 L1175.28 179.416 L1179.56 179.416 Z" fill="#000000" fill-rule="evenodd" fill-opacity="1" /><path clip-path="url(#clip880)" d="M1193.94 186.777 L1198.2 186.777 L1198.2 212.702 L1193.94 212.702 L1193.94 186.777 M1193.94 176.684 L1198.2 176.684 L1198.2 182.078 L1193.94 182.078 L1193.94 176.684 Z" fill="#000000" fill-rule="evenodd" fill-opacity="1" /><path clip-path="url(#clip880)" d="M1204.05 186.777 L1208.57 186.777 L1216.67 208.536 L1224.77 186.777 L1229.29 186.777 L1219.56 212.702 L1213.78 212.702 L1204.05 186.777 Z" fill="#000000" fill-rule="evenodd" fill-opacity="1" /><path clip-path="url(#clip880)" d="M1257.34 198.675 L1257.34 200.758 L1237.76 200.758 Q1238.04 205.156 1240.4 207.471 Q1242.78 209.763 1247.02 209.763 Q1249.47 209.763 1251.76 209.161 Q1254.08 208.559 1256.35 207.355 L1256.35 211.383 Q1254.05 212.355 1251.65 212.865 Q1249.24 213.374 1246.76 213.374 Q1240.56 213.374 1236.92 209.763 Q1233.31 206.152 1233.31 199.994 Q1233.31 193.629 1236.74 189.902 Q1240.19 186.152 1246.02 186.152 Q1251.25 186.152 1254.29 189.531 Q1257.34 192.888 1257.34 198.675 M1253.08 197.425 Q1253.04 193.929 1251.11 191.846 Q1249.22 189.763 1246.07 189.763 Q1242.5 189.763 1240.35 191.777 Q1238.22 193.791 1237.9 197.448 L1253.08 197.425 Z" fill="#000000" fill-rule="evenodd" fill-opacity="1" /></svg>
