<?xml version="1.0" encoding="utf-8"?>
<svg xmlns="http://www.w3.org/2000/svg" xmlns:xlink="http://www.w3.org/1999/xlink" width="600" height="400" viewBox="0 0 2400 1600">
<defs>
  <clipPath id="clip150">
    <rect x="0" y="0" width="2400" height="1600"/>
  </clipPath>
</defs>
<path clip-path="url(#clip150)" d="
M0 1600 L2400 1600 L2400 0 L0 0  Z
  " fill="#ffffff" fill-rule="evenodd" fill-opacity="1"/>
<defs>
  <clipPath id="clip151">
    <rect x="480" y="0" width="1681" height="1600"/>
  </clipPath>
</defs>
<path clip-path="url(#clip150)" d="
M191.244 1416.76 L2352.76 1416.76 L2352.76 47.2441 L191.244 47.2441  Z
  " fill="#ffffff" fill-rule="evenodd" fill-opacity="1"/>
<defs>
  <clipPath id="clip152">
    <rect x="191" y="47" width="2163" height="1371"/>
  </clipPath>
</defs>
<polyline clip-path="url(#clip152)" style="stroke:#000000; stroke-width:2; stroke-opacity:0.1; fill:none" points="
  456.335,1416.76 456.335,47.2441 
  "/>
<polyline clip-path="url(#clip152)" style="stroke:#000000; stroke-width:2; stroke-opacity:0.1; fill:none" points="
  864.168,1416.76 864.168,47.2441 
  "/>
<polyline clip-path="url(#clip152)" style="stroke:#000000; stroke-width:2; stroke-opacity:0.1; fill:none" points="
  1272,1416.76 1272,47.2441 
  "/>
<polyline clip-path="url(#clip152)" style="stroke:#000000; stroke-width:2; stroke-opacity:0.1; fill:none" points="
  1679.83,1416.76 1679.83,47.2441 
  "/>
<polyline clip-path="url(#clip152)" style="stroke:#000000; stroke-width:2; stroke-opacity:0.1; fill:none" points="
  2087.66,1416.76 2087.66,47.2441 
  "/>
<polyline clip-path="url(#clip150)" style="stroke:#000000; stroke-width:4; stroke-opacity:1; fill:none" points="
  191.244,1416.76 2352.76,1416.76 
  "/>
<polyline clip-path="url(#clip150)" style="stroke:#000000; stroke-width:4; stroke-opacity:1; fill:none" points="
  456.335,1416.76 456.335,1400.32 
  "/>
<polyline clip-path="url(#clip150)" style="stroke:#000000; stroke-width:4; stroke-opacity:1; fill:none" points="
  864.168,1416.76 864.168,1400.32 
  "/>
<polyline clip-path="url(#clip150)" style="stroke:#000000; stroke-width:4; stroke-opacity:1; fill:none" points="
  1272,1416.76 1272,1400.32 
  "/>
<polyline clip-path="url(#clip150)" style="stroke:#000000; stroke-width:4; stroke-opacity:1; fill:none" points="
  1679.83,1416.76 1679.83,1400.32 
  "/>
<polyline clip-path="url(#clip150)" style="stroke:#000000; stroke-width:4; stroke-opacity:1; fill:none" points="
  2087.66,1416.76 2087.66,1400.32 
  "/>
<path clip-path="url(#clip150)" d="M 0 0 M425.236 1460.6 L454.912 1460.6 L454.912 1464.53 L425.236 1464.53 L425.236 1460.6 Z" fill="#000000" fill-rule="evenodd" fill-opacity="1" /><path clip-path="url(#clip150)" d="M 0 0 M477.851 1446.94 L466.046 1465.39 L477.851 1465.39 L477.851 1446.94 M476.624 1442.87 L482.504 1442.87 L482.504 1465.39 L487.435 1465.39 L487.435 1469.28 L482.504 1469.28 L482.504 1477.43 L477.851 1477.43 L477.851 1469.28 L462.249 1469.28 L462.249 1464.77 L476.624 1442.87 Z" fill="#000000" fill-rule="evenodd" fill-opacity="1" /><path clip-path="url(#clip150)" d="M 0 0 M834.11 1460.6 L863.786 1460.6 L863.786 1464.53 L834.11 1464.53 L834.11 1460.6 Z" fill="#000000" fill-rule="evenodd" fill-opacity="1" /><path clip-path="url(#clip150)" d="M 0 0 M877.906 1473.49 L894.225 1473.49 L894.225 1477.43 L872.281 1477.43 L872.281 1473.49 Q874.943 1470.74 879.526 1466.11 Q884.133 1461.46 885.313 1460.11 Q887.559 1457.59 888.438 1455.85 Q889.341 1454.09 889.341 1452.4 Q889.341 1449.65 887.397 1447.91 Q885.475 1446.18 882.374 1446.18 Q880.174 1446.18 877.721 1446.94 Q875.29 1447.71 872.512 1449.26 L872.512 1444.53 Q875.337 1443.4 877.79 1442.82 Q880.244 1442.24 882.281 1442.24 Q887.651 1442.24 890.846 1444.93 Q894.04 1447.61 894.04 1452.1 Q894.04 1454.23 893.23 1456.15 Q892.443 1458.05 890.336 1460.65 Q889.758 1461.32 886.656 1464.53 Q883.554 1467.73 877.906 1473.49 Z" fill="#000000" fill-rule="evenodd" fill-opacity="1" /><path clip-path="url(#clip150)" d="M 0 0 M1272 1445.95 Q1268.39 1445.95 1266.56 1449.51 Q1264.75 1453.05 1264.75 1460.18 Q1264.75 1467.29 1266.56 1470.85 Q1268.39 1474.4 1272 1474.4 Q1275.63 1474.4 1277.44 1470.85 Q1279.27 1467.29 1279.27 1460.18 Q1279.27 1453.05 1277.44 1449.51 Q1275.63 1445.95 1272 1445.95 M1272 1442.24 Q1277.81 1442.24 1280.87 1446.85 Q1283.94 1451.43 1283.94 1460.18 Q1283.94 1468.91 1280.87 1473.52 Q1277.81 1478.1 1272 1478.1 Q1266.19 1478.1 1263.11 1473.52 Q1260.06 1468.91 1260.06 1460.18 Q1260.06 1451.43 1263.11 1446.85 Q1266.19 1442.24 1272 1442.24 Z" fill="#000000" fill-rule="evenodd" fill-opacity="1" /><path clip-path="url(#clip150)" d="M 0 0 M1674.49 1473.49 L1690.8 1473.49 L1690.8 1477.43 L1668.86 1477.43 L1668.86 1473.49 Q1671.52 1470.74 1676.11 1466.11 Q1680.71 1461.46 1681.89 1460.11 Q1684.14 1457.59 1685.02 1455.85 Q1685.92 1454.09 1685.92 1452.4 Q1685.92 1449.65 1683.98 1447.91 Q1682.05 1446.18 1678.95 1446.18 Q1676.75 1446.18 1674.3 1446.94 Q1671.87 1447.71 1669.09 1449.26 L1669.09 1444.53 Q1671.92 1443.4 1674.37 1442.82 Q1676.82 1442.24 1678.86 1442.24 Q1684.23 1442.24 1687.42 1444.93 Q1690.62 1447.61 1690.62 1452.1 Q1690.62 1454.23 1689.81 1456.15 Q1689.02 1458.05 1686.92 1460.65 Q1686.34 1461.32 1683.24 1464.53 Q1680.13 1467.73 1674.49 1473.49 Z" fill="#000000" fill-rule="evenodd" fill-opacity="1" /><path clip-path="url(#clip150)" d="M 0 0 M2090.67 1446.94 L2078.87 1465.39 L2090.67 1465.39 L2090.67 1446.94 M2089.45 1442.87 L2095.33 1442.87 L2095.33 1465.39 L2100.26 1465.39 L2100.26 1469.28 L2095.33 1469.28 L2095.33 1477.43 L2090.67 1477.43 L2090.67 1469.28 L2075.07 1469.28 L2075.07 1464.77 L2089.45 1442.87 Z" fill="#000000" fill-rule="evenodd" fill-opacity="1" /><polyline clip-path="url(#clip152)" style="stroke:#000000; stroke-width:2; stroke-opacity:0.1; fill:none" points="
  191.244,1318.97 2352.76,1318.97 
  "/>
<polyline clip-path="url(#clip152)" style="stroke:#000000; stroke-width:2; stroke-opacity:0.1; fill:none" points="
  191.244,1082.05 2352.76,1082.05 
  "/>
<polyline clip-path="url(#clip152)" style="stroke:#000000; stroke-width:2; stroke-opacity:0.1; fill:none" points="
  191.244,845.132 2352.76,845.132 
  "/>
<polyline clip-path="url(#clip152)" style="stroke:#000000; stroke-width:2; stroke-opacity:0.1; fill:none" points="
  191.244,608.211 2352.76,608.211 
  "/>
<polyline clip-path="url(#clip152)" style="stroke:#000000; stroke-width:2; stroke-opacity:0.1; fill:none" points="
  191.244,371.29 2352.76,371.29 
  "/>
<polyline clip-path="url(#clip152)" style="stroke:#000000; stroke-width:2; stroke-opacity:0.1; fill:none" points="
  191.244,134.369 2352.76,134.369 
  "/>
<polyline clip-path="url(#clip150)" style="stroke:#000000; stroke-width:4; stroke-opacity:1; fill:none" points="
  191.244,1416.76 191.244,47.2441 
  "/>
<polyline clip-path="url(#clip150)" style="stroke:#000000; stroke-width:4; stroke-opacity:1; fill:none" points="
  191.244,1318.97 217.182,1318.97 
  "/>
<polyline clip-path="url(#clip150)" style="stroke:#000000; stroke-width:4; stroke-opacity:1; fill:none" points="
  191.244,1082.05 217.182,1082.05 
  "/>
<polyline clip-path="url(#clip150)" style="stroke:#000000; stroke-width:4; stroke-opacity:1; fill:none" points="
  191.244,845.132 217.182,845.132 
  "/>
<polyline clip-path="url(#clip150)" style="stroke:#000000; stroke-width:4; stroke-opacity:1; fill:none" points="
  191.244,608.211 217.182,608.211 
  "/>
<polyline clip-path="url(#clip150)" style="stroke:#000000; stroke-width:4; stroke-opacity:1; fill:none" points="
  191.244,371.29 217.182,371.29 
  "/>
<polyline clip-path="url(#clip150)" style="stroke:#000000; stroke-width:4; stroke-opacity:1; fill:none" points="
  191.244,134.369 217.182,134.369 
  "/>
<path clip-path="url(#clip150)" d="M 0 0 M67.9066 1304.77 Q64.2955 1304.77 62.4668 1308.34 Q60.6613 1311.88 60.6613 1319.01 Q60.6613 1326.12 62.4668 1329.68 Q64.2955 1333.22 67.9066 1333.22 Q71.5408 1333.22 73.3464 1329.68 Q75.1751 1326.12 75.1751 1319.01 Q75.1751 1311.88 73.3464 1308.34 Q71.5408 1304.77 67.9066 1304.77 M67.9066 1301.07 Q73.7168 1301.07 76.7723 1305.68 Q79.851 1310.26 79.851 1319.01 Q79.851 1327.74 76.7723 1332.34 Q73.7168 1336.93 67.9066 1336.93 Q62.0964 1336.93 59.0178 1332.34 Q55.9622 1327.74 55.9622 1319.01 Q55.9622 1310.26 59.0178 1305.68 Q62.0964 1301.07 67.9066 1301.07 Z" fill="#000000" fill-rule="evenodd" fill-opacity="1" /><path clip-path="url(#clip150)" d="M 0 0 M88.0685 1330.37 L92.9528 1330.37 L92.9528 1336.25 L88.0685 1336.25 L88.0685 1330.37 Z" fill="#000000" fill-rule="evenodd" fill-opacity="1" /><path clip-path="url(#clip150)" d="M 0 0 M113.138 1304.77 Q109.527 1304.77 107.698 1308.34 Q105.893 1311.88 105.893 1319.01 Q105.893 1326.12 107.698 1329.68 Q109.527 1333.22 113.138 1333.22 Q116.772 1333.22 118.578 1329.68 Q120.406 1326.12 120.406 1319.01 Q120.406 1311.88 118.578 1308.34 Q116.772 1304.77 113.138 1304.77 M113.138 1301.07 Q118.948 1301.07 122.004 1305.68 Q125.082 1310.26 125.082 1319.01 Q125.082 1327.74 122.004 1332.34 Q118.948 1336.93 113.138 1336.93 Q107.328 1336.93 104.249 1332.34 Q101.193 1327.74 101.193 1319.01 Q101.193 1310.26 104.249 1305.68 Q107.328 1301.07 113.138 1301.07 Z" fill="#000000" fill-rule="evenodd" fill-opacity="1" /><path clip-path="url(#clip150)" d="M 0 0 M143.3 1304.77 Q139.689 1304.77 137.86 1308.34 Q136.054 1311.88 136.054 1319.01 Q136.054 1326.12 137.86 1329.68 Q139.689 1333.22 143.3 1333.22 Q146.934 1333.22 148.739 1329.68 Q150.568 1326.12 150.568 1319.01 Q150.568 1311.88 148.739 1308.34 Q146.934 1304.77 143.3 1304.77 M143.3 1301.07 Q149.11 1301.07 152.165 1305.68 Q155.244 1310.26 155.244 1319.01 Q155.244 1327.74 152.165 1332.34 Q149.11 1336.93 143.3 1336.93 Q137.49 1336.93 134.411 1332.34 Q131.355 1327.74 131.355 1319.01 Q131.355 1310.26 134.411 1305.68 Q137.49 1301.07 143.3 1301.07 Z" fill="#000000" fill-rule="evenodd" fill-opacity="1" /><path clip-path="url(#clip150)" d="M 0 0 M68.902 1067.85 Q65.2909 1067.85 63.4622 1071.42 Q61.6566 1074.96 61.6566 1082.09 Q61.6566 1089.19 63.4622 1092.76 Q65.2909 1096.3 68.902 1096.3 Q72.5362 1096.3 74.3418 1092.76 Q76.1704 1089.19 76.1704 1082.09 Q76.1704 1074.96 74.3418 1071.42 Q72.5362 1067.85 68.902 1067.85 M68.902 1064.15 Q74.7121 1064.15 77.7677 1068.75 Q80.8463 1073.34 80.8463 1082.09 Q80.8463 1090.81 77.7677 1095.42 Q74.7121 1100 68.902 1100 Q63.0918 1100 60.0131 1095.42 Q56.9576 1090.81 56.9576 1082.09 Q56.9576 1073.34 60.0131 1068.75 Q63.0918 1064.15 68.902 1064.15 Z" fill="#000000" fill-rule="evenodd" fill-opacity="1" /><path clip-path="url(#clip150)" d="M 0 0 M89.0639 1093.45 L93.9481 1093.45 L93.9481 1099.33 L89.0639 1099.33 L89.0639 1093.45 Z" fill="#000000" fill-rule="evenodd" fill-opacity="1" /><path clip-path="url(#clip150)" d="M 0 0 M114.133 1067.85 Q110.522 1067.85 108.693 1071.42 Q106.888 1074.96 106.888 1082.09 Q106.888 1089.19 108.693 1092.76 Q110.522 1096.3 114.133 1096.3 Q117.767 1096.3 119.573 1092.76 Q121.402 1089.19 121.402 1082.09 Q121.402 1074.96 119.573 1071.42 Q117.767 1067.85 114.133 1067.85 M114.133 1064.15 Q119.943 1064.15 122.999 1068.75 Q126.078 1073.34 126.078 1082.09 Q126.078 1090.81 122.999 1095.42 Q119.943 1100 114.133 1100 Q108.323 1100 105.244 1095.42 Q102.189 1090.81 102.189 1082.09 Q102.189 1073.34 105.244 1068.75 Q108.323 1064.15 114.133 1064.15 Z" fill="#000000" fill-rule="evenodd" fill-opacity="1" /><path clip-path="url(#clip150)" d="M 0 0 M134.341 1064.77 L152.698 1064.77 L152.698 1068.71 L138.624 1068.71 L138.624 1077.18 Q139.642 1076.83 140.661 1076.67 Q141.679 1076.49 142.698 1076.49 Q148.485 1076.49 151.864 1079.66 Q155.244 1082.83 155.244 1088.25 Q155.244 1093.82 151.772 1096.93 Q148.3 1100 141.98 1100 Q139.804 1100 137.536 1099.63 Q135.29 1099.26 132.883 1098.52 L132.883 1093.82 Q134.966 1094.96 137.189 1095.51 Q139.411 1096.07 141.888 1096.07 Q145.892 1096.07 148.23 1093.96 Q150.568 1091.86 150.568 1088.25 Q150.568 1084.63 148.23 1082.53 Q145.892 1080.42 141.888 1080.42 Q140.013 1080.42 138.138 1080.84 Q136.286 1081.25 134.341 1082.13 L134.341 1064.77 Z" fill="#000000" fill-rule="evenodd" fill-opacity="1" /><path clip-path="url(#clip150)" d="M 0 0 M67.9066 830.931 Q64.2955 830.931 62.4668 834.496 Q60.6613 838.037 60.6613 845.167 Q60.6613 852.274 62.4668 855.838 Q64.2955 859.38 67.9066 859.38 Q71.5408 859.38 73.3464 855.838 Q75.1751 852.274 75.1751 845.167 Q75.1751 838.037 73.3464 834.496 Q71.5408 830.931 67.9066 830.931 M67.9066 827.227 Q73.7168 827.227 76.7723 831.834 Q79.851 836.417 79.851 845.167 Q79.851 853.894 76.7723 858.5 Q73.7168 863.084 67.9066 863.084 Q62.0964 863.084 59.0178 858.5 Q55.9622 853.894 55.9622 845.167 Q55.9622 836.417 59.0178 831.834 Q62.0964 827.227 67.9066 827.227 Z" fill="#000000" fill-rule="evenodd" fill-opacity="1" /><path clip-path="url(#clip150)" d="M 0 0 M88.0685 856.533 L92.9528 856.533 L92.9528 862.412 L88.0685 862.412 L88.0685 856.533 Z" fill="#000000" fill-rule="evenodd" fill-opacity="1" /><path clip-path="url(#clip150)" d="M 0 0 M103.948 858.477 L111.587 858.477 L111.587 832.112 L103.277 833.778 L103.277 829.519 L111.541 827.852 L116.217 827.852 L116.217 858.477 L123.855 858.477 L123.855 862.412 L103.948 862.412 L103.948 858.477 Z" fill="#000000" fill-rule="evenodd" fill-opacity="1" /><path clip-path="url(#clip150)" d="M 0 0 M143.3 830.931 Q139.689 830.931 137.86 834.496 Q136.054 838.037 136.054 845.167 Q136.054 852.274 137.86 855.838 Q139.689 859.38 143.3 859.38 Q146.934 859.38 148.739 855.838 Q150.568 852.274 150.568 845.167 Q150.568 838.037 148.739 834.496 Q146.934 830.931 143.3 830.931 M143.3 827.227 Q149.11 827.227 152.165 831.834 Q155.244 836.417 155.244 845.167 Q155.244 853.894 152.165 858.5 Q149.11 863.084 143.3 863.084 Q137.49 863.084 134.411 858.5 Q131.355 853.894 131.355 845.167 Q131.355 836.417 134.411 831.834 Q137.49 827.227 143.3 827.227 Z" fill="#000000" fill-rule="evenodd" fill-opacity="1" /><path clip-path="url(#clip150)" d="M 0 0 M68.902 594.01 Q65.2909 594.01 63.4622 597.575 Q61.6566 601.116 61.6566 608.246 Q61.6566 615.353 63.4622 618.917 Q65.2909 622.459 68.902 622.459 Q72.5362 622.459 74.3418 618.917 Q76.1704 615.353 76.1704 608.246 Q76.1704 601.116 74.3418 597.575 Q72.5362 594.01 68.902 594.01 M68.902 590.306 Q74.7121 590.306 77.7677 594.913 Q80.8463 599.496 80.8463 608.246 Q80.8463 616.973 77.7677 621.579 Q74.7121 626.163 68.902 626.163 Q63.0918 626.163 60.0131 621.579 Q56.9576 616.973 56.9576 608.246 Q56.9576 599.496 60.0131 594.913 Q63.0918 590.306 68.902 590.306 Z" fill="#000000" fill-rule="evenodd" fill-opacity="1" /><path clip-path="url(#clip150)" d="M 0 0 M89.0639 619.612 L93.9481 619.612 L93.9481 625.491 L89.0639 625.491 L89.0639 619.612 Z" fill="#000000" fill-rule="evenodd" fill-opacity="1" /><path clip-path="url(#clip150)" d="M 0 0 M104.943 621.556 L112.582 621.556 L112.582 595.191 L104.272 596.857 L104.272 592.598 L112.536 590.931 L117.212 590.931 L117.212 621.556 L124.851 621.556 L124.851 625.491 L104.943 625.491 L104.943 621.556 Z" fill="#000000" fill-rule="evenodd" fill-opacity="1" /><path clip-path="url(#clip150)" d="M 0 0 M134.341 590.931 L152.698 590.931 L152.698 594.867 L138.624 594.867 L138.624 603.339 Q139.642 602.991 140.661 602.829 Q141.679 602.644 142.698 602.644 Q148.485 602.644 151.864 605.816 Q155.244 608.987 155.244 614.403 Q155.244 619.982 151.772 623.084 Q148.3 626.163 141.98 626.163 Q139.804 626.163 137.536 625.792 Q135.29 625.422 132.883 624.681 L132.883 619.982 Q134.966 621.116 137.189 621.672 Q139.411 622.227 141.888 622.227 Q145.892 622.227 148.23 620.121 Q150.568 618.015 150.568 614.403 Q150.568 610.792 148.23 608.686 Q145.892 606.579 141.888 606.579 Q140.013 606.579 138.138 606.996 Q136.286 607.413 134.341 608.292 L134.341 590.931 Z" fill="#000000" fill-rule="evenodd" fill-opacity="1" /><path clip-path="url(#clip150)" d="M 0 0 M67.9066 357.089 Q64.2955 357.089 62.4668 360.654 Q60.6613 364.195 60.6613 371.325 Q60.6613 378.432 62.4668 381.996 Q64.2955 385.538 67.9066 385.538 Q71.5408 385.538 73.3464 381.996 Q75.1751 378.432 75.1751 371.325 Q75.1751 364.195 73.3464 360.654 Q71.5408 357.089 67.9066 357.089 M67.9066 353.385 Q73.7168 353.385 76.7723 357.992 Q79.851 362.575 79.851 371.325 Q79.851 380.052 76.7723 384.658 Q73.7168 389.242 67.9066 389.242 Q62.0964 389.242 59.0178 384.658 Q55.9622 380.052 55.9622 371.325 Q55.9622 362.575 59.0178 357.992 Q62.0964 353.385 67.9066 353.385 Z" fill="#000000" fill-rule="evenodd" fill-opacity="1" /><path clip-path="url(#clip150)" d="M 0 0 M88.0685 382.691 L92.9528 382.691 L92.9528 388.57 L88.0685 388.57 L88.0685 382.691 Z" fill="#000000" fill-rule="evenodd" fill-opacity="1" /><path clip-path="url(#clip150)" d="M 0 0 M107.166 384.635 L123.485 384.635 L123.485 388.57 L101.541 388.57 L101.541 384.635 Q104.203 381.881 108.786 377.251 Q113.392 372.598 114.573 371.256 Q116.818 368.733 117.698 366.996 Q118.601 365.237 118.601 363.547 Q118.601 360.793 116.656 359.057 Q114.735 357.321 111.633 357.321 Q109.434 357.321 106.98 358.084 Q104.55 358.848 101.772 360.399 L101.772 355.677 Q104.596 354.543 107.05 353.964 Q109.504 353.385 111.541 353.385 Q116.911 353.385 120.105 356.071 Q123.3 358.756 123.3 363.246 Q123.3 365.376 122.49 367.297 Q121.703 369.195 119.596 371.788 Q119.017 372.459 115.916 375.677 Q112.814 378.871 107.166 384.635 Z" fill="#000000" fill-rule="evenodd" fill-opacity="1" /><path clip-path="url(#clip150)" d="M 0 0 M143.3 357.089 Q139.689 357.089 137.86 360.654 Q136.054 364.195 136.054 371.325 Q136.054 378.432 137.86 381.996 Q139.689 385.538 143.3 385.538 Q146.934 385.538 148.739 381.996 Q150.568 378.432 150.568 371.325 Q150.568 364.195 148.739 360.654 Q146.934 357.089 143.3 357.089 M143.3 353.385 Q149.11 353.385 152.165 357.992 Q155.244 362.575 155.244 371.325 Q155.244 380.052 152.165 384.658 Q149.11 389.242 143.3 389.242 Q137.49 389.242 134.411 384.658 Q131.355 380.052 131.355 371.325 Q131.355 362.575 134.411 357.992 Q137.49 353.385 143.3 353.385 Z" fill="#000000" fill-rule="evenodd" fill-opacity="1" /><path clip-path="url(#clip150)" d="M 0 0 M68.902 120.168 Q65.2909 120.168 63.4622 123.733 Q61.6566 127.274 61.6566 134.404 Q61.6566 141.511 63.4622 145.075 Q65.2909 148.617 68.902 148.617 Q72.5362 148.617 74.3418 145.075 Q76.1704 141.511 76.1704 134.404 Q76.1704 127.274 74.3418 123.733 Q72.5362 120.168 68.902 120.168 M68.902 116.464 Q74.7121 116.464 77.7677 121.071 Q80.8463 125.654 80.8463 134.404 Q80.8463 143.131 77.7677 147.737 Q74.7121 152.321 68.902 152.321 Q63.0918 152.321 60.0131 147.737 Q56.9576 143.131 56.9576 134.404 Q56.9576 125.654 60.0131 121.071 Q63.0918 116.464 68.902 116.464 Z" fill="#000000" fill-rule="evenodd" fill-opacity="1" /><path clip-path="url(#clip150)" d="M 0 0 M89.0639 145.77 L93.9481 145.77 L93.9481 151.649 L89.0639 151.649 L89.0639 145.77 Z" fill="#000000" fill-rule="evenodd" fill-opacity="1" /><path clip-path="url(#clip150)" d="M 0 0 M108.161 147.714 L124.48 147.714 L124.48 151.649 L102.536 151.649 L102.536 147.714 Q105.198 144.96 109.781 140.33 Q114.388 135.677 115.568 134.335 Q117.814 131.812 118.693 130.075 Q119.596 128.316 119.596 126.626 Q119.596 123.872 117.652 122.136 Q115.73 120.4 112.629 120.4 Q110.43 120.4 107.976 121.163 Q105.545 121.927 102.768 123.478 L102.768 118.756 Q105.592 117.622 108.045 117.043 Q110.499 116.464 112.536 116.464 Q117.906 116.464 121.101 119.15 Q124.295 121.835 124.295 126.325 Q124.295 128.455 123.485 130.376 Q122.698 132.274 120.592 134.867 Q120.013 135.538 116.911 138.756 Q113.809 141.95 108.161 147.714 Z" fill="#000000" fill-rule="evenodd" fill-opacity="1" /><path clip-path="url(#clip150)" d="M 0 0 M134.341 117.089 L152.698 117.089 L152.698 121.025 L138.624 121.025 L138.624 129.497 Q139.642 129.149 140.661 128.987 Q141.679 128.802 142.698 128.802 Q148.485 128.802 151.864 131.974 Q155.244 135.145 155.244 140.561 Q155.244 146.14 151.772 149.242 Q148.3 152.321 141.98 152.321 Q139.804 152.321 137.536 151.95 Q135.29 151.58 132.883 150.839 L132.883 146.14 Q134.966 147.274 137.189 147.83 Q139.411 148.385 141.888 148.385 Q145.892 148.385 148.23 146.279 Q150.568 144.173 150.568 140.561 Q150.568 136.95 148.23 134.844 Q145.892 132.737 141.888 132.737 Q140.013 132.737 138.138 133.154 Q136.286 133.571 134.341 134.45 L134.341 117.089 Z" fill="#000000" fill-rule="evenodd" fill-opacity="1" /><polyline clip-path="url(#clip152)" style="stroke:#009af9; stroke-width:4; stroke-opacity:1; fill:none" points="
  252.419,1307.29 272.333,1306.09 456.468,1287.45 567.125,1265.26 660.684,1235.11 711.5,1212.47 762.315,1184.09 809.163,1151.79 856.011,1112.54 906.236,1061.49 
  956.462,999.932 985.558,959.062 1014.65,914.21 1043.75,865.352 1072.84,812.575 1176.27,598.509 1266.97,398.018 1291.69,346.645 1316.41,298.578 1341.13,254.888 
  1365.85,216.626 1390.72,184.598 1415.59,159.918 1440.45,143.281 1465.32,135.168 1492.82,136.401 1520.31,148.296 1547.81,170.428 1575.3,202.022 1601.46,239.895 
  1627.62,284.266 1653.78,333.915 1679.94,387.575 1734.34,506.613 1788.74,627.517 1834.54,724.964 1880.33,815.097 1936.24,912.699 1992.15,995.604 2044.71,1060.49 
  2097.27,1113.86 2139.37,1149.26 2181.47,1178.98 2223.57,1203.79 2265.67,1224.4 2272.14,1227.24 2278.62,1230 2285.1,1232.68 2291.58,1235.28 
  "/>
<circle clip-path="url(#clip152)" cx="456.335" cy="1362.21" r="14" fill="#e26f46" fill-rule="evenodd" fill-opacity="1" stroke="#000000" stroke-opacity="1" stroke-width="3.2"/>
<circle clip-path="url(#clip152)" cx="476.727" cy="1371.91" r="14" fill="#e26f46" fill-rule="evenodd" fill-opacity="1" stroke="#000000" stroke-opacity="1" stroke-width="3.2"/>
<circle clip-path="url(#clip152)" cx="497.118" cy="1378" r="14" fill="#e26f46" fill-rule="evenodd" fill-opacity="1" stroke="#000000" stroke-opacity="1" stroke-width="3.2"/>
<circle clip-path="url(#clip152)" cx="517.51" cy="1371.46" r="14" fill="#e26f46" fill-rule="evenodd" fill-opacity="1" stroke="#000000" stroke-opacity="1" stroke-width="3.2"/>
<circle clip-path="url(#clip152)" cx="537.902" cy="1359.56" r="14" fill="#e26f46" fill-rule="evenodd" fill-opacity="1" stroke="#000000" stroke-opacity="1" stroke-width="3.2"/>
<circle clip-path="url(#clip152)" cx="558.293" cy="1342.23" r="14" fill="#e26f46" fill-rule="evenodd" fill-opacity="1" stroke="#000000" stroke-opacity="1" stroke-width="3.2"/>
<circle clip-path="url(#clip152)" cx="578.685" cy="1325.05" r="14" fill="#e26f46" fill-rule="evenodd" fill-opacity="1" stroke="#000000" stroke-opacity="1" stroke-width="3.2"/>
<circle clip-path="url(#clip152)" cx="599.077" cy="1304.32" r="14" fill="#e26f46" fill-rule="evenodd" fill-opacity="1" stroke="#000000" stroke-opacity="1" stroke-width="3.2"/>
<circle clip-path="url(#clip152)" cx="619.468" cy="1283.51" r="14" fill="#e26f46" fill-rule="evenodd" fill-opacity="1" stroke="#000000" stroke-opacity="1" stroke-width="3.2"/>
<circle clip-path="url(#clip152)" cx="639.86" cy="1261.19" r="14" fill="#e26f46" fill-rule="evenodd" fill-opacity="1" stroke="#000000" stroke-opacity="1" stroke-width="3.2"/>
<circle clip-path="url(#clip152)" cx="660.251" cy="1241.95" r="14" fill="#e26f46" fill-rule="evenodd" fill-opacity="1" stroke="#000000" stroke-opacity="1" stroke-width="3.2"/>
<circle clip-path="url(#clip152)" cx="680.643" cy="1223.95" r="14" fill="#e26f46" fill-rule="evenodd" fill-opacity="1" stroke="#000000" stroke-opacity="1" stroke-width="3.2"/>
<circle clip-path="url(#clip152)" cx="701.035" cy="1200.59" r="14" fill="#e26f46" fill-rule="evenodd" fill-opacity="1" stroke="#000000" stroke-opacity="1" stroke-width="3.2"/>
<circle clip-path="url(#clip152)" cx="721.426" cy="1197.26" r="14" fill="#e26f46" fill-rule="evenodd" fill-opacity="1" stroke="#000000" stroke-opacity="1" stroke-width="3.2"/>
<circle clip-path="url(#clip152)" cx="741.818" cy="1197.17" r="14" fill="#e26f46" fill-rule="evenodd" fill-opacity="1" stroke="#000000" stroke-opacity="1" stroke-width="3.2"/>
<circle clip-path="url(#clip152)" cx="762.209" cy="1208.3" r="14" fill="#e26f46" fill-rule="evenodd" fill-opacity="1" stroke="#000000" stroke-opacity="1" stroke-width="3.2"/>
<circle clip-path="url(#clip152)" cx="782.601" cy="1204.22" r="14" fill="#e26f46" fill-rule="evenodd" fill-opacity="1" stroke="#000000" stroke-opacity="1" stroke-width="3.2"/>
<circle clip-path="url(#clip152)" cx="802.993" cy="1199.2" r="14" fill="#e26f46" fill-rule="evenodd" fill-opacity="1" stroke="#000000" stroke-opacity="1" stroke-width="3.2"/>
<circle clip-path="url(#clip152)" cx="823.384" cy="1186.15" r="14" fill="#e26f46" fill-rule="evenodd" fill-opacity="1" stroke="#000000" stroke-opacity="1" stroke-width="3.2"/>
<circle clip-path="url(#clip152)" cx="843.776" cy="1138.5" r="14" fill="#e26f46" fill-rule="evenodd" fill-opacity="1" stroke="#000000" stroke-opacity="1" stroke-width="3.2"/>
<circle clip-path="url(#clip152)" cx="864.168" cy="1065.72" r="14" fill="#e26f46" fill-rule="evenodd" fill-opacity="1" stroke="#000000" stroke-opacity="1" stroke-width="3.2"/>
<circle clip-path="url(#clip152)" cx="884.559" cy="1036.61" r="14" fill="#e26f46" fill-rule="evenodd" fill-opacity="1" stroke="#000000" stroke-opacity="1" stroke-width="3.2"/>
<circle clip-path="url(#clip152)" cx="904.951" cy="1055.03" r="14" fill="#e26f46" fill-rule="evenodd" fill-opacity="1" stroke="#000000" stroke-opacity="1" stroke-width="3.2"/>
<circle clip-path="url(#clip152)" cx="925.342" cy="1045.86" r="14" fill="#e26f46" fill-rule="evenodd" fill-opacity="1" stroke="#000000" stroke-opacity="1" stroke-width="3.2"/>
<circle clip-path="url(#clip152)" cx="945.734" cy="995.359" r="14" fill="#e26f46" fill-rule="evenodd" fill-opacity="1" stroke="#000000" stroke-opacity="1" stroke-width="3.2"/>
<circle clip-path="url(#clip152)" cx="966.126" cy="965.49" r="14" fill="#e26f46" fill-rule="evenodd" fill-opacity="1" stroke="#000000" stroke-opacity="1" stroke-width="3.2"/>
<circle clip-path="url(#clip152)" cx="986.517" cy="927.557" r="14" fill="#e26f46" fill-rule="evenodd" fill-opacity="1" stroke="#000000" stroke-opacity="1" stroke-width="3.2"/>
<circle clip-path="url(#clip152)" cx="1006.91" cy="883.573" r="14" fill="#e26f46" fill-rule="evenodd" fill-opacity="1" stroke="#000000" stroke-opacity="1" stroke-width="3.2"/>
<circle clip-path="url(#clip152)" cx="1027.3" cy="820.11" r="14" fill="#e26f46" fill-rule="evenodd" fill-opacity="1" stroke="#000000" stroke-opacity="1" stroke-width="3.2"/>
<circle clip-path="url(#clip152)" cx="1047.69" cy="789.427" r="14" fill="#e26f46" fill-rule="evenodd" fill-opacity="1" stroke="#000000" stroke-opacity="1" stroke-width="3.2"/>
<circle clip-path="url(#clip152)" cx="1068.08" cy="752.039" r="14" fill="#e26f46" fill-rule="evenodd" fill-opacity="1" stroke="#000000" stroke-opacity="1" stroke-width="3.2"/>
<circle clip-path="url(#clip152)" cx="1088.48" cy="749.079" r="14" fill="#e26f46" fill-rule="evenodd" fill-opacity="1" stroke="#000000" stroke-opacity="1" stroke-width="3.2"/>
<circle clip-path="url(#clip152)" cx="1108.87" cy="786.987" r="14" fill="#e26f46" fill-rule="evenodd" fill-opacity="1" stroke="#000000" stroke-opacity="1" stroke-width="3.2"/>
<circle clip-path="url(#clip152)" cx="1129.26" cy="798.551" r="14" fill="#e26f46" fill-rule="evenodd" fill-opacity="1" stroke="#000000" stroke-opacity="1" stroke-width="3.2"/>
<circle clip-path="url(#clip152)" cx="1149.65" cy="727.864" r="14" fill="#e26f46" fill-rule="evenodd" fill-opacity="1" stroke="#000000" stroke-opacity="1" stroke-width="3.2"/>
<circle clip-path="url(#clip152)" cx="1170.04" cy="660.886" r="14" fill="#e26f46" fill-rule="evenodd" fill-opacity="1" stroke="#000000" stroke-opacity="1" stroke-width="3.2"/>
<circle clip-path="url(#clip152)" cx="1190.43" cy="619.157" r="14" fill="#e26f46" fill-rule="evenodd" fill-opacity="1" stroke="#000000" stroke-opacity="1" stroke-width="3.2"/>
<circle clip-path="url(#clip152)" cx="1210.83" cy="552.641" r="14" fill="#e26f46" fill-rule="evenodd" fill-opacity="1" stroke="#000000" stroke-opacity="1" stroke-width="3.2"/>
<circle clip-path="url(#clip152)" cx="1231.22" cy="458.754" r="14" fill="#e26f46" fill-rule="evenodd" fill-opacity="1" stroke="#000000" stroke-opacity="1" stroke-width="3.2"/>
<circle clip-path="url(#clip152)" cx="1251.61" cy="358.127" r="14" fill="#e26f46" fill-rule="evenodd" fill-opacity="1" stroke="#000000" stroke-opacity="1" stroke-width="3.2"/>
<circle clip-path="url(#clip152)" cx="1272" cy="318.336" r="14" fill="#e26f46" fill-rule="evenodd" fill-opacity="1" stroke="#000000" stroke-opacity="1" stroke-width="3.2"/>
<circle clip-path="url(#clip152)" cx="1292.39" cy="287.239" r="14" fill="#e26f46" fill-rule="evenodd" fill-opacity="1" stroke="#000000" stroke-opacity="1" stroke-width="3.2"/>
<circle clip-path="url(#clip152)" cx="1312.78" cy="260.535" r="14" fill="#e26f46" fill-rule="evenodd" fill-opacity="1" stroke="#000000" stroke-opacity="1" stroke-width="3.2"/>
<circle clip-path="url(#clip152)" cx="1333.17" cy="277.095" r="14" fill="#e26f46" fill-rule="evenodd" fill-opacity="1" stroke="#000000" stroke-opacity="1" stroke-width="3.2"/>
<circle clip-path="url(#clip152)" cx="1353.57" cy="290.897" r="14" fill="#e26f46" fill-rule="evenodd" fill-opacity="1" stroke="#000000" stroke-opacity="1" stroke-width="3.2"/>
<circle clip-path="url(#clip152)" cx="1373.96" cy="279.098" r="14" fill="#e26f46" fill-rule="evenodd" fill-opacity="1" stroke="#000000" stroke-opacity="1" stroke-width="3.2"/>
<circle clip-path="url(#clip152)" cx="1394.35" cy="277.163" r="14" fill="#e26f46" fill-rule="evenodd" fill-opacity="1" stroke="#000000" stroke-opacity="1" stroke-width="3.2"/>
<circle clip-path="url(#clip152)" cx="1414.74" cy="231.895" r="14" fill="#e26f46" fill-rule="evenodd" fill-opacity="1" stroke="#000000" stroke-opacity="1" stroke-width="3.2"/>
<circle clip-path="url(#clip152)" cx="1435.13" cy="165.953" r="14" fill="#e26f46" fill-rule="evenodd" fill-opacity="1" stroke="#000000" stroke-opacity="1" stroke-width="3.2"/>
<circle clip-path="url(#clip152)" cx="1455.52" cy="100.883" r="14" fill="#e26f46" fill-rule="evenodd" fill-opacity="1" stroke="#000000" stroke-opacity="1" stroke-width="3.2"/>
<circle clip-path="url(#clip152)" cx="1475.92" cy="87.5909" r="14" fill="#e26f46" fill-rule="evenodd" fill-opacity="1" stroke="#000000" stroke-opacity="1" stroke-width="3.2"/>
<circle clip-path="url(#clip152)" cx="1496.31" cy="86.0039" r="14" fill="#e26f46" fill-rule="evenodd" fill-opacity="1" stroke="#000000" stroke-opacity="1" stroke-width="3.2"/>
<circle clip-path="url(#clip152)" cx="1516.7" cy="103.01" r="14" fill="#e26f46" fill-rule="evenodd" fill-opacity="1" stroke="#000000" stroke-opacity="1" stroke-width="3.2"/>
<circle clip-path="url(#clip152)" cx="1537.09" cy="137.974" r="14" fill="#e26f46" fill-rule="evenodd" fill-opacity="1" stroke="#000000" stroke-opacity="1" stroke-width="3.2"/>
<circle clip-path="url(#clip152)" cx="1557.48" cy="230.096" r="14" fill="#e26f46" fill-rule="evenodd" fill-opacity="1" stroke="#000000" stroke-opacity="1" stroke-width="3.2"/>
<circle clip-path="url(#clip152)" cx="1577.87" cy="272.37" r="14" fill="#e26f46" fill-rule="evenodd" fill-opacity="1" stroke="#000000" stroke-opacity="1" stroke-width="3.2"/>
<circle clip-path="url(#clip152)" cx="1598.27" cy="302.226" r="14" fill="#e26f46" fill-rule="evenodd" fill-opacity="1" stroke="#000000" stroke-opacity="1" stroke-width="3.2"/>
<circle clip-path="url(#clip152)" cx="1618.66" cy="324.027" r="14" fill="#e26f46" fill-rule="evenodd" fill-opacity="1" stroke="#000000" stroke-opacity="1" stroke-width="3.2"/>
<circle clip-path="url(#clip152)" cx="1639.05" cy="328.06" r="14" fill="#e26f46" fill-rule="evenodd" fill-opacity="1" stroke="#000000" stroke-opacity="1" stroke-width="3.2"/>
<circle clip-path="url(#clip152)" cx="1659.44" cy="330.978" r="14" fill="#e26f46" fill-rule="evenodd" fill-opacity="1" stroke="#000000" stroke-opacity="1" stroke-width="3.2"/>
<circle clip-path="url(#clip152)" cx="1679.83" cy="368.033" r="14" fill="#e26f46" fill-rule="evenodd" fill-opacity="1" stroke="#000000" stroke-opacity="1" stroke-width="3.2"/>
<circle clip-path="url(#clip152)" cx="1700.22" cy="402.249" r="14" fill="#e26f46" fill-rule="evenodd" fill-opacity="1" stroke="#000000" stroke-opacity="1" stroke-width="3.2"/>
<circle clip-path="url(#clip152)" cx="1720.62" cy="446.146" r="14" fill="#e26f46" fill-rule="evenodd" fill-opacity="1" stroke="#000000" stroke-opacity="1" stroke-width="3.2"/>
<circle clip-path="url(#clip152)" cx="1741.01" cy="499.029" r="14" fill="#e26f46" fill-rule="evenodd" fill-opacity="1" stroke="#000000" stroke-opacity="1" stroke-width="3.2"/>
<circle clip-path="url(#clip152)" cx="1761.4" cy="518.245" r="14" fill="#e26f46" fill-rule="evenodd" fill-opacity="1" stroke="#000000" stroke-opacity="1" stroke-width="3.2"/>
<circle clip-path="url(#clip152)" cx="1781.79" cy="569.832" r="14" fill="#e26f46" fill-rule="evenodd" fill-opacity="1" stroke="#000000" stroke-opacity="1" stroke-width="3.2"/>
<circle clip-path="url(#clip152)" cx="1802.18" cy="622.296" r="14" fill="#e26f46" fill-rule="evenodd" fill-opacity="1" stroke="#000000" stroke-opacity="1" stroke-width="3.2"/>
<circle clip-path="url(#clip152)" cx="1822.57" cy="680.651" r="14" fill="#e26f46" fill-rule="evenodd" fill-opacity="1" stroke="#000000" stroke-opacity="1" stroke-width="3.2"/>
<circle clip-path="url(#clip152)" cx="1842.97" cy="771.334" r="14" fill="#e26f46" fill-rule="evenodd" fill-opacity="1" stroke="#000000" stroke-opacity="1" stroke-width="3.2"/>
<circle clip-path="url(#clip152)" cx="1863.36" cy="837.45" r="14" fill="#e26f46" fill-rule="evenodd" fill-opacity="1" stroke="#000000" stroke-opacity="1" stroke-width="3.2"/>
<circle clip-path="url(#clip152)" cx="1883.75" cy="889.022" r="14" fill="#e26f46" fill-rule="evenodd" fill-opacity="1" stroke="#000000" stroke-opacity="1" stroke-width="3.2"/>
<circle clip-path="url(#clip152)" cx="1904.14" cy="898.346" r="14" fill="#e26f46" fill-rule="evenodd" fill-opacity="1" stroke="#000000" stroke-opacity="1" stroke-width="3.2"/>
<circle clip-path="url(#clip152)" cx="1924.53" cy="880.925" r="14" fill="#e26f46" fill-rule="evenodd" fill-opacity="1" stroke="#000000" stroke-opacity="1" stroke-width="3.2"/>
<circle clip-path="url(#clip152)" cx="1944.92" cy="888.86" r="14" fill="#e26f46" fill-rule="evenodd" fill-opacity="1" stroke="#000000" stroke-opacity="1" stroke-width="3.2"/>
<circle clip-path="url(#clip152)" cx="1965.32" cy="870.062" r="14" fill="#e26f46" fill-rule="evenodd" fill-opacity="1" stroke="#000000" stroke-opacity="1" stroke-width="3.2"/>
<circle clip-path="url(#clip152)" cx="1985.71" cy="880.849" r="14" fill="#e26f46" fill-rule="evenodd" fill-opacity="1" stroke="#000000" stroke-opacity="1" stroke-width="3.2"/>
<circle clip-path="url(#clip152)" cx="2006.1" cy="970.179" r="14" fill="#e26f46" fill-rule="evenodd" fill-opacity="1" stroke="#000000" stroke-opacity="1" stroke-width="3.2"/>
<circle clip-path="url(#clip152)" cx="2026.49" cy="1070.32" r="14" fill="#e26f46" fill-rule="evenodd" fill-opacity="1" stroke="#000000" stroke-opacity="1" stroke-width="3.2"/>
<circle clip-path="url(#clip152)" cx="2046.88" cy="1177.59" r="14" fill="#e26f46" fill-rule="evenodd" fill-opacity="1" stroke="#000000" stroke-opacity="1" stroke-width="3.2"/>
<circle clip-path="url(#clip152)" cx="2067.27" cy="1308.09" r="14" fill="#e26f46" fill-rule="evenodd" fill-opacity="1" stroke="#000000" stroke-opacity="1" stroke-width="3.2"/>
<circle clip-path="url(#clip152)" cx="2087.66" cy="1376.88" r="14" fill="#e26f46" fill-rule="evenodd" fill-opacity="1" stroke="#000000" stroke-opacity="1" stroke-width="3.2"/>
<path clip-path="url(#clip150)" d="
M263.294 274.334 L1237.21 274.334 L1237.21 92.8945 L263.294 92.8945  Z
  " fill="#ffffff" fill-rule="evenodd" fill-opacity="1"/>
<polyline clip-path="url(#clip150)" style="stroke:#000000; stroke-width:4; stroke-opacity:1; fill:none" points="
  263.294,274.334 1237.21,274.334 1237.21,92.8945 263.294,92.8945 263.294,274.334 
  "/>
<polyline clip-path="url(#clip150)" style="stroke:#009af9; stroke-width:4; stroke-opacity:1; fill:none" points="
  287.311,153.374 431.412,153.374 
  "/>
<path clip-path="url(#clip150)" d="M 0 0 M462.836 137.368 L462.836 144.729 L471.609 144.729 L471.609 148.039 L462.836 148.039 L462.836 162.113 Q462.836 165.284 463.693 166.187 Q464.572 167.09 467.234 167.09 L471.609 167.09 L471.609 170.654 L467.234 170.654 Q462.304 170.654 460.429 168.826 Q458.554 166.974 458.554 162.113 L458.554 148.039 L455.429 148.039 L455.429 144.729 L458.554 144.729 L458.554 137.368 L462.836 137.368 Z" fill="#000000" fill-rule="evenodd" fill-opacity="1" /><path clip-path="url(#clip150)" d="M 0 0 M498.762 155.006 L498.762 170.654 L494.503 170.654 L494.503 155.145 Q494.503 151.465 493.068 149.636 Q491.632 147.807 488.762 147.807 Q485.313 147.807 483.322 150.006 Q481.332 152.206 481.332 156.002 L481.332 170.654 L477.049 170.654 L477.049 134.636 L481.332 134.636 L481.332 148.756 Q482.859 146.419 484.919 145.261 Q487.003 144.104 489.711 144.104 Q494.179 144.104 496.47 146.881 Q498.762 149.636 498.762 155.006 Z" fill="#000000" fill-rule="evenodd" fill-opacity="1" /><path clip-path="url(#clip150)" d="M 0 0 M529.433 156.627 L529.433 158.71 L509.85 158.71 Q510.128 163.108 512.489 165.423 Q514.873 167.715 519.109 167.715 Q521.563 167.715 523.854 167.113 Q526.169 166.511 528.438 165.307 L528.438 169.335 Q526.146 170.307 523.739 170.817 Q521.331 171.326 518.854 171.326 Q512.651 171.326 509.017 167.715 Q505.405 164.104 505.405 157.946 Q505.405 151.581 508.831 147.854 Q512.28 144.104 518.114 144.104 Q523.345 144.104 526.378 147.483 Q529.433 150.84 529.433 156.627 M525.174 155.377 Q525.128 151.881 523.206 149.798 Q521.308 147.715 518.16 147.715 Q514.595 147.715 512.442 149.729 Q510.313 151.743 509.989 155.4 L525.174 155.377 Z" fill="#000000" fill-rule="evenodd" fill-opacity="1" /><path clip-path="url(#clip150)" d="M 0 0 M546.47 147.715 Q543.044 147.715 541.053 150.4 Q539.063 153.062 539.063 157.715 Q539.063 162.367 541.03 165.053 Q543.021 167.715 546.47 167.715 Q549.873 167.715 551.864 165.03 Q553.854 162.344 553.854 157.715 Q553.854 153.108 551.864 150.423 Q549.873 147.715 546.47 147.715 M546.47 144.104 Q552.026 144.104 555.197 147.715 Q558.368 151.326 558.368 157.715 Q558.368 164.08 555.197 167.715 Q552.026 171.326 546.47 171.326 Q540.891 171.326 537.72 167.715 Q534.572 164.08 534.572 157.715 Q534.572 151.326 537.72 147.715 Q540.891 144.104 546.47 144.104 Z" fill="#000000" fill-rule="evenodd" fill-opacity="1" /><path clip-path="url(#clip150)" d="M 0 0 M580.451 148.71 Q579.734 148.293 578.877 148.108 Q578.044 147.9 577.025 147.9 Q573.414 147.9 571.47 150.261 Q569.549 152.599 569.549 156.997 L569.549 170.654 L565.266 170.654 L565.266 144.729 L569.549 144.729 L569.549 148.756 Q570.891 146.395 573.044 145.261 Q575.197 144.104 578.275 144.104 Q578.715 144.104 579.248 144.173 Q579.78 144.219 580.428 144.335 L580.451 148.71 Z" fill="#000000" fill-rule="evenodd" fill-opacity="1" /><path clip-path="url(#clip150)" d="M 0 0 M606.053 156.627 L606.053 158.71 L586.47 158.71 Q586.748 163.108 589.109 165.423 Q591.493 167.715 595.729 167.715 Q598.183 167.715 600.474 167.113 Q602.789 166.511 605.058 165.307 L605.058 169.335 Q602.766 170.307 600.359 170.817 Q597.951 171.326 595.474 171.326 Q589.271 171.326 585.637 167.715 Q582.025 164.104 582.025 157.946 Q582.025 151.581 585.451 147.854 Q588.9 144.104 594.734 144.104 Q599.965 144.104 602.998 147.483 Q606.053 150.84 606.053 156.627 M601.794 155.377 Q601.748 151.881 599.826 149.798 Q597.928 147.715 594.78 147.715 Q591.215 147.715 589.062 149.729 Q586.933 151.743 586.609 155.4 L601.794 155.377 Z" fill="#000000" fill-rule="evenodd" fill-opacity="1" /><path clip-path="url(#clip150)" d="M 0 0 M617.257 137.368 L617.257 144.729 L626.03 144.729 L626.03 148.039 L617.257 148.039 L617.257 162.113 Q617.257 165.284 618.113 166.187 Q618.993 167.09 621.655 167.09 L626.03 167.09 L626.03 170.654 L621.655 170.654 Q616.724 170.654 614.849 168.826 Q612.974 166.974 612.974 162.113 L612.974 148.039 L609.849 148.039 L609.849 144.729 L612.974 144.729 L612.974 137.368 L617.257 137.368 Z" fill="#000000" fill-rule="evenodd" fill-opacity="1" /><path clip-path="url(#clip150)" d="M 0 0 M631.632 144.729 L635.891 144.729 L635.891 170.654 L631.632 170.654 L631.632 144.729 M631.632 134.636 L635.891 134.636 L635.891 140.03 L631.632 140.03 L631.632 134.636 Z" fill="#000000" fill-rule="evenodd" fill-opacity="1" /><path clip-path="url(#clip150)" d="M 0 0 M663.46 145.724 L663.46 149.706 Q661.655 148.71 659.826 148.224 Q658.02 147.715 656.169 147.715 Q652.025 147.715 649.733 150.354 Q647.442 152.969 647.442 157.715 Q647.442 162.46 649.733 165.099 Q652.025 167.715 656.169 167.715 Q658.02 167.715 659.826 167.229 Q661.655 166.719 663.46 165.724 L663.46 169.659 Q661.678 170.492 659.756 170.909 Q657.858 171.326 655.706 171.326 Q649.849 171.326 646.4 167.645 Q642.951 163.965 642.951 157.715 Q642.951 151.372 646.423 147.738 Q649.919 144.104 655.983 144.104 Q657.951 144.104 659.826 144.52 Q661.701 144.914 663.46 145.724 Z" fill="#000000" fill-rule="evenodd" fill-opacity="1" /><path clip-path="url(#clip150)" d="M 0 0 M682.65 157.622 Q677.488 157.622 675.497 158.803 Q673.506 159.983 673.506 162.83 Q673.506 165.099 674.988 166.442 Q676.493 167.761 679.062 167.761 Q682.604 167.761 684.733 165.261 Q686.886 162.738 686.886 158.571 L686.886 157.622 L682.65 157.622 M691.145 155.863 L691.145 170.654 L686.886 170.654 L686.886 166.719 Q685.428 169.08 683.252 170.215 Q681.076 171.326 677.928 171.326 Q673.946 171.326 671.585 169.104 Q669.247 166.858 669.247 163.108 Q669.247 158.733 672.164 156.511 Q675.104 154.289 680.914 154.289 L686.886 154.289 L686.886 153.872 Q686.886 150.932 684.942 149.335 Q683.02 147.715 679.525 147.715 Q677.303 147.715 675.196 148.247 Q673.09 148.78 671.145 149.844 L671.145 145.909 Q673.483 145.006 675.682 144.567 Q677.881 144.104 679.965 144.104 Q685.59 144.104 688.367 147.02 Q691.145 149.937 691.145 155.863 Z" fill="#000000" fill-rule="evenodd" fill-opacity="1" /><path clip-path="url(#clip150)" d="M 0 0 M699.918 134.636 L704.178 134.636 L704.178 170.654 L699.918 170.654 L699.918 134.636 Z" fill="#000000" fill-rule="evenodd" fill-opacity="1" /><path clip-path="url(#clip150)" d="M 0 0 M729.571 166.719 L737.21 166.719 L737.21 140.354 L728.9 142.02 L728.9 137.761 L737.163 136.094 L741.839 136.094 L741.839 166.719 L749.478 166.719 L749.478 170.654 L729.571 170.654 L729.571 166.719 Z" fill="#000000" fill-rule="evenodd" fill-opacity="1" /><path clip-path="url(#clip150)" d="M 0 0 M774.848 145.493 L774.848 149.52 Q773.043 148.594 771.098 148.131 Q769.154 147.669 767.071 147.669 Q763.899 147.669 762.302 148.641 Q760.728 149.613 760.728 151.557 Q760.728 153.039 761.862 153.895 Q762.997 154.729 766.423 155.493 L767.881 155.817 Q772.418 156.789 774.316 158.571 Q776.237 160.33 776.237 163.502 Q776.237 167.113 773.367 169.219 Q770.52 171.326 765.52 171.326 Q763.436 171.326 761.168 170.909 Q758.923 170.516 756.423 169.705 L756.423 165.307 Q758.784 166.534 761.075 167.159 Q763.367 167.761 765.612 167.761 Q768.622 167.761 770.242 166.742 Q771.862 165.701 771.862 163.826 Q771.862 162.09 770.682 161.164 Q769.524 160.238 765.566 159.381 L764.085 159.034 Q760.126 158.201 758.367 156.488 Q756.608 154.752 756.608 151.743 Q756.608 148.085 759.2 146.094 Q761.793 144.104 766.561 144.104 Q768.923 144.104 771.006 144.451 Q773.089 144.798 774.848 145.493 Z" fill="#000000" fill-rule="evenodd" fill-opacity="1" /><path clip-path="url(#clip150)" d="M 0 0 M787.233 137.368 L787.233 144.729 L796.006 144.729 L796.006 148.039 L787.233 148.039 L787.233 162.113 Q787.233 165.284 788.089 166.187 Q788.969 167.09 791.631 167.09 L796.006 167.09 L796.006 170.654 L791.631 170.654 Q786.7 170.654 784.825 168.826 Q782.95 166.974 782.95 162.113 L782.95 148.039 L779.825 148.039 L779.825 144.729 L782.95 144.729 L782.95 137.368 L787.233 137.368 Z" fill="#000000" fill-rule="evenodd" fill-opacity="1" /><path clip-path="url(#clip150)" d="M 0 0 M826.723 147.715 Q823.297 147.715 821.307 150.4 Q819.316 153.062 819.316 157.715 Q819.316 162.367 821.283 165.053 Q823.274 167.715 826.723 167.715 Q830.126 167.715 832.117 165.03 Q834.107 162.344 834.107 157.715 Q834.107 153.108 832.117 150.423 Q830.126 147.715 826.723 147.715 M826.723 144.104 Q832.279 144.104 835.45 147.715 Q838.621 151.326 838.621 157.715 Q838.621 164.08 835.45 167.715 Q832.279 171.326 826.723 171.326 Q821.145 171.326 817.973 167.715 Q814.825 164.08 814.825 157.715 Q814.825 151.326 817.973 147.715 Q821.145 144.104 826.723 144.104 Z" fill="#000000" fill-rule="evenodd" fill-opacity="1" /><path clip-path="url(#clip150)" d="M 0 0 M860.704 148.71 Q859.987 148.293 859.13 148.108 Q858.297 147.9 857.279 147.9 Q853.667 147.9 851.723 150.261 Q849.802 152.599 849.802 156.997 L849.802 170.654 L845.519 170.654 L845.519 144.729 L849.802 144.729 L849.802 148.756 Q851.144 146.395 853.297 145.261 Q855.45 144.104 858.529 144.104 Q858.968 144.104 859.501 144.173 Q860.033 144.219 860.681 144.335 L860.704 148.71 Z" fill="#000000" fill-rule="evenodd" fill-opacity="1" /><path clip-path="url(#clip150)" d="M 0 0 M881.399 148.664 L881.399 134.636 L885.658 134.636 L885.658 170.654 L881.399 170.654 L881.399 166.766 Q880.056 169.08 877.996 170.215 Q875.959 171.326 873.089 171.326 Q868.39 171.326 865.427 167.576 Q862.487 163.826 862.487 157.715 Q862.487 151.604 865.427 147.854 Q868.39 144.104 873.089 144.104 Q875.959 144.104 877.996 145.238 Q880.056 146.349 881.399 148.664 M866.885 157.715 Q866.885 162.414 868.806 165.099 Q870.751 167.761 874.13 167.761 Q877.51 167.761 879.454 165.099 Q881.399 162.414 881.399 157.715 Q881.399 153.016 879.454 150.354 Q877.51 147.669 874.13 147.669 Q870.751 147.669 868.806 150.354 Q866.885 153.016 866.885 157.715 Z" fill="#000000" fill-rule="evenodd" fill-opacity="1" /><path clip-path="url(#clip150)" d="M 0 0 M916.607 156.627 L916.607 158.71 L897.024 158.71 Q897.302 163.108 899.663 165.423 Q902.047 167.715 906.283 167.715 Q908.737 167.715 911.028 167.113 Q913.343 166.511 915.612 165.307 L915.612 169.335 Q913.32 170.307 910.913 170.817 Q908.505 171.326 906.028 171.326 Q899.825 171.326 896.19 167.715 Q892.579 164.104 892.579 157.946 Q892.579 151.581 896.005 147.854 Q899.454 144.104 905.288 144.104 Q910.519 144.104 913.551 147.483 Q916.607 150.84 916.607 156.627 M912.348 155.377 Q912.301 151.881 910.38 149.798 Q908.482 147.715 905.334 147.715 Q901.769 147.715 899.616 149.729 Q897.487 151.743 897.163 155.4 L912.348 155.377 Z" fill="#000000" fill-rule="evenodd" fill-opacity="1" /><path clip-path="url(#clip150)" d="M 0 0 M938.621 148.71 Q937.903 148.293 937.047 148.108 Q936.213 147.9 935.195 147.9 Q931.584 147.9 929.639 150.261 Q927.718 152.599 927.718 156.997 L927.718 170.654 L923.436 170.654 L923.436 144.729 L927.718 144.729 L927.718 148.756 Q929.061 146.395 931.213 145.261 Q933.366 144.104 936.445 144.104 Q936.885 144.104 937.417 144.173 Q937.949 144.219 938.598 144.335 L938.621 148.71 Z" fill="#000000" fill-rule="evenodd" fill-opacity="1" /><path clip-path="url(#clip150)" d="M 0 0 M975.218 148.664 L975.218 134.636 L979.477 134.636 L979.477 170.654 L975.218 170.654 L975.218 166.766 Q973.875 169.08 971.815 170.215 Q969.778 171.326 966.908 171.326 Q962.209 171.326 959.246 167.576 Q956.306 163.826 956.306 157.715 Q956.306 151.604 959.246 147.854 Q962.209 144.104 966.908 144.104 Q969.778 144.104 971.815 145.238 Q973.875 146.349 975.218 148.664 M960.704 157.715 Q960.704 162.414 962.625 165.099 Q964.57 167.761 967.949 167.761 Q971.329 167.761 973.273 165.099 Q975.218 162.414 975.218 157.715 Q975.218 153.016 973.273 150.354 Q971.329 147.669 967.949 147.669 Q964.57 147.669 962.625 150.354 Q960.704 153.016 960.704 157.715 Z" fill="#000000" fill-rule="evenodd" fill-opacity="1" /><path clip-path="url(#clip150)" d="M 0 0 M1010.43 156.627 L1010.43 158.71 L990.843 158.71 Q991.12 163.108 993.482 165.423 Q995.866 167.715 1000.1 167.715 Q1002.56 167.715 1004.85 167.113 Q1007.16 166.511 1009.43 165.307 L1009.43 169.335 Q1007.14 170.307 1004.73 170.817 Q1002.32 171.326 999.847 171.326 Q993.644 171.326 990.009 167.715 Q986.398 164.104 986.398 157.946 Q986.398 151.581 989.824 147.854 Q993.273 144.104 999.107 144.104 Q1004.34 144.104 1007.37 147.483 Q1010.43 150.84 1010.43 156.627 M1006.17 155.377 Q1006.12 151.881 1004.2 149.798 Q1002.3 147.715 999.153 147.715 Q995.588 147.715 993.435 149.729 Q991.306 151.743 990.982 155.4 L1006.17 155.377 Z" fill="#000000" fill-rule="evenodd" fill-opacity="1" /><path clip-path="url(#clip150)" d="M 0 0 M1032.44 148.71 Q1031.72 148.293 1030.87 148.108 Q1030.03 147.9 1029.01 147.9 Q1025.4 147.9 1023.46 150.261 Q1021.54 152.599 1021.54 156.997 L1021.54 170.654 L1017.25 170.654 L1017.25 144.729 L1021.54 144.729 L1021.54 148.756 Q1022.88 146.395 1025.03 145.261 Q1027.19 144.104 1030.26 144.104 Q1030.7 144.104 1031.24 144.173 Q1031.77 144.219 1032.42 144.335 L1032.44 148.71 Z" fill="#000000" fill-rule="evenodd" fill-opacity="1" /><path clip-path="url(#clip150)" d="M 0 0 M1036.91 144.729 L1041.17 144.729 L1041.17 170.654 L1036.91 170.654 L1036.91 144.729 M1036.91 134.636 L1041.17 134.636 L1041.17 140.03 L1036.91 140.03 L1036.91 134.636 Z" fill="#000000" fill-rule="evenodd" fill-opacity="1" /><path clip-path="url(#clip150)" d="M 0 0 M1047.02 144.729 L1051.54 144.729 L1059.64 166.488 L1067.74 144.729 L1072.25 144.729 L1062.53 170.654 L1056.75 170.654 L1047.02 144.729 Z" fill="#000000" fill-rule="evenodd" fill-opacity="1" /><path clip-path="url(#clip150)" d="M 0 0 M1089.92 157.622 Q1084.75 157.622 1082.76 158.803 Q1080.77 159.983 1080.77 162.83 Q1080.77 165.099 1082.25 166.442 Q1083.76 167.761 1086.33 167.761 Q1089.87 167.761 1092 165.261 Q1094.15 162.738 1094.15 158.571 L1094.15 157.622 L1089.92 157.622 M1098.41 155.863 L1098.41 170.654 L1094.15 170.654 L1094.15 166.719 Q1092.69 169.08 1090.52 170.215 Q1088.34 171.326 1085.19 171.326 Q1081.21 171.326 1078.85 169.104 Q1076.51 166.858 1076.51 163.108 Q1076.51 158.733 1079.43 156.511 Q1082.37 154.289 1088.18 154.289 L1094.15 154.289 L1094.15 153.872 Q1094.15 150.932 1092.21 149.335 Q1090.29 147.715 1086.79 147.715 Q1084.57 147.715 1082.46 148.247 Q1080.36 148.78 1078.41 149.844 L1078.41 145.909 Q1080.75 145.006 1082.95 144.567 Q1085.15 144.104 1087.23 144.104 Q1092.86 144.104 1095.63 147.02 Q1098.41 149.937 1098.41 155.863 Z" fill="#000000" fill-rule="evenodd" fill-opacity="1" /><path clip-path="url(#clip150)" d="M 0 0 M1111.4 137.368 L1111.4 144.729 L1120.17 144.729 L1120.17 148.039 L1111.4 148.039 L1111.4 162.113 Q1111.4 165.284 1112.25 166.187 Q1113.13 167.09 1115.8 167.09 L1120.17 167.09 L1120.17 170.654 L1115.8 170.654 Q1110.87 170.654 1108.99 168.826 Q1107.12 166.974 1107.12 162.113 L1107.12 148.039 L1103.99 148.039 L1103.99 144.729 L1107.12 144.729 L1107.12 137.368 L1111.4 137.368 Z" fill="#000000" fill-rule="evenodd" fill-opacity="1" /><path clip-path="url(#clip150)" d="M 0 0 M1125.77 144.729 L1130.03 144.729 L1130.03 170.654 L1125.77 170.654 L1125.77 144.729 M1125.77 134.636 L1130.03 134.636 L1130.03 140.03 L1125.77 140.03 L1125.77 134.636 Z" fill="#000000" fill-rule="evenodd" fill-opacity="1" /><path clip-path="url(#clip150)" d="M 0 0 M1135.89 144.729 L1140.4 144.729 L1148.5 166.488 L1156.61 144.729 L1161.12 144.729 L1151.4 170.654 L1145.61 170.654 L1135.89 144.729 Z" fill="#000000" fill-rule="evenodd" fill-opacity="1" /><path clip-path="url(#clip150)" d="M 0 0 M1189.17 156.627 L1189.17 158.71 L1169.59 158.71 Q1169.87 163.108 1172.23 165.423 Q1174.61 167.715 1178.85 167.715 Q1181.3 167.715 1183.6 167.113 Q1185.91 166.511 1188.18 165.307 L1188.18 169.335 Q1185.89 170.307 1183.48 170.817 Q1181.07 171.326 1178.6 171.326 Q1172.39 171.326 1168.76 167.715 Q1165.15 164.104 1165.15 157.946 Q1165.15 151.581 1168.57 147.854 Q1172.02 144.104 1177.86 144.104 Q1183.09 144.104 1186.12 147.483 Q1189.17 150.84 1189.17 156.627 M1184.92 155.377 Q1184.87 151.881 1182.95 149.798 Q1181.05 147.715 1177.9 147.715 Q1174.34 147.715 1172.18 149.729 Q1170.05 151.743 1169.73 155.4 L1184.92 155.377 Z" fill="#000000" fill-rule="evenodd" fill-opacity="1" /><circle clip-path="url(#clip150)" cx="359.362" cy="213.854" r="23" fill="#e26f46" fill-rule="evenodd" fill-opacity="1" stroke="#000000" stroke-opacity="1" stroke-width="5.12"/>
<path clip-path="url(#clip150)" d="M 0 0 M473.855 205.973 L473.855 210 Q472.049 209.074 470.105 208.611 Q468.16 208.149 466.077 208.149 Q462.906 208.149 461.308 209.121 Q459.734 210.093 459.734 212.037 Q459.734 213.519 460.869 214.375 Q462.003 215.209 465.429 215.973 L466.887 216.297 Q471.424 217.269 473.322 219.051 Q475.244 220.81 475.244 223.982 Q475.244 227.593 472.373 229.699 Q469.526 231.806 464.526 231.806 Q462.443 231.806 460.174 231.389 Q457.929 230.996 455.429 230.185 L455.429 225.787 Q457.79 227.014 460.082 227.639 Q462.373 228.241 464.619 228.241 Q467.628 228.241 469.248 227.222 Q470.869 226.181 470.869 224.306 Q470.869 222.57 469.688 221.644 Q468.531 220.718 464.572 219.861 L463.091 219.514 Q459.133 218.681 457.373 216.968 Q455.614 215.232 455.614 212.223 Q455.614 208.565 458.207 206.574 Q460.799 204.584 465.568 204.584 Q467.929 204.584 470.012 204.931 Q472.095 205.278 473.855 205.973 Z" fill="#000000" fill-rule="evenodd" fill-opacity="1" /><path clip-path="url(#clip150)" d="M 0 0 M502.211 210.186 Q503.808 207.315 506.03 205.949 Q508.253 204.584 511.262 204.584 Q515.313 204.584 517.512 207.431 Q519.711 210.255 519.711 215.486 L519.711 231.134 L515.429 231.134 L515.429 215.625 Q515.429 211.898 514.109 210.093 Q512.79 208.287 510.081 208.287 Q506.771 208.287 504.85 210.486 Q502.929 212.686 502.929 216.482 L502.929 231.134 L498.646 231.134 L498.646 215.625 Q498.646 211.875 497.327 210.093 Q496.007 208.287 493.253 208.287 Q489.989 208.287 488.068 210.51 Q486.146 212.709 486.146 216.482 L486.146 231.134 L481.864 231.134 L481.864 205.209 L486.146 205.209 L486.146 209.236 Q487.605 206.852 489.642 205.718 Q491.679 204.584 494.48 204.584 Q497.304 204.584 499.271 206.019 Q501.262 207.454 502.211 210.186 Z" fill="#000000" fill-rule="evenodd" fill-opacity="1" /><path clip-path="url(#clip150)" d="M 0 0 M538.253 208.195 Q534.827 208.195 532.836 210.88 Q530.845 213.542 530.845 218.195 Q530.845 222.847 532.813 225.533 Q534.803 228.195 538.253 228.195 Q541.655 228.195 543.646 225.51 Q545.637 222.824 545.637 218.195 Q545.637 213.588 543.646 210.903 Q541.655 208.195 538.253 208.195 M538.253 204.584 Q543.808 204.584 546.979 208.195 Q550.151 211.806 550.151 218.195 Q550.151 224.56 546.979 228.195 Q543.808 231.806 538.253 231.806 Q532.674 231.806 529.503 228.195 Q526.354 224.56 526.354 218.195 Q526.354 211.806 529.503 208.195 Q532.674 204.584 538.253 204.584 Z" fill="#000000" fill-rule="evenodd" fill-opacity="1" /><path clip-path="url(#clip150)" d="M 0 0 M567.257 208.195 Q563.831 208.195 561.84 210.88 Q559.85 213.542 559.85 218.195 Q559.85 222.847 561.817 225.533 Q563.808 228.195 567.257 228.195 Q570.66 228.195 572.65 225.51 Q574.641 222.824 574.641 218.195 Q574.641 213.588 572.65 210.903 Q570.66 208.195 567.257 208.195 M567.257 204.584 Q572.813 204.584 575.984 208.195 Q579.155 211.806 579.155 218.195 Q579.155 224.56 575.984 228.195 Q572.813 231.806 567.257 231.806 Q561.678 231.806 558.507 228.195 Q555.359 224.56 555.359 218.195 Q555.359 211.806 558.507 208.195 Q561.678 204.584 567.257 204.584 Z" fill="#000000" fill-rule="evenodd" fill-opacity="1" /><path clip-path="url(#clip150)" d="M 0 0 M590.428 197.848 L590.428 205.209 L599.201 205.209 L599.201 208.519 L590.428 208.519 L590.428 222.593 Q590.428 225.764 591.285 226.667 Q592.164 227.57 594.826 227.57 L599.201 227.57 L599.201 231.134 L594.826 231.134 Q589.896 231.134 588.021 229.306 Q586.146 227.454 586.146 222.593 L586.146 208.519 L583.021 208.519 L583.021 205.209 L586.146 205.209 L586.146 197.848 L590.428 197.848 Z" fill="#000000" fill-rule="evenodd" fill-opacity="1" /><path clip-path="url(#clip150)" d="M 0 0 M626.354 215.486 L626.354 231.134 L622.095 231.134 L622.095 215.625 Q622.095 211.945 620.659 210.116 Q619.224 208.287 616.354 208.287 Q612.905 208.287 610.914 210.486 Q608.923 212.686 608.923 216.482 L608.923 231.134 L604.641 231.134 L604.641 195.116 L608.923 195.116 L608.923 209.236 Q610.451 206.899 612.511 205.741 Q614.595 204.584 617.303 204.584 Q621.771 204.584 624.062 207.361 Q626.354 210.116 626.354 215.486 Z" fill="#000000" fill-rule="evenodd" fill-opacity="1" /><path clip-path="url(#clip150)" d="M 0 0 M657.025 217.107 L657.025 219.19 L637.442 219.19 Q637.72 223.588 640.081 225.903 Q642.465 228.195 646.701 228.195 Q649.155 228.195 651.446 227.593 Q653.761 226.991 656.03 225.787 L656.03 229.815 Q653.738 230.787 651.331 231.297 Q648.923 231.806 646.446 231.806 Q640.243 231.806 636.608 228.195 Q632.997 224.584 632.997 218.426 Q632.997 212.061 636.423 208.334 Q639.872 204.584 645.706 204.584 Q650.937 204.584 653.969 207.963 Q657.025 211.32 657.025 217.107 M652.766 215.857 Q652.719 212.361 650.798 210.278 Q648.9 208.195 645.752 208.195 Q642.187 208.195 640.034 210.209 Q637.905 212.223 637.581 215.88 L652.766 215.857 Z" fill="#000000" fill-rule="evenodd" fill-opacity="1" /><path clip-path="url(#clip150)" d="M 0 0 M681.076 209.144 L681.076 195.116 L685.335 195.116 L685.335 231.134 L681.076 231.134 L681.076 227.246 Q679.733 229.56 677.673 230.695 Q675.636 231.806 672.766 231.806 Q668.067 231.806 665.104 228.056 Q662.164 224.306 662.164 218.195 Q662.164 212.084 665.104 208.334 Q668.067 204.584 672.766 204.584 Q675.636 204.584 677.673 205.718 Q679.733 206.829 681.076 209.144 M666.562 218.195 Q666.562 222.894 668.483 225.579 Q670.428 228.241 673.807 228.241 Q677.187 228.241 679.131 225.579 Q681.076 222.894 681.076 218.195 Q681.076 213.496 679.131 210.834 Q677.187 208.149 673.807 208.149 Q670.428 208.149 668.483 210.834 Q666.562 213.496 666.562 218.195 Z" fill="#000000" fill-rule="evenodd" fill-opacity="1" /><path clip-path="url(#clip150)" d="M 0 0 M710.59 227.199 L718.228 227.199 L718.228 200.834 L709.918 202.5 L709.918 198.241 L718.182 196.574 L722.858 196.574 L722.858 227.199 L730.497 227.199 L730.497 231.134 L710.59 231.134 L710.59 227.199 Z" fill="#000000" fill-rule="evenodd" fill-opacity="1" /><path clip-path="url(#clip150)" d="M 0 0 M755.867 205.973 L755.867 210 Q754.062 209.074 752.117 208.611 Q750.173 208.149 748.089 208.149 Q744.918 208.149 743.321 209.121 Q741.747 210.093 741.747 212.037 Q741.747 213.519 742.881 214.375 Q744.015 215.209 747.441 215.973 L748.9 216.297 Q753.437 217.269 755.335 219.051 Q757.256 220.81 757.256 223.982 Q757.256 227.593 754.386 229.699 Q751.538 231.806 746.538 231.806 Q744.455 231.806 742.187 231.389 Q739.941 230.996 737.441 230.185 L737.441 225.787 Q739.802 227.014 742.094 227.639 Q744.386 228.241 746.631 228.241 Q749.64 228.241 751.261 227.222 Q752.881 226.181 752.881 224.306 Q752.881 222.57 751.7 221.644 Q750.543 220.718 746.585 219.861 L745.103 219.514 Q741.145 218.681 739.386 216.968 Q737.626 215.232 737.626 212.223 Q737.626 208.565 740.219 206.574 Q742.812 204.584 747.58 204.584 Q749.941 204.584 752.025 204.931 Q754.108 205.278 755.867 205.973 Z" fill="#000000" fill-rule="evenodd" fill-opacity="1" /><path clip-path="url(#clip150)" d="M 0 0 M768.251 197.848 L768.251 205.209 L777.024 205.209 L777.024 208.519 L768.251 208.519 L768.251 222.593 Q768.251 225.764 769.108 226.667 Q769.987 227.57 772.649 227.57 L777.024 227.57 L777.024 231.134 L772.649 231.134 Q767.719 231.134 765.844 229.306 Q763.969 227.454 763.969 222.593 L763.969 208.519 L760.844 208.519 L760.844 205.209 L763.969 205.209 L763.969 197.848 L768.251 197.848 Z" fill="#000000" fill-rule="evenodd" fill-opacity="1" /><path clip-path="url(#clip150)" d="M 0 0 M807.742 208.195 Q804.316 208.195 802.325 210.88 Q800.334 213.542 800.334 218.195 Q800.334 222.847 802.302 225.533 Q804.293 228.195 807.742 228.195 Q811.145 228.195 813.135 225.51 Q815.126 222.824 815.126 218.195 Q815.126 213.588 813.135 210.903 Q811.145 208.195 807.742 208.195 M807.742 204.584 Q813.297 204.584 816.469 208.195 Q819.64 211.806 819.64 218.195 Q819.64 224.56 816.469 228.195 Q813.297 231.806 807.742 231.806 Q802.163 231.806 798.992 228.195 Q795.844 224.56 795.844 218.195 Q795.844 211.806 798.992 208.195 Q802.163 204.584 807.742 204.584 Z" fill="#000000" fill-rule="evenodd" fill-opacity="1" /><path clip-path="url(#clip150)" d="M 0 0 M841.723 209.19 Q841.006 208.773 840.149 208.588 Q839.316 208.38 838.297 208.38 Q834.686 208.38 832.742 210.741 Q830.82 213.079 830.82 217.477 L830.82 231.134 L826.538 231.134 L826.538 205.209 L830.82 205.209 L830.82 209.236 Q832.163 206.875 834.316 205.741 Q836.468 204.584 839.547 204.584 Q839.987 204.584 840.519 204.653 Q841.052 204.699 841.7 204.815 L841.723 209.19 Z" fill="#000000" fill-rule="evenodd" fill-opacity="1" /><path clip-path="url(#clip150)" d="M 0 0 M862.417 209.144 L862.417 195.116 L866.677 195.116 L866.677 231.134 L862.417 231.134 L862.417 227.246 Q861.075 229.56 859.015 230.695 Q856.978 231.806 854.107 231.806 Q849.408 231.806 846.445 228.056 Q843.505 224.306 843.505 218.195 Q843.505 212.084 846.445 208.334 Q849.408 204.584 854.107 204.584 Q856.978 204.584 859.015 205.718 Q861.075 206.829 862.417 209.144 M847.904 218.195 Q847.904 222.894 849.825 225.579 Q851.769 228.241 855.149 228.241 Q858.529 228.241 860.473 225.579 Q862.417 222.894 862.417 218.195 Q862.417 213.496 860.473 210.834 Q858.529 208.149 855.149 208.149 Q851.769 208.149 849.825 210.834 Q847.904 213.496 847.904 218.195 Z" fill="#000000" fill-rule="evenodd" fill-opacity="1" /><path clip-path="url(#clip150)" d="M 0 0 M897.626 217.107 L897.626 219.19 L878.042 219.19 Q878.32 223.588 880.681 225.903 Q883.065 228.195 887.302 228.195 Q889.755 228.195 892.047 227.593 Q894.362 226.991 896.63 225.787 L896.63 229.815 Q894.339 230.787 891.931 231.297 Q889.524 231.806 887.047 231.806 Q880.843 231.806 877.209 228.195 Q873.598 224.584 873.598 218.426 Q873.598 212.061 877.024 208.334 Q880.473 204.584 886.306 204.584 Q891.538 204.584 894.57 207.963 Q897.626 211.32 897.626 217.107 M893.366 215.857 Q893.32 212.361 891.399 210.278 Q889.501 208.195 886.352 208.195 Q882.788 208.195 880.635 210.209 Q878.505 212.223 878.181 215.88 L893.366 215.857 Z" fill="#000000" fill-rule="evenodd" fill-opacity="1" /><path clip-path="url(#clip150)" d="M 0 0 M919.639 209.19 Q918.922 208.773 918.065 208.588 Q917.232 208.38 916.213 208.38 Q912.602 208.38 910.658 210.741 Q908.737 213.079 908.737 217.477 L908.737 231.134 L904.454 231.134 L904.454 205.209 L908.737 205.209 L908.737 209.236 Q910.079 206.875 912.232 205.741 Q914.385 204.584 917.463 204.584 Q917.903 204.584 918.436 204.653 Q918.968 204.699 919.616 204.815 L919.639 209.19 Z" fill="#000000" fill-rule="evenodd" fill-opacity="1" /><path clip-path="url(#clip150)" d="M 0 0 M956.236 209.144 L956.236 195.116 L960.496 195.116 L960.496 231.134 L956.236 231.134 L956.236 227.246 Q954.894 229.56 952.834 230.695 Q950.797 231.806 947.926 231.806 Q943.227 231.806 940.264 228.056 Q937.324 224.306 937.324 218.195 Q937.324 212.084 940.264 208.334 Q943.227 204.584 947.926 204.584 Q950.797 204.584 952.834 205.718 Q954.894 206.829 956.236 209.144 M941.723 218.195 Q941.723 222.894 943.644 225.579 Q945.588 228.241 948.968 228.241 Q952.348 228.241 954.292 225.579 Q956.236 222.894 956.236 218.195 Q956.236 213.496 954.292 210.834 Q952.348 208.149 948.968 208.149 Q945.588 208.149 943.644 210.834 Q941.723 213.496 941.723 218.195 Z" fill="#000000" fill-rule="evenodd" fill-opacity="1" /><path clip-path="url(#clip150)" d="M 0 0 M991.445 217.107 L991.445 219.19 L971.861 219.19 Q972.139 223.588 974.5 225.903 Q976.884 228.195 981.12 228.195 Q983.574 228.195 985.866 227.593 Q988.181 226.991 990.449 225.787 L990.449 229.815 Q988.157 230.787 985.75 231.297 Q983.343 231.806 980.866 231.806 Q974.662 231.806 971.028 228.195 Q967.417 224.584 967.417 218.426 Q967.417 212.061 970.843 208.334 Q974.292 204.584 980.125 204.584 Q985.357 204.584 988.389 207.963 Q991.445 211.32 991.445 217.107 M987.185 215.857 Q987.139 212.361 985.218 210.278 Q983.32 208.195 980.171 208.195 Q976.607 208.195 974.454 210.209 Q972.324 212.223 972 215.88 L987.185 215.857 Z" fill="#000000" fill-rule="evenodd" fill-opacity="1" /><path clip-path="url(#clip150)" d="M 0 0 M1013.46 209.19 Q1012.74 208.773 1011.88 208.588 Q1011.05 208.38 1010.03 208.38 Q1006.42 208.38 1004.48 210.741 Q1002.56 213.079 1002.56 217.477 L1002.56 231.134 L998.273 231.134 L998.273 205.209 L1002.56 205.209 L1002.56 209.236 Q1003.9 206.875 1006.05 205.741 Q1008.2 204.584 1011.28 204.584 Q1011.72 204.584 1012.25 204.653 Q1012.79 204.699 1013.44 204.815 L1013.46 209.19 Z" fill="#000000" fill-rule="evenodd" fill-opacity="1" /><path clip-path="url(#clip150)" d="M 0 0 M1017.93 205.209 L1022.19 205.209 L1022.19 231.134 L1017.93 231.134 L1017.93 205.209 M1017.93 195.116 L1022.19 195.116 L1022.19 200.51 L1017.93 200.51 L1017.93 195.116 Z" fill="#000000" fill-rule="evenodd" fill-opacity="1" /><path clip-path="url(#clip150)" d="M 0 0 M1028.04 205.209 L1032.56 205.209 L1040.66 226.968 L1048.76 205.209 L1053.27 205.209 L1043.55 231.134 L1037.76 231.134 L1028.04 205.209 Z" fill="#000000" fill-rule="evenodd" fill-opacity="1" /><path clip-path="url(#clip150)" d="M 0 0 M1070.93 218.102 Q1065.77 218.102 1063.78 219.283 Q1061.79 220.463 1061.79 223.31 Q1061.79 225.579 1063.27 226.922 Q1064.78 228.241 1067.35 228.241 Q1070.89 228.241 1073.02 225.741 Q1075.17 223.218 1075.17 219.051 L1075.17 218.102 L1070.93 218.102 M1079.43 216.343 L1079.43 231.134 L1075.17 231.134 L1075.17 227.199 Q1073.71 229.56 1071.54 230.695 Q1069.36 231.806 1066.21 231.806 Q1062.23 231.806 1059.87 229.584 Q1057.53 227.338 1057.53 223.588 Q1057.53 219.213 1060.45 216.991 Q1063.39 214.769 1069.2 214.769 L1075.17 214.769 L1075.17 214.352 Q1075.17 211.412 1073.23 209.815 Q1071.31 208.195 1067.81 208.195 Q1065.59 208.195 1063.48 208.727 Q1061.37 209.26 1059.43 210.324 L1059.43 206.389 Q1061.77 205.486 1063.97 205.047 Q1066.17 204.584 1068.25 204.584 Q1073.87 204.584 1076.65 207.5 Q1079.43 210.417 1079.43 216.343 Z" fill="#000000" fill-rule="evenodd" fill-opacity="1" /><path clip-path="url(#clip150)" d="M 0 0 M1092.42 197.848 L1092.42 205.209 L1101.19 205.209 L1101.19 208.519 L1092.42 208.519 L1092.42 222.593 Q1092.42 225.764 1093.27 226.667 Q1094.15 227.57 1096.81 227.57 L1101.19 227.57 L1101.19 231.134 L1096.81 231.134 Q1091.88 231.134 1090.01 229.306 Q1088.13 227.454 1088.13 222.593 L1088.13 208.519 L1085.01 208.519 L1085.01 205.209 L1088.13 205.209 L1088.13 197.848 L1092.42 197.848 Z" fill="#000000" fill-rule="evenodd" fill-opacity="1" /><path clip-path="url(#clip150)" d="M 0 0 M1106.79 205.209 L1111.05 205.209 L1111.05 231.134 L1106.79 231.134 L1106.79 205.209 M1106.79 195.116 L1111.05 195.116 L1111.05 200.51 L1106.79 200.51 L1106.79 195.116 Z" fill="#000000" fill-rule="evenodd" fill-opacity="1" /><path clip-path="url(#clip150)" d="M 0 0 M1116.91 205.209 L1121.42 205.209 L1129.52 226.968 L1137.62 205.209 L1142.14 205.209 L1132.42 231.134 L1126.63 231.134 L1116.91 205.209 Z" fill="#000000" fill-rule="evenodd" fill-opacity="1" /><path clip-path="url(#clip150)" d="M 0 0 M1170.19 217.107 L1170.19 219.19 L1150.61 219.19 Q1150.89 223.588 1153.25 225.903 Q1155.63 228.195 1159.87 228.195 Q1162.32 228.195 1164.61 227.593 Q1166.93 226.991 1169.2 225.787 L1169.2 229.815 Q1166.91 230.787 1164.5 231.297 Q1162.09 231.806 1159.61 231.806 Q1153.41 231.806 1149.78 228.195 Q1146.17 224.584 1146.17 218.426 Q1146.17 212.061 1149.59 208.334 Q1153.04 204.584 1158.87 204.584 Q1164.11 204.584 1167.14 207.963 Q1170.19 211.32 1170.19 217.107 M1165.93 215.857 Q1165.89 212.361 1163.97 210.278 Q1162.07 208.195 1158.92 208.195 Q1155.36 208.195 1153.2 210.209 Q1151.07 212.223 1150.75 215.88 L1165.93 215.857 Z" fill="#000000" fill-rule="evenodd" fill-opacity="1" /></svg>
