<?xml version="1.0" encoding="utf-8"?>
<svg xmlns="http://www.w3.org/2000/svg" xmlns:xlink="http://www.w3.org/1999/xlink" width="600" height="400" viewBox="0 0 2400 1600">
<defs>
  <clipPath id="clip980">
    <rect x="0" y="0" width="2400" height="1600"/>
  </clipPath>
</defs>
<path clip-path="url(#clip980)" d="
M0 1600 L2400 1600 L2400 0 L0 0  Z
  " fill="#ffffff" fill-rule="evenodd" fill-opacity="1"/>
<defs>
  <clipPath id="clip981">
    <rect x="480" y="0" width="1681" height="1600"/>
  </clipPath>
</defs>
<path clip-path="url(#clip980)" d="
M191.244 1416.76 L2352.76 1416.76 L2352.76 47.2441 L191.244 47.2441  Z
  " fill="#ffffff" fill-rule="evenodd" fill-opacity="1"/>
<defs>
  <clipPath id="clip982">
    <rect x="191" y="47" width="2163" height="1371"/>
  </clipPath>
</defs>
<polyline clip-path="url(#clip982)" style="stroke:#000000; stroke-width:2; stroke-opacity:0.1; fill:none" points="
  456.335,1416.76 456.335,47.2441 
  "/>
<polyline clip-path="url(#clip982)" style="stroke:#000000; stroke-width:2; stroke-opacity:0.1; fill:none" points="
  864.168,1416.76 864.168,47.2441 
  "/>
<polyline clip-path="url(#clip982)" style="stroke:#000000; stroke-width:2; stroke-opacity:0.1; fill:none" points="
  1272,1416.76 1272,47.2441 
  "/>
<polyline clip-path="url(#clip982)" style="stroke:#000000; stroke-width:2; stroke-opacity:0.1; fill:none" points="
  1679.83,1416.76 1679.83,47.2441 
  "/>
<polyline clip-path="url(#clip982)" style="stroke:#000000; stroke-width:2; stroke-opacity:0.1; fill:none" points="
  2087.66,1416.76 2087.66,47.2441 
  "/>
<polyline clip-path="url(#clip980)" style="stroke:#000000; stroke-width:4; stroke-opacity:1; fill:none" points="
  191.244,1416.76 2352.76,1416.76 
  "/>
<polyline clip-path="url(#clip980)" style="stroke:#000000; stroke-width:4; stroke-opacity:1; fill:none" points="
  456.335,1416.76 456.335,1400.32 
  "/>
<polyline clip-path="url(#clip980)" style="stroke:#000000; stroke-width:4; stroke-opacity:1; fill:none" points="
  864.168,1416.76 864.168,1400.32 
  "/>
<polyline clip-path="url(#clip980)" style="stroke:#000000; stroke-width:4; stroke-opacity:1; fill:none" points="
  1272,1416.76 1272,1400.32 
  "/>
<polyline clip-path="url(#clip980)" style="stroke:#000000; stroke-width:4; stroke-opacity:1; fill:none" points="
  1679.83,1416.76 1679.83,1400.32 
  "/>
<polyline clip-path="url(#clip980)" style="stroke:#000000; stroke-width:4; stroke-opacity:1; fill:none" points="
  2087.66,1416.76 2087.66,1400.32 
  "/>
<path clip-path="url(#clip980)" d="M 0 0 M450.988 1473.49 L467.307 1473.49 L467.307 1477.43 L445.363 1477.43 L445.363 1473.49 Q448.025 1470.74 452.608 1466.11 Q457.215 1461.46 458.395 1460.11 Q460.641 1457.59 461.52 1455.85 Q462.423 1454.09 462.423 1452.4 Q462.423 1449.65 460.479 1447.91 Q458.557 1446.18 455.456 1446.18 Q453.256 1446.18 450.803 1446.94 Q448.372 1447.71 445.594 1449.26 L445.594 1444.53 Q448.419 1443.4 450.872 1442.82 Q453.326 1442.24 455.363 1442.24 Q460.733 1442.24 463.928 1444.93 Q467.122 1447.61 467.122 1452.1 Q467.122 1454.23 466.312 1456.15 Q465.525 1458.05 463.418 1460.65 Q462.84 1461.32 459.738 1464.53 Q456.636 1467.73 450.988 1473.49 Z" fill="#000000" fill-rule="evenodd" fill-opacity="1" /><path clip-path="url(#clip980)" d="M 0 0 M867.177 1446.94 L855.371 1465.39 L867.177 1465.39 L867.177 1446.94 M865.95 1442.87 L871.83 1442.87 L871.83 1465.39 L876.76 1465.39 L876.76 1469.28 L871.83 1469.28 L871.83 1477.43 L867.177 1477.43 L867.177 1469.28 L851.575 1469.28 L851.575 1464.77 L865.95 1442.87 Z" fill="#000000" fill-rule="evenodd" fill-opacity="1" /><path clip-path="url(#clip980)" d="M 0 0 M1272.41 1458.28 Q1269.26 1458.28 1267.41 1460.44 Q1265.58 1462.59 1265.58 1466.34 Q1265.58 1470.07 1267.41 1472.24 Q1269.26 1474.4 1272.41 1474.4 Q1275.55 1474.4 1277.38 1472.24 Q1279.23 1470.07 1279.23 1466.34 Q1279.23 1462.59 1277.38 1460.44 Q1275.55 1458.28 1272.41 1458.28 M1281.69 1443.63 L1281.69 1447.89 Q1279.93 1447.06 1278.12 1446.62 Q1276.34 1446.18 1274.58 1446.18 Q1269.95 1446.18 1267.5 1449.3 Q1265.07 1452.43 1264.72 1458.75 Q1266.09 1456.73 1268.15 1455.67 Q1270.21 1454.58 1272.68 1454.58 Q1277.89 1454.58 1280.9 1457.75 Q1283.93 1460.9 1283.93 1466.34 Q1283.93 1471.66 1280.78 1474.88 Q1277.64 1478.1 1272.41 1478.1 Q1266.41 1478.1 1263.24 1473.52 Q1260.07 1468.91 1260.07 1460.18 Q1260.07 1451.99 1263.96 1447.13 Q1267.84 1442.24 1274.4 1442.24 Q1276.16 1442.24 1277.94 1442.59 Q1279.74 1442.94 1281.69 1443.63 Z" fill="#000000" fill-rule="evenodd" fill-opacity="1" /><path clip-path="url(#clip980)" d="M 0 0 M1679.83 1461.02 Q1676.5 1461.02 1674.58 1462.8 Q1672.68 1464.58 1672.68 1467.71 Q1672.68 1470.83 1674.58 1472.61 Q1676.5 1474.4 1679.83 1474.4 Q1683.17 1474.4 1685.09 1472.61 Q1687.01 1470.81 1687.01 1467.71 Q1687.01 1464.58 1685.09 1462.8 Q1683.19 1461.02 1679.83 1461.02 M1675.16 1459.03 Q1672.15 1458.28 1670.46 1456.22 Q1668.79 1454.16 1668.79 1451.2 Q1668.79 1447.06 1671.73 1444.65 Q1674.69 1442.24 1679.83 1442.24 Q1684.99 1442.24 1687.93 1444.65 Q1690.87 1447.06 1690.87 1451.2 Q1690.87 1454.16 1689.18 1456.22 Q1687.52 1458.28 1684.53 1459.03 Q1687.91 1459.81 1689.79 1462.1 Q1691.68 1464.4 1691.68 1467.71 Q1691.68 1472.73 1688.61 1475.41 Q1685.55 1478.1 1679.83 1478.1 Q1674.11 1478.1 1671.04 1475.41 Q1667.98 1472.73 1667.98 1467.71 Q1667.98 1464.4 1669.88 1462.1 Q1671.78 1459.81 1675.16 1459.03 M1673.44 1451.64 Q1673.44 1454.33 1675.11 1455.83 Q1676.8 1457.34 1679.83 1457.34 Q1682.84 1457.34 1684.53 1455.83 Q1686.24 1454.33 1686.24 1451.64 Q1686.24 1448.96 1684.53 1447.45 Q1682.84 1445.95 1679.83 1445.95 Q1676.8 1445.95 1675.11 1447.45 Q1673.44 1448.96 1673.44 1451.64 Z" fill="#000000" fill-rule="evenodd" fill-opacity="1" /><path clip-path="url(#clip980)" d="M 0 0 M2062.35 1473.49 L2069.99 1473.49 L2069.99 1447.13 L2061.68 1448.79 L2061.68 1444.53 L2069.95 1442.87 L2074.62 1442.87 L2074.62 1473.49 L2082.26 1473.49 L2082.26 1477.43 L2062.35 1477.43 L2062.35 1473.49 Z" fill="#000000" fill-rule="evenodd" fill-opacity="1" /><path clip-path="url(#clip980)" d="M 0 0 M2101.7 1445.95 Q2098.09 1445.95 2096.26 1449.51 Q2094.46 1453.05 2094.46 1460.18 Q2094.46 1467.29 2096.26 1470.85 Q2098.09 1474.4 2101.7 1474.4 Q2105.34 1474.4 2107.14 1470.85 Q2108.97 1467.29 2108.97 1460.18 Q2108.97 1453.05 2107.14 1449.51 Q2105.34 1445.95 2101.7 1445.95 M2101.7 1442.24 Q2107.51 1442.24 2110.57 1446.85 Q2113.65 1451.43 2113.65 1460.18 Q2113.65 1468.91 2110.57 1473.52 Q2107.51 1478.1 2101.7 1478.1 Q2095.89 1478.1 2092.82 1473.52 Q2089.76 1468.91 2089.76 1460.18 Q2089.76 1451.43 2092.82 1446.85 Q2095.89 1442.24 2101.7 1442.24 Z" fill="#000000" fill-rule="evenodd" fill-opacity="1" /><polyline clip-path="url(#clip982)" style="stroke:#000000; stroke-width:2; stroke-opacity:0.1; fill:none" points="
  191.244,1105.09 2352.76,1105.09 
  "/>
<polyline clip-path="url(#clip982)" style="stroke:#000000; stroke-width:2; stroke-opacity:0.1; fill:none" points="
  191.244,763.537 2352.76,763.537 
  "/>
<polyline clip-path="url(#clip982)" style="stroke:#000000; stroke-width:2; stroke-opacity:0.1; fill:none" points="
  191.244,421.984 2352.76,421.984 
  "/>
<polyline clip-path="url(#clip982)" style="stroke:#000000; stroke-width:2; stroke-opacity:0.1; fill:none" points="
  191.244,80.4307 2352.76,80.4307 
  "/>
<polyline clip-path="url(#clip980)" style="stroke:#000000; stroke-width:4; stroke-opacity:1; fill:none" points="
  191.244,1416.76 191.244,47.2441 
  "/>
<polyline clip-path="url(#clip980)" style="stroke:#000000; stroke-width:4; stroke-opacity:1; fill:none" points="
  191.244,1105.09 217.182,1105.09 
  "/>
<polyline clip-path="url(#clip980)" style="stroke:#000000; stroke-width:4; stroke-opacity:1; fill:none" points="
  191.244,763.537 217.182,763.537 
  "/>
<polyline clip-path="url(#clip980)" style="stroke:#000000; stroke-width:4; stroke-opacity:1; fill:none" points="
  191.244,421.984 217.182,421.984 
  "/>
<polyline clip-path="url(#clip980)" style="stroke:#000000; stroke-width:4; stroke-opacity:1; fill:none" points="
  191.244,80.4307 217.182,80.4307 
  "/>
<path clip-path="url(#clip980)" d="M 0 0 M67.9066 1090.89 Q64.2955 1090.89 62.4668 1094.45 Q60.6613 1097.99 60.6613 1105.12 Q60.6613 1112.23 62.4668 1115.8 Q64.2955 1119.34 67.9066 1119.34 Q71.5408 1119.34 73.3464 1115.8 Q75.1751 1112.23 75.1751 1105.12 Q75.1751 1097.99 73.3464 1094.45 Q71.5408 1090.89 67.9066 1090.89 M67.9066 1087.18 Q73.7168 1087.18 76.7723 1091.79 Q79.851 1096.37 79.851 1105.12 Q79.851 1113.85 76.7723 1118.46 Q73.7168 1123.04 67.9066 1123.04 Q62.0964 1123.04 59.0178 1118.46 Q55.9622 1113.85 55.9622 1105.12 Q55.9622 1096.37 59.0178 1091.79 Q62.0964 1087.18 67.9066 1087.18 Z" fill="#000000" fill-rule="evenodd" fill-opacity="1" /><path clip-path="url(#clip980)" d="M 0 0 M88.0685 1116.49 L92.9528 1116.49 L92.9528 1122.37 L88.0685 1122.37 L88.0685 1116.49 Z" fill="#000000" fill-rule="evenodd" fill-opacity="1" /><path clip-path="url(#clip980)" d="M 0 0 M113.138 1090.89 Q109.527 1090.89 107.698 1094.45 Q105.893 1097.99 105.893 1105.12 Q105.893 1112.23 107.698 1115.8 Q109.527 1119.34 113.138 1119.34 Q116.772 1119.34 118.578 1115.8 Q120.406 1112.23 120.406 1105.12 Q120.406 1097.99 118.578 1094.45 Q116.772 1090.89 113.138 1090.89 M113.138 1087.18 Q118.948 1087.18 122.004 1091.79 Q125.082 1096.37 125.082 1105.12 Q125.082 1113.85 122.004 1118.46 Q118.948 1123.04 113.138 1123.04 Q107.328 1123.04 104.249 1118.46 Q101.193 1113.85 101.193 1105.12 Q101.193 1096.37 104.249 1091.79 Q107.328 1087.18 113.138 1087.18 Z" fill="#000000" fill-rule="evenodd" fill-opacity="1" /><path clip-path="url(#clip980)" d="M 0 0 M143.3 1090.89 Q139.689 1090.89 137.86 1094.45 Q136.054 1097.99 136.054 1105.12 Q136.054 1112.23 137.86 1115.8 Q139.689 1119.34 143.3 1119.34 Q146.934 1119.34 148.739 1115.8 Q150.568 1112.23 150.568 1105.12 Q150.568 1097.99 148.739 1094.45 Q146.934 1090.89 143.3 1090.89 M143.3 1087.18 Q149.11 1087.18 152.165 1091.79 Q155.244 1096.37 155.244 1105.12 Q155.244 1113.85 152.165 1118.46 Q149.11 1123.04 143.3 1123.04 Q137.49 1123.04 134.411 1118.46 Q131.355 1113.85 131.355 1105.12 Q131.355 1096.37 134.411 1091.79 Q137.49 1087.18 143.3 1087.18 Z" fill="#000000" fill-rule="evenodd" fill-opacity="1" /><path clip-path="url(#clip980)" d="M 0 0 M68.902 749.336 Q65.2909 749.336 63.4622 752.9 Q61.6566 756.442 61.6566 763.572 Q61.6566 770.678 63.4622 774.243 Q65.2909 777.784 68.902 777.784 Q72.5362 777.784 74.3418 774.243 Q76.1704 770.678 76.1704 763.572 Q76.1704 756.442 74.3418 752.9 Q72.5362 749.336 68.902 749.336 M68.902 745.632 Q74.7121 745.632 77.7677 750.238 Q80.8463 754.822 80.8463 763.572 Q80.8463 772.298 77.7677 776.905 Q74.7121 781.488 68.902 781.488 Q63.0918 781.488 60.0131 776.905 Q56.9576 772.298 56.9576 763.572 Q56.9576 754.822 60.0131 750.238 Q63.0918 745.632 68.902 745.632 Z" fill="#000000" fill-rule="evenodd" fill-opacity="1" /><path clip-path="url(#clip980)" d="M 0 0 M89.0639 774.937 L93.9481 774.937 L93.9481 780.817 L89.0639 780.817 L89.0639 774.937 Z" fill="#000000" fill-rule="evenodd" fill-opacity="1" /><path clip-path="url(#clip980)" d="M 0 0 M114.133 749.336 Q110.522 749.336 108.693 752.9 Q106.888 756.442 106.888 763.572 Q106.888 770.678 108.693 774.243 Q110.522 777.784 114.133 777.784 Q117.767 777.784 119.573 774.243 Q121.402 770.678 121.402 763.572 Q121.402 756.442 119.573 752.9 Q117.767 749.336 114.133 749.336 M114.133 745.632 Q119.943 745.632 122.999 750.238 Q126.078 754.822 126.078 763.572 Q126.078 772.298 122.999 776.905 Q119.943 781.488 114.133 781.488 Q108.323 781.488 105.244 776.905 Q102.189 772.298 102.189 763.572 Q102.189 754.822 105.244 750.238 Q108.323 745.632 114.133 745.632 Z" fill="#000000" fill-rule="evenodd" fill-opacity="1" /><path clip-path="url(#clip980)" d="M 0 0 M134.341 746.257 L152.698 746.257 L152.698 750.192 L138.624 750.192 L138.624 758.664 Q139.642 758.317 140.661 758.155 Q141.679 757.97 142.698 757.97 Q148.485 757.97 151.864 761.141 Q155.244 764.312 155.244 769.729 Q155.244 775.308 151.772 778.409 Q148.3 781.488 141.98 781.488 Q139.804 781.488 137.536 781.118 Q135.29 780.747 132.883 780.007 L132.883 775.308 Q134.966 776.442 137.189 776.997 Q139.411 777.553 141.888 777.553 Q145.892 777.553 148.23 775.446 Q150.568 773.34 150.568 769.729 Q150.568 766.118 148.23 764.011 Q145.892 761.905 141.888 761.905 Q140.013 761.905 138.138 762.322 Q136.286 762.738 134.341 763.618 L134.341 746.257 Z" fill="#000000" fill-rule="evenodd" fill-opacity="1" /><path clip-path="url(#clip980)" d="M 0 0 M67.9066 407.782 Q64.2955 407.782 62.4668 411.347 Q60.6613 414.889 60.6613 422.018 Q60.6613 429.125 62.4668 432.69 Q64.2955 436.231 67.9066 436.231 Q71.5408 436.231 73.3464 432.69 Q75.1751 429.125 75.1751 422.018 Q75.1751 414.889 73.3464 411.347 Q71.5408 407.782 67.9066 407.782 M67.9066 404.079 Q73.7168 404.079 76.7723 408.685 Q79.851 413.269 79.851 422.018 Q79.851 430.745 76.7723 435.352 Q73.7168 439.935 67.9066 439.935 Q62.0964 439.935 59.0178 435.352 Q55.9622 430.745 55.9622 422.018 Q55.9622 413.269 59.0178 408.685 Q62.0964 404.079 67.9066 404.079 Z" fill="#000000" fill-rule="evenodd" fill-opacity="1" /><path clip-path="url(#clip980)" d="M 0 0 M88.0685 433.384 L92.9528 433.384 L92.9528 439.264 L88.0685 439.264 L88.0685 433.384 Z" fill="#000000" fill-rule="evenodd" fill-opacity="1" /><path clip-path="url(#clip980)" d="M 0 0 M103.948 435.329 L111.587 435.329 L111.587 408.963 L103.277 410.63 L103.277 406.37 L111.541 404.704 L116.217 404.704 L116.217 435.329 L123.855 435.329 L123.855 439.264 L103.948 439.264 L103.948 435.329 Z" fill="#000000" fill-rule="evenodd" fill-opacity="1" /><path clip-path="url(#clip980)" d="M 0 0 M143.3 407.782 Q139.689 407.782 137.86 411.347 Q136.054 414.889 136.054 422.018 Q136.054 429.125 137.86 432.69 Q139.689 436.231 143.3 436.231 Q146.934 436.231 148.739 432.69 Q150.568 429.125 150.568 422.018 Q150.568 414.889 148.739 411.347 Q146.934 407.782 143.3 407.782 M143.3 404.079 Q149.11 404.079 152.165 408.685 Q155.244 413.269 155.244 422.018 Q155.244 430.745 152.165 435.352 Q149.11 439.935 143.3 439.935 Q137.49 439.935 134.411 435.352 Q131.355 430.745 131.355 422.018 Q131.355 413.269 134.411 408.685 Q137.49 404.079 143.3 404.079 Z" fill="#000000" fill-rule="evenodd" fill-opacity="1" /><path clip-path="url(#clip980)" d="M 0 0 M68.902 66.2294 Q65.2909 66.2294 63.4622 69.7942 Q61.6566 73.3359 61.6566 80.4655 Q61.6566 87.5719 63.4622 91.1367 Q65.2909 94.6783 68.902 94.6783 Q72.5362 94.6783 74.3418 91.1367 Q76.1704 87.5719 76.1704 80.4655 Q76.1704 73.3359 74.3418 69.7942 Q72.5362 66.2294 68.902 66.2294 M68.902 62.5257 Q74.7121 62.5257 77.7677 67.1322 Q80.8463 71.7155 80.8463 80.4655 Q80.8463 89.1923 77.7677 93.7987 Q74.7121 98.382 68.902 98.382 Q63.0918 98.382 60.0131 93.7987 Q56.9576 89.1923 56.9576 80.4655 Q56.9576 71.7155 60.0131 67.1322 Q63.0918 62.5257 68.902 62.5257 Z" fill="#000000" fill-rule="evenodd" fill-opacity="1" /><path clip-path="url(#clip980)" d="M 0 0 M89.0639 91.8311 L93.9481 91.8311 L93.9481 97.7107 L89.0639 97.7107 L89.0639 91.8311 Z" fill="#000000" fill-rule="evenodd" fill-opacity="1" /><path clip-path="url(#clip980)" d="M 0 0 M104.943 93.7756 L112.582 93.7756 L112.582 67.41 L104.272 69.0766 L104.272 64.8174 L112.536 63.1507 L117.212 63.1507 L117.212 93.7756 L124.851 93.7756 L124.851 97.7107 L104.943 97.7107 L104.943 93.7756 Z" fill="#000000" fill-rule="evenodd" fill-opacity="1" /><path clip-path="url(#clip980)" d="M 0 0 M134.341 63.1507 L152.698 63.1507 L152.698 67.0859 L138.624 67.0859 L138.624 75.5581 Q139.642 75.2109 140.661 75.0488 Q141.679 74.8636 142.698 74.8636 Q148.485 74.8636 151.864 78.0349 Q155.244 81.2062 155.244 86.6228 Q155.244 92.2015 151.772 95.3033 Q148.3 98.382 141.98 98.382 Q139.804 98.382 137.536 98.0117 Q135.29 97.6413 132.883 96.9006 L132.883 92.2015 Q134.966 93.3358 137.189 93.8913 Q139.411 94.4469 141.888 94.4469 Q145.892 94.4469 148.23 92.3404 Q150.568 90.2339 150.568 86.6228 Q150.568 83.0117 148.23 80.9053 Q145.892 78.7988 141.888 78.7988 Q140.013 78.7988 138.138 79.2155 Q136.286 79.6321 134.341 80.5118 L134.341 63.1507 Z" fill="#000000" fill-rule="evenodd" fill-opacity="1" /><circle clip-path="url(#clip982)" cx="252.419" cy="1081.21" r="14" fill="#009af9" fill-rule="evenodd" fill-opacity="1" stroke="#000000" stroke-opacity="1" stroke-width="3.2"/>
<circle clip-path="url(#clip982)" cx="456.335" cy="722.933" r="14" fill="#009af9" fill-rule="evenodd" fill-opacity="1" stroke="#000000" stroke-opacity="1" stroke-width="3.2"/>
<circle clip-path="url(#clip982)" cx="660.251" cy="444.276" r="14" fill="#009af9" fill-rule="evenodd" fill-opacity="1" stroke="#000000" stroke-opacity="1" stroke-width="3.2"/>
<circle clip-path="url(#clip982)" cx="864.168" cy="245.236" r="14" fill="#009af9" fill-rule="evenodd" fill-opacity="1" stroke="#000000" stroke-opacity="1" stroke-width="3.2"/>
<circle clip-path="url(#clip982)" cx="1068.08" cy="125.812" r="14" fill="#009af9" fill-rule="evenodd" fill-opacity="1" stroke="#000000" stroke-opacity="1" stroke-width="3.2"/>
<circle clip-path="url(#clip982)" cx="1272" cy="86.0039" r="14" fill="#009af9" fill-rule="evenodd" fill-opacity="1" stroke="#000000" stroke-opacity="1" stroke-width="3.2"/>
<circle clip-path="url(#clip982)" cx="1475.92" cy="125.812" r="14" fill="#009af9" fill-rule="evenodd" fill-opacity="1" stroke="#000000" stroke-opacity="1" stroke-width="3.2"/>
<circle clip-path="url(#clip982)" cx="1679.83" cy="245.236" r="14" fill="#009af9" fill-rule="evenodd" fill-opacity="1" stroke="#000000" stroke-opacity="1" stroke-width="3.2"/>
<circle clip-path="url(#clip982)" cx="1883.75" cy="444.276" r="14" fill="#009af9" fill-rule="evenodd" fill-opacity="1" stroke="#000000" stroke-opacity="1" stroke-width="3.2"/>
<circle clip-path="url(#clip982)" cx="2087.66" cy="722.933" r="14" fill="#009af9" fill-rule="evenodd" fill-opacity="1" stroke="#000000" stroke-opacity="1" stroke-width="3.2"/>
<circle clip-path="url(#clip982)" cx="2291.58" cy="1081.21" r="14" fill="#009af9" fill-rule="evenodd" fill-opacity="1" stroke="#000000" stroke-opacity="1" stroke-width="3.2"/>
<circle clip-path="url(#clip982)" cx="252.419" cy="1297.5" r="14" fill="#e26f46" fill-rule="evenodd" fill-opacity="1" stroke="#000000" stroke-opacity="1" stroke-width="3.2"/>
<circle clip-path="url(#clip982)" cx="456.335" cy="1377.11" r="14" fill="#e26f46" fill-rule="evenodd" fill-opacity="1" stroke="#000000" stroke-opacity="1" stroke-width="3.2"/>
<circle clip-path="url(#clip982)" cx="660.251" cy="1378" r="14" fill="#e26f46" fill-rule="evenodd" fill-opacity="1" stroke="#000000" stroke-opacity="1" stroke-width="3.2"/>
<circle clip-path="url(#clip982)" cx="864.168" cy="1319.83" r="14" fill="#e26f46" fill-rule="evenodd" fill-opacity="1" stroke="#000000" stroke-opacity="1" stroke-width="3.2"/>
<circle clip-path="url(#clip982)" cx="1068.08" cy="1222.3" r="14" fill="#e26f46" fill-rule="evenodd" fill-opacity="1" stroke="#000000" stroke-opacity="1" stroke-width="3.2"/>
<circle clip-path="url(#clip982)" cx="1272" cy="1105.09" r="14" fill="#e26f46" fill-rule="evenodd" fill-opacity="1" stroke="#000000" stroke-opacity="1" stroke-width="3.2"/>
<circle clip-path="url(#clip982)" cx="1475.92" cy="987.877" r="14" fill="#e26f46" fill-rule="evenodd" fill-opacity="1" stroke="#000000" stroke-opacity="1" stroke-width="3.2"/>
<circle clip-path="url(#clip982)" cx="1679.83" cy="890.348" r="14" fill="#e26f46" fill-rule="evenodd" fill-opacity="1" stroke="#000000" stroke-opacity="1" stroke-width="3.2"/>
<circle clip-path="url(#clip982)" cx="1883.75" cy="832.184" r="14" fill="#e26f46" fill-rule="evenodd" fill-opacity="1" stroke="#000000" stroke-opacity="1" stroke-width="3.2"/>
<circle clip-path="url(#clip982)" cx="2087.66" cy="833.068" r="14" fill="#e26f46" fill-rule="evenodd" fill-opacity="1" stroke="#000000" stroke-opacity="1" stroke-width="3.2"/>
<circle clip-path="url(#clip982)" cx="2291.58" cy="912.684" r="14" fill="#e26f46" fill-rule="evenodd" fill-opacity="1" stroke="#000000" stroke-opacity="1" stroke-width="3.2"/>
<circle clip-path="url(#clip982)" cx="252.419" cy="1045.38" r="14" fill="#3da44d" fill-rule="evenodd" fill-opacity="1" stroke="#000000" stroke-opacity="1" stroke-width="3.2"/>
<circle clip-path="url(#clip982)" cx="456.335" cy="1081.21" r="14" fill="#3da44d" fill-rule="evenodd" fill-opacity="1" stroke="#000000" stroke-opacity="1" stroke-width="3.2"/>
<circle clip-path="url(#clip982)" cx="660.251" cy="1109.07" r="14" fill="#3da44d" fill-rule="evenodd" fill-opacity="1" stroke="#000000" stroke-opacity="1" stroke-width="3.2"/>
<circle clip-path="url(#clip982)" cx="864.168" cy="1128.97" r="14" fill="#3da44d" fill-rule="evenodd" fill-opacity="1" stroke="#000000" stroke-opacity="1" stroke-width="3.2"/>
<circle clip-path="url(#clip982)" cx="1068.08" cy="1140.92" r="14" fill="#3da44d" fill-rule="evenodd" fill-opacity="1" stroke="#000000" stroke-opacity="1" stroke-width="3.2"/>
<circle clip-path="url(#clip982)" cx="1272" cy="1144.9" r="14" fill="#3da44d" fill-rule="evenodd" fill-opacity="1" stroke="#000000" stroke-opacity="1" stroke-width="3.2"/>
<circle clip-path="url(#clip982)" cx="1475.92" cy="1140.92" r="14" fill="#3da44d" fill-rule="evenodd" fill-opacity="1" stroke="#000000" stroke-opacity="1" stroke-width="3.2"/>
<circle clip-path="url(#clip982)" cx="1679.83" cy="1128.97" r="14" fill="#3da44d" fill-rule="evenodd" fill-opacity="1" stroke="#000000" stroke-opacity="1" stroke-width="3.2"/>
<circle clip-path="url(#clip982)" cx="1883.75" cy="1109.07" r="14" fill="#3da44d" fill-rule="evenodd" fill-opacity="1" stroke="#000000" stroke-opacity="1" stroke-width="3.2"/>
<circle clip-path="url(#clip982)" cx="2087.66" cy="1081.21" r="14" fill="#3da44d" fill-rule="evenodd" fill-opacity="1" stroke="#000000" stroke-opacity="1" stroke-width="3.2"/>
<circle clip-path="url(#clip982)" cx="2291.58" cy="1045.38" r="14" fill="#3da44d" fill-rule="evenodd" fill-opacity="1" stroke="#000000" stroke-opacity="1" stroke-width="3.2"/>
<path clip-path="url(#clip980)" d="
M1285.01 334.814 L2280.71 334.814 L2280.71 92.8945 L1285.01 92.8945  Z
  " fill="#ffffff" fill-rule="evenodd" fill-opacity="1"/>
<polyline clip-path="url(#clip980)" style="stroke:#000000; stroke-width:4; stroke-opacity:1; fill:none" points="
  1285.01,334.814 2280.71,334.814 2280.71,92.8945 1285.01,92.8945 1285.01,334.814 
  "/>
<circle clip-path="url(#clip980)" cx="1381.08" cy="153.374" r="23" fill="#009af9" fill-rule="evenodd" fill-opacity="1" stroke="#000000" stroke-opacity="1" stroke-width="5.12"/>
<path clip-path="url(#clip980)" d="M 0 0 M1477.14 144.729 L1481.4 144.729 L1486.73 164.96 L1492.03 144.729 L1497.05 144.729 L1502.37 164.96 L1507.68 144.729 L1511.94 144.729 L1505.15 170.654 L1500.13 170.654 L1494.55 149.405 L1488.95 170.654 L1483.93 170.654 L1477.14 144.729 Z" fill="#000000" fill-rule="evenodd" fill-opacity="1" /><path clip-path="url(#clip980)" d="M 0 0 M1518.39 144.729 L1522.65 144.729 L1522.65 170.654 L1518.39 170.654 L1518.39 144.729 M1518.39 134.636 L1522.65 134.636 L1522.65 140.03 L1518.39 140.03 L1518.39 134.636 Z" fill="#000000" fill-rule="evenodd" fill-opacity="1" /><path clip-path="url(#clip980)" d="M 0 0 M1553.12 155.006 L1553.12 170.654 L1548.86 170.654 L1548.86 155.145 Q1548.86 151.465 1547.42 149.636 Q1545.99 147.807 1543.12 147.807 Q1539.67 147.807 1537.68 150.006 Q1535.68 152.206 1535.68 156.002 L1535.68 170.654 L1531.4 170.654 L1531.4 144.729 L1535.68 144.729 L1535.68 148.756 Q1537.21 146.419 1539.27 145.261 Q1541.36 144.104 1544.06 144.104 Q1548.53 144.104 1550.82 146.881 Q1553.12 149.636 1553.12 155.006 Z" fill="#000000" fill-rule="evenodd" fill-opacity="1" /><path clip-path="url(#clip980)" d="M 0 0 M1578.67 148.664 L1578.67 134.636 L1582.93 134.636 L1582.93 170.654 L1578.67 170.654 L1578.67 166.766 Q1577.33 169.08 1575.27 170.215 Q1573.23 171.326 1570.36 171.326 Q1565.66 171.326 1562.7 167.576 Q1559.76 163.826 1559.76 157.715 Q1559.76 151.604 1562.7 147.854 Q1565.66 144.104 1570.36 144.104 Q1573.23 144.104 1575.27 145.238 Q1577.33 146.349 1578.67 148.664 M1564.16 157.715 Q1564.16 162.414 1566.08 165.099 Q1568.02 167.761 1571.4 167.761 Q1574.78 167.761 1576.73 165.099 Q1578.67 162.414 1578.67 157.715 Q1578.67 153.016 1576.73 150.354 Q1574.78 147.669 1571.4 147.669 Q1568.02 147.669 1566.08 150.354 Q1564.16 153.016 1564.16 157.715 Z" fill="#000000" fill-rule="evenodd" fill-opacity="1" /><path clip-path="url(#clip980)" d="M 0 0 M1601.75 147.715 Q1598.32 147.715 1596.33 150.4 Q1594.34 153.062 1594.34 157.715 Q1594.34 162.367 1596.31 165.053 Q1598.3 167.715 1601.75 167.715 Q1605.15 167.715 1607.14 165.03 Q1609.13 162.344 1609.13 157.715 Q1609.13 153.108 1607.14 150.423 Q1605.15 147.715 1601.75 147.715 M1601.75 144.104 Q1607.3 144.104 1610.48 147.715 Q1613.65 151.326 1613.65 157.715 Q1613.65 164.08 1610.48 167.715 Q1607.3 171.326 1601.75 171.326 Q1596.17 171.326 1593 167.715 Q1589.85 164.08 1589.85 157.715 Q1589.85 151.326 1593 147.715 Q1596.17 144.104 1601.75 144.104 Z" fill="#000000" fill-rule="evenodd" fill-opacity="1" /><path clip-path="url(#clip980)" d="M 0 0 M1618.23 144.729 L1622.49 144.729 L1627.81 164.96 L1633.11 144.729 L1638.14 144.729 L1643.46 164.96 L1648.76 144.729 L1653.02 144.729 L1646.24 170.654 L1641.22 170.654 L1635.64 149.405 L1630.04 170.654 L1625.01 170.654 L1618.23 144.729 Z" fill="#000000" fill-rule="evenodd" fill-opacity="1" /><path clip-path="url(#clip980)" d="M 0 0 M1687.67 134.636 L1687.67 138.178 L1683.6 138.178 Q1681.31 138.178 1680.41 139.104 Q1679.53 140.03 1679.53 142.437 L1679.53 144.729 L1686.54 144.729 L1686.54 148.039 L1679.53 148.039 L1679.53 170.654 L1675.24 170.654 L1675.24 148.039 L1671.17 148.039 L1671.17 144.729 L1675.24 144.729 L1675.24 142.923 Q1675.24 138.594 1677.26 136.627 Q1679.27 134.636 1683.65 134.636 L1687.67 134.636 Z" fill="#000000" fill-rule="evenodd" fill-opacity="1" /><path clip-path="url(#clip980)" d="M 0 0 M1701.29 147.715 Q1697.86 147.715 1695.87 150.4 Q1693.88 153.062 1693.88 157.715 Q1693.88 162.367 1695.85 165.053 Q1697.84 167.715 1701.29 167.715 Q1704.69 167.715 1706.68 165.03 Q1708.67 162.344 1708.67 157.715 Q1708.67 153.108 1706.68 150.423 Q1704.69 147.715 1701.29 147.715 M1701.29 144.104 Q1706.84 144.104 1710.01 147.715 Q1713.18 151.326 1713.18 157.715 Q1713.18 164.08 1710.01 167.715 Q1706.84 171.326 1701.29 171.326 Q1695.71 171.326 1692.54 167.715 Q1689.39 164.08 1689.39 157.715 Q1689.39 151.326 1692.54 147.715 Q1695.71 144.104 1701.29 144.104 Z" fill="#000000" fill-rule="evenodd" fill-opacity="1" /><path clip-path="url(#clip980)" d="M 0 0 M1735.27 148.71 Q1734.55 148.293 1733.69 148.108 Q1732.86 147.9 1731.84 147.9 Q1728.23 147.9 1726.29 150.261 Q1724.36 152.599 1724.36 156.997 L1724.36 170.654 L1720.08 170.654 L1720.08 144.729 L1724.36 144.729 L1724.36 148.756 Q1725.71 146.395 1727.86 145.261 Q1730.01 144.104 1733.09 144.104 Q1733.53 144.104 1734.06 144.173 Q1734.6 144.219 1735.24 144.335 L1735.27 148.71 Z" fill="#000000" fill-rule="evenodd" fill-opacity="1" /><path clip-path="url(#clip980)" d="M 0 0 M1771.33 145.493 L1771.33 149.52 Q1769.53 148.594 1767.58 148.131 Q1765.64 147.669 1763.55 147.669 Q1760.38 147.669 1758.79 148.641 Q1757.21 149.613 1757.21 151.557 Q1757.21 153.039 1758.35 153.895 Q1759.48 154.729 1762.91 155.493 L1764.36 155.817 Q1768.9 156.789 1770.8 158.571 Q1772.72 160.33 1772.72 163.502 Q1772.72 167.113 1769.85 169.219 Q1767 171.326 1762 171.326 Q1759.92 171.326 1757.65 170.909 Q1755.41 170.516 1752.91 169.705 L1752.91 165.307 Q1755.27 166.534 1757.56 167.159 Q1759.85 167.761 1762.1 167.761 Q1765.1 167.761 1766.73 166.742 Q1768.35 165.701 1768.35 163.826 Q1768.35 162.09 1767.17 161.164 Q1766.01 160.238 1762.05 159.381 L1760.57 159.034 Q1756.61 158.201 1754.85 156.488 Q1753.09 154.752 1753.09 151.743 Q1753.09 148.085 1755.68 146.094 Q1758.28 144.104 1763.04 144.104 Q1765.41 144.104 1767.49 144.451 Q1769.57 144.798 1771.33 145.493 Z" fill="#000000" fill-rule="evenodd" fill-opacity="1" /><path clip-path="url(#clip980)" d="M 0 0 M1799.69 149.706 Q1801.29 146.835 1803.51 145.469 Q1805.73 144.104 1808.74 144.104 Q1812.79 144.104 1814.99 146.951 Q1817.19 149.775 1817.19 155.006 L1817.19 170.654 L1812.91 170.654 L1812.91 155.145 Q1812.91 151.418 1811.59 149.613 Q1810.27 147.807 1807.56 147.807 Q1804.25 147.807 1802.33 150.006 Q1800.41 152.206 1800.41 156.002 L1800.41 170.654 L1796.12 170.654 L1796.12 155.145 Q1796.12 151.395 1794.8 149.613 Q1793.48 147.807 1790.73 147.807 Q1787.47 147.807 1785.54 150.03 Q1783.62 152.229 1783.62 156.002 L1783.62 170.654 L1779.34 170.654 L1779.34 144.729 L1783.62 144.729 L1783.62 148.756 Q1785.08 146.372 1787.12 145.238 Q1789.16 144.104 1791.96 144.104 Q1794.78 144.104 1796.75 145.539 Q1798.74 146.974 1799.69 149.706 Z" fill="#000000" fill-rule="evenodd" fill-opacity="1" /><path clip-path="url(#clip980)" d="M 0 0 M1835.73 147.715 Q1832.3 147.715 1830.31 150.4 Q1828.32 153.062 1828.32 157.715 Q1828.32 162.367 1830.29 165.053 Q1832.28 167.715 1835.73 167.715 Q1839.13 167.715 1841.12 165.03 Q1843.11 162.344 1843.11 157.715 Q1843.11 153.108 1841.12 150.423 Q1839.13 147.715 1835.73 147.715 M1835.73 144.104 Q1841.29 144.104 1844.46 147.715 Q1847.63 151.326 1847.63 157.715 Q1847.63 164.08 1844.46 167.715 Q1841.29 171.326 1835.73 171.326 Q1830.15 171.326 1826.98 167.715 Q1823.83 164.08 1823.83 157.715 Q1823.83 151.326 1826.98 147.715 Q1830.15 144.104 1835.73 144.104 Z" fill="#000000" fill-rule="evenodd" fill-opacity="1" /><path clip-path="url(#clip980)" d="M 0 0 M1864.73 147.715 Q1861.31 147.715 1859.32 150.4 Q1857.33 153.062 1857.33 157.715 Q1857.33 162.367 1859.29 165.053 Q1861.29 167.715 1864.73 167.715 Q1868.14 167.715 1870.13 165.03 Q1872.12 162.344 1872.12 157.715 Q1872.12 153.108 1870.13 150.423 Q1868.14 147.715 1864.73 147.715 M1864.73 144.104 Q1870.29 144.104 1873.46 147.715 Q1876.63 151.326 1876.63 157.715 Q1876.63 164.08 1873.46 167.715 Q1870.29 171.326 1864.73 171.326 Q1859.16 171.326 1855.98 167.715 Q1852.84 164.08 1852.84 157.715 Q1852.84 151.326 1855.98 147.715 Q1859.16 144.104 1864.73 144.104 Z" fill="#000000" fill-rule="evenodd" fill-opacity="1" /><path clip-path="url(#clip980)" d="M 0 0 M1887.91 137.368 L1887.91 144.729 L1896.68 144.729 L1896.68 148.039 L1887.91 148.039 L1887.91 162.113 Q1887.91 165.284 1888.76 166.187 Q1889.64 167.09 1892.3 167.09 L1896.68 167.09 L1896.68 170.654 L1892.3 170.654 Q1887.37 170.654 1885.5 168.826 Q1883.62 166.974 1883.62 162.113 L1883.62 148.039 L1880.5 148.039 L1880.5 144.729 L1883.62 144.729 L1883.62 137.368 L1887.91 137.368 Z" fill="#000000" fill-rule="evenodd" fill-opacity="1" /><path clip-path="url(#clip980)" d="M 0 0 M1923.83 155.006 L1923.83 170.654 L1919.57 170.654 L1919.57 155.145 Q1919.57 151.465 1918.14 149.636 Q1916.7 147.807 1913.83 147.807 Q1910.38 147.807 1908.39 150.006 Q1906.4 152.206 1906.4 156.002 L1906.4 170.654 L1902.12 170.654 L1902.12 134.636 L1906.4 134.636 L1906.4 148.756 Q1907.93 146.419 1909.99 145.261 Q1912.07 144.104 1914.78 144.104 Q1919.25 144.104 1921.54 146.881 Q1923.83 149.636 1923.83 155.006 Z" fill="#000000" fill-rule="evenodd" fill-opacity="1" /><path clip-path="url(#clip980)" d="M 0 0 M1932.33 144.729 L1936.59 144.729 L1936.59 170.654 L1932.33 170.654 L1932.33 144.729 M1932.33 134.636 L1936.59 134.636 L1936.59 140.03 L1932.33 140.03 L1932.33 134.636 Z" fill="#000000" fill-rule="evenodd" fill-opacity="1" /><path clip-path="url(#clip980)" d="M 0 0 M1967.05 155.006 L1967.05 170.654 L1962.79 170.654 L1962.79 155.145 Q1962.79 151.465 1961.35 149.636 Q1959.92 147.807 1957.05 147.807 Q1953.6 147.807 1951.61 150.006 Q1949.62 152.206 1949.62 156.002 L1949.62 170.654 L1945.34 170.654 L1945.34 144.729 L1949.62 144.729 L1949.62 148.756 Q1951.15 146.419 1953.21 145.261 Q1955.29 144.104 1958 144.104 Q1962.47 144.104 1964.76 146.881 Q1967.05 149.636 1967.05 155.006 Z" fill="#000000" fill-rule="evenodd" fill-opacity="1" /><path clip-path="url(#clip980)" d="M 0 0 M1992.6 157.391 Q1992.6 152.761 1990.68 150.215 Q1988.78 147.669 1985.34 147.669 Q1981.91 147.669 1979.99 150.215 Q1978.09 152.761 1978.09 157.391 Q1978.09 161.997 1979.99 164.543 Q1981.91 167.09 1985.34 167.09 Q1988.78 167.09 1990.68 164.543 Q1992.6 161.997 1992.6 157.391 M1996.86 167.437 Q1996.86 174.057 1993.92 177.275 Q1990.98 180.516 1984.92 180.516 Q1982.67 180.516 1980.68 180.168 Q1978.69 179.844 1976.82 179.15 L1976.82 175.006 Q1978.69 176.025 1980.52 176.511 Q1982.35 176.997 1984.25 176.997 Q1988.44 176.997 1990.52 174.798 Q1992.6 172.622 1992.6 168.201 L1992.6 166.094 Q1991.28 168.386 1989.22 169.52 Q1987.16 170.654 1984.29 170.654 Q1979.53 170.654 1976.61 167.02 Q1973.69 163.386 1973.69 157.391 Q1973.69 151.372 1976.61 147.738 Q1979.53 144.104 1984.29 144.104 Q1987.16 144.104 1989.22 145.238 Q1991.28 146.372 1992.6 148.664 L1992.6 144.729 L1996.86 144.729 L1996.86 167.437 Z" fill="#000000" fill-rule="evenodd" fill-opacity="1" /><circle clip-path="url(#clip980)" cx="1381.08" cy="213.854" r="23" fill="#e26f46" fill-rule="evenodd" fill-opacity="1" stroke="#000000" stroke-opacity="1" stroke-width="5.12"/>
<path clip-path="url(#clip980)" d="M 0 0 M1477.14 205.209 L1481.4 205.209 L1486.73 225.44 L1492.03 205.209 L1497.05 205.209 L1502.37 225.44 L1507.68 205.209 L1511.94 205.209 L1505.15 231.134 L1500.13 231.134 L1494.55 209.885 L1488.95 231.134 L1483.93 231.134 L1477.14 205.209 Z" fill="#000000" fill-rule="evenodd" fill-opacity="1" /><path clip-path="url(#clip980)" d="M 0 0 M1518.39 205.209 L1522.65 205.209 L1522.65 231.134 L1518.39 231.134 L1518.39 205.209 M1518.39 195.116 L1522.65 195.116 L1522.65 200.51 L1518.39 200.51 L1518.39 195.116 Z" fill="#000000" fill-rule="evenodd" fill-opacity="1" /><path clip-path="url(#clip980)" d="M 0 0 M1553.12 215.486 L1553.12 231.134 L1548.86 231.134 L1548.86 215.625 Q1548.86 211.945 1547.42 210.116 Q1545.99 208.287 1543.12 208.287 Q1539.67 208.287 1537.68 210.486 Q1535.68 212.686 1535.68 216.482 L1535.68 231.134 L1531.4 231.134 L1531.4 205.209 L1535.68 205.209 L1535.68 209.236 Q1537.21 206.899 1539.27 205.741 Q1541.36 204.584 1544.06 204.584 Q1548.53 204.584 1550.82 207.361 Q1553.12 210.116 1553.12 215.486 Z" fill="#000000" fill-rule="evenodd" fill-opacity="1" /><path clip-path="url(#clip980)" d="M 0 0 M1578.67 209.144 L1578.67 195.116 L1582.93 195.116 L1582.93 231.134 L1578.67 231.134 L1578.67 227.246 Q1577.33 229.56 1575.27 230.695 Q1573.23 231.806 1570.36 231.806 Q1565.66 231.806 1562.7 228.056 Q1559.76 224.306 1559.76 218.195 Q1559.76 212.084 1562.7 208.334 Q1565.66 204.584 1570.36 204.584 Q1573.23 204.584 1575.27 205.718 Q1577.33 206.829 1578.67 209.144 M1564.16 218.195 Q1564.16 222.894 1566.08 225.579 Q1568.02 228.241 1571.4 228.241 Q1574.78 228.241 1576.73 225.579 Q1578.67 222.894 1578.67 218.195 Q1578.67 213.496 1576.73 210.834 Q1574.78 208.149 1571.4 208.149 Q1568.02 208.149 1566.08 210.834 Q1564.16 213.496 1564.16 218.195 Z" fill="#000000" fill-rule="evenodd" fill-opacity="1" /><path clip-path="url(#clip980)" d="M 0 0 M1601.75 208.195 Q1598.32 208.195 1596.33 210.88 Q1594.34 213.542 1594.34 218.195 Q1594.34 222.847 1596.31 225.533 Q1598.3 228.195 1601.75 228.195 Q1605.15 228.195 1607.14 225.51 Q1609.13 222.824 1609.13 218.195 Q1609.13 213.588 1607.14 210.903 Q1605.15 208.195 1601.75 208.195 M1601.75 204.584 Q1607.3 204.584 1610.48 208.195 Q1613.65 211.806 1613.65 218.195 Q1613.65 224.56 1610.48 228.195 Q1607.3 231.806 1601.75 231.806 Q1596.17 231.806 1593 228.195 Q1589.85 224.56 1589.85 218.195 Q1589.85 211.806 1593 208.195 Q1596.17 204.584 1601.75 204.584 Z" fill="#000000" fill-rule="evenodd" fill-opacity="1" /><path clip-path="url(#clip980)" d="M 0 0 M1618.23 205.209 L1622.49 205.209 L1627.81 225.44 L1633.11 205.209 L1638.14 205.209 L1643.46 225.44 L1648.76 205.209 L1653.02 205.209 L1646.24 231.134 L1641.22 231.134 L1635.64 209.885 L1630.04 231.134 L1625.01 231.134 L1618.23 205.209 Z" fill="#000000" fill-rule="evenodd" fill-opacity="1" /><path clip-path="url(#clip980)" d="M 0 0 M1687.67 195.116 L1687.67 198.658 L1683.6 198.658 Q1681.31 198.658 1680.41 199.584 Q1679.53 200.51 1679.53 202.917 L1679.53 205.209 L1686.54 205.209 L1686.54 208.519 L1679.53 208.519 L1679.53 231.134 L1675.24 231.134 L1675.24 208.519 L1671.17 208.519 L1671.17 205.209 L1675.24 205.209 L1675.24 203.403 Q1675.24 199.074 1677.26 197.107 Q1679.27 195.116 1683.65 195.116 L1687.67 195.116 Z" fill="#000000" fill-rule="evenodd" fill-opacity="1" /><path clip-path="url(#clip980)" d="M 0 0 M1701.29 208.195 Q1697.86 208.195 1695.87 210.88 Q1693.88 213.542 1693.88 218.195 Q1693.88 222.847 1695.85 225.533 Q1697.84 228.195 1701.29 228.195 Q1704.69 228.195 1706.68 225.51 Q1708.67 222.824 1708.67 218.195 Q1708.67 213.588 1706.68 210.903 Q1704.69 208.195 1701.29 208.195 M1701.29 204.584 Q1706.84 204.584 1710.01 208.195 Q1713.18 211.806 1713.18 218.195 Q1713.18 224.56 1710.01 228.195 Q1706.84 231.806 1701.29 231.806 Q1695.71 231.806 1692.54 228.195 Q1689.39 224.56 1689.39 218.195 Q1689.39 211.806 1692.54 208.195 Q1695.71 204.584 1701.29 204.584 Z" fill="#000000" fill-rule="evenodd" fill-opacity="1" /><path clip-path="url(#clip980)" d="M 0 0 M1735.27 209.19 Q1734.55 208.773 1733.69 208.588 Q1732.86 208.38 1731.84 208.38 Q1728.23 208.38 1726.29 210.741 Q1724.36 213.079 1724.36 217.477 L1724.36 231.134 L1720.08 231.134 L1720.08 205.209 L1724.36 205.209 L1724.36 209.236 Q1725.71 206.875 1727.86 205.741 Q1730.01 204.584 1733.09 204.584 Q1733.53 204.584 1734.06 204.653 Q1734.6 204.699 1735.24 204.815 L1735.27 209.19 Z" fill="#000000" fill-rule="evenodd" fill-opacity="1" /><path clip-path="url(#clip980)" d="M 0 0 M1756.22 227.199 L1763.85 227.199 L1763.85 200.834 L1755.54 202.5 L1755.54 198.241 L1763.81 196.574 L1768.48 196.574 L1768.48 227.199 L1776.12 227.199 L1776.12 231.134 L1756.22 231.134 L1756.22 227.199 Z" fill="#000000" fill-rule="evenodd" fill-opacity="1" /><path clip-path="url(#clip980)" d="M 0 0 M1801.49 205.973 L1801.49 210 Q1799.69 209.074 1797.74 208.611 Q1795.8 208.149 1793.72 208.149 Q1790.54 208.149 1788.95 209.121 Q1787.37 210.093 1787.37 212.037 Q1787.37 213.519 1788.51 214.375 Q1789.64 215.209 1793.07 215.973 L1794.53 216.297 Q1799.06 217.269 1800.96 219.051 Q1802.88 220.81 1802.88 223.982 Q1802.88 227.593 1800.01 229.699 Q1797.16 231.806 1792.17 231.806 Q1790.08 231.806 1787.81 231.389 Q1785.57 230.996 1783.07 230.185 L1783.07 225.787 Q1785.43 227.014 1787.72 227.639 Q1790.01 228.241 1792.26 228.241 Q1795.27 228.241 1796.89 227.222 Q1798.51 226.181 1798.51 224.306 Q1798.51 222.57 1797.33 221.644 Q1796.17 220.718 1792.21 219.861 L1790.73 219.514 Q1786.77 218.681 1785.01 216.968 Q1783.25 215.232 1783.25 212.223 Q1783.25 208.565 1785.85 206.574 Q1788.44 204.584 1793.21 204.584 Q1795.57 204.584 1797.65 204.931 Q1799.73 205.278 1801.49 205.973 Z" fill="#000000" fill-rule="evenodd" fill-opacity="1" /><path clip-path="url(#clip980)" d="M 0 0 M1813.88 197.848 L1813.88 205.209 L1822.65 205.209 L1822.65 208.519 L1813.88 208.519 L1813.88 222.593 Q1813.88 225.764 1814.73 226.667 Q1815.61 227.57 1818.28 227.57 L1822.65 227.57 L1822.65 231.134 L1818.28 231.134 Q1813.35 231.134 1811.47 229.306 Q1809.6 227.454 1809.6 222.593 L1809.6 208.519 L1806.47 208.519 L1806.47 205.209 L1809.6 205.209 L1809.6 197.848 L1813.88 197.848 Z" fill="#000000" fill-rule="evenodd" fill-opacity="1" /><path clip-path="url(#clip980)" d="M 0 0 M1853.37 208.195 Q1849.94 208.195 1847.95 210.88 Q1845.96 213.542 1845.96 218.195 Q1845.96 222.847 1847.93 225.533 Q1849.92 228.195 1853.37 228.195 Q1856.77 228.195 1858.76 225.51 Q1860.75 222.824 1860.75 218.195 Q1860.75 213.588 1858.76 210.903 Q1856.77 208.195 1853.37 208.195 M1853.37 204.584 Q1858.92 204.584 1862.1 208.195 Q1865.27 211.806 1865.27 218.195 Q1865.27 224.56 1862.1 228.195 Q1858.92 231.806 1853.37 231.806 Q1847.79 231.806 1844.62 228.195 Q1841.47 224.56 1841.47 218.195 Q1841.47 211.806 1844.62 208.195 Q1847.79 204.584 1853.37 204.584 Z" fill="#000000" fill-rule="evenodd" fill-opacity="1" /><path clip-path="url(#clip980)" d="M 0 0 M1887.35 209.19 Q1886.63 208.773 1885.78 208.588 Q1884.94 208.38 1883.92 208.38 Q1880.31 208.38 1878.37 210.741 Q1876.45 213.079 1876.45 217.477 L1876.45 231.134 L1872.16 231.134 L1872.16 205.209 L1876.45 205.209 L1876.45 209.236 Q1877.79 206.875 1879.94 205.741 Q1882.1 204.584 1885.17 204.584 Q1885.61 204.584 1886.15 204.653 Q1886.68 204.699 1887.33 204.815 L1887.35 209.19 Z" fill="#000000" fill-rule="evenodd" fill-opacity="1" /><path clip-path="url(#clip980)" d="M 0 0 M1908.04 209.144 L1908.04 195.116 L1912.3 195.116 L1912.3 231.134 L1908.04 231.134 L1908.04 227.246 Q1906.7 229.56 1904.64 230.695 Q1902.6 231.806 1899.73 231.806 Q1895.03 231.806 1892.07 228.056 Q1889.13 224.306 1889.13 218.195 Q1889.13 212.084 1892.07 208.334 Q1895.03 204.584 1899.73 204.584 Q1902.6 204.584 1904.64 205.718 Q1906.7 206.829 1908.04 209.144 M1893.53 218.195 Q1893.53 222.894 1895.45 225.579 Q1897.4 228.241 1900.78 228.241 Q1904.16 228.241 1906.1 225.579 Q1908.04 222.894 1908.04 218.195 Q1908.04 213.496 1906.1 210.834 Q1904.16 208.149 1900.78 208.149 Q1897.4 208.149 1895.45 210.834 Q1893.53 213.496 1893.53 218.195 Z" fill="#000000" fill-rule="evenodd" fill-opacity="1" /><path clip-path="url(#clip980)" d="M 0 0 M1943.25 217.107 L1943.25 219.19 L1923.67 219.19 Q1923.95 223.588 1926.31 225.903 Q1928.69 228.195 1932.93 228.195 Q1935.38 228.195 1937.67 227.593 Q1939.99 226.991 1942.26 225.787 L1942.26 229.815 Q1939.97 230.787 1937.56 231.297 Q1935.15 231.806 1932.67 231.806 Q1926.47 231.806 1922.84 228.195 Q1919.22 224.584 1919.22 218.426 Q1919.22 212.061 1922.65 208.334 Q1926.1 204.584 1931.93 204.584 Q1937.16 204.584 1940.2 207.963 Q1943.25 211.32 1943.25 217.107 M1938.99 215.857 Q1938.95 212.361 1937.03 210.278 Q1935.13 208.195 1931.98 208.195 Q1928.41 208.195 1926.26 210.209 Q1924.13 212.223 1923.81 215.88 L1938.99 215.857 Z" fill="#000000" fill-rule="evenodd" fill-opacity="1" /><path clip-path="url(#clip980)" d="M 0 0 M1965.27 209.19 Q1964.55 208.773 1963.69 208.588 Q1962.86 208.38 1961.84 208.38 Q1958.23 208.38 1956.28 210.741 Q1954.36 213.079 1954.36 217.477 L1954.36 231.134 L1950.08 231.134 L1950.08 205.209 L1954.36 205.209 L1954.36 209.236 Q1955.71 206.875 1957.86 205.741 Q1960.01 204.584 1963.09 204.584 Q1963.53 204.584 1964.06 204.653 Q1964.59 204.699 1965.24 204.815 L1965.27 209.19 Z" fill="#000000" fill-rule="evenodd" fill-opacity="1" /><path clip-path="url(#clip980)" d="M 0 0 M2001.86 209.144 L2001.86 195.116 L2006.12 195.116 L2006.12 231.134 L2001.86 231.134 L2001.86 227.246 Q2000.52 229.56 1998.46 230.695 Q1996.42 231.806 1993.55 231.806 Q1988.85 231.806 1985.89 228.056 Q1982.95 224.306 1982.95 218.195 Q1982.95 212.084 1985.89 208.334 Q1988.85 204.584 1993.55 204.584 Q1996.42 204.584 1998.46 205.718 Q2000.52 206.829 2001.86 209.144 M1987.35 218.195 Q1987.35 222.894 1989.27 225.579 Q1991.21 228.241 1994.59 228.241 Q1997.97 228.241 1999.92 225.579 Q2001.86 222.894 2001.86 218.195 Q2001.86 213.496 1999.92 210.834 Q1997.97 208.149 1994.59 208.149 Q1991.21 208.149 1989.27 210.834 Q1987.35 213.496 1987.35 218.195 Z" fill="#000000" fill-rule="evenodd" fill-opacity="1" /><path clip-path="url(#clip980)" d="M 0 0 M2037.07 217.107 L2037.07 219.19 L2017.49 219.19 Q2017.77 223.588 2020.13 225.903 Q2022.51 228.195 2026.75 228.195 Q2029.2 228.195 2031.49 227.593 Q2033.81 226.991 2036.08 225.787 L2036.08 229.815 Q2033.78 230.787 2031.38 231.297 Q2028.97 231.806 2026.49 231.806 Q2020.29 231.806 2016.65 228.195 Q2013.04 224.584 2013.04 218.426 Q2013.04 212.061 2016.47 208.334 Q2019.92 204.584 2025.75 204.584 Q2030.98 204.584 2034.02 207.963 Q2037.07 211.32 2037.07 217.107 M2032.81 215.857 Q2032.77 212.361 2030.84 210.278 Q2028.95 208.195 2025.8 208.195 Q2022.23 208.195 2020.08 210.209 Q2017.95 212.223 2017.63 215.88 L2032.81 215.857 Z" fill="#000000" fill-rule="evenodd" fill-opacity="1" /><path clip-path="url(#clip980)" d="M 0 0 M2059.08 209.19 Q2058.37 208.773 2057.51 208.588 Q2056.68 208.38 2055.66 208.38 Q2052.05 208.38 2050.1 210.741 Q2048.18 213.079 2048.18 217.477 L2048.18 231.134 L2043.9 231.134 L2043.9 205.209 L2048.18 205.209 L2048.18 209.236 Q2049.52 206.875 2051.68 205.741 Q2053.83 204.584 2056.91 204.584 Q2057.35 204.584 2057.88 204.653 Q2058.41 204.699 2059.06 204.815 L2059.08 209.19 Z" fill="#000000" fill-rule="evenodd" fill-opacity="1" /><path clip-path="url(#clip980)" d="M 0 0 M2063.55 205.209 L2067.81 205.209 L2067.81 231.134 L2063.55 231.134 L2063.55 205.209 M2063.55 195.116 L2067.81 195.116 L2067.81 200.51 L2063.55 200.51 L2063.55 195.116 Z" fill="#000000" fill-rule="evenodd" fill-opacity="1" /><path clip-path="url(#clip980)" d="M 0 0 M2073.67 205.209 L2078.18 205.209 L2086.28 226.968 L2094.39 205.209 L2098.9 205.209 L2089.18 231.134 L2083.39 231.134 L2073.67 205.209 Z" fill="#000000" fill-rule="evenodd" fill-opacity="1" /><path clip-path="url(#clip980)" d="M 0 0 M2116.56 218.102 Q2111.4 218.102 2109.41 219.283 Q2107.42 220.463 2107.42 223.31 Q2107.42 225.579 2108.9 226.922 Q2110.4 228.241 2112.97 228.241 Q2116.52 228.241 2118.64 225.741 Q2120.8 223.218 2120.8 219.051 L2120.8 218.102 L2116.56 218.102 M2125.06 216.343 L2125.06 231.134 L2120.8 231.134 L2120.8 227.199 Q2119.34 229.56 2117.16 230.695 Q2114.99 231.806 2111.84 231.806 Q2107.86 231.806 2105.5 229.584 Q2103.16 227.338 2103.16 223.588 Q2103.16 219.213 2106.08 216.991 Q2109.02 214.769 2114.83 214.769 L2120.8 214.769 L2120.8 214.352 Q2120.8 211.412 2118.85 209.815 Q2116.93 208.195 2113.44 208.195 Q2111.21 208.195 2109.11 208.727 Q2107 209.26 2105.06 210.324 L2105.06 206.389 Q2107.39 205.486 2109.59 205.047 Q2111.79 204.584 2113.88 204.584 Q2119.5 204.584 2122.28 207.5 Q2125.06 210.417 2125.06 216.343 Z" fill="#000000" fill-rule="evenodd" fill-opacity="1" /><path clip-path="url(#clip980)" d="M 0 0 M2138.04 197.848 L2138.04 205.209 L2146.82 205.209 L2146.82 208.519 L2138.04 208.519 L2138.04 222.593 Q2138.04 225.764 2138.9 226.667 Q2139.78 227.57 2142.44 227.57 L2146.82 227.57 L2146.82 231.134 L2142.44 231.134 Q2137.51 231.134 2135.64 229.306 Q2133.76 227.454 2133.76 222.593 L2133.76 208.519 L2130.64 208.519 L2130.64 205.209 L2133.76 205.209 L2133.76 197.848 L2138.04 197.848 Z" fill="#000000" fill-rule="evenodd" fill-opacity="1" /><path clip-path="url(#clip980)" d="M 0 0 M2152.42 205.209 L2156.68 205.209 L2156.68 231.134 L2152.42 231.134 L2152.42 205.209 M2152.42 195.116 L2156.68 195.116 L2156.68 200.51 L2152.42 200.51 L2152.42 195.116 Z" fill="#000000" fill-rule="evenodd" fill-opacity="1" /><path clip-path="url(#clip980)" d="M 0 0 M2162.53 205.209 L2167.05 205.209 L2175.15 226.968 L2183.25 205.209 L2187.76 205.209 L2178.04 231.134 L2172.26 231.134 L2162.53 205.209 Z" fill="#000000" fill-rule="evenodd" fill-opacity="1" /><path clip-path="url(#clip980)" d="M 0 0 M2215.82 217.107 L2215.82 219.19 L2196.24 219.19 Q2196.51 223.588 2198.88 225.903 Q2201.26 228.195 2205.5 228.195 Q2207.95 228.195 2210.24 227.593 Q2212.56 226.991 2214.82 225.787 L2214.82 229.815 Q2212.53 230.787 2210.13 231.297 Q2207.72 231.806 2205.24 231.806 Q2199.04 231.806 2195.4 228.195 Q2191.79 224.584 2191.79 218.426 Q2191.79 212.061 2195.22 208.334 Q2198.67 204.584 2204.5 204.584 Q2209.73 204.584 2212.76 207.963 Q2215.82 211.32 2215.82 217.107 M2211.56 215.857 Q2211.51 212.361 2209.59 210.278 Q2207.7 208.195 2204.55 208.195 Q2200.98 208.195 2198.83 210.209 Q2196.7 212.223 2196.38 215.88 L2211.56 215.857 Z" fill="#000000" fill-rule="evenodd" fill-opacity="1" /><circle clip-path="url(#clip980)" cx="1381.08" cy="274.334" r="23" fill="#3da44d" fill-rule="evenodd" fill-opacity="1" stroke="#000000" stroke-opacity="1" stroke-width="5.12"/>
<path clip-path="url(#clip980)" d="M 0 0 M1477.14 265.689 L1481.4 265.689 L1486.73 285.92 L1492.03 265.689 L1497.05 265.689 L1502.37 285.92 L1507.68 265.689 L1511.94 265.689 L1505.15 291.614 L1500.13 291.614 L1494.55 270.365 L1488.95 291.614 L1483.93 291.614 L1477.14 265.689 Z" fill="#000000" fill-rule="evenodd" fill-opacity="1" /><path clip-path="url(#clip980)" d="M 0 0 M1518.39 265.689 L1522.65 265.689 L1522.65 291.614 L1518.39 291.614 L1518.39 265.689 M1518.39 255.596 L1522.65 255.596 L1522.65 260.99 L1518.39 260.99 L1518.39 255.596 Z" fill="#000000" fill-rule="evenodd" fill-opacity="1" /><path clip-path="url(#clip980)" d="M 0 0 M1553.12 275.966 L1553.12 291.614 L1548.86 291.614 L1548.86 276.105 Q1548.86 272.425 1547.42 270.596 Q1545.99 268.767 1543.12 268.767 Q1539.67 268.767 1537.68 270.966 Q1535.68 273.166 1535.68 276.962 L1535.68 291.614 L1531.4 291.614 L1531.4 265.689 L1535.68 265.689 L1535.68 269.716 Q1537.21 267.379 1539.27 266.221 Q1541.36 265.064 1544.06 265.064 Q1548.53 265.064 1550.82 267.841 Q1553.12 270.596 1553.12 275.966 Z" fill="#000000" fill-rule="evenodd" fill-opacity="1" /><path clip-path="url(#clip980)" d="M 0 0 M1578.67 269.624 L1578.67 255.596 L1582.93 255.596 L1582.93 291.614 L1578.67 291.614 L1578.67 287.726 Q1577.33 290.04 1575.27 291.175 Q1573.23 292.286 1570.36 292.286 Q1565.66 292.286 1562.7 288.536 Q1559.76 284.786 1559.76 278.675 Q1559.76 272.564 1562.7 268.814 Q1565.66 265.064 1570.36 265.064 Q1573.23 265.064 1575.27 266.198 Q1577.33 267.309 1578.67 269.624 M1564.16 278.675 Q1564.16 283.374 1566.08 286.059 Q1568.02 288.721 1571.4 288.721 Q1574.78 288.721 1576.73 286.059 Q1578.67 283.374 1578.67 278.675 Q1578.67 273.976 1576.73 271.314 Q1574.78 268.629 1571.4 268.629 Q1568.02 268.629 1566.08 271.314 Q1564.16 273.976 1564.16 278.675 Z" fill="#000000" fill-rule="evenodd" fill-opacity="1" /><path clip-path="url(#clip980)" d="M 0 0 M1601.75 268.675 Q1598.32 268.675 1596.33 271.36 Q1594.34 274.022 1594.34 278.675 Q1594.34 283.327 1596.31 286.013 Q1598.3 288.675 1601.75 288.675 Q1605.15 288.675 1607.14 285.99 Q1609.13 283.304 1609.13 278.675 Q1609.13 274.068 1607.14 271.383 Q1605.15 268.675 1601.75 268.675 M1601.75 265.064 Q1607.3 265.064 1610.48 268.675 Q1613.65 272.286 1613.65 278.675 Q1613.65 285.04 1610.48 288.675 Q1607.3 292.286 1601.75 292.286 Q1596.17 292.286 1593 288.675 Q1589.85 285.04 1589.85 278.675 Q1589.85 272.286 1593 268.675 Q1596.17 265.064 1601.75 265.064 Z" fill="#000000" fill-rule="evenodd" fill-opacity="1" /><path clip-path="url(#clip980)" d="M 0 0 M1618.23 265.689 L1622.49 265.689 L1627.81 285.92 L1633.11 265.689 L1638.14 265.689 L1643.46 285.92 L1648.76 265.689 L1653.02 265.689 L1646.24 291.614 L1641.22 291.614 L1635.64 270.365 L1630.04 291.614 L1625.01 291.614 L1618.23 265.689 Z" fill="#000000" fill-rule="evenodd" fill-opacity="1" /><path clip-path="url(#clip980)" d="M 0 0 M1687.67 255.596 L1687.67 259.138 L1683.6 259.138 Q1681.31 259.138 1680.41 260.064 Q1679.53 260.99 1679.53 263.397 L1679.53 265.689 L1686.54 265.689 L1686.54 268.999 L1679.53 268.999 L1679.53 291.614 L1675.24 291.614 L1675.24 268.999 L1671.17 268.999 L1671.17 265.689 L1675.24 265.689 L1675.24 263.883 Q1675.24 259.554 1677.26 257.587 Q1679.27 255.596 1683.65 255.596 L1687.67 255.596 Z" fill="#000000" fill-rule="evenodd" fill-opacity="1" /><path clip-path="url(#clip980)" d="M 0 0 M1701.29 268.675 Q1697.86 268.675 1695.87 271.36 Q1693.88 274.022 1693.88 278.675 Q1693.88 283.327 1695.85 286.013 Q1697.84 288.675 1701.29 288.675 Q1704.69 288.675 1706.68 285.99 Q1708.67 283.304 1708.67 278.675 Q1708.67 274.068 1706.68 271.383 Q1704.69 268.675 1701.29 268.675 M1701.29 265.064 Q1706.84 265.064 1710.01 268.675 Q1713.18 272.286 1713.18 278.675 Q1713.18 285.04 1710.01 288.675 Q1706.84 292.286 1701.29 292.286 Q1695.71 292.286 1692.54 288.675 Q1689.39 285.04 1689.39 278.675 Q1689.39 272.286 1692.54 268.675 Q1695.71 265.064 1701.29 265.064 Z" fill="#000000" fill-rule="evenodd" fill-opacity="1" /><path clip-path="url(#clip980)" d="M 0 0 M1735.27 269.67 Q1734.55 269.253 1733.69 269.068 Q1732.86 268.86 1731.84 268.86 Q1728.23 268.86 1726.29 271.221 Q1724.36 273.559 1724.36 277.957 L1724.36 291.614 L1720.08 291.614 L1720.08 265.689 L1724.36 265.689 L1724.36 269.716 Q1725.71 267.355 1727.86 266.221 Q1730.01 265.064 1733.09 265.064 Q1733.53 265.064 1734.06 265.133 Q1734.6 265.179 1735.24 265.295 L1735.27 269.67 Z" fill="#000000" fill-rule="evenodd" fill-opacity="1" /><path clip-path="url(#clip980)" d="M 0 0 M1759.43 287.679 L1775.75 287.679 L1775.75 291.614 L1753.81 291.614 L1753.81 287.679 Q1756.47 284.925 1761.05 280.295 Q1765.66 275.642 1766.84 274.3 Q1769.09 271.777 1769.97 270.041 Q1770.87 268.281 1770.87 266.591 Q1770.87 263.837 1768.92 262.101 Q1767 260.365 1763.9 260.365 Q1761.7 260.365 1759.25 261.129 Q1756.82 261.892 1754.04 263.443 L1754.04 258.721 Q1756.86 257.587 1759.32 257.008 Q1761.77 256.429 1763.81 256.429 Q1769.18 256.429 1772.37 259.115 Q1775.57 261.8 1775.57 266.291 Q1775.57 268.42 1774.76 270.341 Q1773.97 272.24 1771.86 274.832 Q1771.29 275.503 1768.18 278.721 Q1765.08 281.915 1759.43 287.679 Z" fill="#000000" fill-rule="evenodd" fill-opacity="1" /><path clip-path="url(#clip980)" d="M 0 0 M1806.52 275.966 L1806.52 291.614 L1802.26 291.614 L1802.26 276.105 Q1802.26 272.425 1800.82 270.596 Q1799.39 268.767 1796.52 268.767 Q1793.07 268.767 1791.08 270.966 Q1789.09 273.166 1789.09 276.962 L1789.09 291.614 L1784.8 291.614 L1784.8 265.689 L1789.09 265.689 L1789.09 269.716 Q1790.61 267.379 1792.67 266.221 Q1794.76 265.064 1797.47 265.064 Q1801.93 265.064 1804.23 267.841 Q1806.52 270.596 1806.52 275.966 Z" fill="#000000" fill-rule="evenodd" fill-opacity="1" /><path clip-path="url(#clip980)" d="M 0 0 M1832.07 269.624 L1832.07 255.596 L1836.33 255.596 L1836.33 291.614 L1832.07 291.614 L1832.07 287.726 Q1830.73 290.04 1828.67 291.175 Q1826.63 292.286 1823.76 292.286 Q1819.06 292.286 1816.1 288.536 Q1813.16 284.786 1813.16 278.675 Q1813.16 272.564 1816.1 268.814 Q1819.06 265.064 1823.76 265.064 Q1826.63 265.064 1828.67 266.198 Q1830.73 267.309 1832.07 269.624 M1817.56 278.675 Q1817.56 283.374 1819.48 286.059 Q1821.42 288.721 1824.8 288.721 Q1828.18 288.721 1830.13 286.059 Q1832.07 283.374 1832.07 278.675 Q1832.07 273.976 1830.13 271.314 Q1828.18 268.629 1824.8 268.629 Q1821.42 268.629 1819.48 271.314 Q1817.56 273.976 1817.56 278.675 Z" fill="#000000" fill-rule="evenodd" fill-opacity="1" /><path clip-path="url(#clip980)" d="M 0 0 M1870.22 268.675 Q1866.79 268.675 1864.8 271.36 Q1862.81 274.022 1862.81 278.675 Q1862.81 283.327 1864.78 286.013 Q1866.77 288.675 1870.22 288.675 Q1873.62 288.675 1875.61 285.99 Q1877.6 283.304 1877.6 278.675 Q1877.6 274.068 1875.61 271.383 Q1873.62 268.675 1870.22 268.675 M1870.22 265.064 Q1875.78 265.064 1878.95 268.675 Q1882.12 272.286 1882.12 278.675 Q1882.12 285.04 1878.95 288.675 Q1875.78 292.286 1870.22 292.286 Q1864.64 292.286 1861.47 288.675 Q1858.32 285.04 1858.32 278.675 Q1858.32 272.286 1861.47 268.675 Q1864.64 265.064 1870.22 265.064 Z" fill="#000000" fill-rule="evenodd" fill-opacity="1" /><path clip-path="url(#clip980)" d="M 0 0 M1904.2 269.67 Q1903.48 269.253 1902.63 269.068 Q1901.79 268.86 1900.78 268.86 Q1897.16 268.86 1895.22 271.221 Q1893.3 273.559 1893.3 277.957 L1893.3 291.614 L1889.02 291.614 L1889.02 265.689 L1893.3 265.689 L1893.3 269.716 Q1894.64 267.355 1896.79 266.221 Q1898.95 265.064 1902.03 265.064 Q1902.47 265.064 1903 265.133 Q1903.53 265.179 1904.18 265.295 L1904.2 269.67 Z" fill="#000000" fill-rule="evenodd" fill-opacity="1" /><path clip-path="url(#clip980)" d="M 0 0 M1924.9 269.624 L1924.9 255.596 L1929.16 255.596 L1929.16 291.614 L1924.9 291.614 L1924.9 287.726 Q1923.55 290.04 1921.49 291.175 Q1919.46 292.286 1916.59 292.286 Q1911.89 292.286 1908.92 288.536 Q1905.98 284.786 1905.98 278.675 Q1905.98 272.564 1908.92 268.814 Q1911.89 265.064 1916.59 265.064 Q1919.46 265.064 1921.49 266.198 Q1923.55 267.309 1924.9 269.624 M1910.38 278.675 Q1910.38 283.374 1912.3 286.059 Q1914.25 288.721 1917.63 288.721 Q1921.01 288.721 1922.95 286.059 Q1924.9 283.374 1924.9 278.675 Q1924.9 273.976 1922.95 271.314 Q1921.01 268.629 1917.63 268.629 Q1914.25 268.629 1912.3 271.314 Q1910.38 273.976 1910.38 278.675 Z" fill="#000000" fill-rule="evenodd" fill-opacity="1" /><path clip-path="url(#clip980)" d="M 0 0 M1960.1 277.587 L1960.1 279.67 L1940.52 279.67 Q1940.8 284.068 1943.16 286.383 Q1945.54 288.675 1949.78 288.675 Q1952.23 288.675 1954.53 288.073 Q1956.84 287.471 1959.11 286.267 L1959.11 290.295 Q1956.82 291.267 1954.41 291.777 Q1952 292.286 1949.53 292.286 Q1943.32 292.286 1939.69 288.675 Q1936.08 285.064 1936.08 278.906 Q1936.08 272.541 1939.5 268.814 Q1942.95 265.064 1948.78 265.064 Q1954.02 265.064 1957.05 268.443 Q1960.1 271.8 1960.1 277.587 M1955.84 276.337 Q1955.8 272.841 1953.88 270.758 Q1951.98 268.675 1948.83 268.675 Q1945.27 268.675 1943.11 270.689 Q1940.98 272.703 1940.66 276.36 L1955.84 276.337 Z" fill="#000000" fill-rule="evenodd" fill-opacity="1" /><path clip-path="url(#clip980)" d="M 0 0 M1982.12 269.67 Q1981.4 269.253 1980.54 269.068 Q1979.71 268.86 1978.69 268.86 Q1975.08 268.86 1973.14 271.221 Q1971.21 273.559 1971.21 277.957 L1971.21 291.614 L1966.93 291.614 L1966.93 265.689 L1971.21 265.689 L1971.21 269.716 Q1972.56 267.355 1974.71 266.221 Q1976.86 265.064 1979.94 265.064 Q1980.38 265.064 1980.91 265.133 Q1981.45 265.179 1982.09 265.295 L1982.12 269.67 Z" fill="#000000" fill-rule="evenodd" fill-opacity="1" /><path clip-path="url(#clip980)" d="M 0 0 M2018.71 269.624 L2018.71 255.596 L2022.97 255.596 L2022.97 291.614 L2018.71 291.614 L2018.71 287.726 Q2017.37 290.04 2015.31 291.175 Q2013.27 292.286 2010.4 292.286 Q2005.71 292.286 2002.74 288.536 Q1999.8 284.786 1999.8 278.675 Q1999.8 272.564 2002.74 268.814 Q2005.71 265.064 2010.4 265.064 Q2013.27 265.064 2015.31 266.198 Q2017.37 267.309 2018.71 269.624 M2004.2 278.675 Q2004.2 283.374 2006.12 286.059 Q2008.07 288.721 2011.45 288.721 Q2014.83 288.721 2016.77 286.059 Q2018.71 283.374 2018.71 278.675 Q2018.71 273.976 2016.77 271.314 Q2014.83 268.629 2011.45 268.629 Q2008.07 268.629 2006.12 271.314 Q2004.2 273.976 2004.2 278.675 Z" fill="#000000" fill-rule="evenodd" fill-opacity="1" /><path clip-path="url(#clip980)" d="M 0 0 M2053.92 277.587 L2053.92 279.67 L2034.34 279.67 Q2034.62 284.068 2036.98 286.383 Q2039.36 288.675 2043.6 288.675 Q2046.05 288.675 2048.34 288.073 Q2050.66 287.471 2052.93 286.267 L2052.93 290.295 Q2050.64 291.267 2048.23 291.777 Q2045.82 292.286 2043.34 292.286 Q2037.14 292.286 2033.51 288.675 Q2029.9 285.064 2029.9 278.906 Q2029.9 272.541 2033.32 268.814 Q2036.77 265.064 2042.6 265.064 Q2047.83 265.064 2050.87 268.443 Q2053.92 271.8 2053.92 277.587 M2049.66 276.337 Q2049.62 272.841 2047.7 270.758 Q2045.8 268.675 2042.65 268.675 Q2039.08 268.675 2036.93 270.689 Q2034.8 272.703 2034.48 276.36 L2049.66 276.337 Z" fill="#000000" fill-rule="evenodd" fill-opacity="1" /><path clip-path="url(#clip980)" d="M 0 0 M2075.94 269.67 Q2075.22 269.253 2074.36 269.068 Q2073.53 268.86 2072.51 268.86 Q2068.9 268.86 2066.96 271.221 Q2065.03 273.559 2065.03 277.957 L2065.03 291.614 L2060.75 291.614 L2060.75 265.689 L2065.03 265.689 L2065.03 269.716 Q2066.38 267.355 2068.53 266.221 Q2070.68 265.064 2073.76 265.064 Q2074.2 265.064 2074.73 265.133 Q2075.27 265.179 2075.91 265.295 L2075.94 269.67 Z" fill="#000000" fill-rule="evenodd" fill-opacity="1" /><path clip-path="url(#clip980)" d="M 0 0 M2080.4 265.689 L2084.66 265.689 L2084.66 291.614 L2080.4 291.614 L2080.4 265.689 M2080.4 255.596 L2084.66 255.596 L2084.66 260.99 L2080.4 260.99 L2080.4 255.596 Z" fill="#000000" fill-rule="evenodd" fill-opacity="1" /><path clip-path="url(#clip980)" d="M 0 0 M2090.52 265.689 L2095.03 265.689 L2103.14 287.448 L2111.24 265.689 L2115.75 265.689 L2106.03 291.614 L2100.24 291.614 L2090.52 265.689 Z" fill="#000000" fill-rule="evenodd" fill-opacity="1" /><path clip-path="url(#clip980)" d="M 0 0 M2133.41 278.582 Q2128.25 278.582 2126.26 279.763 Q2124.27 280.943 2124.27 283.79 Q2124.27 286.059 2125.75 287.402 Q2127.26 288.721 2129.83 288.721 Q2133.37 288.721 2135.5 286.221 Q2137.65 283.698 2137.65 279.531 L2137.65 278.582 L2133.41 278.582 M2141.91 276.823 L2141.91 291.614 L2137.65 291.614 L2137.65 287.679 Q2136.19 290.04 2134.02 291.175 Q2131.84 292.286 2128.69 292.286 Q2124.71 292.286 2122.35 290.064 Q2120.01 287.818 2120.01 284.068 Q2120.01 279.693 2122.93 277.471 Q2125.87 275.249 2131.68 275.249 L2137.65 275.249 L2137.65 274.832 Q2137.65 271.892 2135.7 270.295 Q2133.78 268.675 2130.29 268.675 Q2128.07 268.675 2125.96 269.207 Q2123.85 269.74 2121.91 270.804 L2121.91 266.869 Q2124.25 265.966 2126.45 265.527 Q2128.64 265.064 2130.73 265.064 Q2136.35 265.064 2139.13 267.98 Q2141.91 270.897 2141.91 276.823 Z" fill="#000000" fill-rule="evenodd" fill-opacity="1" /><path clip-path="url(#clip980)" d="M 0 0 M2154.89 258.328 L2154.89 265.689 L2163.67 265.689 L2163.67 268.999 L2154.89 268.999 L2154.89 283.073 Q2154.89 286.244 2155.75 287.147 Q2156.63 288.05 2159.29 288.05 L2163.67 288.05 L2163.67 291.614 L2159.29 291.614 Q2154.36 291.614 2152.49 289.786 Q2150.61 287.934 2150.61 283.073 L2150.61 268.999 L2147.49 268.999 L2147.49 265.689 L2150.61 265.689 L2150.61 258.328 L2154.89 258.328 Z" fill="#000000" fill-rule="evenodd" fill-opacity="1" /><path clip-path="url(#clip980)" d="M 0 0 M2169.27 265.689 L2173.53 265.689 L2173.53 291.614 L2169.27 291.614 L2169.27 265.689 M2169.27 255.596 L2173.53 255.596 L2173.53 260.99 L2169.27 260.99 L2169.27 255.596 Z" fill="#000000" fill-rule="evenodd" fill-opacity="1" /><path clip-path="url(#clip980)" d="M 0 0 M2179.39 265.689 L2183.9 265.689 L2192 287.448 L2200.1 265.689 L2204.62 265.689 L2194.89 291.614 L2189.11 291.614 L2179.39 265.689 Z" fill="#000000" fill-rule="evenodd" fill-opacity="1" /><path clip-path="url(#clip980)" d="M 0 0 M2232.67 277.587 L2232.67 279.67 L2213.09 279.67 Q2213.37 284.068 2215.73 286.383 Q2218.11 288.675 2222.35 288.675 Q2224.8 288.675 2227.09 288.073 Q2229.41 287.471 2231.68 286.267 L2231.68 290.295 Q2229.38 291.267 2226.98 291.777 Q2224.57 292.286 2222.09 292.286 Q2215.89 292.286 2212.26 288.675 Q2208.64 285.064 2208.64 278.906 Q2208.64 272.541 2212.07 268.814 Q2215.52 265.064 2221.35 265.064 Q2226.58 265.064 2229.62 268.443 Q2232.67 271.8 2232.67 277.587 M2228.41 276.337 Q2228.37 272.841 2226.45 270.758 Q2224.55 268.675 2221.4 268.675 Q2217.83 268.675 2215.68 270.689 Q2213.55 272.703 2213.23 276.36 L2228.41 276.337 Z" fill="#000000" fill-rule="evenodd" fill-opacity="1" /></svg>
