<?xml version="1.0" encoding="utf-8"?>
<svg xmlns="http://www.w3.org/2000/svg" xmlns:xlink="http://www.w3.org/1999/xlink" width="600" height="400" viewBox="0 0 2400 1600">
<defs>
  <clipPath id="clip620">
    <rect x="0" y="0" width="2400" height="1600"/>
  </clipPath>
</defs>
<path clip-path="url(#clip620)" d="
M0 1600 L2400 1600 L2400 0 L0 0  Z
  " fill="#ffffff" fill-rule="evenodd" fill-opacity="1"/>
<defs>
  <clipPath id="clip621">
    <rect x="480" y="0" width="1681" height="1600"/>
  </clipPath>
</defs>
<path clip-path="url(#clip620)" d="
M102.74 1505.26 L2352.76 1505.26 L2352.76 47.2441 L102.74 47.2441  Z
  " fill="#ffffff" fill-rule="evenodd" fill-opacity="1"/>
<defs>
  <clipPath id="clip622">
    <rect x="102" y="47" width="2251" height="1459"/>
  </clipPath>
</defs>
<polyline clip-path="url(#clip622)" style="stroke:#000000; stroke-width:2; stroke-opacity:0.1; fill:none" points="
  378.685,1505.26 378.685,47.2441 
  "/>
<polyline clip-path="url(#clip622)" style="stroke:#000000; stroke-width:2; stroke-opacity:0.1; fill:none" points="
  803.217,1505.26 803.217,47.2441 
  "/>
<polyline clip-path="url(#clip622)" style="stroke:#000000; stroke-width:2; stroke-opacity:0.1; fill:none" points="
  1227.75,1505.26 1227.75,47.2441 
  "/>
<polyline clip-path="url(#clip622)" style="stroke:#000000; stroke-width:2; stroke-opacity:0.1; fill:none" points="
  1652.28,1505.26 1652.28,47.2441 
  "/>
<polyline clip-path="url(#clip622)" style="stroke:#000000; stroke-width:2; stroke-opacity:0.1; fill:none" points="
  2076.81,1505.26 2076.81,47.2441 
  "/>
<polyline clip-path="url(#clip620)" style="stroke:#000000; stroke-width:4; stroke-opacity:1; fill:none" points="
  102.74,1505.26 2352.76,1505.26 
  "/>
<polyline clip-path="url(#clip620)" style="stroke:#000000; stroke-width:4; stroke-opacity:1; fill:none" points="
  378.685,1505.26 378.685,1487.76 
  "/>
<polyline clip-path="url(#clip620)" style="stroke:#000000; stroke-width:4; stroke-opacity:1; fill:none" points="
  803.217,1505.26 803.217,1487.76 
  "/>
<polyline clip-path="url(#clip620)" style="stroke:#000000; stroke-width:4; stroke-opacity:1; fill:none" points="
  1227.75,1505.26 1227.75,1487.76 
  "/>
<polyline clip-path="url(#clip620)" style="stroke:#000000; stroke-width:4; stroke-opacity:1; fill:none" points="
  1652.28,1505.26 1652.28,1487.76 
  "/>
<polyline clip-path="url(#clip620)" style="stroke:#000000; stroke-width:4; stroke-opacity:1; fill:none" points="
  2076.81,1505.26 2076.81,1487.76 
  "/>
<path clip-path="url(#clip620)" d="M 0 0 M347.586 1549.1 L377.262 1549.1 L377.262 1553.04 L347.586 1553.04 L347.586 1549.1 Z" fill="#000000" fill-rule="evenodd" fill-opacity="1" /><path clip-path="url(#clip620)" d="M 0 0 M400.202 1535.45 L388.396 1553.89 L400.202 1553.89 L400.202 1535.45 M398.975 1531.37 L404.854 1531.37 L404.854 1553.89 L409.785 1553.89 L409.785 1557.78 L404.854 1557.78 L404.854 1565.93 L400.202 1565.93 L400.202 1557.78 L384.6 1557.78 L384.6 1553.27 L398.975 1531.37 Z" fill="#000000" fill-rule="evenodd" fill-opacity="1" /><path clip-path="url(#clip620)" d="M 0 0 M773.159 1549.1 L802.835 1549.1 L802.835 1553.04 L773.159 1553.04 L773.159 1549.1 Z" fill="#000000" fill-rule="evenodd" fill-opacity="1" /><path clip-path="url(#clip620)" d="M 0 0 M816.955 1562 L833.274 1562 L833.274 1565.93 L811.33 1565.93 L811.33 1562 Q813.992 1559.24 818.575 1554.61 Q823.182 1549.96 824.362 1548.62 Q826.608 1546.09 827.487 1544.36 Q828.39 1542.6 828.39 1540.91 Q828.39 1538.15 826.446 1536.42 Q824.525 1534.68 821.423 1534.68 Q819.224 1534.68 816.77 1535.45 Q814.339 1536.21 811.562 1537.76 L811.562 1533.04 Q814.386 1531.9 816.839 1531.33 Q819.293 1530.75 821.33 1530.75 Q826.7 1530.75 829.895 1533.43 Q833.089 1536.12 833.089 1540.61 Q833.089 1542.74 832.279 1544.66 Q831.492 1546.56 829.386 1549.15 Q828.807 1549.82 825.705 1553.04 Q822.603 1556.23 816.955 1562 Z" fill="#000000" fill-rule="evenodd" fill-opacity="1" /><path clip-path="url(#clip620)" d="M 0 0 M1227.75 1534.45 Q1224.14 1534.45 1222.31 1538.02 Q1220.5 1541.56 1220.5 1548.69 Q1220.5 1555.79 1222.31 1559.36 Q1224.14 1562.9 1227.75 1562.9 Q1231.38 1562.9 1233.19 1559.36 Q1235.02 1555.79 1235.02 1548.69 Q1235.02 1541.56 1233.19 1538.02 Q1231.38 1534.45 1227.75 1534.45 M1227.75 1530.75 Q1233.56 1530.75 1236.61 1535.35 Q1239.69 1539.94 1239.69 1548.69 Q1239.69 1557.41 1236.61 1562.02 Q1233.56 1566.6 1227.75 1566.6 Q1221.94 1566.6 1218.86 1562.02 Q1215.8 1557.41 1215.8 1548.69 Q1215.8 1539.94 1218.86 1535.35 Q1221.94 1530.75 1227.75 1530.75 Z" fill="#000000" fill-rule="evenodd" fill-opacity="1" /><path clip-path="url(#clip620)" d="M 0 0 M1646.93 1562 L1663.25 1562 L1663.25 1565.93 L1641.31 1565.93 L1641.31 1562 Q1643.97 1559.24 1648.55 1554.61 Q1653.16 1549.96 1654.34 1548.62 Q1656.58 1546.09 1657.46 1544.36 Q1658.37 1542.6 1658.37 1540.91 Q1658.37 1538.15 1656.42 1536.42 Q1654.5 1534.68 1651.4 1534.68 Q1649.2 1534.68 1646.75 1535.45 Q1644.32 1536.21 1641.54 1537.76 L1641.54 1533.04 Q1644.36 1531.9 1646.82 1531.33 Q1649.27 1530.75 1651.31 1530.75 Q1656.68 1530.75 1659.87 1533.43 Q1663.07 1536.12 1663.07 1540.61 Q1663.07 1542.74 1662.26 1544.66 Q1661.47 1546.56 1659.36 1549.15 Q1658.78 1549.82 1655.68 1553.04 Q1652.58 1556.23 1646.93 1562 Z" fill="#000000" fill-rule="evenodd" fill-opacity="1" /><path clip-path="url(#clip620)" d="M 0 0 M2079.82 1535.45 L2068.01 1553.89 L2079.82 1553.89 L2079.82 1535.45 M2078.59 1531.37 L2084.47 1531.37 L2084.47 1553.89 L2089.4 1553.89 L2089.4 1557.78 L2084.47 1557.78 L2084.47 1565.93 L2079.82 1565.93 L2079.82 1557.78 L2064.22 1557.78 L2064.22 1553.27 L2078.59 1531.37 Z" fill="#000000" fill-rule="evenodd" fill-opacity="1" /><path clip-path="url(#clip620)" d="M 0 0 M1244.36 1614.48 L1231.47 1631.82 L1245.03 1650.12 L1238.12 1650.12 L1227.75 1636.12 L1217.37 1650.12 L1210.47 1650.12 L1224.31 1631.47 L1211.64 1614.48 L1218.55 1614.48 L1228 1627.18 L1237.46 1614.48 L1244.36 1614.48 Z" fill="#000000" fill-rule="evenodd" fill-opacity="1" /><polyline clip-path="url(#clip622)" style="stroke:#000000; stroke-width:2; stroke-opacity:0.1; fill:none" points="
  102.74,1467.47 2352.76,1467.47 
  "/>
<polyline clip-path="url(#clip622)" style="stroke:#000000; stroke-width:2; stroke-opacity:0.1; fill:none" points="
  102.74,1116.41 2352.76,1116.41 
  "/>
<polyline clip-path="url(#clip622)" style="stroke:#000000; stroke-width:2; stroke-opacity:0.1; fill:none" points="
  102.74,765.36 2352.76,765.36 
  "/>
<polyline clip-path="url(#clip622)" style="stroke:#000000; stroke-width:2; stroke-opacity:0.1; fill:none" points="
  102.74,414.306 2352.76,414.306 
  "/>
<polyline clip-path="url(#clip622)" style="stroke:#000000; stroke-width:2; stroke-opacity:0.1; fill:none" points="
  102.74,63.2522 2352.76,63.2522 
  "/>
<polyline clip-path="url(#clip620)" style="stroke:#000000; stroke-width:4; stroke-opacity:1; fill:none" points="
  102.74,1505.26 102.74,47.2441 
  "/>
<polyline clip-path="url(#clip620)" style="stroke:#000000; stroke-width:4; stroke-opacity:1; fill:none" points="
  102.74,1467.47 129.74,1467.47 
  "/>
<polyline clip-path="url(#clip620)" style="stroke:#000000; stroke-width:4; stroke-opacity:1; fill:none" points="
  102.74,1116.41 129.74,1116.41 
  "/>
<polyline clip-path="url(#clip620)" style="stroke:#000000; stroke-width:4; stroke-opacity:1; fill:none" points="
  102.74,765.36 129.74,765.36 
  "/>
<polyline clip-path="url(#clip620)" style="stroke:#000000; stroke-width:4; stroke-opacity:1; fill:none" points="
  102.74,414.306 129.74,414.306 
  "/>
<polyline clip-path="url(#clip620)" style="stroke:#000000; stroke-width:4; stroke-opacity:1; fill:none" points="
  102.74,63.2522 129.74,63.2522 
  "/>
<path clip-path="url(#clip620)" d="M 0 0 M-20.5973 1453.27 Q-24.2084 1453.27 -26.0371 1456.83 Q-27.8427 1460.37 -27.8427 1467.5 Q-27.8427 1474.61 -26.0371 1478.17 Q-24.2084 1481.71 -20.5973 1481.71 Q-16.9631 1481.71 -15.1576 1478.17 Q-13.3289 1474.61 -13.3289 1467.5 Q-13.3289 1460.37 -15.1576 1456.83 Q-16.9631 1453.27 -20.5973 1453.27 M-20.5973 1449.56 Q-14.7872 1449.56 -11.7316 1454.17 Q-8.65296 1458.75 -8.65296 1467.5 Q-8.65296 1476.23 -11.7316 1480.84 Q-14.7872 1485.42 -20.5973 1485.42 Q-26.4075 1485.42 -29.4862 1480.84 Q-32.5417 1476.23 -32.5417 1467.5 Q-32.5417 1458.75 -29.4862 1454.17 Q-26.4075 1449.56 -20.5973 1449.56 Z" fill="#000000" fill-rule="evenodd" fill-opacity="1" /><path clip-path="url(#clip620)" d="M 0 0 M-0.435408 1478.87 L4.44882 1478.87 L4.44882 1484.75 L-0.435408 1484.75 L-0.435408 1478.87 Z" fill="#000000" fill-rule="evenodd" fill-opacity="1" /><path clip-path="url(#clip620)" d="M 0 0 M24.6339 1453.27 Q21.0228 1453.27 19.1941 1456.83 Q17.3886 1460.37 17.3886 1467.5 Q17.3886 1474.61 19.1941 1478.17 Q21.0228 1481.71 24.6339 1481.71 Q28.2681 1481.71 30.0737 1478.17 Q31.9024 1474.61 31.9024 1467.5 Q31.9024 1460.37 30.0737 1456.83 Q28.2681 1453.27 24.6339 1453.27 M24.6339 1449.56 Q30.4441 1449.56 33.4996 1454.17 Q36.5783 1458.75 36.5783 1467.5 Q36.5783 1476.23 33.4996 1480.84 Q30.4441 1485.42 24.6339 1485.42 Q18.8237 1485.42 15.7451 1480.84 Q12.6895 1476.23 12.6895 1467.5 Q12.6895 1458.75 15.7451 1454.17 Q18.8237 1449.56 24.6339 1449.56 Z" fill="#000000" fill-rule="evenodd" fill-opacity="1" /><path clip-path="url(#clip620)" d="M 0 0 M54.7958 1453.27 Q51.1847 1453.27 49.356 1456.83 Q47.5504 1460.37 47.5504 1467.5 Q47.5504 1474.61 49.356 1478.17 Q51.1847 1481.71 54.7958 1481.71 Q58.43 1481.71 60.2356 1478.17 Q62.0643 1474.61 62.0643 1467.5 Q62.0643 1460.37 60.2356 1456.83 Q58.43 1453.27 54.7958 1453.27 M54.7958 1449.56 Q60.6059 1449.56 63.6615 1454.17 Q66.7402 1458.75 66.7402 1467.5 Q66.7402 1476.23 63.6615 1480.84 Q60.6059 1485.42 54.7958 1485.42 Q48.9856 1485.42 45.9069 1480.84 Q42.8514 1476.23 42.8514 1467.5 Q42.8514 1458.75 45.9069 1454.17 Q48.9856 1449.56 54.7958 1449.56 Z" fill="#000000" fill-rule="evenodd" fill-opacity="1" /><path clip-path="url(#clip620)" d="M 0 0 M-19.602 1102.21 Q-23.2131 1102.21 -25.0418 1105.78 Q-26.8473 1109.32 -26.8473 1116.45 Q-26.8473 1123.55 -25.0418 1127.12 Q-23.2131 1130.66 -19.602 1130.66 Q-15.9677 1130.66 -14.1622 1127.12 Q-12.3335 1123.55 -12.3335 1116.45 Q-12.3335 1109.32 -14.1622 1105.78 Q-15.9677 1102.21 -19.602 1102.21 M-19.602 1098.51 Q-13.7918 1098.51 -10.7363 1103.12 Q-7.65759 1107.7 -7.65759 1116.45 Q-7.65759 1125.18 -10.7363 1129.78 Q-13.7918 1134.36 -19.602 1134.36 Q-25.4121 1134.36 -28.4908 1129.78 Q-31.5464 1125.18 -31.5464 1116.45 Q-31.5464 1107.7 -28.4908 1103.12 Q-25.4121 1098.51 -19.602 1098.51 Z" fill="#000000" fill-rule="evenodd" fill-opacity="1" /><path clip-path="url(#clip620)" d="M 0 0 M0.559957 1127.81 L5.44419 1127.81 L5.44419 1133.69 L0.559957 1133.69 L0.559957 1127.81 Z" fill="#000000" fill-rule="evenodd" fill-opacity="1" /><path clip-path="url(#clip620)" d="M 0 0 M19.6571 1129.76 L35.9764 1129.76 L35.9764 1133.69 L14.0321 1133.69 L14.0321 1129.76 Q16.6941 1127 21.2774 1122.37 Q25.8839 1117.72 27.0644 1116.38 Q29.3098 1113.86 30.1894 1112.12 Q31.0922 1110.36 31.0922 1108.67 Q31.0922 1105.92 29.1478 1104.18 Q27.2265 1102.44 24.1246 1102.44 Q21.9256 1102.44 19.4719 1103.21 Q17.0413 1103.97 14.2636 1105.52 L14.2636 1100.8 Q17.0876 1099.67 19.5413 1099.09 Q21.995 1098.51 24.0321 1098.51 Q29.4024 1098.51 32.5968 1101.19 Q35.7912 1103.88 35.7912 1108.37 Q35.7912 1110.5 34.9811 1112.42 Q34.194 1114.32 32.0876 1116.91 Q31.5089 1117.58 28.407 1120.8 Q25.3052 1123.99 19.6571 1129.76 Z" fill="#000000" fill-rule="evenodd" fill-opacity="1" /><path clip-path="url(#clip620)" d="M 0 0 M45.8375 1099.13 L64.1939 1099.13 L64.1939 1103.07 L50.1199 1103.07 L50.1199 1111.54 Q51.1384 1111.19 52.1569 1111.03 Q53.1754 1110.85 54.1939 1110.85 Q59.9809 1110.85 63.3605 1114.02 Q66.7402 1117.19 66.7402 1122.61 Q66.7402 1128.18 63.268 1131.29 Q59.7958 1134.36 53.4763 1134.36 Q51.3004 1134.36 49.0319 1133.99 Q46.7866 1133.62 44.3792 1132.88 L44.3792 1128.18 Q46.4625 1129.32 48.6847 1129.87 Q50.9069 1130.43 53.3837 1130.43 Q57.3884 1130.43 59.7263 1128.32 Q62.0643 1126.22 62.0643 1122.61 Q62.0643 1118.99 59.7263 1116.89 Q57.3884 1114.78 53.3837 1114.78 Q51.5088 1114.78 49.6338 1115.2 Q47.7819 1115.61 45.8375 1116.49 L45.8375 1099.13 Z" fill="#000000" fill-rule="evenodd" fill-opacity="1" /><path clip-path="url(#clip620)" d="M 0 0 M-20.5973 751.158 Q-24.2084 751.158 -26.0371 754.723 Q-27.8427 758.265 -27.8427 765.394 Q-27.8427 772.501 -26.0371 776.066 Q-24.2084 779.607 -20.5973 779.607 Q-16.9631 779.607 -15.1576 776.066 Q-13.3289 772.501 -13.3289 765.394 Q-13.3289 758.265 -15.1576 754.723 Q-16.9631 751.158 -20.5973 751.158 M-20.5973 747.455 Q-14.7872 747.455 -11.7316 752.061 Q-8.65296 756.645 -8.65296 765.394 Q-8.65296 774.121 -11.7316 778.728 Q-14.7872 783.311 -20.5973 783.311 Q-26.4075 783.311 -29.4862 778.728 Q-32.5417 774.121 -32.5417 765.394 Q-32.5417 756.645 -29.4862 752.061 Q-26.4075 747.455 -20.5973 747.455 Z" fill="#000000" fill-rule="evenodd" fill-opacity="1" /><path clip-path="url(#clip620)" d="M 0 0 M-0.435408 776.76 L4.44882 776.76 L4.44882 782.64 L-0.435408 782.64 L-0.435408 776.76 Z" fill="#000000" fill-rule="evenodd" fill-opacity="1" /><path clip-path="url(#clip620)" d="M 0 0 M14.6803 748.08 L33.0366 748.08 L33.0366 752.015 L18.9626 752.015 L18.9626 760.487 Q19.9811 760.14 20.9997 759.978 Q22.0182 759.793 23.0367 759.793 Q28.8237 759.793 32.2033 762.964 Q35.5829 766.135 35.5829 771.552 Q35.5829 777.131 32.1107 780.232 Q28.6385 783.311 22.3191 783.311 Q20.1432 783.311 17.8747 782.941 Q15.6293 782.57 13.2219 781.83 L13.2219 777.131 Q15.3052 778.265 17.5275 778.82 Q19.7497 779.376 22.2265 779.376 Q26.2311 779.376 28.5691 777.269 Q30.907 775.163 30.907 771.552 Q30.907 767.941 28.5691 765.834 Q26.2311 763.728 22.2265 763.728 Q20.3515 763.728 18.4765 764.144 Q16.6247 764.561 14.6803 765.441 L14.6803 748.08 Z" fill="#000000" fill-rule="evenodd" fill-opacity="1" /><path clip-path="url(#clip620)" d="M 0 0 M54.7958 751.158 Q51.1847 751.158 49.356 754.723 Q47.5504 758.265 47.5504 765.394 Q47.5504 772.501 49.356 776.066 Q51.1847 779.607 54.7958 779.607 Q58.43 779.607 60.2356 776.066 Q62.0643 772.501 62.0643 765.394 Q62.0643 758.265 60.2356 754.723 Q58.43 751.158 54.7958 751.158 M54.7958 747.455 Q60.6059 747.455 63.6615 752.061 Q66.7402 756.645 66.7402 765.394 Q66.7402 774.121 63.6615 778.728 Q60.6059 783.311 54.7958 783.311 Q48.9856 783.311 45.9069 778.728 Q42.8514 774.121 42.8514 765.394 Q42.8514 756.645 45.9069 752.061 Q48.9856 747.455 54.7958 747.455 Z" fill="#000000" fill-rule="evenodd" fill-opacity="1" /><path clip-path="url(#clip620)" d="M 0 0 M-19.602 400.105 Q-23.2131 400.105 -25.0418 403.669 Q-26.8473 407.211 -26.8473 414.341 Q-26.8473 421.447 -25.0418 425.012 Q-23.2131 428.554 -19.602 428.554 Q-15.9677 428.554 -14.1622 425.012 Q-12.3335 421.447 -12.3335 414.341 Q-12.3335 407.211 -14.1622 403.669 Q-15.9677 400.105 -19.602 400.105 M-19.602 396.401 Q-13.7918 396.401 -10.7363 401.007 Q-7.65759 405.591 -7.65759 414.341 Q-7.65759 423.067 -10.7363 427.674 Q-13.7918 432.257 -19.602 432.257 Q-25.4121 432.257 -28.4908 427.674 Q-31.5464 423.067 -31.5464 414.341 Q-31.5464 405.591 -28.4908 401.007 Q-25.4121 396.401 -19.602 396.401 Z" fill="#000000" fill-rule="evenodd" fill-opacity="1" /><path clip-path="url(#clip620)" d="M 0 0 M0.559957 425.706 L5.44419 425.706 L5.44419 431.586 L0.559957 431.586 L0.559957 425.706 Z" fill="#000000" fill-rule="evenodd" fill-opacity="1" /><path clip-path="url(#clip620)" d="M 0 0 M14.4488 397.026 L36.6709 397.026 L36.6709 399.017 L24.1246 431.586 L19.2404 431.586 L31.0459 400.961 L14.4488 400.961 L14.4488 397.026 Z" fill="#000000" fill-rule="evenodd" fill-opacity="1" /><path clip-path="url(#clip620)" d="M 0 0 M45.8375 397.026 L64.1939 397.026 L64.1939 400.961 L50.1199 400.961 L50.1199 409.433 Q51.1384 409.086 52.1569 408.924 Q53.1754 408.739 54.1939 408.739 Q59.9809 408.739 63.3605 411.91 Q66.7402 415.081 66.7402 420.498 Q66.7402 426.077 63.268 429.179 Q59.7958 432.257 53.4763 432.257 Q51.3004 432.257 49.0319 431.887 Q46.7866 431.517 44.3792 430.776 L44.3792 426.077 Q46.4625 427.211 48.6847 427.767 Q50.9069 428.322 53.3837 428.322 Q57.3884 428.322 59.7263 426.216 Q62.0643 424.109 62.0643 420.498 Q62.0643 416.887 59.7263 414.781 Q57.3884 412.674 53.3837 412.674 Q51.5088 412.674 49.6338 413.091 Q47.7819 413.507 45.8375 414.387 L45.8375 397.026 Z" fill="#000000" fill-rule="evenodd" fill-opacity="1" /><path clip-path="url(#clip620)" d="M 0 0 M-29.7871 76.597 L-22.1483 76.597 L-22.1483 50.2314 L-30.4584 51.8981 L-30.4584 47.6388 L-22.1946 45.9722 L-17.5187 45.9722 L-17.5187 76.597 L-9.8798 76.597 L-9.8798 80.5322 L-29.7871 80.5322 L-29.7871 76.597 Z" fill="#000000" fill-rule="evenodd" fill-opacity="1" /><path clip-path="url(#clip620)" d="M 0 0 M-0.435408 74.6526 L4.44882 74.6526 L4.44882 80.5322 L-0.435408 80.5322 L-0.435408 74.6526 Z" fill="#000000" fill-rule="evenodd" fill-opacity="1" /><path clip-path="url(#clip620)" d="M 0 0 M24.6339 49.0509 Q21.0228 49.0509 19.1941 52.6157 Q17.3886 56.1573 17.3886 63.2869 Q17.3886 70.3933 19.1941 73.9581 Q21.0228 77.4998 24.6339 77.4998 Q28.2681 77.4998 30.0737 73.9581 Q31.9024 70.3933 31.9024 63.2869 Q31.9024 56.1573 30.0737 52.6157 Q28.2681 49.0509 24.6339 49.0509 M24.6339 45.3472 Q30.4441 45.3472 33.4996 49.9536 Q36.5783 54.537 36.5783 63.2869 Q36.5783 72.0137 33.4996 76.6202 Q30.4441 81.2035 24.6339 81.2035 Q18.8237 81.2035 15.7451 76.6202 Q12.6895 72.0137 12.6895 63.2869 Q12.6895 54.537 15.7451 49.9536 Q18.8237 45.3472 24.6339 45.3472 Z" fill="#000000" fill-rule="evenodd" fill-opacity="1" /><path clip-path="url(#clip620)" d="M 0 0 M54.7958 49.0509 Q51.1847 49.0509 49.356 52.6157 Q47.5504 56.1573 47.5504 63.2869 Q47.5504 70.3933 49.356 73.9581 Q51.1847 77.4998 54.7958 77.4998 Q58.43 77.4998 60.2356 73.9581 Q62.0643 70.3933 62.0643 63.2869 Q62.0643 56.1573 60.2356 52.6157 Q58.43 49.0509 54.7958 49.0509 M54.7958 45.3472 Q60.6059 45.3472 63.6615 49.9536 Q66.7402 54.537 66.7402 63.2869 Q66.7402 72.0137 63.6615 76.6202 Q60.6059 81.2035 54.7958 81.2035 Q48.9856 81.2035 45.9069 76.6202 Q42.8514 72.0137 42.8514 63.2869 Q42.8514 54.537 45.9069 49.9536 Q48.9856 45.3472 54.7958 45.3472 Z" fill="#000000" fill-rule="evenodd" fill-opacity="1" /><path clip-path="url(#clip620)" d="M 0 0 M-79.4876 774.565 Q-73.1218 777.048 -71.1803 779.403 Q-69.2388 781.758 -69.2388 785.705 L-69.2388 790.384 L-74.1404 790.384 L-74.1404 786.946 Q-74.1404 784.527 -75.2862 783.191 Q-76.432 781.854 -80.697 780.231 L-83.3706 779.18 L-118.446 793.599 L-118.446 787.392 L-90.5639 776.252 L-118.446 765.112 L-118.446 758.905 L-79.4876 774.565 Z" fill="#000000" fill-rule="evenodd" fill-opacity="1" /><polyline clip-path="url(#clip622)" style="stroke:#009af9; stroke-width:4; stroke-opacity:1; fill:none" points="
  166.42,1464 187.149,1463.64 378.823,1458.06 494.011,1451.36 591.401,1442.16 697.194,1426.29 794.726,1403.36 847.008,1386.49 899.29,1365.52 959.864,1335.03 
  1020.44,1296.61 1074.27,1254.76 1128.1,1204.84 1175.31,1154.03 1222.51,1096.59 1325.44,950.373 1428.99,783.594 1543.47,597.573 1652.39,440.756 1709.02,371.782 
  1765.65,312.352 1813.32,269.611 1860.99,233.124 1919.19,196.246 1977.39,166.703 2032.1,144.56 2086.8,126.925 2174.45,106.042 2262.1,91.8617 2275.59,90.134 
  2289.08,88.5087 
  "/>
<circle clip-path="url(#clip622)" cx="378.685" cy="1441.36" r="14" fill="#e26f46" fill-rule="evenodd" fill-opacity="1" stroke="#000000" stroke-opacity="1" stroke-width="3.2"/>
<circle clip-path="url(#clip622)" cx="399.912" cy="1428.33" r="14" fill="#e26f46" fill-rule="evenodd" fill-opacity="1" stroke="#000000" stroke-opacity="1" stroke-width="3.2"/>
<circle clip-path="url(#clip622)" cx="421.139" cy="1439.96" r="14" fill="#e26f46" fill-rule="evenodd" fill-opacity="1" stroke="#000000" stroke-opacity="1" stroke-width="3.2"/>
<circle clip-path="url(#clip622)" cx="442.365" cy="1448.36" r="14" fill="#e26f46" fill-rule="evenodd" fill-opacity="1" stroke="#000000" stroke-opacity="1" stroke-width="3.2"/>
<circle clip-path="url(#clip622)" cx="463.592" cy="1459.06" r="14" fill="#e26f46" fill-rule="evenodd" fill-opacity="1" stroke="#000000" stroke-opacity="1" stroke-width="3.2"/>
<circle clip-path="url(#clip622)" cx="484.818" cy="1461.37" r="14" fill="#e26f46" fill-rule="evenodd" fill-opacity="1" stroke="#000000" stroke-opacity="1" stroke-width="3.2"/>
<circle clip-path="url(#clip622)" cx="506.045" cy="1436.66" r="14" fill="#e26f46" fill-rule="evenodd" fill-opacity="1" stroke="#000000" stroke-opacity="1" stroke-width="3.2"/>
<circle clip-path="url(#clip622)" cx="527.271" cy="1449.73" r="14" fill="#e26f46" fill-rule="evenodd" fill-opacity="1" stroke="#000000" stroke-opacity="1" stroke-width="3.2"/>
<circle clip-path="url(#clip622)" cx="548.498" cy="1442.88" r="14" fill="#e26f46" fill-rule="evenodd" fill-opacity="1" stroke="#000000" stroke-opacity="1" stroke-width="3.2"/>
<circle clip-path="url(#clip622)" cx="569.725" cy="1447.3" r="14" fill="#e26f46" fill-rule="evenodd" fill-opacity="1" stroke="#000000" stroke-opacity="1" stroke-width="3.2"/>
<circle clip-path="url(#clip622)" cx="590.951" cy="1446.98" r="14" fill="#e26f46" fill-rule="evenodd" fill-opacity="1" stroke="#000000" stroke-opacity="1" stroke-width="3.2"/>
<circle clip-path="url(#clip622)" cx="612.178" cy="1451.46" r="14" fill="#e26f46" fill-rule="evenodd" fill-opacity="1" stroke="#000000" stroke-opacity="1" stroke-width="3.2"/>
<circle clip-path="url(#clip622)" cx="633.404" cy="1449.22" r="14" fill="#e26f46" fill-rule="evenodd" fill-opacity="1" stroke="#000000" stroke-opacity="1" stroke-width="3.2"/>
<circle clip-path="url(#clip622)" cx="654.631" cy="1428.99" r="14" fill="#e26f46" fill-rule="evenodd" fill-opacity="1" stroke="#000000" stroke-opacity="1" stroke-width="3.2"/>
<circle clip-path="url(#clip622)" cx="675.857" cy="1421.8" r="14" fill="#e26f46" fill-rule="evenodd" fill-opacity="1" stroke="#000000" stroke-opacity="1" stroke-width="3.2"/>
<circle clip-path="url(#clip622)" cx="697.084" cy="1421.14" r="14" fill="#e26f46" fill-rule="evenodd" fill-opacity="1" stroke="#000000" stroke-opacity="1" stroke-width="3.2"/>
<circle clip-path="url(#clip622)" cx="718.311" cy="1426.07" r="14" fill="#e26f46" fill-rule="evenodd" fill-opacity="1" stroke="#000000" stroke-opacity="1" stroke-width="3.2"/>
<circle clip-path="url(#clip622)" cx="739.537" cy="1427.84" r="14" fill="#e26f46" fill-rule="evenodd" fill-opacity="1" stroke="#000000" stroke-opacity="1" stroke-width="3.2"/>
<circle clip-path="url(#clip622)" cx="760.764" cy="1422.54" r="14" fill="#e26f46" fill-rule="evenodd" fill-opacity="1" stroke="#000000" stroke-opacity="1" stroke-width="3.2"/>
<circle clip-path="url(#clip622)" cx="781.99" cy="1417.82" r="14" fill="#e26f46" fill-rule="evenodd" fill-opacity="1" stroke="#000000" stroke-opacity="1" stroke-width="3.2"/>
<circle clip-path="url(#clip622)" cx="803.217" cy="1414.63" r="14" fill="#e26f46" fill-rule="evenodd" fill-opacity="1" stroke="#000000" stroke-opacity="1" stroke-width="3.2"/>
<circle clip-path="url(#clip622)" cx="824.443" cy="1390.58" r="14" fill="#e26f46" fill-rule="evenodd" fill-opacity="1" stroke="#000000" stroke-opacity="1" stroke-width="3.2"/>
<circle clip-path="url(#clip622)" cx="845.67" cy="1393.55" r="14" fill="#e26f46" fill-rule="evenodd" fill-opacity="1" stroke="#000000" stroke-opacity="1" stroke-width="3.2"/>
<circle clip-path="url(#clip622)" cx="866.896" cy="1391.41" r="14" fill="#e26f46" fill-rule="evenodd" fill-opacity="1" stroke="#000000" stroke-opacity="1" stroke-width="3.2"/>
<circle clip-path="url(#clip622)" cx="888.123" cy="1366.48" r="14" fill="#e26f46" fill-rule="evenodd" fill-opacity="1" stroke="#000000" stroke-opacity="1" stroke-width="3.2"/>
<circle clip-path="url(#clip622)" cx="909.35" cy="1339.55" r="14" fill="#e26f46" fill-rule="evenodd" fill-opacity="1" stroke="#000000" stroke-opacity="1" stroke-width="3.2"/>
<circle clip-path="url(#clip622)" cx="930.576" cy="1375.64" r="14" fill="#e26f46" fill-rule="evenodd" fill-opacity="1" stroke="#000000" stroke-opacity="1" stroke-width="3.2"/>
<circle clip-path="url(#clip622)" cx="951.803" cy="1380.7" r="14" fill="#e26f46" fill-rule="evenodd" fill-opacity="1" stroke="#000000" stroke-opacity="1" stroke-width="3.2"/>
<circle clip-path="url(#clip622)" cx="973.029" cy="1316.41" r="14" fill="#e26f46" fill-rule="evenodd" fill-opacity="1" stroke="#000000" stroke-opacity="1" stroke-width="3.2"/>
<circle clip-path="url(#clip622)" cx="994.256" cy="1281.78" r="14" fill="#e26f46" fill-rule="evenodd" fill-opacity="1" stroke="#000000" stroke-opacity="1" stroke-width="3.2"/>
<circle clip-path="url(#clip622)" cx="1015.48" cy="1312.31" r="14" fill="#e26f46" fill-rule="evenodd" fill-opacity="1" stroke="#000000" stroke-opacity="1" stroke-width="3.2"/>
<circle clip-path="url(#clip622)" cx="1036.71" cy="1279.91" r="14" fill="#e26f46" fill-rule="evenodd" fill-opacity="1" stroke="#000000" stroke-opacity="1" stroke-width="3.2"/>
<circle clip-path="url(#clip622)" cx="1057.94" cy="1270.47" r="14" fill="#e26f46" fill-rule="evenodd" fill-opacity="1" stroke="#000000" stroke-opacity="1" stroke-width="3.2"/>
<circle clip-path="url(#clip622)" cx="1079.16" cy="1217.8" r="14" fill="#e26f46" fill-rule="evenodd" fill-opacity="1" stroke="#000000" stroke-opacity="1" stroke-width="3.2"/>
<circle clip-path="url(#clip622)" cx="1100.39" cy="1245.6" r="14" fill="#e26f46" fill-rule="evenodd" fill-opacity="1" stroke="#000000" stroke-opacity="1" stroke-width="3.2"/>
<circle clip-path="url(#clip622)" cx="1121.62" cy="1210.36" r="14" fill="#e26f46" fill-rule="evenodd" fill-opacity="1" stroke="#000000" stroke-opacity="1" stroke-width="3.2"/>
<circle clip-path="url(#clip622)" cx="1142.84" cy="1214.18" r="14" fill="#e26f46" fill-rule="evenodd" fill-opacity="1" stroke="#000000" stroke-opacity="1" stroke-width="3.2"/>
<circle clip-path="url(#clip622)" cx="1164.07" cy="1179.1" r="14" fill="#e26f46" fill-rule="evenodd" fill-opacity="1" stroke="#000000" stroke-opacity="1" stroke-width="3.2"/>
<circle clip-path="url(#clip622)" cx="1185.29" cy="1145.99" r="14" fill="#e26f46" fill-rule="evenodd" fill-opacity="1" stroke="#000000" stroke-opacity="1" stroke-width="3.2"/>
<circle clip-path="url(#clip622)" cx="1206.52" cy="1105.35" r="14" fill="#e26f46" fill-rule="evenodd" fill-opacity="1" stroke="#000000" stroke-opacity="1" stroke-width="3.2"/>
<circle clip-path="url(#clip622)" cx="1227.75" cy="1105.61" r="14" fill="#e26f46" fill-rule="evenodd" fill-opacity="1" stroke="#000000" stroke-opacity="1" stroke-width="3.2"/>
<circle clip-path="url(#clip622)" cx="1248.97" cy="1066.41" r="14" fill="#e26f46" fill-rule="evenodd" fill-opacity="1" stroke="#000000" stroke-opacity="1" stroke-width="3.2"/>
<circle clip-path="url(#clip622)" cx="1270.2" cy="1035.53" r="14" fill="#e26f46" fill-rule="evenodd" fill-opacity="1" stroke="#000000" stroke-opacity="1" stroke-width="3.2"/>
<circle clip-path="url(#clip622)" cx="1291.43" cy="980.019" r="14" fill="#e26f46" fill-rule="evenodd" fill-opacity="1" stroke="#000000" stroke-opacity="1" stroke-width="3.2"/>
<circle clip-path="url(#clip622)" cx="1312.65" cy="964.087" r="14" fill="#e26f46" fill-rule="evenodd" fill-opacity="1" stroke="#000000" stroke-opacity="1" stroke-width="3.2"/>
<circle clip-path="url(#clip622)" cx="1333.88" cy="940.515" r="14" fill="#e26f46" fill-rule="evenodd" fill-opacity="1" stroke="#000000" stroke-opacity="1" stroke-width="3.2"/>
<circle clip-path="url(#clip622)" cx="1355.11" cy="906.548" r="14" fill="#e26f46" fill-rule="evenodd" fill-opacity="1" stroke="#000000" stroke-opacity="1" stroke-width="3.2"/>
<circle clip-path="url(#clip622)" cx="1376.33" cy="848.383" r="14" fill="#e26f46" fill-rule="evenodd" fill-opacity="1" stroke="#000000" stroke-opacity="1" stroke-width="3.2"/>
<circle clip-path="url(#clip622)" cx="1397.56" cy="879.476" r="14" fill="#e26f46" fill-rule="evenodd" fill-opacity="1" stroke="#000000" stroke-opacity="1" stroke-width="3.2"/>
<circle clip-path="url(#clip622)" cx="1418.79" cy="820.657" r="14" fill="#e26f46" fill-rule="evenodd" fill-opacity="1" stroke="#000000" stroke-opacity="1" stroke-width="3.2"/>
<circle clip-path="url(#clip622)" cx="1440.01" cy="762.289" r="14" fill="#e26f46" fill-rule="evenodd" fill-opacity="1" stroke="#000000" stroke-opacity="1" stroke-width="3.2"/>
<circle clip-path="url(#clip622)" cx="1461.24" cy="733.194" r="14" fill="#e26f46" fill-rule="evenodd" fill-opacity="1" stroke="#000000" stroke-opacity="1" stroke-width="3.2"/>
<circle clip-path="url(#clip622)" cx="1482.47" cy="677.231" r="14" fill="#e26f46" fill-rule="evenodd" fill-opacity="1" stroke="#000000" stroke-opacity="1" stroke-width="3.2"/>
<circle clip-path="url(#clip622)" cx="1503.69" cy="644.402" r="14" fill="#e26f46" fill-rule="evenodd" fill-opacity="1" stroke="#000000" stroke-opacity="1" stroke-width="3.2"/>
<circle clip-path="url(#clip622)" cx="1524.92" cy="626.349" r="14" fill="#e26f46" fill-rule="evenodd" fill-opacity="1" stroke="#000000" stroke-opacity="1" stroke-width="3.2"/>
<circle clip-path="url(#clip622)" cx="1546.15" cy="609.411" r="14" fill="#e26f46" fill-rule="evenodd" fill-opacity="1" stroke="#000000" stroke-opacity="1" stroke-width="3.2"/>
<circle clip-path="url(#clip622)" cx="1567.37" cy="554.723" r="14" fill="#e26f46" fill-rule="evenodd" fill-opacity="1" stroke="#000000" stroke-opacity="1" stroke-width="3.2"/>
<circle clip-path="url(#clip622)" cx="1588.6" cy="533.602" r="14" fill="#e26f46" fill-rule="evenodd" fill-opacity="1" stroke="#000000" stroke-opacity="1" stroke-width="3.2"/>
<circle clip-path="url(#clip622)" cx="1609.83" cy="506.302" r="14" fill="#e26f46" fill-rule="evenodd" fill-opacity="1" stroke="#000000" stroke-opacity="1" stroke-width="3.2"/>
<circle clip-path="url(#clip622)" cx="1631.05" cy="478.07" r="14" fill="#e26f46" fill-rule="evenodd" fill-opacity="1" stroke="#000000" stroke-opacity="1" stroke-width="3.2"/>
<circle clip-path="url(#clip622)" cx="1652.28" cy="431.555" r="14" fill="#e26f46" fill-rule="evenodd" fill-opacity="1" stroke="#000000" stroke-opacity="1" stroke-width="3.2"/>
<circle clip-path="url(#clip622)" cx="1673.51" cy="426.863" r="14" fill="#e26f46" fill-rule="evenodd" fill-opacity="1" stroke="#000000" stroke-opacity="1" stroke-width="3.2"/>
<circle clip-path="url(#clip622)" cx="1694.73" cy="390.348" r="14" fill="#e26f46" fill-rule="evenodd" fill-opacity="1" stroke="#000000" stroke-opacity="1" stroke-width="3.2"/>
<circle clip-path="url(#clip622)" cx="1715.96" cy="365.704" r="14" fill="#e26f46" fill-rule="evenodd" fill-opacity="1" stroke="#000000" stroke-opacity="1" stroke-width="3.2"/>
<circle clip-path="url(#clip622)" cx="1737.19" cy="329.209" r="14" fill="#e26f46" fill-rule="evenodd" fill-opacity="1" stroke="#000000" stroke-opacity="1" stroke-width="3.2"/>
<circle clip-path="url(#clip622)" cx="1758.41" cy="326.479" r="14" fill="#e26f46" fill-rule="evenodd" fill-opacity="1" stroke="#000000" stroke-opacity="1" stroke-width="3.2"/>
<circle clip-path="url(#clip622)" cx="1779.64" cy="284.737" r="14" fill="#e26f46" fill-rule="evenodd" fill-opacity="1" stroke="#000000" stroke-opacity="1" stroke-width="3.2"/>
<circle clip-path="url(#clip622)" cx="1800.87" cy="295.02" r="14" fill="#e26f46" fill-rule="evenodd" fill-opacity="1" stroke="#000000" stroke-opacity="1" stroke-width="3.2"/>
<circle clip-path="url(#clip622)" cx="1822.09" cy="259.936" r="14" fill="#e26f46" fill-rule="evenodd" fill-opacity="1" stroke="#000000" stroke-opacity="1" stroke-width="3.2"/>
<circle clip-path="url(#clip622)" cx="1843.32" cy="207.005" r="14" fill="#e26f46" fill-rule="evenodd" fill-opacity="1" stroke="#000000" stroke-opacity="1" stroke-width="3.2"/>
<circle clip-path="url(#clip622)" cx="1864.54" cy="245.15" r="14" fill="#e26f46" fill-rule="evenodd" fill-opacity="1" stroke="#000000" stroke-opacity="1" stroke-width="3.2"/>
<circle clip-path="url(#clip622)" cx="1885.77" cy="220.723" r="14" fill="#e26f46" fill-rule="evenodd" fill-opacity="1" stroke="#000000" stroke-opacity="1" stroke-width="3.2"/>
<circle clip-path="url(#clip622)" cx="1907" cy="191.402" r="14" fill="#e26f46" fill-rule="evenodd" fill-opacity="1" stroke="#000000" stroke-opacity="1" stroke-width="3.2"/>
<circle clip-path="url(#clip622)" cx="1928.22" cy="232.148" r="14" fill="#e26f46" fill-rule="evenodd" fill-opacity="1" stroke="#000000" stroke-opacity="1" stroke-width="3.2"/>
<circle clip-path="url(#clip622)" cx="1949.45" cy="180.259" r="14" fill="#e26f46" fill-rule="evenodd" fill-opacity="1" stroke="#000000" stroke-opacity="1" stroke-width="3.2"/>
<circle clip-path="url(#clip622)" cx="1970.68" cy="179.131" r="14" fill="#e26f46" fill-rule="evenodd" fill-opacity="1" stroke="#000000" stroke-opacity="1" stroke-width="3.2"/>
<circle clip-path="url(#clip622)" cx="1991.9" cy="123.716" r="14" fill="#e26f46" fill-rule="evenodd" fill-opacity="1" stroke="#000000" stroke-opacity="1" stroke-width="3.2"/>
<circle clip-path="url(#clip622)" cx="2013.13" cy="131.721" r="14" fill="#e26f46" fill-rule="evenodd" fill-opacity="1" stroke="#000000" stroke-opacity="1" stroke-width="3.2"/>
<circle clip-path="url(#clip622)" cx="2034.36" cy="139.284" r="14" fill="#e26f46" fill-rule="evenodd" fill-opacity="1" stroke="#000000" stroke-opacity="1" stroke-width="3.2"/>
<circle clip-path="url(#clip622)" cx="2055.58" cy="118.444" r="14" fill="#e26f46" fill-rule="evenodd" fill-opacity="1" stroke="#000000" stroke-opacity="1" stroke-width="3.2"/>
<circle clip-path="url(#clip622)" cx="2076.81" cy="149.241" r="14" fill="#e26f46" fill-rule="evenodd" fill-opacity="1" stroke="#000000" stroke-opacity="1" stroke-width="3.2"/>
<path clip-path="url(#clip620)" d="
M177.741 277.285 L756.954 277.285 L756.954 95.8446 L177.741 95.8446  Z
  " fill="#ffffff" fill-rule="evenodd" fill-opacity="1"/>
<polyline clip-path="url(#clip620)" style="stroke:#000000; stroke-width:4; stroke-opacity:1; fill:none" points="
  177.741,277.285 756.954,277.285 756.954,95.8446 177.741,95.8446 177.741,277.285 
  "/>
<polyline clip-path="url(#clip620)" style="stroke:#009af9; stroke-width:4; stroke-opacity:1; fill:none" points="
  202.741,156.325 352.742,156.325 
  "/>
<path clip-path="url(#clip620)" d="M 0 0 M396.168 148.443 L396.168 152.47 Q394.362 151.545 392.418 151.082 Q390.473 150.619 388.39 150.619 Q385.219 150.619 383.622 151.591 Q382.048 152.563 382.048 154.507 Q382.048 155.989 383.182 156.845 Q384.316 157.679 387.742 158.443 L389.2 158.767 Q393.737 159.739 395.636 161.521 Q397.557 163.281 397.557 166.452 Q397.557 170.063 394.686 172.169 Q391.839 174.276 386.839 174.276 Q384.756 174.276 382.487 173.859 Q380.242 173.466 377.742 172.656 L377.742 168.257 Q380.103 169.484 382.395 170.109 Q384.686 170.711 386.932 170.711 Q389.941 170.711 391.561 169.693 Q393.182 168.651 393.182 166.776 Q393.182 165.04 392.001 164.114 Q390.844 163.188 386.886 162.332 L385.404 161.984 Q381.446 161.151 379.687 159.438 Q377.927 157.702 377.927 154.693 Q377.927 151.035 380.52 149.045 Q383.112 147.054 387.881 147.054 Q390.242 147.054 392.325 147.401 Q394.409 147.748 396.168 148.443 Z" fill="#000000" fill-rule="evenodd" fill-opacity="1" /><path clip-path="url(#clip620)" d="M 0 0 M404.339 147.679 L408.598 147.679 L408.598 173.605 L404.339 173.605 L404.339 147.679 M404.339 137.586 L408.598 137.586 L408.598 142.98 L404.339 142.98 L404.339 137.586 Z" fill="#000000" fill-rule="evenodd" fill-opacity="1" /><path clip-path="url(#clip620)" d="M 0 0 M434.57 160.341 Q434.57 155.711 432.649 153.165 Q430.751 150.619 427.302 150.619 Q423.876 150.619 421.955 153.165 Q420.057 155.711 420.057 160.341 Q420.057 164.947 421.955 167.494 Q423.876 170.04 427.302 170.04 Q430.751 170.04 432.649 167.494 Q434.57 164.947 434.57 160.341 M438.83 170.387 Q438.83 177.007 435.89 180.225 Q432.95 183.466 426.885 183.466 Q424.64 183.466 422.649 183.118 Q420.659 182.794 418.784 182.1 L418.784 177.956 Q420.659 178.975 422.487 179.461 Q424.316 179.947 426.214 179.947 Q430.404 179.947 432.487 177.748 Q434.57 175.572 434.57 171.151 L434.57 169.044 Q433.251 171.336 431.191 172.47 Q429.131 173.605 426.26 173.605 Q421.492 173.605 418.575 169.97 Q415.659 166.336 415.659 160.341 Q415.659 154.322 418.575 150.688 Q421.492 147.054 426.26 147.054 Q429.131 147.054 431.191 148.188 Q433.251 149.322 434.57 151.614 L434.57 147.679 L438.83 147.679 L438.83 170.387 Z" fill="#000000" fill-rule="evenodd" fill-opacity="1" /><path clip-path="url(#clip620)" d="M 0 0 M467.788 152.656 Q469.385 149.785 471.607 148.42 Q473.83 147.054 476.839 147.054 Q480.89 147.054 483.089 149.901 Q485.288 152.725 485.288 157.957 L485.288 173.605 L481.005 173.605 L481.005 158.095 Q481.005 154.369 479.686 152.563 Q478.367 150.758 475.658 150.758 Q472.348 150.758 470.427 152.957 Q468.505 155.156 468.505 158.952 L468.505 173.605 L464.223 173.605 L464.223 158.095 Q464.223 154.345 462.904 152.563 Q461.584 150.758 458.83 150.758 Q455.566 150.758 453.644 152.98 Q451.723 155.179 451.723 158.952 L451.723 173.605 L447.441 173.605 L447.441 147.679 L451.723 147.679 L451.723 151.707 Q453.181 149.322 455.219 148.188 Q457.256 147.054 460.056 147.054 Q462.881 147.054 464.848 148.489 Q466.839 149.924 467.788 152.656 Z" fill="#000000" fill-rule="evenodd" fill-opacity="1" /><path clip-path="url(#clip620)" d="M 0 0 M503.829 150.665 Q500.403 150.665 498.413 153.35 Q496.422 156.012 496.422 160.665 Q496.422 165.318 498.39 168.003 Q500.38 170.665 503.829 170.665 Q507.232 170.665 509.223 167.98 Q511.214 165.294 511.214 160.665 Q511.214 156.058 509.223 153.373 Q507.232 150.665 503.829 150.665 M503.829 147.054 Q509.385 147.054 512.556 150.665 Q515.727 154.276 515.727 160.665 Q515.727 167.031 512.556 170.665 Q509.385 174.276 503.829 174.276 Q498.251 174.276 495.079 170.665 Q491.931 167.031 491.931 160.665 Q491.931 154.276 495.079 150.665 Q498.251 147.054 503.829 147.054 Z" fill="#000000" fill-rule="evenodd" fill-opacity="1" /><path clip-path="url(#clip620)" d="M 0 0 M522.788 147.679 L527.047 147.679 L527.047 173.605 L522.788 173.605 L522.788 147.679 M522.788 137.586 L527.047 137.586 L527.047 142.98 L522.788 142.98 L522.788 137.586 Z" fill="#000000" fill-rule="evenodd" fill-opacity="1" /><path clip-path="url(#clip620)" d="M 0 0 M553.019 151.614 L553.019 137.586 L557.278 137.586 L557.278 173.605 L553.019 173.605 L553.019 169.716 Q551.676 172.031 549.616 173.165 Q547.579 174.276 544.709 174.276 Q540.01 174.276 537.047 170.526 Q534.107 166.776 534.107 160.665 Q534.107 154.554 537.047 150.804 Q540.01 147.054 544.709 147.054 Q547.579 147.054 549.616 148.188 Q551.676 149.299 553.019 151.614 M538.505 160.665 Q538.505 165.364 540.426 168.049 Q542.371 170.711 545.75 170.711 Q549.13 170.711 551.074 168.049 Q553.019 165.364 553.019 160.665 Q553.019 155.966 551.074 153.304 Q549.13 150.619 545.75 150.619 Q542.371 150.619 540.426 153.304 Q538.505 155.966 538.505 160.665 Z" fill="#000000" fill-rule="evenodd" fill-opacity="1" /><path clip-path="url(#clip620)" d="M 0 0 M599.778 148.674 L599.778 152.656 Q597.972 151.66 596.144 151.174 Q594.338 150.665 592.486 150.665 Q588.343 150.665 586.051 153.304 Q583.759 155.92 583.759 160.665 Q583.759 165.41 586.051 168.049 Q588.343 170.665 592.486 170.665 Q594.338 170.665 596.144 170.179 Q597.972 169.669 599.778 168.674 L599.778 172.609 Q597.996 173.443 596.074 173.859 Q594.176 174.276 592.023 174.276 Q586.167 174.276 582.718 170.595 Q579.269 166.915 579.269 160.665 Q579.269 154.322 582.741 150.688 Q586.236 147.054 592.301 147.054 Q594.269 147.054 596.144 147.471 Q598.019 147.864 599.778 148.674 Z" fill="#000000" fill-rule="evenodd" fill-opacity="1" /><path clip-path="url(#clip620)" d="M 0 0 M606.745 163.373 L606.745 147.679 L611.005 147.679 L611.005 163.211 Q611.005 166.892 612.44 168.744 Q613.875 170.572 616.745 170.572 Q620.194 170.572 622.185 168.373 Q624.199 166.174 624.199 162.378 L624.199 147.679 L628.458 147.679 L628.458 173.605 L624.199 173.605 L624.199 169.623 Q622.648 171.984 620.588 173.142 Q618.551 174.276 615.843 174.276 Q611.375 174.276 609.06 171.498 Q606.745 168.72 606.745 163.373 M617.463 147.054 L617.463 147.054 Z" fill="#000000" fill-rule="evenodd" fill-opacity="1" /><path clip-path="url(#clip620)" d="M 0 0 M652.255 151.66 Q651.537 151.244 650.68 151.058 Q649.847 150.85 648.829 150.85 Q645.218 150.85 643.273 153.211 Q641.352 155.549 641.352 159.947 L641.352 173.605 L637.069 173.605 L637.069 147.679 L641.352 147.679 L641.352 151.707 Q642.694 149.345 644.847 148.211 Q647 147.054 650.079 147.054 Q650.518 147.054 651.051 147.123 Q651.583 147.17 652.231 147.285 L652.255 151.66 Z" fill="#000000" fill-rule="evenodd" fill-opacity="1" /><path clip-path="url(#clip620)" d="M 0 0 M653.667 147.679 L658.18 147.679 L666.282 169.438 L674.384 147.679 L678.898 147.679 L669.176 173.605 L663.389 173.605 L653.667 147.679 Z" fill="#000000" fill-rule="evenodd" fill-opacity="1" /><path clip-path="url(#clip620)" d="M 0 0 M706.953 159.577 L706.953 161.66 L687.37 161.66 Q687.648 166.058 690.009 168.373 Q692.393 170.665 696.629 170.665 Q699.083 170.665 701.375 170.063 Q703.689 169.461 705.958 168.257 L705.958 172.285 Q703.666 173.257 701.259 173.767 Q698.851 174.276 696.375 174.276 Q690.171 174.276 686.537 170.665 Q682.926 167.054 682.926 160.896 Q682.926 154.531 686.352 150.804 Q689.801 147.054 695.634 147.054 Q700.865 147.054 703.898 150.433 Q706.953 153.79 706.953 159.577 M702.694 158.327 Q702.648 154.832 700.726 152.748 Q698.828 150.665 695.68 150.665 Q692.115 150.665 689.963 152.679 Q687.833 154.693 687.509 158.35 L702.694 158.327 Z" fill="#000000" fill-rule="evenodd" fill-opacity="1" /><circle clip-path="url(#clip620)" cx="277.741" cy="216.805" r="23" fill="#e26f46" fill-rule="evenodd" fill-opacity="1" stroke="#000000" stroke-opacity="1" stroke-width="5.12"/>
<path clip-path="url(#clip620)" d="M 0 0 M389.64 211.145 Q386.214 211.145 384.224 213.83 Q382.233 216.492 382.233 221.145 Q382.233 225.798 384.2 228.483 Q386.191 231.145 389.64 231.145 Q393.043 231.145 395.034 228.46 Q397.024 225.774 397.024 221.145 Q397.024 216.538 395.034 213.853 Q393.043 211.145 389.64 211.145 M389.64 207.534 Q395.196 207.534 398.367 211.145 Q401.538 214.756 401.538 221.145 Q401.538 227.511 398.367 231.145 Q395.196 234.756 389.64 234.756 Q384.061 234.756 380.89 231.145 Q377.742 227.511 377.742 221.145 Q377.742 214.756 380.89 211.145 Q384.061 207.534 389.64 207.534 Z" fill="#000000" fill-rule="evenodd" fill-opacity="1" /><path clip-path="url(#clip620)" d="M 0 0 M427.209 221.145 Q427.209 216.446 425.265 213.784 Q423.344 211.099 419.964 211.099 Q416.584 211.099 414.64 213.784 Q412.719 216.446 412.719 221.145 Q412.719 225.844 414.64 228.529 Q416.584 231.191 419.964 231.191 Q423.344 231.191 425.265 228.529 Q427.209 225.844 427.209 221.145 M412.719 212.094 Q414.061 209.779 416.098 208.668 Q418.159 207.534 421.006 207.534 Q425.728 207.534 428.668 211.284 Q431.631 215.034 431.631 221.145 Q431.631 227.256 428.668 231.006 Q425.728 234.756 421.006 234.756 Q418.159 234.756 416.098 233.645 Q414.061 232.511 412.719 230.196 L412.719 234.085 L408.436 234.085 L408.436 198.066 L412.719 198.066 L412.719 212.094 Z" fill="#000000" fill-rule="evenodd" fill-opacity="1" /><path clip-path="url(#clip620)" d="M 0 0 M455.219 208.923 L455.219 212.95 Q453.413 212.025 451.469 211.562 Q449.524 211.099 447.441 211.099 Q444.27 211.099 442.672 212.071 Q441.098 213.043 441.098 214.987 Q441.098 216.469 442.232 217.325 Q443.367 218.159 446.793 218.923 L448.251 219.247 Q452.788 220.219 454.686 222.001 Q456.607 223.761 456.607 226.932 Q456.607 230.543 453.737 232.649 Q450.89 234.756 445.89 234.756 Q443.807 234.756 441.538 234.339 Q439.293 233.946 436.793 233.136 L436.793 228.737 Q439.154 229.964 441.445 230.589 Q443.737 231.191 445.982 231.191 Q448.992 231.191 450.612 230.173 Q452.232 229.131 452.232 227.256 Q452.232 225.52 451.052 224.594 Q449.894 223.668 445.936 222.812 L444.455 222.464 Q440.496 221.631 438.737 219.918 Q436.978 218.182 436.978 215.173 Q436.978 211.515 439.57 209.525 Q442.163 207.534 446.932 207.534 Q449.293 207.534 451.376 207.881 Q453.459 208.228 455.219 208.923 Z" fill="#000000" fill-rule="evenodd" fill-opacity="1" /><path clip-path="url(#clip620)" d="M 0 0 M485.566 220.057 L485.566 222.14 L465.982 222.14 Q466.26 226.538 468.621 228.853 Q471.005 231.145 475.242 231.145 Q477.695 231.145 479.987 230.543 Q482.302 229.941 484.57 228.737 L484.57 232.765 Q482.279 233.737 479.871 234.247 Q477.464 234.756 474.987 234.756 Q468.783 234.756 465.149 231.145 Q461.538 227.534 461.538 221.376 Q461.538 215.011 464.964 211.284 Q468.413 207.534 474.246 207.534 Q479.478 207.534 482.51 210.913 Q485.566 214.27 485.566 220.057 M481.306 218.807 Q481.26 215.312 479.339 213.228 Q477.441 211.145 474.292 211.145 Q470.728 211.145 468.575 213.159 Q466.445 215.173 466.121 218.83 L481.306 218.807 Z" fill="#000000" fill-rule="evenodd" fill-opacity="1" /><path clip-path="url(#clip620)" d="M 0 0 M507.579 212.14 Q506.862 211.724 506.005 211.538 Q505.172 211.33 504.153 211.33 Q500.542 211.33 498.598 213.691 Q496.677 216.029 496.677 220.427 L496.677 234.085 L492.394 234.085 L492.394 208.159 L496.677 208.159 L496.677 212.187 Q498.019 209.825 500.172 208.691 Q502.325 207.534 505.403 207.534 Q505.843 207.534 506.376 207.603 Q506.908 207.65 507.556 207.765 L507.579 212.14 Z" fill="#000000" fill-rule="evenodd" fill-opacity="1" /><path clip-path="url(#clip620)" d="M 0 0 M508.991 208.159 L513.505 208.159 L521.607 229.918 L529.709 208.159 L534.223 208.159 L524.501 234.085 L518.714 234.085 L508.991 208.159 Z" fill="#000000" fill-rule="evenodd" fill-opacity="1" /><path clip-path="url(#clip620)" d="M 0 0 M562.278 220.057 L562.278 222.14 L542.695 222.14 Q542.973 226.538 545.334 228.853 Q547.718 231.145 551.954 231.145 Q554.408 231.145 556.699 230.543 Q559.014 229.941 561.283 228.737 L561.283 232.765 Q558.991 233.737 556.584 234.247 Q554.176 234.756 551.699 234.756 Q545.496 234.756 541.862 231.145 Q538.25 227.534 538.25 221.376 Q538.25 215.011 541.676 211.284 Q545.125 207.534 550.959 207.534 Q556.19 207.534 559.223 210.913 Q562.278 214.27 562.278 220.057 M558.019 218.807 Q557.973 215.312 556.051 213.228 Q554.153 211.145 551.005 211.145 Q547.44 211.145 545.287 213.159 Q543.158 215.173 542.834 218.83 L558.019 218.807 Z" fill="#000000" fill-rule="evenodd" fill-opacity="1" /><path clip-path="url(#clip620)" d="M 0 0 M586.329 212.094 L586.329 198.066 L590.588 198.066 L590.588 234.085 L586.329 234.085 L586.329 230.196 Q584.986 232.511 582.926 233.645 Q580.889 234.756 578.019 234.756 Q573.32 234.756 570.357 231.006 Q567.417 227.256 567.417 221.145 Q567.417 215.034 570.357 211.284 Q573.32 207.534 578.019 207.534 Q580.889 207.534 582.926 208.668 Q584.986 209.779 586.329 212.094 M571.815 221.145 Q571.815 225.844 573.736 228.529 Q575.681 231.191 579.06 231.191 Q582.44 231.191 584.384 228.529 Q586.329 225.844 586.329 221.145 Q586.329 216.446 584.384 213.784 Q582.44 211.099 579.06 211.099 Q575.681 211.099 573.736 213.784 Q571.815 216.446 571.815 221.145 Z" fill="#000000" fill-rule="evenodd" fill-opacity="1" /></svg>
