<?xml version="1.0" encoding="utf-8"?>
<svg xmlns="http://www.w3.org/2000/svg" xmlns:xlink="http://www.w3.org/1999/xlink" width="600" height="400" viewBox="0 0 2400 1600">
<defs>
  <clipPath id="clip100">
    <rect x="0" y="0" width="2400" height="1600"/>
  </clipPath>
</defs>
<path clip-path="url(#clip100)" d="
M0 1600 L2400 1600 L2400 0 L0 0  Z
  " fill="#ffffff" fill-rule="evenodd" fill-opacity="1"/>
<defs>
  <clipPath id="clip101">
    <rect x="480" y="0" width="1681" height="1600"/>
  </clipPath>
</defs>
<path clip-path="url(#clip100)" d="
M353.794 1318.93 L2352.76 1318.93 L2352.76 47.2441 L353.794 47.2441  Z
  " fill="#ffffff" fill-rule="evenodd" fill-opacity="1"/>
<defs>
  <clipPath id="clip102">
    <rect x="353" y="47" width="2000" height="1273"/>
  </clipPath>
</defs>
<polyline clip-path="url(#clip102)" style="stroke:#000000; stroke-linecap:butt; stroke-linejoin:round; stroke-width:2; stroke-opacity:0.1; fill:none" points="
  598.95,1318.93 598.95,47.2441 
  "/>
<polyline clip-path="url(#clip102)" style="stroke:#000000; stroke-linecap:butt; stroke-linejoin:round; stroke-width:2; stroke-opacity:0.1; fill:none" points="
  976.112,1318.93 976.112,47.2441 
  "/>
<polyline clip-path="url(#clip102)" style="stroke:#000000; stroke-linecap:butt; stroke-linejoin:round; stroke-width:2; stroke-opacity:0.1; fill:none" points="
  1353.27,1318.93 1353.27,47.2441 
  "/>
<polyline clip-path="url(#clip102)" style="stroke:#000000; stroke-linecap:butt; stroke-linejoin:round; stroke-width:2; stroke-opacity:0.1; fill:none" points="
  1730.44,1318.93 1730.44,47.2441 
  "/>
<polyline clip-path="url(#clip102)" style="stroke:#000000; stroke-linecap:butt; stroke-linejoin:round; stroke-width:2; stroke-opacity:0.1; fill:none" points="
  2107.6,1318.93 2107.6,47.2441 
  "/>
<polyline clip-path="url(#clip100)" style="stroke:#000000; stroke-linecap:butt; stroke-linejoin:round; stroke-width:4; stroke-opacity:1; fill:none" points="
  353.794,1318.93 2352.76,1318.93 
  "/>
<polyline clip-path="url(#clip100)" style="stroke:#000000; stroke-linecap:butt; stroke-linejoin:round; stroke-width:4; stroke-opacity:1; fill:none" points="
  598.95,1318.93 598.95,1300.03 
  "/>
<polyline clip-path="url(#clip100)" style="stroke:#000000; stroke-linecap:butt; stroke-linejoin:round; stroke-width:4; stroke-opacity:1; fill:none" points="
  976.112,1318.93 976.112,1300.03 
  "/>
<polyline clip-path="url(#clip100)" style="stroke:#000000; stroke-linecap:butt; stroke-linejoin:round; stroke-width:4; stroke-opacity:1; fill:none" points="
  1353.27,1318.93 1353.27,1300.03 
  "/>
<polyline clip-path="url(#clip100)" style="stroke:#000000; stroke-linecap:butt; stroke-linejoin:round; stroke-width:4; stroke-opacity:1; fill:none" points="
  1730.44,1318.93 1730.44,1300.03 
  "/>
<polyline clip-path="url(#clip100)" style="stroke:#000000; stroke-linecap:butt; stroke-linejoin:round; stroke-width:4; stroke-opacity:1; fill:none" points="
  2107.6,1318.93 2107.6,1300.03 
  "/>
<path clip-path="url(#clip100)" d="M567.85 1364.5 L597.526 1364.5 L597.526 1368.43 L567.85 1368.43 L567.85 1364.5 Z" fill="#000000" fill-rule="evenodd" fill-opacity="1" /><path clip-path="url(#clip100)" d="M620.466 1350.84 L608.66 1369.29 L620.466 1369.29 L620.466 1350.84 M619.239 1346.77 L625.119 1346.77 L625.119 1369.29 L630.049 1369.29 L630.049 1373.18 L625.119 1373.18 L625.119 1381.33 L620.466 1381.33 L620.466 1373.18 L604.864 1373.18 L604.864 1368.67 L619.239 1346.77 Z" fill="#000000" fill-rule="evenodd" fill-opacity="1" /><path clip-path="url(#clip100)" d="M946.055 1364.5 L975.73 1364.5 L975.73 1368.43 L946.055 1368.43 L946.055 1364.5 Z" fill="#000000" fill-rule="evenodd" fill-opacity="1" /><path clip-path="url(#clip100)" d="M989.851 1377.39 L1006.17 1377.39 L1006.17 1381.33 L984.226 1381.33 L984.226 1377.39 Q986.888 1374.64 991.471 1370.01 Q996.078 1365.36 997.258 1364.01 Q999.503 1361.49 1000.38 1359.75 Q1001.29 1357.99 1001.29 1356.3 Q1001.29 1353.55 999.341 1351.81 Q997.42 1350.08 994.318 1350.08 Q992.119 1350.08 989.665 1350.84 Q987.235 1351.61 984.457 1353.16 L984.457 1348.43 Q987.281 1347.3 989.735 1346.72 Q992.189 1346.14 994.226 1346.14 Q999.596 1346.14 1002.79 1348.83 Q1005.98 1351.51 1005.98 1356 Q1005.98 1358.13 1005.17 1360.05 Q1004.39 1361.95 1002.28 1364.55 Q1001.7 1365.22 998.601 1368.43 Q995.499 1371.63 989.851 1377.39 Z" fill="#000000" fill-rule="evenodd" fill-opacity="1" /><path clip-path="url(#clip100)" d="M1353.27 1349.85 Q1349.66 1349.85 1347.84 1353.41 Q1346.03 1356.95 1346.03 1364.08 Q1346.03 1371.19 1347.84 1374.75 Q1349.66 1378.3 1353.27 1378.3 Q1356.91 1378.3 1358.71 1374.75 Q1360.54 1371.19 1360.54 1364.08 Q1360.54 1356.95 1358.71 1353.41 Q1356.91 1349.85 1353.27 1349.85 M1353.27 1346.14 Q1359.09 1346.14 1362.14 1350.75 Q1365.22 1355.33 1365.22 1364.08 Q1365.22 1372.81 1362.14 1377.42 Q1359.09 1382 1353.27 1382 Q1347.46 1382 1344.39 1377.42 Q1341.33 1372.81 1341.33 1364.08 Q1341.33 1355.33 1344.39 1350.75 Q1347.46 1346.14 1353.27 1346.14 Z" fill="#000000" fill-rule="evenodd" fill-opacity="1" /><path clip-path="url(#clip100)" d="M1725.09 1377.39 L1741.41 1377.39 L1741.41 1381.33 L1719.47 1381.33 L1719.47 1377.39 Q1722.13 1374.64 1726.71 1370.01 Q1731.32 1365.36 1732.5 1364.01 Q1734.74 1361.49 1735.62 1359.75 Q1736.53 1357.99 1736.53 1356.3 Q1736.53 1353.55 1734.58 1351.81 Q1732.66 1350.08 1729.56 1350.08 Q1727.36 1350.08 1724.91 1350.84 Q1722.47 1351.61 1719.7 1353.16 L1719.7 1348.43 Q1722.52 1347.3 1724.97 1346.72 Q1727.43 1346.14 1729.47 1346.14 Q1734.84 1346.14 1738.03 1348.83 Q1741.22 1351.51 1741.22 1356 Q1741.22 1358.13 1740.41 1360.05 Q1739.63 1361.95 1737.52 1364.55 Q1736.94 1365.22 1733.84 1368.43 Q1730.74 1371.63 1725.09 1377.39 Z" fill="#000000" fill-rule="evenodd" fill-opacity="1" /><path clip-path="url(#clip100)" d="M2110.61 1350.84 L2098.8 1369.29 L2110.61 1369.29 L2110.61 1350.84 M2109.38 1346.77 L2115.26 1346.77 L2115.26 1369.29 L2120.19 1369.29 L2120.19 1373.18 L2115.26 1373.18 L2115.26 1381.33 L2110.61 1381.33 L2110.61 1373.18 L2095.01 1373.18 L2095.01 1368.67 L2109.38 1346.77 Z" fill="#000000" fill-rule="evenodd" fill-opacity="1" /><path clip-path="url(#clip100)" d="M1369.89 1428.14 L1357 1445.49 L1370.56 1463.79 L1363.65 1463.79 L1353.27 1449.79 L1342.9 1463.79 L1335.99 1463.79 L1349.84 1445.14 L1337.17 1428.14 L1344.08 1428.14 L1353.53 1440.84 L1362.98 1428.14 L1369.89 1428.14 Z" fill="#000000" fill-rule="evenodd" fill-opacity="1" /><polyline clip-path="url(#clip102)" style="stroke:#000000; stroke-linecap:butt; stroke-linejoin:round; stroke-width:2; stroke-opacity:0.1; fill:none" points="
  353.794,1278.28 2352.76,1278.28 
  "/>
<polyline clip-path="url(#clip102)" style="stroke:#000000; stroke-linecap:butt; stroke-linejoin:round; stroke-width:2; stroke-opacity:0.1; fill:none" points="
  353.794,974.045 2352.76,974.045 
  "/>
<polyline clip-path="url(#clip102)" style="stroke:#000000; stroke-linecap:butt; stroke-linejoin:round; stroke-width:2; stroke-opacity:0.1; fill:none" points="
  353.794,669.812 2352.76,669.812 
  "/>
<polyline clip-path="url(#clip102)" style="stroke:#000000; stroke-linecap:butt; stroke-linejoin:round; stroke-width:2; stroke-opacity:0.1; fill:none" points="
  353.794,365.58 2352.76,365.58 
  "/>
<polyline clip-path="url(#clip102)" style="stroke:#000000; stroke-linecap:butt; stroke-linejoin:round; stroke-width:2; stroke-opacity:0.1; fill:none" points="
  353.794,61.3472 2352.76,61.3472 
  "/>
<polyline clip-path="url(#clip100)" style="stroke:#000000; stroke-linecap:butt; stroke-linejoin:round; stroke-width:4; stroke-opacity:1; fill:none" points="
  353.794,1318.93 353.794,47.2441 
  "/>
<polyline clip-path="url(#clip100)" style="stroke:#000000; stroke-linecap:butt; stroke-linejoin:round; stroke-width:4; stroke-opacity:1; fill:none" points="
  353.794,1278.28 372.692,1278.28 
  "/>
<polyline clip-path="url(#clip100)" style="stroke:#000000; stroke-linecap:butt; stroke-linejoin:round; stroke-width:4; stroke-opacity:1; fill:none" points="
  353.794,974.045 372.692,974.045 
  "/>
<polyline clip-path="url(#clip100)" style="stroke:#000000; stroke-linecap:butt; stroke-linejoin:round; stroke-width:4; stroke-opacity:1; fill:none" points="
  353.794,669.812 372.692,669.812 
  "/>
<polyline clip-path="url(#clip100)" style="stroke:#000000; stroke-linecap:butt; stroke-linejoin:round; stroke-width:4; stroke-opacity:1; fill:none" points="
  353.794,365.58 372.692,365.58 
  "/>
<polyline clip-path="url(#clip100)" style="stroke:#000000; stroke-linecap:butt; stroke-linejoin:round; stroke-width:4; stroke-opacity:1; fill:none" points="
  353.794,61.3472 372.692,61.3472 
  "/>
<path clip-path="url(#clip100)" d="M230.457 1264.08 Q226.845 1264.08 225.017 1267.64 Q223.211 1271.18 223.211 1278.31 Q223.211 1285.42 225.017 1288.98 Q226.845 1292.52 230.457 1292.52 Q234.091 1292.52 235.896 1288.98 Q237.725 1285.42 237.725 1278.31 Q237.725 1271.18 235.896 1267.64 Q234.091 1264.08 230.457 1264.08 M230.457 1260.37 Q236.267 1260.37 239.322 1264.98 Q242.401 1269.56 242.401 1278.31 Q242.401 1287.04 239.322 1291.64 Q236.267 1296.23 230.457 1296.23 Q224.646 1296.23 221.568 1291.64 Q218.512 1287.04 218.512 1278.31 Q218.512 1269.56 221.568 1264.98 Q224.646 1260.37 230.457 1260.37 Z" fill="#000000" fill-rule="evenodd" fill-opacity="1" /><path clip-path="url(#clip100)" d="M250.618 1289.68 L255.503 1289.68 L255.503 1295.56 L250.618 1295.56 L250.618 1289.68 Z" fill="#000000" fill-rule="evenodd" fill-opacity="1" /><path clip-path="url(#clip100)" d="M275.688 1264.08 Q272.077 1264.08 270.248 1267.64 Q268.442 1271.18 268.442 1278.31 Q268.442 1285.42 270.248 1288.98 Q272.077 1292.52 275.688 1292.52 Q279.322 1292.52 281.128 1288.98 Q282.956 1285.42 282.956 1278.31 Q282.956 1271.18 281.128 1267.64 Q279.322 1264.08 275.688 1264.08 M275.688 1260.37 Q281.498 1260.37 284.553 1264.98 Q287.632 1269.56 287.632 1278.31 Q287.632 1287.04 284.553 1291.64 Q281.498 1296.23 275.688 1296.23 Q269.878 1296.23 266.799 1291.64 Q263.743 1287.04 263.743 1278.31 Q263.743 1269.56 266.799 1264.98 Q269.878 1260.37 275.688 1260.37 Z" fill="#000000" fill-rule="evenodd" fill-opacity="1" /><path clip-path="url(#clip100)" d="M305.85 1264.08 Q302.239 1264.08 300.41 1267.64 Q298.604 1271.18 298.604 1278.31 Q298.604 1285.42 300.41 1288.98 Q302.239 1292.52 305.85 1292.52 Q309.484 1292.52 311.289 1288.98 Q313.118 1285.42 313.118 1278.31 Q313.118 1271.18 311.289 1267.64 Q309.484 1264.08 305.85 1264.08 M305.85 1260.37 Q311.66 1260.37 314.715 1264.98 Q317.794 1269.56 317.794 1278.31 Q317.794 1287.04 314.715 1291.64 Q311.66 1296.23 305.85 1296.23 Q300.039 1296.23 296.961 1291.64 Q293.905 1287.04 293.905 1278.31 Q293.905 1269.56 296.961 1264.98 Q300.039 1260.37 305.85 1260.37 Z" fill="#000000" fill-rule="evenodd" fill-opacity="1" /><path clip-path="url(#clip100)" d="M231.452 959.843 Q227.841 959.843 226.012 963.408 Q224.207 966.95 224.207 974.079 Q224.207 981.186 226.012 984.75 Q227.841 988.292 231.452 988.292 Q235.086 988.292 236.892 984.75 Q238.72 981.186 238.72 974.079 Q238.72 966.95 236.892 963.408 Q235.086 959.843 231.452 959.843 M231.452 956.14 Q237.262 956.14 240.318 960.746 Q243.396 965.329 243.396 974.079 Q243.396 982.806 240.318 987.413 Q237.262 991.996 231.452 991.996 Q225.642 991.996 222.563 987.413 Q219.507 982.806 219.507 974.079 Q219.507 965.329 222.563 960.746 Q225.642 956.14 231.452 956.14 Z" fill="#000000" fill-rule="evenodd" fill-opacity="1" /><path clip-path="url(#clip100)" d="M251.614 985.445 L256.498 985.445 L256.498 991.325 L251.614 991.325 L251.614 985.445 Z" fill="#000000" fill-rule="evenodd" fill-opacity="1" /><path clip-path="url(#clip100)" d="M270.711 987.389 L287.03 987.389 L287.03 991.325 L265.086 991.325 L265.086 987.389 Q267.748 984.635 272.331 980.005 Q276.938 975.352 278.118 974.01 Q280.364 971.487 281.243 969.751 Q282.146 967.991 282.146 966.302 Q282.146 963.547 280.202 961.811 Q278.28 960.075 275.178 960.075 Q272.979 960.075 270.526 960.839 Q268.095 961.602 265.317 963.153 L265.317 958.431 Q268.141 957.297 270.595 956.718 Q273.049 956.14 275.086 956.14 Q280.456 956.14 283.651 958.825 Q286.845 961.51 286.845 966.001 Q286.845 968.13 286.035 970.051 Q285.248 971.95 283.141 974.542 Q282.563 975.214 279.461 978.431 Q276.359 981.626 270.711 987.389 Z" fill="#000000" fill-rule="evenodd" fill-opacity="1" /><path clip-path="url(#clip100)" d="M296.891 956.765 L315.248 956.765 L315.248 960.7 L301.174 960.7 L301.174 969.172 Q302.192 968.825 303.211 968.663 Q304.229 968.477 305.248 968.477 Q311.035 968.477 314.414 971.649 Q317.794 974.82 317.794 980.237 Q317.794 985.815 314.322 988.917 Q310.85 991.996 304.53 991.996 Q302.354 991.996 300.086 991.625 Q297.84 991.255 295.433 990.514 L295.433 985.815 Q297.516 986.95 299.739 987.505 Q301.961 988.061 304.438 988.061 Q308.442 988.061 310.78 985.954 Q313.118 983.848 313.118 980.237 Q313.118 976.626 310.78 974.519 Q308.442 972.413 304.438 972.413 Q302.563 972.413 300.688 972.829 Q298.836 973.246 296.891 974.126 L296.891 956.765 Z" fill="#000000" fill-rule="evenodd" fill-opacity="1" /><path clip-path="url(#clip100)" d="M230.457 655.611 Q226.845 655.611 225.017 659.176 Q223.211 662.717 223.211 669.847 Q223.211 676.953 225.017 680.518 Q226.845 684.06 230.457 684.06 Q234.091 684.06 235.896 680.518 Q237.725 676.953 237.725 669.847 Q237.725 662.717 235.896 659.176 Q234.091 655.611 230.457 655.611 M230.457 651.907 Q236.267 651.907 239.322 656.514 Q242.401 661.097 242.401 669.847 Q242.401 678.574 239.322 683.18 Q236.267 687.763 230.457 687.763 Q224.646 687.763 221.568 683.18 Q218.512 678.574 218.512 669.847 Q218.512 661.097 221.568 656.514 Q224.646 651.907 230.457 651.907 Z" fill="#000000" fill-rule="evenodd" fill-opacity="1" /><path clip-path="url(#clip100)" d="M250.618 681.212 L255.503 681.212 L255.503 687.092 L250.618 687.092 L250.618 681.212 Z" fill="#000000" fill-rule="evenodd" fill-opacity="1" /><path clip-path="url(#clip100)" d="M265.734 652.532 L284.09 652.532 L284.09 656.467 L270.016 656.467 L270.016 664.939 Q271.035 664.592 272.054 664.43 Q273.072 664.245 274.091 664.245 Q279.878 664.245 283.257 667.416 Q286.637 670.588 286.637 676.004 Q286.637 681.583 283.165 684.685 Q279.692 687.763 273.373 687.763 Q271.197 687.763 268.929 687.393 Q266.683 687.023 264.276 686.282 L264.276 681.583 Q266.359 682.717 268.581 683.273 Q270.804 683.828 273.28 683.828 Q277.285 683.828 279.623 681.722 Q281.961 679.615 281.961 676.004 Q281.961 672.393 279.623 670.287 Q277.285 668.18 273.28 668.18 Q271.405 668.18 269.53 668.597 Q267.679 669.013 265.734 669.893 L265.734 652.532 Z" fill="#000000" fill-rule="evenodd" fill-opacity="1" /><path clip-path="url(#clip100)" d="M305.85 655.611 Q302.239 655.611 300.41 659.176 Q298.604 662.717 298.604 669.847 Q298.604 676.953 300.41 680.518 Q302.239 684.06 305.85 684.06 Q309.484 684.06 311.289 680.518 Q313.118 676.953 313.118 669.847 Q313.118 662.717 311.289 659.176 Q309.484 655.611 305.85 655.611 M305.85 651.907 Q311.66 651.907 314.715 656.514 Q317.794 661.097 317.794 669.847 Q317.794 678.574 314.715 683.18 Q311.66 687.763 305.85 687.763 Q300.039 687.763 296.961 683.18 Q293.905 678.574 293.905 669.847 Q293.905 661.097 296.961 656.514 Q300.039 651.907 305.85 651.907 Z" fill="#000000" fill-rule="evenodd" fill-opacity="1" /><path clip-path="url(#clip100)" d="M231.452 351.378 Q227.841 351.378 226.012 354.943 Q224.207 358.485 224.207 365.614 Q224.207 372.721 226.012 376.286 Q227.841 379.827 231.452 379.827 Q235.086 379.827 236.892 376.286 Q238.72 372.721 238.72 365.614 Q238.72 358.485 236.892 354.943 Q235.086 351.378 231.452 351.378 M231.452 347.675 Q237.262 347.675 240.318 352.281 Q243.396 356.864 243.396 365.614 Q243.396 374.341 240.318 378.948 Q237.262 383.531 231.452 383.531 Q225.642 383.531 222.563 378.948 Q219.507 374.341 219.507 365.614 Q219.507 356.864 222.563 352.281 Q225.642 347.675 231.452 347.675 Z" fill="#000000" fill-rule="evenodd" fill-opacity="1" /><path clip-path="url(#clip100)" d="M251.614 376.98 L256.498 376.98 L256.498 382.86 L251.614 382.86 L251.614 376.98 Z" fill="#000000" fill-rule="evenodd" fill-opacity="1" /><path clip-path="url(#clip100)" d="M265.503 348.3 L287.725 348.3 L287.725 350.29 L275.178 382.86 L270.294 382.86 L282.1 352.235 L265.503 352.235 L265.503 348.3 Z" fill="#000000" fill-rule="evenodd" fill-opacity="1" /><path clip-path="url(#clip100)" d="M296.891 348.3 L315.248 348.3 L315.248 352.235 L301.174 352.235 L301.174 360.707 Q302.192 360.36 303.211 360.198 Q304.229 360.013 305.248 360.013 Q311.035 360.013 314.414 363.184 Q317.794 366.355 317.794 371.772 Q317.794 377.35 314.322 380.452 Q310.85 383.531 304.53 383.531 Q302.354 383.531 300.086 383.161 Q297.84 382.79 295.433 382.049 L295.433 377.35 Q297.516 378.485 299.739 379.04 Q301.961 379.596 304.438 379.596 Q308.442 379.596 310.78 377.489 Q313.118 375.383 313.118 371.772 Q313.118 368.161 310.78 366.054 Q308.442 363.948 304.438 363.948 Q302.563 363.948 300.688 364.364 Q298.836 364.781 296.891 365.661 L296.891 348.3 Z" fill="#000000" fill-rule="evenodd" fill-opacity="1" /><path clip-path="url(#clip100)" d="M221.267 74.692 L228.906 74.692 L228.906 48.3264 L220.595 49.9931 L220.595 45.7338 L228.859 44.0672 L233.535 44.0672 L233.535 74.692 L241.174 74.692 L241.174 78.6272 L221.267 78.6272 L221.267 74.692 Z" fill="#000000" fill-rule="evenodd" fill-opacity="1" /><path clip-path="url(#clip100)" d="M250.618 72.7476 L255.503 72.7476 L255.503 78.6272 L250.618 78.6272 L250.618 72.7476 Z" fill="#000000" fill-rule="evenodd" fill-opacity="1" /><path clip-path="url(#clip100)" d="M275.688 47.1459 Q272.077 47.1459 270.248 50.7107 Q268.442 54.2523 268.442 61.3819 Q268.442 68.4884 270.248 72.0532 Q272.077 75.5948 275.688 75.5948 Q279.322 75.5948 281.128 72.0532 Q282.956 68.4884 282.956 61.3819 Q282.956 54.2523 281.128 50.7107 Q279.322 47.1459 275.688 47.1459 M275.688 43.4422 Q281.498 43.4422 284.553 48.0487 Q287.632 52.632 287.632 61.3819 Q287.632 70.1087 284.553 74.7152 Q281.498 79.2985 275.688 79.2985 Q269.878 79.2985 266.799 74.7152 Q263.743 70.1087 263.743 61.3819 Q263.743 52.632 266.799 48.0487 Q269.878 43.4422 275.688 43.4422 Z" fill="#000000" fill-rule="evenodd" fill-opacity="1" /><path clip-path="url(#clip100)" d="M305.85 47.1459 Q302.239 47.1459 300.41 50.7107 Q298.604 54.2523 298.604 61.3819 Q298.604 68.4884 300.41 72.0532 Q302.239 75.5948 305.85 75.5948 Q309.484 75.5948 311.289 72.0532 Q313.118 68.4884 313.118 61.3819 Q313.118 54.2523 311.289 50.7107 Q309.484 47.1459 305.85 47.1459 M305.85 43.4422 Q311.66 43.4422 314.715 48.0487 Q317.794 52.632 317.794 61.3819 Q317.794 70.1087 314.715 74.7152 Q311.66 79.2985 305.85 79.2985 Q300.039 79.2985 296.961 74.7152 Q293.905 70.1087 293.905 61.3819 Q293.905 52.632 296.961 48.0487 Q300.039 43.4422 305.85 43.4422 Z" fill="#000000" fill-rule="evenodd" fill-opacity="1" /><path clip-path="url(#clip100)" d="M171.566 681.399 Q177.932 683.882 179.874 686.237 Q181.815 688.592 181.815 692.539 L181.815 697.218 L176.913 697.218 L176.913 693.78 Q176.913 691.361 175.768 690.025 Q174.622 688.688 170.357 687.065 L167.683 686.014 L132.608 700.433 L132.608 694.226 L160.49 683.086 L132.608 671.946 L132.608 665.739 L171.566 681.399 Z" fill="#000000" fill-rule="evenodd" fill-opacity="1" /><polyline clip-path="url(#clip102)" style="stroke:#009af9; stroke-linecap:butt; stroke-linejoin:round; stroke-width:4; stroke-opacity:1; fill:none" points="
  410.368,1275.27 428.785,1274.96 599.072,1270.13 701.408,1264.32 787.931,1256.34 881.92,1242.59 968.569,1222.72 1015.02,1208.1 1061.47,1189.93 1115.28,1163.5 
  1169.1,1130.21 1216.92,1093.94 1264.75,1050.68 1306.68,1006.65 1348.62,956.865 1440.07,830.149 1532.06,685.614 1633.77,524.403 1730.54,388.502 1780.85,328.727 
  1831.16,277.224 1873.51,240.183 1915.86,208.563 1967.56,176.604 2019.27,151.001 2067.87,131.811 2116.48,116.527 2194.35,98.4297 2272.21,86.141 2284.2,84.6437 
  2296.18,83.2351 
  "/>
<circle clip-path="url(#clip102)" cx="598.95" cy="1260.3" r="14" fill="#e26f46" fill-rule="evenodd" fill-opacity="1" stroke="#000000" stroke-opacity="1" stroke-width="3.2"/>
<circle clip-path="url(#clip102)" cx="617.808" cy="1282.94" r="14" fill="#e26f46" fill-rule="evenodd" fill-opacity="1" stroke="#000000" stroke-opacity="1" stroke-width="3.2"/>
<circle clip-path="url(#clip102)" cx="636.666" cy="1281.79" r="14" fill="#e26f46" fill-rule="evenodd" fill-opacity="1" stroke="#000000" stroke-opacity="1" stroke-width="3.2"/>
<circle clip-path="url(#clip102)" cx="655.524" cy="1272.38" r="14" fill="#e26f46" fill-rule="evenodd" fill-opacity="1" stroke="#000000" stroke-opacity="1" stroke-width="3.2"/>
<circle clip-path="url(#clip102)" cx="674.382" cy="1262.67" r="14" fill="#e26f46" fill-rule="evenodd" fill-opacity="1" stroke="#000000" stroke-opacity="1" stroke-width="3.2"/>
<circle clip-path="url(#clip102)" cx="693.24" cy="1262.11" r="14" fill="#e26f46" fill-rule="evenodd" fill-opacity="1" stroke="#000000" stroke-opacity="1" stroke-width="3.2"/>
<circle clip-path="url(#clip102)" cx="712.098" cy="1268.65" r="14" fill="#e26f46" fill-rule="evenodd" fill-opacity="1" stroke="#000000" stroke-opacity="1" stroke-width="3.2"/>
<circle clip-path="url(#clip102)" cx="730.957" cy="1278.48" r="14" fill="#e26f46" fill-rule="evenodd" fill-opacity="1" stroke="#000000" stroke-opacity="1" stroke-width="3.2"/>
<circle clip-path="url(#clip102)" cx="749.815" cy="1259.45" r="14" fill="#e26f46" fill-rule="evenodd" fill-opacity="1" stroke="#000000" stroke-opacity="1" stroke-width="3.2"/>
<circle clip-path="url(#clip102)" cx="768.673" cy="1259.87" r="14" fill="#e26f46" fill-rule="evenodd" fill-opacity="1" stroke="#000000" stroke-opacity="1" stroke-width="3.2"/>
<circle clip-path="url(#clip102)" cx="787.531" cy="1241.55" r="14" fill="#e26f46" fill-rule="evenodd" fill-opacity="1" stroke="#000000" stroke-opacity="1" stroke-width="3.2"/>
<circle clip-path="url(#clip102)" cx="806.389" cy="1250.57" r="14" fill="#e26f46" fill-rule="evenodd" fill-opacity="1" stroke="#000000" stroke-opacity="1" stroke-width="3.2"/>
<circle clip-path="url(#clip102)" cx="825.247" cy="1252.03" r="14" fill="#e26f46" fill-rule="evenodd" fill-opacity="1" stroke="#000000" stroke-opacity="1" stroke-width="3.2"/>
<circle clip-path="url(#clip102)" cx="844.105" cy="1245.07" r="14" fill="#e26f46" fill-rule="evenodd" fill-opacity="1" stroke="#000000" stroke-opacity="1" stroke-width="3.2"/>
<circle clip-path="url(#clip102)" cx="862.964" cy="1272.22" r="14" fill="#e26f46" fill-rule="evenodd" fill-opacity="1" stroke="#000000" stroke-opacity="1" stroke-width="3.2"/>
<circle clip-path="url(#clip102)" cx="881.822" cy="1253.44" r="14" fill="#e26f46" fill-rule="evenodd" fill-opacity="1" stroke="#000000" stroke-opacity="1" stroke-width="3.2"/>
<circle clip-path="url(#clip102)" cx="900.68" cy="1228.58" r="14" fill="#e26f46" fill-rule="evenodd" fill-opacity="1" stroke="#000000" stroke-opacity="1" stroke-width="3.2"/>
<circle clip-path="url(#clip102)" cx="919.538" cy="1230.83" r="14" fill="#e26f46" fill-rule="evenodd" fill-opacity="1" stroke="#000000" stroke-opacity="1" stroke-width="3.2"/>
<circle clip-path="url(#clip102)" cx="938.396" cy="1234.5" r="14" fill="#e26f46" fill-rule="evenodd" fill-opacity="1" stroke="#000000" stroke-opacity="1" stroke-width="3.2"/>
<circle clip-path="url(#clip102)" cx="957.254" cy="1229.93" r="14" fill="#e26f46" fill-rule="evenodd" fill-opacity="1" stroke="#000000" stroke-opacity="1" stroke-width="3.2"/>
<circle clip-path="url(#clip102)" cx="976.112" cy="1196.13" r="14" fill="#e26f46" fill-rule="evenodd" fill-opacity="1" stroke="#000000" stroke-opacity="1" stroke-width="3.2"/>
<circle clip-path="url(#clip102)" cx="994.97" cy="1205.5" r="14" fill="#e26f46" fill-rule="evenodd" fill-opacity="1" stroke="#000000" stroke-opacity="1" stroke-width="3.2"/>
<circle clip-path="url(#clip102)" cx="1013.83" cy="1206.32" r="14" fill="#e26f46" fill-rule="evenodd" fill-opacity="1" stroke="#000000" stroke-opacity="1" stroke-width="3.2"/>
<circle clip-path="url(#clip102)" cx="1032.69" cy="1176.95" r="14" fill="#e26f46" fill-rule="evenodd" fill-opacity="1" stroke="#000000" stroke-opacity="1" stroke-width="3.2"/>
<circle clip-path="url(#clip102)" cx="1051.54" cy="1195.69" r="14" fill="#e26f46" fill-rule="evenodd" fill-opacity="1" stroke="#000000" stroke-opacity="1" stroke-width="3.2"/>
<circle clip-path="url(#clip102)" cx="1070.4" cy="1180.25" r="14" fill="#e26f46" fill-rule="evenodd" fill-opacity="1" stroke="#000000" stroke-opacity="1" stroke-width="3.2"/>
<circle clip-path="url(#clip102)" cx="1089.26" cy="1195.64" r="14" fill="#e26f46" fill-rule="evenodd" fill-opacity="1" stroke="#000000" stroke-opacity="1" stroke-width="3.2"/>
<circle clip-path="url(#clip102)" cx="1108.12" cy="1160.08" r="14" fill="#e26f46" fill-rule="evenodd" fill-opacity="1" stroke="#000000" stroke-opacity="1" stroke-width="3.2"/>
<circle clip-path="url(#clip102)" cx="1126.98" cy="1181.88" r="14" fill="#e26f46" fill-rule="evenodd" fill-opacity="1" stroke="#000000" stroke-opacity="1" stroke-width="3.2"/>
<circle clip-path="url(#clip102)" cx="1145.84" cy="1155.59" r="14" fill="#e26f46" fill-rule="evenodd" fill-opacity="1" stroke="#000000" stroke-opacity="1" stroke-width="3.2"/>
<circle clip-path="url(#clip102)" cx="1164.69" cy="1110.06" r="14" fill="#e26f46" fill-rule="evenodd" fill-opacity="1" stroke="#000000" stroke-opacity="1" stroke-width="3.2"/>
<circle clip-path="url(#clip102)" cx="1183.55" cy="1111.92" r="14" fill="#e26f46" fill-rule="evenodd" fill-opacity="1" stroke="#000000" stroke-opacity="1" stroke-width="3.2"/>
<circle clip-path="url(#clip102)" cx="1202.41" cy="1101.22" r="14" fill="#e26f46" fill-rule="evenodd" fill-opacity="1" stroke="#000000" stroke-opacity="1" stroke-width="3.2"/>
<circle clip-path="url(#clip102)" cx="1221.27" cy="1080.74" r="14" fill="#e26f46" fill-rule="evenodd" fill-opacity="1" stroke="#000000" stroke-opacity="1" stroke-width="3.2"/>
<circle clip-path="url(#clip102)" cx="1240.13" cy="1071.78" r="14" fill="#e26f46" fill-rule="evenodd" fill-opacity="1" stroke="#000000" stroke-opacity="1" stroke-width="3.2"/>
<circle clip-path="url(#clip102)" cx="1258.98" cy="1071.96" r="14" fill="#e26f46" fill-rule="evenodd" fill-opacity="1" stroke="#000000" stroke-opacity="1" stroke-width="3.2"/>
<circle clip-path="url(#clip102)" cx="1277.84" cy="1026.15" r="14" fill="#e26f46" fill-rule="evenodd" fill-opacity="1" stroke="#000000" stroke-opacity="1" stroke-width="3.2"/>
<circle clip-path="url(#clip102)" cx="1296.7" cy="1011.47" r="14" fill="#e26f46" fill-rule="evenodd" fill-opacity="1" stroke="#000000" stroke-opacity="1" stroke-width="3.2"/>
<circle clip-path="url(#clip102)" cx="1315.56" cy="1023.97" r="14" fill="#e26f46" fill-rule="evenodd" fill-opacity="1" stroke="#000000" stroke-opacity="1" stroke-width="3.2"/>
<circle clip-path="url(#clip102)" cx="1334.42" cy="972.836" r="14" fill="#e26f46" fill-rule="evenodd" fill-opacity="1" stroke="#000000" stroke-opacity="1" stroke-width="3.2"/>
<circle clip-path="url(#clip102)" cx="1353.27" cy="945.465" r="14" fill="#e26f46" fill-rule="evenodd" fill-opacity="1" stroke="#000000" stroke-opacity="1" stroke-width="3.2"/>
<circle clip-path="url(#clip102)" cx="1372.13" cy="945.21" r="14" fill="#e26f46" fill-rule="evenodd" fill-opacity="1" stroke="#000000" stroke-opacity="1" stroke-width="3.2"/>
<circle clip-path="url(#clip102)" cx="1390.99" cy="905.829" r="14" fill="#e26f46" fill-rule="evenodd" fill-opacity="1" stroke="#000000" stroke-opacity="1" stroke-width="3.2"/>
<circle clip-path="url(#clip102)" cx="1409.85" cy="859.851" r="14" fill="#e26f46" fill-rule="evenodd" fill-opacity="1" stroke="#000000" stroke-opacity="1" stroke-width="3.2"/>
<circle clip-path="url(#clip102)" cx="1428.71" cy="855.836" r="14" fill="#e26f46" fill-rule="evenodd" fill-opacity="1" stroke="#000000" stroke-opacity="1" stroke-width="3.2"/>
<circle clip-path="url(#clip102)" cx="1447.57" cy="832.309" r="14" fill="#e26f46" fill-rule="evenodd" fill-opacity="1" stroke="#000000" stroke-opacity="1" stroke-width="3.2"/>
<circle clip-path="url(#clip102)" cx="1466.42" cy="805.317" r="14" fill="#e26f46" fill-rule="evenodd" fill-opacity="1" stroke="#000000" stroke-opacity="1" stroke-width="3.2"/>
<circle clip-path="url(#clip102)" cx="1485.28" cy="769.195" r="14" fill="#e26f46" fill-rule="evenodd" fill-opacity="1" stroke="#000000" stroke-opacity="1" stroke-width="3.2"/>
<circle clip-path="url(#clip102)" cx="1504.14" cy="724.081" r="14" fill="#e26f46" fill-rule="evenodd" fill-opacity="1" stroke="#000000" stroke-opacity="1" stroke-width="3.2"/>
<circle clip-path="url(#clip102)" cx="1523" cy="684.884" r="14" fill="#e26f46" fill-rule="evenodd" fill-opacity="1" stroke="#000000" stroke-opacity="1" stroke-width="3.2"/>
<circle clip-path="url(#clip102)" cx="1541.86" cy="686.641" r="14" fill="#e26f46" fill-rule="evenodd" fill-opacity="1" stroke="#000000" stroke-opacity="1" stroke-width="3.2"/>
<circle clip-path="url(#clip102)" cx="1560.71" cy="647.838" r="14" fill="#e26f46" fill-rule="evenodd" fill-opacity="1" stroke="#000000" stroke-opacity="1" stroke-width="3.2"/>
<circle clip-path="url(#clip102)" cx="1579.57" cy="620.801" r="14" fill="#e26f46" fill-rule="evenodd" fill-opacity="1" stroke="#000000" stroke-opacity="1" stroke-width="3.2"/>
<circle clip-path="url(#clip102)" cx="1598.43" cy="600.995" r="14" fill="#e26f46" fill-rule="evenodd" fill-opacity="1" stroke="#000000" stroke-opacity="1" stroke-width="3.2"/>
<circle clip-path="url(#clip102)" cx="1617.29" cy="547.755" r="14" fill="#e26f46" fill-rule="evenodd" fill-opacity="1" stroke="#000000" stroke-opacity="1" stroke-width="3.2"/>
<circle clip-path="url(#clip102)" cx="1636.15" cy="511.554" r="14" fill="#e26f46" fill-rule="evenodd" fill-opacity="1" stroke="#000000" stroke-opacity="1" stroke-width="3.2"/>
<circle clip-path="url(#clip102)" cx="1655.01" cy="486.164" r="14" fill="#e26f46" fill-rule="evenodd" fill-opacity="1" stroke="#000000" stroke-opacity="1" stroke-width="3.2"/>
<circle clip-path="url(#clip102)" cx="1673.86" cy="476.144" r="14" fill="#e26f46" fill-rule="evenodd" fill-opacity="1" stroke="#000000" stroke-opacity="1" stroke-width="3.2"/>
<circle clip-path="url(#clip102)" cx="1692.72" cy="432.249" r="14" fill="#e26f46" fill-rule="evenodd" fill-opacity="1" stroke="#000000" stroke-opacity="1" stroke-width="3.2"/>
<circle clip-path="url(#clip102)" cx="1711.58" cy="404.009" r="14" fill="#e26f46" fill-rule="evenodd" fill-opacity="1" stroke="#000000" stroke-opacity="1" stroke-width="3.2"/>
<circle clip-path="url(#clip102)" cx="1730.44" cy="419.365" r="14" fill="#e26f46" fill-rule="evenodd" fill-opacity="1" stroke="#000000" stroke-opacity="1" stroke-width="3.2"/>
<circle clip-path="url(#clip102)" cx="1749.3" cy="354.918" r="14" fill="#e26f46" fill-rule="evenodd" fill-opacity="1" stroke="#000000" stroke-opacity="1" stroke-width="3.2"/>
<circle clip-path="url(#clip102)" cx="1768.15" cy="335.406" r="14" fill="#e26f46" fill-rule="evenodd" fill-opacity="1" stroke="#000000" stroke-opacity="1" stroke-width="3.2"/>
<circle clip-path="url(#clip102)" cx="1787.01" cy="322.716" r="14" fill="#e26f46" fill-rule="evenodd" fill-opacity="1" stroke="#000000" stroke-opacity="1" stroke-width="3.2"/>
<circle clip-path="url(#clip102)" cx="1805.87" cy="298.824" r="14" fill="#e26f46" fill-rule="evenodd" fill-opacity="1" stroke="#000000" stroke-opacity="1" stroke-width="3.2"/>
<circle clip-path="url(#clip102)" cx="1824.73" cy="301.182" r="14" fill="#e26f46" fill-rule="evenodd" fill-opacity="1" stroke="#000000" stroke-opacity="1" stroke-width="3.2"/>
<circle clip-path="url(#clip102)" cx="1843.59" cy="257.296" r="14" fill="#e26f46" fill-rule="evenodd" fill-opacity="1" stroke="#000000" stroke-opacity="1" stroke-width="3.2"/>
<circle clip-path="url(#clip102)" cx="1862.44" cy="252.058" r="14" fill="#e26f46" fill-rule="evenodd" fill-opacity="1" stroke="#000000" stroke-opacity="1" stroke-width="3.2"/>
<circle clip-path="url(#clip102)" cx="1881.3" cy="232.883" r="14" fill="#e26f46" fill-rule="evenodd" fill-opacity="1" stroke="#000000" stroke-opacity="1" stroke-width="3.2"/>
<circle clip-path="url(#clip102)" cx="1900.16" cy="208.469" r="14" fill="#e26f46" fill-rule="evenodd" fill-opacity="1" stroke="#000000" stroke-opacity="1" stroke-width="3.2"/>
<circle clip-path="url(#clip102)" cx="1919.02" cy="204.174" r="14" fill="#e26f46" fill-rule="evenodd" fill-opacity="1" stroke="#000000" stroke-opacity="1" stroke-width="3.2"/>
<circle clip-path="url(#clip102)" cx="1937.88" cy="205.883" r="14" fill="#e26f46" fill-rule="evenodd" fill-opacity="1" stroke="#000000" stroke-opacity="1" stroke-width="3.2"/>
<circle clip-path="url(#clip102)" cx="1956.74" cy="179.107" r="14" fill="#e26f46" fill-rule="evenodd" fill-opacity="1" stroke="#000000" stroke-opacity="1" stroke-width="3.2"/>
<circle clip-path="url(#clip102)" cx="1975.59" cy="174.245" r="14" fill="#e26f46" fill-rule="evenodd" fill-opacity="1" stroke="#000000" stroke-opacity="1" stroke-width="3.2"/>
<circle clip-path="url(#clip102)" cx="1994.45" cy="179.757" r="14" fill="#e26f46" fill-rule="evenodd" fill-opacity="1" stroke="#000000" stroke-opacity="1" stroke-width="3.2"/>
<circle clip-path="url(#clip102)" cx="2013.31" cy="139.69" r="14" fill="#e26f46" fill-rule="evenodd" fill-opacity="1" stroke="#000000" stroke-opacity="1" stroke-width="3.2"/>
<circle clip-path="url(#clip102)" cx="2032.17" cy="148.87" r="14" fill="#e26f46" fill-rule="evenodd" fill-opacity="1" stroke="#000000" stroke-opacity="1" stroke-width="3.2"/>
<circle clip-path="url(#clip102)" cx="2051.03" cy="133.882" r="14" fill="#e26f46" fill-rule="evenodd" fill-opacity="1" stroke="#000000" stroke-opacity="1" stroke-width="3.2"/>
<circle clip-path="url(#clip102)" cx="2069.88" cy="128.721" r="14" fill="#e26f46" fill-rule="evenodd" fill-opacity="1" stroke="#000000" stroke-opacity="1" stroke-width="3.2"/>
<circle clip-path="url(#clip102)" cx="2088.74" cy="117.216" r="14" fill="#e26f46" fill-rule="evenodd" fill-opacity="1" stroke="#000000" stroke-opacity="1" stroke-width="3.2"/>
<circle clip-path="url(#clip102)" cx="2107.6" cy="132.304" r="14" fill="#e26f46" fill-rule="evenodd" fill-opacity="1" stroke="#000000" stroke-opacity="1" stroke-width="3.2"/>
<path clip-path="url(#clip100)" d="
M420.426 245.154 L971.744 245.154 L971.744 89.6336 L420.426 89.6336  Z
  " fill="#ffffff" fill-rule="evenodd" fill-opacity="1"/>
<polyline clip-path="url(#clip100)" style="stroke:#000000; stroke-linecap:butt; stroke-linejoin:round; stroke-width:4; stroke-opacity:1; fill:none" points="
  420.426,245.154 971.744,245.154 971.744,89.6336 420.426,89.6336 420.426,245.154 
  "/>
<polyline clip-path="url(#clip100)" style="stroke:#009af9; stroke-linecap:butt; stroke-linejoin:round; stroke-width:4; stroke-opacity:1; fill:none" points="
  442.637,141.474 575.901,141.474 
  "/>
<path clip-path="url(#clip100)" d="M616.537 133.592 L616.537 137.619 Q614.732 136.693 612.787 136.231 Q610.843 135.768 608.76 135.768 Q605.588 135.768 603.991 136.74 Q602.417 137.712 602.417 139.656 Q602.417 141.138 603.551 141.994 Q604.686 142.828 608.112 143.592 L609.57 143.916 Q614.107 144.888 616.005 146.67 Q617.926 148.43 617.926 151.601 Q617.926 155.212 615.056 157.318 Q612.209 159.425 607.209 159.425 Q605.125 159.425 602.857 159.008 Q600.612 158.615 598.112 157.804 L598.112 153.406 Q600.473 154.633 602.764 155.258 Q605.056 155.86 607.301 155.86 Q610.311 155.86 611.931 154.842 Q613.551 153.8 613.551 151.925 Q613.551 150.189 612.371 149.263 Q611.213 148.337 607.255 147.48 L605.774 147.133 Q601.815 146.3 600.056 144.587 Q598.297 142.851 598.297 139.842 Q598.297 136.184 600.889 134.194 Q603.482 132.203 608.25 132.203 Q610.612 132.203 612.695 132.55 Q614.778 132.897 616.537 133.592 Z" fill="#000000" fill-rule="evenodd" fill-opacity="1" /><path clip-path="url(#clip100)" d="M624.709 132.828 L628.968 132.828 L628.968 158.754 L624.709 158.754 L624.709 132.828 M624.709 122.735 L628.968 122.735 L628.968 128.129 L624.709 128.129 L624.709 122.735 Z" fill="#000000" fill-rule="evenodd" fill-opacity="1" /><path clip-path="url(#clip100)" d="M654.94 145.49 Q654.94 140.86 653.019 138.314 Q651.121 135.768 647.671 135.768 Q644.246 135.768 642.324 138.314 Q640.426 140.86 640.426 145.49 Q640.426 150.096 642.324 152.642 Q644.246 155.189 647.671 155.189 Q651.121 155.189 653.019 152.642 Q654.94 150.096 654.94 145.49 M659.199 155.536 Q659.199 162.156 656.259 165.374 Q653.32 168.615 647.255 168.615 Q645.009 168.615 643.019 168.267 Q641.028 167.943 639.153 167.249 L639.153 163.105 Q641.028 164.124 642.857 164.61 Q644.685 165.096 646.584 165.096 Q650.773 165.096 652.857 162.897 Q654.94 160.721 654.94 156.3 L654.94 154.193 Q653.621 156.485 651.56 157.619 Q649.5 158.754 646.63 158.754 Q641.861 158.754 638.945 155.119 Q636.028 151.485 636.028 145.49 Q636.028 139.471 638.945 135.837 Q641.861 132.203 646.63 132.203 Q649.5 132.203 651.56 133.337 Q653.621 134.471 654.94 136.763 L654.94 132.828 L659.199 132.828 L659.199 155.536 Z" fill="#000000" fill-rule="evenodd" fill-opacity="1" /><path clip-path="url(#clip100)" d="M688.157 137.805 Q689.755 134.934 691.977 133.569 Q694.199 132.203 697.208 132.203 Q701.259 132.203 703.458 135.05 Q705.657 137.874 705.657 143.105 L705.657 158.754 L701.375 158.754 L701.375 143.244 Q701.375 139.518 700.055 137.712 Q698.736 135.906 696.028 135.906 Q692.718 135.906 690.796 138.106 Q688.875 140.305 688.875 144.101 L688.875 158.754 L684.593 158.754 L684.593 143.244 Q684.593 139.494 683.273 137.712 Q681.954 135.906 679.199 135.906 Q675.935 135.906 674.014 138.129 Q672.093 140.328 672.093 144.101 L672.093 158.754 L667.81 158.754 L667.81 132.828 L672.093 132.828 L672.093 136.856 Q673.551 134.471 675.588 133.337 Q677.625 132.203 680.426 132.203 Q683.25 132.203 685.218 133.638 Q687.208 135.073 688.157 137.805 Z" fill="#000000" fill-rule="evenodd" fill-opacity="1" /><path clip-path="url(#clip100)" d="M724.199 135.814 Q720.773 135.814 718.782 138.499 Q716.791 141.161 716.791 145.814 Q716.791 150.467 718.759 153.152 Q720.75 155.814 724.199 155.814 Q727.602 155.814 729.592 153.129 Q731.583 150.443 731.583 145.814 Q731.583 141.207 729.592 138.522 Q727.602 135.814 724.199 135.814 M724.199 132.203 Q729.754 132.203 732.926 135.814 Q736.097 139.425 736.097 145.814 Q736.097 152.18 732.926 155.814 Q729.754 159.425 724.199 159.425 Q718.62 159.425 715.449 155.814 Q712.301 152.18 712.301 145.814 Q712.301 139.425 715.449 135.814 Q718.62 132.203 724.199 132.203 Z" fill="#000000" fill-rule="evenodd" fill-opacity="1" /><path clip-path="url(#clip100)" d="M743.157 132.828 L747.416 132.828 L747.416 158.754 L743.157 158.754 L743.157 132.828 M743.157 122.735 L747.416 122.735 L747.416 128.129 L743.157 128.129 L743.157 122.735 Z" fill="#000000" fill-rule="evenodd" fill-opacity="1" /><path clip-path="url(#clip100)" d="M773.388 136.763 L773.388 122.735 L777.648 122.735 L777.648 158.754 L773.388 158.754 L773.388 154.865 Q772.046 157.179 769.986 158.314 Q767.949 159.425 765.078 159.425 Q760.379 159.425 757.416 155.675 Q754.476 151.925 754.476 145.814 Q754.476 139.703 757.416 135.953 Q760.379 132.203 765.078 132.203 Q767.949 132.203 769.986 133.337 Q772.046 134.448 773.388 136.763 M758.875 145.814 Q758.875 150.513 760.796 153.198 Q762.74 155.86 766.12 155.86 Q769.5 155.86 771.444 153.198 Q773.388 150.513 773.388 145.814 Q773.388 141.115 771.444 138.453 Q769.5 135.768 766.12 135.768 Q762.74 135.768 760.796 138.453 Q758.875 141.115 758.875 145.814 Z" fill="#000000" fill-rule="evenodd" fill-opacity="1" /><path clip-path="url(#clip100)" d="M820.147 133.823 L820.147 137.805 Q818.342 136.809 816.513 136.323 Q814.708 135.814 812.856 135.814 Q808.712 135.814 806.421 138.453 Q804.129 141.068 804.129 145.814 Q804.129 150.559 806.421 153.198 Q808.712 155.814 812.856 155.814 Q814.708 155.814 816.513 155.328 Q818.342 154.818 820.147 153.823 L820.147 157.758 Q818.365 158.592 816.444 159.008 Q814.546 159.425 812.393 159.425 Q806.536 159.425 803.087 155.744 Q799.638 152.064 799.638 145.814 Q799.638 139.471 803.11 135.837 Q806.606 132.203 812.671 132.203 Q814.638 132.203 816.513 132.619 Q818.388 133.013 820.147 133.823 Z" fill="#000000" fill-rule="evenodd" fill-opacity="1" /><path clip-path="url(#clip100)" d="M827.115 148.522 L827.115 132.828 L831.374 132.828 L831.374 148.36 Q831.374 152.041 832.809 153.892 Q834.245 155.721 837.115 155.721 Q840.564 155.721 842.555 153.522 Q844.569 151.323 844.569 147.527 L844.569 132.828 L848.828 132.828 L848.828 158.754 L844.569 158.754 L844.569 154.772 Q843.018 157.133 840.957 158.291 Q838.92 159.425 836.212 159.425 Q831.745 159.425 829.43 156.647 Q827.115 153.869 827.115 148.522 M837.833 132.203 L837.833 132.203 Z" fill="#000000" fill-rule="evenodd" fill-opacity="1" /><path clip-path="url(#clip100)" d="M872.624 136.809 Q871.906 136.393 871.05 136.207 Q870.217 135.999 869.198 135.999 Q865.587 135.999 863.643 138.36 Q861.721 140.698 861.721 145.096 L861.721 158.754 L857.439 158.754 L857.439 132.828 L861.721 132.828 L861.721 136.856 Q863.064 134.494 865.217 133.36 Q867.369 132.203 870.448 132.203 Q870.888 132.203 871.42 132.272 Q871.953 132.319 872.601 132.434 L872.624 136.809 Z" fill="#000000" fill-rule="evenodd" fill-opacity="1" /><path clip-path="url(#clip100)" d="M874.036 132.828 L878.55 132.828 L886.652 154.587 L894.753 132.828 L899.267 132.828 L889.545 158.754 L883.758 158.754 L874.036 132.828 Z" fill="#000000" fill-rule="evenodd" fill-opacity="1" /><path clip-path="url(#clip100)" d="M927.323 144.726 L927.323 146.809 L907.74 146.809 Q908.017 151.207 910.378 153.522 Q912.763 155.814 916.999 155.814 Q919.452 155.814 921.744 155.212 Q924.059 154.61 926.327 153.406 L926.327 157.434 Q924.036 158.406 921.628 158.916 Q919.221 159.425 916.744 159.425 Q910.54 159.425 906.906 155.814 Q903.295 152.203 903.295 146.045 Q903.295 139.68 906.721 135.953 Q910.17 132.203 916.003 132.203 Q921.235 132.203 924.267 135.582 Q927.323 138.939 927.323 144.726 M923.064 143.476 Q923.017 139.981 921.096 137.897 Q919.198 135.814 916.05 135.814 Q912.485 135.814 910.332 137.828 Q908.202 139.842 907.878 143.499 L923.064 143.476 Z" fill="#000000" fill-rule="evenodd" fill-opacity="1" /><circle clip-path="url(#clip100)" cx="509.269" cy="193.314" r="23" fill="#e26f46" fill-rule="evenodd" fill-opacity="1" stroke="#000000" stroke-opacity="1" stroke-width="5.12"/>
<path clip-path="url(#clip100)" d="M610.01 187.654 Q606.584 187.654 604.593 190.339 Q602.602 193.001 602.602 197.654 Q602.602 202.307 604.57 204.992 Q606.561 207.654 610.01 207.654 Q613.412 207.654 615.403 204.969 Q617.394 202.283 617.394 197.654 Q617.394 193.047 615.403 190.362 Q613.412 187.654 610.01 187.654 M610.01 184.043 Q615.565 184.043 618.736 187.654 Q621.908 191.265 621.908 197.654 Q621.908 204.02 618.736 207.654 Q615.565 211.265 610.01 211.265 Q604.431 211.265 601.26 207.654 Q598.112 204.02 598.112 197.654 Q598.112 191.265 601.26 187.654 Q604.431 184.043 610.01 184.043 Z" fill="#000000" fill-rule="evenodd" fill-opacity="1" /><path clip-path="url(#clip100)" d="M647.579 197.654 Q647.579 192.955 645.634 190.293 Q643.713 187.608 640.334 187.608 Q636.954 187.608 635.01 190.293 Q633.088 192.955 633.088 197.654 Q633.088 202.353 635.01 205.038 Q636.954 207.7 640.334 207.7 Q643.713 207.7 645.634 205.038 Q647.579 202.353 647.579 197.654 M633.088 188.603 Q634.431 186.288 636.468 185.177 Q638.528 184.043 641.375 184.043 Q646.097 184.043 649.037 187.793 Q652 191.543 652 197.654 Q652 203.765 649.037 207.515 Q646.097 211.265 641.375 211.265 Q638.528 211.265 636.468 210.154 Q634.431 209.019 633.088 206.705 L633.088 210.594 L628.806 210.594 L628.806 174.575 L633.088 174.575 L633.088 188.603 Z" fill="#000000" fill-rule="evenodd" fill-opacity="1" /><path clip-path="url(#clip100)" d="M675.588 185.432 L675.588 189.459 Q673.782 188.533 671.838 188.071 Q669.894 187.608 667.81 187.608 Q664.639 187.608 663.042 188.58 Q661.468 189.552 661.468 191.496 Q661.468 192.978 662.602 193.834 Q663.736 194.668 667.162 195.432 L668.62 195.756 Q673.157 196.728 675.056 198.51 Q676.977 200.27 676.977 203.441 Q676.977 207.052 674.107 209.158 Q671.259 211.265 666.259 211.265 Q664.176 211.265 661.908 210.848 Q659.662 210.455 657.162 209.644 L657.162 205.246 Q659.523 206.473 661.815 207.098 Q664.107 207.7 666.352 207.7 Q669.361 207.7 670.982 206.682 Q672.602 205.64 672.602 203.765 Q672.602 202.029 671.421 201.103 Q670.264 200.177 666.306 199.32 L664.824 198.973 Q660.866 198.14 659.107 196.427 Q657.347 194.691 657.347 191.682 Q657.347 188.024 659.94 186.034 Q662.533 184.043 667.301 184.043 Q669.662 184.043 671.745 184.39 Q673.829 184.737 675.588 185.432 Z" fill="#000000" fill-rule="evenodd" fill-opacity="1" /><path clip-path="url(#clip100)" d="M705.935 196.566 L705.935 198.649 L686.352 198.649 Q686.63 203.047 688.991 205.362 Q691.375 207.654 695.611 207.654 Q698.065 207.654 700.356 207.052 Q702.671 206.45 704.94 205.246 L704.94 209.274 Q702.648 210.246 700.241 210.756 Q697.833 211.265 695.356 211.265 Q689.153 211.265 685.519 207.654 Q681.907 204.043 681.907 197.885 Q681.907 191.52 685.333 187.793 Q688.782 184.043 694.616 184.043 Q699.847 184.043 702.88 187.422 Q705.935 190.779 705.935 196.566 M701.676 195.316 Q701.63 191.821 699.708 189.737 Q697.81 187.654 694.662 187.654 Q691.097 187.654 688.944 189.668 Q686.815 191.682 686.491 195.339 L701.676 195.316 Z" fill="#000000" fill-rule="evenodd" fill-opacity="1" /><path clip-path="url(#clip100)" d="M727.949 188.649 Q727.231 188.233 726.375 188.047 Q725.541 187.839 724.523 187.839 Q720.912 187.839 718.967 190.2 Q717.046 192.538 717.046 196.936 L717.046 210.594 L712.764 210.594 L712.764 184.668 L717.046 184.668 L717.046 188.696 Q718.389 186.334 720.541 185.2 Q722.694 184.043 725.773 184.043 Q726.213 184.043 726.745 184.112 Q727.278 184.159 727.926 184.274 L727.949 188.649 Z" fill="#000000" fill-rule="evenodd" fill-opacity="1" /><path clip-path="url(#clip100)" d="M729.361 184.668 L733.875 184.668 L741.977 206.427 L750.078 184.668 L754.592 184.668 L744.87 210.594 L739.083 210.594 L729.361 184.668 Z" fill="#000000" fill-rule="evenodd" fill-opacity="1" /><path clip-path="url(#clip100)" d="M782.648 196.566 L782.648 198.649 L763.064 198.649 Q763.342 203.047 765.703 205.362 Q768.088 207.654 772.324 207.654 Q774.777 207.654 777.069 207.052 Q779.384 206.45 781.652 205.246 L781.652 209.274 Q779.361 210.246 776.953 210.756 Q774.546 211.265 772.069 211.265 Q765.865 211.265 762.231 207.654 Q758.62 204.043 758.62 197.885 Q758.62 191.52 762.046 187.793 Q765.495 184.043 771.328 184.043 Q776.56 184.043 779.592 187.422 Q782.648 190.779 782.648 196.566 M778.388 195.316 Q778.342 191.821 776.421 189.737 Q774.523 187.654 771.375 187.654 Q767.81 187.654 765.657 189.668 Q763.527 191.682 763.203 195.339 L778.388 195.316 Z" fill="#000000" fill-rule="evenodd" fill-opacity="1" /><path clip-path="url(#clip100)" d="M806.698 188.603 L806.698 174.575 L810.958 174.575 L810.958 210.594 L806.698 210.594 L806.698 206.705 Q805.356 209.019 803.296 210.154 Q801.259 211.265 798.388 211.265 Q793.689 211.265 790.726 207.515 Q787.786 203.765 787.786 197.654 Q787.786 191.543 790.726 187.793 Q793.689 184.043 798.388 184.043 Q801.259 184.043 803.296 185.177 Q805.356 186.288 806.698 188.603 M792.185 197.654 Q792.185 202.353 794.106 205.038 Q796.05 207.7 799.43 207.7 Q802.81 207.7 804.754 205.038 Q806.698 202.353 806.698 197.654 Q806.698 192.955 804.754 190.293 Q802.81 187.608 799.43 187.608 Q796.05 187.608 794.106 190.293 Q792.185 192.955 792.185 197.654 Z" fill="#000000" fill-rule="evenodd" fill-opacity="1" /></svg>
