<?xml version="1.0" encoding="utf-8"?>
<svg xmlns="http://www.w3.org/2000/svg" xmlns:xlink="http://www.w3.org/1999/xlink" width="600" height="400" viewBox="0 0 2400 1600">
<defs>
  <clipPath id="clip680">
    <rect x="0" y="0" width="2400" height="1600"/>
  </clipPath>
</defs>
<path clip-path="url(#clip680)" d="
M0 1600 L2400 1600 L2400 0 L0 0  Z
  " fill="#ffffff" fill-rule="evenodd" fill-opacity="1"/>
<defs>
  <clipPath id="clip681">
    <rect x="480" y="0" width="1681" height="1600"/>
  </clipPath>
</defs>
<path clip-path="url(#clip680)" d="
M86.9921 1521.01 L2352.76 1521.01 L2352.76 47.2441 L86.9921 47.2441  Z
  " fill="#ffffff" fill-rule="evenodd" fill-opacity="1"/>
<defs>
  <clipPath id="clip682">
    <rect x="86" y="47" width="2267" height="1475"/>
  </clipPath>
</defs>
<polyline clip-path="url(#clip682)" style="stroke:#000000; stroke-width:2; stroke-opacity:0.1; fill:none" points="
  364.869,1521.01 364.869,47.2441 
  "/>
<polyline clip-path="url(#clip682)" style="stroke:#000000; stroke-width:2; stroke-opacity:0.1; fill:none" points="
  792.371,1521.01 792.371,47.2441 
  "/>
<polyline clip-path="url(#clip682)" style="stroke:#000000; stroke-width:2; stroke-opacity:0.1; fill:none" points="
  1219.87,1521.01 1219.87,47.2441 
  "/>
<polyline clip-path="url(#clip682)" style="stroke:#000000; stroke-width:2; stroke-opacity:0.1; fill:none" points="
  1647.38,1521.01 1647.38,47.2441 
  "/>
<polyline clip-path="url(#clip682)" style="stroke:#000000; stroke-width:2; stroke-opacity:0.1; fill:none" points="
  2074.88,1521.01 2074.88,47.2441 
  "/>
<polyline clip-path="url(#clip680)" style="stroke:#000000; stroke-width:4; stroke-opacity:1; fill:none" points="
  86.9921,1521.01 2352.76,1521.01 
  "/>
<polyline clip-path="url(#clip680)" style="stroke:#000000; stroke-width:4; stroke-opacity:1; fill:none" points="
  364.869,1521.01 364.869,1503.32 
  "/>
<polyline clip-path="url(#clip680)" style="stroke:#000000; stroke-width:4; stroke-opacity:1; fill:none" points="
  792.371,1521.01 792.371,1503.32 
  "/>
<polyline clip-path="url(#clip680)" style="stroke:#000000; stroke-width:4; stroke-opacity:1; fill:none" points="
  1219.87,1521.01 1219.87,1503.32 
  "/>
<polyline clip-path="url(#clip680)" style="stroke:#000000; stroke-width:4; stroke-opacity:1; fill:none" points="
  1647.38,1521.01 1647.38,1503.32 
  "/>
<polyline clip-path="url(#clip680)" style="stroke:#000000; stroke-width:4; stroke-opacity:1; fill:none" points="
  2074.88,1521.01 2074.88,1503.32 
  "/>
<path clip-path="url(#clip680)" d="M 0 0 M333.769 1564.85 L363.445 1564.85 L363.445 1568.79 L333.769 1568.79 L333.769 1564.85 Z" fill="#000000" fill-rule="evenodd" fill-opacity="1" /><path clip-path="url(#clip680)" d="M 0 0 M386.385 1551.19 L374.579 1569.64 L386.385 1569.64 L386.385 1551.19 M385.158 1547.12 L391.038 1547.12 L391.038 1569.64 L395.968 1569.64 L395.968 1573.53 L391.038 1573.53 L391.038 1581.68 L386.385 1581.68 L386.385 1573.53 L370.783 1573.53 L370.783 1569.02 L385.158 1547.12 Z" fill="#000000" fill-rule="evenodd" fill-opacity="1" /><path clip-path="url(#clip680)" d="M 0 0 M762.314 1564.85 L791.989 1564.85 L791.989 1568.79 L762.314 1568.79 L762.314 1564.85 Z" fill="#000000" fill-rule="evenodd" fill-opacity="1" /><path clip-path="url(#clip680)" d="M 0 0 M806.11 1577.74 L822.429 1577.74 L822.429 1581.68 L800.485 1581.68 L800.485 1577.74 Q803.147 1574.99 807.73 1570.36 Q812.337 1565.71 813.517 1564.37 Q815.762 1561.84 816.642 1560.11 Q817.545 1558.35 817.545 1556.66 Q817.545 1553.9 815.6 1552.17 Q813.679 1550.43 810.577 1550.43 Q808.378 1550.43 805.925 1551.19 Q803.494 1551.96 800.716 1553.51 L800.716 1548.79 Q803.54 1547.65 805.994 1547.07 Q808.448 1546.49 810.485 1546.49 Q815.855 1546.49 819.05 1549.18 Q822.244 1551.87 822.244 1556.36 Q822.244 1558.49 821.434 1560.41 Q820.647 1562.3 818.54 1564.9 Q817.962 1565.57 814.86 1568.79 Q811.758 1571.98 806.11 1577.74 Z" fill="#000000" fill-rule="evenodd" fill-opacity="1" /><path clip-path="url(#clip680)" d="M 0 0 M1219.87 1550.2 Q1216.26 1550.2 1214.43 1553.76 Q1212.63 1557.31 1212.63 1564.43 Q1212.63 1571.54 1214.43 1575.11 Q1216.26 1578.65 1219.87 1578.65 Q1223.51 1578.65 1225.31 1575.11 Q1227.14 1571.54 1227.14 1564.43 Q1227.14 1557.31 1225.31 1553.76 Q1223.51 1550.2 1219.87 1550.2 M1219.87 1546.49 Q1225.68 1546.49 1228.74 1551.1 Q1231.82 1555.68 1231.82 1564.43 Q1231.82 1573.16 1228.74 1577.77 Q1225.68 1582.35 1219.87 1582.35 Q1214.06 1582.35 1210.99 1577.77 Q1207.93 1573.16 1207.93 1564.43 Q1207.93 1555.68 1210.99 1551.1 Q1214.06 1546.49 1219.87 1546.49 Z" fill="#000000" fill-rule="evenodd" fill-opacity="1" /><path clip-path="url(#clip680)" d="M 0 0 M1642.03 1577.74 L1658.35 1577.74 L1658.35 1581.68 L1636.4 1581.68 L1636.4 1577.74 Q1639.07 1574.99 1643.65 1570.36 Q1648.26 1565.71 1649.44 1564.37 Q1651.68 1561.84 1652.56 1560.11 Q1653.46 1558.35 1653.46 1556.66 Q1653.46 1553.9 1651.52 1552.17 Q1649.6 1550.43 1646.5 1550.43 Q1644.3 1550.43 1641.84 1551.19 Q1639.41 1551.96 1636.64 1553.51 L1636.64 1548.79 Q1639.46 1547.65 1641.91 1547.07 Q1644.37 1546.49 1646.4 1546.49 Q1651.77 1546.49 1654.97 1549.18 Q1658.16 1551.87 1658.16 1556.36 Q1658.16 1558.49 1657.35 1560.41 Q1656.57 1562.3 1654.46 1564.9 Q1653.88 1565.57 1650.78 1568.79 Q1647.68 1571.98 1642.03 1577.74 Z" fill="#000000" fill-rule="evenodd" fill-opacity="1" /><path clip-path="url(#clip680)" d="M 0 0 M2077.89 1551.19 L2066.08 1569.64 L2077.89 1569.64 L2077.89 1551.19 M2076.66 1547.12 L2082.54 1547.12 L2082.54 1569.64 L2087.47 1569.64 L2087.47 1573.53 L2082.54 1573.53 L2082.54 1581.68 L2077.89 1581.68 L2077.89 1573.53 L2062.29 1573.53 L2062.29 1569.02 L2076.66 1547.12 Z" fill="#000000" fill-rule="evenodd" fill-opacity="1" /><polyline clip-path="url(#clip682)" style="stroke:#000000; stroke-width:2; stroke-opacity:0.1; fill:none" points="
  86.9921,1458.81 2352.76,1458.81 
  "/>
<polyline clip-path="url(#clip682)" style="stroke:#000000; stroke-width:2; stroke-opacity:0.1; fill:none" points="
  86.9921,1184.66 2352.76,1184.66 
  "/>
<polyline clip-path="url(#clip682)" style="stroke:#000000; stroke-width:2; stroke-opacity:0.1; fill:none" points="
  86.9921,910.5 2352.76,910.5 
  "/>
<polyline clip-path="url(#clip682)" style="stroke:#000000; stroke-width:2; stroke-opacity:0.1; fill:none" points="
  86.9921,636.343 2352.76,636.343 
  "/>
<polyline clip-path="url(#clip682)" style="stroke:#000000; stroke-width:2; stroke-opacity:0.1; fill:none" points="
  86.9921,362.187 2352.76,362.187 
  "/>
<polyline clip-path="url(#clip682)" style="stroke:#000000; stroke-width:2; stroke-opacity:0.1; fill:none" points="
  86.9921,88.0299 2352.76,88.0299 
  "/>
<polyline clip-path="url(#clip680)" style="stroke:#000000; stroke-width:4; stroke-opacity:1; fill:none" points="
  86.9921,1521.01 86.9921,47.2441 
  "/>
<polyline clip-path="url(#clip680)" style="stroke:#000000; stroke-width:4; stroke-opacity:1; fill:none" points="
  86.9921,1458.81 114.181,1458.81 
  "/>
<polyline clip-path="url(#clip680)" style="stroke:#000000; stroke-width:4; stroke-opacity:1; fill:none" points="
  86.9921,1184.66 114.181,1184.66 
  "/>
<polyline clip-path="url(#clip680)" style="stroke:#000000; stroke-width:4; stroke-opacity:1; fill:none" points="
  86.9921,910.5 114.181,910.5 
  "/>
<polyline clip-path="url(#clip680)" style="stroke:#000000; stroke-width:4; stroke-opacity:1; fill:none" points="
  86.9921,636.343 114.181,636.343 
  "/>
<polyline clip-path="url(#clip680)" style="stroke:#000000; stroke-width:4; stroke-opacity:1; fill:none" points="
  86.9921,362.187 114.181,362.187 
  "/>
<polyline clip-path="url(#clip680)" style="stroke:#000000; stroke-width:4; stroke-opacity:1; fill:none" points="
  86.9921,88.0299 114.181,88.0299 
  "/>
<path clip-path="url(#clip680)" d="M 0 0 M-36.3454 1444.61 Q-39.9565 1444.61 -41.7852 1448.18 Q-43.5907 1451.72 -43.5907 1458.85 Q-43.5907 1465.96 -41.7852 1469.52 Q-39.9565 1473.06 -36.3454 1473.06 Q-32.7111 1473.06 -30.9056 1469.52 Q-29.0769 1465.96 -29.0769 1458.85 Q-29.0769 1451.72 -30.9056 1448.18 Q-32.7111 1444.61 -36.3454 1444.61 M-36.3454 1440.91 Q-30.5352 1440.91 -27.4797 1445.52 Q-24.401 1450.1 -24.401 1458.85 Q-24.401 1467.58 -27.4797 1472.18 Q-30.5352 1476.77 -36.3454 1476.77 Q-42.1555 1476.77 -45.2342 1472.18 Q-48.2897 1467.58 -48.2897 1458.85 Q-48.2897 1450.1 -45.2342 1445.52 Q-42.1555 1440.91 -36.3454 1440.91 Z" fill="#000000" fill-rule="evenodd" fill-opacity="1" /><path clip-path="url(#clip680)" d="M 0 0 M-16.1834 1470.21 L-11.2992 1470.21 L-11.2992 1476.09 L-16.1834 1476.09 L-16.1834 1470.21 Z" fill="#000000" fill-rule="evenodd" fill-opacity="1" /><path clip-path="url(#clip680)" d="M 0 0 M8.88587 1444.61 Q5.27478 1444.61 3.44608 1448.18 Q1.64054 1451.72 1.64054 1458.85 Q1.64054 1465.96 3.44608 1469.52 Q5.27478 1473.06 8.88587 1473.06 Q12.5201 1473.06 14.3257 1469.52 Q16.1543 1465.96 16.1543 1458.85 Q16.1543 1451.72 14.3257 1448.18 Q12.5201 1444.61 8.88587 1444.61 M8.88587 1440.91 Q14.696 1440.91 17.7516 1445.52 Q20.8303 1450.1 20.8303 1458.85 Q20.8303 1467.58 17.7516 1472.18 Q14.696 1476.77 8.88587 1476.77 Q3.07572 1476.77 -0.00297114 1472.18 Q-3.05851 1467.58 -3.05851 1458.85 Q-3.05851 1450.1 -0.00297114 1445.52 Q3.07572 1440.91 8.88587 1440.91 Z" fill="#000000" fill-rule="evenodd" fill-opacity="1" /><path clip-path="url(#clip680)" d="M 0 0 M39.0477 1444.61 Q35.4367 1444.61 33.608 1448.18 Q31.8024 1451.72 31.8024 1458.85 Q31.8024 1465.96 33.608 1469.52 Q35.4367 1473.06 39.0477 1473.06 Q42.682 1473.06 44.4875 1469.52 Q46.3162 1465.96 46.3162 1458.85 Q46.3162 1451.72 44.4875 1448.18 Q42.682 1444.61 39.0477 1444.61 M39.0477 1440.91 Q44.8579 1440.91 47.9134 1445.52 Q50.9921 1450.1 50.9921 1458.85 Q50.9921 1467.58 47.9134 1472.18 Q44.8579 1476.77 39.0477 1476.77 Q33.2376 1476.77 30.1589 1472.18 Q27.1034 1467.58 27.1034 1458.85 Q27.1034 1450.1 30.1589 1445.52 Q33.2376 1440.91 39.0477 1440.91 Z" fill="#000000" fill-rule="evenodd" fill-opacity="1" /><path clip-path="url(#clip680)" d="M 0 0 M-35.35 1170.46 Q-38.9611 1170.46 -40.7898 1174.02 Q-42.5953 1177.56 -42.5953 1184.69 Q-42.5953 1191.8 -40.7898 1195.36 Q-38.9611 1198.9 -35.35 1198.9 Q-31.7158 1198.9 -29.9102 1195.36 Q-28.0815 1191.8 -28.0815 1184.69 Q-28.0815 1177.56 -29.9102 1174.02 Q-31.7158 1170.46 -35.35 1170.46 M-35.35 1166.75 Q-29.5398 1166.75 -26.4843 1171.36 Q-23.4056 1175.94 -23.4056 1184.69 Q-23.4056 1193.42 -26.4843 1198.03 Q-29.5398 1202.61 -35.35 1202.61 Q-41.1602 1202.61 -44.2388 1198.03 Q-47.2944 1193.42 -47.2944 1184.69 Q-47.2944 1175.94 -44.2388 1171.36 Q-41.1602 1166.75 -35.35 1166.75 Z" fill="#000000" fill-rule="evenodd" fill-opacity="1" /><path clip-path="url(#clip680)" d="M 0 0 M-15.1881 1196.06 L-10.3038 1196.06 L-10.3038 1201.94 L-15.1881 1201.94 L-15.1881 1196.06 Z" fill="#000000" fill-rule="evenodd" fill-opacity="1" /><path clip-path="url(#clip680)" d="M 0 0 M9.88124 1170.46 Q6.27014 1170.46 4.44145 1174.02 Q2.6359 1177.56 2.6359 1184.69 Q2.6359 1191.8 4.44145 1195.36 Q6.27014 1198.9 9.88124 1198.9 Q13.5155 1198.9 15.321 1195.36 Q17.1497 1191.8 17.1497 1184.69 Q17.1497 1177.56 15.321 1174.02 Q13.5155 1170.46 9.88124 1170.46 M9.88124 1166.75 Q15.6914 1166.75 18.7469 1171.36 Q21.8256 1175.94 21.8256 1184.69 Q21.8256 1193.42 18.7469 1198.03 Q15.6914 1202.61 9.88124 1202.61 Q4.07108 1202.61 0.992394 1198.03 Q-2.06315 1193.42 -2.06315 1184.69 Q-2.06315 1175.94 0.992394 1171.36 Q4.07108 1166.75 9.88124 1166.75 Z" fill="#000000" fill-rule="evenodd" fill-opacity="1" /><path clip-path="url(#clip680)" d="M 0 0 M30.0895 1167.38 L48.4458 1167.38 L48.4458 1171.31 L34.3718 1171.31 L34.3718 1179.78 Q35.3904 1179.44 36.4089 1179.28 Q37.4274 1179.09 38.4459 1179.09 Q44.2329 1179.09 47.6125 1182.26 Q50.9921 1185.43 50.9921 1190.85 Q50.9921 1196.43 47.5199 1199.53 Q44.0477 1202.61 37.7283 1202.61 Q35.5524 1202.61 33.2839 1202.24 Q31.0385 1201.87 28.6311 1201.13 L28.6311 1196.43 Q30.7145 1197.56 32.9367 1198.12 Q35.1589 1198.67 37.6357 1198.67 Q41.6403 1198.67 43.9783 1196.57 Q46.3162 1194.46 46.3162 1190.85 Q46.3162 1187.24 43.9783 1185.13 Q41.6403 1183.03 37.6357 1183.03 Q35.7607 1183.03 33.8857 1183.44 Q32.0339 1183.86 30.0895 1184.74 L30.0895 1167.38 Z" fill="#000000" fill-rule="evenodd" fill-opacity="1" /><path clip-path="url(#clip680)" d="M 0 0 M-36.3454 896.299 Q-39.9565 896.299 -41.7852 899.864 Q-43.5907 903.405 -43.5907 910.535 Q-43.5907 917.641 -41.7852 921.206 Q-39.9565 924.748 -36.3454 924.748 Q-32.7111 924.748 -30.9056 921.206 Q-29.0769 917.641 -29.0769 910.535 Q-29.0769 903.405 -30.9056 899.864 Q-32.7111 896.299 -36.3454 896.299 M-36.3454 892.595 Q-30.5352 892.595 -27.4797 897.202 Q-24.401 901.785 -24.401 910.535 Q-24.401 919.262 -27.4797 923.868 Q-30.5352 928.452 -36.3454 928.452 Q-42.1555 928.452 -45.2342 923.868 Q-48.2897 919.262 -48.2897 910.535 Q-48.2897 901.785 -45.2342 897.202 Q-42.1555 892.595 -36.3454 892.595 Z" fill="#000000" fill-rule="evenodd" fill-opacity="1" /><path clip-path="url(#clip680)" d="M 0 0 M-16.1834 921.901 L-11.2992 921.901 L-11.2992 927.78 L-16.1834 927.78 L-16.1834 921.901 Z" fill="#000000" fill-rule="evenodd" fill-opacity="1" /><path clip-path="url(#clip680)" d="M 0 0 M-0.303895 923.845 L7.33495 923.845 L7.33495 897.479 L-0.975188 899.146 L-0.975188 894.887 L7.28866 893.22 L11.9646 893.22 L11.9646 923.845 L19.6034 923.845 L19.6034 927.78 L-0.303895 927.78 L-0.303895 923.845 Z" fill="#000000" fill-rule="evenodd" fill-opacity="1" /><path clip-path="url(#clip680)" d="M 0 0 M39.0477 896.299 Q35.4367 896.299 33.608 899.864 Q31.8024 903.405 31.8024 910.535 Q31.8024 917.641 33.608 921.206 Q35.4367 924.748 39.0477 924.748 Q42.682 924.748 44.4875 921.206 Q46.3162 917.641 46.3162 910.535 Q46.3162 903.405 44.4875 899.864 Q42.682 896.299 39.0477 896.299 M39.0477 892.595 Q44.8579 892.595 47.9134 897.202 Q50.9921 901.785 50.9921 910.535 Q50.9921 919.262 47.9134 923.868 Q44.8579 928.452 39.0477 928.452 Q33.2376 928.452 30.1589 923.868 Q27.1034 919.262 27.1034 910.535 Q27.1034 901.785 30.1589 897.202 Q33.2376 892.595 39.0477 892.595 Z" fill="#000000" fill-rule="evenodd" fill-opacity="1" /><path clip-path="url(#clip680)" d="M 0 0 M-35.35 622.142 Q-38.9611 622.142 -40.7898 625.707 Q-42.5953 629.249 -42.5953 636.378 Q-42.5953 643.485 -40.7898 647.049 Q-38.9611 650.591 -35.35 650.591 Q-31.7158 650.591 -29.9102 647.049 Q-28.0815 643.485 -28.0815 636.378 Q-28.0815 629.249 -29.9102 625.707 Q-31.7158 622.142 -35.35 622.142 M-35.35 618.438 Q-29.5398 618.438 -26.4843 623.045 Q-23.4056 627.628 -23.4056 636.378 Q-23.4056 645.105 -26.4843 649.711 Q-29.5398 654.295 -35.35 654.295 Q-41.1602 654.295 -44.2388 649.711 Q-47.2944 645.105 -47.2944 636.378 Q-47.2944 627.628 -44.2388 623.045 Q-41.1602 618.438 -35.35 618.438 Z" fill="#000000" fill-rule="evenodd" fill-opacity="1" /><path clip-path="url(#clip680)" d="M 0 0 M-15.1881 647.744 L-10.3038 647.744 L-10.3038 653.623 L-15.1881 653.623 L-15.1881 647.744 Z" fill="#000000" fill-rule="evenodd" fill-opacity="1" /><path clip-path="url(#clip680)" d="M 0 0 M0.69147 649.688 L8.33032 649.688 L8.33032 623.323 L0.0201769 624.989 L0.0201769 620.73 L8.28402 619.063 L12.9599 619.063 L12.9599 649.688 L20.5988 649.688 L20.5988 653.623 L0.69147 653.623 L0.69147 649.688 Z" fill="#000000" fill-rule="evenodd" fill-opacity="1" /><path clip-path="url(#clip680)" d="M 0 0 M30.0895 619.063 L48.4458 619.063 L48.4458 622.999 L34.3718 622.999 L34.3718 631.471 Q35.3904 631.124 36.4089 630.962 Q37.4274 630.776 38.4459 630.776 Q44.2329 630.776 47.6125 633.948 Q50.9921 637.119 50.9921 642.536 Q50.9921 648.114 47.5199 651.216 Q44.0477 654.295 37.7283 654.295 Q35.5524 654.295 33.2839 653.924 Q31.0385 653.554 28.6311 652.813 L28.6311 648.114 Q30.7145 649.248 32.9367 649.804 Q35.1589 650.36 37.6357 650.36 Q41.6403 650.36 43.9783 648.253 Q46.3162 646.147 46.3162 642.536 Q46.3162 638.924 43.9783 636.818 Q41.6403 634.712 37.6357 634.712 Q35.7607 634.712 33.8857 635.128 Q32.0339 635.545 30.0895 636.424 L30.0895 619.063 Z" fill="#000000" fill-rule="evenodd" fill-opacity="1" /><path clip-path="url(#clip680)" d="M 0 0 M-36.3454 347.985 Q-39.9565 347.985 -41.7852 351.55 Q-43.5907 355.092 -43.5907 362.221 Q-43.5907 369.328 -41.7852 372.893 Q-39.9565 376.434 -36.3454 376.434 Q-32.7111 376.434 -30.9056 372.893 Q-29.0769 369.328 -29.0769 362.221 Q-29.0769 355.092 -30.9056 351.55 Q-32.7111 347.985 -36.3454 347.985 M-36.3454 344.282 Q-30.5352 344.282 -27.4797 348.888 Q-24.401 353.471 -24.401 362.221 Q-24.401 370.948 -27.4797 375.555 Q-30.5352 380.138 -36.3454 380.138 Q-42.1555 380.138 -45.2342 375.555 Q-48.2897 370.948 -48.2897 362.221 Q-48.2897 353.471 -45.2342 348.888 Q-42.1555 344.282 -36.3454 344.282 Z" fill="#000000" fill-rule="evenodd" fill-opacity="1" /><path clip-path="url(#clip680)" d="M 0 0 M-16.1834 373.587 L-11.2992 373.587 L-11.2992 379.467 L-16.1834 379.467 L-16.1834 373.587 Z" fill="#000000" fill-rule="evenodd" fill-opacity="1" /><path clip-path="url(#clip680)" d="M 0 0 M2.91368 375.531 L19.233 375.531 L19.233 379.467 L-2.71129 379.467 L-2.71129 375.531 Q-0.0492672 372.777 4.53404 368.147 Q9.1405 363.495 10.321 362.152 Q12.5664 359.629 13.446 357.893 Q14.3488 356.133 14.3488 354.444 Q14.3488 351.689 12.4044 349.953 Q10.4831 348.217 7.38125 348.217 Q5.18219 348.217 2.7285 348.981 Q0.297953 349.745 -2.47981 351.296 L-2.47981 346.573 Q0.344249 345.439 2.79794 344.86 Q5.25163 344.282 7.28866 344.282 Q12.659 344.282 15.8534 346.967 Q19.0479 349.652 19.0479 354.143 Q19.0479 356.272 18.2377 358.194 Q17.4506 360.092 15.3442 362.684 Q14.7655 363.356 11.6636 366.573 Q8.5618 369.768 2.91368 375.531 Z" fill="#000000" fill-rule="evenodd" fill-opacity="1" /><path clip-path="url(#clip680)" d="M 0 0 M39.0477 347.985 Q35.4367 347.985 33.608 351.55 Q31.8024 355.092 31.8024 362.221 Q31.8024 369.328 33.608 372.893 Q35.4367 376.434 39.0477 376.434 Q42.682 376.434 44.4875 372.893 Q46.3162 369.328 46.3162 362.221 Q46.3162 355.092 44.4875 351.55 Q42.682 347.985 39.0477 347.985 M39.0477 344.282 Q44.8579 344.282 47.9134 348.888 Q50.9921 353.471 50.9921 362.221 Q50.9921 370.948 47.9134 375.555 Q44.8579 380.138 39.0477 380.138 Q33.2376 380.138 30.1589 375.555 Q27.1034 370.948 27.1034 362.221 Q27.1034 353.471 30.1589 348.888 Q33.2376 344.282 39.0477 344.282 Z" fill="#000000" fill-rule="evenodd" fill-opacity="1" /><path clip-path="url(#clip680)" d="M 0 0 M-35.35 73.8285 Q-38.9611 73.8285 -40.7898 77.3933 Q-42.5953 80.935 -42.5953 88.0646 Q-42.5953 95.171 -40.7898 98.7358 Q-38.9611 102.277 -35.35 102.277 Q-31.7158 102.277 -29.9102 98.7358 Q-28.0815 95.171 -28.0815 88.0646 Q-28.0815 80.935 -29.9102 77.3933 Q-31.7158 73.8285 -35.35 73.8285 M-35.35 70.1249 Q-29.5398 70.1249 -26.4843 74.7313 Q-23.4056 79.3146 -23.4056 88.0646 Q-23.4056 96.7914 -26.4843 101.398 Q-29.5398 105.981 -35.35 105.981 Q-41.1602 105.981 -44.2388 101.398 Q-47.2944 96.7914 -47.2944 88.0646 Q-47.2944 79.3146 -44.2388 74.7313 Q-41.1602 70.1249 -35.35 70.1249 Z" fill="#000000" fill-rule="evenodd" fill-opacity="1" /><path clip-path="url(#clip680)" d="M 0 0 M-15.1881 99.4303 L-10.3038 99.4303 L-10.3038 105.31 L-15.1881 105.31 L-15.1881 99.4303 Z" fill="#000000" fill-rule="evenodd" fill-opacity="1" /><path clip-path="url(#clip680)" d="M 0 0 M3.90904 101.375 L20.2284 101.375 L20.2284 105.31 L-1.71592 105.31 L-1.71592 101.375 Q0.946098 98.6201 5.52941 93.9905 Q10.1359 89.3377 11.3164 87.9951 Q13.5618 85.472 14.4414 83.7359 Q15.3442 81.9767 15.3442 80.2868 Q15.3442 77.5322 13.3997 75.7961 Q11.4784 74.06 8.37661 74.06 Q6.17755 74.06 3.72386 74.8239 Q1.29332 75.5878 -1.48444 77.1387 L-1.48444 72.4165 Q1.33961 71.2823 3.7933 70.7036 Q6.247 70.1249 8.28402 70.1249 Q13.6544 70.1249 16.8488 72.81 Q20.0432 75.4952 20.0432 79.9859 Q20.0432 82.1155 19.233 84.0368 Q18.446 85.935 16.3395 88.5275 Q15.7608 89.1988 12.659 92.4164 Q9.55716 95.6108 3.90904 101.375 Z" fill="#000000" fill-rule="evenodd" fill-opacity="1" /><path clip-path="url(#clip680)" d="M 0 0 M30.0895 70.7499 L48.4458 70.7499 L48.4458 74.685 L34.3718 74.685 L34.3718 83.1572 Q35.3904 82.81 36.4089 82.6479 Q37.4274 82.4628 38.4459 82.4628 Q44.2329 82.4628 47.6125 85.634 Q50.9921 88.8053 50.9921 94.222 Q50.9921 99.8006 47.5199 102.902 Q44.0477 105.981 37.7283 105.981 Q35.5524 105.981 33.2839 105.611 Q31.0385 105.24 28.6311 104.5 L28.6311 99.8006 Q30.7145 100.935 32.9367 101.49 Q35.1589 102.046 37.6357 102.046 Q41.6403 102.046 43.9783 99.9395 Q46.3162 97.833 46.3162 94.222 Q46.3162 90.6109 43.9783 88.5044 Q41.6403 86.3979 37.6357 86.3979 Q35.7607 86.3979 33.8857 86.8146 Q32.0339 87.2313 30.0895 88.1109 L30.0895 70.7499 Z" fill="#000000" fill-rule="evenodd" fill-opacity="1" /><polyline clip-path="url(#clip682)" style="stroke:#009af9; stroke-width:4; stroke-opacity:1; fill:none" points="
  151.118,1445.29 171.992,1443.91 365.008,1422.34 481.002,1396.66 579.074,1361.77 632.34,1335.57 685.607,1302.73 734.714,1265.35 783.821,1219.93 836.469,1160.86 
  889.117,1089.63 919.616,1042.34 950.115,990.435 980.614,933.897 1011.11,872.826 1119.53,625.117 1214.6,393.115 1240.51,333.668 1266.43,278.046 1292.34,227.49 
  1318.25,183.214 1344.32,146.153 1370.39,117.594 1396.45,98.3417 1422.52,88.9544 1451.34,90.3812 1480.16,104.146 1508.98,129.756 1537.8,166.315 1565.22,210.141 
  1592.65,261.485 1620.07,318.937 1647.49,381.03 1704.52,518.777 1761.54,658.683 1809.54,771.446 1857.55,875.745 1916.15,988.686 1974.76,1084.62 2029.85,1159.71 
  2084.94,1221.46 2129.07,1262.43 2173.2,1296.82 2217.33,1325.53 2261.46,1349.38 2268.26,1352.66 2275.05,1355.86 2281.84,1358.96 2288.63,1361.97 
  "/>
<circle clip-path="url(#clip682)" cx="364.869" cy="1475.47" r="14" fill="#e26f46" fill-rule="evenodd" fill-opacity="1" stroke="#000000" stroke-opacity="1" stroke-width="3.2"/>
<circle clip-path="url(#clip682)" cx="386.244" cy="1478.21" r="14" fill="#e26f46" fill-rule="evenodd" fill-opacity="1" stroke="#000000" stroke-opacity="1" stroke-width="3.2"/>
<circle clip-path="url(#clip682)" cx="407.619" cy="1479.3" r="14" fill="#e26f46" fill-rule="evenodd" fill-opacity="1" stroke="#000000" stroke-opacity="1" stroke-width="3.2"/>
<circle clip-path="url(#clip682)" cx="428.994" cy="1469.73" r="14" fill="#e26f46" fill-rule="evenodd" fill-opacity="1" stroke="#000000" stroke-opacity="1" stroke-width="3.2"/>
<circle clip-path="url(#clip682)" cx="450.369" cy="1457.14" r="14" fill="#e26f46" fill-rule="evenodd" fill-opacity="1" stroke="#000000" stroke-opacity="1" stroke-width="3.2"/>
<circle clip-path="url(#clip682)" cx="471.744" cy="1445.21" r="14" fill="#e26f46" fill-rule="evenodd" fill-opacity="1" stroke="#000000" stroke-opacity="1" stroke-width="3.2"/>
<circle clip-path="url(#clip682)" cx="493.12" cy="1436.8" r="14" fill="#e26f46" fill-rule="evenodd" fill-opacity="1" stroke="#000000" stroke-opacity="1" stroke-width="3.2"/>
<circle clip-path="url(#clip682)" cx="514.495" cy="1430.07" r="14" fill="#e26f46" fill-rule="evenodd" fill-opacity="1" stroke="#000000" stroke-opacity="1" stroke-width="3.2"/>
<circle clip-path="url(#clip682)" cx="535.87" cy="1421.33" r="14" fill="#e26f46" fill-rule="evenodd" fill-opacity="1" stroke="#000000" stroke-opacity="1" stroke-width="3.2"/>
<circle clip-path="url(#clip682)" cx="557.245" cy="1411.16" r="14" fill="#e26f46" fill-rule="evenodd" fill-opacity="1" stroke="#000000" stroke-opacity="1" stroke-width="3.2"/>
<circle clip-path="url(#clip682)" cx="578.62" cy="1400.56" r="14" fill="#e26f46" fill-rule="evenodd" fill-opacity="1" stroke="#000000" stroke-opacity="1" stroke-width="3.2"/>
<circle clip-path="url(#clip682)" cx="599.995" cy="1379.11" r="14" fill="#e26f46" fill-rule="evenodd" fill-opacity="1" stroke="#000000" stroke-opacity="1" stroke-width="3.2"/>
<circle clip-path="url(#clip682)" cx="621.37" cy="1354.49" r="14" fill="#e26f46" fill-rule="evenodd" fill-opacity="1" stroke="#000000" stroke-opacity="1" stroke-width="3.2"/>
<circle clip-path="url(#clip682)" cx="642.746" cy="1337.03" r="14" fill="#e26f46" fill-rule="evenodd" fill-opacity="1" stroke="#000000" stroke-opacity="1" stroke-width="3.2"/>
<circle clip-path="url(#clip682)" cx="664.121" cy="1314.08" r="14" fill="#e26f46" fill-rule="evenodd" fill-opacity="1" stroke="#000000" stroke-opacity="1" stroke-width="3.2"/>
<circle clip-path="url(#clip682)" cx="685.496" cy="1287.59" r="14" fill="#e26f46" fill-rule="evenodd" fill-opacity="1" stroke="#000000" stroke-opacity="1" stroke-width="3.2"/>
<circle clip-path="url(#clip682)" cx="706.871" cy="1286.75" r="14" fill="#e26f46" fill-rule="evenodd" fill-opacity="1" stroke="#000000" stroke-opacity="1" stroke-width="3.2"/>
<circle clip-path="url(#clip682)" cx="728.246" cy="1279.04" r="14" fill="#e26f46" fill-rule="evenodd" fill-opacity="1" stroke="#000000" stroke-opacity="1" stroke-width="3.2"/>
<circle clip-path="url(#clip682)" cx="749.621" cy="1248.86" r="14" fill="#e26f46" fill-rule="evenodd" fill-opacity="1" stroke="#000000" stroke-opacity="1" stroke-width="3.2"/>
<circle clip-path="url(#clip682)" cx="770.996" cy="1204.06" r="14" fill="#e26f46" fill-rule="evenodd" fill-opacity="1" stroke="#000000" stroke-opacity="1" stroke-width="3.2"/>
<circle clip-path="url(#clip682)" cx="792.371" cy="1185.38" r="14" fill="#e26f46" fill-rule="evenodd" fill-opacity="1" stroke="#000000" stroke-opacity="1" stroke-width="3.2"/>
<circle clip-path="url(#clip682)" cx="813.747" cy="1156.93" r="14" fill="#e26f46" fill-rule="evenodd" fill-opacity="1" stroke="#000000" stroke-opacity="1" stroke-width="3.2"/>
<circle clip-path="url(#clip682)" cx="835.122" cy="1134.66" r="14" fill="#e26f46" fill-rule="evenodd" fill-opacity="1" stroke="#000000" stroke-opacity="1" stroke-width="3.2"/>
<circle clip-path="url(#clip682)" cx="856.497" cy="1093.61" r="14" fill="#e26f46" fill-rule="evenodd" fill-opacity="1" stroke="#000000" stroke-opacity="1" stroke-width="3.2"/>
<circle clip-path="url(#clip682)" cx="877.872" cy="1067.12" r="14" fill="#e26f46" fill-rule="evenodd" fill-opacity="1" stroke="#000000" stroke-opacity="1" stroke-width="3.2"/>
<circle clip-path="url(#clip682)" cx="899.247" cy="1028.04" r="14" fill="#e26f46" fill-rule="evenodd" fill-opacity="1" stroke="#000000" stroke-opacity="1" stroke-width="3.2"/>
<circle clip-path="url(#clip682)" cx="920.622" cy="1001.26" r="14" fill="#e26f46" fill-rule="evenodd" fill-opacity="1" stroke="#000000" stroke-opacity="1" stroke-width="3.2"/>
<circle clip-path="url(#clip682)" cx="941.997" cy="969.919" r="14" fill="#e26f46" fill-rule="evenodd" fill-opacity="1" stroke="#000000" stroke-opacity="1" stroke-width="3.2"/>
<circle clip-path="url(#clip682)" cx="963.372" cy="935.306" r="14" fill="#e26f46" fill-rule="evenodd" fill-opacity="1" stroke="#000000" stroke-opacity="1" stroke-width="3.2"/>
<circle clip-path="url(#clip682)" cx="984.748" cy="891.423" r="14" fill="#e26f46" fill-rule="evenodd" fill-opacity="1" stroke="#000000" stroke-opacity="1" stroke-width="3.2"/>
<circle clip-path="url(#clip682)" cx="1006.12" cy="861.123" r="14" fill="#e26f46" fill-rule="evenodd" fill-opacity="1" stroke="#000000" stroke-opacity="1" stroke-width="3.2"/>
<circle clip-path="url(#clip682)" cx="1027.5" cy="824.997" r="14" fill="#e26f46" fill-rule="evenodd" fill-opacity="1" stroke="#000000" stroke-opacity="1" stroke-width="3.2"/>
<circle clip-path="url(#clip682)" cx="1048.87" cy="777.451" r="14" fill="#e26f46" fill-rule="evenodd" fill-opacity="1" stroke="#000000" stroke-opacity="1" stroke-width="3.2"/>
<circle clip-path="url(#clip682)" cx="1070.25" cy="721.42" r="14" fill="#e26f46" fill-rule="evenodd" fill-opacity="1" stroke="#000000" stroke-opacity="1" stroke-width="3.2"/>
<circle clip-path="url(#clip682)" cx="1091.62" cy="677.085" r="14" fill="#e26f46" fill-rule="evenodd" fill-opacity="1" stroke="#000000" stroke-opacity="1" stroke-width="3.2"/>
<circle clip-path="url(#clip682)" cx="1113" cy="628.562" r="14" fill="#e26f46" fill-rule="evenodd" fill-opacity="1" stroke="#000000" stroke-opacity="1" stroke-width="3.2"/>
<circle clip-path="url(#clip682)" cx="1134.37" cy="569.391" r="14" fill="#e26f46" fill-rule="evenodd" fill-opacity="1" stroke="#000000" stroke-opacity="1" stroke-width="3.2"/>
<circle clip-path="url(#clip682)" cx="1155.75" cy="522.813" r="14" fill="#e26f46" fill-rule="evenodd" fill-opacity="1" stroke="#000000" stroke-opacity="1" stroke-width="3.2"/>
<circle clip-path="url(#clip682)" cx="1177.12" cy="521.563" r="14" fill="#e26f46" fill-rule="evenodd" fill-opacity="1" stroke="#000000" stroke-opacity="1" stroke-width="3.2"/>
<circle clip-path="url(#clip682)" cx="1198.5" cy="480.042" r="14" fill="#e26f46" fill-rule="evenodd" fill-opacity="1" stroke="#000000" stroke-opacity="1" stroke-width="3.2"/>
<circle clip-path="url(#clip682)" cx="1219.87" cy="414.747" r="14" fill="#e26f46" fill-rule="evenodd" fill-opacity="1" stroke="#000000" stroke-opacity="1" stroke-width="3.2"/>
<circle clip-path="url(#clip682)" cx="1241.25" cy="378.071" r="14" fill="#e26f46" fill-rule="evenodd" fill-opacity="1" stroke="#000000" stroke-opacity="1" stroke-width="3.2"/>
<circle clip-path="url(#clip682)" cx="1262.62" cy="324.309" r="14" fill="#e26f46" fill-rule="evenodd" fill-opacity="1" stroke="#000000" stroke-opacity="1" stroke-width="3.2"/>
<circle clip-path="url(#clip682)" cx="1284" cy="279.193" r="14" fill="#e26f46" fill-rule="evenodd" fill-opacity="1" stroke="#000000" stroke-opacity="1" stroke-width="3.2"/>
<circle clip-path="url(#clip682)" cx="1305.37" cy="227.295" r="14" fill="#e26f46" fill-rule="evenodd" fill-opacity="1" stroke="#000000" stroke-opacity="1" stroke-width="3.2"/>
<circle clip-path="url(#clip682)" cx="1326.75" cy="212.308" r="14" fill="#e26f46" fill-rule="evenodd" fill-opacity="1" stroke="#000000" stroke-opacity="1" stroke-width="3.2"/>
<circle clip-path="url(#clip682)" cx="1348.12" cy="182.192" r="14" fill="#e26f46" fill-rule="evenodd" fill-opacity="1" stroke="#000000" stroke-opacity="1" stroke-width="3.2"/>
<circle clip-path="url(#clip682)" cx="1369.5" cy="176.744" r="14" fill="#e26f46" fill-rule="evenodd" fill-opacity="1" stroke="#000000" stroke-opacity="1" stroke-width="3.2"/>
<circle clip-path="url(#clip682)" cx="1390.88" cy="172.394" r="14" fill="#e26f46" fill-rule="evenodd" fill-opacity="1" stroke="#000000" stroke-opacity="1" stroke-width="3.2"/>
<circle clip-path="url(#clip682)" cx="1412.25" cy="169.377" r="14" fill="#e26f46" fill-rule="evenodd" fill-opacity="1" stroke="#000000" stroke-opacity="1" stroke-width="3.2"/>
<circle clip-path="url(#clip682)" cx="1433.63" cy="153.972" r="14" fill="#e26f46" fill-rule="evenodd" fill-opacity="1" stroke="#000000" stroke-opacity="1" stroke-width="3.2"/>
<circle clip-path="url(#clip682)" cx="1455" cy="170.503" r="14" fill="#e26f46" fill-rule="evenodd" fill-opacity="1" stroke="#000000" stroke-opacity="1" stroke-width="3.2"/>
<circle clip-path="url(#clip682)" cx="1476.38" cy="181.073" r="14" fill="#e26f46" fill-rule="evenodd" fill-opacity="1" stroke="#000000" stroke-opacity="1" stroke-width="3.2"/>
<circle clip-path="url(#clip682)" cx="1497.75" cy="196.201" r="14" fill="#e26f46" fill-rule="evenodd" fill-opacity="1" stroke="#000000" stroke-opacity="1" stroke-width="3.2"/>
<circle clip-path="url(#clip682)" cx="1519.13" cy="195.824" r="14" fill="#e26f46" fill-rule="evenodd" fill-opacity="1" stroke="#000000" stroke-opacity="1" stroke-width="3.2"/>
<circle clip-path="url(#clip682)" cx="1540.5" cy="218.179" r="14" fill="#e26f46" fill-rule="evenodd" fill-opacity="1" stroke="#000000" stroke-opacity="1" stroke-width="3.2"/>
<circle clip-path="url(#clip682)" cx="1561.88" cy="238.55" r="14" fill="#e26f46" fill-rule="evenodd" fill-opacity="1" stroke="#000000" stroke-opacity="1" stroke-width="3.2"/>
<circle clip-path="url(#clip682)" cx="1583.25" cy="278.445" r="14" fill="#e26f46" fill-rule="evenodd" fill-opacity="1" stroke="#000000" stroke-opacity="1" stroke-width="3.2"/>
<circle clip-path="url(#clip682)" cx="1604.63" cy="299.113" r="14" fill="#e26f46" fill-rule="evenodd" fill-opacity="1" stroke="#000000" stroke-opacity="1" stroke-width="3.2"/>
<circle clip-path="url(#clip682)" cx="1626" cy="340.125" r="14" fill="#e26f46" fill-rule="evenodd" fill-opacity="1" stroke="#000000" stroke-opacity="1" stroke-width="3.2"/>
<circle clip-path="url(#clip682)" cx="1647.38" cy="401.772" r="14" fill="#e26f46" fill-rule="evenodd" fill-opacity="1" stroke="#000000" stroke-opacity="1" stroke-width="3.2"/>
<circle clip-path="url(#clip682)" cx="1668.75" cy="447.656" r="14" fill="#e26f46" fill-rule="evenodd" fill-opacity="1" stroke="#000000" stroke-opacity="1" stroke-width="3.2"/>
<circle clip-path="url(#clip682)" cx="1690.13" cy="489.906" r="14" fill="#e26f46" fill-rule="evenodd" fill-opacity="1" stroke="#000000" stroke-opacity="1" stroke-width="3.2"/>
<circle clip-path="url(#clip682)" cx="1711.5" cy="549.076" r="14" fill="#e26f46" fill-rule="evenodd" fill-opacity="1" stroke="#000000" stroke-opacity="1" stroke-width="3.2"/>
<circle clip-path="url(#clip682)" cx="1732.88" cy="586.19" r="14" fill="#e26f46" fill-rule="evenodd" fill-opacity="1" stroke="#000000" stroke-opacity="1" stroke-width="3.2"/>
<circle clip-path="url(#clip682)" cx="1754.25" cy="636.199" r="14" fill="#e26f46" fill-rule="evenodd" fill-opacity="1" stroke="#000000" stroke-opacity="1" stroke-width="3.2"/>
<circle clip-path="url(#clip682)" cx="1775.63" cy="671.337" r="14" fill="#e26f46" fill-rule="evenodd" fill-opacity="1" stroke="#000000" stroke-opacity="1" stroke-width="3.2"/>
<circle clip-path="url(#clip682)" cx="1797" cy="704.659" r="14" fill="#e26f46" fill-rule="evenodd" fill-opacity="1" stroke="#000000" stroke-opacity="1" stroke-width="3.2"/>
<circle clip-path="url(#clip682)" cx="1818.38" cy="751.485" r="14" fill="#e26f46" fill-rule="evenodd" fill-opacity="1" stroke="#000000" stroke-opacity="1" stroke-width="3.2"/>
<circle clip-path="url(#clip682)" cx="1839.75" cy="792.51" r="14" fill="#e26f46" fill-rule="evenodd" fill-opacity="1" stroke="#000000" stroke-opacity="1" stroke-width="3.2"/>
<circle clip-path="url(#clip682)" cx="1861.13" cy="853.073" r="14" fill="#e26f46" fill-rule="evenodd" fill-opacity="1" stroke="#000000" stroke-opacity="1" stroke-width="3.2"/>
<circle clip-path="url(#clip682)" cx="1882.5" cy="904.365" r="14" fill="#e26f46" fill-rule="evenodd" fill-opacity="1" stroke="#000000" stroke-opacity="1" stroke-width="3.2"/>
<circle clip-path="url(#clip682)" cx="1903.88" cy="967.356" r="14" fill="#e26f46" fill-rule="evenodd" fill-opacity="1" stroke="#000000" stroke-opacity="1" stroke-width="3.2"/>
<circle clip-path="url(#clip682)" cx="1925.25" cy="1024.06" r="14" fill="#e26f46" fill-rule="evenodd" fill-opacity="1" stroke="#000000" stroke-opacity="1" stroke-width="3.2"/>
<circle clip-path="url(#clip682)" cx="1946.63" cy="1079.24" r="14" fill="#e26f46" fill-rule="evenodd" fill-opacity="1" stroke="#000000" stroke-opacity="1" stroke-width="3.2"/>
<circle clip-path="url(#clip682)" cx="1968" cy="1125.04" r="14" fill="#e26f46" fill-rule="evenodd" fill-opacity="1" stroke="#000000" stroke-opacity="1" stroke-width="3.2"/>
<circle clip-path="url(#clip682)" cx="1989.38" cy="1178.44" r="14" fill="#e26f46" fill-rule="evenodd" fill-opacity="1" stroke="#000000" stroke-opacity="1" stroke-width="3.2"/>
<circle clip-path="url(#clip682)" cx="2010.75" cy="1217.55" r="14" fill="#e26f46" fill-rule="evenodd" fill-opacity="1" stroke="#000000" stroke-opacity="1" stroke-width="3.2"/>
<circle clip-path="url(#clip682)" cx="2032.13" cy="1269.26" r="14" fill="#e26f46" fill-rule="evenodd" fill-opacity="1" stroke="#000000" stroke-opacity="1" stroke-width="3.2"/>
<circle clip-path="url(#clip682)" cx="2053.5" cy="1308.79" r="14" fill="#e26f46" fill-rule="evenodd" fill-opacity="1" stroke="#000000" stroke-opacity="1" stroke-width="3.2"/>
<circle clip-path="url(#clip682)" cx="2074.88" cy="1324.42" r="14" fill="#e26f46" fill-rule="evenodd" fill-opacity="1" stroke="#000000" stroke-opacity="1" stroke-width="3.2"/>
<path clip-path="url(#clip680)" d="
M162.518 277.81 L1148.02 277.81 L1148.02 96.3696 L162.518 96.3696  Z
  " fill="#ffffff" fill-rule="evenodd" fill-opacity="1"/>
<polyline clip-path="url(#clip680)" style="stroke:#000000; stroke-width:4; stroke-opacity:1; fill:none" points="
  162.518,277.81 1148.02,277.81 1148.02,96.3696 162.518,96.3696 162.518,277.81 
  "/>
<polyline clip-path="url(#clip680)" style="stroke:#009af9; stroke-width:4; stroke-opacity:1; fill:none" points="
  187.693,156.85 338.744,156.85 
  "/>
<path clip-path="url(#clip680)" d="M 0 0 M371.326 140.843 L371.326 148.204 L380.099 148.204 L380.099 151.514 L371.326 151.514 L371.326 165.588 Q371.326 168.759 372.183 169.662 Q373.062 170.565 375.724 170.565 L380.099 170.565 L380.099 174.13 L375.724 174.13 Q370.794 174.13 368.919 172.301 Q367.044 170.449 367.044 165.588 L367.044 151.514 L363.919 151.514 L363.919 148.204 L367.044 148.204 L367.044 140.843 L371.326 140.843 Z" fill="#000000" fill-rule="evenodd" fill-opacity="1" /><path clip-path="url(#clip680)" d="M 0 0 M407.252 158.481 L407.252 174.13 L402.993 174.13 L402.993 158.62 Q402.993 154.94 401.557 153.111 Q400.122 151.282 397.252 151.282 Q393.803 151.282 391.812 153.482 Q389.821 155.681 389.821 159.477 L389.821 174.13 L385.539 174.13 L385.539 138.111 L389.821 138.111 L389.821 152.232 Q391.349 149.894 393.409 148.736 Q395.493 147.579 398.201 147.579 Q402.669 147.579 404.96 150.357 Q407.252 153.111 407.252 158.481 Z" fill="#000000" fill-rule="evenodd" fill-opacity="1" /><path clip-path="url(#clip680)" d="M 0 0 M437.923 160.102 L437.923 162.185 L418.34 162.185 Q418.618 166.583 420.979 168.898 Q423.363 171.19 427.599 171.19 Q430.053 171.19 432.344 170.588 Q434.659 169.986 436.928 168.782 L436.928 172.81 Q434.636 173.782 432.229 174.292 Q429.821 174.801 427.344 174.801 Q421.141 174.801 417.506 171.19 Q413.895 167.579 413.895 161.421 Q413.895 155.056 417.321 151.329 Q420.77 147.579 426.604 147.579 Q431.835 147.579 434.868 150.958 Q437.923 154.315 437.923 160.102 M433.664 158.852 Q433.618 155.357 431.696 153.273 Q429.798 151.19 426.65 151.19 Q423.085 151.19 420.932 153.204 Q418.803 155.218 418.479 158.875 L433.664 158.852 Z" fill="#000000" fill-rule="evenodd" fill-opacity="1" /><path clip-path="url(#clip680)" d="M 0 0 M454.96 151.19 Q451.534 151.19 449.543 153.875 Q447.553 156.537 447.553 161.19 Q447.553 165.843 449.52 168.528 Q451.511 171.19 454.96 171.19 Q458.363 171.19 460.353 168.505 Q462.344 165.819 462.344 161.19 Q462.344 156.583 460.353 153.898 Q458.363 151.19 454.96 151.19 M454.96 147.579 Q460.516 147.579 463.687 151.19 Q466.858 154.801 466.858 161.19 Q466.858 167.556 463.687 171.19 Q460.516 174.801 454.96 174.801 Q449.381 174.801 446.21 171.19 Q443.062 167.556 443.062 161.19 Q443.062 154.801 446.21 151.19 Q449.381 147.579 454.96 147.579 Z" fill="#000000" fill-rule="evenodd" fill-opacity="1" /><path clip-path="url(#clip680)" d="M 0 0 M488.941 152.185 Q488.224 151.769 487.367 151.583 Q486.534 151.375 485.515 151.375 Q481.904 151.375 479.96 153.736 Q478.039 156.074 478.039 160.472 L478.039 174.13 L473.756 174.13 L473.756 148.204 L478.039 148.204 L478.039 152.232 Q479.381 149.87 481.534 148.736 Q483.687 147.579 486.765 147.579 Q487.205 147.579 487.738 147.648 Q488.27 147.695 488.918 147.81 L488.941 152.185 Z" fill="#000000" fill-rule="evenodd" fill-opacity="1" /><path clip-path="url(#clip680)" d="M 0 0 M514.543 160.102 L514.543 162.185 L494.96 162.185 Q495.238 166.583 497.599 168.898 Q499.983 171.19 504.219 171.19 Q506.673 171.19 508.964 170.588 Q511.279 169.986 513.548 168.782 L513.548 172.81 Q511.256 173.782 508.849 174.292 Q506.441 174.801 503.964 174.801 Q497.761 174.801 494.126 171.19 Q490.515 167.579 490.515 161.421 Q490.515 155.056 493.941 151.329 Q497.39 147.579 503.224 147.579 Q508.455 147.579 511.487 150.958 Q514.543 154.315 514.543 160.102 M510.284 158.852 Q510.237 155.357 508.316 153.273 Q506.418 151.19 503.27 151.19 Q499.705 151.19 497.552 153.204 Q495.423 155.218 495.099 158.875 L510.284 158.852 Z" fill="#000000" fill-rule="evenodd" fill-opacity="1" /><path clip-path="url(#clip680)" d="M 0 0 M525.747 140.843 L525.747 148.204 L534.52 148.204 L534.52 151.514 L525.747 151.514 L525.747 165.588 Q525.747 168.759 526.603 169.662 Q527.483 170.565 530.145 170.565 L534.52 170.565 L534.52 174.13 L530.145 174.13 Q525.214 174.13 523.339 172.301 Q521.464 170.449 521.464 165.588 L521.464 151.514 L518.339 151.514 L518.339 148.204 L521.464 148.204 L521.464 140.843 L525.747 140.843 Z" fill="#000000" fill-rule="evenodd" fill-opacity="1" /><path clip-path="url(#clip680)" d="M 0 0 M540.122 148.204 L544.381 148.204 L544.381 174.13 L540.122 174.13 L540.122 148.204 M540.122 138.111 L544.381 138.111 L544.381 143.505 L540.122 143.505 L540.122 138.111 Z" fill="#000000" fill-rule="evenodd" fill-opacity="1" /><path clip-path="url(#clip680)" d="M 0 0 M571.95 149.199 L571.95 153.181 Q570.145 152.185 568.316 151.699 Q566.51 151.19 564.658 151.19 Q560.515 151.19 558.223 153.829 Q555.932 156.444 555.932 161.19 Q555.932 165.935 558.223 168.574 Q560.515 171.19 564.658 171.19 Q566.51 171.19 568.316 170.704 Q570.145 170.194 571.95 169.199 L571.95 173.134 Q570.168 173.968 568.246 174.384 Q566.348 174.801 564.196 174.801 Q558.339 174.801 554.89 171.12 Q551.441 167.44 551.441 161.19 Q551.441 154.847 554.913 151.213 Q558.409 147.579 564.473 147.579 Q566.441 147.579 568.316 147.995 Q570.191 148.389 571.95 149.199 Z" fill="#000000" fill-rule="evenodd" fill-opacity="1" /><path clip-path="url(#clip680)" d="M 0 0 M591.14 161.097 Q585.978 161.097 583.987 162.278 Q581.996 163.458 581.996 166.306 Q581.996 168.574 583.478 169.917 Q584.982 171.236 587.552 171.236 Q591.094 171.236 593.223 168.736 Q595.376 166.213 595.376 162.046 L595.376 161.097 L591.14 161.097 M599.635 159.338 L599.635 174.13 L595.376 174.13 L595.376 170.194 Q593.918 172.555 591.742 173.69 Q589.566 174.801 586.418 174.801 Q582.436 174.801 580.075 172.579 Q577.737 170.333 577.737 166.583 Q577.737 162.208 580.654 159.986 Q583.594 157.764 589.404 157.764 L595.376 157.764 L595.376 157.347 Q595.376 154.407 593.431 152.81 Q591.51 151.19 588.015 151.19 Q585.793 151.19 583.686 151.722 Q581.58 152.255 579.635 153.319 L579.635 149.384 Q581.973 148.482 584.172 148.042 Q586.371 147.579 588.455 147.579 Q594.08 147.579 596.857 150.495 Q599.635 153.412 599.635 159.338 Z" fill="#000000" fill-rule="evenodd" fill-opacity="1" /><path clip-path="url(#clip680)" d="M 0 0 M608.408 138.111 L612.667 138.111 L612.667 174.13 L608.408 174.13 L608.408 138.111 Z" fill="#000000" fill-rule="evenodd" fill-opacity="1" /><path clip-path="url(#clip680)" d="M 0 0 M638.061 170.194 L645.7 170.194 L645.7 143.829 L637.39 145.495 L637.39 141.236 L645.653 139.57 L650.329 139.57 L650.329 170.194 L657.968 170.194 L657.968 174.13 L638.061 174.13 L638.061 170.194 Z" fill="#000000" fill-rule="evenodd" fill-opacity="1" /><path clip-path="url(#clip680)" d="M 0 0 M683.338 148.968 L683.338 152.995 Q681.533 152.069 679.588 151.607 Q677.644 151.144 675.561 151.144 Q672.389 151.144 670.792 152.116 Q669.218 153.088 669.218 155.032 Q669.218 156.514 670.352 157.37 Q671.487 158.204 674.913 158.968 L676.371 159.292 Q680.908 160.264 682.806 162.046 Q684.727 163.806 684.727 166.977 Q684.727 170.588 681.857 172.694 Q679.01 174.801 674.01 174.801 Q671.926 174.801 669.658 174.384 Q667.413 173.991 664.913 173.18 L664.913 168.782 Q667.274 170.009 669.565 170.634 Q671.857 171.236 674.102 171.236 Q677.112 171.236 678.732 170.218 Q680.352 169.176 680.352 167.301 Q680.352 165.565 679.172 164.639 Q678.014 163.713 674.056 162.856 L672.575 162.509 Q668.616 161.676 666.857 159.963 Q665.098 158.227 665.098 155.218 Q665.098 151.56 667.69 149.57 Q670.283 147.579 675.051 147.579 Q677.413 147.579 679.496 147.926 Q681.579 148.273 683.338 148.968 Z" fill="#000000" fill-rule="evenodd" fill-opacity="1" /><path clip-path="url(#clip680)" d="M 0 0 M695.723 140.843 L695.723 148.204 L704.496 148.204 L704.496 151.514 L695.723 151.514 L695.723 165.588 Q695.723 168.759 696.579 169.662 Q697.459 170.565 700.121 170.565 L704.496 170.565 L704.496 174.13 L700.121 174.13 Q695.19 174.13 693.315 172.301 Q691.44 170.449 691.44 165.588 L691.44 151.514 L688.315 151.514 L688.315 148.204 L691.44 148.204 L691.44 140.843 L695.723 140.843 Z" fill="#000000" fill-rule="evenodd" fill-opacity="1" /><path clip-path="url(#clip680)" d="M 0 0 M735.213 151.19 Q731.787 151.19 729.796 153.875 Q727.806 156.537 727.806 161.19 Q727.806 165.843 729.773 168.528 Q731.764 171.19 735.213 171.19 Q738.616 171.19 740.607 168.505 Q742.597 165.819 742.597 161.19 Q742.597 156.583 740.607 153.898 Q738.616 151.19 735.213 151.19 M735.213 147.579 Q740.769 147.579 743.94 151.19 Q747.111 154.801 747.111 161.19 Q747.111 167.556 743.94 171.19 Q740.769 174.801 735.213 174.801 Q729.634 174.801 726.463 171.19 Q723.315 167.556 723.315 161.19 Q723.315 154.801 726.463 151.19 Q729.634 147.579 735.213 147.579 Z" fill="#000000" fill-rule="evenodd" fill-opacity="1" /><path clip-path="url(#clip680)" d="M 0 0 M769.194 152.185 Q768.477 151.769 767.62 151.583 Q766.787 151.375 765.769 151.375 Q762.157 151.375 760.213 153.736 Q758.292 156.074 758.292 160.472 L758.292 174.13 L754.009 174.13 L754.009 148.204 L758.292 148.204 L758.292 152.232 Q759.634 149.87 761.787 148.736 Q763.94 147.579 767.019 147.579 Q767.458 147.579 767.991 147.648 Q768.523 147.695 769.171 147.81 L769.194 152.185 Z" fill="#000000" fill-rule="evenodd" fill-opacity="1" /><path clip-path="url(#clip680)" d="M 0 0 M789.889 152.139 L789.889 138.111 L794.148 138.111 L794.148 174.13 L789.889 174.13 L789.889 170.241 Q788.546 172.555 786.486 173.69 Q784.449 174.801 781.579 174.801 Q776.88 174.801 773.917 171.051 Q770.977 167.301 770.977 161.19 Q770.977 155.079 773.917 151.329 Q776.88 147.579 781.579 147.579 Q784.449 147.579 786.486 148.713 Q788.546 149.824 789.889 152.139 M775.375 161.19 Q775.375 165.889 777.296 168.574 Q779.241 171.236 782.62 171.236 Q786 171.236 787.944 168.574 Q789.889 165.889 789.889 161.19 Q789.889 156.491 787.944 153.829 Q786 151.144 782.62 151.144 Q779.241 151.144 777.296 153.829 Q775.375 156.491 775.375 161.19 Z" fill="#000000" fill-rule="evenodd" fill-opacity="1" /><path clip-path="url(#clip680)" d="M 0 0 M825.097 160.102 L825.097 162.185 L805.514 162.185 Q805.791 166.583 808.153 168.898 Q810.537 171.19 814.773 171.19 Q817.227 171.19 819.518 170.588 Q821.833 169.986 824.102 168.782 L824.102 172.81 Q821.81 173.782 819.402 174.292 Q816.995 174.801 814.518 174.801 Q808.315 174.801 804.68 171.19 Q801.069 167.579 801.069 161.421 Q801.069 155.056 804.495 151.329 Q807.944 147.579 813.778 147.579 Q819.009 147.579 822.041 150.958 Q825.097 154.315 825.097 160.102 M820.838 158.852 Q820.791 155.357 818.87 153.273 Q816.972 151.19 813.824 151.19 Q810.259 151.19 808.106 153.204 Q805.977 155.218 805.653 158.875 L820.838 158.852 Z" fill="#000000" fill-rule="evenodd" fill-opacity="1" /><path clip-path="url(#clip680)" d="M 0 0 M847.111 152.185 Q846.393 151.769 845.537 151.583 Q844.703 151.375 843.685 151.375 Q840.074 151.375 838.129 153.736 Q836.208 156.074 836.208 160.472 L836.208 174.13 L831.926 174.13 L831.926 148.204 L836.208 148.204 L836.208 152.232 Q837.551 149.87 839.703 148.736 Q841.856 147.579 844.935 147.579 Q845.375 147.579 845.907 147.648 Q846.439 147.695 847.088 147.81 L847.111 152.185 Z" fill="#000000" fill-rule="evenodd" fill-opacity="1" /><path clip-path="url(#clip680)" d="M 0 0 M883.708 152.139 L883.708 138.111 L887.967 138.111 L887.967 174.13 L883.708 174.13 L883.708 170.241 Q882.365 172.555 880.305 173.69 Q878.268 174.801 875.398 174.801 Q870.699 174.801 867.736 171.051 Q864.796 167.301 864.796 161.19 Q864.796 155.079 867.736 151.329 Q870.699 147.579 875.398 147.579 Q878.268 147.579 880.305 148.713 Q882.365 149.824 883.708 152.139 M869.194 161.19 Q869.194 165.889 871.115 168.574 Q873.06 171.236 876.439 171.236 Q879.819 171.236 881.763 168.574 Q883.708 165.889 883.708 161.19 Q883.708 156.491 881.763 153.829 Q879.819 151.144 876.439 151.144 Q873.06 151.144 871.115 153.829 Q869.194 156.491 869.194 161.19 Z" fill="#000000" fill-rule="evenodd" fill-opacity="1" /><path clip-path="url(#clip680)" d="M 0 0 M918.916 160.102 L918.916 162.185 L899.333 162.185 Q899.61 166.583 901.971 168.898 Q904.356 171.19 908.592 171.19 Q911.046 171.19 913.337 170.588 Q915.652 169.986 917.92 168.782 L917.92 172.81 Q915.629 173.782 913.221 174.292 Q910.814 174.801 908.337 174.801 Q902.134 174.801 898.499 171.19 Q894.888 167.579 894.888 161.421 Q894.888 155.056 898.314 151.329 Q901.763 147.579 907.596 147.579 Q912.828 147.579 915.86 150.958 Q918.916 154.315 918.916 160.102 M914.657 158.852 Q914.61 155.357 912.689 153.273 Q910.791 151.19 907.643 151.19 Q904.078 151.19 901.925 153.204 Q899.796 155.218 899.471 158.875 L914.657 158.852 Z" fill="#000000" fill-rule="evenodd" fill-opacity="1" /><path clip-path="url(#clip680)" d="M 0 0 M940.93 152.185 Q940.212 151.769 939.356 151.583 Q938.522 151.375 937.504 151.375 Q933.893 151.375 931.948 153.736 Q930.027 156.074 930.027 160.472 L930.027 174.13 L925.745 174.13 L925.745 148.204 L930.027 148.204 L930.027 152.232 Q931.369 149.87 933.522 148.736 Q935.675 147.579 938.754 147.579 Q939.194 147.579 939.726 147.648 Q940.258 147.695 940.906 147.81 L940.93 152.185 Z" fill="#000000" fill-rule="evenodd" fill-opacity="1" /><path clip-path="url(#clip680)" d="M 0 0 M945.397 148.204 L949.656 148.204 L949.656 174.13 L945.397 174.13 L945.397 148.204 M945.397 138.111 L949.656 138.111 L949.656 143.505 L945.397 143.505 L945.397 138.111 Z" fill="#000000" fill-rule="evenodd" fill-opacity="1" /><path clip-path="url(#clip680)" d="M 0 0 M955.513 148.204 L960.027 148.204 L968.129 169.963 L976.23 148.204 L980.744 148.204 L971.022 174.13 L965.235 174.13 L955.513 148.204 Z" fill="#000000" fill-rule="evenodd" fill-opacity="1" /><path clip-path="url(#clip680)" d="M 0 0 M998.406 161.097 Q993.244 161.097 991.253 162.278 Q989.263 163.458 989.263 166.306 Q989.263 168.574 990.744 169.917 Q992.249 171.236 994.818 171.236 Q998.36 171.236 1000.49 168.736 Q1002.64 166.213 1002.64 162.046 L1002.64 161.097 L998.406 161.097 M1006.9 159.338 L1006.9 174.13 L1002.64 174.13 L1002.64 170.194 Q1001.18 172.555 999.008 173.69 Q996.832 174.801 993.684 174.801 Q989.702 174.801 987.341 172.579 Q985.003 170.333 985.003 166.583 Q985.003 162.208 987.92 159.986 Q990.86 157.764 996.67 157.764 L1002.64 157.764 L1002.64 157.347 Q1002.64 154.407 1000.7 152.81 Q998.777 151.19 995.281 151.19 Q993.059 151.19 990.952 151.722 Q988.846 152.255 986.902 153.319 L986.902 149.384 Q989.24 148.482 991.439 148.042 Q993.638 147.579 995.721 147.579 Q1001.35 147.579 1004.12 150.495 Q1006.9 153.412 1006.9 159.338 Z" fill="#000000" fill-rule="evenodd" fill-opacity="1" /><path clip-path="url(#clip680)" d="M 0 0 M1019.89 140.843 L1019.89 148.204 L1028.66 148.204 L1028.66 151.514 L1019.89 151.514 L1019.89 165.588 Q1019.89 168.759 1020.74 169.662 Q1021.62 170.565 1024.29 170.565 L1028.66 170.565 L1028.66 174.13 L1024.29 174.13 Q1019.36 174.13 1017.48 172.301 Q1015.61 170.449 1015.61 165.588 L1015.61 151.514 L1012.48 151.514 L1012.48 148.204 L1015.61 148.204 L1015.61 140.843 L1019.89 140.843 Z" fill="#000000" fill-rule="evenodd" fill-opacity="1" /><path clip-path="url(#clip680)" d="M 0 0 M1034.26 148.204 L1038.52 148.204 L1038.52 174.13 L1034.26 174.13 L1034.26 148.204 M1034.26 138.111 L1038.52 138.111 L1038.52 143.505 L1034.26 143.505 L1034.26 138.111 Z" fill="#000000" fill-rule="evenodd" fill-opacity="1" /><path clip-path="url(#clip680)" d="M 0 0 M1044.38 148.204 L1048.89 148.204 L1056.99 169.963 L1065.1 148.204 L1069.61 148.204 L1059.89 174.13 L1054.1 174.13 L1044.38 148.204 Z" fill="#000000" fill-rule="evenodd" fill-opacity="1" /><path clip-path="url(#clip680)" d="M 0 0 M1097.66 160.102 L1097.66 162.185 L1078.08 162.185 Q1078.36 166.583 1080.72 168.898 Q1083.1 171.19 1087.34 171.19 Q1089.79 171.19 1092.09 170.588 Q1094.4 169.986 1096.67 168.782 L1096.67 172.81 Q1094.38 173.782 1091.97 174.292 Q1089.56 174.801 1087.09 174.801 Q1080.88 174.801 1077.25 171.19 Q1073.64 167.579 1073.64 161.421 Q1073.64 155.056 1077.06 151.329 Q1080.51 147.579 1086.35 147.579 Q1091.58 147.579 1094.61 150.958 Q1097.66 154.315 1097.66 160.102 M1093.41 158.852 Q1093.36 155.357 1091.44 153.273 Q1089.54 151.19 1086.39 151.19 Q1082.83 151.19 1080.67 153.204 Q1078.54 155.218 1078.22 158.875 L1093.41 158.852 Z" fill="#000000" fill-rule="evenodd" fill-opacity="1" /><circle clip-path="url(#clip680)" cx="263.218" cy="217.33" r="23" fill="#e26f46" fill-rule="evenodd" fill-opacity="1" stroke="#000000" stroke-opacity="1" stroke-width="5.12"/>
<path clip-path="url(#clip680)" d="M 0 0 M382.345 209.448 L382.345 213.475 Q380.539 212.549 378.595 212.087 Q376.65 211.624 374.567 211.624 Q371.396 211.624 369.798 212.596 Q368.224 213.568 368.224 215.512 Q368.224 216.994 369.359 217.85 Q370.493 218.684 373.919 219.448 L375.377 219.772 Q379.914 220.744 381.812 222.526 Q383.734 224.286 383.734 227.457 Q383.734 231.068 380.863 233.174 Q378.016 235.281 373.016 235.281 Q370.933 235.281 368.664 234.864 Q366.419 234.471 363.919 233.66 L363.919 229.262 Q366.28 230.489 368.572 231.114 Q370.863 231.716 373.109 231.716 Q376.118 231.716 377.738 230.698 Q379.359 229.656 379.359 227.781 Q379.359 226.045 378.178 225.119 Q377.021 224.193 373.062 223.336 L371.581 222.989 Q367.622 222.156 365.863 220.443 Q364.104 218.707 364.104 215.698 Q364.104 212.04 366.697 210.05 Q369.289 208.059 374.058 208.059 Q376.419 208.059 378.502 208.406 Q380.585 208.753 382.345 209.448 Z" fill="#000000" fill-rule="evenodd" fill-opacity="1" /><path clip-path="url(#clip680)" d="M 0 0 M410.701 213.661 Q412.298 210.79 414.52 209.425 Q416.743 208.059 419.752 208.059 Q423.803 208.059 426.002 210.906 Q428.201 213.73 428.201 218.961 L428.201 234.61 L423.918 234.61 L423.918 219.1 Q423.918 215.374 422.599 213.568 Q421.28 211.762 418.571 211.762 Q415.261 211.762 413.34 213.962 Q411.419 216.161 411.419 219.957 L411.419 234.61 L407.136 234.61 L407.136 219.1 Q407.136 215.35 405.817 213.568 Q404.497 211.762 401.743 211.762 Q398.479 211.762 396.558 213.985 Q394.636 216.184 394.636 219.957 L394.636 234.61 L390.354 234.61 L390.354 208.684 L394.636 208.684 L394.636 212.712 Q396.095 210.327 398.132 209.193 Q400.169 208.059 402.97 208.059 Q405.794 208.059 407.761 209.494 Q409.752 210.929 410.701 213.661 Z" fill="#000000" fill-rule="evenodd" fill-opacity="1" /><path clip-path="url(#clip680)" d="M 0 0 M446.742 211.67 Q443.317 211.67 441.326 214.355 Q439.335 217.017 439.335 221.67 Q439.335 226.323 441.303 229.008 Q443.293 231.67 446.742 231.67 Q450.145 231.67 452.136 228.985 Q454.127 226.299 454.127 221.67 Q454.127 217.063 452.136 214.378 Q450.145 211.67 446.742 211.67 M446.742 208.059 Q452.298 208.059 455.469 211.67 Q458.641 215.281 458.641 221.67 Q458.641 228.036 455.469 231.67 Q452.298 235.281 446.742 235.281 Q441.164 235.281 437.992 231.67 Q434.844 228.036 434.844 221.67 Q434.844 215.281 437.992 211.67 Q441.164 208.059 446.742 208.059 Z" fill="#000000" fill-rule="evenodd" fill-opacity="1" /><path clip-path="url(#clip680)" d="M 0 0 M475.747 211.67 Q472.321 211.67 470.33 214.355 Q468.34 217.017 468.34 221.67 Q468.34 226.323 470.307 229.008 Q472.298 231.67 475.747 231.67 Q479.15 231.67 481.14 228.985 Q483.131 226.299 483.131 221.67 Q483.131 217.063 481.14 214.378 Q479.15 211.67 475.747 211.67 M475.747 208.059 Q481.302 208.059 484.474 211.67 Q487.645 215.281 487.645 221.67 Q487.645 228.036 484.474 231.67 Q481.302 235.281 475.747 235.281 Q470.168 235.281 466.997 231.67 Q463.849 228.036 463.849 221.67 Q463.849 215.281 466.997 211.67 Q470.168 208.059 475.747 208.059 Z" fill="#000000" fill-rule="evenodd" fill-opacity="1" /><path clip-path="url(#clip680)" d="M 0 0 M498.918 201.323 L498.918 208.684 L507.691 208.684 L507.691 211.994 L498.918 211.994 L498.918 226.068 Q498.918 229.239 499.775 230.142 Q500.654 231.045 503.316 231.045 L507.691 231.045 L507.691 234.61 L503.316 234.61 Q498.386 234.61 496.511 232.781 Q494.636 230.929 494.636 226.068 L494.636 211.994 L491.511 211.994 L491.511 208.684 L494.636 208.684 L494.636 201.323 L498.918 201.323 Z" fill="#000000" fill-rule="evenodd" fill-opacity="1" /><path clip-path="url(#clip680)" d="M 0 0 M534.844 218.961 L534.844 234.61 L530.585 234.61 L530.585 219.1 Q530.585 215.42 529.149 213.591 Q527.714 211.762 524.844 211.762 Q521.395 211.762 519.404 213.962 Q517.413 216.161 517.413 219.957 L517.413 234.61 L513.131 234.61 L513.131 198.591 L517.413 198.591 L517.413 212.712 Q518.941 210.374 521.001 209.216 Q523.085 208.059 525.793 208.059 Q530.261 208.059 532.552 210.837 Q534.844 213.591 534.844 218.961 Z" fill="#000000" fill-rule="evenodd" fill-opacity="1" /><path clip-path="url(#clip680)" d="M 0 0 M565.515 220.582 L565.515 222.665 L545.932 222.665 Q546.21 227.063 548.571 229.378 Q550.955 231.67 555.191 231.67 Q557.645 231.67 559.936 231.068 Q562.251 230.466 564.52 229.262 L564.52 233.29 Q562.228 234.262 559.821 234.772 Q557.413 235.281 554.936 235.281 Q548.733 235.281 545.098 231.67 Q541.487 228.059 541.487 221.901 Q541.487 215.536 544.913 211.809 Q548.362 208.059 554.196 208.059 Q559.427 208.059 562.459 211.438 Q565.515 214.795 565.515 220.582 M561.256 219.332 Q561.209 215.837 559.288 213.753 Q557.39 211.67 554.242 211.67 Q550.677 211.67 548.524 213.684 Q546.395 215.698 546.071 219.355 L561.256 219.332 Z" fill="#000000" fill-rule="evenodd" fill-opacity="1" /><path clip-path="url(#clip680)" d="M 0 0 M589.566 212.619 L589.566 198.591 L593.825 198.591 L593.825 234.61 L589.566 234.61 L589.566 230.721 Q588.223 233.035 586.163 234.17 Q584.126 235.281 581.256 235.281 Q576.557 235.281 573.594 231.531 Q570.654 227.781 570.654 221.67 Q570.654 215.559 573.594 211.809 Q576.557 208.059 581.256 208.059 Q584.126 208.059 586.163 209.193 Q588.223 210.304 589.566 212.619 M575.052 221.67 Q575.052 226.369 576.973 229.054 Q578.918 231.716 582.297 231.716 Q585.677 231.716 587.621 229.054 Q589.566 226.369 589.566 221.67 Q589.566 216.971 587.621 214.309 Q585.677 211.624 582.297 211.624 Q578.918 211.624 576.973 214.309 Q575.052 216.971 575.052 221.67 Z" fill="#000000" fill-rule="evenodd" fill-opacity="1" /><path clip-path="url(#clip680)" d="M 0 0 M619.079 230.674 L626.718 230.674 L626.718 204.309 L618.408 205.975 L618.408 201.716 L626.672 200.05 L631.348 200.05 L631.348 230.674 L638.987 230.674 L638.987 234.61 L619.079 234.61 L619.079 230.674 Z" fill="#000000" fill-rule="evenodd" fill-opacity="1" /><path clip-path="url(#clip680)" d="M 0 0 M664.357 209.448 L664.357 213.475 Q662.551 212.549 660.607 212.087 Q658.663 211.624 656.579 211.624 Q653.408 211.624 651.811 212.596 Q650.237 213.568 650.237 215.512 Q650.237 216.994 651.371 217.85 Q652.505 218.684 655.931 219.448 L657.389 219.772 Q661.926 220.744 663.825 222.526 Q665.746 224.286 665.746 227.457 Q665.746 231.068 662.876 233.174 Q660.028 235.281 655.028 235.281 Q652.945 235.281 650.677 234.864 Q648.431 234.471 645.931 233.66 L645.931 229.262 Q648.292 230.489 650.584 231.114 Q652.876 231.716 655.121 231.716 Q658.13 231.716 659.751 230.698 Q661.371 229.656 661.371 227.781 Q661.371 226.045 660.19 225.119 Q659.033 224.193 655.075 223.336 L653.593 222.989 Q649.635 222.156 647.876 220.443 Q646.116 218.707 646.116 215.698 Q646.116 212.04 648.709 210.05 Q651.302 208.059 656.07 208.059 Q658.431 208.059 660.514 208.406 Q662.598 208.753 664.357 209.448 Z" fill="#000000" fill-rule="evenodd" fill-opacity="1" /><path clip-path="url(#clip680)" d="M 0 0 M676.741 201.323 L676.741 208.684 L685.514 208.684 L685.514 211.994 L676.741 211.994 L676.741 226.068 Q676.741 229.239 677.598 230.142 Q678.477 231.045 681.139 231.045 L685.514 231.045 L685.514 234.61 L681.139 234.61 Q676.209 234.61 674.334 232.781 Q672.459 230.929 672.459 226.068 L672.459 211.994 L669.334 211.994 L669.334 208.684 L672.459 208.684 L672.459 201.323 L676.741 201.323 Z" fill="#000000" fill-rule="evenodd" fill-opacity="1" /><path clip-path="url(#clip680)" d="M 0 0 M716.232 211.67 Q712.806 211.67 710.815 214.355 Q708.824 217.017 708.824 221.67 Q708.824 226.323 710.792 229.008 Q712.783 231.67 716.232 231.67 Q719.634 231.67 721.625 228.985 Q723.616 226.299 723.616 221.67 Q723.616 217.063 721.625 214.378 Q719.634 211.67 716.232 211.67 M716.232 208.059 Q721.787 208.059 724.959 211.67 Q728.13 215.281 728.13 221.67 Q728.13 228.036 724.959 231.67 Q721.787 235.281 716.232 235.281 Q710.653 235.281 707.482 231.67 Q704.334 228.036 704.334 221.67 Q704.334 215.281 707.482 211.67 Q710.653 208.059 716.232 208.059 Z" fill="#000000" fill-rule="evenodd" fill-opacity="1" /><path clip-path="url(#clip680)" d="M 0 0 M750.213 212.665 Q749.495 212.249 748.639 212.063 Q747.806 211.855 746.787 211.855 Q743.176 211.855 741.232 214.216 Q739.31 216.554 739.31 220.952 L739.31 234.61 L735.028 234.61 L735.028 208.684 L739.31 208.684 L739.31 212.712 Q740.653 210.35 742.806 209.216 Q744.958 208.059 748.037 208.059 Q748.477 208.059 749.009 208.128 Q749.542 208.175 750.19 208.29 L750.213 212.665 Z" fill="#000000" fill-rule="evenodd" fill-opacity="1" /><path clip-path="url(#clip680)" d="M 0 0 M770.907 212.619 L770.907 198.591 L775.167 198.591 L775.167 234.61 L770.907 234.61 L770.907 230.721 Q769.565 233.035 767.505 234.17 Q765.468 235.281 762.597 235.281 Q757.898 235.281 754.935 231.531 Q751.995 227.781 751.995 221.67 Q751.995 215.559 754.935 211.809 Q757.898 208.059 762.597 208.059 Q765.468 208.059 767.505 209.193 Q769.565 210.304 770.907 212.619 M756.394 221.67 Q756.394 226.369 758.315 229.054 Q760.259 231.716 763.639 231.716 Q767.019 231.716 768.963 229.054 Q770.907 226.369 770.907 221.67 Q770.907 216.971 768.963 214.309 Q767.019 211.624 763.639 211.624 Q760.259 211.624 758.315 214.309 Q756.394 216.971 756.394 221.67 Z" fill="#000000" fill-rule="evenodd" fill-opacity="1" /><path clip-path="url(#clip680)" d="M 0 0 M806.116 220.582 L806.116 222.665 L786.532 222.665 Q786.81 227.063 789.171 229.378 Q791.555 231.67 795.791 231.67 Q798.245 231.67 800.537 231.068 Q802.852 230.466 805.12 229.262 L805.12 233.29 Q802.828 234.262 800.421 234.772 Q798.014 235.281 795.537 235.281 Q789.333 235.281 785.699 231.67 Q782.088 228.059 782.088 221.901 Q782.088 215.536 785.514 211.809 Q788.963 208.059 794.796 208.059 Q800.028 208.059 803.06 211.438 Q806.116 214.795 806.116 220.582 M801.856 219.332 Q801.81 215.837 799.889 213.753 Q797.991 211.67 794.842 211.67 Q791.278 211.67 789.125 213.684 Q786.995 215.698 786.671 219.355 L801.856 219.332 Z" fill="#000000" fill-rule="evenodd" fill-opacity="1" /><path clip-path="url(#clip680)" d="M 0 0 M828.129 212.665 Q827.412 212.249 826.555 212.063 Q825.722 211.855 824.703 211.855 Q821.092 211.855 819.148 214.216 Q817.227 216.554 817.227 220.952 L817.227 234.61 L812.944 234.61 L812.944 208.684 L817.227 208.684 L817.227 212.712 Q818.569 210.35 820.722 209.216 Q822.875 208.059 825.953 208.059 Q826.393 208.059 826.926 208.128 Q827.458 208.175 828.106 208.29 L828.129 212.665 Z" fill="#000000" fill-rule="evenodd" fill-opacity="1" /><path clip-path="url(#clip680)" d="M 0 0 M864.726 212.619 L864.726 198.591 L868.986 198.591 L868.986 234.61 L864.726 234.61 L864.726 230.721 Q863.384 233.035 861.324 234.17 Q859.287 235.281 856.416 235.281 Q851.717 235.281 848.754 231.531 Q845.814 227.781 845.814 221.67 Q845.814 215.559 848.754 211.809 Q851.717 208.059 856.416 208.059 Q859.287 208.059 861.324 209.193 Q863.384 210.304 864.726 212.619 M850.213 221.67 Q850.213 226.369 852.134 229.054 Q854.078 231.716 857.458 231.716 Q860.837 231.716 862.782 229.054 Q864.726 226.369 864.726 221.67 Q864.726 216.971 862.782 214.309 Q860.837 211.624 857.458 211.624 Q854.078 211.624 852.134 214.309 Q850.213 216.971 850.213 221.67 Z" fill="#000000" fill-rule="evenodd" fill-opacity="1" /><path clip-path="url(#clip680)" d="M 0 0 M899.934 220.582 L899.934 222.665 L880.351 222.665 Q880.629 227.063 882.99 229.378 Q885.374 231.67 889.61 231.67 Q892.064 231.67 894.356 231.068 Q896.671 230.466 898.939 229.262 L898.939 233.29 Q896.647 234.262 894.24 234.772 Q891.833 235.281 889.356 235.281 Q883.152 235.281 879.518 231.67 Q875.907 228.059 875.907 221.901 Q875.907 215.536 879.333 211.809 Q882.782 208.059 888.615 208.059 Q893.847 208.059 896.879 211.438 Q899.934 214.795 899.934 220.582 M895.675 219.332 Q895.629 215.837 893.708 213.753 Q891.81 211.67 888.661 211.67 Q885.097 211.67 882.944 213.684 Q880.814 215.698 880.49 219.355 L895.675 219.332 Z" fill="#000000" fill-rule="evenodd" fill-opacity="1" /><path clip-path="url(#clip680)" d="M 0 0 M921.948 212.665 Q921.231 212.249 920.374 212.063 Q919.541 211.855 918.522 211.855 Q914.911 211.855 912.967 214.216 Q911.046 216.554 911.046 220.952 L911.046 234.61 L906.763 234.61 L906.763 208.684 L911.046 208.684 L911.046 212.712 Q912.388 210.35 914.541 209.216 Q916.694 208.059 919.772 208.059 Q920.212 208.059 920.745 208.128 Q921.277 208.175 921.925 208.29 L921.948 212.665 Z" fill="#000000" fill-rule="evenodd" fill-opacity="1" /><path clip-path="url(#clip680)" d="M 0 0 M926.416 208.684 L930.675 208.684 L930.675 234.61 L926.416 234.61 L926.416 208.684 M926.416 198.591 L930.675 198.591 L930.675 203.985 L926.416 203.985 L926.416 198.591 Z" fill="#000000" fill-rule="evenodd" fill-opacity="1" /><path clip-path="url(#clip680)" d="M 0 0 M936.531 208.684 L941.045 208.684 L949.147 230.443 L957.249 208.684 L961.763 208.684 L952.041 234.61 L946.254 234.61 L936.531 208.684 Z" fill="#000000" fill-rule="evenodd" fill-opacity="1" /><path clip-path="url(#clip680)" d="M 0 0 M979.425 221.577 Q974.263 221.577 972.272 222.758 Q970.281 223.938 970.281 226.786 Q970.281 229.054 971.763 230.397 Q973.267 231.716 975.837 231.716 Q979.378 231.716 981.508 229.216 Q983.661 226.693 983.661 222.526 L983.661 221.577 L979.425 221.577 M987.92 219.818 L987.92 234.61 L983.661 234.61 L983.661 230.674 Q982.203 233.035 980.027 234.17 Q977.851 235.281 974.703 235.281 Q970.721 235.281 968.36 233.059 Q966.022 230.813 966.022 227.063 Q966.022 222.688 968.939 220.466 Q971.879 218.244 977.689 218.244 L983.661 218.244 L983.661 217.827 Q983.661 214.887 981.716 213.29 Q979.795 211.67 976.3 211.67 Q974.078 211.67 971.971 212.202 Q969.865 212.735 967.92 213.799 L967.92 209.864 Q970.258 208.962 972.457 208.522 Q974.656 208.059 976.74 208.059 Q982.365 208.059 985.142 210.975 Q987.92 213.892 987.92 219.818 Z" fill="#000000" fill-rule="evenodd" fill-opacity="1" /><path clip-path="url(#clip680)" d="M 0 0 M1000.91 201.323 L1000.91 208.684 L1009.68 208.684 L1009.68 211.994 L1000.91 211.994 L1000.91 226.068 Q1000.91 229.239 1001.76 230.142 Q1002.64 231.045 1005.3 231.045 L1009.68 231.045 L1009.68 234.61 L1005.3 234.61 Q1000.37 234.61 998.499 232.781 Q996.624 230.929 996.624 226.068 L996.624 211.994 L993.499 211.994 L993.499 208.684 L996.624 208.684 L996.624 201.323 L1000.91 201.323 Z" fill="#000000" fill-rule="evenodd" fill-opacity="1" /><path clip-path="url(#clip680)" d="M 0 0 M1015.28 208.684 L1019.54 208.684 L1019.54 234.61 L1015.28 234.61 L1015.28 208.684 M1015.28 198.591 L1019.54 198.591 L1019.54 203.985 L1015.28 203.985 L1015.28 198.591 Z" fill="#000000" fill-rule="evenodd" fill-opacity="1" /><path clip-path="url(#clip680)" d="M 0 0 M1025.4 208.684 L1029.91 208.684 L1038.01 230.443 L1046.11 208.684 L1050.63 208.684 L1040.91 234.61 L1035.12 234.61 L1025.4 208.684 Z" fill="#000000" fill-rule="evenodd" fill-opacity="1" /><path clip-path="url(#clip680)" d="M 0 0 M1078.68 220.582 L1078.68 222.665 L1059.1 222.665 Q1059.38 227.063 1061.74 229.378 Q1064.12 231.67 1068.36 231.67 Q1070.81 231.67 1073.1 231.068 Q1075.42 230.466 1077.69 229.262 L1077.69 233.29 Q1075.4 234.262 1072.99 234.772 Q1070.58 235.281 1068.1 235.281 Q1061.9 235.281 1058.27 231.67 Q1054.66 228.059 1054.66 221.901 Q1054.66 215.536 1058.08 211.809 Q1061.53 208.059 1067.36 208.059 Q1072.6 208.059 1075.63 211.438 Q1078.68 214.795 1078.68 220.582 M1074.42 219.332 Q1074.38 215.837 1072.46 213.753 Q1070.56 211.67 1067.41 211.67 Q1063.85 211.67 1061.69 213.684 Q1059.56 215.698 1059.24 219.355 L1074.42 219.332 Z" fill="#000000" fill-rule="evenodd" fill-opacity="1" /></svg>
