<?xml version="1.0" encoding="utf-8"?>
<svg xmlns="http://www.w3.org/2000/svg" xmlns:xlink="http://www.w3.org/1999/xlink" width="150" height="100" viewBox="0 0 600 400">
<defs>
  <clipPath id="clip600">
    <rect x="0" y="0" width="600" height="400"/>
  </clipPath>
</defs>
<path clip-path="url(#clip600)" d="
M0 400 L600 400 L600 0 L0 0  Z
  " fill="#ffffff" fill-rule="evenodd" fill-opacity="1"/>
<defs>
  <clipPath id="clip601">
    <rect x="120" y="0" width="421" height="400"/>
  </clipPath>
</defs>
<path clip-path="url(#clip600)" d="
M47.811 354.189 L588.189 354.189 L588.189 11.811 L47.811 11.811  Z
  " fill="#ffffff" fill-rule="evenodd" fill-opacity="1"/>
<defs>
  <clipPath id="clip602">
    <rect x="47" y="11" width="541" height="343"/>
  </clipPath>
</defs>
<polyline clip-path="url(#clip602)" style="stroke:#000000; stroke-width:0.5; stroke-opacity:0.1; fill:none" points="
  114.084,354.189 114.084,11.811 
  "/>
<polyline clip-path="url(#clip602)" style="stroke:#000000; stroke-width:0.5; stroke-opacity:0.1; fill:none" points="
  216.042,354.189 216.042,11.811 
  "/>
<polyline clip-path="url(#clip602)" style="stroke:#000000; stroke-width:0.5; stroke-opacity:0.1; fill:none" points="
  318,354.189 318,11.811 
  "/>
<polyline clip-path="url(#clip602)" style="stroke:#000000; stroke-width:0.5; stroke-opacity:0.1; fill:none" points="
  419.958,354.189 419.958,11.811 
  "/>
<polyline clip-path="url(#clip602)" style="stroke:#000000; stroke-width:0.5; stroke-opacity:0.1; fill:none" points="
  521.916,354.189 521.916,11.811 
  "/>
<polyline clip-path="url(#clip600)" style="stroke:#000000; stroke-width:1; stroke-opacity:1; fill:none" points="
  47.811,354.189 588.189,354.189 
  "/>
<polyline clip-path="url(#clip600)" style="stroke:#000000; stroke-width:1; stroke-opacity:1; fill:none" points="
  114.084,354.189 114.084,350.08 
  "/>
<polyline clip-path="url(#clip600)" style="stroke:#000000; stroke-width:1; stroke-opacity:1; fill:none" points="
  216.042,354.189 216.042,350.08 
  "/>
<polyline clip-path="url(#clip600)" style="stroke:#000000; stroke-width:1; stroke-opacity:1; fill:none" points="
  318,354.189 318,350.08 
  "/>
<polyline clip-path="url(#clip600)" style="stroke:#000000; stroke-width:1; stroke-opacity:1; fill:none" points="
  419.958,354.189 419.958,350.08 
  "/>
<polyline clip-path="url(#clip600)" style="stroke:#000000; stroke-width:1; stroke-opacity:1; fill:none" points="
  521.916,354.189 521.916,350.08 
  "/>
<path clip-path="url(#clip600)" d="M 0 0 M106.937 365.15 L114.356 365.15 L114.356 366.134 L106.937 366.134 L106.937 365.15 Z" fill="#000000" fill-rule="evenodd" fill-opacity="1" /><path clip-path="url(#clip600)" d="M 0 0 M118.835 361.735 L115.884 366.348 L118.835 366.348 L118.835 361.735 M118.528 360.717 L119.998 360.717 L119.998 366.348 L121.231 366.348 L121.231 367.32 L119.998 367.32 L119.998 369.357 L118.835 369.357 L118.835 367.32 L114.934 367.32 L114.934 366.191 L118.528 360.717 Z" fill="#000000" fill-rule="evenodd" fill-opacity="1" /><path clip-path="url(#clip600)" d="M 0 0 M209.155 365.15 L216.574 365.15 L216.574 366.134 L209.155 366.134 L209.155 365.15 Z" fill="#000000" fill-rule="evenodd" fill-opacity="1" /><path clip-path="url(#clip600)" d="M 0 0 M218.849 368.373 L222.928 368.373 L222.928 369.357 L217.442 369.357 L217.442 368.373 Q218.108 367.685 219.254 366.527 Q220.405 365.364 220.7 365.028 Q221.262 364.398 221.482 363.963 Q221.707 363.524 221.707 363.101 Q221.707 362.413 221.221 361.979 Q220.741 361.545 219.965 361.545 Q219.416 361.545 218.802 361.735 Q218.195 361.926 217.5 362.314 L217.5 361.134 Q218.206 360.85 218.82 360.705 Q219.433 360.561 219.942 360.561 Q221.285 360.561 222.084 361.232 Q222.882 361.903 222.882 363.026 Q222.882 363.558 222.68 364.039 Q222.483 364.513 221.956 365.161 Q221.812 365.329 221.036 366.134 Q220.261 366.932 218.849 368.373 Z" fill="#000000" fill-rule="evenodd" fill-opacity="1" /><path clip-path="url(#clip600)" d="M 0 0 M318 361.487 Q317.097 361.487 316.64 362.378 Q316.189 363.263 316.189 365.046 Q316.189 366.822 316.64 367.713 Q317.097 368.599 318 368.599 Q318.909 368.599 319.36 367.713 Q319.817 366.822 319.817 365.046 Q319.817 363.263 319.36 362.378 Q318.909 361.487 318 361.487 M318 360.561 Q319.453 360.561 320.216 361.712 Q320.986 362.858 320.986 365.046 Q320.986 367.227 320.216 368.379 Q319.453 369.525 318 369.525 Q316.547 369.525 315.778 368.379 Q315.014 367.227 315.014 365.046 Q315.014 362.858 315.778 361.712 Q316.547 360.561 318 360.561 Z" fill="#000000" fill-rule="evenodd" fill-opacity="1" /><path clip-path="url(#clip600)" d="M 0 0 M418.621 368.373 L422.701 368.373 L422.701 369.357 L417.215 369.357 L417.215 368.373 Q417.881 367.685 419.026 366.527 Q420.178 365.364 420.473 365.028 Q421.034 364.398 421.254 363.963 Q421.48 363.524 421.48 363.101 Q421.48 362.413 420.994 361.979 Q420.514 361.545 419.738 361.545 Q419.188 361.545 418.575 361.735 Q417.967 361.926 417.273 362.314 L417.273 361.134 Q417.979 360.85 418.592 360.705 Q419.206 360.561 419.715 360.561 Q421.058 360.561 421.856 361.232 Q422.655 361.903 422.655 363.026 Q422.655 363.558 422.452 364.039 Q422.256 364.513 421.729 365.161 Q421.584 365.329 420.809 366.134 Q420.033 366.932 418.621 368.373 Z" fill="#000000" fill-rule="evenodd" fill-opacity="1" /><path clip-path="url(#clip600)" d="M 0 0 M522.669 361.735 L519.717 366.348 L522.669 366.348 L522.669 361.735 M522.362 360.717 L523.832 360.717 L523.832 366.348 L525.064 366.348 L525.064 367.32 L523.832 367.32 L523.832 369.357 L522.669 369.357 L522.669 367.32 L518.768 367.32 L518.768 366.191 L522.362 360.717 Z" fill="#000000" fill-rule="evenodd" fill-opacity="1" /><polyline clip-path="url(#clip602)" style="stroke:#000000; stroke-width:0.5; stroke-opacity:0.1; fill:none" points="
  47.811,329.744 588.189,329.744 
  "/>
<polyline clip-path="url(#clip602)" style="stroke:#000000; stroke-width:0.5; stroke-opacity:0.1; fill:none" points="
  47.811,270.513 588.189,270.513 
  "/>
<polyline clip-path="url(#clip602)" style="stroke:#000000; stroke-width:0.5; stroke-opacity:0.1; fill:none" points="
  47.811,211.283 588.189,211.283 
  "/>
<polyline clip-path="url(#clip602)" style="stroke:#000000; stroke-width:0.5; stroke-opacity:0.1; fill:none" points="
  47.811,152.053 588.189,152.053 
  "/>
<polyline clip-path="url(#clip602)" style="stroke:#000000; stroke-width:0.5; stroke-opacity:0.1; fill:none" points="
  47.811,92.8226 588.189,92.8226 
  "/>
<polyline clip-path="url(#clip602)" style="stroke:#000000; stroke-width:0.5; stroke-opacity:0.1; fill:none" points="
  47.811,33.5923 588.189,33.5923 
  "/>
<polyline clip-path="url(#clip600)" style="stroke:#000000; stroke-width:1; stroke-opacity:1; fill:none" points="
  47.811,354.189 47.811,11.811 
  "/>
<polyline clip-path="url(#clip600)" style="stroke:#000000; stroke-width:1; stroke-opacity:1; fill:none" points="
  47.811,329.744 54.2956,329.744 
  "/>
<polyline clip-path="url(#clip600)" style="stroke:#000000; stroke-width:1; stroke-opacity:1; fill:none" points="
  47.811,270.513 54.2956,270.513 
  "/>
<polyline clip-path="url(#clip600)" style="stroke:#000000; stroke-width:1; stroke-opacity:1; fill:none" points="
  47.811,211.283 54.2956,211.283 
  "/>
<polyline clip-path="url(#clip600)" style="stroke:#000000; stroke-width:1; stroke-opacity:1; fill:none" points="
  47.811,152.053 54.2956,152.053 
  "/>
<polyline clip-path="url(#clip600)" style="stroke:#000000; stroke-width:1; stroke-opacity:1; fill:none" points="
  47.811,92.8226 54.2956,92.8226 
  "/>
<polyline clip-path="url(#clip600)" style="stroke:#000000; stroke-width:1; stroke-opacity:1; fill:none" points="
  47.811,33.5923 54.2956,33.5923 
  "/>
<path clip-path="url(#clip600)" d="M 0 0 M19.8296 326.193 Q18.9269 326.193 18.4697 327.084 Q18.0183 327.97 18.0183 329.752 Q18.0183 331.529 18.4697 332.42 Q18.9269 333.305 19.8296 333.305 Q20.7382 333.305 21.1896 332.42 Q21.6468 331.529 21.6468 329.752 Q21.6468 327.97 21.1896 327.084 Q20.7382 326.193 19.8296 326.193 M19.8296 325.267 Q21.2822 325.267 22.0461 326.419 Q22.8157 327.565 22.8157 329.752 Q22.8157 331.934 22.0461 333.086 Q21.2822 334.231 19.8296 334.231 Q18.3771 334.231 17.6074 333.086 Q16.8435 331.934 16.8435 329.752 Q16.8435 327.565 17.6074 326.419 Q18.3771 325.267 19.8296 325.267 Z" fill="#000000" fill-rule="evenodd" fill-opacity="1" /><path clip-path="url(#clip600)" d="M 0 0 M24.0831 332.594 L25.3042 332.594 L25.3042 334.064 L24.0831 334.064 L24.0831 332.594 Z" fill="#000000" fill-rule="evenodd" fill-opacity="1" /><path clip-path="url(#clip600)" d="M 0 0 M29.0715 326.193 Q28.1687 326.193 27.7115 327.084 Q27.2602 327.97 27.2602 329.752 Q27.2602 331.529 27.7115 332.42 Q28.1687 333.305 29.0715 333.305 Q29.9801 333.305 30.4314 332.42 Q30.8886 331.529 30.8886 329.752 Q30.8886 327.97 30.4314 327.084 Q29.9801 326.193 29.0715 326.193 M29.0715 325.267 Q30.524 325.267 31.2879 326.419 Q32.0576 327.565 32.0576 329.752 Q32.0576 331.934 31.2879 333.086 Q30.524 334.231 29.0715 334.231 Q27.619 334.231 26.8493 333.086 Q26.0854 331.934 26.0854 329.752 Q26.0854 327.565 26.8493 326.419 Q27.619 325.267 29.0715 325.267 Z" fill="#000000" fill-rule="evenodd" fill-opacity="1" /><path clip-path="url(#clip600)" d="M 0 0 M35.8249 326.193 Q34.9222 326.193 34.465 327.084 Q34.0136 327.97 34.0136 329.752 Q34.0136 331.529 34.465 332.42 Q34.9222 333.305 35.8249 333.305 Q36.7335 333.305 37.1849 332.42 Q37.642 331.529 37.642 329.752 Q37.642 327.97 37.1849 327.084 Q36.7335 326.193 35.8249 326.193 M35.8249 325.267 Q37.2775 325.267 38.0414 326.419 Q38.811 327.565 38.811 329.752 Q38.811 331.934 38.0414 333.086 Q37.2775 334.231 35.8249 334.231 Q34.3724 334.231 33.6027 333.086 Q32.8388 331.934 32.8388 329.752 Q32.8388 327.565 33.6027 326.419 Q34.3724 325.267 35.8249 325.267 Z" fill="#000000" fill-rule="evenodd" fill-opacity="1" /><path clip-path="url(#clip600)" d="M 0 0 M20.0785 266.963 Q19.1757 266.963 18.7185 267.854 Q18.2672 268.74 18.2672 270.522 Q18.2672 272.299 18.7185 273.19 Q19.1757 274.075 20.0785 274.075 Q20.987 274.075 21.4384 273.19 Q21.8956 272.299 21.8956 270.522 Q21.8956 268.74 21.4384 267.854 Q20.987 266.963 20.0785 266.963 M20.0785 266.037 Q21.531 266.037 22.2949 267.189 Q23.0646 268.335 23.0646 270.522 Q23.0646 272.704 22.2949 273.855 Q21.531 275.001 20.0785 275.001 Q18.6259 275.001 17.8563 273.855 Q17.0924 272.704 17.0924 270.522 Q17.0924 268.335 17.8563 267.189 Q18.6259 266.037 20.0785 266.037 Z" fill="#000000" fill-rule="evenodd" fill-opacity="1" /><path clip-path="url(#clip600)" d="M 0 0 M24.3319 273.363 L25.553 273.363 L25.553 274.833 L24.3319 274.833 L24.3319 273.363 Z" fill="#000000" fill-rule="evenodd" fill-opacity="1" /><path clip-path="url(#clip600)" d="M 0 0 M29.3203 266.963 Q28.4176 266.963 27.9604 267.854 Q27.509 268.74 27.509 270.522 Q27.509 272.299 27.9604 273.19 Q28.4176 274.075 29.3203 274.075 Q30.2289 274.075 30.6803 273.19 Q31.1375 272.299 31.1375 270.522 Q31.1375 268.74 30.6803 267.854 Q30.2289 266.963 29.3203 266.963 M29.3203 266.037 Q30.7729 266.037 31.5368 267.189 Q32.3064 268.335 32.3064 270.522 Q32.3064 272.704 31.5368 273.855 Q30.7729 275.001 29.3203 275.001 Q27.8678 275.001 27.0981 273.855 Q26.3342 272.704 26.3342 270.522 Q26.3342 268.335 27.0981 267.189 Q27.8678 266.037 29.3203 266.037 Z" fill="#000000" fill-rule="evenodd" fill-opacity="1" /><path clip-path="url(#clip600)" d="M 0 0 M33.5854 266.193 L38.1745 266.193 L38.1745 267.177 L34.656 267.177 L34.656 269.295 Q34.9106 269.208 35.1652 269.168 Q35.4198 269.122 35.6745 269.122 Q37.1212 269.122 37.9661 269.914 Q38.811 270.707 38.811 272.061 Q38.811 273.456 37.943 274.231 Q37.0749 275.001 35.4951 275.001 Q34.9511 275.001 34.384 274.909 Q33.8226 274.816 33.2208 274.631 L33.2208 273.456 Q33.7416 273.74 34.2972 273.878 Q34.8527 274.017 35.4719 274.017 Q36.4731 274.017 37.0576 273.491 Q37.642 272.964 37.642 272.061 Q37.642 271.159 37.0576 270.632 Q36.4731 270.105 35.4719 270.105 Q35.0032 270.105 34.5344 270.21 Q34.0715 270.314 33.5854 270.534 L33.5854 266.193 Z" fill="#000000" fill-rule="evenodd" fill-opacity="1" /><path clip-path="url(#clip600)" d="M 0 0 M20.1364 207.733 Q19.2336 207.733 18.7764 208.624 Q18.325 209.509 18.325 211.292 Q18.325 213.068 18.7764 213.96 Q19.2336 214.845 20.1364 214.845 Q21.0449 214.845 21.4963 213.96 Q21.9535 213.068 21.9535 211.292 Q21.9535 209.509 21.4963 208.624 Q21.0449 207.733 20.1364 207.733 M20.1364 206.807 Q21.5889 206.807 22.3528 207.958 Q23.1225 209.104 23.1225 211.292 Q23.1225 213.473 22.3528 214.625 Q21.5889 215.771 20.1364 215.771 Q18.6838 215.771 17.9141 214.625 Q17.1503 213.473 17.1503 211.292 Q17.1503 209.104 17.9141 207.958 Q18.6838 206.807 20.1364 206.807 Z" fill="#000000" fill-rule="evenodd" fill-opacity="1" /><path clip-path="url(#clip600)" d="M 0 0 M24.3898 214.133 L25.6109 214.133 L25.6109 215.603 L24.3898 215.603 L24.3898 214.133 Z" fill="#000000" fill-rule="evenodd" fill-opacity="1" /><path clip-path="url(#clip600)" d="M 0 0 M27.0808 214.619 L28.9905 214.619 L28.9905 208.028 L26.9129 208.445 L26.9129 207.38 L28.9789 206.963 L30.1479 206.963 L30.1479 214.619 L32.0576 214.619 L32.0576 215.603 L27.0808 215.603 L27.0808 214.619 Z" fill="#000000" fill-rule="evenodd" fill-opacity="1" /><path clip-path="url(#clip600)" d="M 0 0 M35.8249 207.733 Q34.9222 207.733 34.465 208.624 Q34.0136 209.509 34.0136 211.292 Q34.0136 213.068 34.465 213.96 Q34.9222 214.845 35.8249 214.845 Q36.7335 214.845 37.1849 213.96 Q37.642 213.068 37.642 211.292 Q37.642 209.509 37.1849 208.624 Q36.7335 207.733 35.8249 207.733 M35.8249 206.807 Q37.2775 206.807 38.0414 207.958 Q38.811 209.104 38.811 211.292 Q38.811 213.473 38.0414 214.625 Q37.2775 215.771 35.8249 215.771 Q34.3724 215.771 33.6027 214.625 Q32.8388 213.473 32.8388 211.292 Q32.8388 209.104 33.6027 207.958 Q34.3724 206.807 35.8249 206.807 Z" fill="#000000" fill-rule="evenodd" fill-opacity="1" /><path clip-path="url(#clip600)" d="M 0 0 M20.3852 148.503 Q19.4824 148.503 19.0253 149.394 Q18.5739 150.279 18.5739 152.062 Q18.5739 153.838 19.0253 154.729 Q19.4824 155.615 20.3852 155.615 Q21.2938 155.615 21.7451 154.729 Q22.2023 153.838 22.2023 152.062 Q22.2023 150.279 21.7451 149.394 Q21.2938 148.503 20.3852 148.503 M20.3852 147.577 Q21.8377 147.577 22.6016 148.728 Q23.3713 149.874 23.3713 152.062 Q23.3713 154.243 22.6016 155.395 Q21.8377 156.541 20.3852 156.541 Q18.9327 156.541 18.163 155.395 Q17.3991 154.243 17.3991 152.062 Q17.3991 149.874 18.163 148.728 Q18.9327 147.577 20.3852 147.577 Z" fill="#000000" fill-rule="evenodd" fill-opacity="1" /><path clip-path="url(#clip600)" d="M 0 0 M24.6386 154.903 L25.8597 154.903 L25.8597 156.373 L24.6386 156.373 L24.6386 154.903 Z" fill="#000000" fill-rule="evenodd" fill-opacity="1" /><path clip-path="url(#clip600)" d="M 0 0 M27.3296 155.389 L29.2393 155.389 L29.2393 148.798 L27.1618 149.214 L27.1618 148.15 L29.2277 147.733 L30.3967 147.733 L30.3967 155.389 L32.3064 155.389 L32.3064 156.373 L27.3296 156.373 L27.3296 155.389 Z" fill="#000000" fill-rule="evenodd" fill-opacity="1" /><path clip-path="url(#clip600)" d="M 0 0 M33.5854 147.733 L38.1745 147.733 L38.1745 148.717 L34.656 148.717 L34.656 150.835 Q34.9106 150.748 35.1652 150.707 Q35.4198 150.661 35.6745 150.661 Q37.1212 150.661 37.9661 151.454 Q38.811 152.247 38.811 153.601 Q38.811 154.996 37.943 155.771 Q37.0749 156.541 35.4951 156.541 Q34.9511 156.541 34.384 156.448 Q33.8226 156.355 33.2208 156.17 L33.2208 154.996 Q33.7416 155.279 34.2972 155.418 Q34.8527 155.557 35.4719 155.557 Q36.4731 155.557 37.0576 155.03 Q37.642 154.504 37.642 153.601 Q37.642 152.698 37.0576 152.171 Q36.4731 151.645 35.4719 151.645 Q35.0032 151.645 34.5344 151.749 Q34.0715 151.853 33.5854 152.073 L33.5854 147.733 Z" fill="#000000" fill-rule="evenodd" fill-opacity="1" /><path clip-path="url(#clip600)" d="M 0 0 M20.2289 89.2723 Q19.3262 89.2723 18.869 90.1635 Q18.4176 91.0489 18.4176 92.8313 Q18.4176 94.6079 18.869 95.4991 Q19.3262 96.3845 20.2289 96.3845 Q21.1375 96.3845 21.5889 95.4991 Q22.0461 94.6079 22.0461 92.8313 Q22.0461 91.0489 21.5889 90.1635 Q21.1375 89.2723 20.2289 89.2723 M20.2289 88.3463 Q21.6815 88.3463 22.4454 89.498 Q23.215 90.6438 23.215 92.8313 Q23.215 95.013 22.4454 96.1646 Q21.6815 97.3104 20.2289 97.3104 Q18.7764 97.3104 18.0067 96.1646 Q17.2429 95.013 17.2429 92.8313 Q17.2429 90.6438 18.0067 89.498 Q18.7764 88.3463 20.2289 88.3463 Z" fill="#000000" fill-rule="evenodd" fill-opacity="1" /><path clip-path="url(#clip600)" d="M 0 0 M24.4824 95.6727 L25.7035 95.6727 L25.7035 97.1426 L24.4824 97.1426 L24.4824 95.6727 Z" fill="#000000" fill-rule="evenodd" fill-opacity="1" /><path clip-path="url(#clip600)" d="M 0 0 M27.9777 96.1588 L32.0576 96.1588 L32.0576 97.1426 L26.5715 97.1426 L26.5715 96.1588 Q27.237 95.4701 28.3828 94.3127 Q29.5345 93.1496 29.8296 92.8139 Q30.3909 92.1831 30.6108 91.7491 Q30.8365 91.3093 30.8365 90.8868 Q30.8365 90.1982 30.3504 89.7642 Q29.8701 89.3301 29.0946 89.3301 Q28.5449 89.3301 27.9315 89.5211 Q27.3238 89.7121 26.6294 90.0998 L26.6294 88.9193 Q27.3354 88.6357 27.9488 88.491 Q28.5622 88.3463 29.0715 88.3463 Q30.4141 88.3463 31.2127 89.0176 Q32.0113 89.6889 32.0113 90.8116 Q32.0113 91.344 31.8087 91.8243 Q31.612 92.2989 31.0854 92.947 Q30.9407 93.1148 30.1652 93.9192 Q29.3898 94.7178 27.9777 96.1588 Z" fill="#000000" fill-rule="evenodd" fill-opacity="1" /><path clip-path="url(#clip600)" d="M 0 0 M35.8249 89.2723 Q34.9222 89.2723 34.465 90.1635 Q34.0136 91.0489 34.0136 92.8313 Q34.0136 94.6079 34.465 95.4991 Q34.9222 96.3845 35.8249 96.3845 Q36.7335 96.3845 37.1849 95.4991 Q37.642 94.6079 37.642 92.8313 Q37.642 91.0489 37.1849 90.1635 Q36.7335 89.2723 35.8249 89.2723 M35.8249 88.3463 Q37.2775 88.3463 38.0414 89.498 Q38.811 90.6438 38.811 92.8313 Q38.811 95.013 38.0414 96.1646 Q37.2775 97.3104 35.8249 97.3104 Q34.3724 97.3104 33.6027 96.1646 Q32.8388 95.013 32.8388 92.8313 Q32.8388 90.6438 33.6027 89.498 Q34.3724 88.3463 35.8249 88.3463 Z" fill="#000000" fill-rule="evenodd" fill-opacity="1" /><path clip-path="url(#clip600)" d="M 0 0 M20.4778 30.042 Q19.575 30.042 19.1178 30.9332 Q18.6665 31.8186 18.6665 33.601 Q18.6665 35.3776 19.1178 36.2688 Q19.575 37.1542 20.4778 37.1542 Q21.3863 37.1542 21.8377 36.2688 Q22.2949 35.3776 22.2949 33.601 Q22.2949 31.8186 21.8377 30.9332 Q21.3863 30.042 20.4778 30.042 M20.4778 29.1161 Q21.9303 29.1161 22.6942 30.2677 Q23.4639 31.4135 23.4639 33.601 Q23.4639 35.7827 22.6942 36.9343 Q21.9303 38.0802 20.4778 38.0802 Q19.0253 38.0802 18.2556 36.9343 Q17.4917 35.7827 17.4917 33.601 Q17.4917 31.4135 18.2556 30.2677 Q19.0253 29.1161 20.4778 29.1161 Z" fill="#000000" fill-rule="evenodd" fill-opacity="1" /><path clip-path="url(#clip600)" d="M 0 0 M24.7312 36.4424 L25.9523 36.4424 L25.9523 37.9123 L24.7312 37.9123 L24.7312 36.4424 Z" fill="#000000" fill-rule="evenodd" fill-opacity="1" /><path clip-path="url(#clip600)" d="M 0 0 M28.2266 36.9286 L32.3064 36.9286 L32.3064 37.9123 L26.8203 37.9123 L26.8203 36.9286 Q27.4859 36.2399 28.6317 35.0825 Q29.7833 33.9193 30.0784 33.5837 Q30.6398 32.9529 30.8597 32.5189 Q31.0854 32.079 31.0854 31.6566 Q31.0854 30.9679 30.5993 30.5339 Q30.1189 30.0999 29.3435 30.0999 Q28.7937 30.0999 28.1803 30.2909 Q27.5727 30.4818 26.8782 30.8696 L26.8782 29.689 Q27.5842 29.4054 28.1977 29.2608 Q28.8111 29.1161 29.3203 29.1161 Q30.6629 29.1161 31.4615 29.7874 Q32.2601 30.4587 32.2601 31.5814 Q32.2601 32.1138 32.0576 32.5941 Q31.8608 33.0686 31.3342 33.7168 Q31.1895 33.8846 30.4141 34.689 Q29.6386 35.4876 28.2266 36.9286 Z" fill="#000000" fill-rule="evenodd" fill-opacity="1" /><path clip-path="url(#clip600)" d="M 0 0 M33.5854 29.2723 L38.1745 29.2723 L38.1745 30.2561 L34.656 30.2561 L34.656 32.3742 Q34.9106 32.2874 35.1652 32.2469 Q35.4198 32.2006 35.6745 32.2006 Q37.1212 32.2006 37.9661 32.9934 Q38.811 33.7862 38.811 35.1404 Q38.811 36.535 37.943 37.3105 Q37.0749 38.0802 35.4951 38.0802 Q34.9511 38.0802 34.384 37.9876 Q33.8226 37.895 33.2208 37.7098 L33.2208 36.535 Q33.7416 36.8186 34.2972 36.9575 Q34.8527 37.0964 35.4719 37.0964 Q36.4731 37.0964 37.0576 36.5698 Q37.642 36.0431 37.642 35.1404 Q37.642 34.2376 37.0576 33.711 Q36.4731 33.1844 35.4719 33.1844 Q35.0032 33.1844 34.5344 33.2885 Q34.0715 33.3927 33.5854 33.6126 L33.5854 29.2723 Z" fill="#000000" fill-rule="evenodd" fill-opacity="1" /><polyline clip-path="url(#clip602)" style="stroke:#009af9; stroke-width:1; stroke-opacity:1; fill:none" points="
  63.1047,326.822 68.0833,326.524 114.117,321.863 141.781,316.315 165.171,308.777 177.875,303.116 190.579,296.022 202.291,287.948 214.003,278.134 226.559,265.372 
  239.115,249.983 246.389,239.765 253.663,228.553 260.937,216.338 268.211,203.144 294.068,149.627 316.742,99.5044 322.922,86.6612 329.102,74.6444 335.283,63.7221 
  341.463,54.1565 347.68,46.1495 353.897,39.9795 360.114,35.8202 366.331,33.7921 373.204,34.1003 380.078,37.0741 386.951,42.607 393.825,50.5055 400.365,59.9738 
  406.905,71.0664 413.445,83.4787 419.985,96.8936 433.586,126.653 447.186,156.879 458.635,181.241 470.083,203.774 484.061,228.175 498.038,248.901 511.177,265.123 
  524.316,278.465 534.841,287.316 545.366,294.746 555.891,300.948 566.416,306.1 568.036,306.81 569.656,307.5 571.276,308.17 572.895,308.82 
  "/>
<circle clip-path="url(#clip602)" cx="114.084" cy="340.554" r="3" fill="#e26f46" fill-rule="evenodd" fill-opacity="1" stroke="#000000" stroke-opacity="1" stroke-width="0.8"/>
<circle clip-path="url(#clip602)" cx="119.182" cy="342.977" r="3" fill="#e26f46" fill-rule="evenodd" fill-opacity="1" stroke="#000000" stroke-opacity="1" stroke-width="0.8"/>
<circle clip-path="url(#clip602)" cx="124.28" cy="344.499" r="3" fill="#e26f46" fill-rule="evenodd" fill-opacity="1" stroke="#000000" stroke-opacity="1" stroke-width="0.8"/>
<circle clip-path="url(#clip602)" cx="129.378" cy="342.865" r="3" fill="#e26f46" fill-rule="evenodd" fill-opacity="1" stroke="#000000" stroke-opacity="1" stroke-width="0.8"/>
<circle clip-path="url(#clip602)" cx="134.475" cy="339.89" r="3" fill="#e26f46" fill-rule="evenodd" fill-opacity="1" stroke="#000000" stroke-opacity="1" stroke-width="0.8"/>
<circle clip-path="url(#clip602)" cx="139.573" cy="335.557" r="3" fill="#e26f46" fill-rule="evenodd" fill-opacity="1" stroke="#000000" stroke-opacity="1" stroke-width="0.8"/>
<circle clip-path="url(#clip602)" cx="144.671" cy="331.262" r="3" fill="#e26f46" fill-rule="evenodd" fill-opacity="1" stroke="#000000" stroke-opacity="1" stroke-width="0.8"/>
<circle clip-path="url(#clip602)" cx="149.769" cy="326.08" r="3" fill="#e26f46" fill-rule="evenodd" fill-opacity="1" stroke="#000000" stroke-opacity="1" stroke-width="0.8"/>
<circle clip-path="url(#clip602)" cx="154.867" cy="320.879" r="3" fill="#e26f46" fill-rule="evenodd" fill-opacity="1" stroke="#000000" stroke-opacity="1" stroke-width="0.8"/>
<circle clip-path="url(#clip602)" cx="159.965" cy="315.298" r="3" fill="#e26f46" fill-rule="evenodd" fill-opacity="1" stroke="#000000" stroke-opacity="1" stroke-width="0.8"/>
<circle clip-path="url(#clip602)" cx="165.063" cy="310.487" r="3" fill="#e26f46" fill-rule="evenodd" fill-opacity="1" stroke="#000000" stroke-opacity="1" stroke-width="0.8"/>
<circle clip-path="url(#clip602)" cx="170.161" cy="305.988" r="3" fill="#e26f46" fill-rule="evenodd" fill-opacity="1" stroke="#000000" stroke-opacity="1" stroke-width="0.8"/>
<circle clip-path="url(#clip602)" cx="175.259" cy="300.148" r="3" fill="#e26f46" fill-rule="evenodd" fill-opacity="1" stroke="#000000" stroke-opacity="1" stroke-width="0.8"/>
<circle clip-path="url(#clip602)" cx="180.357" cy="299.316" r="3" fill="#e26f46" fill-rule="evenodd" fill-opacity="1" stroke="#000000" stroke-opacity="1" stroke-width="0.8"/>
<circle clip-path="url(#clip602)" cx="185.454" cy="299.291" r="3" fill="#e26f46" fill-rule="evenodd" fill-opacity="1" stroke="#000000" stroke-opacity="1" stroke-width="0.8"/>
<circle clip-path="url(#clip602)" cx="190.552" cy="302.076" r="3" fill="#e26f46" fill-rule="evenodd" fill-opacity="1" stroke="#000000" stroke-opacity="1" stroke-width="0.8"/>
<circle clip-path="url(#clip602)" cx="195.65" cy="301.056" r="3" fill="#e26f46" fill-rule="evenodd" fill-opacity="1" stroke="#000000" stroke-opacity="1" stroke-width="0.8"/>
<circle clip-path="url(#clip602)" cx="200.748" cy="299.801" r="3" fill="#e26f46" fill-rule="evenodd" fill-opacity="1" stroke="#000000" stroke-opacity="1" stroke-width="0.8"/>
<circle clip-path="url(#clip602)" cx="205.846" cy="296.538" r="3" fill="#e26f46" fill-rule="evenodd" fill-opacity="1" stroke="#000000" stroke-opacity="1" stroke-width="0.8"/>
<circle clip-path="url(#clip602)" cx="210.944" cy="284.626" r="3" fill="#e26f46" fill-rule="evenodd" fill-opacity="1" stroke="#000000" stroke-opacity="1" stroke-width="0.8"/>
<circle clip-path="url(#clip602)" cx="216.042" cy="266.43" r="3" fill="#e26f46" fill-rule="evenodd" fill-opacity="1" stroke="#000000" stroke-opacity="1" stroke-width="0.8"/>
<circle clip-path="url(#clip602)" cx="221.14" cy="259.153" r="3" fill="#e26f46" fill-rule="evenodd" fill-opacity="1" stroke="#000000" stroke-opacity="1" stroke-width="0.8"/>
<circle clip-path="url(#clip602)" cx="226.238" cy="263.758" r="3" fill="#e26f46" fill-rule="evenodd" fill-opacity="1" stroke="#000000" stroke-opacity="1" stroke-width="0.8"/>
<circle clip-path="url(#clip602)" cx="231.336" cy="261.464" r="3" fill="#e26f46" fill-rule="evenodd" fill-opacity="1" stroke="#000000" stroke-opacity="1" stroke-width="0.8"/>
<circle clip-path="url(#clip602)" cx="236.434" cy="248.84" r="3" fill="#e26f46" fill-rule="evenodd" fill-opacity="1" stroke="#000000" stroke-opacity="1" stroke-width="0.8"/>
<circle clip-path="url(#clip602)" cx="241.531" cy="241.372" r="3" fill="#e26f46" fill-rule="evenodd" fill-opacity="1" stroke="#000000" stroke-opacity="1" stroke-width="0.8"/>
<circle clip-path="url(#clip602)" cx="246.629" cy="231.889" r="3" fill="#e26f46" fill-rule="evenodd" fill-opacity="1" stroke="#000000" stroke-opacity="1" stroke-width="0.8"/>
<circle clip-path="url(#clip602)" cx="251.727" cy="220.893" r="3" fill="#e26f46" fill-rule="evenodd" fill-opacity="1" stroke="#000000" stroke-opacity="1" stroke-width="0.8"/>
<circle clip-path="url(#clip602)" cx="256.825" cy="205.028" r="3" fill="#e26f46" fill-rule="evenodd" fill-opacity="1" stroke="#000000" stroke-opacity="1" stroke-width="0.8"/>
<circle clip-path="url(#clip602)" cx="261.923" cy="197.357" r="3" fill="#e26f46" fill-rule="evenodd" fill-opacity="1" stroke="#000000" stroke-opacity="1" stroke-width="0.8"/>
<circle clip-path="url(#clip602)" cx="267.021" cy="188.01" r="3" fill="#e26f46" fill-rule="evenodd" fill-opacity="1" stroke="#000000" stroke-opacity="1" stroke-width="0.8"/>
<circle clip-path="url(#clip602)" cx="272.119" cy="187.27" r="3" fill="#e26f46" fill-rule="evenodd" fill-opacity="1" stroke="#000000" stroke-opacity="1" stroke-width="0.8"/>
<circle clip-path="url(#clip602)" cx="277.217" cy="196.747" r="3" fill="#e26f46" fill-rule="evenodd" fill-opacity="1" stroke="#000000" stroke-opacity="1" stroke-width="0.8"/>
<circle clip-path="url(#clip602)" cx="282.315" cy="199.638" r="3" fill="#e26f46" fill-rule="evenodd" fill-opacity="1" stroke="#000000" stroke-opacity="1" stroke-width="0.8"/>
<circle clip-path="url(#clip602)" cx="287.413" cy="181.966" r="3" fill="#e26f46" fill-rule="evenodd" fill-opacity="1" stroke="#000000" stroke-opacity="1" stroke-width="0.8"/>
<circle clip-path="url(#clip602)" cx="292.51" cy="165.221" r="3" fill="#e26f46" fill-rule="evenodd" fill-opacity="1" stroke="#000000" stroke-opacity="1" stroke-width="0.8"/>
<circle clip-path="url(#clip602)" cx="297.608" cy="154.789" r="3" fill="#e26f46" fill-rule="evenodd" fill-opacity="1" stroke="#000000" stroke-opacity="1" stroke-width="0.8"/>
<circle clip-path="url(#clip602)" cx="302.706" cy="138.16" r="3" fill="#e26f46" fill-rule="evenodd" fill-opacity="1" stroke="#000000" stroke-opacity="1" stroke-width="0.8"/>
<circle clip-path="url(#clip602)" cx="307.804" cy="114.689" r="3" fill="#e26f46" fill-rule="evenodd" fill-opacity="1" stroke="#000000" stroke-opacity="1" stroke-width="0.8"/>
<circle clip-path="url(#clip602)" cx="312.902" cy="89.5318" r="3" fill="#e26f46" fill-rule="evenodd" fill-opacity="1" stroke="#000000" stroke-opacity="1" stroke-width="0.8"/>
<circle clip-path="url(#clip602)" cx="318" cy="79.5839" r="3" fill="#e26f46" fill-rule="evenodd" fill-opacity="1" stroke="#000000" stroke-opacity="1" stroke-width="0.8"/>
<circle clip-path="url(#clip602)" cx="323.098" cy="71.8097" r="3" fill="#e26f46" fill-rule="evenodd" fill-opacity="1" stroke="#000000" stroke-opacity="1" stroke-width="0.8"/>
<circle clip-path="url(#clip602)" cx="328.196" cy="65.1338" r="3" fill="#e26f46" fill-rule="evenodd" fill-opacity="1" stroke="#000000" stroke-opacity="1" stroke-width="0.8"/>
<circle clip-path="url(#clip602)" cx="333.294" cy="69.2736" r="3" fill="#e26f46" fill-rule="evenodd" fill-opacity="1" stroke="#000000" stroke-opacity="1" stroke-width="0.8"/>
<circle clip-path="url(#clip602)" cx="338.392" cy="72.7243" r="3" fill="#e26f46" fill-rule="evenodd" fill-opacity="1" stroke="#000000" stroke-opacity="1" stroke-width="0.8"/>
<circle clip-path="url(#clip602)" cx="343.49" cy="69.7746" r="3" fill="#e26f46" fill-rule="evenodd" fill-opacity="1" stroke="#000000" stroke-opacity="1" stroke-width="0.8"/>
<circle clip-path="url(#clip602)" cx="348.587" cy="69.2907" r="3" fill="#e26f46" fill-rule="evenodd" fill-opacity="1" stroke="#000000" stroke-opacity="1" stroke-width="0.8"/>
<circle clip-path="url(#clip602)" cx="353.685" cy="57.9737" r="3" fill="#e26f46" fill-rule="evenodd" fill-opacity="1" stroke="#000000" stroke-opacity="1" stroke-width="0.8"/>
<circle clip-path="url(#clip602)" cx="358.783" cy="41.4882" r="3" fill="#e26f46" fill-rule="evenodd" fill-opacity="1" stroke="#000000" stroke-opacity="1" stroke-width="0.8"/>
<circle clip-path="url(#clip602)" cx="363.881" cy="25.2208" r="3" fill="#e26f46" fill-rule="evenodd" fill-opacity="1" stroke="#000000" stroke-opacity="1" stroke-width="0.8"/>
<circle clip-path="url(#clip602)" cx="368.979" cy="21.8977" r="3" fill="#e26f46" fill-rule="evenodd" fill-opacity="1" stroke="#000000" stroke-opacity="1" stroke-width="0.8"/>
<circle clip-path="url(#clip602)" cx="374.077" cy="21.501" r="3" fill="#e26f46" fill-rule="evenodd" fill-opacity="1" stroke="#000000" stroke-opacity="1" stroke-width="0.8"/>
<circle clip-path="url(#clip602)" cx="379.175" cy="25.7524" r="3" fill="#e26f46" fill-rule="evenodd" fill-opacity="1" stroke="#000000" stroke-opacity="1" stroke-width="0.8"/>
<circle clip-path="url(#clip602)" cx="384.273" cy="34.4935" r="3" fill="#e26f46" fill-rule="evenodd" fill-opacity="1" stroke="#000000" stroke-opacity="1" stroke-width="0.8"/>
<circle clip-path="url(#clip602)" cx="389.371" cy="57.524" r="3" fill="#e26f46" fill-rule="evenodd" fill-opacity="1" stroke="#000000" stroke-opacity="1" stroke-width="0.8"/>
<circle clip-path="url(#clip602)" cx="394.469" cy="68.0926" r="3" fill="#e26f46" fill-rule="evenodd" fill-opacity="1" stroke="#000000" stroke-opacity="1" stroke-width="0.8"/>
<circle clip-path="url(#clip602)" cx="399.566" cy="75.5565" r="3" fill="#e26f46" fill-rule="evenodd" fill-opacity="1" stroke="#000000" stroke-opacity="1" stroke-width="0.8"/>
<circle clip-path="url(#clip602)" cx="404.664" cy="81.0068" r="3" fill="#e26f46" fill-rule="evenodd" fill-opacity="1" stroke="#000000" stroke-opacity="1" stroke-width="0.8"/>
<circle clip-path="url(#clip602)" cx="409.762" cy="82.0149" r="3" fill="#e26f46" fill-rule="evenodd" fill-opacity="1" stroke="#000000" stroke-opacity="1" stroke-width="0.8"/>
<circle clip-path="url(#clip602)" cx="414.86" cy="82.7444" r="3" fill="#e26f46" fill-rule="evenodd" fill-opacity="1" stroke="#000000" stroke-opacity="1" stroke-width="0.8"/>
<circle clip-path="url(#clip602)" cx="419.958" cy="92.0082" r="3" fill="#e26f46" fill-rule="evenodd" fill-opacity="1" stroke="#000000" stroke-opacity="1" stroke-width="0.8"/>
<circle clip-path="url(#clip602)" cx="425.056" cy="100.562" r="3" fill="#e26f46" fill-rule="evenodd" fill-opacity="1" stroke="#000000" stroke-opacity="1" stroke-width="0.8"/>
<circle clip-path="url(#clip602)" cx="430.154" cy="111.537" r="3" fill="#e26f46" fill-rule="evenodd" fill-opacity="1" stroke="#000000" stroke-opacity="1" stroke-width="0.8"/>
<circle clip-path="url(#clip602)" cx="435.252" cy="124.757" r="3" fill="#e26f46" fill-rule="evenodd" fill-opacity="1" stroke="#000000" stroke-opacity="1" stroke-width="0.8"/>
<circle clip-path="url(#clip602)" cx="440.35" cy="129.561" r="3" fill="#e26f46" fill-rule="evenodd" fill-opacity="1" stroke="#000000" stroke-opacity="1" stroke-width="0.8"/>
<circle clip-path="url(#clip602)" cx="445.448" cy="142.458" r="3" fill="#e26f46" fill-rule="evenodd" fill-opacity="1" stroke="#000000" stroke-opacity="1" stroke-width="0.8"/>
<circle clip-path="url(#clip602)" cx="450.546" cy="155.574" r="3" fill="#e26f46" fill-rule="evenodd" fill-opacity="1" stroke="#000000" stroke-opacity="1" stroke-width="0.8"/>
<circle clip-path="url(#clip602)" cx="455.643" cy="170.163" r="3" fill="#e26f46" fill-rule="evenodd" fill-opacity="1" stroke="#000000" stroke-opacity="1" stroke-width="0.8"/>
<circle clip-path="url(#clip602)" cx="460.741" cy="192.834" r="3" fill="#e26f46" fill-rule="evenodd" fill-opacity="1" stroke="#000000" stroke-opacity="1" stroke-width="0.8"/>
<circle clip-path="url(#clip602)" cx="465.839" cy="209.362" r="3" fill="#e26f46" fill-rule="evenodd" fill-opacity="1" stroke="#000000" stroke-opacity="1" stroke-width="0.8"/>
<circle clip-path="url(#clip602)" cx="470.937" cy="222.256" r="3" fill="#e26f46" fill-rule="evenodd" fill-opacity="1" stroke="#000000" stroke-opacity="1" stroke-width="0.8"/>
<circle clip-path="url(#clip602)" cx="476.035" cy="224.586" r="3" fill="#e26f46" fill-rule="evenodd" fill-opacity="1" stroke="#000000" stroke-opacity="1" stroke-width="0.8"/>
<circle clip-path="url(#clip602)" cx="481.133" cy="220.231" r="3" fill="#e26f46" fill-rule="evenodd" fill-opacity="1" stroke="#000000" stroke-opacity="1" stroke-width="0.8"/>
<circle clip-path="url(#clip602)" cx="486.231" cy="222.215" r="3" fill="#e26f46" fill-rule="evenodd" fill-opacity="1" stroke="#000000" stroke-opacity="1" stroke-width="0.8"/>
<circle clip-path="url(#clip602)" cx="491.329" cy="217.515" r="3" fill="#e26f46" fill-rule="evenodd" fill-opacity="1" stroke="#000000" stroke-opacity="1" stroke-width="0.8"/>
<circle clip-path="url(#clip602)" cx="496.427" cy="220.212" r="3" fill="#e26f46" fill-rule="evenodd" fill-opacity="1" stroke="#000000" stroke-opacity="1" stroke-width="0.8"/>
<circle clip-path="url(#clip602)" cx="501.525" cy="242.545" r="3" fill="#e26f46" fill-rule="evenodd" fill-opacity="1" stroke="#000000" stroke-opacity="1" stroke-width="0.8"/>
<circle clip-path="url(#clip602)" cx="506.622" cy="267.58" r="3" fill="#e26f46" fill-rule="evenodd" fill-opacity="1" stroke="#000000" stroke-opacity="1" stroke-width="0.8"/>
<circle clip-path="url(#clip602)" cx="511.72" cy="294.398" r="3" fill="#e26f46" fill-rule="evenodd" fill-opacity="1" stroke="#000000" stroke-opacity="1" stroke-width="0.8"/>
<circle clip-path="url(#clip602)" cx="516.818" cy="327.023" r="3" fill="#e26f46" fill-rule="evenodd" fill-opacity="1" stroke="#000000" stroke-opacity="1" stroke-width="0.8"/>
<circle clip-path="url(#clip602)" cx="521.916" cy="344.22" r="3" fill="#e26f46" fill-rule="evenodd" fill-opacity="1" stroke="#000000" stroke-opacity="1" stroke-width="0.8"/>
<path clip-path="url(#clip600)" d="
M65.8236 68.5836 L291.478 68.5836 L291.478 23.2236 L65.8236 23.2236  Z
  " fill="#ffffff" fill-rule="evenodd" fill-opacity="1"/>
<polyline clip-path="url(#clip600)" style="stroke:#000000; stroke-width:1; stroke-opacity:1; fill:none" points="
  65.8236,68.5836 291.478,68.5836 291.478,23.2236 65.8236,23.2236 65.8236,68.5836 
  "/>
<polyline clip-path="url(#clip600)" style="stroke:#009af9; stroke-width:1; stroke-opacity:1; fill:none" points="
  71.8278,38.3436 107.853,38.3436 
  "/>
<path clip-path="url(#clip600)" d="M 0 0 M115.709 34.3419 L115.709 36.1822 L117.902 36.1822 L117.902 37.0097 L115.709 37.0097 L115.709 40.5282 Q115.709 41.321 115.923 41.5467 Q116.143 41.7724 116.809 41.7724 L117.902 41.7724 L117.902 42.6636 L116.809 42.6636 Q115.576 42.6636 115.107 42.2064 Q114.638 41.7435 114.638 40.5282 L114.638 37.0097 L113.857 37.0097 L113.857 36.1822 L114.638 36.1822 L114.638 34.3419 L115.709 34.3419 Z" fill="#000000" fill-rule="evenodd" fill-opacity="1" /><path clip-path="url(#clip600)" d="M 0 0 M124.407 38.7516 L124.407 42.6636 L123.342 42.6636 L123.342 38.7863 Q123.342 37.8662 122.983 37.409 Q122.625 36.9518 121.907 36.9518 Q121.045 36.9518 120.547 37.5016 Q120.049 38.0514 120.049 39.0004 L120.049 42.6636 L118.979 42.6636 L118.979 33.659 L120.049 33.659 L120.049 37.1891 Q120.431 36.6046 120.946 36.3153 Q121.467 36.0259 122.144 36.0259 Q123.261 36.0259 123.834 36.7204 Q124.407 37.409 124.407 38.7516 Z" fill="#000000" fill-rule="evenodd" fill-opacity="1" /><path clip-path="url(#clip600)" d="M 0 0 M131.068 39.1567 L131.068 39.6775 L126.172 39.6775 Q126.241 40.7771 126.832 41.3558 Q127.428 41.9287 128.487 41.9287 Q129.1 41.9287 129.673 41.7782 Q130.252 41.6277 130.819 41.3268 L130.819 42.3338 Q130.246 42.5768 129.644 42.7041 Q129.042 42.8314 128.423 42.8314 Q126.872 42.8314 125.964 41.9287 Q125.061 41.0259 125.061 39.4866 Q125.061 37.8951 125.917 36.9634 Q126.78 36.0259 128.238 36.0259 Q129.546 36.0259 130.304 36.8708 Q131.068 37.7099 131.068 39.1567 M130.003 38.8442 Q129.991 37.9704 129.511 37.4495 Q129.037 36.9287 128.25 36.9287 Q127.358 36.9287 126.82 37.4322 Q126.288 37.9356 126.207 38.85 L130.003 38.8442 Z" fill="#000000" fill-rule="evenodd" fill-opacity="1" /><path clip-path="url(#clip600)" d="M 0 0 M134.696 36.9287 Q133.84 36.9287 133.342 37.6 Q132.844 38.2655 132.844 39.4287 Q132.844 40.5919 133.336 41.2632 Q133.834 41.9287 134.696 41.9287 Q135.547 41.9287 136.045 41.2574 Q136.542 40.5861 136.542 39.4287 Q136.542 38.2771 136.045 37.6058 Q135.547 36.9287 134.696 36.9287 M134.696 36.0259 Q136.085 36.0259 136.878 36.9287 Q137.671 37.8315 137.671 39.4287 Q137.671 41.0201 136.878 41.9287 Q136.085 42.8314 134.696 42.8314 Q133.302 42.8314 132.509 41.9287 Q131.722 41.0201 131.722 39.4287 Q131.722 37.8315 132.509 36.9287 Q133.302 36.0259 134.696 36.0259 Z" fill="#000000" fill-rule="evenodd" fill-opacity="1" /><path clip-path="url(#clip600)" d="M 0 0 M142.543 37.1775 Q142.364 37.0734 142.15 37.0271 Q141.942 36.975 141.687 36.975 Q140.784 36.975 140.298 37.5653 Q139.818 38.1498 139.818 39.2493 L139.818 42.6636 L138.747 42.6636 L138.747 36.1822 L139.818 36.1822 L139.818 37.1891 Q140.153 36.5988 140.692 36.3153 Q141.23 36.0259 141.999 36.0259 Q142.109 36.0259 142.242 36.0433 Q142.376 36.0549 142.538 36.0838 L142.543 37.1775 Z" fill="#000000" fill-rule="evenodd" fill-opacity="1" /><path clip-path="url(#clip600)" d="M 0 0 M148.944 39.1567 L148.944 39.6775 L144.048 39.6775 Q144.117 40.7771 144.708 41.3558 Q145.304 41.9287 146.363 41.9287 Q146.976 41.9287 147.549 41.7782 Q148.128 41.6277 148.695 41.3268 L148.695 42.3338 Q148.122 42.5768 147.52 42.7041 Q146.918 42.8314 146.299 42.8314 Q144.748 42.8314 143.84 41.9287 Q142.937 41.0259 142.937 39.4866 Q142.937 37.8951 143.793 36.9634 Q144.656 36.0259 146.114 36.0259 Q147.422 36.0259 148.18 36.8708 Q148.944 37.7099 148.944 39.1567 M147.879 38.8442 Q147.867 37.9704 147.387 37.4495 Q146.913 36.9287 146.126 36.9287 Q145.234 36.9287 144.696 37.4322 Q144.164 37.9356 144.083 38.85 L147.879 38.8442 Z" fill="#000000" fill-rule="evenodd" fill-opacity="1" /><path clip-path="url(#clip600)" d="M 0 0 M151.114 34.3419 L151.114 36.1822 L153.307 36.1822 L153.307 37.0097 L151.114 37.0097 L151.114 40.5282 Q151.114 41.321 151.328 41.5467 Q151.548 41.7724 152.213 41.7724 L153.307 41.7724 L153.307 42.6636 L152.213 42.6636 Q150.981 42.6636 150.512 42.2064 Q150.043 41.7435 150.043 40.5282 L150.043 37.0097 L149.262 37.0097 L149.262 36.1822 L150.043 36.1822 L150.043 34.3419 L151.114 34.3419 Z" fill="#000000" fill-rule="evenodd" fill-opacity="1" /><path clip-path="url(#clip600)" d="M 0 0 M154.424 36.1822 L155.489 36.1822 L155.489 42.6636 L154.424 42.6636 L154.424 36.1822 M154.424 33.659 L155.489 33.659 L155.489 35.0074 L154.424 35.0074 L154.424 33.659 Z" fill="#000000" fill-rule="evenodd" fill-opacity="1" /><path clip-path="url(#clip600)" d="M 0 0 M161.27 36.431 L161.27 37.4264 Q160.819 37.1775 160.362 37.056 Q159.91 36.9287 159.447 36.9287 Q158.411 36.9287 157.838 37.5884 Q157.266 38.2423 157.266 39.4287 Q157.266 40.615 157.838 41.2747 Q158.411 41.9287 159.447 41.9287 Q159.91 41.9287 160.362 41.8071 Q160.819 41.6798 161.27 41.431 L161.27 42.4148 Q160.825 42.6231 160.344 42.7273 Q159.87 42.8314 159.332 42.8314 Q157.867 42.8314 157.005 41.9113 Q156.143 40.9912 156.143 39.4287 Q156.143 37.843 157.011 36.9345 Q157.885 36.0259 159.401 36.0259 Q159.893 36.0259 160.362 36.1301 Q160.83 36.2285 161.27 36.431 Z" fill="#000000" fill-rule="evenodd" fill-opacity="1" /><path clip-path="url(#clip600)" d="M 0 0 M165.333 39.4055 Q164.042 39.4055 163.544 39.7007 Q163.047 39.9958 163.047 40.7076 Q163.047 41.2747 163.417 41.6104 Q163.793 41.9402 164.436 41.9402 Q165.321 41.9402 165.853 41.3152 Q166.392 40.6845 166.392 39.6428 L166.392 39.4055 L165.333 39.4055 M167.456 38.9657 L167.456 42.6636 L166.392 42.6636 L166.392 41.6798 Q166.027 42.2701 165.483 42.5537 Q164.939 42.8314 164.152 42.8314 Q163.157 42.8314 162.566 42.2759 Q161.982 41.7146 161.982 40.7771 Q161.982 39.6833 162.711 39.1278 Q163.446 38.5722 164.899 38.5722 L166.392 38.5722 L166.392 38.468 Q166.392 37.7331 165.906 37.3338 Q165.425 36.9287 164.551 36.9287 Q163.996 36.9287 163.469 37.0618 Q162.943 37.1949 162.456 37.4611 L162.456 36.4773 Q163.041 36.2516 163.591 36.1417 Q164.141 36.0259 164.661 36.0259 Q166.068 36.0259 166.762 36.7551 Q167.456 37.4843 167.456 38.9657 Z" fill="#000000" fill-rule="evenodd" fill-opacity="1" /><path clip-path="url(#clip600)" d="M 0 0 M168.573 33.659 L169.638 33.659 L169.638 42.6636 L168.573 42.6636 L168.573 33.659 Z" fill="#000000" fill-rule="evenodd" fill-opacity="1" /><path clip-path="url(#clip600)" d="M 0 0 M174.875 41.6798 L176.785 41.6798 L176.785 35.0884 L174.708 35.5051 L174.708 34.4403 L176.774 34.0236 L177.943 34.0236 L177.943 41.6798 L179.852 41.6798 L179.852 42.6636 L174.875 42.6636 L174.875 41.6798 Z" fill="#000000" fill-rule="evenodd" fill-opacity="1" /><path clip-path="url(#clip600)" d="M 0 0 M185.101 36.3731 L185.101 37.3801 Q184.65 37.1486 184.164 37.0329 Q183.677 36.9171 183.157 36.9171 Q182.364 36.9171 181.964 37.1602 Q181.571 37.4032 181.571 37.8893 Q181.571 38.2597 181.855 38.4738 Q182.138 38.6822 182.995 38.8731 L183.359 38.9542 Q184.493 39.1972 184.968 39.6428 Q185.448 40.0826 185.448 40.8754 Q185.448 41.7782 184.731 42.3048 Q184.019 42.8314 182.769 42.8314 Q182.248 42.8314 181.681 42.7273 Q181.12 42.6289 180.495 42.4264 L180.495 41.3268 Q181.085 41.6335 181.658 41.7898 Q182.231 41.9402 182.792 41.9402 Q183.544 41.9402 183.949 41.6856 Q184.355 41.4252 184.355 40.9565 Q184.355 40.5224 184.059 40.2909 Q183.77 40.0595 182.78 39.8454 L182.41 39.7585 Q181.421 39.5502 180.981 39.122 Q180.541 38.6879 180.541 37.9356 Q180.541 37.0213 181.189 36.5236 Q181.837 36.0259 183.029 36.0259 Q183.62 36.0259 184.14 36.1127 Q184.661 36.1995 185.101 36.3731 Z" fill="#000000" fill-rule="evenodd" fill-opacity="1" /><path clip-path="url(#clip600)" d="M 0 0 M187.618 34.3419 L187.618 36.1822 L189.812 36.1822 L189.812 37.0097 L187.618 37.0097 L187.618 40.5282 Q187.618 41.321 187.833 41.5467 Q188.052 41.7724 188.718 41.7724 L189.812 41.7724 L189.812 42.6636 L188.718 42.6636 Q187.485 42.6636 187.017 42.2064 Q186.548 41.7435 186.548 40.5282 L186.548 37.0097 L185.767 37.0097 L185.767 36.1822 L186.548 36.1822 L186.548 34.3419 L187.618 34.3419 Z" fill="#000000" fill-rule="evenodd" fill-opacity="1" /><path clip-path="url(#clip600)" d="M 0 0 M197.207 36.9287 Q196.351 36.9287 195.853 37.6 Q195.356 38.2655 195.356 39.4287 Q195.356 40.5919 195.848 41.2632 Q196.345 41.9287 197.207 41.9287 Q198.058 41.9287 198.556 41.2574 Q199.054 40.5861 199.054 39.4287 Q199.054 38.2771 198.556 37.6058 Q198.058 36.9287 197.207 36.9287 M197.207 36.0259 Q198.596 36.0259 199.389 36.9287 Q200.182 37.8315 200.182 39.4287 Q200.182 41.0201 199.389 41.9287 Q198.596 42.8314 197.207 42.8314 Q195.813 42.8314 195.02 41.9287 Q194.233 41.0201 194.233 39.4287 Q194.233 37.8315 195.02 36.9287 Q195.813 36.0259 197.207 36.0259 Z" fill="#000000" fill-rule="evenodd" fill-opacity="1" /><path clip-path="url(#clip600)" d="M 0 0 M205.055 37.1775 Q204.875 37.0734 204.661 37.0271 Q204.453 36.975 204.198 36.975 Q203.295 36.975 202.809 37.5653 Q202.329 38.1498 202.329 39.2493 L202.329 42.6636 L201.258 42.6636 L201.258 36.1822 L202.329 36.1822 L202.329 37.1891 Q202.665 36.5988 203.203 36.3153 Q203.741 36.0259 204.511 36.0259 Q204.621 36.0259 204.754 36.0433 Q204.887 36.0549 205.049 36.0838 L205.055 37.1775 Z" fill="#000000" fill-rule="evenodd" fill-opacity="1" /><path clip-path="url(#clip600)" d="M 0 0 M210.228 37.166 L210.228 33.659 L211.293 33.659 L211.293 42.6636 L210.228 42.6636 L210.228 41.6914 Q209.893 42.2701 209.378 42.5537 Q208.868 42.8314 208.151 42.8314 Q206.976 42.8314 206.235 41.894 Q205.5 40.9565 205.5 39.4287 Q205.5 37.9009 206.235 36.9634 Q206.976 36.0259 208.151 36.0259 Q208.868 36.0259 209.378 36.3095 Q209.893 36.5873 210.228 37.166 M206.6 39.4287 Q206.6 40.6034 207.08 41.2747 Q207.566 41.9402 208.411 41.9402 Q209.256 41.9402 209.742 41.2747 Q210.228 40.6034 210.228 39.4287 Q210.228 38.2539 209.742 37.5884 Q209.256 36.9171 208.411 36.9171 Q207.566 36.9171 207.08 37.5884 Q206.6 38.2539 206.6 39.4287 Z" fill="#000000" fill-rule="evenodd" fill-opacity="1" /><path clip-path="url(#clip600)" d="M 0 0 M217.954 39.1567 L217.954 39.6775 L213.058 39.6775 Q213.128 40.7771 213.718 41.3558 Q214.314 41.9287 215.373 41.9287 Q215.986 41.9287 216.559 41.7782 Q217.138 41.6277 217.705 41.3268 L217.705 42.3338 Q217.132 42.5768 216.53 42.7041 Q215.928 42.8314 215.309 42.8314 Q213.758 42.8314 212.85 41.9287 Q211.947 41.0259 211.947 39.4866 Q211.947 37.8951 212.803 36.9634 Q213.666 36.0259 215.124 36.0259 Q216.432 36.0259 217.19 36.8708 Q217.954 37.7099 217.954 39.1567 M216.889 38.8442 Q216.877 37.9704 216.397 37.4495 Q215.923 36.9287 215.136 36.9287 Q214.244 36.9287 213.706 37.4322 Q213.174 37.9356 213.093 38.85 L216.889 38.8442 Z" fill="#000000" fill-rule="evenodd" fill-opacity="1" /><path clip-path="url(#clip600)" d="M 0 0 M222.827 37.1775 Q222.647 37.0734 222.433 37.0271 Q222.225 36.975 221.97 36.975 Q221.067 36.975 220.581 37.5653 Q220.101 38.1498 220.101 39.2493 L220.101 42.6636 L219.03 42.6636 L219.03 36.1822 L220.101 36.1822 L220.101 37.1891 Q220.437 36.5988 220.975 36.3153 Q221.513 36.0259 222.283 36.0259 Q222.393 36.0259 222.526 36.0433 Q222.659 36.0549 222.821 36.0838 L222.827 37.1775 Z" fill="#000000" fill-rule="evenodd" fill-opacity="1" /><path clip-path="url(#clip600)" d="M 0 0 M231.976 37.166 L231.976 33.659 L233.041 33.659 L233.041 42.6636 L231.976 42.6636 L231.976 41.6914 Q231.64 42.2701 231.125 42.5537 Q230.616 42.8314 229.898 42.8314 Q228.724 42.8314 227.983 41.894 Q227.248 40.9565 227.248 39.4287 Q227.248 37.9009 227.983 36.9634 Q228.724 36.0259 229.898 36.0259 Q230.616 36.0259 231.125 36.3095 Q231.64 36.5873 231.976 37.166 M228.347 39.4287 Q228.347 40.6034 228.828 41.2747 Q229.314 41.9402 230.159 41.9402 Q231.004 41.9402 231.49 41.2747 Q231.976 40.6034 231.976 39.4287 Q231.976 38.2539 231.49 37.5884 Q231.004 36.9171 230.159 36.9171 Q229.314 36.9171 228.828 37.5884 Q228.347 38.2539 228.347 39.4287 Z" fill="#000000" fill-rule="evenodd" fill-opacity="1" /><path clip-path="url(#clip600)" d="M 0 0 M239.701 39.1567 L239.701 39.6775 L234.806 39.6775 Q234.875 40.7771 235.465 41.3558 Q236.061 41.9287 237.12 41.9287 Q237.734 41.9287 238.307 41.7782 Q238.885 41.6277 239.453 41.3268 L239.453 42.3338 Q238.88 42.5768 238.278 42.7041 Q237.676 42.8314 237.057 42.8314 Q235.506 42.8314 234.597 41.9287 Q233.695 41.0259 233.695 39.4866 Q233.695 37.8951 234.551 36.9634 Q235.413 36.0259 236.872 36.0259 Q238.179 36.0259 238.938 36.8708 Q239.701 37.7099 239.701 39.1567 M238.637 38.8442 Q238.625 37.9704 238.145 37.4495 Q237.67 36.9287 236.883 36.9287 Q235.992 36.9287 235.454 37.4322 Q234.921 37.9356 234.84 38.85 L238.637 38.8442 Z" fill="#000000" fill-rule="evenodd" fill-opacity="1" /><path clip-path="url(#clip600)" d="M 0 0 M244.574 37.1775 Q244.395 37.0734 244.181 37.0271 Q243.972 36.975 243.718 36.975 Q242.815 36.975 242.329 37.5653 Q241.848 38.1498 241.848 39.2493 L241.848 42.6636 L240.778 42.6636 L240.778 36.1822 L241.848 36.1822 L241.848 37.1891 Q242.184 36.5988 242.722 36.3153 Q243.26 36.0259 244.03 36.0259 Q244.14 36.0259 244.273 36.0433 Q244.406 36.0549 244.568 36.0838 L244.574 37.1775 Z" fill="#000000" fill-rule="evenodd" fill-opacity="1" /><path clip-path="url(#clip600)" d="M 0 0 M245.691 36.1822 L246.756 36.1822 L246.756 42.6636 L245.691 42.6636 L245.691 36.1822 M245.691 33.659 L246.756 33.659 L246.756 35.0074 L245.691 35.0074 L245.691 33.659 Z" fill="#000000" fill-rule="evenodd" fill-opacity="1" /><path clip-path="url(#clip600)" d="M 0 0 M247.109 36.1822 L248.237 36.1822 L250.263 41.622 L252.288 36.1822 L253.417 36.1822 L250.986 42.6636 L249.539 42.6636 L247.109 36.1822 Z" fill="#000000" fill-rule="evenodd" fill-opacity="1" /><path clip-path="url(#clip600)" d="M 0 0 M257.479 39.4055 Q256.189 39.4055 255.691 39.7007 Q255.193 39.9958 255.193 40.7076 Q255.193 41.2747 255.564 41.6104 Q255.94 41.9402 256.582 41.9402 Q257.468 41.9402 258 41.3152 Q258.538 40.6845 258.538 39.6428 L258.538 39.4055 L257.479 39.4055 M259.603 38.9657 L259.603 42.6636 L258.538 42.6636 L258.538 41.6798 Q258.174 42.2701 257.63 42.5537 Q257.086 42.8314 256.299 42.8314 Q255.303 42.8314 254.713 42.2759 Q254.128 41.7146 254.128 40.7771 Q254.128 39.6833 254.858 39.1278 Q255.593 38.5722 257.045 38.5722 L258.538 38.5722 L258.538 38.468 Q258.538 37.7331 258.052 37.3338 Q257.572 36.9287 256.698 36.9287 Q256.142 36.9287 255.616 37.0618 Q255.089 37.1949 254.603 37.4611 L254.603 36.4773 Q255.187 36.2516 255.737 36.1417 Q256.287 36.0259 256.808 36.0259 Q258.214 36.0259 258.909 36.7551 Q259.603 37.4843 259.603 38.9657 Z" fill="#000000" fill-rule="evenodd" fill-opacity="1" /><path clip-path="url(#clip600)" d="M 0 0 M261.773 34.3419 L261.773 36.1822 L263.966 36.1822 L263.966 37.0097 L261.773 37.0097 L261.773 40.5282 Q261.773 41.321 261.987 41.5467 Q262.207 41.7724 262.873 41.7724 L263.966 41.7724 L263.966 42.6636 L262.873 42.6636 Q261.64 42.6636 261.171 42.2064 Q260.702 41.7435 260.702 40.5282 L260.702 37.0097 L259.921 37.0097 L259.921 36.1822 L260.702 36.1822 L260.702 34.3419 L261.773 34.3419 Z" fill="#000000" fill-rule="evenodd" fill-opacity="1" /><path clip-path="url(#clip600)" d="M 0 0 M265.083 36.1822 L266.148 36.1822 L266.148 42.6636 L265.083 42.6636 L265.083 36.1822 M265.083 33.659 L266.148 33.659 L266.148 35.0074 L265.083 35.0074 L265.083 33.659 Z" fill="#000000" fill-rule="evenodd" fill-opacity="1" /><path clip-path="url(#clip600)" d="M 0 0 M266.501 36.1822 L267.63 36.1822 L269.655 41.622 L271.68 36.1822 L272.809 36.1822 L270.378 42.6636 L268.932 42.6636 L266.501 36.1822 Z" fill="#000000" fill-rule="evenodd" fill-opacity="1" /><path clip-path="url(#clip600)" d="M 0 0 M279.47 39.1567 L279.47 39.6775 L274.574 39.6775 Q274.643 40.7771 275.234 41.3558 Q275.83 41.9287 276.889 41.9287 Q277.502 41.9287 278.075 41.7782 Q278.654 41.6277 279.221 41.3268 L279.221 42.3338 Q278.648 42.5768 278.046 42.7041 Q277.444 42.8314 276.825 42.8314 Q275.274 42.8314 274.366 41.9287 Q273.463 41.0259 273.463 39.4866 Q273.463 37.8951 274.319 36.9634 Q275.182 36.0259 276.64 36.0259 Q277.948 36.0259 278.706 36.8708 Q279.47 37.7099 279.47 39.1567 M278.405 38.8442 Q278.393 37.9704 277.913 37.4495 Q277.439 36.9287 276.651 36.9287 Q275.76 36.9287 275.222 37.4322 Q274.69 37.9356 274.609 38.85 L278.405 38.8442 Z" fill="#000000" fill-rule="evenodd" fill-opacity="1" /><circle clip-path="url(#clip600)" cx="89.8404" cy="53.4636" r="5" fill="#e26f46" fill-rule="evenodd" fill-opacity="1" stroke="#000000" stroke-opacity="1" stroke-width="1.28"/>
<path clip-path="url(#clip600)" d="M 0 0 M118.464 51.4931 L118.464 52.5001 Q118.012 52.2686 117.526 52.1529 Q117.04 52.0371 116.519 52.0371 Q115.726 52.0371 115.327 52.2802 Q114.934 52.5232 114.934 53.0093 Q114.934 53.3797 115.217 53.5938 Q115.501 53.8022 116.357 53.9931 L116.722 54.0742 Q117.856 54.3172 118.331 54.7628 Q118.811 55.2026 118.811 55.9954 Q118.811 56.8982 118.093 57.4248 Q117.382 57.9514 116.132 57.9514 Q115.611 57.9514 115.044 57.8473 Q114.482 57.7489 113.857 57.5464 L113.857 56.4468 Q114.447 56.7535 115.02 56.9098 Q115.593 57.0602 116.155 57.0602 Q116.907 57.0602 117.312 56.8056 Q117.717 56.5452 117.717 56.0765 Q117.717 55.6424 117.422 55.4109 Q117.133 55.1795 116.143 54.9654 L115.773 54.8785 Q114.783 54.6702 114.343 54.242 Q113.904 53.8079 113.904 53.0556 Q113.904 52.1413 114.552 51.6436 Q115.2 51.1459 116.392 51.1459 Q116.982 51.1459 117.503 51.2327 Q118.024 51.3195 118.464 51.4931 Z" fill="#000000" fill-rule="evenodd" fill-opacity="1" /><path clip-path="url(#clip600)" d="M 0 0 M124.974 52.5464 Q125.373 51.8288 125.929 51.4874 Q126.484 51.1459 127.237 51.1459 Q128.25 51.1459 128.799 51.8577 Q129.349 52.5637 129.349 53.8716 L129.349 57.7836 L128.278 57.7836 L128.278 53.9063 Q128.278 52.9746 127.949 52.5232 Q127.619 52.0718 126.942 52.0718 Q126.114 52.0718 125.634 52.6216 Q125.153 53.1714 125.153 54.1204 L125.153 57.7836 L124.083 57.7836 L124.083 53.9063 Q124.083 52.9688 123.753 52.5232 Q123.423 52.0718 122.734 52.0718 Q121.919 52.0718 121.438 52.6274 Q120.958 53.1772 120.958 54.1204 L120.958 57.7836 L119.887 57.7836 L119.887 51.3022 L120.958 51.3022 L120.958 52.3091 Q121.322 51.7131 121.832 51.4295 Q122.341 51.1459 123.041 51.1459 Q123.747 51.1459 124.239 51.5047 Q124.737 51.8635 124.974 52.5464 Z" fill="#000000" fill-rule="evenodd" fill-opacity="1" /><path clip-path="url(#clip600)" d="M 0 0 M132.977 52.0487 Q132.121 52.0487 131.623 52.72 Q131.126 53.3855 131.126 54.5487 Q131.126 55.7119 131.618 56.3832 Q132.115 57.0487 132.977 57.0487 Q133.828 57.0487 134.326 56.3774 Q134.824 55.7061 134.824 54.5487 Q134.824 53.3971 134.326 52.7258 Q133.828 52.0487 132.977 52.0487 M132.977 51.1459 Q134.366 51.1459 135.159 52.0487 Q135.952 52.9515 135.952 54.5487 Q135.952 56.1401 135.159 57.0487 Q134.366 57.9514 132.977 57.9514 Q131.583 57.9514 130.79 57.0487 Q130.003 56.1401 130.003 54.5487 Q130.003 52.9515 130.79 52.0487 Q131.583 51.1459 132.977 51.1459 Z" fill="#000000" fill-rule="evenodd" fill-opacity="1" /><path clip-path="url(#clip600)" d="M 0 0 M139.58 52.0487 Q138.724 52.0487 138.226 52.72 Q137.729 53.3855 137.729 54.5487 Q137.729 55.7119 138.221 56.3832 Q138.718 57.0487 139.58 57.0487 Q140.431 57.0487 140.929 56.3774 Q141.427 55.7061 141.427 54.5487 Q141.427 53.3971 140.929 52.7258 Q140.431 52.0487 139.58 52.0487 M139.58 51.1459 Q140.969 51.1459 141.762 52.0487 Q142.555 52.9515 142.555 54.5487 Q142.555 56.1401 141.762 57.0487 Q140.969 57.9514 139.58 57.9514 Q138.186 57.9514 137.393 57.0487 Q136.606 56.1401 136.606 54.5487 Q136.606 52.9515 137.393 52.0487 Q138.186 51.1459 139.58 51.1459 Z" fill="#000000" fill-rule="evenodd" fill-opacity="1" /><path clip-path="url(#clip600)" d="M 0 0 M144.725 49.4619 L144.725 51.3022 L146.918 51.3022 L146.918 52.1297 L144.725 52.1297 L144.725 55.6482 Q144.725 56.441 144.939 56.6667 Q145.159 56.8924 145.825 56.8924 L146.918 56.8924 L146.918 57.7836 L145.825 57.7836 Q144.592 57.7836 144.123 57.3264 Q143.655 56.8635 143.655 55.6482 L143.655 52.1297 L142.873 52.1297 L142.873 51.3022 L143.655 51.3022 L143.655 49.4619 L144.725 49.4619 Z" fill="#000000" fill-rule="evenodd" fill-opacity="1" /><path clip-path="url(#clip600)" d="M 0 0 M153.423 53.8716 L153.423 57.7836 L152.358 57.7836 L152.358 53.9063 Q152.358 52.9862 151.999 52.529 Q151.641 52.0718 150.923 52.0718 Q150.061 52.0718 149.563 52.6216 Q149.065 53.1714 149.065 54.1204 L149.065 57.7836 L147.995 57.7836 L147.995 48.779 L149.065 48.779 L149.065 52.3091 Q149.447 51.7246 149.962 51.4353 Q150.483 51.1459 151.16 51.1459 Q152.277 51.1459 152.85 51.8404 Q153.423 52.529 153.423 53.8716 Z" fill="#000000" fill-rule="evenodd" fill-opacity="1" /><path clip-path="url(#clip600)" d="M 0 0 M160.084 54.2767 L160.084 54.7975 L155.188 54.7975 Q155.257 55.8971 155.848 56.4758 Q156.444 57.0487 157.503 57.0487 Q158.116 57.0487 158.689 56.8982 Q159.268 56.7477 159.835 56.4468 L159.835 57.4538 Q159.262 57.6968 158.66 57.8241 Q158.058 57.9514 157.439 57.9514 Q155.888 57.9514 154.98 57.0487 Q154.077 56.1459 154.077 54.6066 Q154.077 53.0151 154.933 52.0834 Q155.796 51.1459 157.254 51.1459 Q158.562 51.1459 159.32 51.9908 Q160.084 52.8299 160.084 54.2767 M159.019 53.9642 Q159.007 53.0904 158.527 52.5695 Q158.053 52.0487 157.266 52.0487 Q156.374 52.0487 155.836 52.5522 Q155.304 53.0556 155.223 53.97 L159.019 53.9642 Z" fill="#000000" fill-rule="evenodd" fill-opacity="1" /><path clip-path="url(#clip600)" d="M 0 0 M165.466 52.286 L165.466 48.779 L166.531 48.779 L166.531 57.7836 L165.466 57.7836 L165.466 56.8114 Q165.13 57.3901 164.615 57.6737 Q164.106 57.9514 163.388 57.9514 Q162.213 57.9514 161.473 57.014 Q160.738 56.0765 160.738 54.5487 Q160.738 53.0209 161.473 52.0834 Q162.213 51.1459 163.388 51.1459 Q164.106 51.1459 164.615 51.4295 Q165.13 51.7073 165.466 52.286 M161.837 54.5487 Q161.837 55.7234 162.318 56.3947 Q162.804 57.0602 163.649 57.0602 Q164.494 57.0602 164.98 56.3947 Q165.466 55.7234 165.466 54.5487 Q165.466 53.3739 164.98 52.7084 Q164.494 52.0371 163.649 52.0371 Q162.804 52.0371 162.318 52.7084 Q161.837 53.3739 161.837 54.5487 Z" fill="#000000" fill-rule="evenodd" fill-opacity="1" /><path clip-path="url(#clip600)" d="M 0 0 M171.768 56.7998 L173.677 56.7998 L173.677 50.2084 L171.6 50.6251 L171.6 49.5603 L173.666 49.1436 L174.835 49.1436 L174.835 56.7998 L176.745 56.7998 L176.745 57.7836 L171.768 57.7836 L171.768 56.7998 Z" fill="#000000" fill-rule="evenodd" fill-opacity="1" /><path clip-path="url(#clip600)" d="M 0 0 M181.993 51.4931 L181.993 52.5001 Q181.542 52.2686 181.056 52.1529 Q180.57 52.0371 180.049 52.0371 Q179.256 52.0371 178.857 52.2802 Q178.463 52.5232 178.463 53.0093 Q178.463 53.3797 178.747 53.5938 Q179.03 53.8022 179.887 53.9931 L180.252 54.0742 Q181.386 54.3172 181.86 54.7628 Q182.341 55.2026 182.341 55.9954 Q182.341 56.8982 181.623 57.4248 Q180.911 57.9514 179.661 57.9514 Q179.14 57.9514 178.573 57.8473 Q178.012 57.7489 177.387 57.5464 L177.387 56.4468 Q177.977 56.7535 178.55 56.9098 Q179.123 57.0602 179.684 57.0602 Q180.437 57.0602 180.842 56.8056 Q181.247 56.5452 181.247 56.0765 Q181.247 55.6424 180.952 55.4109 Q180.662 55.1795 179.673 54.9654 L179.302 54.8785 Q178.313 54.6702 177.873 54.242 Q177.433 53.8079 177.433 53.0556 Q177.433 52.1413 178.081 51.6436 Q178.73 51.1459 179.922 51.1459 Q180.512 51.1459 181.033 51.2327 Q181.554 51.3195 181.993 51.4931 Z" fill="#000000" fill-rule="evenodd" fill-opacity="1" /><path clip-path="url(#clip600)" d="M 0 0 M184.511 49.4619 L184.511 51.3022 L186.704 51.3022 L186.704 52.1297 L184.511 52.1297 L184.511 55.6482 Q184.511 56.441 184.725 56.6667 Q184.945 56.8924 185.61 56.8924 L186.704 56.8924 L186.704 57.7836 L185.61 57.7836 Q184.378 57.7836 183.909 57.3264 Q183.44 56.8635 183.44 55.6482 L183.44 52.1297 L182.659 52.1297 L182.659 51.3022 L183.44 51.3022 L183.44 49.4619 L184.511 49.4619 Z" fill="#000000" fill-rule="evenodd" fill-opacity="1" /><path clip-path="url(#clip600)" d="M 0 0 M194.1 52.0487 Q193.243 52.0487 192.746 52.72 Q192.248 53.3855 192.248 54.5487 Q192.248 55.7119 192.74 56.3832 Q193.238 57.0487 194.1 57.0487 Q194.951 57.0487 195.448 56.3774 Q195.946 55.7061 195.946 54.5487 Q195.946 53.3971 195.448 52.7258 Q194.951 52.0487 194.1 52.0487 M194.1 51.1459 Q195.489 51.1459 196.282 52.0487 Q197.074 52.9515 197.074 54.5487 Q197.074 56.1401 196.282 57.0487 Q195.489 57.9514 194.1 57.9514 Q192.705 57.9514 191.912 57.0487 Q191.125 56.1401 191.125 54.5487 Q191.125 52.9515 191.912 52.0487 Q192.705 51.1459 194.1 51.1459 Z" fill="#000000" fill-rule="evenodd" fill-opacity="1" /><path clip-path="url(#clip600)" d="M 0 0 M201.947 52.2975 Q201.768 52.1934 201.554 52.1471 Q201.345 52.095 201.091 52.095 Q200.188 52.095 199.702 52.6853 Q199.221 53.2698 199.221 54.3693 L199.221 57.7836 L198.151 57.7836 L198.151 51.3022 L199.221 51.3022 L199.221 52.3091 Q199.557 51.7188 200.095 51.4353 Q200.633 51.1459 201.403 51.1459 Q201.513 51.1459 201.646 51.1633 Q201.779 51.1749 201.941 51.2038 L201.947 52.2975 Z" fill="#000000" fill-rule="evenodd" fill-opacity="1" /><path clip-path="url(#clip600)" d="M 0 0 M207.121 52.286 L207.121 48.779 L208.185 48.779 L208.185 57.7836 L207.121 57.7836 L207.121 56.8114 Q206.785 57.3901 206.27 57.6737 Q205.761 57.9514 205.043 57.9514 Q203.868 57.9514 203.128 57.014 Q202.393 56.0765 202.393 54.5487 Q202.393 53.0209 203.128 52.0834 Q203.868 51.1459 205.043 51.1459 Q205.761 51.1459 206.27 51.4295 Q206.785 51.7073 207.121 52.286 M203.492 54.5487 Q203.492 55.7234 203.972 56.3947 Q204.459 57.0602 205.303 57.0602 Q206.148 57.0602 206.634 56.3947 Q207.121 55.7234 207.121 54.5487 Q207.121 53.3739 206.634 52.7084 Q206.148 52.0371 205.303 52.0371 Q204.459 52.0371 203.972 52.7084 Q203.492 53.3739 203.492 54.5487 Z" fill="#000000" fill-rule="evenodd" fill-opacity="1" /><path clip-path="url(#clip600)" d="M 0 0 M214.846 54.2767 L214.846 54.7975 L209.95 54.7975 Q210.02 55.8971 210.61 56.4758 Q211.206 57.0487 212.265 57.0487 Q212.879 57.0487 213.452 56.8982 Q214.03 56.7477 214.597 56.4468 L214.597 57.4538 Q214.025 57.6968 213.423 57.8241 Q212.821 57.9514 212.202 57.9514 Q210.651 57.9514 209.742 57.0487 Q208.839 56.1459 208.839 54.6066 Q208.839 53.0151 209.696 52.0834 Q210.558 51.1459 212.016 51.1459 Q213.324 51.1459 214.082 51.9908 Q214.846 52.8299 214.846 54.2767 M213.781 53.9642 Q213.77 53.0904 213.29 52.5695 Q212.815 52.0487 212.028 52.0487 Q211.137 52.0487 210.599 52.5522 Q210.066 53.0556 209.985 53.97 L213.781 53.9642 Z" fill="#000000" fill-rule="evenodd" fill-opacity="1" /><path clip-path="url(#clip600)" d="M 0 0 M219.719 52.2975 Q219.54 52.1934 219.325 52.1471 Q219.117 52.095 218.862 52.095 Q217.96 52.095 217.474 52.6853 Q216.993 53.2698 216.993 54.3693 L216.993 57.7836 L215.923 57.7836 L215.923 51.3022 L216.993 51.3022 L216.993 52.3091 Q217.329 51.7188 217.867 51.4353 Q218.405 51.1459 219.175 51.1459 Q219.285 51.1459 219.418 51.1633 Q219.551 51.1749 219.713 51.2038 L219.719 52.2975 Z" fill="#000000" fill-rule="evenodd" fill-opacity="1" /><path clip-path="url(#clip600)" d="M 0 0 M228.868 52.286 L228.868 48.779 L229.933 48.779 L229.933 57.7836 L228.868 57.7836 L228.868 56.8114 Q228.533 57.3901 228.017 57.6737 Q227.508 57.9514 226.791 57.9514 Q225.616 57.9514 224.875 57.014 Q224.14 56.0765 224.14 54.5487 Q224.14 53.0209 224.875 52.0834 Q225.616 51.1459 226.791 51.1459 Q227.508 51.1459 228.017 51.4295 Q228.533 51.7073 228.868 52.286 M225.24 54.5487 Q225.24 55.7234 225.72 56.3947 Q226.206 57.0602 227.051 57.0602 Q227.896 57.0602 228.382 56.3947 Q228.868 55.7234 228.868 54.5487 Q228.868 53.3739 228.382 52.7084 Q227.896 52.0371 227.051 52.0371 Q226.206 52.0371 225.72 52.7084 Q225.24 53.3739 225.24 54.5487 Z" fill="#000000" fill-rule="evenodd" fill-opacity="1" /><path clip-path="url(#clip600)" d="M 0 0 M236.594 54.2767 L236.594 54.7975 L231.698 54.7975 Q231.767 55.8971 232.358 56.4758 Q232.954 57.0487 234.013 57.0487 Q234.626 57.0487 235.199 56.8982 Q235.778 56.7477 236.345 56.4468 L236.345 57.4538 Q235.772 57.6968 235.17 57.8241 Q234.568 57.9514 233.949 57.9514 Q232.398 57.9514 231.49 57.0487 Q230.587 56.1459 230.587 54.6066 Q230.587 53.0151 231.443 52.0834 Q232.306 51.1459 233.764 51.1459 Q235.072 51.1459 235.83 51.9908 Q236.594 52.8299 236.594 54.2767 M235.529 53.9642 Q235.517 53.0904 235.037 52.5695 Q234.563 52.0487 233.776 52.0487 Q232.884 52.0487 232.346 52.5522 Q231.814 53.0556 231.733 53.97 L235.529 53.9642 Z" fill="#000000" fill-rule="evenodd" fill-opacity="1" /><path clip-path="url(#clip600)" d="M 0 0 M241.466 52.2975 Q241.287 52.1934 241.073 52.1471 Q240.865 52.095 240.61 52.095 Q239.707 52.095 239.221 52.6853 Q238.741 53.2698 238.741 54.3693 L238.741 57.7836 L237.67 57.7836 L237.67 51.3022 L238.741 51.3022 L238.741 52.3091 Q239.076 51.7188 239.615 51.4353 Q240.153 51.1459 240.923 51.1459 Q241.032 51.1459 241.166 51.1633 Q241.299 51.1749 241.461 51.2038 L241.466 52.2975 Z" fill="#000000" fill-rule="evenodd" fill-opacity="1" /><path clip-path="url(#clip600)" d="M 0 0 M242.583 51.3022 L243.648 51.3022 L243.648 57.7836 L242.583 57.7836 L242.583 51.3022 M242.583 48.779 L243.648 48.779 L243.648 50.1274 L242.583 50.1274 L242.583 48.779 Z" fill="#000000" fill-rule="evenodd" fill-opacity="1" /><path clip-path="url(#clip600)" d="M 0 0 M244.001 51.3022 L245.13 51.3022 L247.155 56.742 L249.181 51.3022 L250.309 51.3022 L247.878 57.7836 L246.432 57.7836 L244.001 51.3022 Z" fill="#000000" fill-rule="evenodd" fill-opacity="1" /><path clip-path="url(#clip600)" d="M 0 0 M254.372 54.5255 Q253.081 54.5255 252.583 54.8207 Q252.086 55.1158 252.086 55.8276 Q252.086 56.3947 252.456 56.7304 Q252.832 57.0602 253.475 57.0602 Q254.36 57.0602 254.892 56.4352 Q255.431 55.8045 255.431 54.7628 L255.431 54.5255 L254.372 54.5255 M256.495 54.0857 L256.495 57.7836 L255.431 57.7836 L255.431 56.7998 Q255.066 57.3901 254.522 57.6737 Q253.978 57.9514 253.191 57.9514 Q252.196 57.9514 251.605 57.3959 Q251.021 56.8346 251.021 55.8971 Q251.021 54.8033 251.75 54.2478 Q252.485 53.6922 253.937 53.6922 L255.431 53.6922 L255.431 53.588 Q255.431 52.8531 254.944 52.4538 Q254.464 52.0487 253.59 52.0487 Q253.035 52.0487 252.508 52.1818 Q251.981 52.3149 251.495 52.5811 L251.495 51.5973 Q252.08 51.3716 252.63 51.2617 Q253.179 51.1459 253.7 51.1459 Q255.106 51.1459 255.801 51.8751 Q256.495 52.6043 256.495 54.0857 Z" fill="#000000" fill-rule="evenodd" fill-opacity="1" /><path clip-path="url(#clip600)" d="M 0 0 M258.665 49.4619 L258.665 51.3022 L260.859 51.3022 L260.859 52.1297 L258.665 52.1297 L258.665 55.6482 Q258.665 56.441 258.88 56.6667 Q259.099 56.8924 259.765 56.8924 L260.859 56.8924 L260.859 57.7836 L259.765 57.7836 Q258.532 57.7836 258.064 57.3264 Q257.595 56.8635 257.595 55.6482 L257.595 52.1297 L256.814 52.1297 L256.814 51.3022 L257.595 51.3022 L257.595 49.4619 L258.665 49.4619 Z" fill="#000000" fill-rule="evenodd" fill-opacity="1" /><path clip-path="url(#clip600)" d="M 0 0 M261.976 51.3022 L263.04 51.3022 L263.04 57.7836 L261.976 57.7836 L261.976 51.3022 M261.976 48.779 L263.04 48.779 L263.04 50.1274 L261.976 50.1274 L261.976 48.779 Z" fill="#000000" fill-rule="evenodd" fill-opacity="1" /><path clip-path="url(#clip600)" d="M 0 0 M263.393 51.3022 L264.522 51.3022 L266.547 56.742 L268.573 51.3022 L269.701 51.3022 L267.271 57.7836 L265.824 57.7836 L263.393 51.3022 Z" fill="#000000" fill-rule="evenodd" fill-opacity="1" /><path clip-path="url(#clip600)" d="M 0 0 M276.362 54.2767 L276.362 54.7975 L271.466 54.7975 Q271.536 55.8971 272.126 56.4758 Q272.722 57.0487 273.781 57.0487 Q274.395 57.0487 274.967 56.8982 Q275.546 56.7477 276.113 56.4468 L276.113 57.4538 Q275.54 57.6968 274.939 57.8241 Q274.337 57.9514 273.717 57.9514 Q272.167 57.9514 271.258 57.0487 Q270.355 56.1459 270.355 54.6066 Q270.355 53.0151 271.212 52.0834 Q272.074 51.1459 273.532 51.1459 Q274.84 51.1459 275.598 51.9908 Q276.362 52.8299 276.362 54.2767 M275.297 53.9642 Q275.286 53.0904 274.805 52.5695 Q274.331 52.0487 273.544 52.0487 Q272.653 52.0487 272.114 52.5522 Q271.582 53.0556 271.501 53.97 L275.297 53.9642 Z" fill="#000000" fill-rule="evenodd" fill-opacity="1" /></svg>
