<?xml version="1.0" encoding="utf-8"?>
<svg xmlns="http://www.w3.org/2000/svg" xmlns:xlink="http://www.w3.org/1999/xlink" width="600" height="400" viewBox="0 0 2400 1600">
<defs>
  <clipPath id="clip810">
    <rect x="0" y="0" width="2400" height="1600"/>
  </clipPath>
</defs>
<path clip-path="url(#clip810)" d="
M0 1600 L2400 1600 L2400 0 L0 0  Z
  " fill="#ffffff" fill-rule="evenodd" fill-opacity="1"/>
<defs>
  <clipPath id="clip811">
    <rect x="480" y="0" width="1681" height="1600"/>
  </clipPath>
</defs>
<path clip-path="url(#clip810)" d="
M290.526 1382.2 L2352.76 1382.2 L2352.76 47.2441 L290.526 47.2441  Z
  " fill="#ffffff" fill-rule="evenodd" fill-opacity="1"/>
<defs>
  <clipPath id="clip812">
    <rect x="290" y="47" width="2063" height="1336"/>
  </clipPath>
</defs>
<polyline clip-path="url(#clip812)" style="stroke:#000000; stroke-linecap:round; stroke-linejoin:round; stroke-width:2; stroke-opacity:0.1; fill:none" points="
  543.441,1382.2 543.441,47.2441 
  "/>
<polyline clip-path="url(#clip812)" style="stroke:#000000; stroke-linecap:round; stroke-linejoin:round; stroke-width:2; stroke-opacity:0.1; fill:none" points="
  932.541,1382.2 932.541,47.2441 
  "/>
<polyline clip-path="url(#clip812)" style="stroke:#000000; stroke-linecap:round; stroke-linejoin:round; stroke-width:2; stroke-opacity:0.1; fill:none" points="
  1321.64,1382.2 1321.64,47.2441 
  "/>
<polyline clip-path="url(#clip812)" style="stroke:#000000; stroke-linecap:round; stroke-linejoin:round; stroke-width:2; stroke-opacity:0.1; fill:none" points="
  1710.74,1382.2 1710.74,47.2441 
  "/>
<polyline clip-path="url(#clip812)" style="stroke:#000000; stroke-linecap:round; stroke-linejoin:round; stroke-width:2; stroke-opacity:0.1; fill:none" points="
  2099.84,1382.2 2099.84,47.2441 
  "/>
<polyline clip-path="url(#clip810)" style="stroke:#000000; stroke-linecap:round; stroke-linejoin:round; stroke-width:4; stroke-opacity:1; fill:none" points="
  290.526,1382.2 2352.76,1382.2 
  "/>
<polyline clip-path="url(#clip810)" style="stroke:#000000; stroke-linecap:round; stroke-linejoin:round; stroke-width:4; stroke-opacity:1; fill:none" points="
  543.441,1382.2 543.441,1363.3 
  "/>
<polyline clip-path="url(#clip810)" style="stroke:#000000; stroke-linecap:round; stroke-linejoin:round; stroke-width:4; stroke-opacity:1; fill:none" points="
  932.541,1382.2 932.541,1363.3 
  "/>
<polyline clip-path="url(#clip810)" style="stroke:#000000; stroke-linecap:round; stroke-linejoin:round; stroke-width:4; stroke-opacity:1; fill:none" points="
  1321.64,1382.2 1321.64,1363.3 
  "/>
<polyline clip-path="url(#clip810)" style="stroke:#000000; stroke-linecap:round; stroke-linejoin:round; stroke-width:4; stroke-opacity:1; fill:none" points="
  1710.74,1382.2 1710.74,1363.3 
  "/>
<polyline clip-path="url(#clip810)" style="stroke:#000000; stroke-linecap:round; stroke-linejoin:round; stroke-width:4; stroke-opacity:1; fill:none" points="
  2099.84,1382.2 2099.84,1363.3 
  "/>
<path clip-path="url(#clip810)" d="M512.342 1427.77 L542.017 1427.77 L542.017 1431.7 L512.342 1431.7 L512.342 1427.77 Z" fill="#000000" fill-rule="evenodd" fill-opacity="1" /><path clip-path="url(#clip810)" d="M564.957 1414.11 L553.152 1432.56 L564.957 1432.56 L564.957 1414.11 M563.73 1410.04 L569.61 1410.04 L569.61 1432.56 L574.54 1432.56 L574.54 1436.45 L569.61 1436.45 L569.61 1444.6 L564.957 1444.6 L564.957 1436.45 L549.355 1436.45 L549.355 1431.93 L563.73 1410.04 Z" fill="#000000" fill-rule="evenodd" fill-opacity="1" /><path clip-path="url(#clip810)" d="M902.483 1427.77 L932.159 1427.77 L932.159 1431.7 L902.483 1431.7 L902.483 1427.77 Z" fill="#000000" fill-rule="evenodd" fill-opacity="1" /><path clip-path="url(#clip810)" d="M946.279 1440.66 L962.599 1440.66 L962.599 1444.6 L940.654 1444.6 L940.654 1440.66 Q943.316 1437.91 947.9 1433.28 Q952.506 1428.62 953.687 1427.28 Q955.932 1424.76 956.812 1423.02 Q957.714 1421.26 957.714 1419.57 Q957.714 1416.82 955.77 1415.08 Q953.849 1413.35 950.747 1413.35 Q948.548 1413.35 946.094 1414.11 Q943.664 1414.87 940.886 1416.42 L940.886 1411.7 Q943.71 1410.57 946.164 1409.99 Q948.617 1409.41 950.654 1409.41 Q956.025 1409.41 959.219 1412.1 Q962.413 1414.78 962.413 1419.27 Q962.413 1421.4 961.603 1423.32 Q960.816 1425.22 958.71 1427.81 Q958.131 1428.48 955.029 1431.7 Q951.927 1434.9 946.279 1440.66 Z" fill="#000000" fill-rule="evenodd" fill-opacity="1" /><path clip-path="url(#clip810)" d="M1321.64 1413.11 Q1318.03 1413.11 1316.2 1416.68 Q1314.4 1420.22 1314.4 1427.35 Q1314.4 1434.46 1316.2 1438.02 Q1318.03 1441.56 1321.64 1441.56 Q1325.28 1441.56 1327.08 1438.02 Q1328.91 1434.46 1328.91 1427.35 Q1328.91 1420.22 1327.08 1416.68 Q1325.28 1413.11 1321.64 1413.11 M1321.64 1409.41 Q1327.45 1409.41 1330.51 1414.02 Q1333.59 1418.6 1333.59 1427.35 Q1333.59 1436.08 1330.51 1440.68 Q1327.45 1445.27 1321.64 1445.27 Q1315.83 1445.27 1312.75 1440.68 Q1309.7 1436.08 1309.7 1427.35 Q1309.7 1418.6 1312.75 1414.02 Q1315.83 1409.41 1321.64 1409.41 Z" fill="#000000" fill-rule="evenodd" fill-opacity="1" /><path clip-path="url(#clip810)" d="M1705.39 1440.66 L1721.71 1440.66 L1721.71 1444.6 L1699.77 1444.6 L1699.77 1440.66 Q1702.43 1437.91 1707.01 1433.28 Q1711.62 1428.62 1712.8 1427.28 Q1715.05 1424.76 1715.93 1423.02 Q1716.83 1421.26 1716.83 1419.57 Q1716.83 1416.82 1714.88 1415.08 Q1712.96 1413.35 1709.86 1413.35 Q1707.66 1413.35 1705.21 1414.11 Q1702.78 1414.87 1700 1416.42 L1700 1411.7 Q1702.82 1410.57 1705.28 1409.99 Q1707.73 1409.41 1709.77 1409.41 Q1715.14 1409.41 1718.33 1412.1 Q1721.53 1414.78 1721.53 1419.27 Q1721.53 1421.4 1720.72 1423.32 Q1719.93 1425.22 1717.82 1427.81 Q1717.25 1428.48 1714.14 1431.7 Q1711.04 1434.9 1705.39 1440.66 Z" fill="#000000" fill-rule="evenodd" fill-opacity="1" /><path clip-path="url(#clip810)" d="M2102.85 1414.11 L2091.04 1432.56 L2102.85 1432.56 L2102.85 1414.11 M2101.62 1410.04 L2107.5 1410.04 L2107.5 1432.56 L2112.43 1432.56 L2112.43 1436.45 L2107.5 1436.45 L2107.5 1444.6 L2102.85 1444.6 L2102.85 1436.45 L2087.25 1436.45 L2087.25 1431.93 L2101.62 1410.04 Z" fill="#000000" fill-rule="evenodd" fill-opacity="1" /><polyline clip-path="url(#clip812)" style="stroke:#000000; stroke-linecap:round; stroke-linejoin:round; stroke-width:2; stroke-opacity:0.1; fill:none" points="
  290.526,1339.07 2352.76,1339.07 
  "/>
<polyline clip-path="url(#clip812)" style="stroke:#000000; stroke-linecap:round; stroke-linejoin:round; stroke-width:2; stroke-opacity:0.1; fill:none" points="
  290.526,1088.24 2352.76,1088.24 
  "/>
<polyline clip-path="url(#clip812)" style="stroke:#000000; stroke-linecap:round; stroke-linejoin:round; stroke-width:2; stroke-opacity:0.1; fill:none" points="
  290.526,837.407 2352.76,837.407 
  "/>
<polyline clip-path="url(#clip812)" style="stroke:#000000; stroke-linecap:round; stroke-linejoin:round; stroke-width:2; stroke-opacity:0.1; fill:none" points="
  290.526,586.574 2352.76,586.574 
  "/>
<polyline clip-path="url(#clip812)" style="stroke:#000000; stroke-linecap:round; stroke-linejoin:round; stroke-width:2; stroke-opacity:0.1; fill:none" points="
  290.526,335.742 2352.76,335.742 
  "/>
<polyline clip-path="url(#clip812)" style="stroke:#000000; stroke-linecap:round; stroke-linejoin:round; stroke-width:2; stroke-opacity:0.1; fill:none" points="
  290.526,84.9097 2352.76,84.9097 
  "/>
<polyline clip-path="url(#clip810)" style="stroke:#000000; stroke-linecap:round; stroke-linejoin:round; stroke-width:4; stroke-opacity:1; fill:none" points="
  290.526,1382.2 290.526,47.2441 
  "/>
<polyline clip-path="url(#clip810)" style="stroke:#000000; stroke-linecap:round; stroke-linejoin:round; stroke-width:4; stroke-opacity:1; fill:none" points="
  290.526,1339.07 309.424,1339.07 
  "/>
<polyline clip-path="url(#clip810)" style="stroke:#000000; stroke-linecap:round; stroke-linejoin:round; stroke-width:4; stroke-opacity:1; fill:none" points="
  290.526,1088.24 309.424,1088.24 
  "/>
<polyline clip-path="url(#clip810)" style="stroke:#000000; stroke-linecap:round; stroke-linejoin:round; stroke-width:4; stroke-opacity:1; fill:none" points="
  290.526,837.407 309.424,837.407 
  "/>
<polyline clip-path="url(#clip810)" style="stroke:#000000; stroke-linecap:round; stroke-linejoin:round; stroke-width:4; stroke-opacity:1; fill:none" points="
  290.526,586.574 309.424,586.574 
  "/>
<polyline clip-path="url(#clip810)" style="stroke:#000000; stroke-linecap:round; stroke-linejoin:round; stroke-width:4; stroke-opacity:1; fill:none" points="
  290.526,335.742 309.424,335.742 
  "/>
<polyline clip-path="url(#clip810)" style="stroke:#000000; stroke-linecap:round; stroke-linejoin:round; stroke-width:4; stroke-opacity:1; fill:none" points="
  290.526,84.9097 309.424,84.9097 
  "/>
<path clip-path="url(#clip810)" d="M167.188 1324.87 Q163.577 1324.87 161.749 1328.43 Q159.943 1331.98 159.943 1339.11 Q159.943 1346.21 161.749 1349.78 Q163.577 1353.32 167.188 1353.32 Q170.823 1353.32 172.628 1349.78 Q174.457 1346.21 174.457 1339.11 Q174.457 1331.98 172.628 1328.43 Q170.823 1324.87 167.188 1324.87 M167.188 1321.17 Q172.999 1321.17 176.054 1325.77 Q179.133 1330.36 179.133 1339.11 Q179.133 1347.83 176.054 1352.44 Q172.999 1357.02 167.188 1357.02 Q161.378 1357.02 158.3 1352.44 Q155.244 1347.83 155.244 1339.11 Q155.244 1330.36 158.3 1325.77 Q161.378 1321.17 167.188 1321.17 Z" fill="#000000" fill-rule="evenodd" fill-opacity="1" /><path clip-path="url(#clip810)" d="M187.35 1350.47 L192.235 1350.47 L192.235 1356.35 L187.35 1356.35 L187.35 1350.47 Z" fill="#000000" fill-rule="evenodd" fill-opacity="1" /><path clip-path="url(#clip810)" d="M212.42 1324.87 Q208.809 1324.87 206.98 1328.43 Q205.174 1331.98 205.174 1339.11 Q205.174 1346.21 206.98 1349.78 Q208.809 1353.32 212.42 1353.32 Q216.054 1353.32 217.859 1349.78 Q219.688 1346.21 219.688 1339.11 Q219.688 1331.98 217.859 1328.43 Q216.054 1324.87 212.42 1324.87 M212.42 1321.17 Q218.23 1321.17 221.285 1325.77 Q224.364 1330.36 224.364 1339.11 Q224.364 1347.83 221.285 1352.44 Q218.23 1357.02 212.42 1357.02 Q206.61 1357.02 203.531 1352.44 Q200.475 1347.83 200.475 1339.11 Q200.475 1330.36 203.531 1325.77 Q206.61 1321.17 212.42 1321.17 Z" fill="#000000" fill-rule="evenodd" fill-opacity="1" /><path clip-path="url(#clip810)" d="M242.582 1324.87 Q238.97 1324.87 237.142 1328.43 Q235.336 1331.98 235.336 1339.11 Q235.336 1346.21 237.142 1349.78 Q238.97 1353.32 242.582 1353.32 Q246.216 1353.32 248.021 1349.78 Q249.85 1346.21 249.85 1339.11 Q249.85 1331.98 248.021 1328.43 Q246.216 1324.87 242.582 1324.87 M242.582 1321.17 Q248.392 1321.17 251.447 1325.77 Q254.526 1330.36 254.526 1339.11 Q254.526 1347.83 251.447 1352.44 Q248.392 1357.02 242.582 1357.02 Q236.771 1357.02 233.693 1352.44 Q230.637 1347.83 230.637 1339.11 Q230.637 1330.36 233.693 1325.77 Q236.771 1321.17 242.582 1321.17 Z" fill="#000000" fill-rule="evenodd" fill-opacity="1" /><path clip-path="url(#clip810)" d="M168.184 1074.04 Q164.573 1074.04 162.744 1077.6 Q160.939 1081.14 160.939 1088.27 Q160.939 1095.38 162.744 1098.94 Q164.573 1102.49 168.184 1102.49 Q171.818 1102.49 173.624 1098.94 Q175.452 1095.38 175.452 1088.27 Q175.452 1081.14 173.624 1077.6 Q171.818 1074.04 168.184 1074.04 M168.184 1070.33 Q173.994 1070.33 177.05 1074.94 Q180.128 1079.52 180.128 1088.27 Q180.128 1097 177.05 1101.61 Q173.994 1106.19 168.184 1106.19 Q162.374 1106.19 159.295 1101.61 Q156.239 1097 156.239 1088.27 Q156.239 1079.52 159.295 1074.94 Q162.374 1070.33 168.184 1070.33 Z" fill="#000000" fill-rule="evenodd" fill-opacity="1" /><path clip-path="url(#clip810)" d="M188.346 1099.64 L193.23 1099.64 L193.23 1105.52 L188.346 1105.52 L188.346 1099.64 Z" fill="#000000" fill-rule="evenodd" fill-opacity="1" /><path clip-path="url(#clip810)" d="M213.415 1074.04 Q209.804 1074.04 207.975 1077.6 Q206.17 1081.14 206.17 1088.27 Q206.17 1095.38 207.975 1098.94 Q209.804 1102.49 213.415 1102.49 Q217.049 1102.49 218.855 1098.94 Q220.684 1095.38 220.684 1088.27 Q220.684 1081.14 218.855 1077.6 Q217.049 1074.04 213.415 1074.04 M213.415 1070.33 Q219.225 1070.33 222.281 1074.94 Q225.359 1079.52 225.359 1088.27 Q225.359 1097 222.281 1101.61 Q219.225 1106.19 213.415 1106.19 Q207.605 1106.19 204.526 1101.61 Q201.471 1097 201.471 1088.27 Q201.471 1079.52 204.526 1074.94 Q207.605 1070.33 213.415 1070.33 Z" fill="#000000" fill-rule="evenodd" fill-opacity="1" /><path clip-path="url(#clip810)" d="M233.623 1070.96 L251.98 1070.96 L251.98 1074.89 L237.906 1074.89 L237.906 1083.37 Q238.924 1083.02 239.943 1082.86 Q240.961 1082.67 241.98 1082.67 Q247.767 1082.67 251.146 1085.84 Q254.526 1089.01 254.526 1094.43 Q254.526 1100.01 251.054 1103.11 Q247.582 1106.19 241.262 1106.19 Q239.086 1106.19 236.818 1105.82 Q234.572 1105.45 232.165 1104.71 L232.165 1100.01 Q234.248 1101.14 236.471 1101.7 Q238.693 1102.25 241.17 1102.25 Q245.174 1102.25 247.512 1100.15 Q249.85 1098.04 249.85 1094.43 Q249.85 1090.82 247.512 1088.71 Q245.174 1086.61 241.17 1086.61 Q239.295 1086.61 237.42 1087.02 Q235.568 1087.44 233.623 1088.32 L233.623 1070.96 Z" fill="#000000" fill-rule="evenodd" fill-opacity="1" /><path clip-path="url(#clip810)" d="M167.188 823.205 Q163.577 823.205 161.749 826.77 Q159.943 830.312 159.943 837.441 Q159.943 844.548 161.749 848.113 Q163.577 851.654 167.188 851.654 Q170.823 851.654 172.628 848.113 Q174.457 844.548 174.457 837.441 Q174.457 830.312 172.628 826.77 Q170.823 823.205 167.188 823.205 M167.188 819.502 Q172.999 819.502 176.054 824.108 Q179.133 828.691 179.133 837.441 Q179.133 846.168 176.054 850.775 Q172.999 855.358 167.188 855.358 Q161.378 855.358 158.3 850.775 Q155.244 846.168 155.244 837.441 Q155.244 828.691 158.3 824.108 Q161.378 819.502 167.188 819.502 Z" fill="#000000" fill-rule="evenodd" fill-opacity="1" /><path clip-path="url(#clip810)" d="M187.35 848.807 L192.235 848.807 L192.235 854.687 L187.35 854.687 L187.35 848.807 Z" fill="#000000" fill-rule="evenodd" fill-opacity="1" /><path clip-path="url(#clip810)" d="M203.23 850.751 L210.869 850.751 L210.869 824.386 L202.559 826.052 L202.559 821.793 L210.823 820.127 L215.498 820.127 L215.498 850.751 L223.137 850.751 L223.137 854.687 L203.23 854.687 L203.23 850.751 Z" fill="#000000" fill-rule="evenodd" fill-opacity="1" /><path clip-path="url(#clip810)" d="M242.582 823.205 Q238.97 823.205 237.142 826.77 Q235.336 830.312 235.336 837.441 Q235.336 844.548 237.142 848.113 Q238.97 851.654 242.582 851.654 Q246.216 851.654 248.021 848.113 Q249.85 844.548 249.85 837.441 Q249.85 830.312 248.021 826.77 Q246.216 823.205 242.582 823.205 M242.582 819.502 Q248.392 819.502 251.447 824.108 Q254.526 828.691 254.526 837.441 Q254.526 846.168 251.447 850.775 Q248.392 855.358 242.582 855.358 Q236.771 855.358 233.693 850.775 Q230.637 846.168 230.637 837.441 Q230.637 828.691 233.693 824.108 Q236.771 819.502 242.582 819.502 Z" fill="#000000" fill-rule="evenodd" fill-opacity="1" /><path clip-path="url(#clip810)" d="M168.184 572.373 Q164.573 572.373 162.744 575.938 Q160.939 579.479 160.939 586.609 Q160.939 593.715 162.744 597.28 Q164.573 600.822 168.184 600.822 Q171.818 600.822 173.624 597.28 Q175.452 593.715 175.452 586.609 Q175.452 579.479 173.624 575.938 Q171.818 572.373 168.184 572.373 M168.184 568.669 Q173.994 568.669 177.05 573.276 Q180.128 577.859 180.128 586.609 Q180.128 595.336 177.05 599.942 Q173.994 604.526 168.184 604.526 Q162.374 604.526 159.295 599.942 Q156.239 595.336 156.239 586.609 Q156.239 577.859 159.295 573.276 Q162.374 568.669 168.184 568.669 Z" fill="#000000" fill-rule="evenodd" fill-opacity="1" /><path clip-path="url(#clip810)" d="M188.346 597.975 L193.23 597.975 L193.23 603.854 L188.346 603.854 L188.346 597.975 Z" fill="#000000" fill-rule="evenodd" fill-opacity="1" /><path clip-path="url(#clip810)" d="M204.225 599.919 L211.864 599.919 L211.864 573.554 L203.554 575.22 L203.554 570.961 L211.818 569.294 L216.494 569.294 L216.494 599.919 L224.133 599.919 L224.133 603.854 L204.225 603.854 L204.225 599.919 Z" fill="#000000" fill-rule="evenodd" fill-opacity="1" /><path clip-path="url(#clip810)" d="M233.623 569.294 L251.98 569.294 L251.98 573.229 L237.906 573.229 L237.906 581.702 Q238.924 581.354 239.943 581.192 Q240.961 581.007 241.98 581.007 Q247.767 581.007 251.146 584.178 Q254.526 587.35 254.526 592.766 Q254.526 598.345 251.054 601.447 Q247.582 604.526 241.262 604.526 Q239.086 604.526 236.818 604.155 Q234.572 603.785 232.165 603.044 L232.165 598.345 Q234.248 599.479 236.471 600.035 Q238.693 600.59 241.17 600.59 Q245.174 600.59 247.512 598.484 Q249.85 596.377 249.85 592.766 Q249.85 589.155 247.512 587.049 Q245.174 584.942 241.17 584.942 Q239.295 584.942 237.42 585.359 Q235.568 585.776 233.623 586.655 L233.623 569.294 Z" fill="#000000" fill-rule="evenodd" fill-opacity="1" /><path clip-path="url(#clip810)" d="M167.188 321.541 Q163.577 321.541 161.749 325.106 Q159.943 328.647 159.943 335.777 Q159.943 342.883 161.749 346.448 Q163.577 349.99 167.188 349.99 Q170.823 349.99 172.628 346.448 Q174.457 342.883 174.457 335.777 Q174.457 328.647 172.628 325.106 Q170.823 321.541 167.188 321.541 M167.188 317.837 Q172.999 317.837 176.054 322.443 Q179.133 327.027 179.133 335.777 Q179.133 344.504 176.054 349.11 Q172.999 353.693 167.188 353.693 Q161.378 353.693 158.3 349.11 Q155.244 344.504 155.244 335.777 Q155.244 327.027 158.3 322.443 Q161.378 317.837 167.188 317.837 Z" fill="#000000" fill-rule="evenodd" fill-opacity="1" /><path clip-path="url(#clip810)" d="M187.35 347.142 L192.235 347.142 L192.235 353.022 L187.35 353.022 L187.35 347.142 Z" fill="#000000" fill-rule="evenodd" fill-opacity="1" /><path clip-path="url(#clip810)" d="M206.448 349.087 L222.767 349.087 L222.767 353.022 L200.823 353.022 L200.823 349.087 Q203.485 346.332 208.068 341.703 Q212.674 337.05 213.855 335.707 Q216.1 333.184 216.98 331.448 Q217.883 329.689 217.883 327.999 Q217.883 325.244 215.938 323.508 Q214.017 321.772 210.915 321.772 Q208.716 321.772 206.262 322.536 Q203.832 323.3 201.054 324.851 L201.054 320.129 Q203.878 318.994 206.332 318.416 Q208.785 317.837 210.823 317.837 Q216.193 317.837 219.387 320.522 Q222.582 323.207 222.582 327.698 Q222.582 329.828 221.772 331.749 Q220.984 333.647 218.878 336.24 Q218.299 336.911 215.197 340.129 Q212.096 343.323 206.448 349.087 Z" fill="#000000" fill-rule="evenodd" fill-opacity="1" /><path clip-path="url(#clip810)" d="M242.582 321.541 Q238.97 321.541 237.142 325.106 Q235.336 328.647 235.336 335.777 Q235.336 342.883 237.142 346.448 Q238.97 349.99 242.582 349.99 Q246.216 349.99 248.021 346.448 Q249.85 342.883 249.85 335.777 Q249.85 328.647 248.021 325.106 Q246.216 321.541 242.582 321.541 M242.582 317.837 Q248.392 317.837 251.447 322.443 Q254.526 327.027 254.526 335.777 Q254.526 344.504 251.447 349.11 Q248.392 353.693 242.582 353.693 Q236.771 353.693 233.693 349.11 Q230.637 344.504 230.637 335.777 Q230.637 327.027 233.693 322.443 Q236.771 317.837 242.582 317.837 Z" fill="#000000" fill-rule="evenodd" fill-opacity="1" /><path clip-path="url(#clip810)" d="M168.184 70.7084 Q164.573 70.7084 162.744 74.2732 Q160.939 77.8149 160.939 84.9445 Q160.939 92.0509 162.744 95.6157 Q164.573 99.1574 168.184 99.1574 Q171.818 99.1574 173.624 95.6157 Q175.452 92.0509 175.452 84.9445 Q175.452 77.8149 173.624 74.2732 Q171.818 70.7084 168.184 70.7084 M168.184 67.0047 Q173.994 67.0047 177.05 71.6112 Q180.128 76.1945 180.128 84.9445 Q180.128 93.6713 177.05 98.2777 Q173.994 102.861 168.184 102.861 Q162.374 102.861 159.295 98.2777 Q156.239 93.6713 156.239 84.9445 Q156.239 76.1945 159.295 71.6112 Q162.374 67.0047 168.184 67.0047 Z" fill="#000000" fill-rule="evenodd" fill-opacity="1" /><path clip-path="url(#clip810)" d="M188.346 96.3101 L193.23 96.3101 L193.23 102.19 L188.346 102.19 L188.346 96.3101 Z" fill="#000000" fill-rule="evenodd" fill-opacity="1" /><path clip-path="url(#clip810)" d="M207.443 98.2546 L223.762 98.2546 L223.762 102.19 L201.818 102.19 L201.818 98.2546 Q204.48 95.5 209.063 90.8704 Q213.67 86.2176 214.85 84.875 Q217.096 82.3519 217.975 80.6158 Q218.878 78.8565 218.878 77.1667 Q218.878 74.4121 216.934 72.676 Q215.012 70.9399 211.91 70.9399 Q209.711 70.9399 207.258 71.7038 Q204.827 72.4677 202.049 74.0186 L202.049 69.2964 Q204.873 68.1621 207.327 67.5834 Q209.781 67.0047 211.818 67.0047 Q217.188 67.0047 220.383 69.6899 Q223.577 72.3751 223.577 76.8658 Q223.577 78.9954 222.767 80.9167 Q221.98 82.8148 219.873 85.4074 Q219.295 86.0787 216.193 89.2963 Q213.091 92.4907 207.443 98.2546 Z" fill="#000000" fill-rule="evenodd" fill-opacity="1" /><path clip-path="url(#clip810)" d="M233.623 67.6297 L251.98 67.6297 L251.98 71.5649 L237.906 71.5649 L237.906 80.0371 Q238.924 79.6899 239.943 79.5278 Q240.961 79.3426 241.98 79.3426 Q247.767 79.3426 251.146 82.5139 Q254.526 85.6852 254.526 91.1018 Q254.526 96.6805 251.054 99.7823 Q247.582 102.861 241.262 102.861 Q239.086 102.861 236.818 102.491 Q234.572 102.12 232.165 101.38 L232.165 96.6805 Q234.248 97.8148 236.471 98.3703 Q238.693 98.9259 241.17 98.9259 Q245.174 98.9259 247.512 96.8194 Q249.85 94.7129 249.85 91.1018 Q249.85 87.4907 247.512 85.3843 Q245.174 83.2778 241.17 83.2778 Q239.295 83.2778 237.42 83.6945 Q235.568 84.1111 233.623 84.9908 L233.623 67.6297 Z" fill="#000000" fill-rule="evenodd" fill-opacity="1" /><polyline clip-path="url(#clip812)" style="stroke:#009af9; stroke-linecap:round; stroke-linejoin:round; stroke-width:4; stroke-opacity:1; fill:none" points="
  348.891,1326.7 361.557,1325.87 478.675,1315.07 513.867,1310.37 549.058,1304.76 578.812,1299.18 608.566,1292.71 640.887,1284.51 673.208,1274.91 703.006,1264.61 
  732.803,1252.71 764.749,1237.94 796.694,1220.76 815.201,1209.58 833.707,1197.41 852.213,1184.17 870.719,1169.79 887.165,1155.99 903.611,1141.17 920.057,1125.26 
  936.503,1108.22 950.925,1092.3 965.347,1075.42 979.769,1057.55 994.19,1038.65 1009.91,1016.85 1025.64,993.746 1041.36,969.322 1057.08,943.551 1072.9,916.254 
  1088.72,887.577 1104.54,857.528 1120.35,826.131 1137.84,789.897 1155.33,752.141 1172.82,712.976 1190.3,672.543 1223.58,592.771 1256.86,510.696 1291.46,425.197 
  1326.06,342.424 1340.63,309.197 1355.19,277.309 1369.75,247.025 1384.32,218.615 1402.1,186.848 1419.88,158.717 1428.77,146.148 1437.66,134.641 1446.55,124.242 
  1455.44,114.992 1463.58,107.558 1471.73,101.145 1479.87,95.7732 1488.02,91.4625 1496.16,88.2275 1504.3,86.0794 1512.45,85.0257 1520.59,85.0702 1528.11,86.0867 
  1535.64,88.0367 1543.16,90.9145 1550.68,94.7115 1558.2,99.4165 1565.72,105.016 1573.24,111.492 1580.77,118.828 1588.39,127.113 1596,136.234 1603.62,146.163 
  1611.24,156.873 1626.48,180.512 1641.72,206.891 1658.8,239.362 1675.88,274.503 1692.95,311.886 1710.03,351.078 1740.98,425.35 1771.93,501.793 1807.37,589.277 
  1842.81,674.249 1859.21,712.169 1875.62,748.976 1892.02,784.551 1908.43,818.8 1924.6,851.199 1940.78,882.195 1956.95,911.76 1973.12,939.883 1988.83,965.809 
  2004.53,990.389 2020.24,1013.65 2035.94,1035.61 2052.04,1056.82 2068.13,1076.74 2084.23,1095.44 2100.33,1112.95 2117.97,1130.85 2135.61,1147.45 2153.24,1162.85 
  2170.88,1177.1 2196.5,1195.91 2222.12,1212.66 2247.74,1227.54 2273.37,1240.76 2278.62,1243.27 2283.88,1245.73 2289.13,1248.13 2294.39,1250.46 
  "/>
<circle clip-path="url(#clip812)" cx="543.441" cy="1344.41" r="14.4" fill="#e26f46" fill-rule="evenodd" fill-opacity="1" stroke="#000000" stroke-opacity="1" stroke-width="3.2"/>
<circle clip-path="url(#clip812)" cx="562.896" cy="1335.62" r="14.4" fill="#e26f46" fill-rule="evenodd" fill-opacity="1" stroke="#000000" stroke-opacity="1" stroke-width="3.2"/>
<circle clip-path="url(#clip812)" cx="582.351" cy="1328.13" r="14.4" fill="#e26f46" fill-rule="evenodd" fill-opacity="1" stroke="#000000" stroke-opacity="1" stroke-width="3.2"/>
<circle clip-path="url(#clip812)" cx="601.806" cy="1317.36" r="14.4" fill="#e26f46" fill-rule="evenodd" fill-opacity="1" stroke="#000000" stroke-opacity="1" stroke-width="3.2"/>
<circle clip-path="url(#clip812)" cx="621.261" cy="1321.95" r="14.4" fill="#e26f46" fill-rule="evenodd" fill-opacity="1" stroke="#000000" stroke-opacity="1" stroke-width="3.2"/>
<circle clip-path="url(#clip812)" cx="640.716" cy="1315.83" r="14.4" fill="#e26f46" fill-rule="evenodd" fill-opacity="1" stroke="#000000" stroke-opacity="1" stroke-width="3.2"/>
<circle clip-path="url(#clip812)" cx="660.171" cy="1296.78" r="14.4" fill="#e26f46" fill-rule="evenodd" fill-opacity="1" stroke="#000000" stroke-opacity="1" stroke-width="3.2"/>
<circle clip-path="url(#clip812)" cx="679.626" cy="1280.62" r="14.4" fill="#e26f46" fill-rule="evenodd" fill-opacity="1" stroke="#000000" stroke-opacity="1" stroke-width="3.2"/>
<circle clip-path="url(#clip812)" cx="699.081" cy="1268.01" r="14.4" fill="#e26f46" fill-rule="evenodd" fill-opacity="1" stroke="#000000" stroke-opacity="1" stroke-width="3.2"/>
<circle clip-path="url(#clip812)" cx="718.536" cy="1254.33" r="14.4" fill="#e26f46" fill-rule="evenodd" fill-opacity="1" stroke="#000000" stroke-opacity="1" stroke-width="3.2"/>
<circle clip-path="url(#clip812)" cx="737.991" cy="1224.18" r="14.4" fill="#e26f46" fill-rule="evenodd" fill-opacity="1" stroke="#000000" stroke-opacity="1" stroke-width="3.2"/>
<circle clip-path="url(#clip812)" cx="757.446" cy="1202.49" r="14.4" fill="#e26f46" fill-rule="evenodd" fill-opacity="1" stroke="#000000" stroke-opacity="1" stroke-width="3.2"/>
<circle clip-path="url(#clip812)" cx="776.901" cy="1197.5" r="14.4" fill="#e26f46" fill-rule="evenodd" fill-opacity="1" stroke="#000000" stroke-opacity="1" stroke-width="3.2"/>
<circle clip-path="url(#clip812)" cx="796.356" cy="1180.22" r="14.4" fill="#e26f46" fill-rule="evenodd" fill-opacity="1" stroke="#000000" stroke-opacity="1" stroke-width="3.2"/>
<circle clip-path="url(#clip812)" cx="815.811" cy="1173.04" r="14.4" fill="#e26f46" fill-rule="evenodd" fill-opacity="1" stroke="#000000" stroke-opacity="1" stroke-width="3.2"/>
<circle clip-path="url(#clip812)" cx="835.266" cy="1155.97" r="14.4" fill="#e26f46" fill-rule="evenodd" fill-opacity="1" stroke="#000000" stroke-opacity="1" stroke-width="3.2"/>
<circle clip-path="url(#clip812)" cx="854.721" cy="1151.24" r="14.4" fill="#e26f46" fill-rule="evenodd" fill-opacity="1" stroke="#000000" stroke-opacity="1" stroke-width="3.2"/>
<circle clip-path="url(#clip812)" cx="874.176" cy="1134.87" r="14.4" fill="#e26f46" fill-rule="evenodd" fill-opacity="1" stroke="#000000" stroke-opacity="1" stroke-width="3.2"/>
<circle clip-path="url(#clip812)" cx="893.631" cy="1141.78" r="14.4" fill="#e26f46" fill-rule="evenodd" fill-opacity="1" stroke="#000000" stroke-opacity="1" stroke-width="3.2"/>
<circle clip-path="url(#clip812)" cx="913.086" cy="1128.58" r="14.4" fill="#e26f46" fill-rule="evenodd" fill-opacity="1" stroke="#000000" stroke-opacity="1" stroke-width="3.2"/>
<circle clip-path="url(#clip812)" cx="932.541" cy="1096.81" r="14.4" fill="#e26f46" fill-rule="evenodd" fill-opacity="1" stroke="#000000" stroke-opacity="1" stroke-width="3.2"/>
<circle clip-path="url(#clip812)" cx="951.996" cy="1063.26" r="14.4" fill="#e26f46" fill-rule="evenodd" fill-opacity="1" stroke="#000000" stroke-opacity="1" stroke-width="3.2"/>
<circle clip-path="url(#clip812)" cx="971.451" cy="1036.24" r="14.4" fill="#e26f46" fill-rule="evenodd" fill-opacity="1" stroke="#000000" stroke-opacity="1" stroke-width="3.2"/>
<circle clip-path="url(#clip812)" cx="990.906" cy="1007.1" r="14.4" fill="#e26f46" fill-rule="evenodd" fill-opacity="1" stroke="#000000" stroke-opacity="1" stroke-width="3.2"/>
<circle clip-path="url(#clip812)" cx="1010.36" cy="978.25" r="14.4" fill="#e26f46" fill-rule="evenodd" fill-opacity="1" stroke="#000000" stroke-opacity="1" stroke-width="3.2"/>
<circle clip-path="url(#clip812)" cx="1029.82" cy="974.763" r="14.4" fill="#e26f46" fill-rule="evenodd" fill-opacity="1" stroke="#000000" stroke-opacity="1" stroke-width="3.2"/>
<circle clip-path="url(#clip812)" cx="1049.27" cy="946.403" r="14.4" fill="#e26f46" fill-rule="evenodd" fill-opacity="1" stroke="#000000" stroke-opacity="1" stroke-width="3.2"/>
<circle clip-path="url(#clip812)" cx="1068.73" cy="907.716" r="14.4" fill="#e26f46" fill-rule="evenodd" fill-opacity="1" stroke="#000000" stroke-opacity="1" stroke-width="3.2"/>
<circle clip-path="url(#clip812)" cx="1088.18" cy="888.667" r="14.4" fill="#e26f46" fill-rule="evenodd" fill-opacity="1" stroke="#000000" stroke-opacity="1" stroke-width="3.2"/>
<circle clip-path="url(#clip812)" cx="1107.64" cy="855.479" r="14.4" fill="#e26f46" fill-rule="evenodd" fill-opacity="1" stroke="#000000" stroke-opacity="1" stroke-width="3.2"/>
<circle clip-path="url(#clip812)" cx="1127.09" cy="818.954" r="14.4" fill="#e26f46" fill-rule="evenodd" fill-opacity="1" stroke="#000000" stroke-opacity="1" stroke-width="3.2"/>
<circle clip-path="url(#clip812)" cx="1146.55" cy="777.616" r="14.4" fill="#e26f46" fill-rule="evenodd" fill-opacity="1" stroke="#000000" stroke-opacity="1" stroke-width="3.2"/>
<circle clip-path="url(#clip812)" cx="1166" cy="734.149" r="14.4" fill="#e26f46" fill-rule="evenodd" fill-opacity="1" stroke="#000000" stroke-opacity="1" stroke-width="3.2"/>
<circle clip-path="url(#clip812)" cx="1185.46" cy="682.596" r="14.4" fill="#e26f46" fill-rule="evenodd" fill-opacity="1" stroke="#000000" stroke-opacity="1" stroke-width="3.2"/>
<circle clip-path="url(#clip812)" cx="1204.91" cy="630.145" r="14.4" fill="#e26f46" fill-rule="evenodd" fill-opacity="1" stroke="#000000" stroke-opacity="1" stroke-width="3.2"/>
<circle clip-path="url(#clip812)" cx="1224.37" cy="593.327" r="14.4" fill="#e26f46" fill-rule="evenodd" fill-opacity="1" stroke="#000000" stroke-opacity="1" stroke-width="3.2"/>
<circle clip-path="url(#clip812)" cx="1243.82" cy="552.417" r="14.4" fill="#e26f46" fill-rule="evenodd" fill-opacity="1" stroke="#000000" stroke-opacity="1" stroke-width="3.2"/>
<circle clip-path="url(#clip812)" cx="1263.28" cy="521.307" r="14.4" fill="#e26f46" fill-rule="evenodd" fill-opacity="1" stroke="#000000" stroke-opacity="1" stroke-width="3.2"/>
<circle clip-path="url(#clip812)" cx="1282.73" cy="467.934" r="14.4" fill="#e26f46" fill-rule="evenodd" fill-opacity="1" stroke="#000000" stroke-opacity="1" stroke-width="3.2"/>
<circle clip-path="url(#clip812)" cx="1302.19" cy="429.755" r="14.4" fill="#e26f46" fill-rule="evenodd" fill-opacity="1" stroke="#000000" stroke-opacity="1" stroke-width="3.2"/>
<circle clip-path="url(#clip812)" cx="1321.64" cy="403.642" r="14.4" fill="#e26f46" fill-rule="evenodd" fill-opacity="1" stroke="#000000" stroke-opacity="1" stroke-width="3.2"/>
<circle clip-path="url(#clip812)" cx="1341.1" cy="355.049" r="14.4" fill="#e26f46" fill-rule="evenodd" fill-opacity="1" stroke="#000000" stroke-opacity="1" stroke-width="3.2"/>
<circle clip-path="url(#clip812)" cx="1360.55" cy="317.819" r="14.4" fill="#e26f46" fill-rule="evenodd" fill-opacity="1" stroke="#000000" stroke-opacity="1" stroke-width="3.2"/>
<circle clip-path="url(#clip812)" cx="1380.01" cy="289.978" r="14.4" fill="#e26f46" fill-rule="evenodd" fill-opacity="1" stroke="#000000" stroke-opacity="1" stroke-width="3.2"/>
<circle clip-path="url(#clip812)" cx="1399.46" cy="248.354" r="14.4" fill="#e26f46" fill-rule="evenodd" fill-opacity="1" stroke="#000000" stroke-opacity="1" stroke-width="3.2"/>
<circle clip-path="url(#clip812)" cx="1418.92" cy="210.607" r="14.4" fill="#e26f46" fill-rule="evenodd" fill-opacity="1" stroke="#000000" stroke-opacity="1" stroke-width="3.2"/>
<circle clip-path="url(#clip812)" cx="1438.37" cy="189.369" r="14.4" fill="#e26f46" fill-rule="evenodd" fill-opacity="1" stroke="#000000" stroke-opacity="1" stroke-width="3.2"/>
<circle clip-path="url(#clip812)" cx="1457.83" cy="167.146" r="14.4" fill="#e26f46" fill-rule="evenodd" fill-opacity="1" stroke="#000000" stroke-opacity="1" stroke-width="3.2"/>
<circle clip-path="url(#clip812)" cx="1477.28" cy="142.225" r="14.4" fill="#e26f46" fill-rule="evenodd" fill-opacity="1" stroke="#000000" stroke-opacity="1" stroke-width="3.2"/>
<circle clip-path="url(#clip812)" cx="1496.74" cy="140.554" r="14.4" fill="#e26f46" fill-rule="evenodd" fill-opacity="1" stroke="#000000" stroke-opacity="1" stroke-width="3.2"/>
<circle clip-path="url(#clip812)" cx="1516.19" cy="150.185" r="14.4" fill="#e26f46" fill-rule="evenodd" fill-opacity="1" stroke="#000000" stroke-opacity="1" stroke-width="3.2"/>
<circle clip-path="url(#clip812)" cx="1535.65" cy="138.825" r="14.4" fill="#e26f46" fill-rule="evenodd" fill-opacity="1" stroke="#000000" stroke-opacity="1" stroke-width="3.2"/>
<circle clip-path="url(#clip812)" cx="1555.1" cy="148.484" r="14.4" fill="#e26f46" fill-rule="evenodd" fill-opacity="1" stroke="#000000" stroke-opacity="1" stroke-width="3.2"/>
<circle clip-path="url(#clip812)" cx="1574.56" cy="160.805" r="14.4" fill="#e26f46" fill-rule="evenodd" fill-opacity="1" stroke="#000000" stroke-opacity="1" stroke-width="3.2"/>
<circle clip-path="url(#clip812)" cx="1594.01" cy="164.477" r="14.4" fill="#e26f46" fill-rule="evenodd" fill-opacity="1" stroke="#000000" stroke-opacity="1" stroke-width="3.2"/>
<circle clip-path="url(#clip812)" cx="1613.47" cy="197.081" r="14.4" fill="#e26f46" fill-rule="evenodd" fill-opacity="1" stroke="#000000" stroke-opacity="1" stroke-width="3.2"/>
<circle clip-path="url(#clip812)" cx="1632.92" cy="222.031" r="14.4" fill="#e26f46" fill-rule="evenodd" fill-opacity="1" stroke="#000000" stroke-opacity="1" stroke-width="3.2"/>
<circle clip-path="url(#clip812)" cx="1652.38" cy="259.064" r="14.4" fill="#e26f46" fill-rule="evenodd" fill-opacity="1" stroke="#000000" stroke-opacity="1" stroke-width="3.2"/>
<circle clip-path="url(#clip812)" cx="1671.83" cy="294.179" r="14.4" fill="#e26f46" fill-rule="evenodd" fill-opacity="1" stroke="#000000" stroke-opacity="1" stroke-width="3.2"/>
<circle clip-path="url(#clip812)" cx="1691.29" cy="318.368" r="14.4" fill="#e26f46" fill-rule="evenodd" fill-opacity="1" stroke="#000000" stroke-opacity="1" stroke-width="3.2"/>
<circle clip-path="url(#clip812)" cx="1710.74" cy="344.778" r="14.4" fill="#e26f46" fill-rule="evenodd" fill-opacity="1" stroke="#000000" stroke-opacity="1" stroke-width="3.2"/>
<circle clip-path="url(#clip812)" cx="1730.2" cy="398.874" r="14.4" fill="#e26f46" fill-rule="evenodd" fill-opacity="1" stroke="#000000" stroke-opacity="1" stroke-width="3.2"/>
<circle clip-path="url(#clip812)" cx="1749.65" cy="441.523" r="14.4" fill="#e26f46" fill-rule="evenodd" fill-opacity="1" stroke="#000000" stroke-opacity="1" stroke-width="3.2"/>
<circle clip-path="url(#clip812)" cx="1769.11" cy="490.74" r="14.4" fill="#e26f46" fill-rule="evenodd" fill-opacity="1" stroke="#000000" stroke-opacity="1" stroke-width="3.2"/>
<circle clip-path="url(#clip812)" cx="1788.56" cy="555.152" r="14.4" fill="#e26f46" fill-rule="evenodd" fill-opacity="1" stroke="#000000" stroke-opacity="1" stroke-width="3.2"/>
<circle clip-path="url(#clip812)" cx="1808.02" cy="589.311" r="14.4" fill="#e26f46" fill-rule="evenodd" fill-opacity="1" stroke="#000000" stroke-opacity="1" stroke-width="3.2"/>
<circle clip-path="url(#clip812)" cx="1827.47" cy="628.913" r="14.4" fill="#e26f46" fill-rule="evenodd" fill-opacity="1" stroke="#000000" stroke-opacity="1" stroke-width="3.2"/>
<circle clip-path="url(#clip812)" cx="1846.93" cy="664.955" r="14.4" fill="#e26f46" fill-rule="evenodd" fill-opacity="1" stroke="#000000" stroke-opacity="1" stroke-width="3.2"/>
<circle clip-path="url(#clip812)" cx="1866.38" cy="711.193" r="14.4" fill="#e26f46" fill-rule="evenodd" fill-opacity="1" stroke="#000000" stroke-opacity="1" stroke-width="3.2"/>
<circle clip-path="url(#clip812)" cx="1885.84" cy="744.022" r="14.4" fill="#e26f46" fill-rule="evenodd" fill-opacity="1" stroke="#000000" stroke-opacity="1" stroke-width="3.2"/>
<circle clip-path="url(#clip812)" cx="1905.29" cy="785.164" r="14.4" fill="#e26f46" fill-rule="evenodd" fill-opacity="1" stroke="#000000" stroke-opacity="1" stroke-width="3.2"/>
<circle clip-path="url(#clip812)" cx="1924.75" cy="849.895" r="14.4" fill="#e26f46" fill-rule="evenodd" fill-opacity="1" stroke="#000000" stroke-opacity="1" stroke-width="3.2"/>
<circle clip-path="url(#clip812)" cx="1944.2" cy="892.042" r="14.4" fill="#e26f46" fill-rule="evenodd" fill-opacity="1" stroke="#000000" stroke-opacity="1" stroke-width="3.2"/>
<circle clip-path="url(#clip812)" cx="1963.66" cy="934.616" r="14.4" fill="#e26f46" fill-rule="evenodd" fill-opacity="1" stroke="#000000" stroke-opacity="1" stroke-width="3.2"/>
<circle clip-path="url(#clip812)" cx="1983.11" cy="980.59" r="14.4" fill="#e26f46" fill-rule="evenodd" fill-opacity="1" stroke="#000000" stroke-opacity="1" stroke-width="3.2"/>
<circle clip-path="url(#clip812)" cx="2002.57" cy="1022.69" r="14.4" fill="#e26f46" fill-rule="evenodd" fill-opacity="1" stroke="#000000" stroke-opacity="1" stroke-width="3.2"/>
<circle clip-path="url(#clip812)" cx="2022.02" cy="1075.09" r="14.4" fill="#e26f46" fill-rule="evenodd" fill-opacity="1" stroke="#000000" stroke-opacity="1" stroke-width="3.2"/>
<circle clip-path="url(#clip812)" cx="2041.48" cy="1110.69" r="14.4" fill="#e26f46" fill-rule="evenodd" fill-opacity="1" stroke="#000000" stroke-opacity="1" stroke-width="3.2"/>
<circle clip-path="url(#clip812)" cx="2060.93" cy="1149.89" r="14.4" fill="#e26f46" fill-rule="evenodd" fill-opacity="1" stroke="#000000" stroke-opacity="1" stroke-width="3.2"/>
<circle clip-path="url(#clip812)" cx="2080.39" cy="1184.22" r="14.4" fill="#e26f46" fill-rule="evenodd" fill-opacity="1" stroke="#000000" stroke-opacity="1" stroke-width="3.2"/>
<circle clip-path="url(#clip812)" cx="2099.84" cy="1209.55" r="14.4" fill="#e26f46" fill-rule="evenodd" fill-opacity="1" stroke="#000000" stroke-opacity="1" stroke-width="3.2"/>
<path clip-path="url(#clip810)" d="
M359.267 247.262 L1322.15 247.262 L1322.15 91.7425 L359.267 91.7425  Z
  " fill="#ffffff" fill-rule="evenodd" fill-opacity="1"/>
<polyline clip-path="url(#clip810)" style="stroke:#000000; stroke-linecap:round; stroke-linejoin:round; stroke-width:4; stroke-opacity:1; fill:none" points="
  359.267,247.262 1322.15,247.262 1322.15,91.7425 359.267,91.7425 359.267,247.262 
  "/>
<polyline clip-path="url(#clip810)" style="stroke:#009af9; stroke-linecap:round; stroke-linejoin:round; stroke-width:4; stroke-opacity:1; fill:none" points="
  382.181,143.582 519.663,143.582 
  "/>
<path clip-path="url(#clip810)" d="M549.984 127.576 L549.984 134.937 L558.757 134.937 L558.757 138.247 L549.984 138.247 L549.984 152.321 Q549.984 155.492 550.84 156.395 Q551.72 157.298 554.382 157.298 L558.757 157.298 L558.757 160.862 L554.382 160.862 Q549.451 160.862 547.576 159.034 Q545.701 157.182 545.701 152.321 L545.701 138.247 L542.576 138.247 L542.576 134.937 L545.701 134.937 L545.701 127.576 L549.984 127.576 Z" fill="#000000" fill-rule="evenodd" fill-opacity="1" /><path clip-path="url(#clip810)" d="M585.909 145.214 L585.909 160.862 L581.65 160.862 L581.65 145.353 Q581.65 141.673 580.215 139.844 Q578.78 138.015 575.909 138.015 Q572.46 138.015 570.47 140.214 Q568.479 142.414 568.479 146.21 L568.479 160.862 L564.197 160.862 L564.197 124.844 L568.479 124.844 L568.479 138.964 Q570.007 136.627 572.067 135.469 Q574.15 134.312 576.859 134.312 Q581.326 134.312 583.618 137.089 Q585.909 139.844 585.909 145.214 Z" fill="#000000" fill-rule="evenodd" fill-opacity="1" /><path clip-path="url(#clip810)" d="M616.581 146.835 L616.581 148.918 L596.997 148.918 Q597.275 153.316 599.636 155.631 Q602.02 157.923 606.257 157.923 Q608.71 157.923 611.002 157.321 Q613.317 156.719 615.585 155.515 L615.585 159.543 Q613.294 160.515 610.886 161.025 Q608.479 161.534 606.002 161.534 Q599.798 161.534 596.164 157.923 Q592.553 154.312 592.553 148.154 Q592.553 141.789 595.979 138.062 Q599.428 134.312 605.261 134.312 Q610.493 134.312 613.525 137.691 Q616.581 141.048 616.581 146.835 M612.321 145.585 Q612.275 142.089 610.354 140.006 Q608.456 137.923 605.307 137.923 Q601.743 137.923 599.59 139.937 Q597.46 141.951 597.136 145.608 L612.321 145.585 Z" fill="#000000" fill-rule="evenodd" fill-opacity="1" /><path clip-path="url(#clip810)" d="M633.617 137.923 Q630.192 137.923 628.201 140.608 Q626.21 143.27 626.21 147.923 Q626.21 152.575 628.178 155.261 Q630.168 157.923 633.617 157.923 Q637.02 157.923 639.011 155.238 Q641.002 152.552 641.002 147.923 Q641.002 143.316 639.011 140.631 Q637.02 137.923 633.617 137.923 M633.617 134.312 Q639.173 134.312 642.344 137.923 Q645.516 141.534 645.516 147.923 Q645.516 154.288 642.344 157.923 Q639.173 161.534 633.617 161.534 Q628.039 161.534 624.868 157.923 Q621.719 154.288 621.719 147.923 Q621.719 141.534 624.868 137.923 Q628.039 134.312 633.617 134.312 Z" fill="#000000" fill-rule="evenodd" fill-opacity="1" /><path clip-path="url(#clip810)" d="M667.599 138.918 Q666.881 138.501 666.025 138.316 Q665.191 138.108 664.173 138.108 Q660.562 138.108 658.617 140.469 Q656.696 142.807 656.696 147.205 L656.696 160.862 L652.414 160.862 L652.414 134.937 L656.696 134.937 L656.696 138.964 Q658.039 136.603 660.191 135.469 Q662.344 134.312 665.423 134.312 Q665.863 134.312 666.395 134.381 Q666.927 134.427 667.576 134.543 L667.599 138.918 Z" fill="#000000" fill-rule="evenodd" fill-opacity="1" /><path clip-path="url(#clip810)" d="M693.2 146.835 L693.2 148.918 L673.617 148.918 Q673.895 153.316 676.256 155.631 Q678.64 157.923 682.876 157.923 Q685.33 157.923 687.622 157.321 Q689.937 156.719 692.205 155.515 L692.205 159.543 Q689.913 160.515 687.506 161.025 Q685.099 161.534 682.622 161.534 Q676.418 161.534 672.784 157.923 Q669.173 154.312 669.173 148.154 Q669.173 141.789 672.599 138.062 Q676.048 134.312 681.881 134.312 Q687.113 134.312 690.145 137.691 Q693.2 141.048 693.2 146.835 M688.941 145.585 Q688.895 142.089 686.974 140.006 Q685.076 137.923 681.927 137.923 Q678.363 137.923 676.21 139.937 Q674.08 141.951 673.756 145.608 L688.941 145.585 Z" fill="#000000" fill-rule="evenodd" fill-opacity="1" /><path clip-path="url(#clip810)" d="M704.404 127.576 L704.404 134.937 L713.177 134.937 L713.177 138.247 L704.404 138.247 L704.404 152.321 Q704.404 155.492 705.261 156.395 Q706.14 157.298 708.802 157.298 L713.177 157.298 L713.177 160.862 L708.802 160.862 Q703.872 160.862 701.997 159.034 Q700.122 157.182 700.122 152.321 L700.122 138.247 L696.997 138.247 L696.997 134.937 L700.122 134.937 L700.122 127.576 L704.404 127.576 Z" fill="#000000" fill-rule="evenodd" fill-opacity="1" /><path clip-path="url(#clip810)" d="M718.779 134.937 L723.038 134.937 L723.038 160.862 L718.779 160.862 L718.779 134.937 M718.779 124.844 L723.038 124.844 L723.038 130.238 L718.779 130.238 L718.779 124.844 Z" fill="#000000" fill-rule="evenodd" fill-opacity="1" /><path clip-path="url(#clip810)" d="M750.608 135.932 L750.608 139.914 Q748.802 138.918 746.973 138.432 Q745.168 137.923 743.316 137.923 Q739.172 137.923 736.881 140.562 Q734.589 143.177 734.589 147.923 Q734.589 152.668 736.881 155.307 Q739.172 157.923 743.316 157.923 Q745.168 157.923 746.973 157.437 Q748.802 156.927 750.608 155.932 L750.608 159.867 Q748.825 160.7 746.904 161.117 Q745.006 161.534 742.853 161.534 Q736.997 161.534 733.547 157.853 Q730.098 154.173 730.098 147.923 Q730.098 141.58 733.571 137.946 Q737.066 134.312 743.131 134.312 Q745.098 134.312 746.973 134.728 Q748.848 135.122 750.608 135.932 Z" fill="#000000" fill-rule="evenodd" fill-opacity="1" /><path clip-path="url(#clip810)" d="M769.797 147.83 Q764.635 147.83 762.645 149.011 Q760.654 150.191 760.654 153.038 Q760.654 155.307 762.135 156.65 Q763.64 157.969 766.209 157.969 Q769.751 157.969 771.881 155.469 Q774.033 152.946 774.033 148.779 L774.033 147.83 L769.797 147.83 M778.293 146.071 L778.293 160.862 L774.033 160.862 L774.033 156.927 Q772.575 159.288 770.399 160.423 Q768.223 161.534 765.075 161.534 Q761.094 161.534 758.733 159.312 Q756.395 157.066 756.395 153.316 Q756.395 148.941 759.311 146.719 Q762.251 144.497 768.061 144.497 L774.033 144.497 L774.033 144.08 Q774.033 141.14 772.089 139.543 Q770.168 137.923 766.672 137.923 Q764.45 137.923 762.344 138.455 Q760.237 138.988 758.293 140.052 L758.293 136.117 Q760.631 135.214 762.83 134.775 Q765.029 134.312 767.112 134.312 Q772.737 134.312 775.515 137.228 Q778.293 140.145 778.293 146.071 Z" fill="#000000" fill-rule="evenodd" fill-opacity="1" /><path clip-path="url(#clip810)" d="M787.066 124.844 L791.325 124.844 L791.325 160.862 L787.066 160.862 L787.066 124.844 Z" fill="#000000" fill-rule="evenodd" fill-opacity="1" /><path clip-path="url(#clip810)" d="M816.718 156.927 L824.357 156.927 L824.357 130.562 L816.047 132.228 L816.047 127.969 L824.311 126.302 L828.987 126.302 L828.987 156.927 L836.626 156.927 L836.626 160.862 L816.718 160.862 L816.718 156.927 Z" fill="#000000" fill-rule="evenodd" fill-opacity="1" /><path clip-path="url(#clip810)" d="M861.996 135.701 L861.996 139.728 Q860.19 138.802 858.246 138.339 Q856.301 137.877 854.218 137.877 Q851.047 137.877 849.45 138.849 Q847.876 139.821 847.876 141.765 Q847.876 143.247 849.01 144.103 Q850.144 144.937 853.57 145.701 L855.028 146.025 Q859.565 146.997 861.463 148.779 Q863.385 150.538 863.385 153.71 Q863.385 157.321 860.514 159.427 Q857.667 161.534 852.667 161.534 Q850.584 161.534 848.315 161.117 Q846.07 160.724 843.57 159.913 L843.57 155.515 Q845.931 156.742 848.223 157.367 Q850.514 157.969 852.76 157.969 Q855.769 157.969 857.389 156.95 Q859.01 155.909 859.01 154.034 Q859.01 152.298 857.829 151.372 Q856.672 150.446 852.714 149.589 L851.232 149.242 Q847.274 148.409 845.514 146.696 Q843.755 144.96 843.755 141.951 Q843.755 138.293 846.348 136.302 Q848.94 134.312 853.709 134.312 Q856.07 134.312 858.153 134.659 Q860.237 135.006 861.996 135.701 Z" fill="#000000" fill-rule="evenodd" fill-opacity="1" /><path clip-path="url(#clip810)" d="M874.38 127.576 L874.38 134.937 L883.153 134.937 L883.153 138.247 L874.38 138.247 L874.38 152.321 Q874.38 155.492 875.237 156.395 Q876.116 157.298 878.778 157.298 L883.153 157.298 L883.153 160.862 L878.778 160.862 Q873.848 160.862 871.973 159.034 Q870.098 157.182 870.098 152.321 L870.098 138.247 L866.973 138.247 L866.973 134.937 L870.098 134.937 L870.098 127.576 L874.38 127.576 Z" fill="#000000" fill-rule="evenodd" fill-opacity="1" /><path clip-path="url(#clip810)" d="M913.871 137.923 Q910.445 137.923 908.454 140.608 Q906.463 143.27 906.463 147.923 Q906.463 152.575 908.431 155.261 Q910.422 157.923 913.871 157.923 Q917.273 157.923 919.264 155.238 Q921.255 152.552 921.255 147.923 Q921.255 143.316 919.264 140.631 Q917.273 137.923 913.871 137.923 M913.871 134.312 Q919.426 134.312 922.597 137.923 Q925.769 141.534 925.769 147.923 Q925.769 154.288 922.597 157.923 Q919.426 161.534 913.871 161.534 Q908.292 161.534 905.121 157.923 Q901.973 154.288 901.973 147.923 Q901.973 141.534 905.121 137.923 Q908.292 134.312 913.871 134.312 Z" fill="#000000" fill-rule="evenodd" fill-opacity="1" /><path clip-path="url(#clip810)" d="M947.852 138.918 Q947.134 138.501 946.278 138.316 Q945.445 138.108 944.426 138.108 Q940.815 138.108 938.87 140.469 Q936.949 142.807 936.949 147.205 L936.949 160.862 L932.667 160.862 L932.667 134.937 L936.949 134.937 L936.949 138.964 Q938.292 136.603 940.445 135.469 Q942.597 134.312 945.676 134.312 Q946.116 134.312 946.648 134.381 Q947.181 134.427 947.829 134.543 L947.852 138.918 Z" fill="#000000" fill-rule="evenodd" fill-opacity="1" /><path clip-path="url(#clip810)" d="M968.546 138.872 L968.546 124.844 L972.805 124.844 L972.805 160.862 L968.546 160.862 L968.546 156.974 Q967.204 159.288 965.143 160.423 Q963.106 161.534 960.236 161.534 Q955.537 161.534 952.574 157.784 Q949.634 154.034 949.634 147.923 Q949.634 141.812 952.574 138.062 Q955.537 134.312 960.236 134.312 Q963.106 134.312 965.143 135.446 Q967.204 136.557 968.546 138.872 M954.032 147.923 Q954.032 152.622 955.954 155.307 Q957.898 157.969 961.278 157.969 Q964.657 157.969 966.602 155.307 Q968.546 152.622 968.546 147.923 Q968.546 143.224 966.602 140.562 Q964.657 137.877 961.278 137.877 Q957.898 137.877 955.954 140.562 Q954.032 143.224 954.032 147.923 Z" fill="#000000" fill-rule="evenodd" fill-opacity="1" /><path clip-path="url(#clip810)" d="M1003.75 146.835 L1003.75 148.918 L984.171 148.918 Q984.449 153.316 986.81 155.631 Q989.194 157.923 993.43 157.923 Q995.884 157.923 998.176 157.321 Q1000.49 156.719 1002.76 155.515 L1002.76 159.543 Q1000.47 160.515 998.06 161.025 Q995.653 161.534 993.176 161.534 Q986.972 161.534 983.338 157.923 Q979.727 154.312 979.727 148.154 Q979.727 141.789 983.153 138.062 Q986.602 134.312 992.435 134.312 Q997.666 134.312 1000.7 137.691 Q1003.75 141.048 1003.75 146.835 M999.495 145.585 Q999.449 142.089 997.528 140.006 Q995.629 137.923 992.481 137.923 Q988.916 137.923 986.764 139.937 Q984.634 141.951 984.31 145.608 L999.495 145.585 Z" fill="#000000" fill-rule="evenodd" fill-opacity="1" /><path clip-path="url(#clip810)" d="M1025.77 138.918 Q1025.05 138.501 1024.19 138.316 Q1023.36 138.108 1022.34 138.108 Q1018.73 138.108 1016.79 140.469 Q1014.87 142.807 1014.87 147.205 L1014.87 160.862 L1010.58 160.862 L1010.58 134.937 L1014.87 134.937 L1014.87 138.964 Q1016.21 136.603 1018.36 135.469 Q1020.51 134.312 1023.59 134.312 Q1024.03 134.312 1024.56 134.381 Q1025.1 134.427 1025.75 134.543 L1025.77 138.918 Z" fill="#000000" fill-rule="evenodd" fill-opacity="1" /><path clip-path="url(#clip810)" d="M1062.37 138.872 L1062.37 124.844 L1066.62 124.844 L1066.62 160.862 L1062.37 160.862 L1062.37 156.974 Q1061.02 159.288 1058.96 160.423 Q1056.93 161.534 1054.06 161.534 Q1049.36 161.534 1046.39 157.784 Q1043.45 154.034 1043.45 147.923 Q1043.45 141.812 1046.39 138.062 Q1049.36 134.312 1054.06 134.312 Q1056.93 134.312 1058.96 135.446 Q1061.02 136.557 1062.37 138.872 M1047.85 147.923 Q1047.85 152.622 1049.77 155.307 Q1051.72 157.969 1055.1 157.969 Q1058.48 157.969 1060.42 155.307 Q1062.37 152.622 1062.37 147.923 Q1062.37 143.224 1060.42 140.562 Q1058.48 137.877 1055.1 137.877 Q1051.72 137.877 1049.77 140.562 Q1047.85 143.224 1047.85 147.923 Z" fill="#000000" fill-rule="evenodd" fill-opacity="1" /><path clip-path="url(#clip810)" d="M1097.57 146.835 L1097.57 148.918 L1077.99 148.918 Q1078.27 153.316 1080.63 155.631 Q1083.01 157.923 1087.25 157.923 Q1089.7 157.923 1091.99 157.321 Q1094.31 156.719 1096.58 155.515 L1096.58 159.543 Q1094.29 160.515 1091.88 161.025 Q1089.47 161.534 1086.99 161.534 Q1080.79 161.534 1077.16 157.923 Q1073.55 154.312 1073.55 148.154 Q1073.55 141.789 1076.97 138.062 Q1080.42 134.312 1086.25 134.312 Q1091.49 134.312 1094.52 137.691 Q1097.57 141.048 1097.57 146.835 M1093.31 145.585 Q1093.27 142.089 1091.35 140.006 Q1089.45 137.923 1086.3 137.923 Q1082.74 137.923 1080.58 139.937 Q1078.45 141.951 1078.13 145.608 L1093.31 145.585 Z" fill="#000000" fill-rule="evenodd" fill-opacity="1" /><path clip-path="url(#clip810)" d="M1119.59 138.918 Q1118.87 138.501 1118.01 138.316 Q1117.18 138.108 1116.16 138.108 Q1112.55 138.108 1110.61 140.469 Q1108.68 142.807 1108.68 147.205 L1108.68 160.862 L1104.4 160.862 L1104.4 134.937 L1108.68 134.937 L1108.68 138.964 Q1110.03 136.603 1112.18 135.469 Q1114.33 134.312 1117.41 134.312 Q1117.85 134.312 1118.38 134.381 Q1118.92 134.427 1119.56 134.543 L1119.59 138.918 Z" fill="#000000" fill-rule="evenodd" fill-opacity="1" /><path clip-path="url(#clip810)" d="M1124.05 134.937 L1128.31 134.937 L1128.31 160.862 L1124.05 160.862 L1124.05 134.937 M1124.05 124.844 L1128.31 124.844 L1128.31 130.238 L1124.05 130.238 L1124.05 124.844 Z" fill="#000000" fill-rule="evenodd" fill-opacity="1" /><path clip-path="url(#clip810)" d="M1134.17 134.937 L1138.68 134.937 L1146.79 156.696 L1154.89 134.937 L1159.4 134.937 L1149.68 160.862 L1143.89 160.862 L1134.17 134.937 Z" fill="#000000" fill-rule="evenodd" fill-opacity="1" /><path clip-path="url(#clip810)" d="M1177.06 147.83 Q1171.9 147.83 1169.91 149.011 Q1167.92 150.191 1167.92 153.038 Q1167.92 155.307 1169.4 156.65 Q1170.91 157.969 1173.48 157.969 Q1177.02 157.969 1179.15 155.469 Q1181.3 152.946 1181.3 148.779 L1181.3 147.83 L1177.06 147.83 M1185.56 146.071 L1185.56 160.862 L1181.3 160.862 L1181.3 156.927 Q1179.84 159.288 1177.67 160.423 Q1175.49 161.534 1172.34 161.534 Q1168.36 161.534 1166 159.312 Q1163.66 157.066 1163.66 153.316 Q1163.66 148.941 1166.58 146.719 Q1169.52 144.497 1175.33 144.497 L1181.3 144.497 L1181.3 144.08 Q1181.3 141.14 1179.36 139.543 Q1177.43 137.923 1173.94 137.923 Q1171.72 137.923 1169.61 138.455 Q1167.5 138.988 1165.56 140.052 L1165.56 136.117 Q1167.9 135.214 1170.1 134.775 Q1172.3 134.312 1174.38 134.312 Q1180 134.312 1182.78 137.228 Q1185.56 140.145 1185.56 146.071 Z" fill="#000000" fill-rule="evenodd" fill-opacity="1" /><path clip-path="url(#clip810)" d="M1198.55 127.576 L1198.55 134.937 L1207.32 134.937 L1207.32 138.247 L1198.55 138.247 L1198.55 152.321 Q1198.55 155.492 1199.4 156.395 Q1200.28 157.298 1202.94 157.298 L1207.32 157.298 L1207.32 160.862 L1202.94 160.862 Q1198.01 160.862 1196.14 159.034 Q1194.26 157.182 1194.26 152.321 L1194.26 138.247 L1191.14 138.247 L1191.14 134.937 L1194.26 134.937 L1194.26 127.576 L1198.55 127.576 Z" fill="#000000" fill-rule="evenodd" fill-opacity="1" /><path clip-path="url(#clip810)" d="M1212.92 134.937 L1217.18 134.937 L1217.18 160.862 L1212.92 160.862 L1212.92 134.937 M1212.92 124.844 L1217.18 124.844 L1217.18 130.238 L1212.92 130.238 L1212.92 124.844 Z" fill="#000000" fill-rule="evenodd" fill-opacity="1" /><path clip-path="url(#clip810)" d="M1223.04 134.937 L1227.55 134.937 L1235.65 156.696 L1243.75 134.937 L1248.27 134.937 L1238.54 160.862 L1232.76 160.862 L1223.04 134.937 Z" fill="#000000" fill-rule="evenodd" fill-opacity="1" /><path clip-path="url(#clip810)" d="M1276.32 146.835 L1276.32 148.918 L1256.74 148.918 Q1257.02 153.316 1259.38 155.631 Q1261.76 157.923 1266 157.923 Q1268.45 157.923 1270.74 157.321 Q1273.06 156.719 1275.33 155.515 L1275.33 159.543 Q1273.04 160.515 1270.63 161.025 Q1268.22 161.534 1265.74 161.534 Q1259.54 161.534 1255.91 157.923 Q1252.29 154.312 1252.29 148.154 Q1252.29 141.789 1255.72 138.062 Q1259.17 134.312 1265 134.312 Q1270.23 134.312 1273.27 137.691 Q1276.32 141.048 1276.32 146.835 M1272.06 145.585 Q1272.02 142.089 1270.1 140.006 Q1268.2 137.923 1265.05 137.923 Q1261.48 137.923 1259.33 139.937 Q1257.2 141.951 1256.88 145.608 L1272.06 145.585 Z" fill="#000000" fill-rule="evenodd" fill-opacity="1" /><circle clip-path="url(#clip810)" cx="450.922" cy="195.422" r="23.04" fill="#e26f46" fill-rule="evenodd" fill-opacity="1" stroke="#000000" stroke-opacity="1" stroke-width="5.12"/>
<path clip-path="url(#clip810)" d="M561.002 187.541 L561.002 191.568 Q559.197 190.642 557.252 190.179 Q555.308 189.717 553.224 189.717 Q550.053 189.717 548.456 190.689 Q546.882 191.661 546.882 193.605 Q546.882 195.087 548.016 195.943 Q549.15 196.777 552.576 197.541 L554.035 197.865 Q558.572 198.837 560.47 200.619 Q562.391 202.378 562.391 205.55 Q562.391 209.161 559.521 211.267 Q556.673 213.374 551.673 213.374 Q549.59 213.374 547.322 212.957 Q545.076 212.564 542.576 211.753 L542.576 207.355 Q544.937 208.582 547.229 209.207 Q549.521 209.809 551.766 209.809 Q554.775 209.809 556.396 208.79 Q558.016 207.749 558.016 205.874 Q558.016 204.138 556.835 203.212 Q555.678 202.286 551.72 201.429 L550.238 201.082 Q546.28 200.249 544.521 198.536 Q542.761 196.8 542.761 193.791 Q542.761 190.133 545.354 188.142 Q547.947 186.152 552.715 186.152 Q555.076 186.152 557.16 186.499 Q559.243 186.846 561.002 187.541 Z" fill="#000000" fill-rule="evenodd" fill-opacity="1" /><path clip-path="url(#clip810)" d="M589.358 191.754 Q590.956 188.883 593.178 187.517 Q595.4 186.152 598.409 186.152 Q602.46 186.152 604.659 188.999 Q606.858 191.823 606.858 197.054 L606.858 212.702 L602.576 212.702 L602.576 197.193 Q602.576 193.466 601.257 191.661 Q599.937 189.855 597.229 189.855 Q593.919 189.855 591.997 192.054 Q590.076 194.254 590.076 198.05 L590.076 212.702 L585.794 212.702 L585.794 197.193 Q585.794 193.443 584.474 191.661 Q583.155 189.855 580.4 189.855 Q577.136 189.855 575.215 192.078 Q573.294 194.277 573.294 198.05 L573.294 212.702 L569.011 212.702 L569.011 186.777 L573.294 186.777 L573.294 190.804 Q574.752 188.42 576.789 187.286 Q578.826 186.152 581.627 186.152 Q584.451 186.152 586.419 187.587 Q588.409 189.022 589.358 191.754 Z" fill="#000000" fill-rule="evenodd" fill-opacity="1" /><path clip-path="url(#clip810)" d="M625.4 189.763 Q621.974 189.763 619.983 192.448 Q617.993 195.11 617.993 199.763 Q617.993 204.415 619.96 207.101 Q621.951 209.763 625.4 209.763 Q628.803 209.763 630.793 207.078 Q632.784 204.392 632.784 199.763 Q632.784 195.156 630.793 192.471 Q628.803 189.763 625.4 189.763 M625.4 186.152 Q630.955 186.152 634.127 189.763 Q637.298 193.374 637.298 199.763 Q637.298 206.128 634.127 209.763 Q630.955 213.374 625.4 213.374 Q619.821 213.374 616.65 209.763 Q613.502 206.128 613.502 199.763 Q613.502 193.374 616.65 189.763 Q619.821 186.152 625.4 186.152 Z" fill="#000000" fill-rule="evenodd" fill-opacity="1" /><path clip-path="url(#clip810)" d="M654.404 189.763 Q650.978 189.763 648.988 192.448 Q646.997 195.11 646.997 199.763 Q646.997 204.415 648.965 207.101 Q650.955 209.763 654.404 209.763 Q657.807 209.763 659.798 207.078 Q661.789 204.392 661.789 199.763 Q661.789 195.156 659.798 192.471 Q657.807 189.763 654.404 189.763 M654.404 186.152 Q659.96 186.152 663.131 189.763 Q666.302 193.374 666.302 199.763 Q666.302 206.128 663.131 209.763 Q659.96 213.374 654.404 213.374 Q648.826 213.374 645.654 209.763 Q642.506 206.128 642.506 199.763 Q642.506 193.374 645.654 189.763 Q648.826 186.152 654.404 186.152 Z" fill="#000000" fill-rule="evenodd" fill-opacity="1" /><path clip-path="url(#clip810)" d="M677.576 179.416 L677.576 186.777 L686.349 186.777 L686.349 190.087 L677.576 190.087 L677.576 204.161 Q677.576 207.332 678.432 208.235 Q679.312 209.138 681.974 209.138 L686.349 209.138 L686.349 212.702 L681.974 212.702 Q677.043 212.702 675.168 210.874 Q673.293 209.022 673.293 204.161 L673.293 190.087 L670.168 190.087 L670.168 186.777 L673.293 186.777 L673.293 179.416 L677.576 179.416 Z" fill="#000000" fill-rule="evenodd" fill-opacity="1" /><path clip-path="url(#clip810)" d="M713.501 197.054 L713.501 212.702 L709.242 212.702 L709.242 197.193 Q709.242 193.513 707.807 191.684 Q706.372 189.855 703.501 189.855 Q700.052 189.855 698.062 192.054 Q696.071 194.254 696.071 198.05 L696.071 212.702 L691.788 212.702 L691.788 176.684 L696.071 176.684 L696.071 190.804 Q697.599 188.467 699.659 187.309 Q701.742 186.152 704.45 186.152 Q708.918 186.152 711.21 188.929 Q713.501 191.684 713.501 197.054 Z" fill="#000000" fill-rule="evenodd" fill-opacity="1" /><path clip-path="url(#clip810)" d="M744.172 198.675 L744.172 200.758 L724.589 200.758 Q724.867 205.156 727.228 207.471 Q729.612 209.763 733.848 209.763 Q736.302 209.763 738.594 209.161 Q740.909 208.559 743.177 207.355 L743.177 211.383 Q740.885 212.355 738.478 212.865 Q736.071 213.374 733.594 213.374 Q727.39 213.374 723.756 209.763 Q720.145 206.152 720.145 199.994 Q720.145 193.629 723.571 189.902 Q727.02 186.152 732.853 186.152 Q738.085 186.152 741.117 189.531 Q744.172 192.888 744.172 198.675 M739.913 197.425 Q739.867 193.929 737.946 191.846 Q736.047 189.763 732.899 189.763 Q729.335 189.763 727.182 191.777 Q725.052 193.791 724.728 197.448 L739.913 197.425 Z" fill="#000000" fill-rule="evenodd" fill-opacity="1" /><path clip-path="url(#clip810)" d="M768.223 190.712 L768.223 176.684 L772.482 176.684 L772.482 212.702 L768.223 212.702 L768.223 208.814 Q766.881 211.128 764.82 212.263 Q762.783 213.374 759.913 213.374 Q755.214 213.374 752.251 209.624 Q749.311 205.874 749.311 199.763 Q749.311 193.652 752.251 189.902 Q755.214 186.152 759.913 186.152 Q762.783 186.152 764.82 187.286 Q766.881 188.397 768.223 190.712 M753.709 199.763 Q753.709 204.462 755.631 207.147 Q757.575 209.809 760.955 209.809 Q764.334 209.809 766.279 207.147 Q768.223 204.462 768.223 199.763 Q768.223 195.064 766.279 192.402 Q764.334 189.717 760.955 189.717 Q757.575 189.717 755.631 192.402 Q753.709 195.064 753.709 199.763 Z" fill="#000000" fill-rule="evenodd" fill-opacity="1" /><path clip-path="url(#clip810)" d="M797.737 208.767 L805.376 208.767 L805.376 182.402 L797.066 184.068 L797.066 179.809 L805.33 178.142 L810.005 178.142 L810.005 208.767 L817.644 208.767 L817.644 212.702 L797.737 212.702 L797.737 208.767 Z" fill="#000000" fill-rule="evenodd" fill-opacity="1" /><path clip-path="url(#clip810)" d="M843.015 187.541 L843.015 191.568 Q841.209 190.642 839.265 190.179 Q837.32 189.717 835.237 189.717 Q832.065 189.717 830.468 190.689 Q828.894 191.661 828.894 193.605 Q828.894 195.087 830.028 195.943 Q831.163 196.777 834.589 197.541 L836.047 197.865 Q840.584 198.837 842.482 200.619 Q844.403 202.378 844.403 205.55 Q844.403 209.161 841.533 211.267 Q838.686 213.374 833.686 213.374 Q831.603 213.374 829.334 212.957 Q827.089 212.564 824.589 211.753 L824.589 207.355 Q826.95 208.582 829.241 209.207 Q831.533 209.809 833.778 209.809 Q836.788 209.809 838.408 208.79 Q840.028 207.749 840.028 205.874 Q840.028 204.138 838.848 203.212 Q837.69 202.286 833.732 201.429 L832.251 201.082 Q828.292 200.249 826.533 198.536 Q824.774 196.8 824.774 193.791 Q824.774 190.133 827.366 188.142 Q829.959 186.152 834.728 186.152 Q837.089 186.152 839.172 186.499 Q841.255 186.846 843.015 187.541 Z" fill="#000000" fill-rule="evenodd" fill-opacity="1" /><path clip-path="url(#clip810)" d="M855.399 179.416 L855.399 186.777 L864.172 186.777 L864.172 190.087 L855.399 190.087 L855.399 204.161 Q855.399 207.332 856.255 208.235 Q857.135 209.138 859.797 209.138 L864.172 209.138 L864.172 212.702 L859.797 212.702 Q854.866 212.702 852.991 210.874 Q851.116 209.022 851.116 204.161 L851.116 190.087 L847.991 190.087 L847.991 186.777 L851.116 186.777 L851.116 179.416 L855.399 179.416 Z" fill="#000000" fill-rule="evenodd" fill-opacity="1" /><path clip-path="url(#clip810)" d="M894.889 189.763 Q891.463 189.763 889.473 192.448 Q887.482 195.11 887.482 199.763 Q887.482 204.415 889.449 207.101 Q891.44 209.763 894.889 209.763 Q898.292 209.763 900.283 207.078 Q902.273 204.392 902.273 199.763 Q902.273 195.156 900.283 192.471 Q898.292 189.763 894.889 189.763 M894.889 186.152 Q900.445 186.152 903.616 189.763 Q906.787 193.374 906.787 199.763 Q906.787 206.128 903.616 209.763 Q900.445 213.374 894.889 213.374 Q889.311 213.374 886.139 209.763 Q882.991 206.128 882.991 199.763 Q882.991 193.374 886.139 189.763 Q889.311 186.152 894.889 186.152 Z" fill="#000000" fill-rule="evenodd" fill-opacity="1" /><path clip-path="url(#clip810)" d="M928.871 190.758 Q928.153 190.341 927.296 190.156 Q926.463 189.948 925.445 189.948 Q921.834 189.948 919.889 192.309 Q917.968 194.647 917.968 199.045 L917.968 212.702 L913.685 212.702 L913.685 186.777 L917.968 186.777 L917.968 190.804 Q919.31 188.443 921.463 187.309 Q923.616 186.152 926.695 186.152 Q927.134 186.152 927.667 186.221 Q928.199 186.267 928.847 186.383 L928.871 190.758 Z" fill="#000000" fill-rule="evenodd" fill-opacity="1" /><path clip-path="url(#clip810)" d="M949.565 190.712 L949.565 176.684 L953.824 176.684 L953.824 212.702 L949.565 212.702 L949.565 208.814 Q948.222 211.128 946.162 212.263 Q944.125 213.374 941.255 213.374 Q936.556 213.374 933.593 209.624 Q930.653 205.874 930.653 199.763 Q930.653 193.652 933.593 189.902 Q936.556 186.152 941.255 186.152 Q944.125 186.152 946.162 187.286 Q948.222 188.397 949.565 190.712 M935.051 199.763 Q935.051 204.462 936.972 207.147 Q938.917 209.809 942.296 209.809 Q945.676 209.809 947.62 207.147 Q949.565 204.462 949.565 199.763 Q949.565 195.064 947.62 192.402 Q945.676 189.717 942.296 189.717 Q938.917 189.717 936.972 192.402 Q935.051 195.064 935.051 199.763 Z" fill="#000000" fill-rule="evenodd" fill-opacity="1" /><path clip-path="url(#clip810)" d="M984.773 198.675 L984.773 200.758 L965.19 200.758 Q965.468 205.156 967.829 207.471 Q970.213 209.763 974.449 209.763 Q976.903 209.763 979.194 209.161 Q981.509 208.559 983.778 207.355 L983.778 211.383 Q981.486 212.355 979.079 212.865 Q976.671 213.374 974.194 213.374 Q967.991 213.374 964.356 209.763 Q960.745 206.152 960.745 199.994 Q960.745 193.629 964.171 189.902 Q967.62 186.152 973.454 186.152 Q978.685 186.152 981.717 189.531 Q984.773 192.888 984.773 198.675 M980.514 197.425 Q980.467 193.929 978.546 191.846 Q976.648 189.763 973.5 189.763 Q969.935 189.763 967.782 191.777 Q965.653 193.791 965.329 197.448 L980.514 197.425 Z" fill="#000000" fill-rule="evenodd" fill-opacity="1" /><path clip-path="url(#clip810)" d="M1006.79 190.758 Q1006.07 190.341 1005.21 190.156 Q1004.38 189.948 1003.36 189.948 Q999.75 189.948 997.805 192.309 Q995.884 194.647 995.884 199.045 L995.884 212.702 L991.602 212.702 L991.602 186.777 L995.884 186.777 L995.884 190.804 Q997.227 188.443 999.379 187.309 Q1001.53 186.152 1004.61 186.152 Q1005.05 186.152 1005.58 186.221 Q1006.12 186.267 1006.76 186.383 L1006.79 190.758 Z" fill="#000000" fill-rule="evenodd" fill-opacity="1" /><path clip-path="url(#clip810)" d="M1043.38 190.712 L1043.38 176.684 L1047.64 176.684 L1047.64 212.702 L1043.38 212.702 L1043.38 208.814 Q1042.04 211.128 1039.98 212.263 Q1037.94 213.374 1035.07 213.374 Q1030.37 213.374 1027.41 209.624 Q1024.47 205.874 1024.47 199.763 Q1024.47 193.652 1027.41 189.902 Q1030.37 186.152 1035.07 186.152 Q1037.94 186.152 1039.98 187.286 Q1042.04 188.397 1043.38 190.712 M1028.87 199.763 Q1028.87 204.462 1030.79 207.147 Q1032.74 209.809 1036.12 209.809 Q1039.49 209.809 1041.44 207.147 Q1043.38 204.462 1043.38 199.763 Q1043.38 195.064 1041.44 192.402 Q1039.49 189.717 1036.12 189.717 Q1032.74 189.717 1030.79 192.402 Q1028.87 195.064 1028.87 199.763 Z" fill="#000000" fill-rule="evenodd" fill-opacity="1" /><path clip-path="url(#clip810)" d="M1078.59 198.675 L1078.59 200.758 L1059.01 200.758 Q1059.29 205.156 1061.65 207.471 Q1064.03 209.763 1068.27 209.763 Q1070.72 209.763 1073.01 209.161 Q1075.33 208.559 1077.6 207.355 L1077.6 211.383 Q1075.3 212.355 1072.9 212.865 Q1070.49 213.374 1068.01 213.374 Q1061.81 213.374 1058.18 209.763 Q1054.56 206.152 1054.56 199.994 Q1054.56 193.629 1057.99 189.902 Q1061.44 186.152 1067.27 186.152 Q1072.5 186.152 1075.54 189.531 Q1078.59 192.888 1078.59 198.675 M1074.33 197.425 Q1074.29 193.929 1072.37 191.846 Q1070.47 189.763 1067.32 189.763 Q1063.75 189.763 1061.6 191.777 Q1059.47 193.791 1059.15 197.448 L1074.33 197.425 Z" fill="#000000" fill-rule="evenodd" fill-opacity="1" /><path clip-path="url(#clip810)" d="M1100.61 190.758 Q1099.89 190.341 1099.03 190.156 Q1098.2 189.948 1097.18 189.948 Q1093.57 189.948 1091.62 192.309 Q1089.7 194.647 1089.7 199.045 L1089.7 212.702 L1085.42 212.702 L1085.42 186.777 L1089.7 186.777 L1089.7 190.804 Q1091.05 188.443 1093.2 187.309 Q1095.35 186.152 1098.43 186.152 Q1098.87 186.152 1099.4 186.221 Q1099.93 186.267 1100.58 186.383 L1100.61 190.758 Z" fill="#000000" fill-rule="evenodd" fill-opacity="1" /><path clip-path="url(#clip810)" d="M1105.07 186.777 L1109.33 186.777 L1109.33 212.702 L1105.07 212.702 L1105.07 186.777 M1105.07 176.684 L1109.33 176.684 L1109.33 182.078 L1105.07 182.078 L1105.07 176.684 Z" fill="#000000" fill-rule="evenodd" fill-opacity="1" /><path clip-path="url(#clip810)" d="M1115.19 186.777 L1119.7 186.777 L1127.8 208.536 L1135.91 186.777 L1140.42 186.777 L1130.7 212.702 L1124.91 212.702 L1115.19 186.777 Z" fill="#000000" fill-rule="evenodd" fill-opacity="1" /><path clip-path="url(#clip810)" d="M1158.08 199.67 Q1152.92 199.67 1150.93 200.851 Q1148.94 202.031 1148.94 204.878 Q1148.94 207.147 1150.42 208.49 Q1151.92 209.809 1154.49 209.809 Q1158.04 209.809 1160.17 207.309 Q1162.32 204.786 1162.32 200.619 L1162.32 199.67 L1158.08 199.67 M1166.58 197.911 L1166.58 212.702 L1162.32 212.702 L1162.32 208.767 Q1160.86 211.128 1158.68 212.263 Q1156.51 213.374 1153.36 213.374 Q1149.38 213.374 1147.02 211.152 Q1144.68 208.906 1144.68 205.156 Q1144.68 200.781 1147.6 198.559 Q1150.54 196.337 1156.35 196.337 L1162.32 196.337 L1162.32 195.92 Q1162.32 192.98 1160.37 191.383 Q1158.45 189.763 1154.96 189.763 Q1152.74 189.763 1150.63 190.295 Q1148.52 190.828 1146.58 191.892 L1146.58 187.957 Q1148.92 187.054 1151.11 186.615 Q1153.31 186.152 1155.4 186.152 Q1161.02 186.152 1163.8 189.068 Q1166.58 191.985 1166.58 197.911 Z" fill="#000000" fill-rule="evenodd" fill-opacity="1" /><path clip-path="url(#clip810)" d="M1179.56 179.416 L1179.56 186.777 L1188.34 186.777 L1188.34 190.087 L1179.56 190.087 L1179.56 204.161 Q1179.56 207.332 1180.42 208.235 Q1181.3 209.138 1183.96 209.138 L1188.34 209.138 L1188.34 212.702 L1183.96 212.702 Q1179.03 212.702 1177.16 210.874 Q1175.28 209.022 1175.28 204.161 L1175.28 190.087 L1172.16 190.087 L1172.16 186.777 L1175.28 186.777 L1175.28 179.416 L1179.56 179.416 Z" fill="#000000" fill-rule="evenodd" fill-opacity="1" /><path clip-path="url(#clip810)" d="M1193.94 186.777 L1198.2 186.777 L1198.2 212.702 L1193.94 212.702 L1193.94 186.777 M1193.94 176.684 L1198.2 176.684 L1198.2 182.078 L1193.94 182.078 L1193.94 176.684 Z" fill="#000000" fill-rule="evenodd" fill-opacity="1" /><path clip-path="url(#clip810)" d="M1204.05 186.777 L1208.57 186.777 L1216.67 208.536 L1224.77 186.777 L1229.29 186.777 L1219.56 212.702 L1213.78 212.702 L1204.05 186.777 Z" fill="#000000" fill-rule="evenodd" fill-opacity="1" /><path clip-path="url(#clip810)" d="M1257.34 198.675 L1257.34 200.758 L1237.76 200.758 Q1238.04 205.156 1240.4 207.471 Q1242.78 209.763 1247.02 209.763 Q1249.47 209.763 1251.76 209.161 Q1254.08 208.559 1256.35 207.355 L1256.35 211.383 Q1254.05 212.355 1251.65 212.865 Q1249.24 213.374 1246.76 213.374 Q1240.56 213.374 1236.92 209.763 Q1233.31 206.152 1233.31 199.994 Q1233.31 193.629 1236.74 189.902 Q1240.19 186.152 1246.02 186.152 Q1251.25 186.152 1254.29 189.531 Q1257.34 192.888 1257.34 198.675 M1253.08 197.425 Q1253.04 193.929 1251.11 191.846 Q1249.22 189.763 1246.07 189.763 Q1242.5 189.763 1240.35 191.777 Q1238.22 193.791 1237.9 197.448 L1253.08 197.425 Z" fill="#000000" fill-rule="evenodd" fill-opacity="1" /></svg>
