<?xml version="1.0" encoding="utf-8"?>
<svg xmlns="http://www.w3.org/2000/svg" xmlns:xlink="http://www.w3.org/1999/xlink" width="600" height="400" viewBox="0 0 2400 1600">
<defs>
  <clipPath id="clip190">
    <rect x="0" y="0" width="2400" height="1600"/>
  </clipPath>
</defs>
<path clip-path="url(#clip190)" d="
M0 1600 L2400 1600 L2400 0 L0 0  Z
  " fill="#ffffff" fill-rule="evenodd" fill-opacity="1"/>
<defs>
  <clipPath id="clip191">
    <rect x="480" y="0" width="1681" height="1600"/>
  </clipPath>
</defs>
<path clip-path="url(#clip190)" d="
M353.794 1318.93 L2352.76 1318.93 L2352.76 47.2441 L353.794 47.2441  Z
  " fill="#ffffff" fill-rule="evenodd" fill-opacity="1"/>
<defs>
  <clipPath id="clip192">
    <rect x="353" y="47" width="2000" height="1273"/>
  </clipPath>
</defs>
<polyline clip-path="url(#clip192)" style="stroke:#000000; stroke-linecap:butt; stroke-linejoin:round; stroke-width:2; stroke-opacity:0.1; fill:none" points="
  598.95,1318.93 598.95,47.2441 
  "/>
<polyline clip-path="url(#clip192)" style="stroke:#000000; stroke-linecap:butt; stroke-linejoin:round; stroke-width:2; stroke-opacity:0.1; fill:none" points="
  976.112,1318.93 976.112,47.2441 
  "/>
<polyline clip-path="url(#clip192)" style="stroke:#000000; stroke-linecap:butt; stroke-linejoin:round; stroke-width:2; stroke-opacity:0.1; fill:none" points="
  1353.27,1318.93 1353.27,47.2441 
  "/>
<polyline clip-path="url(#clip192)" style="stroke:#000000; stroke-linecap:butt; stroke-linejoin:round; stroke-width:2; stroke-opacity:0.1; fill:none" points="
  1730.44,1318.93 1730.44,47.2441 
  "/>
<polyline clip-path="url(#clip192)" style="stroke:#000000; stroke-linecap:butt; stroke-linejoin:round; stroke-width:2; stroke-opacity:0.1; fill:none" points="
  2107.6,1318.93 2107.6,47.2441 
  "/>
<polyline clip-path="url(#clip190)" style="stroke:#000000; stroke-linecap:butt; stroke-linejoin:round; stroke-width:4; stroke-opacity:1; fill:none" points="
  353.794,1318.93 2352.76,1318.93 
  "/>
<polyline clip-path="url(#clip190)" style="stroke:#000000; stroke-linecap:butt; stroke-linejoin:round; stroke-width:4; stroke-opacity:1; fill:none" points="
  598.95,1318.93 598.95,1300.03 
  "/>
<polyline clip-path="url(#clip190)" style="stroke:#000000; stroke-linecap:butt; stroke-linejoin:round; stroke-width:4; stroke-opacity:1; fill:none" points="
  976.112,1318.93 976.112,1300.03 
  "/>
<polyline clip-path="url(#clip190)" style="stroke:#000000; stroke-linecap:butt; stroke-linejoin:round; stroke-width:4; stroke-opacity:1; fill:none" points="
  1353.27,1318.93 1353.27,1300.03 
  "/>
<polyline clip-path="url(#clip190)" style="stroke:#000000; stroke-linecap:butt; stroke-linejoin:round; stroke-width:4; stroke-opacity:1; fill:none" points="
  1730.44,1318.93 1730.44,1300.03 
  "/>
<polyline clip-path="url(#clip190)" style="stroke:#000000; stroke-linecap:butt; stroke-linejoin:round; stroke-width:4; stroke-opacity:1; fill:none" points="
  2107.6,1318.93 2107.6,1300.03 
  "/>
<path clip-path="url(#clip190)" d="M567.85 1362.77 L597.526 1362.77 L597.526 1366.71 L567.85 1366.71 L567.85 1362.77 Z" fill="#000000" fill-rule="evenodd" fill-opacity="1" /><path clip-path="url(#clip190)" d="M620.466 1349.11 L608.66 1367.56 L620.466 1367.56 L620.466 1349.11 M619.239 1345.04 L625.119 1345.04 L625.119 1367.56 L630.049 1367.56 L630.049 1371.45 L625.119 1371.45 L625.119 1379.6 L620.466 1379.6 L620.466 1371.45 L604.864 1371.45 L604.864 1366.94 L619.239 1345.04 Z" fill="#000000" fill-rule="evenodd" fill-opacity="1" /><path clip-path="url(#clip190)" d="M946.055 1362.77 L975.73 1362.77 L975.73 1366.71 L946.055 1366.71 L946.055 1362.77 Z" fill="#000000" fill-rule="evenodd" fill-opacity="1" /><path clip-path="url(#clip190)" d="M989.851 1375.66 L1006.17 1375.66 L1006.17 1379.6 L984.226 1379.6 L984.226 1375.66 Q986.888 1372.91 991.471 1368.28 Q996.078 1363.63 997.258 1362.29 Q999.503 1359.76 1000.38 1358.03 Q1001.29 1356.27 1001.29 1354.58 Q1001.29 1351.82 999.341 1350.09 Q997.42 1348.35 994.318 1348.35 Q992.119 1348.35 989.665 1349.11 Q987.235 1349.88 984.457 1351.43 L984.457 1346.71 Q987.281 1345.57 989.735 1344.99 Q992.189 1344.41 994.226 1344.41 Q999.596 1344.41 1002.79 1347.1 Q1005.98 1349.79 1005.98 1354.28 Q1005.98 1356.41 1005.17 1358.33 Q1004.39 1360.22 1002.28 1362.82 Q1001.7 1363.49 998.601 1366.71 Q995.499 1369.9 989.851 1375.66 Z" fill="#000000" fill-rule="evenodd" fill-opacity="1" /><path clip-path="url(#clip190)" d="M1353.27 1348.12 Q1349.66 1348.12 1347.84 1351.68 Q1346.03 1355.23 1346.03 1362.35 Q1346.03 1369.46 1347.84 1373.03 Q1349.66 1376.57 1353.27 1376.57 Q1356.91 1376.57 1358.71 1373.03 Q1360.54 1369.46 1360.54 1362.35 Q1360.54 1355.23 1358.71 1351.68 Q1356.91 1348.12 1353.27 1348.12 M1353.27 1344.41 Q1359.09 1344.41 1362.14 1349.02 Q1365.22 1353.6 1365.22 1362.35 Q1365.22 1371.08 1362.14 1375.69 Q1359.09 1380.27 1353.27 1380.27 Q1347.46 1380.27 1344.39 1375.69 Q1341.33 1371.08 1341.33 1362.35 Q1341.33 1353.6 1344.39 1349.02 Q1347.46 1344.41 1353.27 1344.41 Z" fill="#000000" fill-rule="evenodd" fill-opacity="1" /><path clip-path="url(#clip190)" d="M1725.09 1375.66 L1741.41 1375.66 L1741.41 1379.6 L1719.47 1379.6 L1719.47 1375.66 Q1722.13 1372.91 1726.71 1368.28 Q1731.32 1363.63 1732.5 1362.29 Q1734.74 1359.76 1735.62 1358.03 Q1736.53 1356.27 1736.53 1354.58 Q1736.53 1351.82 1734.58 1350.09 Q1732.66 1348.35 1729.56 1348.35 Q1727.36 1348.35 1724.91 1349.11 Q1722.47 1349.88 1719.7 1351.43 L1719.7 1346.71 Q1722.52 1345.57 1724.97 1344.99 Q1727.43 1344.41 1729.47 1344.41 Q1734.84 1344.41 1738.03 1347.1 Q1741.22 1349.79 1741.22 1354.28 Q1741.22 1356.41 1740.41 1358.33 Q1739.63 1360.22 1737.52 1362.82 Q1736.94 1363.49 1733.84 1366.71 Q1730.74 1369.9 1725.09 1375.66 Z" fill="#000000" fill-rule="evenodd" fill-opacity="1" /><path clip-path="url(#clip190)" d="M2110.61 1349.11 L2098.8 1367.56 L2110.61 1367.56 L2110.61 1349.11 M2109.38 1345.04 L2115.26 1345.04 L2115.26 1367.56 L2120.19 1367.56 L2120.19 1371.45 L2115.26 1371.45 L2115.26 1379.6 L2110.61 1379.6 L2110.61 1371.45 L2095.01 1371.45 L2095.01 1366.94 L2109.38 1345.04 Z" fill="#000000" fill-rule="evenodd" fill-opacity="1" /><path clip-path="url(#clip190)" d="M1369.89 1428.14 L1357 1445.49 L1370.56 1463.79 L1363.65 1463.79 L1353.27 1449.79 L1342.9 1463.79 L1335.99 1463.79 L1349.84 1445.14 L1337.17 1428.14 L1344.08 1428.14 L1353.53 1440.84 L1362.98 1428.14 L1369.89 1428.14 Z" fill="#000000" fill-rule="evenodd" fill-opacity="1" /><polyline clip-path="url(#clip192)" style="stroke:#000000; stroke-linecap:butt; stroke-linejoin:round; stroke-width:2; stroke-opacity:0.1; fill:none" points="
  353.794,1285.97 2352.76,1285.97 
  "/>
<polyline clip-path="url(#clip192)" style="stroke:#000000; stroke-linecap:butt; stroke-linejoin:round; stroke-width:2; stroke-opacity:0.1; fill:none" points="
  353.794,979.775 2352.76,979.775 
  "/>
<polyline clip-path="url(#clip192)" style="stroke:#000000; stroke-linecap:butt; stroke-linejoin:round; stroke-width:2; stroke-opacity:0.1; fill:none" points="
  353.794,673.586 2352.76,673.586 
  "/>
<polyline clip-path="url(#clip192)" style="stroke:#000000; stroke-linecap:butt; stroke-linejoin:round; stroke-width:2; stroke-opacity:0.1; fill:none" points="
  353.794,367.396 2352.76,367.396 
  "/>
<polyline clip-path="url(#clip192)" style="stroke:#000000; stroke-linecap:butt; stroke-linejoin:round; stroke-width:2; stroke-opacity:0.1; fill:none" points="
  353.794,61.2064 2352.76,61.2064 
  "/>
<polyline clip-path="url(#clip190)" style="stroke:#000000; stroke-linecap:butt; stroke-linejoin:round; stroke-width:4; stroke-opacity:1; fill:none" points="
  353.794,1318.93 353.794,47.2441 
  "/>
<polyline clip-path="url(#clip190)" style="stroke:#000000; stroke-linecap:butt; stroke-linejoin:round; stroke-width:4; stroke-opacity:1; fill:none" points="
  353.794,1285.97 372.692,1285.97 
  "/>
<polyline clip-path="url(#clip190)" style="stroke:#000000; stroke-linecap:butt; stroke-linejoin:round; stroke-width:4; stroke-opacity:1; fill:none" points="
  353.794,979.775 372.692,979.775 
  "/>
<polyline clip-path="url(#clip190)" style="stroke:#000000; stroke-linecap:butt; stroke-linejoin:round; stroke-width:4; stroke-opacity:1; fill:none" points="
  353.794,673.586 372.692,673.586 
  "/>
<polyline clip-path="url(#clip190)" style="stroke:#000000; stroke-linecap:butt; stroke-linejoin:round; stroke-width:4; stroke-opacity:1; fill:none" points="
  353.794,367.396 372.692,367.396 
  "/>
<polyline clip-path="url(#clip190)" style="stroke:#000000; stroke-linecap:butt; stroke-linejoin:round; stroke-width:4; stroke-opacity:1; fill:none" points="
  353.794,61.2064 372.692,61.2064 
  "/>
<path clip-path="url(#clip190)" d="M230.457 1271.76 Q226.845 1271.76 225.017 1275.33 Q223.211 1278.87 223.211 1286 Q223.211 1293.11 225.017 1296.67 Q226.845 1300.21 230.457 1300.21 Q234.091 1300.21 235.896 1296.67 Q237.725 1293.11 237.725 1286 Q237.725 1278.87 235.896 1275.33 Q234.091 1271.76 230.457 1271.76 M230.457 1268.06 Q236.267 1268.06 239.322 1272.67 Q242.401 1277.25 242.401 1286 Q242.401 1294.73 239.322 1299.33 Q236.267 1303.92 230.457 1303.92 Q224.646 1303.92 221.568 1299.33 Q218.512 1294.73 218.512 1286 Q218.512 1277.25 221.568 1272.67 Q224.646 1268.06 230.457 1268.06 Z" fill="#000000" fill-rule="evenodd" fill-opacity="1" /><path clip-path="url(#clip190)" d="M250.618 1297.37 L255.503 1297.37 L255.503 1303.25 L250.618 1303.25 L250.618 1297.37 Z" fill="#000000" fill-rule="evenodd" fill-opacity="1" /><path clip-path="url(#clip190)" d="M275.688 1271.76 Q272.077 1271.76 270.248 1275.33 Q268.442 1278.87 268.442 1286 Q268.442 1293.11 270.248 1296.67 Q272.077 1300.21 275.688 1300.21 Q279.322 1300.21 281.128 1296.67 Q282.956 1293.11 282.956 1286 Q282.956 1278.87 281.128 1275.33 Q279.322 1271.76 275.688 1271.76 M275.688 1268.06 Q281.498 1268.06 284.553 1272.67 Q287.632 1277.25 287.632 1286 Q287.632 1294.73 284.553 1299.33 Q281.498 1303.92 275.688 1303.92 Q269.878 1303.92 266.799 1299.33 Q263.743 1294.73 263.743 1286 Q263.743 1277.25 266.799 1272.67 Q269.878 1268.06 275.688 1268.06 Z" fill="#000000" fill-rule="evenodd" fill-opacity="1" /><path clip-path="url(#clip190)" d="M305.85 1271.76 Q302.239 1271.76 300.41 1275.33 Q298.604 1278.87 298.604 1286 Q298.604 1293.11 300.41 1296.67 Q302.239 1300.21 305.85 1300.21 Q309.484 1300.21 311.289 1296.67 Q313.118 1293.11 313.118 1286 Q313.118 1278.87 311.289 1275.33 Q309.484 1271.76 305.85 1271.76 M305.85 1268.06 Q311.66 1268.06 314.715 1272.67 Q317.794 1277.25 317.794 1286 Q317.794 1294.73 314.715 1299.33 Q311.66 1303.92 305.85 1303.92 Q300.039 1303.92 296.961 1299.33 Q293.905 1294.73 293.905 1286 Q293.905 1277.25 296.961 1272.67 Q300.039 1268.06 305.85 1268.06 Z" fill="#000000" fill-rule="evenodd" fill-opacity="1" /><path clip-path="url(#clip190)" d="M231.452 965.574 Q227.841 965.574 226.012 969.139 Q224.207 972.681 224.207 979.81 Q224.207 986.917 226.012 990.481 Q227.841 994.023 231.452 994.023 Q235.086 994.023 236.892 990.481 Q238.72 986.917 238.72 979.81 Q238.72 972.681 236.892 969.139 Q235.086 965.574 231.452 965.574 M231.452 961.87 Q237.262 961.87 240.318 966.477 Q243.396 971.06 243.396 979.81 Q243.396 988.537 240.318 993.143 Q237.262 997.727 231.452 997.727 Q225.642 997.727 222.563 993.143 Q219.507 988.537 219.507 979.81 Q219.507 971.06 222.563 966.477 Q225.642 961.87 231.452 961.87 Z" fill="#000000" fill-rule="evenodd" fill-opacity="1" /><path clip-path="url(#clip190)" d="M251.614 991.176 L256.498 991.176 L256.498 997.055 L251.614 997.055 L251.614 991.176 Z" fill="#000000" fill-rule="evenodd" fill-opacity="1" /><path clip-path="url(#clip190)" d="M270.711 993.12 L287.03 993.12 L287.03 997.055 L265.086 997.055 L265.086 993.12 Q267.748 990.366 272.331 985.736 Q276.938 981.083 278.118 979.741 Q280.364 977.218 281.243 975.482 Q282.146 973.722 282.146 972.032 Q282.146 969.278 280.202 967.542 Q278.28 965.806 275.178 965.806 Q272.979 965.806 270.526 966.57 Q268.095 967.333 265.317 968.884 L265.317 964.162 Q268.141 963.028 270.595 962.449 Q273.049 961.87 275.086 961.87 Q280.456 961.87 283.651 964.556 Q286.845 967.241 286.845 971.732 Q286.845 973.861 286.035 975.782 Q285.248 977.681 283.141 980.273 Q282.563 980.944 279.461 984.162 Q276.359 987.356 270.711 993.12 Z" fill="#000000" fill-rule="evenodd" fill-opacity="1" /><path clip-path="url(#clip190)" d="M296.891 962.495 L315.248 962.495 L315.248 966.431 L301.174 966.431 L301.174 974.903 Q302.192 974.556 303.211 974.394 Q304.229 974.208 305.248 974.208 Q311.035 974.208 314.414 977.38 Q317.794 980.551 317.794 985.968 Q317.794 991.546 314.322 994.648 Q310.85 997.727 304.53 997.727 Q302.354 997.727 300.086 997.356 Q297.84 996.986 295.433 996.245 L295.433 991.546 Q297.516 992.681 299.739 993.236 Q301.961 993.792 304.438 993.792 Q308.442 993.792 310.78 991.685 Q313.118 989.579 313.118 985.968 Q313.118 982.356 310.78 980.25 Q308.442 978.144 304.438 978.144 Q302.563 978.144 300.688 978.56 Q298.836 978.977 296.891 979.857 L296.891 962.495 Z" fill="#000000" fill-rule="evenodd" fill-opacity="1" /><path clip-path="url(#clip190)" d="M230.457 659.384 Q226.845 659.384 225.017 662.949 Q223.211 666.491 223.211 673.621 Q223.211 680.727 225.017 684.292 Q226.845 687.833 230.457 687.833 Q234.091 687.833 235.896 684.292 Q237.725 680.727 237.725 673.621 Q237.725 666.491 235.896 662.949 Q234.091 659.384 230.457 659.384 M230.457 655.681 Q236.267 655.681 239.322 660.287 Q242.401 664.871 242.401 673.621 Q242.401 682.347 239.322 686.954 Q236.267 691.537 230.457 691.537 Q224.646 691.537 221.568 686.954 Q218.512 682.347 218.512 673.621 Q218.512 664.871 221.568 660.287 Q224.646 655.681 230.457 655.681 Z" fill="#000000" fill-rule="evenodd" fill-opacity="1" /><path clip-path="url(#clip190)" d="M250.618 684.986 L255.503 684.986 L255.503 690.866 L250.618 690.866 L250.618 684.986 Z" fill="#000000" fill-rule="evenodd" fill-opacity="1" /><path clip-path="url(#clip190)" d="M265.734 656.306 L284.09 656.306 L284.09 660.241 L270.016 660.241 L270.016 668.713 Q271.035 668.366 272.054 668.204 Q273.072 668.019 274.091 668.019 Q279.878 668.019 283.257 671.19 Q286.637 674.361 286.637 679.778 Q286.637 685.357 283.165 688.458 Q279.692 691.537 273.373 691.537 Q271.197 691.537 268.929 691.167 Q266.683 690.796 264.276 690.056 L264.276 685.357 Q266.359 686.491 268.581 687.046 Q270.804 687.602 273.28 687.602 Q277.285 687.602 279.623 685.495 Q281.961 683.389 281.961 679.778 Q281.961 676.167 279.623 674.06 Q277.285 671.954 273.28 671.954 Q271.405 671.954 269.53 672.371 Q267.679 672.787 265.734 673.667 L265.734 656.306 Z" fill="#000000" fill-rule="evenodd" fill-opacity="1" /><path clip-path="url(#clip190)" d="M305.85 659.384 Q302.239 659.384 300.41 662.949 Q298.604 666.491 298.604 673.621 Q298.604 680.727 300.41 684.292 Q302.239 687.833 305.85 687.833 Q309.484 687.833 311.289 684.292 Q313.118 680.727 313.118 673.621 Q313.118 666.491 311.289 662.949 Q309.484 659.384 305.85 659.384 M305.85 655.681 Q311.66 655.681 314.715 660.287 Q317.794 664.871 317.794 673.621 Q317.794 682.347 314.715 686.954 Q311.66 691.537 305.85 691.537 Q300.039 691.537 296.961 686.954 Q293.905 682.347 293.905 673.621 Q293.905 664.871 296.961 660.287 Q300.039 655.681 305.85 655.681 Z" fill="#000000" fill-rule="evenodd" fill-opacity="1" /><path clip-path="url(#clip190)" d="M231.452 353.195 Q227.841 353.195 226.012 356.76 Q224.207 360.301 224.207 367.431 Q224.207 374.537 226.012 378.102 Q227.841 381.644 231.452 381.644 Q235.086 381.644 236.892 378.102 Q238.72 374.537 238.72 367.431 Q238.72 360.301 236.892 356.76 Q235.086 353.195 231.452 353.195 M231.452 349.491 Q237.262 349.491 240.318 354.098 Q243.396 358.681 243.396 367.431 Q243.396 376.158 240.318 380.764 Q237.262 385.347 231.452 385.347 Q225.642 385.347 222.563 380.764 Q219.507 376.158 219.507 367.431 Q219.507 358.681 222.563 354.098 Q225.642 349.491 231.452 349.491 Z" fill="#000000" fill-rule="evenodd" fill-opacity="1" /><path clip-path="url(#clip190)" d="M251.614 378.796 L256.498 378.796 L256.498 384.676 L251.614 384.676 L251.614 378.796 Z" fill="#000000" fill-rule="evenodd" fill-opacity="1" /><path clip-path="url(#clip190)" d="M265.503 350.116 L287.725 350.116 L287.725 352.107 L275.178 384.676 L270.294 384.676 L282.1 354.051 L265.503 354.051 L265.503 350.116 Z" fill="#000000" fill-rule="evenodd" fill-opacity="1" /><path clip-path="url(#clip190)" d="M296.891 350.116 L315.248 350.116 L315.248 354.051 L301.174 354.051 L301.174 362.523 Q302.192 362.176 303.211 362.014 Q304.229 361.829 305.248 361.829 Q311.035 361.829 314.414 365 Q317.794 368.172 317.794 373.588 Q317.794 379.167 314.322 382.269 Q310.85 385.347 304.53 385.347 Q302.354 385.347 300.086 384.977 Q297.84 384.607 295.433 383.866 L295.433 379.167 Q297.516 380.301 299.739 380.857 Q301.961 381.412 304.438 381.412 Q308.442 381.412 310.78 379.306 Q313.118 377.199 313.118 373.588 Q313.118 369.977 310.78 367.871 Q308.442 365.764 304.438 365.764 Q302.563 365.764 300.688 366.181 Q298.836 366.597 296.891 367.477 L296.891 350.116 Z" fill="#000000" fill-rule="evenodd" fill-opacity="1" /><path clip-path="url(#clip190)" d="M221.267 74.5512 L228.906 74.5512 L228.906 48.1856 L220.595 49.8523 L220.595 45.593 L228.859 43.9264 L233.535 43.9264 L233.535 74.5512 L241.174 74.5512 L241.174 78.4864 L221.267 78.4864 L221.267 74.5512 Z" fill="#000000" fill-rule="evenodd" fill-opacity="1" /><path clip-path="url(#clip190)" d="M250.618 72.6068 L255.503 72.6068 L255.503 78.4864 L250.618 78.4864 L250.618 72.6068 Z" fill="#000000" fill-rule="evenodd" fill-opacity="1" /><path clip-path="url(#clip190)" d="M275.688 47.0051 Q272.077 47.0051 270.248 50.5699 Q268.442 54.1115 268.442 61.2411 Q268.442 68.3475 270.248 71.9123 Q272.077 75.454 275.688 75.454 Q279.322 75.454 281.128 71.9123 Q282.956 68.3475 282.956 61.2411 Q282.956 54.1115 281.128 50.5699 Q279.322 47.0051 275.688 47.0051 M275.688 43.3014 Q281.498 43.3014 284.553 47.9078 Q287.632 52.4911 287.632 61.2411 Q287.632 69.9679 284.553 74.5744 Q281.498 79.1577 275.688 79.1577 Q269.878 79.1577 266.799 74.5744 Q263.743 69.9679 263.743 61.2411 Q263.743 52.4911 266.799 47.9078 Q269.878 43.3014 275.688 43.3014 Z" fill="#000000" fill-rule="evenodd" fill-opacity="1" /><path clip-path="url(#clip190)" d="M305.85 47.0051 Q302.239 47.0051 300.41 50.5699 Q298.604 54.1115 298.604 61.2411 Q298.604 68.3475 300.41 71.9123 Q302.239 75.454 305.85 75.454 Q309.484 75.454 311.289 71.9123 Q313.118 68.3475 313.118 61.2411 Q313.118 54.1115 311.289 50.5699 Q309.484 47.0051 305.85 47.0051 M305.85 43.3014 Q311.66 43.3014 314.715 47.9078 Q317.794 52.4911 317.794 61.2411 Q317.794 69.9679 314.715 74.5744 Q311.66 79.1577 305.85 79.1577 Q300.039 79.1577 296.961 74.5744 Q293.905 69.9679 293.905 61.2411 Q293.905 52.4911 296.961 47.9078 Q300.039 43.3014 305.85 43.3014 Z" fill="#000000" fill-rule="evenodd" fill-opacity="1" /><path clip-path="url(#clip190)" d="M171.566 681.399 Q177.932 683.882 179.874 686.237 Q181.815 688.592 181.815 692.539 L181.815 697.218 L176.913 697.218 L176.913 693.78 Q176.913 691.361 175.768 690.025 Q174.622 688.688 170.357 687.065 L167.683 686.014 L132.608 700.433 L132.608 694.226 L160.49 683.086 L132.608 671.946 L132.608 665.739 L171.566 681.399 Z" fill="#000000" fill-rule="evenodd" fill-opacity="1" /><polyline clip-path="url(#clip192)" style="stroke:#009af9; stroke-linecap:butt; stroke-linejoin:round; stroke-width:4; stroke-opacity:1; fill:none" points="
  410.368,1282.94 428.785,1282.63 599.072,1277.76 701.408,1271.92 787.931,1263.89 881.92,1250.05 968.569,1230.05 1015.02,1215.34 1061.47,1197.05 1115.28,1170.45 
  1169.1,1136.94 1216.92,1100.44 1264.75,1056.9 1306.68,1012.59 1348.62,962.485 1440.07,834.955 1532.06,689.489 1633.77,527.242 1730.54,390.466 1780.85,330.307 
  1831.16,278.472 1873.51,241.193 1915.86,209.369 1967.56,177.204 2019.27,151.437 2067.87,132.123 2116.48,116.741 2194.35,98.5275 2272.21,86.1597 2284.2,84.6527 
  2296.18,83.2351 
  "/>
<circle clip-path="url(#clip192)" cx="598.95" cy="1281.69" r="14" fill="#e26f46" fill-rule="evenodd" fill-opacity="1" stroke="#000000" stroke-opacity="1" stroke-width="3.2"/>
<circle clip-path="url(#clip192)" cx="617.808" cy="1276.77" r="14" fill="#e26f46" fill-rule="evenodd" fill-opacity="1" stroke="#000000" stroke-opacity="1" stroke-width="3.2"/>
<circle clip-path="url(#clip192)" cx="636.666" cy="1278.28" r="14" fill="#e26f46" fill-rule="evenodd" fill-opacity="1" stroke="#000000" stroke-opacity="1" stroke-width="3.2"/>
<circle clip-path="url(#clip192)" cx="655.524" cy="1281.35" r="14" fill="#e26f46" fill-rule="evenodd" fill-opacity="1" stroke="#000000" stroke-opacity="1" stroke-width="3.2"/>
<circle clip-path="url(#clip192)" cx="674.382" cy="1266.9" r="14" fill="#e26f46" fill-rule="evenodd" fill-opacity="1" stroke="#000000" stroke-opacity="1" stroke-width="3.2"/>
<circle clip-path="url(#clip192)" cx="693.24" cy="1275.73" r="14" fill="#e26f46" fill-rule="evenodd" fill-opacity="1" stroke="#000000" stroke-opacity="1" stroke-width="3.2"/>
<circle clip-path="url(#clip192)" cx="712.098" cy="1262.57" r="14" fill="#e26f46" fill-rule="evenodd" fill-opacity="1" stroke="#000000" stroke-opacity="1" stroke-width="3.2"/>
<circle clip-path="url(#clip192)" cx="730.957" cy="1273.14" r="14" fill="#e26f46" fill-rule="evenodd" fill-opacity="1" stroke="#000000" stroke-opacity="1" stroke-width="3.2"/>
<circle clip-path="url(#clip192)" cx="749.815" cy="1257.7" r="14" fill="#e26f46" fill-rule="evenodd" fill-opacity="1" stroke="#000000" stroke-opacity="1" stroke-width="3.2"/>
<circle clip-path="url(#clip192)" cx="768.673" cy="1243.11" r="14" fill="#e26f46" fill-rule="evenodd" fill-opacity="1" stroke="#000000" stroke-opacity="1" stroke-width="3.2"/>
<circle clip-path="url(#clip192)" cx="787.531" cy="1270.31" r="14" fill="#e26f46" fill-rule="evenodd" fill-opacity="1" stroke="#000000" stroke-opacity="1" stroke-width="3.2"/>
<circle clip-path="url(#clip192)" cx="806.389" cy="1236.57" r="14" fill="#e26f46" fill-rule="evenodd" fill-opacity="1" stroke="#000000" stroke-opacity="1" stroke-width="3.2"/>
<circle clip-path="url(#clip192)" cx="825.247" cy="1255.12" r="14" fill="#e26f46" fill-rule="evenodd" fill-opacity="1" stroke="#000000" stroke-opacity="1" stroke-width="3.2"/>
<circle clip-path="url(#clip192)" cx="844.105" cy="1261.84" r="14" fill="#e26f46" fill-rule="evenodd" fill-opacity="1" stroke="#000000" stroke-opacity="1" stroke-width="3.2"/>
<circle clip-path="url(#clip192)" cx="862.964" cy="1255.59" r="14" fill="#e26f46" fill-rule="evenodd" fill-opacity="1" stroke="#000000" stroke-opacity="1" stroke-width="3.2"/>
<circle clip-path="url(#clip192)" cx="881.822" cy="1253.87" r="14" fill="#e26f46" fill-rule="evenodd" fill-opacity="1" stroke="#000000" stroke-opacity="1" stroke-width="3.2"/>
<circle clip-path="url(#clip192)" cx="900.68" cy="1260.27" r="14" fill="#e26f46" fill-rule="evenodd" fill-opacity="1" stroke="#000000" stroke-opacity="1" stroke-width="3.2"/>
<circle clip-path="url(#clip192)" cx="919.538" cy="1246.67" r="14" fill="#e26f46" fill-rule="evenodd" fill-opacity="1" stroke="#000000" stroke-opacity="1" stroke-width="3.2"/>
<circle clip-path="url(#clip192)" cx="938.396" cy="1242.39" r="14" fill="#e26f46" fill-rule="evenodd" fill-opacity="1" stroke="#000000" stroke-opacity="1" stroke-width="3.2"/>
<circle clip-path="url(#clip192)" cx="957.254" cy="1216.62" r="14" fill="#e26f46" fill-rule="evenodd" fill-opacity="1" stroke="#000000" stroke-opacity="1" stroke-width="3.2"/>
<circle clip-path="url(#clip192)" cx="976.112" cy="1221.65" r="14" fill="#e26f46" fill-rule="evenodd" fill-opacity="1" stroke="#000000" stroke-opacity="1" stroke-width="3.2"/>
<circle clip-path="url(#clip192)" cx="994.97" cy="1221.11" r="14" fill="#e26f46" fill-rule="evenodd" fill-opacity="1" stroke="#000000" stroke-opacity="1" stroke-width="3.2"/>
<circle clip-path="url(#clip192)" cx="1013.83" cy="1210.93" r="14" fill="#e26f46" fill-rule="evenodd" fill-opacity="1" stroke="#000000" stroke-opacity="1" stroke-width="3.2"/>
<circle clip-path="url(#clip192)" cx="1032.69" cy="1216.02" r="14" fill="#e26f46" fill-rule="evenodd" fill-opacity="1" stroke="#000000" stroke-opacity="1" stroke-width="3.2"/>
<circle clip-path="url(#clip192)" cx="1051.54" cy="1197.09" r="14" fill="#e26f46" fill-rule="evenodd" fill-opacity="1" stroke="#000000" stroke-opacity="1" stroke-width="3.2"/>
<circle clip-path="url(#clip192)" cx="1070.4" cy="1182.51" r="14" fill="#e26f46" fill-rule="evenodd" fill-opacity="1" stroke="#000000" stroke-opacity="1" stroke-width="3.2"/>
<circle clip-path="url(#clip192)" cx="1089.26" cy="1196.04" r="14" fill="#e26f46" fill-rule="evenodd" fill-opacity="1" stroke="#000000" stroke-opacity="1" stroke-width="3.2"/>
<circle clip-path="url(#clip192)" cx="1108.12" cy="1185.55" r="14" fill="#e26f46" fill-rule="evenodd" fill-opacity="1" stroke="#000000" stroke-opacity="1" stroke-width="3.2"/>
<circle clip-path="url(#clip192)" cx="1126.98" cy="1180.09" r="14" fill="#e26f46" fill-rule="evenodd" fill-opacity="1" stroke="#000000" stroke-opacity="1" stroke-width="3.2"/>
<circle clip-path="url(#clip192)" cx="1145.84" cy="1148.51" r="14" fill="#e26f46" fill-rule="evenodd" fill-opacity="1" stroke="#000000" stroke-opacity="1" stroke-width="3.2"/>
<circle clip-path="url(#clip192)" cx="1164.69" cy="1137.13" r="14" fill="#e26f46" fill-rule="evenodd" fill-opacity="1" stroke="#000000" stroke-opacity="1" stroke-width="3.2"/>
<circle clip-path="url(#clip192)" cx="1183.55" cy="1107.11" r="14" fill="#e26f46" fill-rule="evenodd" fill-opacity="1" stroke="#000000" stroke-opacity="1" stroke-width="3.2"/>
<circle clip-path="url(#clip192)" cx="1202.41" cy="1100.82" r="14" fill="#e26f46" fill-rule="evenodd" fill-opacity="1" stroke="#000000" stroke-opacity="1" stroke-width="3.2"/>
<circle clip-path="url(#clip192)" cx="1221.27" cy="1077.25" r="14" fill="#e26f46" fill-rule="evenodd" fill-opacity="1" stroke="#000000" stroke-opacity="1" stroke-width="3.2"/>
<circle clip-path="url(#clip192)" cx="1240.13" cy="1068.39" r="14" fill="#e26f46" fill-rule="evenodd" fill-opacity="1" stroke="#000000" stroke-opacity="1" stroke-width="3.2"/>
<circle clip-path="url(#clip192)" cx="1258.98" cy="1063.06" r="14" fill="#e26f46" fill-rule="evenodd" fill-opacity="1" stroke="#000000" stroke-opacity="1" stroke-width="3.2"/>
<circle clip-path="url(#clip192)" cx="1277.84" cy="1055.38" r="14" fill="#e26f46" fill-rule="evenodd" fill-opacity="1" stroke="#000000" stroke-opacity="1" stroke-width="3.2"/>
<circle clip-path="url(#clip192)" cx="1296.7" cy="1013.91" r="14" fill="#e26f46" fill-rule="evenodd" fill-opacity="1" stroke="#000000" stroke-opacity="1" stroke-width="3.2"/>
<circle clip-path="url(#clip192)" cx="1315.56" cy="1003.42" r="14" fill="#e26f46" fill-rule="evenodd" fill-opacity="1" stroke="#000000" stroke-opacity="1" stroke-width="3.2"/>
<circle clip-path="url(#clip192)" cx="1334.42" cy="978.494" r="14" fill="#e26f46" fill-rule="evenodd" fill-opacity="1" stroke="#000000" stroke-opacity="1" stroke-width="3.2"/>
<circle clip-path="url(#clip192)" cx="1353.27" cy="953.343" r="14" fill="#e26f46" fill-rule="evenodd" fill-opacity="1" stroke="#000000" stroke-opacity="1" stroke-width="3.2"/>
<circle clip-path="url(#clip192)" cx="1372.13" cy="941.263" r="14" fill="#e26f46" fill-rule="evenodd" fill-opacity="1" stroke="#000000" stroke-opacity="1" stroke-width="3.2"/>
<circle clip-path="url(#clip192)" cx="1390.99" cy="900.305" r="14" fill="#e26f46" fill-rule="evenodd" fill-opacity="1" stroke="#000000" stroke-opacity="1" stroke-width="3.2"/>
<circle clip-path="url(#clip192)" cx="1409.85" cy="876.28" r="14" fill="#e26f46" fill-rule="evenodd" fill-opacity="1" stroke="#000000" stroke-opacity="1" stroke-width="3.2"/>
<circle clip-path="url(#clip192)" cx="1428.71" cy="865.902" r="14" fill="#e26f46" fill-rule="evenodd" fill-opacity="1" stroke="#000000" stroke-opacity="1" stroke-width="3.2"/>
<circle clip-path="url(#clip192)" cx="1447.57" cy="836.291" r="14" fill="#e26f46" fill-rule="evenodd" fill-opacity="1" stroke="#000000" stroke-opacity="1" stroke-width="3.2"/>
<circle clip-path="url(#clip192)" cx="1466.42" cy="791.872" r="14" fill="#e26f46" fill-rule="evenodd" fill-opacity="1" stroke="#000000" stroke-opacity="1" stroke-width="3.2"/>
<circle clip-path="url(#clip192)" cx="1485.28" cy="774.107" r="14" fill="#e26f46" fill-rule="evenodd" fill-opacity="1" stroke="#000000" stroke-opacity="1" stroke-width="3.2"/>
<circle clip-path="url(#clip192)" cx="1504.14" cy="746.501" r="14" fill="#e26f46" fill-rule="evenodd" fill-opacity="1" stroke="#000000" stroke-opacity="1" stroke-width="3.2"/>
<circle clip-path="url(#clip192)" cx="1523" cy="710.526" r="14" fill="#e26f46" fill-rule="evenodd" fill-opacity="1" stroke="#000000" stroke-opacity="1" stroke-width="3.2"/>
<circle clip-path="url(#clip192)" cx="1541.86" cy="676.956" r="14" fill="#e26f46" fill-rule="evenodd" fill-opacity="1" stroke="#000000" stroke-opacity="1" stroke-width="3.2"/>
<circle clip-path="url(#clip192)" cx="1560.71" cy="647.031" r="14" fill="#e26f46" fill-rule="evenodd" fill-opacity="1" stroke="#000000" stroke-opacity="1" stroke-width="3.2"/>
<circle clip-path="url(#clip192)" cx="1579.57" cy="617.619" r="14" fill="#e26f46" fill-rule="evenodd" fill-opacity="1" stroke="#000000" stroke-opacity="1" stroke-width="3.2"/>
<circle clip-path="url(#clip192)" cx="1598.43" cy="574.553" r="14" fill="#e26f46" fill-rule="evenodd" fill-opacity="1" stroke="#000000" stroke-opacity="1" stroke-width="3.2"/>
<circle clip-path="url(#clip192)" cx="1617.29" cy="561.06" r="14" fill="#e26f46" fill-rule="evenodd" fill-opacity="1" stroke="#000000" stroke-opacity="1" stroke-width="3.2"/>
<circle clip-path="url(#clip192)" cx="1636.15" cy="534.609" r="14" fill="#e26f46" fill-rule="evenodd" fill-opacity="1" stroke="#000000" stroke-opacity="1" stroke-width="3.2"/>
<circle clip-path="url(#clip192)" cx="1655.01" cy="506.49" r="14" fill="#e26f46" fill-rule="evenodd" fill-opacity="1" stroke="#000000" stroke-opacity="1" stroke-width="3.2"/>
<circle clip-path="url(#clip192)" cx="1673.86" cy="474.827" r="14" fill="#e26f46" fill-rule="evenodd" fill-opacity="1" stroke="#000000" stroke-opacity="1" stroke-width="3.2"/>
<circle clip-path="url(#clip192)" cx="1692.72" cy="428.971" r="14" fill="#e26f46" fill-rule="evenodd" fill-opacity="1" stroke="#000000" stroke-opacity="1" stroke-width="3.2"/>
<circle clip-path="url(#clip192)" cx="1711.58" cy="409.928" r="14" fill="#e26f46" fill-rule="evenodd" fill-opacity="1" stroke="#000000" stroke-opacity="1" stroke-width="3.2"/>
<circle clip-path="url(#clip192)" cx="1730.44" cy="371.604" r="14" fill="#e26f46" fill-rule="evenodd" fill-opacity="1" stroke="#000000" stroke-opacity="1" stroke-width="3.2"/>
<circle clip-path="url(#clip192)" cx="1749.3" cy="372.316" r="14" fill="#e26f46" fill-rule="evenodd" fill-opacity="1" stroke="#000000" stroke-opacity="1" stroke-width="3.2"/>
<circle clip-path="url(#clip192)" cx="1768.15" cy="331.337" r="14" fill="#e26f46" fill-rule="evenodd" fill-opacity="1" stroke="#000000" stroke-opacity="1" stroke-width="3.2"/>
<circle clip-path="url(#clip192)" cx="1787.01" cy="320.097" r="14" fill="#e26f46" fill-rule="evenodd" fill-opacity="1" stroke="#000000" stroke-opacity="1" stroke-width="3.2"/>
<circle clip-path="url(#clip192)" cx="1805.87" cy="311.721" r="14" fill="#e26f46" fill-rule="evenodd" fill-opacity="1" stroke="#000000" stroke-opacity="1" stroke-width="3.2"/>
<circle clip-path="url(#clip192)" cx="1824.73" cy="270.645" r="14" fill="#e26f46" fill-rule="evenodd" fill-opacity="1" stroke="#000000" stroke-opacity="1" stroke-width="3.2"/>
<circle clip-path="url(#clip192)" cx="1843.59" cy="263.463" r="14" fill="#e26f46" fill-rule="evenodd" fill-opacity="1" stroke="#000000" stroke-opacity="1" stroke-width="3.2"/>
<circle clip-path="url(#clip192)" cx="1862.44" cy="257.124" r="14" fill="#e26f46" fill-rule="evenodd" fill-opacity="1" stroke="#000000" stroke-opacity="1" stroke-width="3.2"/>
<circle clip-path="url(#clip192)" cx="1881.3" cy="237.722" r="14" fill="#e26f46" fill-rule="evenodd" fill-opacity="1" stroke="#000000" stroke-opacity="1" stroke-width="3.2"/>
<circle clip-path="url(#clip192)" cx="1900.16" cy="217.036" r="14" fill="#e26f46" fill-rule="evenodd" fill-opacity="1" stroke="#000000" stroke-opacity="1" stroke-width="3.2"/>
<circle clip-path="url(#clip192)" cx="1919.02" cy="196.609" r="14" fill="#e26f46" fill-rule="evenodd" fill-opacity="1" stroke="#000000" stroke-opacity="1" stroke-width="3.2"/>
<circle clip-path="url(#clip192)" cx="1937.88" cy="174.462" r="14" fill="#e26f46" fill-rule="evenodd" fill-opacity="1" stroke="#000000" stroke-opacity="1" stroke-width="3.2"/>
<circle clip-path="url(#clip192)" cx="1956.74" cy="179.084" r="14" fill="#e26f46" fill-rule="evenodd" fill-opacity="1" stroke="#000000" stroke-opacity="1" stroke-width="3.2"/>
<circle clip-path="url(#clip192)" cx="1975.59" cy="168.78" r="14" fill="#e26f46" fill-rule="evenodd" fill-opacity="1" stroke="#000000" stroke-opacity="1" stroke-width="3.2"/>
<circle clip-path="url(#clip192)" cx="1994.45" cy="165.433" r="14" fill="#e26f46" fill-rule="evenodd" fill-opacity="1" stroke="#000000" stroke-opacity="1" stroke-width="3.2"/>
<circle clip-path="url(#clip192)" cx="2013.31" cy="136.716" r="14" fill="#e26f46" fill-rule="evenodd" fill-opacity="1" stroke="#000000" stroke-opacity="1" stroke-width="3.2"/>
<circle clip-path="url(#clip192)" cx="2032.17" cy="163.522" r="14" fill="#e26f46" fill-rule="evenodd" fill-opacity="1" stroke="#000000" stroke-opacity="1" stroke-width="3.2"/>
<circle clip-path="url(#clip192)" cx="2051.03" cy="141.755" r="14" fill="#e26f46" fill-rule="evenodd" fill-opacity="1" stroke="#000000" stroke-opacity="1" stroke-width="3.2"/>
<circle clip-path="url(#clip192)" cx="2069.88" cy="123.954" r="14" fill="#e26f46" fill-rule="evenodd" fill-opacity="1" stroke="#000000" stroke-opacity="1" stroke-width="3.2"/>
<circle clip-path="url(#clip192)" cx="2088.74" cy="117.542" r="14" fill="#e26f46" fill-rule="evenodd" fill-opacity="1" stroke="#000000" stroke-opacity="1" stroke-width="3.2"/>
<circle clip-path="url(#clip192)" cx="2107.6" cy="133.843" r="14" fill="#e26f46" fill-rule="evenodd" fill-opacity="1" stroke="#000000" stroke-opacity="1" stroke-width="3.2"/>
<path clip-path="url(#clip190)" d="
M420.426 245.154 L971.744 245.154 L971.744 89.6336 L420.426 89.6336  Z
  " fill="#ffffff" fill-rule="evenodd" fill-opacity="1"/>
<polyline clip-path="url(#clip190)" style="stroke:#000000; stroke-linecap:butt; stroke-linejoin:round; stroke-width:4; stroke-opacity:1; fill:none" points="
  420.426,245.154 971.744,245.154 971.744,89.6336 420.426,89.6336 420.426,245.154 
  "/>
<polyline clip-path="url(#clip190)" style="stroke:#009af9; stroke-linecap:butt; stroke-linejoin:round; stroke-width:4; stroke-opacity:1; fill:none" points="
  442.637,141.474 575.901,141.474 
  "/>
<path clip-path="url(#clip190)" d="M616.537 133.592 L616.537 137.619 Q614.732 136.693 612.787 136.231 Q610.843 135.768 608.76 135.768 Q605.588 135.768 603.991 136.74 Q602.417 137.712 602.417 139.656 Q602.417 141.138 603.551 141.994 Q604.686 142.828 608.112 143.592 L609.57 143.916 Q614.107 144.888 616.005 146.67 Q617.926 148.43 617.926 151.601 Q617.926 155.212 615.056 157.318 Q612.209 159.425 607.209 159.425 Q605.125 159.425 602.857 159.008 Q600.612 158.615 598.112 157.804 L598.112 153.406 Q600.473 154.633 602.764 155.258 Q605.056 155.86 607.301 155.86 Q610.311 155.86 611.931 154.842 Q613.551 153.8 613.551 151.925 Q613.551 150.189 612.371 149.263 Q611.213 148.337 607.255 147.48 L605.774 147.133 Q601.815 146.3 600.056 144.587 Q598.297 142.851 598.297 139.842 Q598.297 136.184 600.889 134.194 Q603.482 132.203 608.25 132.203 Q610.612 132.203 612.695 132.55 Q614.778 132.897 616.537 133.592 Z" fill="#000000" fill-rule="evenodd" fill-opacity="1" /><path clip-path="url(#clip190)" d="M624.709 132.828 L628.968 132.828 L628.968 158.754 L624.709 158.754 L624.709 132.828 M624.709 122.735 L628.968 122.735 L628.968 128.129 L624.709 128.129 L624.709 122.735 Z" fill="#000000" fill-rule="evenodd" fill-opacity="1" /><path clip-path="url(#clip190)" d="M654.94 145.49 Q654.94 140.86 653.019 138.314 Q651.121 135.768 647.671 135.768 Q644.246 135.768 642.324 138.314 Q640.426 140.86 640.426 145.49 Q640.426 150.096 642.324 152.642 Q644.246 155.189 647.671 155.189 Q651.121 155.189 653.019 152.642 Q654.94 150.096 654.94 145.49 M659.199 155.536 Q659.199 162.156 656.259 165.374 Q653.32 168.615 647.255 168.615 Q645.009 168.615 643.019 168.267 Q641.028 167.943 639.153 167.249 L639.153 163.105 Q641.028 164.124 642.857 164.61 Q644.685 165.096 646.584 165.096 Q650.773 165.096 652.857 162.897 Q654.94 160.721 654.94 156.3 L654.94 154.193 Q653.621 156.485 651.56 157.619 Q649.5 158.754 646.63 158.754 Q641.861 158.754 638.945 155.119 Q636.028 151.485 636.028 145.49 Q636.028 139.471 638.945 135.837 Q641.861 132.203 646.63 132.203 Q649.5 132.203 651.56 133.337 Q653.621 134.471 654.94 136.763 L654.94 132.828 L659.199 132.828 L659.199 155.536 Z" fill="#000000" fill-rule="evenodd" fill-opacity="1" /><path clip-path="url(#clip190)" d="M688.157 137.805 Q689.755 134.934 691.977 133.569 Q694.199 132.203 697.208 132.203 Q701.259 132.203 703.458 135.05 Q705.657 137.874 705.657 143.105 L705.657 158.754 L701.375 158.754 L701.375 143.244 Q701.375 139.518 700.055 137.712 Q698.736 135.906 696.028 135.906 Q692.718 135.906 690.796 138.106 Q688.875 140.305 688.875 144.101 L688.875 158.754 L684.593 158.754 L684.593 143.244 Q684.593 139.494 683.273 137.712 Q681.954 135.906 679.199 135.906 Q675.935 135.906 674.014 138.129 Q672.093 140.328 672.093 144.101 L672.093 158.754 L667.81 158.754 L667.81 132.828 L672.093 132.828 L672.093 136.856 Q673.551 134.471 675.588 133.337 Q677.625 132.203 680.426 132.203 Q683.25 132.203 685.218 133.638 Q687.208 135.073 688.157 137.805 Z" fill="#000000" fill-rule="evenodd" fill-opacity="1" /><path clip-path="url(#clip190)" d="M724.199 135.814 Q720.773 135.814 718.782 138.499 Q716.791 141.161 716.791 145.814 Q716.791 150.467 718.759 153.152 Q720.75 155.814 724.199 155.814 Q727.602 155.814 729.592 153.129 Q731.583 150.443 731.583 145.814 Q731.583 141.207 729.592 138.522 Q727.602 135.814 724.199 135.814 M724.199 132.203 Q729.754 132.203 732.926 135.814 Q736.097 139.425 736.097 145.814 Q736.097 152.18 732.926 155.814 Q729.754 159.425 724.199 159.425 Q718.62 159.425 715.449 155.814 Q712.301 152.18 712.301 145.814 Q712.301 139.425 715.449 135.814 Q718.62 132.203 724.199 132.203 Z" fill="#000000" fill-rule="evenodd" fill-opacity="1" /><path clip-path="url(#clip190)" d="M743.157 132.828 L747.416 132.828 L747.416 158.754 L743.157 158.754 L743.157 132.828 M743.157 122.735 L747.416 122.735 L747.416 128.129 L743.157 128.129 L743.157 122.735 Z" fill="#000000" fill-rule="evenodd" fill-opacity="1" /><path clip-path="url(#clip190)" d="M773.388 136.763 L773.388 122.735 L777.648 122.735 L777.648 158.754 L773.388 158.754 L773.388 154.865 Q772.046 157.179 769.986 158.314 Q767.949 159.425 765.078 159.425 Q760.379 159.425 757.416 155.675 Q754.476 151.925 754.476 145.814 Q754.476 139.703 757.416 135.953 Q760.379 132.203 765.078 132.203 Q767.949 132.203 769.986 133.337 Q772.046 134.448 773.388 136.763 M758.875 145.814 Q758.875 150.513 760.796 153.198 Q762.74 155.86 766.12 155.86 Q769.5 155.86 771.444 153.198 Q773.388 150.513 773.388 145.814 Q773.388 141.115 771.444 138.453 Q769.5 135.768 766.12 135.768 Q762.74 135.768 760.796 138.453 Q758.875 141.115 758.875 145.814 Z" fill="#000000" fill-rule="evenodd" fill-opacity="1" /><path clip-path="url(#clip190)" d="M820.147 133.823 L820.147 137.805 Q818.342 136.809 816.513 136.323 Q814.708 135.814 812.856 135.814 Q808.712 135.814 806.421 138.453 Q804.129 141.068 804.129 145.814 Q804.129 150.559 806.421 153.198 Q808.712 155.814 812.856 155.814 Q814.708 155.814 816.513 155.328 Q818.342 154.818 820.147 153.823 L820.147 157.758 Q818.365 158.592 816.444 159.008 Q814.546 159.425 812.393 159.425 Q806.536 159.425 803.087 155.744 Q799.638 152.064 799.638 145.814 Q799.638 139.471 803.11 135.837 Q806.606 132.203 812.671 132.203 Q814.638 132.203 816.513 132.619 Q818.388 133.013 820.147 133.823 Z" fill="#000000" fill-rule="evenodd" fill-opacity="1" /><path clip-path="url(#clip190)" d="M827.115 148.522 L827.115 132.828 L831.374 132.828 L831.374 148.36 Q831.374 152.041 832.809 153.892 Q834.245 155.721 837.115 155.721 Q840.564 155.721 842.555 153.522 Q844.569 151.323 844.569 147.527 L844.569 132.828 L848.828 132.828 L848.828 158.754 L844.569 158.754 L844.569 154.772 Q843.018 157.133 840.957 158.291 Q838.92 159.425 836.212 159.425 Q831.745 159.425 829.43 156.647 Q827.115 153.869 827.115 148.522 M837.833 132.203 L837.833 132.203 Z" fill="#000000" fill-rule="evenodd" fill-opacity="1" /><path clip-path="url(#clip190)" d="M872.624 136.809 Q871.906 136.393 871.05 136.207 Q870.217 135.999 869.198 135.999 Q865.587 135.999 863.643 138.36 Q861.721 140.698 861.721 145.096 L861.721 158.754 L857.439 158.754 L857.439 132.828 L861.721 132.828 L861.721 136.856 Q863.064 134.494 865.217 133.36 Q867.369 132.203 870.448 132.203 Q870.888 132.203 871.42 132.272 Q871.953 132.319 872.601 132.434 L872.624 136.809 Z" fill="#000000" fill-rule="evenodd" fill-opacity="1" /><path clip-path="url(#clip190)" d="M874.036 132.828 L878.55 132.828 L886.652 154.587 L894.753 132.828 L899.267 132.828 L889.545 158.754 L883.758 158.754 L874.036 132.828 Z" fill="#000000" fill-rule="evenodd" fill-opacity="1" /><path clip-path="url(#clip190)" d="M927.323 144.726 L927.323 146.809 L907.74 146.809 Q908.017 151.207 910.378 153.522 Q912.763 155.814 916.999 155.814 Q919.452 155.814 921.744 155.212 Q924.059 154.61 926.327 153.406 L926.327 157.434 Q924.036 158.406 921.628 158.916 Q919.221 159.425 916.744 159.425 Q910.54 159.425 906.906 155.814 Q903.295 152.203 903.295 146.045 Q903.295 139.68 906.721 135.953 Q910.17 132.203 916.003 132.203 Q921.235 132.203 924.267 135.582 Q927.323 138.939 927.323 144.726 M923.064 143.476 Q923.017 139.981 921.096 137.897 Q919.198 135.814 916.05 135.814 Q912.485 135.814 910.332 137.828 Q908.202 139.842 907.878 143.499 L923.064 143.476 Z" fill="#000000" fill-rule="evenodd" fill-opacity="1" /><circle clip-path="url(#clip190)" cx="509.269" cy="193.314" r="23" fill="#e26f46" fill-rule="evenodd" fill-opacity="1" stroke="#000000" stroke-opacity="1" stroke-width="5.12"/>
<path clip-path="url(#clip190)" d="M610.01 187.654 Q606.584 187.654 604.593 190.339 Q602.602 193.001 602.602 197.654 Q602.602 202.307 604.57 204.992 Q606.561 207.654 610.01 207.654 Q613.412 207.654 615.403 204.969 Q617.394 202.283 617.394 197.654 Q617.394 193.047 615.403 190.362 Q613.412 187.654 610.01 187.654 M610.01 184.043 Q615.565 184.043 618.736 187.654 Q621.908 191.265 621.908 197.654 Q621.908 204.02 618.736 207.654 Q615.565 211.265 610.01 211.265 Q604.431 211.265 601.26 207.654 Q598.112 204.02 598.112 197.654 Q598.112 191.265 601.26 187.654 Q604.431 184.043 610.01 184.043 Z" fill="#000000" fill-rule="evenodd" fill-opacity="1" /><path clip-path="url(#clip190)" d="M647.579 197.654 Q647.579 192.955 645.634 190.293 Q643.713 187.608 640.334 187.608 Q636.954 187.608 635.01 190.293 Q633.088 192.955 633.088 197.654 Q633.088 202.353 635.01 205.038 Q636.954 207.7 640.334 207.7 Q643.713 207.7 645.634 205.038 Q647.579 202.353 647.579 197.654 M633.088 188.603 Q634.431 186.288 636.468 185.177 Q638.528 184.043 641.375 184.043 Q646.097 184.043 649.037 187.793 Q652 191.543 652 197.654 Q652 203.765 649.037 207.515 Q646.097 211.265 641.375 211.265 Q638.528 211.265 636.468 210.154 Q634.431 209.019 633.088 206.705 L633.088 210.594 L628.806 210.594 L628.806 174.575 L633.088 174.575 L633.088 188.603 Z" fill="#000000" fill-rule="evenodd" fill-opacity="1" /><path clip-path="url(#clip190)" d="M675.588 185.432 L675.588 189.459 Q673.782 188.533 671.838 188.071 Q669.894 187.608 667.81 187.608 Q664.639 187.608 663.042 188.58 Q661.468 189.552 661.468 191.496 Q661.468 192.978 662.602 193.834 Q663.736 194.668 667.162 195.432 L668.62 195.756 Q673.157 196.728 675.056 198.51 Q676.977 200.27 676.977 203.441 Q676.977 207.052 674.107 209.158 Q671.259 211.265 666.259 211.265 Q664.176 211.265 661.908 210.848 Q659.662 210.455 657.162 209.644 L657.162 205.246 Q659.523 206.473 661.815 207.098 Q664.107 207.7 666.352 207.7 Q669.361 207.7 670.982 206.682 Q672.602 205.64 672.602 203.765 Q672.602 202.029 671.421 201.103 Q670.264 200.177 666.306 199.32 L664.824 198.973 Q660.866 198.14 659.107 196.427 Q657.347 194.691 657.347 191.682 Q657.347 188.024 659.94 186.034 Q662.533 184.043 667.301 184.043 Q669.662 184.043 671.745 184.39 Q673.829 184.737 675.588 185.432 Z" fill="#000000" fill-rule="evenodd" fill-opacity="1" /><path clip-path="url(#clip190)" d="M705.935 196.566 L705.935 198.649 L686.352 198.649 Q686.63 203.047 688.991 205.362 Q691.375 207.654 695.611 207.654 Q698.065 207.654 700.356 207.052 Q702.671 206.45 704.94 205.246 L704.94 209.274 Q702.648 210.246 700.241 210.756 Q697.833 211.265 695.356 211.265 Q689.153 211.265 685.519 207.654 Q681.907 204.043 681.907 197.885 Q681.907 191.52 685.333 187.793 Q688.782 184.043 694.616 184.043 Q699.847 184.043 702.88 187.422 Q705.935 190.779 705.935 196.566 M701.676 195.316 Q701.63 191.821 699.708 189.737 Q697.81 187.654 694.662 187.654 Q691.097 187.654 688.944 189.668 Q686.815 191.682 686.491 195.339 L701.676 195.316 Z" fill="#000000" fill-rule="evenodd" fill-opacity="1" /><path clip-path="url(#clip190)" d="M727.949 188.649 Q727.231 188.233 726.375 188.047 Q725.541 187.839 724.523 187.839 Q720.912 187.839 718.967 190.2 Q717.046 192.538 717.046 196.936 L717.046 210.594 L712.764 210.594 L712.764 184.668 L717.046 184.668 L717.046 188.696 Q718.389 186.334 720.541 185.2 Q722.694 184.043 725.773 184.043 Q726.213 184.043 726.745 184.112 Q727.278 184.159 727.926 184.274 L727.949 188.649 Z" fill="#000000" fill-rule="evenodd" fill-opacity="1" /><path clip-path="url(#clip190)" d="M729.361 184.668 L733.875 184.668 L741.977 206.427 L750.078 184.668 L754.592 184.668 L744.87 210.594 L739.083 210.594 L729.361 184.668 Z" fill="#000000" fill-rule="evenodd" fill-opacity="1" /><path clip-path="url(#clip190)" d="M782.648 196.566 L782.648 198.649 L763.064 198.649 Q763.342 203.047 765.703 205.362 Q768.088 207.654 772.324 207.654 Q774.777 207.654 777.069 207.052 Q779.384 206.45 781.652 205.246 L781.652 209.274 Q779.361 210.246 776.953 210.756 Q774.546 211.265 772.069 211.265 Q765.865 211.265 762.231 207.654 Q758.62 204.043 758.62 197.885 Q758.62 191.52 762.046 187.793 Q765.495 184.043 771.328 184.043 Q776.56 184.043 779.592 187.422 Q782.648 190.779 782.648 196.566 M778.388 195.316 Q778.342 191.821 776.421 189.737 Q774.523 187.654 771.375 187.654 Q767.81 187.654 765.657 189.668 Q763.527 191.682 763.203 195.339 L778.388 195.316 Z" fill="#000000" fill-rule="evenodd" fill-opacity="1" /><path clip-path="url(#clip190)" d="M806.698 188.603 L806.698 174.575 L810.958 174.575 L810.958 210.594 L806.698 210.594 L806.698 206.705 Q805.356 209.019 803.296 210.154 Q801.259 211.265 798.388 211.265 Q793.689 211.265 790.726 207.515 Q787.786 203.765 787.786 197.654 Q787.786 191.543 790.726 187.793 Q793.689 184.043 798.388 184.043 Q801.259 184.043 803.296 185.177 Q805.356 186.288 806.698 188.603 M792.185 197.654 Q792.185 202.353 794.106 205.038 Q796.05 207.7 799.43 207.7 Q802.81 207.7 804.754 205.038 Q806.698 202.353 806.698 197.654 Q806.698 192.955 804.754 190.293 Q802.81 187.608 799.43 187.608 Q796.05 187.608 794.106 190.293 Q792.185 192.955 792.185 197.654 Z" fill="#000000" fill-rule="evenodd" fill-opacity="1" /></svg>
