<?xml version="1.0" encoding="utf-8"?>
<svg xmlns="http://www.w3.org/2000/svg" xmlns:xlink="http://www.w3.org/1999/xlink" width="600" height="400" viewBox="0 0 2400 1600">
<defs>
  <clipPath id="clip310">
    <rect x="0" y="0" width="2400" height="1600"/>
  </clipPath>
</defs>
<path clip-path="url(#clip310)" d="M0 1600 L2400 1600 L2400 0 L0 0  Z" fill="#ffffff" fill-rule="evenodd" fill-opacity="1"/>
<defs>
  <clipPath id="clip311">
    <rect x="480" y="0" width="1681" height="1600"/>
  </clipPath>
</defs>
<path clip-path="url(#clip310)" d="M290.526 1382.2 L2352.76 1382.2 L2352.76 47.2441 L290.526 47.2441  Z" fill="#ffffff" fill-rule="evenodd" fill-opacity="1"/>
<defs>
  <clipPath id="clip312">
    <rect x="290" y="47" width="2063" height="1336"/>
  </clipPath>
</defs>
<polyline clip-path="url(#clip312)" style="stroke:#000000; stroke-linecap:round; stroke-linejoin:round; stroke-width:2; stroke-opacity:0.1; fill:none" points="543.441,1382.2 543.441,47.2441 "/>
<polyline clip-path="url(#clip312)" style="stroke:#000000; stroke-linecap:round; stroke-linejoin:round; stroke-width:2; stroke-opacity:0.1; fill:none" points="932.541,1382.2 932.541,47.2441 "/>
<polyline clip-path="url(#clip312)" style="stroke:#000000; stroke-linecap:round; stroke-linejoin:round; stroke-width:2; stroke-opacity:0.1; fill:none" points="1321.64,1382.2 1321.64,47.2441 "/>
<polyline clip-path="url(#clip312)" style="stroke:#000000; stroke-linecap:round; stroke-linejoin:round; stroke-width:2; stroke-opacity:0.1; fill:none" points="1710.74,1382.2 1710.74,47.2441 "/>
<polyline clip-path="url(#clip312)" style="stroke:#000000; stroke-linecap:round; stroke-linejoin:round; stroke-width:2; stroke-opacity:0.1; fill:none" points="2099.84,1382.2 2099.84,47.2441 "/>
<polyline clip-path="url(#clip310)" style="stroke:#000000; stroke-linecap:round; stroke-linejoin:round; stroke-width:4; stroke-opacity:1; fill:none" points="290.526,1382.2 2352.76,1382.2 "/>
<polyline clip-path="url(#clip310)" style="stroke:#000000; stroke-linecap:round; stroke-linejoin:round; stroke-width:4; stroke-opacity:1; fill:none" points="543.441,1382.2 543.441,1363.3 "/>
<polyline clip-path="url(#clip310)" style="stroke:#000000; stroke-linecap:round; stroke-linejoin:round; stroke-width:4; stroke-opacity:1; fill:none" points="932.541,1382.2 932.541,1363.3 "/>
<polyline clip-path="url(#clip310)" style="stroke:#000000; stroke-linecap:round; stroke-linejoin:round; stroke-width:4; stroke-opacity:1; fill:none" points="1321.64,1382.2 1321.64,1363.3 "/>
<polyline clip-path="url(#clip310)" style="stroke:#000000; stroke-linecap:round; stroke-linejoin:round; stroke-width:4; stroke-opacity:1; fill:none" points="1710.74,1382.2 1710.74,1363.3 "/>
<polyline clip-path="url(#clip310)" style="stroke:#000000; stroke-linecap:round; stroke-linejoin:round; stroke-width:4; stroke-opacity:1; fill:none" points="2099.84,1382.2 2099.84,1363.3 "/>
<path clip-path="url(#clip310)" d="M538.094 1440.66 L554.413 1440.66 L554.413 1444.6 L532.469 1444.6 L532.469 1440.66 Q535.131 1437.91 539.714 1433.28 Q544.321 1428.62 545.501 1427.28 Q547.746 1424.76 548.626 1423.02 Q549.529 1421.26 549.529 1419.57 Q549.529 1416.82 547.584 1415.08 Q545.663 1413.35 542.561 1413.35 Q540.362 1413.35 537.909 1414.11 Q535.478 1414.87 532.7 1416.42 L532.7 1411.7 Q535.524 1410.57 537.978 1409.99 Q540.432 1409.41 542.469 1409.41 Q547.839 1409.41 551.034 1412.1 Q554.228 1414.78 554.228 1419.27 Q554.228 1421.4 553.418 1423.32 Q552.631 1425.22 550.524 1427.81 Q549.946 1428.48 546.844 1431.7 Q543.742 1434.9 538.094 1440.66 Z" fill="#000000" fill-rule="nonzero" fill-opacity="1" /><path clip-path="url(#clip310)" d="M935.55 1414.11 L923.745 1432.56 L935.55 1432.56 L935.55 1414.11 M934.323 1410.04 L940.203 1410.04 L940.203 1432.56 L945.133 1432.56 L945.133 1436.45 L940.203 1436.45 L940.203 1444.6 L935.55 1444.6 L935.55 1436.45 L919.948 1436.45 L919.948 1431.93 L934.323 1410.04 Z" fill="#000000" fill-rule="nonzero" fill-opacity="1" /><path clip-path="url(#clip310)" d="M1322.05 1425.45 Q1318.9 1425.45 1317.05 1427.61 Q1315.22 1429.76 1315.22 1433.51 Q1315.22 1437.23 1317.05 1439.41 Q1318.9 1441.56 1322.05 1441.56 Q1325.19 1441.56 1327.02 1439.41 Q1328.87 1437.23 1328.87 1433.51 Q1328.87 1429.76 1327.02 1427.61 Q1325.19 1425.45 1322.05 1425.45 M1331.33 1410.8 L1331.33 1415.06 Q1329.57 1414.23 1327.76 1413.79 Q1325.98 1413.35 1324.22 1413.35 Q1319.59 1413.35 1317.14 1416.47 Q1314.71 1419.6 1314.36 1425.92 Q1315.73 1423.9 1317.79 1422.84 Q1319.85 1421.75 1322.32 1421.75 Q1327.53 1421.75 1330.54 1424.92 Q1333.57 1428.07 1333.57 1433.51 Q1333.57 1438.83 1330.43 1442.05 Q1327.28 1445.27 1322.05 1445.27 Q1316.05 1445.27 1312.88 1440.68 Q1309.71 1436.08 1309.71 1427.35 Q1309.71 1419.16 1313.6 1414.3 Q1317.49 1409.41 1324.04 1409.41 Q1325.8 1409.41 1327.58 1409.76 Q1329.38 1410.11 1331.33 1410.8 Z" fill="#000000" fill-rule="nonzero" fill-opacity="1" /><path clip-path="url(#clip310)" d="M1710.74 1428.18 Q1707.41 1428.18 1705.49 1429.97 Q1703.59 1431.75 1703.59 1434.87 Q1703.59 1438 1705.49 1439.78 Q1707.41 1441.56 1710.74 1441.56 Q1714.07 1441.56 1716 1439.78 Q1717.92 1437.98 1717.92 1434.87 Q1717.92 1431.75 1716 1429.97 Q1714.1 1428.18 1710.74 1428.18 M1706.07 1426.19 Q1703.06 1425.45 1701.37 1423.39 Q1699.7 1421.33 1699.7 1418.37 Q1699.7 1414.23 1702.64 1411.82 Q1705.6 1409.41 1710.74 1409.41 Q1715.9 1409.41 1718.84 1411.82 Q1721.78 1414.23 1721.78 1418.37 Q1721.78 1421.33 1720.09 1423.39 Q1718.43 1425.45 1715.44 1426.19 Q1718.82 1426.98 1720.69 1429.27 Q1722.59 1431.56 1722.59 1434.87 Q1722.59 1439.9 1719.51 1442.58 Q1716.46 1445.27 1710.74 1445.27 Q1705.02 1445.27 1701.94 1442.58 Q1698.89 1439.9 1698.89 1434.87 Q1698.89 1431.56 1700.79 1429.27 Q1702.69 1426.98 1706.07 1426.19 M1704.35 1418.81 Q1704.35 1421.49 1706.02 1423 Q1707.71 1424.5 1710.74 1424.5 Q1713.75 1424.5 1715.44 1423 Q1717.15 1421.49 1717.15 1418.81 Q1717.15 1416.12 1715.44 1414.62 Q1713.75 1413.11 1710.74 1413.11 Q1707.71 1413.11 1706.02 1414.62 Q1704.35 1416.12 1704.35 1418.81 Z" fill="#000000" fill-rule="nonzero" fill-opacity="1" /><path clip-path="url(#clip310)" d="M2074.53 1440.66 L2082.17 1440.66 L2082.17 1414.3 L2073.86 1415.96 L2073.86 1411.7 L2082.12 1410.04 L2086.8 1410.04 L2086.8 1440.66 L2094.44 1440.66 L2094.44 1444.6 L2074.53 1444.6 L2074.53 1440.66 Z" fill="#000000" fill-rule="nonzero" fill-opacity="1" /><path clip-path="url(#clip310)" d="M2113.88 1413.11 Q2110.27 1413.11 2108.44 1416.68 Q2106.63 1420.22 2106.63 1427.35 Q2106.63 1434.46 2108.44 1438.02 Q2110.27 1441.56 2113.88 1441.56 Q2117.51 1441.56 2119.32 1438.02 Q2121.15 1434.46 2121.15 1427.35 Q2121.15 1420.22 2119.32 1416.68 Q2117.51 1413.11 2113.88 1413.11 M2113.88 1409.41 Q2119.69 1409.41 2122.75 1414.02 Q2125.82 1418.6 2125.82 1427.35 Q2125.82 1436.08 2122.75 1440.68 Q2119.69 1445.27 2113.88 1445.27 Q2108.07 1445.27 2104.99 1440.68 Q2101.94 1436.08 2101.94 1427.35 Q2101.94 1418.6 2104.99 1414.02 Q2108.07 1409.41 2113.88 1409.41 Z" fill="#000000" fill-rule="nonzero" fill-opacity="1" /><polyline clip-path="url(#clip312)" style="stroke:#000000; stroke-linecap:round; stroke-linejoin:round; stroke-width:2; stroke-opacity:0.1; fill:none" points="290.526,1078.39 2352.76,1078.39 "/>
<polyline clip-path="url(#clip312)" style="stroke:#000000; stroke-linecap:round; stroke-linejoin:round; stroke-width:2; stroke-opacity:0.1; fill:none" points="290.526,745.461 2352.76,745.461 "/>
<polyline clip-path="url(#clip312)" style="stroke:#000000; stroke-linecap:round; stroke-linejoin:round; stroke-width:2; stroke-opacity:0.1; fill:none" points="290.526,412.527 2352.76,412.527 "/>
<polyline clip-path="url(#clip312)" style="stroke:#000000; stroke-linecap:round; stroke-linejoin:round; stroke-width:2; stroke-opacity:0.1; fill:none" points="290.526,79.5933 2352.76,79.5933 "/>
<polyline clip-path="url(#clip310)" style="stroke:#000000; stroke-linecap:round; stroke-linejoin:round; stroke-width:4; stroke-opacity:1; fill:none" points="290.526,1382.2 290.526,47.2441 "/>
<polyline clip-path="url(#clip310)" style="stroke:#000000; stroke-linecap:round; stroke-linejoin:round; stroke-width:4; stroke-opacity:1; fill:none" points="290.526,1078.39 309.424,1078.39 "/>
<polyline clip-path="url(#clip310)" style="stroke:#000000; stroke-linecap:round; stroke-linejoin:round; stroke-width:4; stroke-opacity:1; fill:none" points="290.526,745.461 309.424,745.461 "/>
<polyline clip-path="url(#clip310)" style="stroke:#000000; stroke-linecap:round; stroke-linejoin:round; stroke-width:4; stroke-opacity:1; fill:none" points="290.526,412.527 309.424,412.527 "/>
<polyline clip-path="url(#clip310)" style="stroke:#000000; stroke-linecap:round; stroke-linejoin:round; stroke-width:4; stroke-opacity:1; fill:none" points="290.526,79.5933 309.424,79.5933 "/>
<path clip-path="url(#clip310)" d="M167.188 1064.19 Q163.577 1064.19 161.749 1067.76 Q159.943 1071.3 159.943 1078.43 Q159.943 1085.54 161.749 1089.1 Q163.577 1092.64 167.188 1092.64 Q170.823 1092.64 172.628 1089.1 Q174.457 1085.54 174.457 1078.43 Q174.457 1071.3 172.628 1067.76 Q170.823 1064.19 167.188 1064.19 M167.188 1060.49 Q172.999 1060.49 176.054 1065.1 Q179.133 1069.68 179.133 1078.43 Q179.133 1087.16 176.054 1091.76 Q172.999 1096.35 167.188 1096.35 Q161.378 1096.35 158.3 1091.76 Q155.244 1087.16 155.244 1078.43 Q155.244 1069.68 158.3 1065.1 Q161.378 1060.49 167.188 1060.49 Z" fill="#000000" fill-rule="nonzero" fill-opacity="1" /><path clip-path="url(#clip310)" d="M187.35 1089.8 L192.235 1089.8 L192.235 1095.67 L187.35 1095.67 L187.35 1089.8 Z" fill="#000000" fill-rule="nonzero" fill-opacity="1" /><path clip-path="url(#clip310)" d="M212.42 1064.19 Q208.809 1064.19 206.98 1067.76 Q205.174 1071.3 205.174 1078.43 Q205.174 1085.54 206.98 1089.1 Q208.809 1092.64 212.42 1092.64 Q216.054 1092.64 217.859 1089.1 Q219.688 1085.54 219.688 1078.43 Q219.688 1071.3 217.859 1067.76 Q216.054 1064.19 212.42 1064.19 M212.42 1060.49 Q218.23 1060.49 221.285 1065.1 Q224.364 1069.68 224.364 1078.43 Q224.364 1087.16 221.285 1091.76 Q218.23 1096.35 212.42 1096.35 Q206.61 1096.35 203.531 1091.76 Q200.475 1087.16 200.475 1078.43 Q200.475 1069.68 203.531 1065.1 Q206.61 1060.49 212.42 1060.49 Z" fill="#000000" fill-rule="nonzero" fill-opacity="1" /><path clip-path="url(#clip310)" d="M242.582 1064.19 Q238.97 1064.19 237.142 1067.76 Q235.336 1071.3 235.336 1078.43 Q235.336 1085.54 237.142 1089.1 Q238.97 1092.64 242.582 1092.64 Q246.216 1092.64 248.021 1089.1 Q249.85 1085.54 249.85 1078.43 Q249.85 1071.3 248.021 1067.76 Q246.216 1064.19 242.582 1064.19 M242.582 1060.49 Q248.392 1060.49 251.447 1065.1 Q254.526 1069.68 254.526 1078.43 Q254.526 1087.16 251.447 1091.76 Q248.392 1096.35 242.582 1096.35 Q236.771 1096.35 233.693 1091.76 Q230.637 1087.16 230.637 1078.43 Q230.637 1069.68 233.693 1065.1 Q236.771 1060.49 242.582 1060.49 Z" fill="#000000" fill-rule="nonzero" fill-opacity="1" /><path clip-path="url(#clip310)" d="M168.184 731.26 Q164.573 731.26 162.744 734.824 Q160.939 738.366 160.939 745.496 Q160.939 752.602 162.744 756.167 Q164.573 759.709 168.184 759.709 Q171.818 759.709 173.624 756.167 Q175.452 752.602 175.452 745.496 Q175.452 738.366 173.624 734.824 Q171.818 731.26 168.184 731.26 M168.184 727.556 Q173.994 727.556 177.05 732.162 Q180.128 736.746 180.128 745.496 Q180.128 754.223 177.05 758.829 Q173.994 763.412 168.184 763.412 Q162.374 763.412 159.295 758.829 Q156.239 754.223 156.239 745.496 Q156.239 736.746 159.295 732.162 Q162.374 727.556 168.184 727.556 Z" fill="#000000" fill-rule="nonzero" fill-opacity="1" /><path clip-path="url(#clip310)" d="M188.346 756.861 L193.23 756.861 L193.23 762.741 L188.346 762.741 L188.346 756.861 Z" fill="#000000" fill-rule="nonzero" fill-opacity="1" /><path clip-path="url(#clip310)" d="M213.415 731.26 Q209.804 731.26 207.975 734.824 Q206.17 738.366 206.17 745.496 Q206.17 752.602 207.975 756.167 Q209.804 759.709 213.415 759.709 Q217.049 759.709 218.855 756.167 Q220.684 752.602 220.684 745.496 Q220.684 738.366 218.855 734.824 Q217.049 731.26 213.415 731.26 M213.415 727.556 Q219.225 727.556 222.281 732.162 Q225.359 736.746 225.359 745.496 Q225.359 754.223 222.281 758.829 Q219.225 763.412 213.415 763.412 Q207.605 763.412 204.526 758.829 Q201.471 754.223 201.471 745.496 Q201.471 736.746 204.526 732.162 Q207.605 727.556 213.415 727.556 Z" fill="#000000" fill-rule="nonzero" fill-opacity="1" /><path clip-path="url(#clip310)" d="M233.623 728.181 L251.98 728.181 L251.98 732.116 L237.906 732.116 L237.906 740.588 Q238.924 740.241 239.943 740.079 Q240.961 739.894 241.98 739.894 Q247.767 739.894 251.146 743.065 Q254.526 746.236 254.526 751.653 Q254.526 757.232 251.054 760.334 Q247.582 763.412 241.262 763.412 Q239.086 763.412 236.818 763.042 Q234.572 762.672 232.165 761.931 L232.165 757.232 Q234.248 758.366 236.471 758.922 Q238.693 759.477 241.17 759.477 Q245.174 759.477 247.512 757.371 Q249.85 755.264 249.85 751.653 Q249.85 748.042 247.512 745.936 Q245.174 743.829 241.17 743.829 Q239.295 743.829 237.42 744.246 Q235.568 744.662 233.623 745.542 L233.623 728.181 Z" fill="#000000" fill-rule="nonzero" fill-opacity="1" /><path clip-path="url(#clip310)" d="M167.188 398.326 Q163.577 398.326 161.749 401.891 Q159.943 405.432 159.943 412.562 Q159.943 419.668 161.749 423.233 Q163.577 426.775 167.188 426.775 Q170.823 426.775 172.628 423.233 Q174.457 419.668 174.457 412.562 Q174.457 405.432 172.628 401.891 Q170.823 398.326 167.188 398.326 M167.188 394.622 Q172.999 394.622 176.054 399.229 Q179.133 403.812 179.133 412.562 Q179.133 421.289 176.054 425.895 Q172.999 430.478 167.188 430.478 Q161.378 430.478 158.3 425.895 Q155.244 421.289 155.244 412.562 Q155.244 403.812 158.3 399.229 Q161.378 394.622 167.188 394.622 Z" fill="#000000" fill-rule="nonzero" fill-opacity="1" /><path clip-path="url(#clip310)" d="M187.35 423.928 L192.235 423.928 L192.235 429.807 L187.35 429.807 L187.35 423.928 Z" fill="#000000" fill-rule="nonzero" fill-opacity="1" /><path clip-path="url(#clip310)" d="M203.23 425.872 L210.869 425.872 L210.869 399.506 L202.559 401.173 L202.559 396.914 L210.823 395.247 L215.498 395.247 L215.498 425.872 L223.137 425.872 L223.137 429.807 L203.23 429.807 L203.23 425.872 Z" fill="#000000" fill-rule="nonzero" fill-opacity="1" /><path clip-path="url(#clip310)" d="M242.582 398.326 Q238.97 398.326 237.142 401.891 Q235.336 405.432 235.336 412.562 Q235.336 419.668 237.142 423.233 Q238.97 426.775 242.582 426.775 Q246.216 426.775 248.021 423.233 Q249.85 419.668 249.85 412.562 Q249.85 405.432 248.021 401.891 Q246.216 398.326 242.582 398.326 M242.582 394.622 Q248.392 394.622 251.447 399.229 Q254.526 403.812 254.526 412.562 Q254.526 421.289 251.447 425.895 Q248.392 430.478 242.582 430.478 Q236.771 430.478 233.693 425.895 Q230.637 421.289 230.637 412.562 Q230.637 403.812 233.693 399.229 Q236.771 394.622 242.582 394.622 Z" fill="#000000" fill-rule="nonzero" fill-opacity="1" /><path clip-path="url(#clip310)" d="M168.184 65.3919 Q164.573 65.3919 162.744 68.9567 Q160.939 72.4984 160.939 79.628 Q160.939 86.7344 162.744 90.2992 Q164.573 93.8409 168.184 93.8409 Q171.818 93.8409 173.624 90.2992 Q175.452 86.7344 175.452 79.628 Q175.452 72.4984 173.624 68.9567 Q171.818 65.3919 168.184 65.3919 M168.184 61.6883 Q173.994 61.6883 177.05 66.2947 Q180.128 70.878 180.128 79.628 Q180.128 88.3548 177.05 92.9612 Q173.994 97.5446 168.184 97.5446 Q162.374 97.5446 159.295 92.9612 Q156.239 88.3548 156.239 79.628 Q156.239 70.878 159.295 66.2947 Q162.374 61.6883 168.184 61.6883 Z" fill="#000000" fill-rule="nonzero" fill-opacity="1" /><path clip-path="url(#clip310)" d="M188.346 90.9937 L193.23 90.9937 L193.23 96.8733 L188.346 96.8733 L188.346 90.9937 Z" fill="#000000" fill-rule="nonzero" fill-opacity="1" /><path clip-path="url(#clip310)" d="M204.225 92.9381 L211.864 92.9381 L211.864 66.5725 L203.554 68.2392 L203.554 63.9799 L211.818 62.3133 L216.494 62.3133 L216.494 92.9381 L224.133 92.9381 L224.133 96.8733 L204.225 96.8733 L204.225 92.9381 Z" fill="#000000" fill-rule="nonzero" fill-opacity="1" /><path clip-path="url(#clip310)" d="M233.623 62.3133 L251.98 62.3133 L251.98 66.2484 L237.906 66.2484 L237.906 74.7206 Q238.924 74.3734 239.943 74.2113 Q240.961 74.0262 241.98 74.0262 Q247.767 74.0262 251.146 77.1974 Q254.526 80.3687 254.526 85.7854 Q254.526 91.364 251.054 94.4659 Q247.582 97.5446 241.262 97.5446 Q239.086 97.5446 236.818 97.1742 Q234.572 96.8038 232.165 96.0631 L232.165 91.364 Q234.248 92.4983 236.471 93.0538 Q238.693 93.6094 241.17 93.6094 Q245.174 93.6094 247.512 91.5029 Q249.85 89.3965 249.85 85.7854 Q249.85 82.1743 247.512 80.0678 Q245.174 77.9613 241.17 77.9613 Q239.295 77.9613 237.42 78.378 Q235.568 78.7947 233.623 79.6743 L233.623 62.3133 Z" fill="#000000" fill-rule="nonzero" fill-opacity="1" /><circle clip-path="url(#clip312)" cx="348.891" cy="1055.11" r="14.4" fill="#009af9" fill-rule="evenodd" fill-opacity="1" stroke="#000000" stroke-opacity="1" stroke-width="3.2"/>
<circle clip-path="url(#clip312)" cx="543.441" cy="705.881" r="14.4" fill="#009af9" fill-rule="evenodd" fill-opacity="1" stroke="#000000" stroke-opacity="1" stroke-width="3.2"/>
<circle clip-path="url(#clip312)" cx="737.991" cy="434.257" r="14.4" fill="#009af9" fill-rule="evenodd" fill-opacity="1" stroke="#000000" stroke-opacity="1" stroke-width="3.2"/>
<circle clip-path="url(#clip312)" cx="932.541" cy="240.24" r="14.4" fill="#009af9" fill-rule="evenodd" fill-opacity="1" stroke="#000000" stroke-opacity="1" stroke-width="3.2"/>
<circle clip-path="url(#clip312)" cx="1127.09" cy="123.829" r="14.4" fill="#009af9" fill-rule="evenodd" fill-opacity="1" stroke="#000000" stroke-opacity="1" stroke-width="3.2"/>
<circle clip-path="url(#clip312)" cx="1321.64" cy="85.0257" r="14.4" fill="#009af9" fill-rule="evenodd" fill-opacity="1" stroke="#000000" stroke-opacity="1" stroke-width="3.2"/>
<circle clip-path="url(#clip312)" cx="1516.19" cy="123.829" r="14.4" fill="#009af9" fill-rule="evenodd" fill-opacity="1" stroke="#000000" stroke-opacity="1" stroke-width="3.2"/>
<circle clip-path="url(#clip312)" cx="1710.74" cy="240.24" r="14.4" fill="#009af9" fill-rule="evenodd" fill-opacity="1" stroke="#000000" stroke-opacity="1" stroke-width="3.2"/>
<circle clip-path="url(#clip312)" cx="1905.29" cy="434.257" r="14.4" fill="#009af9" fill-rule="evenodd" fill-opacity="1" stroke="#000000" stroke-opacity="1" stroke-width="3.2"/>
<circle clip-path="url(#clip312)" cx="2099.84" cy="705.881" r="14.4" fill="#009af9" fill-rule="evenodd" fill-opacity="1" stroke="#000000" stroke-opacity="1" stroke-width="3.2"/>
<circle clip-path="url(#clip312)" cx="2294.39" cy="1055.11" r="14.4" fill="#009af9" fill-rule="evenodd" fill-opacity="1" stroke="#000000" stroke-opacity="1" stroke-width="3.2"/>
<circle clip-path="url(#clip312)" cx="348.891" cy="1265.94" r="14.4" fill="#e26f46" fill-rule="evenodd" fill-opacity="1" stroke="#000000" stroke-opacity="1" stroke-width="3.2"/>
<circle clip-path="url(#clip312)" cx="543.441" cy="1343.55" r="14.4" fill="#e26f46" fill-rule="evenodd" fill-opacity="1" stroke="#000000" stroke-opacity="1" stroke-width="3.2"/>
<circle clip-path="url(#clip312)" cx="737.991" cy="1344.41" r="14.4" fill="#e26f46" fill-rule="evenodd" fill-opacity="1" stroke="#000000" stroke-opacity="1" stroke-width="3.2"/>
<circle clip-path="url(#clip312)" cx="932.541" cy="1287.72" r="14.4" fill="#e26f46" fill-rule="evenodd" fill-opacity="1" stroke="#000000" stroke-opacity="1" stroke-width="3.2"/>
<circle clip-path="url(#clip312)" cx="1127.09" cy="1192.65" r="14.4" fill="#e26f46" fill-rule="evenodd" fill-opacity="1" stroke="#000000" stroke-opacity="1" stroke-width="3.2"/>
<circle clip-path="url(#clip312)" cx="1321.64" cy="1078.39" r="14.4" fill="#e26f46" fill-rule="evenodd" fill-opacity="1" stroke="#000000" stroke-opacity="1" stroke-width="3.2"/>
<circle clip-path="url(#clip312)" cx="1516.19" cy="964.14" r="14.4" fill="#e26f46" fill-rule="evenodd" fill-opacity="1" stroke="#000000" stroke-opacity="1" stroke-width="3.2"/>
<circle clip-path="url(#clip312)" cx="1710.74" cy="869.072" r="14.4" fill="#e26f46" fill-rule="evenodd" fill-opacity="1" stroke="#000000" stroke-opacity="1" stroke-width="3.2"/>
<circle clip-path="url(#clip312)" cx="1905.29" cy="812.375" r="14.4" fill="#e26f46" fill-rule="evenodd" fill-opacity="1" stroke="#000000" stroke-opacity="1" stroke-width="3.2"/>
<circle clip-path="url(#clip312)" cx="2099.84" cy="813.238" r="14.4" fill="#e26f46" fill-rule="evenodd" fill-opacity="1" stroke="#000000" stroke-opacity="1" stroke-width="3.2"/>
<circle clip-path="url(#clip312)" cx="2294.39" cy="890.845" r="14.4" fill="#e26f46" fill-rule="evenodd" fill-opacity="1" stroke="#000000" stroke-opacity="1" stroke-width="3.2"/>
<circle clip-path="url(#clip312)" cx="348.891" cy="1020.19" r="14.4" fill="#3da44d" fill-rule="evenodd" fill-opacity="1" stroke="#000000" stroke-opacity="1" stroke-width="3.2"/>
<circle clip-path="url(#clip312)" cx="543.441" cy="1055.11" r="14.4" fill="#3da44d" fill-rule="evenodd" fill-opacity="1" stroke="#000000" stroke-opacity="1" stroke-width="3.2"/>
<circle clip-path="url(#clip312)" cx="737.991" cy="1082.28" r="14.4" fill="#3da44d" fill-rule="evenodd" fill-opacity="1" stroke="#000000" stroke-opacity="1" stroke-width="3.2"/>
<circle clip-path="url(#clip312)" cx="932.541" cy="1101.68" r="14.4" fill="#3da44d" fill-rule="evenodd" fill-opacity="1" stroke="#000000" stroke-opacity="1" stroke-width="3.2"/>
<circle clip-path="url(#clip312)" cx="1127.09" cy="1113.32" r="14.4" fill="#3da44d" fill-rule="evenodd" fill-opacity="1" stroke="#000000" stroke-opacity="1" stroke-width="3.2"/>
<circle clip-path="url(#clip312)" cx="1321.64" cy="1117.2" r="14.4" fill="#3da44d" fill-rule="evenodd" fill-opacity="1" stroke="#000000" stroke-opacity="1" stroke-width="3.2"/>
<circle clip-path="url(#clip312)" cx="1516.19" cy="1113.32" r="14.4" fill="#3da44d" fill-rule="evenodd" fill-opacity="1" stroke="#000000" stroke-opacity="1" stroke-width="3.2"/>
<circle clip-path="url(#clip312)" cx="1710.74" cy="1101.68" r="14.4" fill="#3da44d" fill-rule="evenodd" fill-opacity="1" stroke="#000000" stroke-opacity="1" stroke-width="3.2"/>
<circle clip-path="url(#clip312)" cx="1905.29" cy="1082.28" r="14.4" fill="#3da44d" fill-rule="evenodd" fill-opacity="1" stroke="#000000" stroke-opacity="1" stroke-width="3.2"/>
<circle clip-path="url(#clip312)" cx="2099.84" cy="1055.11" r="14.4" fill="#3da44d" fill-rule="evenodd" fill-opacity="1" stroke="#000000" stroke-opacity="1" stroke-width="3.2"/>
<circle clip-path="url(#clip312)" cx="2294.39" cy="1020.19" r="14.4" fill="#3da44d" fill-rule="evenodd" fill-opacity="1" stroke="#000000" stroke-opacity="1" stroke-width="3.2"/>
<path clip-path="url(#clip310)" d="M1322.26 299.102 L2284.01 299.102 L2284.01 91.7425 L1322.26 91.7425  Z" fill="#ffffff" fill-rule="evenodd" fill-opacity="1"/>
<polyline clip-path="url(#clip310)" style="stroke:#000000; stroke-linecap:round; stroke-linejoin:round; stroke-width:4; stroke-opacity:1; fill:none" points="1322.26,299.102 2284.01,299.102 2284.01,91.7425 1322.26,91.7425 1322.26,299.102 "/>
<circle clip-path="url(#clip310)" cx="1413.92" cy="143.582" r="20.48" fill="#009af9" fill-rule="evenodd" fill-opacity="1" stroke="#000000" stroke-opacity="1" stroke-width="4.55111"/>
<path clip-path="url(#clip310)" d="M1505.57 134.937 L1509.83 134.937 L1515.16 155.168 L1520.46 134.937 L1525.48 134.937 L1530.8 155.168 L1536.11 134.937 L1540.36 134.937 L1533.58 160.862 L1528.56 160.862 L1522.98 139.613 L1517.38 160.862 L1512.36 160.862 L1505.57 134.937 Z" fill="#000000" fill-rule="nonzero" fill-opacity="1" /><path clip-path="url(#clip310)" d="M1546.82 134.937 L1551.08 134.937 L1551.08 160.862 L1546.82 160.862 L1546.82 134.937 M1546.82 124.844 L1551.08 124.844 L1551.08 130.238 L1546.82 130.238 L1546.82 124.844 Z" fill="#000000" fill-rule="nonzero" fill-opacity="1" /><path clip-path="url(#clip310)" d="M1581.54 145.214 L1581.54 160.862 L1577.29 160.862 L1577.29 145.353 Q1577.29 141.673 1575.85 139.844 Q1574.42 138.015 1571.54 138.015 Q1568.1 138.015 1566.1 140.214 Q1564.11 142.414 1564.11 146.21 L1564.11 160.862 L1559.83 160.862 L1559.83 134.937 L1564.11 134.937 L1564.11 138.964 Q1565.64 136.627 1567.7 135.469 Q1569.79 134.312 1572.49 134.312 Q1576.96 134.312 1579.25 137.089 Q1581.54 139.844 1581.54 145.214 Z" fill="#000000" fill-rule="nonzero" fill-opacity="1" /><path clip-path="url(#clip310)" d="M1607.1 138.872 L1607.1 124.844 L1611.36 124.844 L1611.36 160.862 L1607.1 160.862 L1607.1 156.974 Q1605.76 159.288 1603.7 160.423 Q1601.66 161.534 1598.79 161.534 Q1594.09 161.534 1591.13 157.784 Q1588.19 154.034 1588.19 147.923 Q1588.19 141.812 1591.13 138.062 Q1594.09 134.312 1598.79 134.312 Q1601.66 134.312 1603.7 135.446 Q1605.76 136.557 1607.1 138.872 M1592.59 147.923 Q1592.59 152.622 1594.51 155.307 Q1596.45 157.969 1599.83 157.969 Q1603.21 157.969 1605.16 155.307 Q1607.1 152.622 1607.1 147.923 Q1607.1 143.224 1605.16 140.562 Q1603.21 137.877 1599.83 137.877 Q1596.45 137.877 1594.51 140.562 Q1592.59 143.224 1592.59 147.923 Z" fill="#000000" fill-rule="nonzero" fill-opacity="1" /><path clip-path="url(#clip310)" d="M1630.18 137.923 Q1626.75 137.923 1624.76 140.608 Q1622.77 143.27 1622.77 147.923 Q1622.77 152.575 1624.74 155.261 Q1626.73 157.923 1630.18 157.923 Q1633.58 157.923 1635.57 155.238 Q1637.56 152.552 1637.56 147.923 Q1637.56 143.316 1635.57 140.631 Q1633.58 137.923 1630.18 137.923 M1630.18 134.312 Q1635.73 134.312 1638.91 137.923 Q1642.08 141.534 1642.08 147.923 Q1642.08 154.288 1638.91 157.923 Q1635.73 161.534 1630.18 161.534 Q1624.6 161.534 1621.43 157.923 Q1618.28 154.288 1618.28 147.923 Q1618.28 141.534 1621.43 137.923 Q1624.6 134.312 1630.18 134.312 Z" fill="#000000" fill-rule="nonzero" fill-opacity="1" /><path clip-path="url(#clip310)" d="M1646.66 134.937 L1650.92 134.937 L1656.24 155.168 L1661.54 134.937 L1666.57 134.937 L1671.89 155.168 L1677.19 134.937 L1681.45 134.937 L1674.67 160.862 L1669.65 160.862 L1664.07 139.613 L1658.47 160.862 L1653.44 160.862 L1646.66 134.937 Z" fill="#000000" fill-rule="nonzero" fill-opacity="1" /><path clip-path="url(#clip310)" d="M1716.1 124.844 L1716.1 128.386 L1712.03 128.386 Q1709.74 128.386 1708.84 129.312 Q1707.96 130.238 1707.96 132.645 L1707.96 134.937 L1714.97 134.937 L1714.97 138.247 L1707.96 138.247 L1707.96 160.862 L1703.67 160.862 L1703.67 138.247 L1699.6 138.247 L1699.6 134.937 L1703.67 134.937 L1703.67 133.131 Q1703.67 128.802 1705.69 126.835 Q1707.7 124.844 1712.08 124.844 L1716.1 124.844 Z" fill="#000000" fill-rule="nonzero" fill-opacity="1" /><path clip-path="url(#clip310)" d="M1729.72 137.923 Q1726.29 137.923 1724.3 140.608 Q1722.31 143.27 1722.31 147.923 Q1722.31 152.575 1724.28 155.261 Q1726.27 157.923 1729.72 157.923 Q1733.12 157.923 1735.11 155.238 Q1737.1 152.552 1737.1 147.923 Q1737.1 143.316 1735.11 140.631 Q1733.12 137.923 1729.72 137.923 M1729.72 134.312 Q1735.27 134.312 1738.44 137.923 Q1741.61 141.534 1741.61 147.923 Q1741.61 154.288 1738.44 157.923 Q1735.27 161.534 1729.72 161.534 Q1724.14 161.534 1720.97 157.923 Q1717.82 154.288 1717.82 147.923 Q1717.82 141.534 1720.97 137.923 Q1724.14 134.312 1729.72 134.312 Z" fill="#000000" fill-rule="nonzero" fill-opacity="1" /><path clip-path="url(#clip310)" d="M1763.7 138.918 Q1762.98 138.501 1762.12 138.316 Q1761.29 138.108 1760.27 138.108 Q1756.66 138.108 1754.72 140.469 Q1752.79 142.807 1752.79 147.205 L1752.79 160.862 L1748.51 160.862 L1748.51 134.937 L1752.79 134.937 L1752.79 138.964 Q1754.14 136.603 1756.29 135.469 Q1758.44 134.312 1761.52 134.312 Q1761.96 134.312 1762.49 134.381 Q1763.03 134.427 1763.67 134.543 L1763.7 138.918 Z" fill="#000000" fill-rule="nonzero" fill-opacity="1" /><path clip-path="url(#clip310)" d="M1799.76 135.701 L1799.76 139.728 Q1797.96 138.802 1796.01 138.339 Q1794.07 137.877 1791.98 137.877 Q1788.81 137.877 1787.21 138.849 Q1785.64 139.821 1785.64 141.765 Q1785.64 143.247 1786.78 144.103 Q1787.91 144.937 1791.34 145.701 L1792.79 146.025 Q1797.33 146.997 1799.23 148.779 Q1801.15 150.538 1801.15 153.71 Q1801.15 157.321 1798.28 159.427 Q1795.43 161.534 1790.43 161.534 Q1788.35 161.534 1786.08 161.117 Q1783.84 160.724 1781.34 159.913 L1781.34 155.515 Q1783.7 156.742 1785.99 157.367 Q1788.28 157.969 1790.53 157.969 Q1793.53 157.969 1795.15 156.95 Q1796.78 155.909 1796.78 154.034 Q1796.78 152.298 1795.59 151.372 Q1794.44 150.446 1790.48 149.589 L1789 149.242 Q1785.04 148.409 1783.28 146.696 Q1781.52 144.96 1781.52 141.951 Q1781.52 138.293 1784.11 136.302 Q1786.71 134.312 1791.47 134.312 Q1793.84 134.312 1795.92 134.659 Q1798 135.006 1799.76 135.701 Z" fill="#000000" fill-rule="nonzero" fill-opacity="1" /><path clip-path="url(#clip310)" d="M1828.12 139.914 Q1829.71 137.043 1831.94 135.677 Q1834.16 134.312 1837.17 134.312 Q1841.22 134.312 1843.42 137.159 Q1845.62 139.983 1845.62 145.214 L1845.62 160.862 L1841.33 160.862 L1841.33 145.353 Q1841.33 141.626 1840.02 139.821 Q1838.7 138.015 1835.99 138.015 Q1832.68 138.015 1830.76 140.214 Q1828.84 142.414 1828.84 146.21 L1828.84 160.862 L1824.55 160.862 L1824.55 145.353 Q1824.55 141.603 1823.23 139.821 Q1821.91 138.015 1819.16 138.015 Q1815.9 138.015 1813.97 140.238 Q1812.05 142.437 1812.05 146.21 L1812.05 160.862 L1807.77 160.862 L1807.77 134.937 L1812.05 134.937 L1812.05 138.964 Q1813.51 136.58 1815.55 135.446 Q1817.59 134.312 1820.39 134.312 Q1823.21 134.312 1825.18 135.747 Q1827.17 137.182 1828.12 139.914 Z" fill="#000000" fill-rule="nonzero" fill-opacity="1" /><path clip-path="url(#clip310)" d="M1864.16 137.923 Q1860.73 137.923 1858.74 140.608 Q1856.75 143.27 1856.75 147.923 Q1856.75 152.575 1858.72 155.261 Q1860.71 157.923 1864.16 157.923 Q1867.56 157.923 1869.55 155.238 Q1871.54 152.552 1871.54 147.923 Q1871.54 143.316 1869.55 140.631 Q1867.56 137.923 1864.16 137.923 M1864.16 134.312 Q1869.71 134.312 1872.89 137.923 Q1876.06 141.534 1876.06 147.923 Q1876.06 154.288 1872.89 157.923 Q1869.71 161.534 1864.16 161.534 Q1858.58 161.534 1855.41 157.923 Q1852.26 154.288 1852.26 147.923 Q1852.26 141.534 1855.41 137.923 Q1858.58 134.312 1864.16 134.312 Z" fill="#000000" fill-rule="nonzero" fill-opacity="1" /><path clip-path="url(#clip310)" d="M1893.16 137.923 Q1889.74 137.923 1887.75 140.608 Q1885.76 143.27 1885.76 147.923 Q1885.76 152.575 1887.72 155.261 Q1889.71 157.923 1893.16 157.923 Q1896.57 157.923 1898.56 155.238 Q1900.55 152.552 1900.55 147.923 Q1900.55 143.316 1898.56 140.631 Q1896.57 137.923 1893.16 137.923 M1893.16 134.312 Q1898.72 134.312 1901.89 137.923 Q1905.06 141.534 1905.06 147.923 Q1905.06 154.288 1901.89 157.923 Q1898.72 161.534 1893.16 161.534 Q1887.58 161.534 1884.41 157.923 Q1881.27 154.288 1881.27 147.923 Q1881.27 141.534 1884.41 137.923 Q1887.58 134.312 1893.16 134.312 Z" fill="#000000" fill-rule="nonzero" fill-opacity="1" /><path clip-path="url(#clip310)" d="M1916.33 127.576 L1916.33 134.937 L1925.11 134.937 L1925.11 138.247 L1916.33 138.247 L1916.33 152.321 Q1916.33 155.492 1917.19 156.395 Q1918.07 157.298 1920.73 157.298 L1925.11 157.298 L1925.11 160.862 L1920.73 160.862 Q1915.8 160.862 1913.93 159.034 Q1912.05 157.182 1912.05 152.321 L1912.05 138.247 L1908.93 138.247 L1908.93 134.937 L1912.05 134.937 L1912.05 127.576 L1916.33 127.576 Z" fill="#000000" fill-rule="nonzero" fill-opacity="1" /><path clip-path="url(#clip310)" d="M1952.26 145.214 L1952.26 160.862 L1948 160.862 L1948 145.353 Q1948 141.673 1946.57 139.844 Q1945.13 138.015 1942.26 138.015 Q1938.81 138.015 1936.82 140.214 Q1934.83 142.414 1934.83 146.21 L1934.83 160.862 L1930.55 160.862 L1930.55 124.844 L1934.83 124.844 L1934.83 138.964 Q1936.36 136.627 1938.42 135.469 Q1940.5 134.312 1943.21 134.312 Q1947.68 134.312 1949.97 137.089 Q1952.26 139.844 1952.26 145.214 Z" fill="#000000" fill-rule="nonzero" fill-opacity="1" /><path clip-path="url(#clip310)" d="M1960.76 134.937 L1965.01 134.937 L1965.01 160.862 L1960.76 160.862 L1960.76 134.937 M1960.76 124.844 L1965.01 124.844 L1965.01 130.238 L1960.76 130.238 L1960.76 124.844 Z" fill="#000000" fill-rule="nonzero" fill-opacity="1" /><path clip-path="url(#clip310)" d="M1995.48 145.214 L1995.48 160.862 L1991.22 160.862 L1991.22 145.353 Q1991.22 141.673 1989.78 139.844 Q1988.35 138.015 1985.48 138.015 Q1982.03 138.015 1980.04 140.214 Q1978.05 142.414 1978.05 146.21 L1978.05 160.862 L1973.76 160.862 L1973.76 134.937 L1978.05 134.937 L1978.05 138.964 Q1979.57 136.627 1981.64 135.469 Q1983.72 134.312 1986.43 134.312 Q1990.89 134.312 1993.19 137.089 Q1995.48 139.844 1995.48 145.214 Z" fill="#000000" fill-rule="nonzero" fill-opacity="1" /><path clip-path="url(#clip310)" d="M2021.03 147.599 Q2021.03 142.969 2019.11 140.423 Q2017.21 137.877 2013.76 137.877 Q2010.34 137.877 2008.42 140.423 Q2006.52 142.969 2006.52 147.599 Q2006.52 152.205 2008.42 154.751 Q2010.34 157.298 2013.76 157.298 Q2017.21 157.298 2019.11 154.751 Q2021.03 152.205 2021.03 147.599 M2025.29 157.645 Q2025.29 164.265 2022.35 167.483 Q2019.41 170.724 2013.35 170.724 Q2011.1 170.724 2009.11 170.376 Q2007.12 170.052 2005.25 169.358 L2005.25 165.214 Q2007.12 166.233 2008.95 166.719 Q2010.78 167.205 2012.68 167.205 Q2016.87 167.205 2018.95 165.006 Q2021.03 162.83 2021.03 158.409 L2021.03 156.302 Q2019.71 158.594 2017.65 159.728 Q2015.59 160.862 2012.72 160.862 Q2007.95 160.862 2005.04 157.228 Q2002.12 153.594 2002.12 147.599 Q2002.12 141.58 2005.04 137.946 Q2007.95 134.312 2012.72 134.312 Q2015.59 134.312 2017.65 135.446 Q2019.71 136.58 2021.03 138.872 L2021.03 134.937 L2025.29 134.937 L2025.29 157.645 Z" fill="#000000" fill-rule="nonzero" fill-opacity="1" /><circle clip-path="url(#clip310)" cx="1413.92" cy="195.422" r="20.48" fill="#e26f46" fill-rule="evenodd" fill-opacity="1" stroke="#000000" stroke-opacity="1" stroke-width="4.55111"/>
<path clip-path="url(#clip310)" d="M1505.57 186.777 L1509.83 186.777 L1515.16 207.008 L1520.46 186.777 L1525.48 186.777 L1530.8 207.008 L1536.11 186.777 L1540.36 186.777 L1533.58 212.702 L1528.56 212.702 L1522.98 191.453 L1517.38 212.702 L1512.36 212.702 L1505.57 186.777 Z" fill="#000000" fill-rule="nonzero" fill-opacity="1" /><path clip-path="url(#clip310)" d="M1546.82 186.777 L1551.08 186.777 L1551.08 212.702 L1546.82 212.702 L1546.82 186.777 M1546.82 176.684 L1551.08 176.684 L1551.08 182.078 L1546.82 182.078 L1546.82 176.684 Z" fill="#000000" fill-rule="nonzero" fill-opacity="1" /><path clip-path="url(#clip310)" d="M1581.54 197.054 L1581.54 212.702 L1577.29 212.702 L1577.29 197.193 Q1577.29 193.513 1575.85 191.684 Q1574.42 189.855 1571.54 189.855 Q1568.1 189.855 1566.1 192.054 Q1564.11 194.254 1564.11 198.05 L1564.11 212.702 L1559.83 212.702 L1559.83 186.777 L1564.11 186.777 L1564.11 190.804 Q1565.64 188.467 1567.7 187.309 Q1569.79 186.152 1572.49 186.152 Q1576.96 186.152 1579.25 188.929 Q1581.54 191.684 1581.54 197.054 Z" fill="#000000" fill-rule="nonzero" fill-opacity="1" /><path clip-path="url(#clip310)" d="M1607.1 190.712 L1607.1 176.684 L1611.36 176.684 L1611.36 212.702 L1607.1 212.702 L1607.1 208.814 Q1605.76 211.128 1603.7 212.263 Q1601.66 213.374 1598.79 213.374 Q1594.09 213.374 1591.13 209.624 Q1588.19 205.874 1588.19 199.763 Q1588.19 193.652 1591.13 189.902 Q1594.09 186.152 1598.79 186.152 Q1601.66 186.152 1603.7 187.286 Q1605.76 188.397 1607.1 190.712 M1592.59 199.763 Q1592.59 204.462 1594.51 207.147 Q1596.45 209.809 1599.83 209.809 Q1603.21 209.809 1605.16 207.147 Q1607.1 204.462 1607.1 199.763 Q1607.1 195.064 1605.16 192.402 Q1603.21 189.717 1599.83 189.717 Q1596.45 189.717 1594.51 192.402 Q1592.59 195.064 1592.59 199.763 Z" fill="#000000" fill-rule="nonzero" fill-opacity="1" /><path clip-path="url(#clip310)" d="M1630.18 189.763 Q1626.75 189.763 1624.76 192.448 Q1622.77 195.11 1622.77 199.763 Q1622.77 204.415 1624.74 207.101 Q1626.73 209.763 1630.18 209.763 Q1633.58 209.763 1635.57 207.078 Q1637.56 204.392 1637.56 199.763 Q1637.56 195.156 1635.57 192.471 Q1633.58 189.763 1630.18 189.763 M1630.18 186.152 Q1635.73 186.152 1638.91 189.763 Q1642.08 193.374 1642.08 199.763 Q1642.08 206.128 1638.91 209.763 Q1635.73 213.374 1630.18 213.374 Q1624.6 213.374 1621.43 209.763 Q1618.28 206.128 1618.28 199.763 Q1618.28 193.374 1621.43 189.763 Q1624.6 186.152 1630.18 186.152 Z" fill="#000000" fill-rule="nonzero" fill-opacity="1" /><path clip-path="url(#clip310)" d="M1646.66 186.777 L1650.92 186.777 L1656.24 207.008 L1661.54 186.777 L1666.57 186.777 L1671.89 207.008 L1677.19 186.777 L1681.45 186.777 L1674.67 212.702 L1669.65 212.702 L1664.07 191.453 L1658.47 212.702 L1653.44 212.702 L1646.66 186.777 Z" fill="#000000" fill-rule="nonzero" fill-opacity="1" /><path clip-path="url(#clip310)" d="M1716.1 176.684 L1716.1 180.226 L1712.03 180.226 Q1709.74 180.226 1708.84 181.152 Q1707.96 182.078 1707.96 184.485 L1707.96 186.777 L1714.97 186.777 L1714.97 190.087 L1707.96 190.087 L1707.96 212.702 L1703.67 212.702 L1703.67 190.087 L1699.6 190.087 L1699.6 186.777 L1703.67 186.777 L1703.67 184.971 Q1703.67 180.642 1705.69 178.675 Q1707.7 176.684 1712.08 176.684 L1716.1 176.684 Z" fill="#000000" fill-rule="nonzero" fill-opacity="1" /><path clip-path="url(#clip310)" d="M1729.72 189.763 Q1726.29 189.763 1724.3 192.448 Q1722.31 195.11 1722.31 199.763 Q1722.31 204.415 1724.28 207.101 Q1726.27 209.763 1729.72 209.763 Q1733.12 209.763 1735.11 207.078 Q1737.1 204.392 1737.1 199.763 Q1737.1 195.156 1735.11 192.471 Q1733.12 189.763 1729.72 189.763 M1729.72 186.152 Q1735.27 186.152 1738.44 189.763 Q1741.61 193.374 1741.61 199.763 Q1741.61 206.128 1738.44 209.763 Q1735.27 213.374 1729.72 213.374 Q1724.14 213.374 1720.97 209.763 Q1717.82 206.128 1717.82 199.763 Q1717.82 193.374 1720.97 189.763 Q1724.14 186.152 1729.72 186.152 Z" fill="#000000" fill-rule="nonzero" fill-opacity="1" /><path clip-path="url(#clip310)" d="M1763.7 190.758 Q1762.98 190.341 1762.12 190.156 Q1761.29 189.948 1760.27 189.948 Q1756.66 189.948 1754.72 192.309 Q1752.79 194.647 1752.79 199.045 L1752.79 212.702 L1748.51 212.702 L1748.51 186.777 L1752.79 186.777 L1752.79 190.804 Q1754.14 188.443 1756.29 187.309 Q1758.44 186.152 1761.52 186.152 Q1761.96 186.152 1762.49 186.221 Q1763.03 186.267 1763.67 186.383 L1763.7 190.758 Z" fill="#000000" fill-rule="nonzero" fill-opacity="1" /><path clip-path="url(#clip310)" d="M1784.65 208.767 L1792.28 208.767 L1792.28 182.402 L1783.97 184.068 L1783.97 179.809 L1792.24 178.142 L1796.91 178.142 L1796.91 208.767 L1804.55 208.767 L1804.55 212.702 L1784.65 212.702 L1784.65 208.767 Z" fill="#000000" fill-rule="nonzero" fill-opacity="1" /><path clip-path="url(#clip310)" d="M1829.92 187.541 L1829.92 191.568 Q1828.12 190.642 1826.17 190.179 Q1824.23 189.717 1822.15 189.717 Q1818.97 189.717 1817.38 190.689 Q1815.8 191.661 1815.8 193.605 Q1815.8 195.087 1816.94 195.943 Q1818.07 196.777 1821.5 197.541 L1822.96 197.865 Q1827.49 198.837 1829.39 200.619 Q1831.31 202.378 1831.31 205.55 Q1831.31 209.161 1828.44 211.267 Q1825.59 213.374 1820.59 213.374 Q1818.51 213.374 1816.24 212.957 Q1814 212.564 1811.5 211.753 L1811.5 207.355 Q1813.86 208.582 1816.15 209.207 Q1818.44 209.809 1820.69 209.809 Q1823.7 209.809 1825.32 208.79 Q1826.94 207.749 1826.94 205.874 Q1826.94 204.138 1825.76 203.212 Q1824.6 202.286 1820.64 201.429 L1819.16 201.082 Q1815.2 200.249 1813.44 198.536 Q1811.68 196.8 1811.68 193.791 Q1811.68 190.133 1814.27 188.142 Q1816.87 186.152 1821.64 186.152 Q1824 186.152 1826.08 186.499 Q1828.16 186.846 1829.92 187.541 Z" fill="#000000" fill-rule="nonzero" fill-opacity="1" /><path clip-path="url(#clip310)" d="M1842.31 179.416 L1842.31 186.777 L1851.08 186.777 L1851.08 190.087 L1842.31 190.087 L1842.31 204.161 Q1842.31 207.332 1843.16 208.235 Q1844.04 209.138 1846.71 209.138 L1851.08 209.138 L1851.08 212.702 L1846.71 212.702 Q1841.77 212.702 1839.9 210.874 Q1838.02 209.022 1838.02 204.161 L1838.02 190.087 L1834.9 190.087 L1834.9 186.777 L1838.02 186.777 L1838.02 179.416 L1842.31 179.416 Z" fill="#000000" fill-rule="nonzero" fill-opacity="1" /><path clip-path="url(#clip310)" d="M1881.8 189.763 Q1878.37 189.763 1876.38 192.448 Q1874.39 195.11 1874.39 199.763 Q1874.39 204.415 1876.36 207.101 Q1878.35 209.763 1881.8 209.763 Q1885.2 209.763 1887.19 207.078 Q1889.18 204.392 1889.18 199.763 Q1889.18 195.156 1887.19 192.471 Q1885.2 189.763 1881.8 189.763 M1881.8 186.152 Q1887.35 186.152 1890.52 189.763 Q1893.7 193.374 1893.7 199.763 Q1893.7 206.128 1890.52 209.763 Q1887.35 213.374 1881.8 213.374 Q1876.22 213.374 1873.05 209.763 Q1869.9 206.128 1869.9 199.763 Q1869.9 193.374 1873.05 189.763 Q1876.22 186.152 1881.8 186.152 Z" fill="#000000" fill-rule="nonzero" fill-opacity="1" /><path clip-path="url(#clip310)" d="M1915.78 190.758 Q1915.06 190.341 1914.2 190.156 Q1913.37 189.948 1912.35 189.948 Q1908.74 189.948 1906.8 192.309 Q1904.88 194.647 1904.88 199.045 L1904.88 212.702 L1900.59 212.702 L1900.59 186.777 L1904.88 186.777 L1904.88 190.804 Q1906.22 188.443 1908.37 187.309 Q1910.52 186.152 1913.6 186.152 Q1914.04 186.152 1914.58 186.221 Q1915.11 186.267 1915.76 186.383 L1915.78 190.758 Z" fill="#000000" fill-rule="nonzero" fill-opacity="1" /><path clip-path="url(#clip310)" d="M1936.47 190.712 L1936.47 176.684 L1940.73 176.684 L1940.73 212.702 L1936.47 212.702 L1936.47 208.814 Q1935.13 211.128 1933.07 212.263 Q1931.03 213.374 1928.16 213.374 Q1923.46 213.374 1920.5 209.624 Q1917.56 205.874 1917.56 199.763 Q1917.56 193.652 1920.5 189.902 Q1923.46 186.152 1928.16 186.152 Q1931.03 186.152 1933.07 187.286 Q1935.13 188.397 1936.47 190.712 M1921.96 199.763 Q1921.96 204.462 1923.88 207.147 Q1925.83 209.809 1929.2 209.809 Q1932.58 209.809 1934.53 207.147 Q1936.47 204.462 1936.47 199.763 Q1936.47 195.064 1934.53 192.402 Q1932.58 189.717 1929.2 189.717 Q1925.83 189.717 1923.88 192.402 Q1921.96 195.064 1921.96 199.763 Z" fill="#000000" fill-rule="nonzero" fill-opacity="1" /><path clip-path="url(#clip310)" d="M1971.68 198.675 L1971.68 200.758 L1952.1 200.758 Q1952.38 205.156 1954.74 207.471 Q1957.12 209.763 1961.36 209.763 Q1963.81 209.763 1966.1 209.161 Q1968.42 208.559 1970.69 207.355 L1970.69 211.383 Q1968.39 212.355 1965.99 212.865 Q1963.58 213.374 1961.1 213.374 Q1954.9 213.374 1951.26 209.763 Q1947.65 206.152 1947.65 199.994 Q1947.65 193.629 1951.08 189.902 Q1954.53 186.152 1960.36 186.152 Q1965.59 186.152 1968.63 189.531 Q1971.68 192.888 1971.68 198.675 M1967.42 197.425 Q1967.38 193.929 1965.45 191.846 Q1963.56 189.763 1960.41 189.763 Q1956.84 189.763 1954.69 191.777 Q1952.56 193.791 1952.24 197.448 L1967.42 197.425 Z" fill="#000000" fill-rule="nonzero" fill-opacity="1" /><path clip-path="url(#clip310)" d="M1993.7 190.758 Q1992.98 190.341 1992.12 190.156 Q1991.29 189.948 1990.27 189.948 Q1986.66 189.948 1984.71 192.309 Q1982.79 194.647 1982.79 199.045 L1982.79 212.702 L1978.51 212.702 L1978.51 186.777 L1982.79 186.777 L1982.79 190.804 Q1984.14 188.443 1986.29 187.309 Q1988.44 186.152 1991.52 186.152 Q1991.96 186.152 1992.49 186.221 Q1993.02 186.267 1993.67 186.383 L1993.7 190.758 Z" fill="#000000" fill-rule="nonzero" fill-opacity="1" /><path clip-path="url(#clip310)" d="M2030.29 190.712 L2030.29 176.684 L2034.55 176.684 L2034.55 212.702 L2030.29 212.702 L2030.29 208.814 Q2028.95 211.128 2026.89 212.263 Q2024.85 213.374 2021.98 213.374 Q2017.28 213.374 2014.32 209.624 Q2011.38 205.874 2011.38 199.763 Q2011.38 193.652 2014.32 189.902 Q2017.28 186.152 2021.98 186.152 Q2024.85 186.152 2026.89 187.286 Q2028.95 188.397 2030.29 190.712 M2015.78 199.763 Q2015.78 204.462 2017.7 207.147 Q2019.64 209.809 2023.02 209.809 Q2026.4 209.809 2028.35 207.147 Q2030.29 204.462 2030.29 199.763 Q2030.29 195.064 2028.35 192.402 Q2026.4 189.717 2023.02 189.717 Q2019.64 189.717 2017.7 192.402 Q2015.78 195.064 2015.78 199.763 Z" fill="#000000" fill-rule="nonzero" fill-opacity="1" /><path clip-path="url(#clip310)" d="M2065.5 198.675 L2065.5 200.758 L2045.92 200.758 Q2046.19 205.156 2048.56 207.471 Q2050.94 209.763 2055.18 209.763 Q2057.63 209.763 2059.92 209.161 Q2062.24 208.559 2064.51 207.355 L2064.51 211.383 Q2062.21 212.355 2059.81 212.865 Q2057.4 213.374 2054.92 213.374 Q2048.72 213.374 2045.08 209.763 Q2041.47 206.152 2041.47 199.994 Q2041.47 193.629 2044.9 189.902 Q2048.35 186.152 2054.18 186.152 Q2059.41 186.152 2062.44 189.531 Q2065.5 192.888 2065.5 198.675 M2061.24 197.425 Q2061.19 193.929 2059.27 191.846 Q2057.38 189.763 2054.23 189.763 Q2050.66 189.763 2048.51 191.777 Q2046.38 193.791 2046.06 197.448 L2061.24 197.425 Z" fill="#000000" fill-rule="nonzero" fill-opacity="1" /><path clip-path="url(#clip310)" d="M2087.51 190.758 Q2086.8 190.341 2085.94 190.156 Q2085.11 189.948 2084.09 189.948 Q2080.48 189.948 2078.53 192.309 Q2076.61 194.647 2076.61 199.045 L2076.61 212.702 L2072.33 212.702 L2072.33 186.777 L2076.61 186.777 L2076.61 190.804 Q2077.95 188.443 2080.11 187.309 Q2082.26 186.152 2085.34 186.152 Q2085.78 186.152 2086.31 186.221 Q2086.84 186.267 2087.49 186.383 L2087.51 190.758 Z" fill="#000000" fill-rule="nonzero" fill-opacity="1" /><path clip-path="url(#clip310)" d="M2091.98 186.777 L2096.24 186.777 L2096.24 212.702 L2091.98 212.702 L2091.98 186.777 M2091.98 176.684 L2096.24 176.684 L2096.24 182.078 L2091.98 182.078 L2091.98 176.684 Z" fill="#000000" fill-rule="nonzero" fill-opacity="1" /><path clip-path="url(#clip310)" d="M2102.1 186.777 L2106.61 186.777 L2114.71 208.536 L2122.81 186.777 L2127.33 186.777 L2117.61 212.702 L2111.82 212.702 L2102.1 186.777 Z" fill="#000000" fill-rule="nonzero" fill-opacity="1" /><path clip-path="url(#clip310)" d="M2144.99 199.67 Q2139.83 199.67 2137.84 200.851 Q2135.85 202.031 2135.85 204.878 Q2135.85 207.147 2137.33 208.49 Q2138.83 209.809 2141.4 209.809 Q2144.94 209.809 2147.07 207.309 Q2149.23 204.786 2149.23 200.619 L2149.23 199.67 L2144.99 199.67 M2153.49 197.911 L2153.49 212.702 L2149.23 212.702 L2149.23 208.767 Q2147.77 211.128 2145.59 212.263 Q2143.42 213.374 2140.27 213.374 Q2136.29 213.374 2133.93 211.152 Q2131.59 208.906 2131.59 205.156 Q2131.59 200.781 2134.5 198.559 Q2137.44 196.337 2143.25 196.337 L2149.23 196.337 L2149.23 195.92 Q2149.23 192.98 2147.28 191.383 Q2145.36 189.763 2141.87 189.763 Q2139.64 189.763 2137.54 190.295 Q2135.43 190.828 2133.49 191.892 L2133.49 187.957 Q2135.82 187.054 2138.02 186.615 Q2140.22 186.152 2142.31 186.152 Q2147.93 186.152 2150.71 189.068 Q2153.49 191.985 2153.49 197.911 Z" fill="#000000" fill-rule="nonzero" fill-opacity="1" /><path clip-path="url(#clip310)" d="M2166.47 179.416 L2166.47 186.777 L2175.25 186.777 L2175.25 190.087 L2166.47 190.087 L2166.47 204.161 Q2166.47 207.332 2167.33 208.235 Q2168.21 209.138 2170.87 209.138 L2175.25 209.138 L2175.25 212.702 L2170.87 212.702 Q2165.94 212.702 2164.06 210.874 Q2162.19 209.022 2162.19 204.161 L2162.19 190.087 L2159.06 190.087 L2159.06 186.777 L2162.19 186.777 L2162.19 179.416 L2166.47 179.416 Z" fill="#000000" fill-rule="nonzero" fill-opacity="1" /><path clip-path="url(#clip310)" d="M2180.85 186.777 L2185.11 186.777 L2185.11 212.702 L2180.85 212.702 L2180.85 186.777 M2180.85 176.684 L2185.11 176.684 L2185.11 182.078 L2180.85 182.078 L2180.85 176.684 Z" fill="#000000" fill-rule="nonzero" fill-opacity="1" /><path clip-path="url(#clip310)" d="M2190.96 186.777 L2195.48 186.777 L2203.58 208.536 L2211.68 186.777 L2216.19 186.777 L2206.47 212.702 L2200.68 212.702 L2190.96 186.777 Z" fill="#000000" fill-rule="nonzero" fill-opacity="1" /><path clip-path="url(#clip310)" d="M2244.25 198.675 L2244.25 200.758 L2224.67 200.758 Q2224.94 205.156 2227.31 207.471 Q2229.69 209.763 2233.93 209.763 Q2236.38 209.763 2238.67 209.161 Q2240.99 208.559 2243.25 207.355 L2243.25 211.383 Q2240.96 212.355 2238.56 212.865 Q2236.15 213.374 2233.67 213.374 Q2227.47 213.374 2223.83 209.763 Q2220.22 206.152 2220.22 199.994 Q2220.22 193.629 2223.65 189.902 Q2227.1 186.152 2232.93 186.152 Q2238.16 186.152 2241.19 189.531 Q2244.25 192.888 2244.25 198.675 M2239.99 197.425 Q2239.94 193.929 2238.02 191.846 Q2236.12 189.763 2232.98 189.763 Q2229.41 189.763 2227.26 191.777 Q2225.13 193.791 2224.81 197.448 L2239.99 197.425 Z" fill="#000000" fill-rule="nonzero" fill-opacity="1" /><circle clip-path="url(#clip310)" cx="1413.92" cy="247.262" r="20.48" fill="#3da44d" fill-rule="evenodd" fill-opacity="1" stroke="#000000" stroke-opacity="1" stroke-width="4.55111"/>
<path clip-path="url(#clip310)" d="M1505.57 238.617 L1509.83 238.617 L1515.16 258.848 L1520.46 238.617 L1525.48 238.617 L1530.8 258.848 L1536.11 238.617 L1540.36 238.617 L1533.58 264.542 L1528.56 264.542 L1522.98 243.293 L1517.38 264.542 L1512.36 264.542 L1505.57 238.617 Z" fill="#000000" fill-rule="nonzero" fill-opacity="1" /><path clip-path="url(#clip310)" d="M1546.82 238.617 L1551.08 238.617 L1551.08 264.542 L1546.82 264.542 L1546.82 238.617 M1546.82 228.524 L1551.08 228.524 L1551.08 233.918 L1546.82 233.918 L1546.82 228.524 Z" fill="#000000" fill-rule="nonzero" fill-opacity="1" /><path clip-path="url(#clip310)" d="M1581.54 248.894 L1581.54 264.542 L1577.29 264.542 L1577.29 249.033 Q1577.29 245.353 1575.85 243.524 Q1574.42 241.695 1571.54 241.695 Q1568.1 241.695 1566.1 243.894 Q1564.11 246.094 1564.11 249.89 L1564.11 264.542 L1559.83 264.542 L1559.83 238.617 L1564.11 238.617 L1564.11 242.644 Q1565.64 240.307 1567.7 239.149 Q1569.79 237.992 1572.49 237.992 Q1576.96 237.992 1579.25 240.769 Q1581.54 243.524 1581.54 248.894 Z" fill="#000000" fill-rule="nonzero" fill-opacity="1" /><path clip-path="url(#clip310)" d="M1607.1 242.552 L1607.1 228.524 L1611.36 228.524 L1611.36 264.542 L1607.1 264.542 L1607.1 260.654 Q1605.76 262.968 1603.7 264.103 Q1601.66 265.214 1598.79 265.214 Q1594.09 265.214 1591.13 261.464 Q1588.19 257.714 1588.19 251.603 Q1588.19 245.492 1591.13 241.742 Q1594.09 237.992 1598.79 237.992 Q1601.66 237.992 1603.7 239.126 Q1605.76 240.237 1607.1 242.552 M1592.59 251.603 Q1592.59 256.302 1594.51 258.987 Q1596.45 261.649 1599.83 261.649 Q1603.21 261.649 1605.16 258.987 Q1607.1 256.302 1607.1 251.603 Q1607.1 246.904 1605.16 244.242 Q1603.21 241.557 1599.83 241.557 Q1596.45 241.557 1594.51 244.242 Q1592.59 246.904 1592.59 251.603 Z" fill="#000000" fill-rule="nonzero" fill-opacity="1" /><path clip-path="url(#clip310)" d="M1630.18 241.603 Q1626.75 241.603 1624.76 244.288 Q1622.77 246.95 1622.77 251.603 Q1622.77 256.255 1624.74 258.941 Q1626.73 261.603 1630.18 261.603 Q1633.58 261.603 1635.57 258.918 Q1637.56 256.232 1637.56 251.603 Q1637.56 246.996 1635.57 244.311 Q1633.58 241.603 1630.18 241.603 M1630.18 237.992 Q1635.73 237.992 1638.91 241.603 Q1642.08 245.214 1642.08 251.603 Q1642.08 257.968 1638.91 261.603 Q1635.73 265.214 1630.18 265.214 Q1624.6 265.214 1621.43 261.603 Q1618.28 257.968 1618.28 251.603 Q1618.28 245.214 1621.43 241.603 Q1624.6 237.992 1630.18 237.992 Z" fill="#000000" fill-rule="nonzero" fill-opacity="1" /><path clip-path="url(#clip310)" d="M1646.66 238.617 L1650.92 238.617 L1656.24 258.848 L1661.54 238.617 L1666.57 238.617 L1671.89 258.848 L1677.19 238.617 L1681.45 238.617 L1674.67 264.542 L1669.65 264.542 L1664.07 243.293 L1658.47 264.542 L1653.44 264.542 L1646.66 238.617 Z" fill="#000000" fill-rule="nonzero" fill-opacity="1" /><path clip-path="url(#clip310)" d="M1716.1 228.524 L1716.1 232.066 L1712.03 232.066 Q1709.74 232.066 1708.84 232.992 Q1707.96 233.918 1707.96 236.325 L1707.96 238.617 L1714.97 238.617 L1714.97 241.927 L1707.96 241.927 L1707.96 264.542 L1703.67 264.542 L1703.67 241.927 L1699.6 241.927 L1699.6 238.617 L1703.67 238.617 L1703.67 236.811 Q1703.67 232.482 1705.69 230.515 Q1707.7 228.524 1712.08 228.524 L1716.1 228.524 Z" fill="#000000" fill-rule="nonzero" fill-opacity="1" /><path clip-path="url(#clip310)" d="M1729.72 241.603 Q1726.29 241.603 1724.3 244.288 Q1722.31 246.95 1722.31 251.603 Q1722.31 256.255 1724.28 258.941 Q1726.27 261.603 1729.72 261.603 Q1733.12 261.603 1735.11 258.918 Q1737.1 256.232 1737.1 251.603 Q1737.1 246.996 1735.11 244.311 Q1733.12 241.603 1729.72 241.603 M1729.72 237.992 Q1735.27 237.992 1738.44 241.603 Q1741.61 245.214 1741.61 251.603 Q1741.61 257.968 1738.44 261.603 Q1735.27 265.214 1729.72 265.214 Q1724.14 265.214 1720.97 261.603 Q1717.82 257.968 1717.82 251.603 Q1717.82 245.214 1720.97 241.603 Q1724.14 237.992 1729.72 237.992 Z" fill="#000000" fill-rule="nonzero" fill-opacity="1" /><path clip-path="url(#clip310)" d="M1763.7 242.598 Q1762.98 242.181 1762.12 241.996 Q1761.29 241.788 1760.27 241.788 Q1756.66 241.788 1754.72 244.149 Q1752.79 246.487 1752.79 250.885 L1752.79 264.542 L1748.51 264.542 L1748.51 238.617 L1752.79 238.617 L1752.79 242.644 Q1754.14 240.283 1756.29 239.149 Q1758.44 237.992 1761.52 237.992 Q1761.96 237.992 1762.49 238.061 Q1763.03 238.107 1763.67 238.223 L1763.7 242.598 Z" fill="#000000" fill-rule="nonzero" fill-opacity="1" /><path clip-path="url(#clip310)" d="M1787.86 260.607 L1804.18 260.607 L1804.18 264.542 L1782.24 264.542 L1782.24 260.607 Q1784.9 257.853 1789.48 253.223 Q1794.09 248.57 1795.27 247.228 Q1797.52 244.705 1798.4 242.969 Q1799.3 241.209 1799.3 239.519 Q1799.3 236.765 1797.35 235.029 Q1795.43 233.293 1792.33 233.293 Q1790.13 233.293 1787.68 234.057 Q1785.25 234.82 1782.47 236.371 L1782.47 231.649 Q1785.29 230.515 1787.75 229.936 Q1790.2 229.357 1792.24 229.357 Q1797.61 229.357 1800.8 232.043 Q1804 234.728 1804 239.219 Q1804 241.348 1803.19 243.269 Q1802.4 245.168 1800.29 247.76 Q1799.71 248.431 1796.61 251.649 Q1793.51 254.843 1787.86 260.607 Z" fill="#000000" fill-rule="nonzero" fill-opacity="1" /><path clip-path="url(#clip310)" d="M1834.95 248.894 L1834.95 264.542 L1830.69 264.542 L1830.69 249.033 Q1830.69 245.353 1829.25 243.524 Q1827.82 241.695 1824.95 241.695 Q1821.5 241.695 1819.51 243.894 Q1817.52 246.094 1817.52 249.89 L1817.52 264.542 L1813.23 264.542 L1813.23 238.617 L1817.52 238.617 L1817.52 242.644 Q1819.04 240.307 1821.1 239.149 Q1823.19 237.992 1825.9 237.992 Q1830.36 237.992 1832.65 240.769 Q1834.95 243.524 1834.95 248.894 Z" fill="#000000" fill-rule="nonzero" fill-opacity="1" /><path clip-path="url(#clip310)" d="M1860.5 242.552 L1860.5 228.524 L1864.76 228.524 L1864.76 264.542 L1860.5 264.542 L1860.5 260.654 Q1859.16 262.968 1857.1 264.103 Q1855.06 265.214 1852.19 265.214 Q1847.49 265.214 1844.53 261.464 Q1841.59 257.714 1841.59 251.603 Q1841.59 245.492 1844.53 241.742 Q1847.49 237.992 1852.19 237.992 Q1855.06 237.992 1857.1 239.126 Q1859.16 240.237 1860.5 242.552 M1845.99 251.603 Q1845.99 256.302 1847.91 258.987 Q1849.85 261.649 1853.23 261.649 Q1856.61 261.649 1858.56 258.987 Q1860.5 256.302 1860.5 251.603 Q1860.5 246.904 1858.56 244.242 Q1856.61 241.557 1853.23 241.557 Q1849.85 241.557 1847.91 244.242 Q1845.99 246.904 1845.99 251.603 Z" fill="#000000" fill-rule="nonzero" fill-opacity="1" /><path clip-path="url(#clip310)" d="M1898.65 241.603 Q1895.22 241.603 1893.23 244.288 Q1891.24 246.95 1891.24 251.603 Q1891.24 256.255 1893.21 258.941 Q1895.2 261.603 1898.65 261.603 Q1902.05 261.603 1904.04 258.918 Q1906.03 256.232 1906.03 251.603 Q1906.03 246.996 1904.04 244.311 Q1902.05 241.603 1898.65 241.603 M1898.65 237.992 Q1904.21 237.992 1907.38 241.603 Q1910.55 245.214 1910.55 251.603 Q1910.55 257.968 1907.38 261.603 Q1904.21 265.214 1898.65 265.214 Q1893.07 265.214 1889.9 261.603 Q1886.75 257.968 1886.75 251.603 Q1886.75 245.214 1889.9 241.603 Q1893.07 237.992 1898.65 237.992 Z" fill="#000000" fill-rule="nonzero" fill-opacity="1" /><path clip-path="url(#clip310)" d="M1932.63 242.598 Q1931.91 242.181 1931.06 241.996 Q1930.22 241.788 1929.2 241.788 Q1925.59 241.788 1923.65 244.149 Q1921.73 246.487 1921.73 250.885 L1921.73 264.542 L1917.45 264.542 L1917.45 238.617 L1921.73 238.617 L1921.73 242.644 Q1923.07 240.283 1925.22 239.149 Q1927.38 237.992 1930.45 237.992 Q1930.89 237.992 1931.43 238.061 Q1931.96 238.107 1932.61 238.223 L1932.63 242.598 Z" fill="#000000" fill-rule="nonzero" fill-opacity="1" /><path clip-path="url(#clip310)" d="M1953.33 242.552 L1953.33 228.524 L1957.58 228.524 L1957.58 264.542 L1953.33 264.542 L1953.33 260.654 Q1951.98 262.968 1949.92 264.103 Q1947.89 265.214 1945.01 265.214 Q1940.32 265.214 1937.35 261.464 Q1934.41 257.714 1934.41 251.603 Q1934.41 245.492 1937.35 241.742 Q1940.32 237.992 1945.01 237.992 Q1947.89 237.992 1949.92 239.126 Q1951.98 240.237 1953.33 242.552 M1938.81 251.603 Q1938.81 256.302 1940.73 258.987 Q1942.68 261.649 1946.06 261.649 Q1949.44 261.649 1951.38 258.987 Q1953.33 256.302 1953.33 251.603 Q1953.33 246.904 1951.38 244.242 Q1949.44 241.557 1946.06 241.557 Q1942.68 241.557 1940.73 244.242 Q1938.81 246.904 1938.81 251.603 Z" fill="#000000" fill-rule="nonzero" fill-opacity="1" /><path clip-path="url(#clip310)" d="M1988.53 250.515 L1988.53 252.598 L1968.95 252.598 Q1969.23 256.996 1971.59 259.311 Q1973.97 261.603 1978.21 261.603 Q1980.66 261.603 1982.95 261.001 Q1985.27 260.399 1987.54 259.195 L1987.54 263.223 Q1985.25 264.195 1982.84 264.705 Q1980.43 265.214 1977.95 265.214 Q1971.75 265.214 1968.12 261.603 Q1964.51 257.992 1964.51 251.834 Q1964.51 245.469 1967.93 241.742 Q1971.38 237.992 1977.21 237.992 Q1982.45 237.992 1985.48 241.371 Q1988.53 244.728 1988.53 250.515 M1984.27 249.265 Q1984.23 245.769 1982.31 243.686 Q1980.41 241.603 1977.26 241.603 Q1973.7 241.603 1971.54 243.617 Q1969.41 245.631 1969.09 249.288 L1984.27 249.265 Z" fill="#000000" fill-rule="nonzero" fill-opacity="1" /><path clip-path="url(#clip310)" d="M2010.55 242.598 Q2009.83 242.181 2008.97 241.996 Q2008.14 241.788 2007.12 241.788 Q2003.51 241.788 2001.57 244.149 Q1999.64 246.487 1999.64 250.885 L1999.64 264.542 L1995.36 264.542 L1995.36 238.617 L1999.64 238.617 L1999.64 242.644 Q2000.99 240.283 2003.14 239.149 Q2005.29 237.992 2008.37 237.992 Q2008.81 237.992 2009.34 238.061 Q2009.88 238.107 2010.52 238.223 L2010.55 242.598 Z" fill="#000000" fill-rule="nonzero" fill-opacity="1" /><path clip-path="url(#clip310)" d="M2047.14 242.552 L2047.14 228.524 L2051.4 228.524 L2051.4 264.542 L2047.14 264.542 L2047.14 260.654 Q2045.8 262.968 2043.74 264.103 Q2041.7 265.214 2038.83 265.214 Q2034.13 265.214 2031.17 261.464 Q2028.23 257.714 2028.23 251.603 Q2028.23 245.492 2031.17 241.742 Q2034.13 237.992 2038.83 237.992 Q2041.7 237.992 2043.74 239.126 Q2045.8 240.237 2047.14 242.552 M2032.63 251.603 Q2032.63 256.302 2034.55 258.987 Q2036.5 261.649 2039.88 261.649 Q2043.26 261.649 2045.2 258.987 Q2047.14 256.302 2047.14 251.603 Q2047.14 246.904 2045.2 244.242 Q2043.26 241.557 2039.88 241.557 Q2036.5 241.557 2034.55 244.242 Q2032.63 246.904 2032.63 251.603 Z" fill="#000000" fill-rule="nonzero" fill-opacity="1" /><path clip-path="url(#clip310)" d="M2082.35 250.515 L2082.35 252.598 L2062.77 252.598 Q2063.05 256.996 2065.41 259.311 Q2067.79 261.603 2072.03 261.603 Q2074.48 261.603 2076.77 261.001 Q2079.09 260.399 2081.36 259.195 L2081.36 263.223 Q2079.07 264.195 2076.66 264.705 Q2074.25 265.214 2071.77 265.214 Q2065.57 265.214 2061.94 261.603 Q2058.32 257.992 2058.32 251.834 Q2058.32 245.469 2061.75 241.742 Q2065.2 237.992 2071.03 237.992 Q2076.26 237.992 2079.3 241.371 Q2082.35 244.728 2082.35 250.515 M2078.09 249.265 Q2078.05 245.769 2076.13 243.686 Q2074.23 241.603 2071.08 241.603 Q2067.51 241.603 2065.36 243.617 Q2063.23 245.631 2062.91 249.288 L2078.09 249.265 Z" fill="#000000" fill-rule="nonzero" fill-opacity="1" /><path clip-path="url(#clip310)" d="M2104.37 242.598 Q2103.65 242.181 2102.79 241.996 Q2101.96 241.788 2100.94 241.788 Q2097.33 241.788 2095.38 244.149 Q2093.46 246.487 2093.46 250.885 L2093.46 264.542 L2089.18 264.542 L2089.18 238.617 L2093.46 238.617 L2093.46 242.644 Q2094.81 240.283 2096.96 239.149 Q2099.11 237.992 2102.19 237.992 Q2102.63 237.992 2103.16 238.061 Q2103.69 238.107 2104.34 238.223 L2104.37 242.598 Z" fill="#000000" fill-rule="nonzero" fill-opacity="1" /><path clip-path="url(#clip310)" d="M2108.83 238.617 L2113.09 238.617 L2113.09 264.542 L2108.83 264.542 L2108.83 238.617 M2108.83 228.524 L2113.09 228.524 L2113.09 233.918 L2108.83 233.918 L2108.83 228.524 Z" fill="#000000" fill-rule="nonzero" fill-opacity="1" /><path clip-path="url(#clip310)" d="M2118.95 238.617 L2123.46 238.617 L2131.56 260.376 L2139.67 238.617 L2144.18 238.617 L2134.46 264.542 L2128.67 264.542 L2118.95 238.617 Z" fill="#000000" fill-rule="nonzero" fill-opacity="1" /><path clip-path="url(#clip310)" d="M2161.84 251.51 Q2156.68 251.51 2154.69 252.691 Q2152.7 253.871 2152.7 256.718 Q2152.7 258.987 2154.18 260.33 Q2155.69 261.649 2158.25 261.649 Q2161.8 261.649 2163.93 259.149 Q2166.08 256.626 2166.08 252.459 L2166.08 251.51 L2161.84 251.51 M2170.34 249.751 L2170.34 264.542 L2166.08 264.542 L2166.08 260.607 Q2164.62 262.968 2162.44 264.103 Q2160.27 265.214 2157.12 265.214 Q2153.14 265.214 2150.78 262.992 Q2148.44 260.746 2148.44 256.996 Q2148.44 252.621 2151.36 250.399 Q2154.3 248.177 2160.11 248.177 L2166.08 248.177 L2166.08 247.76 Q2166.08 244.82 2164.13 243.223 Q2162.21 241.603 2158.72 241.603 Q2156.5 241.603 2154.39 242.135 Q2152.28 242.668 2150.34 243.732 L2150.34 239.797 Q2152.68 238.894 2154.87 238.455 Q2157.07 237.992 2159.16 237.992 Q2164.78 237.992 2167.56 240.908 Q2170.34 243.825 2170.34 249.751 Z" fill="#000000" fill-rule="nonzero" fill-opacity="1" /><path clip-path="url(#clip310)" d="M2183.32 231.256 L2183.32 238.617 L2192.1 238.617 L2192.1 241.927 L2183.32 241.927 L2183.32 256.001 Q2183.32 259.172 2184.18 260.075 Q2185.06 260.978 2187.72 260.978 L2192.1 260.978 L2192.1 264.542 L2187.72 264.542 Q2182.79 264.542 2180.92 262.714 Q2179.04 260.862 2179.04 256.001 L2179.04 241.927 L2175.92 241.927 L2175.92 238.617 L2179.04 238.617 L2179.04 231.256 L2183.32 231.256 Z" fill="#000000" fill-rule="nonzero" fill-opacity="1" /><path clip-path="url(#clip310)" d="M2197.7 238.617 L2201.96 238.617 L2201.96 264.542 L2197.7 264.542 L2197.7 238.617 M2197.7 228.524 L2201.96 228.524 L2201.96 233.918 L2197.7 233.918 L2197.7 228.524 Z" fill="#000000" fill-rule="nonzero" fill-opacity="1" /><path clip-path="url(#clip310)" d="M2207.81 238.617 L2212.33 238.617 L2220.43 260.376 L2228.53 238.617 L2233.05 238.617 L2223.32 264.542 L2217.54 264.542 L2207.81 238.617 Z" fill="#000000" fill-rule="nonzero" fill-opacity="1" /><path clip-path="url(#clip310)" d="M2261.1 250.515 L2261.1 252.598 L2241.52 252.598 Q2241.8 256.996 2244.16 259.311 Q2246.54 261.603 2250.78 261.603 Q2253.23 261.603 2255.52 261.001 Q2257.84 260.399 2260.11 259.195 L2260.11 263.223 Q2257.81 264.195 2255.41 264.705 Q2253 265.214 2250.52 265.214 Q2244.32 265.214 2240.68 261.603 Q2237.07 257.992 2237.07 251.834 Q2237.07 245.469 2240.5 241.742 Q2243.95 237.992 2249.78 237.992 Q2255.01 237.992 2258.05 241.371 Q2261.1 244.728 2261.1 250.515 M2256.84 249.265 Q2256.8 245.769 2254.87 243.686 Q2252.98 241.603 2249.83 241.603 Q2246.26 241.603 2244.11 243.617 Q2241.98 245.631 2241.66 249.288 L2256.84 249.265 Z" fill="#000000" fill-rule="nonzero" fill-opacity="1" /></svg>
