<?xml version="1.0" encoding="utf-8"?>
<svg xmlns="http://www.w3.org/2000/svg" xmlns:xlink="http://www.w3.org/1999/xlink" width="600" height="400" viewBox="0 0 2400 1600">
<defs>
  <clipPath id="clip020">
    <rect x="0" y="0" width="2400" height="1600"/>
  </clipPath>
</defs>
<path clip-path="url(#clip020)" d="
M0 1600 L2400 1600 L2400 0 L0 0  Z
  " fill="#ffffff" fill-rule="evenodd" fill-opacity="1"/>
<defs>
  <clipPath id="clip021">
    <rect x="480" y="0" width="1681" height="1600"/>
  </clipPath>
</defs>
<path clip-path="url(#clip020)" d="
M290.526 1382.2 L2352.76 1382.2 L2352.76 47.2441 L290.526 47.2441  Z
  " fill="#ffffff" fill-rule="evenodd" fill-opacity="1"/>
<defs>
  <clipPath id="clip022">
    <rect x="290" y="47" width="2063" height="1336"/>
  </clipPath>
</defs>
<polyline clip-path="url(#clip022)" style="stroke:#000000; stroke-linecap:butt; stroke-linejoin:round; stroke-width:2; stroke-opacity:0.1; fill:none" points="
  543.441,1382.2 543.441,47.2441 
  "/>
<polyline clip-path="url(#clip022)" style="stroke:#000000; stroke-linecap:butt; stroke-linejoin:round; stroke-width:2; stroke-opacity:0.1; fill:none" points="
  932.541,1382.2 932.541,47.2441 
  "/>
<polyline clip-path="url(#clip022)" style="stroke:#000000; stroke-linecap:butt; stroke-linejoin:round; stroke-width:2; stroke-opacity:0.1; fill:none" points="
  1321.64,1382.2 1321.64,47.2441 
  "/>
<polyline clip-path="url(#clip022)" style="stroke:#000000; stroke-linecap:butt; stroke-linejoin:round; stroke-width:2; stroke-opacity:0.1; fill:none" points="
  1710.74,1382.2 1710.74,47.2441 
  "/>
<polyline clip-path="url(#clip022)" style="stroke:#000000; stroke-linecap:butt; stroke-linejoin:round; stroke-width:2; stroke-opacity:0.1; fill:none" points="
  2099.84,1382.2 2099.84,47.2441 
  "/>
<polyline clip-path="url(#clip020)" style="stroke:#000000; stroke-linecap:butt; stroke-linejoin:round; stroke-width:4; stroke-opacity:1; fill:none" points="
  290.526,1382.2 2352.76,1382.2 
  "/>
<polyline clip-path="url(#clip020)" style="stroke:#000000; stroke-linecap:butt; stroke-linejoin:round; stroke-width:4; stroke-opacity:1; fill:none" points="
  543.441,1382.2 543.441,1363.3 
  "/>
<polyline clip-path="url(#clip020)" style="stroke:#000000; stroke-linecap:butt; stroke-linejoin:round; stroke-width:4; stroke-opacity:1; fill:none" points="
  932.541,1382.2 932.541,1363.3 
  "/>
<polyline clip-path="url(#clip020)" style="stroke:#000000; stroke-linecap:butt; stroke-linejoin:round; stroke-width:4; stroke-opacity:1; fill:none" points="
  1321.64,1382.2 1321.64,1363.3 
  "/>
<polyline clip-path="url(#clip020)" style="stroke:#000000; stroke-linecap:butt; stroke-linejoin:round; stroke-width:4; stroke-opacity:1; fill:none" points="
  1710.74,1382.2 1710.74,1363.3 
  "/>
<polyline clip-path="url(#clip020)" style="stroke:#000000; stroke-linecap:butt; stroke-linejoin:round; stroke-width:4; stroke-opacity:1; fill:none" points="
  2099.84,1382.2 2099.84,1363.3 
  "/>
<path clip-path="url(#clip020)" d="M512.342 1427.77 L542.017 1427.77 L542.017 1431.7 L512.342 1431.7 L512.342 1427.77 Z" fill="#000000" fill-rule="evenodd" fill-opacity="1" /><path clip-path="url(#clip020)" d="M564.957 1414.11 L553.152 1432.56 L564.957 1432.56 L564.957 1414.11 M563.73 1410.04 L569.61 1410.04 L569.61 1432.56 L574.54 1432.56 L574.54 1436.45 L569.61 1436.45 L569.61 1444.6 L564.957 1444.6 L564.957 1436.45 L549.355 1436.45 L549.355 1431.93 L563.73 1410.04 Z" fill="#000000" fill-rule="evenodd" fill-opacity="1" /><path clip-path="url(#clip020)" d="M902.483 1427.77 L932.159 1427.77 L932.159 1431.7 L902.483 1431.7 L902.483 1427.77 Z" fill="#000000" fill-rule="evenodd" fill-opacity="1" /><path clip-path="url(#clip020)" d="M946.279 1440.66 L962.599 1440.66 L962.599 1444.6 L940.654 1444.6 L940.654 1440.66 Q943.316 1437.91 947.9 1433.28 Q952.506 1428.62 953.687 1427.28 Q955.932 1424.76 956.812 1423.02 Q957.714 1421.26 957.714 1419.57 Q957.714 1416.82 955.77 1415.08 Q953.849 1413.35 950.747 1413.35 Q948.548 1413.35 946.094 1414.11 Q943.664 1414.87 940.886 1416.42 L940.886 1411.7 Q943.71 1410.57 946.164 1409.99 Q948.617 1409.41 950.654 1409.41 Q956.025 1409.41 959.219 1412.1 Q962.413 1414.78 962.413 1419.27 Q962.413 1421.4 961.603 1423.32 Q960.816 1425.22 958.71 1427.81 Q958.131 1428.48 955.029 1431.7 Q951.927 1434.9 946.279 1440.66 Z" fill="#000000" fill-rule="evenodd" fill-opacity="1" /><path clip-path="url(#clip020)" d="M1321.64 1413.11 Q1318.03 1413.11 1316.2 1416.68 Q1314.4 1420.22 1314.4 1427.35 Q1314.4 1434.46 1316.2 1438.02 Q1318.03 1441.56 1321.64 1441.56 Q1325.28 1441.56 1327.08 1438.02 Q1328.91 1434.46 1328.91 1427.35 Q1328.91 1420.22 1327.08 1416.68 Q1325.28 1413.11 1321.64 1413.11 M1321.64 1409.41 Q1327.45 1409.41 1330.51 1414.02 Q1333.59 1418.6 1333.59 1427.35 Q1333.59 1436.08 1330.51 1440.68 Q1327.45 1445.27 1321.64 1445.27 Q1315.83 1445.27 1312.75 1440.68 Q1309.7 1436.08 1309.7 1427.35 Q1309.7 1418.6 1312.75 1414.02 Q1315.83 1409.41 1321.64 1409.41 Z" fill="#000000" fill-rule="evenodd" fill-opacity="1" /><path clip-path="url(#clip020)" d="M1705.39 1440.66 L1721.71 1440.66 L1721.71 1444.6 L1699.77 1444.6 L1699.77 1440.66 Q1702.43 1437.91 1707.01 1433.28 Q1711.62 1428.62 1712.8 1427.28 Q1715.05 1424.76 1715.93 1423.02 Q1716.83 1421.26 1716.83 1419.57 Q1716.83 1416.82 1714.88 1415.08 Q1712.96 1413.35 1709.86 1413.35 Q1707.66 1413.35 1705.21 1414.11 Q1702.78 1414.87 1700 1416.42 L1700 1411.7 Q1702.82 1410.57 1705.28 1409.99 Q1707.73 1409.41 1709.77 1409.41 Q1715.14 1409.41 1718.33 1412.1 Q1721.53 1414.78 1721.53 1419.27 Q1721.53 1421.4 1720.72 1423.32 Q1719.93 1425.22 1717.82 1427.81 Q1717.25 1428.48 1714.14 1431.7 Q1711.04 1434.9 1705.39 1440.66 Z" fill="#000000" fill-rule="evenodd" fill-opacity="1" /><path clip-path="url(#clip020)" d="M2102.85 1414.11 L2091.04 1432.56 L2102.85 1432.56 L2102.85 1414.11 M2101.62 1410.04 L2107.5 1410.04 L2107.5 1432.56 L2112.43 1432.56 L2112.43 1436.45 L2107.5 1436.45 L2107.5 1444.6 L2102.85 1444.6 L2102.85 1436.45 L2087.25 1436.45 L2087.25 1431.93 L2101.62 1410.04 Z" fill="#000000" fill-rule="evenodd" fill-opacity="1" /><polyline clip-path="url(#clip022)" style="stroke:#000000; stroke-linecap:butt; stroke-linejoin:round; stroke-width:2; stroke-opacity:0.1; fill:none" points="
  290.526,1278.55 2352.76,1278.55 
  "/>
<polyline clip-path="url(#clip022)" style="stroke:#000000; stroke-linecap:butt; stroke-linejoin:round; stroke-width:2; stroke-opacity:0.1; fill:none" points="
  290.526,1041.75 2352.76,1041.75 
  "/>
<polyline clip-path="url(#clip022)" style="stroke:#000000; stroke-linecap:butt; stroke-linejoin:round; stroke-width:2; stroke-opacity:0.1; fill:none" points="
  290.526,804.948 2352.76,804.948 
  "/>
<polyline clip-path="url(#clip022)" style="stroke:#000000; stroke-linecap:butt; stroke-linejoin:round; stroke-width:2; stroke-opacity:0.1; fill:none" points="
  290.526,568.148 2352.76,568.148 
  "/>
<polyline clip-path="url(#clip022)" style="stroke:#000000; stroke-linecap:butt; stroke-linejoin:round; stroke-width:2; stroke-opacity:0.1; fill:none" points="
  290.526,331.348 2352.76,331.348 
  "/>
<polyline clip-path="url(#clip022)" style="stroke:#000000; stroke-linecap:butt; stroke-linejoin:round; stroke-width:2; stroke-opacity:0.1; fill:none" points="
  290.526,94.5477 2352.76,94.5477 
  "/>
<polyline clip-path="url(#clip020)" style="stroke:#000000; stroke-linecap:butt; stroke-linejoin:round; stroke-width:4; stroke-opacity:1; fill:none" points="
  290.526,1382.2 290.526,47.2441 
  "/>
<polyline clip-path="url(#clip020)" style="stroke:#000000; stroke-linecap:butt; stroke-linejoin:round; stroke-width:4; stroke-opacity:1; fill:none" points="
  290.526,1278.55 309.424,1278.55 
  "/>
<polyline clip-path="url(#clip020)" style="stroke:#000000; stroke-linecap:butt; stroke-linejoin:round; stroke-width:4; stroke-opacity:1; fill:none" points="
  290.526,1041.75 309.424,1041.75 
  "/>
<polyline clip-path="url(#clip020)" style="stroke:#000000; stroke-linecap:butt; stroke-linejoin:round; stroke-width:4; stroke-opacity:1; fill:none" points="
  290.526,804.948 309.424,804.948 
  "/>
<polyline clip-path="url(#clip020)" style="stroke:#000000; stroke-linecap:butt; stroke-linejoin:round; stroke-width:4; stroke-opacity:1; fill:none" points="
  290.526,568.148 309.424,568.148 
  "/>
<polyline clip-path="url(#clip020)" style="stroke:#000000; stroke-linecap:butt; stroke-linejoin:round; stroke-width:4; stroke-opacity:1; fill:none" points="
  290.526,331.348 309.424,331.348 
  "/>
<polyline clip-path="url(#clip020)" style="stroke:#000000; stroke-linecap:butt; stroke-linejoin:round; stroke-width:4; stroke-opacity:1; fill:none" points="
  290.526,94.5477 309.424,94.5477 
  "/>
<path clip-path="url(#clip020)" d="M167.188 1264.35 Q163.577 1264.35 161.749 1267.91 Q159.943 1271.45 159.943 1278.58 Q159.943 1285.69 161.749 1289.25 Q163.577 1292.8 167.188 1292.8 Q170.823 1292.8 172.628 1289.25 Q174.457 1285.69 174.457 1278.58 Q174.457 1271.45 172.628 1267.91 Q170.823 1264.35 167.188 1264.35 M167.188 1260.64 Q172.999 1260.64 176.054 1265.25 Q179.133 1269.83 179.133 1278.58 Q179.133 1287.31 176.054 1291.92 Q172.999 1296.5 167.188 1296.5 Q161.378 1296.5 158.3 1291.92 Q155.244 1287.31 155.244 1278.58 Q155.244 1269.83 158.3 1265.25 Q161.378 1260.64 167.188 1260.64 Z" fill="#000000" fill-rule="evenodd" fill-opacity="1" /><path clip-path="url(#clip020)" d="M187.35 1289.95 L192.235 1289.95 L192.235 1295.83 L187.35 1295.83 L187.35 1289.95 Z" fill="#000000" fill-rule="evenodd" fill-opacity="1" /><path clip-path="url(#clip020)" d="M212.42 1264.35 Q208.809 1264.35 206.98 1267.91 Q205.174 1271.45 205.174 1278.58 Q205.174 1285.69 206.98 1289.25 Q208.809 1292.8 212.42 1292.8 Q216.054 1292.8 217.859 1289.25 Q219.688 1285.69 219.688 1278.58 Q219.688 1271.45 217.859 1267.91 Q216.054 1264.35 212.42 1264.35 M212.42 1260.64 Q218.23 1260.64 221.285 1265.25 Q224.364 1269.83 224.364 1278.58 Q224.364 1287.31 221.285 1291.92 Q218.23 1296.5 212.42 1296.5 Q206.61 1296.5 203.531 1291.92 Q200.475 1287.31 200.475 1278.58 Q200.475 1269.83 203.531 1265.25 Q206.61 1260.64 212.42 1260.64 Z" fill="#000000" fill-rule="evenodd" fill-opacity="1" /><path clip-path="url(#clip020)" d="M242.582 1264.35 Q238.97 1264.35 237.142 1267.91 Q235.336 1271.45 235.336 1278.58 Q235.336 1285.69 237.142 1289.25 Q238.97 1292.8 242.582 1292.8 Q246.216 1292.8 248.021 1289.25 Q249.85 1285.69 249.85 1278.58 Q249.85 1271.45 248.021 1267.91 Q246.216 1264.35 242.582 1264.35 M242.582 1260.64 Q248.392 1260.64 251.447 1265.25 Q254.526 1269.83 254.526 1278.58 Q254.526 1287.31 251.447 1291.92 Q248.392 1296.5 242.582 1296.5 Q236.771 1296.5 233.693 1291.92 Q230.637 1287.31 230.637 1278.58 Q230.637 1269.83 233.693 1265.25 Q236.771 1260.64 242.582 1260.64 Z" fill="#000000" fill-rule="evenodd" fill-opacity="1" /><path clip-path="url(#clip020)" d="M168.184 1027.55 Q164.573 1027.55 162.744 1031.11 Q160.939 1034.65 160.939 1041.78 Q160.939 1048.89 162.744 1052.45 Q164.573 1056 168.184 1056 Q171.818 1056 173.624 1052.45 Q175.452 1048.89 175.452 1041.78 Q175.452 1034.65 173.624 1031.11 Q171.818 1027.55 168.184 1027.55 M168.184 1023.84 Q173.994 1023.84 177.05 1028.45 Q180.128 1033.03 180.128 1041.78 Q180.128 1050.51 177.05 1055.12 Q173.994 1059.7 168.184 1059.7 Q162.374 1059.7 159.295 1055.12 Q156.239 1050.51 156.239 1041.78 Q156.239 1033.03 159.295 1028.45 Q162.374 1023.84 168.184 1023.84 Z" fill="#000000" fill-rule="evenodd" fill-opacity="1" /><path clip-path="url(#clip020)" d="M188.346 1053.15 L193.23 1053.15 L193.23 1059.03 L188.346 1059.03 L188.346 1053.15 Z" fill="#000000" fill-rule="evenodd" fill-opacity="1" /><path clip-path="url(#clip020)" d="M213.415 1027.55 Q209.804 1027.55 207.975 1031.11 Q206.17 1034.65 206.17 1041.78 Q206.17 1048.89 207.975 1052.45 Q209.804 1056 213.415 1056 Q217.049 1056 218.855 1052.45 Q220.684 1048.89 220.684 1041.78 Q220.684 1034.65 218.855 1031.11 Q217.049 1027.55 213.415 1027.55 M213.415 1023.84 Q219.225 1023.84 222.281 1028.45 Q225.359 1033.03 225.359 1041.78 Q225.359 1050.51 222.281 1055.12 Q219.225 1059.7 213.415 1059.7 Q207.605 1059.7 204.526 1055.12 Q201.471 1050.51 201.471 1041.78 Q201.471 1033.03 204.526 1028.45 Q207.605 1023.84 213.415 1023.84 Z" fill="#000000" fill-rule="evenodd" fill-opacity="1" /><path clip-path="url(#clip020)" d="M233.623 1024.47 L251.98 1024.47 L251.98 1028.4 L237.906 1028.4 L237.906 1036.88 Q238.924 1036.53 239.943 1036.37 Q240.961 1036.18 241.98 1036.18 Q247.767 1036.18 251.146 1039.35 Q254.526 1042.52 254.526 1047.94 Q254.526 1053.52 251.054 1056.62 Q247.582 1059.7 241.262 1059.7 Q239.086 1059.7 236.818 1059.33 Q234.572 1058.96 232.165 1058.22 L232.165 1053.52 Q234.248 1054.65 236.471 1055.21 Q238.693 1055.76 241.17 1055.76 Q245.174 1055.76 247.512 1053.66 Q249.85 1051.55 249.85 1047.94 Q249.85 1044.33 247.512 1042.22 Q245.174 1040.12 241.17 1040.12 Q239.295 1040.12 237.42 1040.53 Q235.568 1040.95 233.623 1041.83 L233.623 1024.47 Z" fill="#000000" fill-rule="evenodd" fill-opacity="1" /><path clip-path="url(#clip020)" d="M167.188 790.747 Q163.577 790.747 161.749 794.312 Q159.943 797.853 159.943 804.983 Q159.943 812.089 161.749 815.654 Q163.577 819.196 167.188 819.196 Q170.823 819.196 172.628 815.654 Q174.457 812.089 174.457 804.983 Q174.457 797.853 172.628 794.312 Q170.823 790.747 167.188 790.747 M167.188 787.043 Q172.999 787.043 176.054 791.65 Q179.133 796.233 179.133 804.983 Q179.133 813.71 176.054 818.316 Q172.999 822.899 167.188 822.899 Q161.378 822.899 158.3 818.316 Q155.244 813.71 155.244 804.983 Q155.244 796.233 158.3 791.65 Q161.378 787.043 167.188 787.043 Z" fill="#000000" fill-rule="evenodd" fill-opacity="1" /><path clip-path="url(#clip020)" d="M187.35 816.348 L192.235 816.348 L192.235 822.228 L187.35 822.228 L187.35 816.348 Z" fill="#000000" fill-rule="evenodd" fill-opacity="1" /><path clip-path="url(#clip020)" d="M203.23 818.293 L210.869 818.293 L210.869 791.927 L202.559 793.594 L202.559 789.335 L210.823 787.668 L215.498 787.668 L215.498 818.293 L223.137 818.293 L223.137 822.228 L203.23 822.228 L203.23 818.293 Z" fill="#000000" fill-rule="evenodd" fill-opacity="1" /><path clip-path="url(#clip020)" d="M242.582 790.747 Q238.97 790.747 237.142 794.312 Q235.336 797.853 235.336 804.983 Q235.336 812.089 237.142 815.654 Q238.97 819.196 242.582 819.196 Q246.216 819.196 248.021 815.654 Q249.85 812.089 249.85 804.983 Q249.85 797.853 248.021 794.312 Q246.216 790.747 242.582 790.747 M242.582 787.043 Q248.392 787.043 251.447 791.65 Q254.526 796.233 254.526 804.983 Q254.526 813.71 251.447 818.316 Q248.392 822.899 242.582 822.899 Q236.771 822.899 233.693 818.316 Q230.637 813.71 230.637 804.983 Q230.637 796.233 233.693 791.65 Q236.771 787.043 242.582 787.043 Z" fill="#000000" fill-rule="evenodd" fill-opacity="1" /><path clip-path="url(#clip020)" d="M168.184 553.947 Q164.573 553.947 162.744 557.511 Q160.939 561.053 160.939 568.183 Q160.939 575.289 162.744 578.854 Q164.573 582.396 168.184 582.396 Q171.818 582.396 173.624 578.854 Q175.452 575.289 175.452 568.183 Q175.452 561.053 173.624 557.511 Q171.818 553.947 168.184 553.947 M168.184 550.243 Q173.994 550.243 177.05 554.849 Q180.128 559.433 180.128 568.183 Q180.128 576.909 177.05 581.516 Q173.994 586.099 168.184 586.099 Q162.374 586.099 159.295 581.516 Q156.239 576.909 156.239 568.183 Q156.239 559.433 159.295 554.849 Q162.374 550.243 168.184 550.243 Z" fill="#000000" fill-rule="evenodd" fill-opacity="1" /><path clip-path="url(#clip020)" d="M188.346 579.548 L193.23 579.548 L193.23 585.428 L188.346 585.428 L188.346 579.548 Z" fill="#000000" fill-rule="evenodd" fill-opacity="1" /><path clip-path="url(#clip020)" d="M204.225 581.493 L211.864 581.493 L211.864 555.127 L203.554 556.794 L203.554 552.535 L211.818 550.868 L216.494 550.868 L216.494 581.493 L224.133 581.493 L224.133 585.428 L204.225 585.428 L204.225 581.493 Z" fill="#000000" fill-rule="evenodd" fill-opacity="1" /><path clip-path="url(#clip020)" d="M233.623 550.868 L251.98 550.868 L251.98 554.803 L237.906 554.803 L237.906 563.275 Q238.924 562.928 239.943 562.766 Q240.961 562.581 241.98 562.581 Q247.767 562.581 251.146 565.752 Q254.526 568.923 254.526 574.34 Q254.526 579.919 251.054 583.021 Q247.582 586.099 241.262 586.099 Q239.086 586.099 236.818 585.729 Q234.572 585.359 232.165 584.618 L232.165 579.919 Q234.248 581.053 236.471 581.609 Q238.693 582.164 241.17 582.164 Q245.174 582.164 247.512 580.058 Q249.85 577.951 249.85 574.34 Q249.85 570.729 247.512 568.622 Q245.174 566.516 241.17 566.516 Q239.295 566.516 237.42 566.933 Q235.568 567.349 233.623 568.229 L233.623 550.868 Z" fill="#000000" fill-rule="evenodd" fill-opacity="1" /><path clip-path="url(#clip020)" d="M167.188 317.147 Q163.577 317.147 161.749 320.711 Q159.943 324.253 159.943 331.383 Q159.943 338.489 161.749 342.054 Q163.577 345.595 167.188 345.595 Q170.823 345.595 172.628 342.054 Q174.457 338.489 174.457 331.383 Q174.457 324.253 172.628 320.711 Q170.823 317.147 167.188 317.147 M167.188 313.443 Q172.999 313.443 176.054 318.049 Q179.133 322.633 179.133 331.383 Q179.133 340.109 176.054 344.716 Q172.999 349.299 167.188 349.299 Q161.378 349.299 158.3 344.716 Q155.244 340.109 155.244 331.383 Q155.244 322.633 158.3 318.049 Q161.378 313.443 167.188 313.443 Z" fill="#000000" fill-rule="evenodd" fill-opacity="1" /><path clip-path="url(#clip020)" d="M187.35 342.748 L192.235 342.748 L192.235 348.628 L187.35 348.628 L187.35 342.748 Z" fill="#000000" fill-rule="evenodd" fill-opacity="1" /><path clip-path="url(#clip020)" d="M206.448 344.693 L222.767 344.693 L222.767 348.628 L200.823 348.628 L200.823 344.693 Q203.485 341.938 208.068 337.308 Q212.674 332.656 213.855 331.313 Q216.1 328.79 216.98 327.054 Q217.883 325.295 217.883 323.605 Q217.883 320.85 215.938 319.114 Q214.017 317.378 210.915 317.378 Q208.716 317.378 206.262 318.142 Q203.832 318.906 201.054 320.457 L201.054 315.734 Q203.878 314.6 206.332 314.022 Q208.785 313.443 210.823 313.443 Q216.193 313.443 219.387 316.128 Q222.582 318.813 222.582 323.304 Q222.582 325.433 221.772 327.355 Q220.984 329.253 218.878 331.845 Q218.299 332.517 215.197 335.734 Q212.096 338.929 206.448 344.693 Z" fill="#000000" fill-rule="evenodd" fill-opacity="1" /><path clip-path="url(#clip020)" d="M242.582 317.147 Q238.97 317.147 237.142 320.711 Q235.336 324.253 235.336 331.383 Q235.336 338.489 237.142 342.054 Q238.97 345.595 242.582 345.595 Q246.216 345.595 248.021 342.054 Q249.85 338.489 249.85 331.383 Q249.85 324.253 248.021 320.711 Q246.216 317.147 242.582 317.147 M242.582 313.443 Q248.392 313.443 251.447 318.049 Q254.526 322.633 254.526 331.383 Q254.526 340.109 251.447 344.716 Q248.392 349.299 242.582 349.299 Q236.771 349.299 233.693 344.716 Q230.637 340.109 230.637 331.383 Q230.637 322.633 233.693 318.049 Q236.771 313.443 242.582 313.443 Z" fill="#000000" fill-rule="evenodd" fill-opacity="1" /><path clip-path="url(#clip020)" d="M168.184 80.3464 Q164.573 80.3464 162.744 83.9112 Q160.939 87.4528 160.939 94.5824 Q160.939 101.689 162.744 105.254 Q164.573 108.795 168.184 108.795 Q171.818 108.795 173.624 105.254 Q175.452 101.689 175.452 94.5824 Q175.452 87.4528 173.624 83.9112 Q171.818 80.3464 168.184 80.3464 M168.184 76.6427 Q173.994 76.6427 177.05 81.2491 Q180.128 85.8325 180.128 94.5824 Q180.128 103.309 177.05 107.916 Q173.994 112.499 168.184 112.499 Q162.374 112.499 159.295 107.916 Q156.239 103.309 156.239 94.5824 Q156.239 85.8325 159.295 81.2491 Q162.374 76.6427 168.184 76.6427 Z" fill="#000000" fill-rule="evenodd" fill-opacity="1" /><path clip-path="url(#clip020)" d="M188.346 105.948 L193.23 105.948 L193.23 111.828 L188.346 111.828 L188.346 105.948 Z" fill="#000000" fill-rule="evenodd" fill-opacity="1" /><path clip-path="url(#clip020)" d="M207.443 107.893 L223.762 107.893 L223.762 111.828 L201.818 111.828 L201.818 107.893 Q204.48 105.138 209.063 100.508 Q213.67 95.8555 214.85 94.513 Q217.096 91.9898 217.975 90.2537 Q218.878 88.4945 218.878 86.8047 Q218.878 84.0501 216.934 82.314 Q215.012 80.5778 211.91 80.5778 Q209.711 80.5778 207.258 81.3417 Q204.827 82.1056 202.049 83.6565 L202.049 78.9343 Q204.873 77.8001 207.327 77.2214 Q209.781 76.6427 211.818 76.6427 Q217.188 76.6427 220.383 79.3279 Q223.577 82.013 223.577 86.5037 Q223.577 88.6334 222.767 90.5546 Q221.98 92.4528 219.873 95.0454 Q219.295 95.7167 216.193 98.9342 Q213.091 102.129 207.443 107.893 Z" fill="#000000" fill-rule="evenodd" fill-opacity="1" /><path clip-path="url(#clip020)" d="M233.623 77.2677 L251.98 77.2677 L251.98 81.2028 L237.906 81.2028 L237.906 89.675 Q238.924 89.3278 239.943 89.1658 Q240.961 88.9806 241.98 88.9806 Q247.767 88.9806 251.146 92.1519 Q254.526 95.3231 254.526 100.74 Q254.526 106.318 251.054 109.42 Q247.582 112.499 241.262 112.499 Q239.086 112.499 236.818 112.129 Q234.572 111.758 232.165 111.018 L232.165 106.318 Q234.248 107.453 236.471 108.008 Q238.693 108.564 241.17 108.564 Q245.174 108.564 247.512 106.457 Q249.85 104.351 249.85 100.74 Q249.85 97.1287 247.512 95.0222 Q245.174 92.9157 241.17 92.9157 Q239.295 92.9157 237.42 93.3324 Q235.568 93.7491 233.623 94.6287 L233.623 77.2677 Z" fill="#000000" fill-rule="evenodd" fill-opacity="1" /><polyline clip-path="url(#clip022)" style="stroke:#009af9; stroke-linecap:butt; stroke-linejoin:round; stroke-width:4; stroke-opacity:1; fill:none" points="
  348.891,1266.87 367.89,1265.68 543.567,1247.04 649.142,1224.86 738.404,1194.73 786.885,1172.09 835.367,1143.73 880.063,1111.45 924.759,1072.21 972.677,1021.19 
  1020.6,959.669 1048.36,918.819 1076.11,873.991 1103.87,825.157 1131.63,772.407 1230.31,558.451 1316.84,358.062 1340.43,306.715 1364.01,258.672 1387.6,215.005 
  1411.18,176.762 1434.91,144.751 1458.63,120.083 1482.36,103.454 1506.08,95.3462 1532.32,96.5786 1558.55,108.468 1584.78,130.588 1611.01,162.166 1635.97,200.02 
  1660.93,244.368 1685.89,293.991 1710.84,347.624 1762.75,466.602 1814.65,587.443 1858.34,684.842 1902.03,774.929 1955.37,872.481 2008.71,955.343 2058.86,1020.2 
  2109,1073.54 2149.17,1108.92 2189.33,1138.63 2229.5,1163.42 2269.67,1184.02 2275.85,1186.86 2282.03,1189.62 2288.21,1192.3 2294.39,1194.9 
  "/>
<circle clip-path="url(#clip022)" cx="543.441" cy="1344.41" r="14" fill="#e26f46" fill-rule="evenodd" fill-opacity="1" stroke="#000000" stroke-opacity="1" stroke-width="3.2"/>
<circle clip-path="url(#clip022)" cx="562.896" cy="1323.34" r="14" fill="#e26f46" fill-rule="evenodd" fill-opacity="1" stroke="#000000" stroke-opacity="1" stroke-width="3.2"/>
<circle clip-path="url(#clip022)" cx="582.351" cy="1310.1" r="14" fill="#e26f46" fill-rule="evenodd" fill-opacity="1" stroke="#000000" stroke-opacity="1" stroke-width="3.2"/>
<circle clip-path="url(#clip022)" cx="601.806" cy="1280.55" r="14" fill="#e26f46" fill-rule="evenodd" fill-opacity="1" stroke="#000000" stroke-opacity="1" stroke-width="3.2"/>
<circle clip-path="url(#clip022)" cx="621.261" cy="1246.91" r="14" fill="#e26f46" fill-rule="evenodd" fill-opacity="1" stroke="#000000" stroke-opacity="1" stroke-width="3.2"/>
<circle clip-path="url(#clip022)" cx="640.716" cy="1198.98" r="14" fill="#e26f46" fill-rule="evenodd" fill-opacity="1" stroke="#000000" stroke-opacity="1" stroke-width="3.2"/>
<circle clip-path="url(#clip022)" cx="660.171" cy="1168.25" r="14" fill="#e26f46" fill-rule="evenodd" fill-opacity="1" stroke="#000000" stroke-opacity="1" stroke-width="3.2"/>
<circle clip-path="url(#clip022)" cx="679.626" cy="1170.4" r="14" fill="#e26f46" fill-rule="evenodd" fill-opacity="1" stroke="#000000" stroke-opacity="1" stroke-width="3.2"/>
<circle clip-path="url(#clip022)" cx="699.081" cy="1168.59" r="14" fill="#e26f46" fill-rule="evenodd" fill-opacity="1" stroke="#000000" stroke-opacity="1" stroke-width="3.2"/>
<circle clip-path="url(#clip022)" cx="718.536" cy="1190.67" r="14" fill="#e26f46" fill-rule="evenodd" fill-opacity="1" stroke="#000000" stroke-opacity="1" stroke-width="3.2"/>
<circle clip-path="url(#clip022)" cx="737.991" cy="1207.34" r="14" fill="#e26f46" fill-rule="evenodd" fill-opacity="1" stroke="#000000" stroke-opacity="1" stroke-width="3.2"/>
<circle clip-path="url(#clip022)" cx="757.446" cy="1204.57" r="14" fill="#e26f46" fill-rule="evenodd" fill-opacity="1" stroke="#000000" stroke-opacity="1" stroke-width="3.2"/>
<circle clip-path="url(#clip022)" cx="776.901" cy="1202.33" r="14" fill="#e26f46" fill-rule="evenodd" fill-opacity="1" stroke="#000000" stroke-opacity="1" stroke-width="3.2"/>
<circle clip-path="url(#clip022)" cx="796.356" cy="1203.02" r="14" fill="#e26f46" fill-rule="evenodd" fill-opacity="1" stroke="#000000" stroke-opacity="1" stroke-width="3.2"/>
<circle clip-path="url(#clip022)" cx="815.811" cy="1181" r="14" fill="#e26f46" fill-rule="evenodd" fill-opacity="1" stroke="#000000" stroke-opacity="1" stroke-width="3.2"/>
<circle clip-path="url(#clip022)" cx="835.266" cy="1122.93" r="14" fill="#e26f46" fill-rule="evenodd" fill-opacity="1" stroke="#000000" stroke-opacity="1" stroke-width="3.2"/>
<circle clip-path="url(#clip022)" cx="854.721" cy="1057.7" r="14" fill="#e26f46" fill-rule="evenodd" fill-opacity="1" stroke="#000000" stroke-opacity="1" stroke-width="3.2"/>
<circle clip-path="url(#clip022)" cx="874.176" cy="1023.99" r="14" fill="#e26f46" fill-rule="evenodd" fill-opacity="1" stroke="#000000" stroke-opacity="1" stroke-width="3.2"/>
<circle clip-path="url(#clip022)" cx="893.631" cy="986.904" r="14" fill="#e26f46" fill-rule="evenodd" fill-opacity="1" stroke="#000000" stroke-opacity="1" stroke-width="3.2"/>
<circle clip-path="url(#clip022)" cx="913.086" cy="984.909" r="14" fill="#e26f46" fill-rule="evenodd" fill-opacity="1" stroke="#000000" stroke-opacity="1" stroke-width="3.2"/>
<circle clip-path="url(#clip022)" cx="932.541" cy="1012.81" r="14" fill="#e26f46" fill-rule="evenodd" fill-opacity="1" stroke="#000000" stroke-opacity="1" stroke-width="3.2"/>
<circle clip-path="url(#clip022)" cx="951.996" cy="1045.73" r="14" fill="#e26f46" fill-rule="evenodd" fill-opacity="1" stroke="#000000" stroke-opacity="1" stroke-width="3.2"/>
<circle clip-path="url(#clip022)" cx="971.451" cy="1043.96" r="14" fill="#e26f46" fill-rule="evenodd" fill-opacity="1" stroke="#000000" stroke-opacity="1" stroke-width="3.2"/>
<circle clip-path="url(#clip022)" cx="990.906" cy="1073.9" r="14" fill="#e26f46" fill-rule="evenodd" fill-opacity="1" stroke="#000000" stroke-opacity="1" stroke-width="3.2"/>
<circle clip-path="url(#clip022)" cx="1010.36" cy="1093.51" r="14" fill="#e26f46" fill-rule="evenodd" fill-opacity="1" stroke="#000000" stroke-opacity="1" stroke-width="3.2"/>
<circle clip-path="url(#clip022)" cx="1029.82" cy="1048.19" r="14" fill="#e26f46" fill-rule="evenodd" fill-opacity="1" stroke="#000000" stroke-opacity="1" stroke-width="3.2"/>
<circle clip-path="url(#clip022)" cx="1049.27" cy="963.206" r="14" fill="#e26f46" fill-rule="evenodd" fill-opacity="1" stroke="#000000" stroke-opacity="1" stroke-width="3.2"/>
<circle clip-path="url(#clip022)" cx="1068.73" cy="890.047" r="14" fill="#e26f46" fill-rule="evenodd" fill-opacity="1" stroke="#000000" stroke-opacity="1" stroke-width="3.2"/>
<circle clip-path="url(#clip022)" cx="1088.18" cy="812.722" r="14" fill="#e26f46" fill-rule="evenodd" fill-opacity="1" stroke="#000000" stroke-opacity="1" stroke-width="3.2"/>
<circle clip-path="url(#clip022)" cx="1107.64" cy="734.8" r="14" fill="#e26f46" fill-rule="evenodd" fill-opacity="1" stroke="#000000" stroke-opacity="1" stroke-width="3.2"/>
<circle clip-path="url(#clip022)" cx="1127.09" cy="716.676" r="14" fill="#e26f46" fill-rule="evenodd" fill-opacity="1" stroke="#000000" stroke-opacity="1" stroke-width="3.2"/>
<circle clip-path="url(#clip022)" cx="1146.55" cy="687.521" r="14" fill="#e26f46" fill-rule="evenodd" fill-opacity="1" stroke="#000000" stroke-opacity="1" stroke-width="3.2"/>
<circle clip-path="url(#clip022)" cx="1166" cy="676.614" r="14" fill="#e26f46" fill-rule="evenodd" fill-opacity="1" stroke="#000000" stroke-opacity="1" stroke-width="3.2"/>
<circle clip-path="url(#clip022)" cx="1185.46" cy="683.087" r="14" fill="#e26f46" fill-rule="evenodd" fill-opacity="1" stroke="#000000" stroke-opacity="1" stroke-width="3.2"/>
<circle clip-path="url(#clip022)" cx="1204.91" cy="690.915" r="14" fill="#e26f46" fill-rule="evenodd" fill-opacity="1" stroke="#000000" stroke-opacity="1" stroke-width="3.2"/>
<circle clip-path="url(#clip022)" cx="1224.37" cy="647.255" r="14" fill="#e26f46" fill-rule="evenodd" fill-opacity="1" stroke="#000000" stroke-opacity="1" stroke-width="3.2"/>
<circle clip-path="url(#clip022)" cx="1243.82" cy="587.775" r="14" fill="#e26f46" fill-rule="evenodd" fill-opacity="1" stroke="#000000" stroke-opacity="1" stroke-width="3.2"/>
<circle clip-path="url(#clip022)" cx="1263.28" cy="535.212" r="14" fill="#e26f46" fill-rule="evenodd" fill-opacity="1" stroke="#000000" stroke-opacity="1" stroke-width="3.2"/>
<circle clip-path="url(#clip022)" cx="1282.73" cy="457.656" r="14" fill="#e26f46" fill-rule="evenodd" fill-opacity="1" stroke="#000000" stroke-opacity="1" stroke-width="3.2"/>
<circle clip-path="url(#clip022)" cx="1302.19" cy="392.565" r="14" fill="#e26f46" fill-rule="evenodd" fill-opacity="1" stroke="#000000" stroke-opacity="1" stroke-width="3.2"/>
<circle clip-path="url(#clip022)" cx="1321.64" cy="353.194" r="14" fill="#e26f46" fill-rule="evenodd" fill-opacity="1" stroke="#000000" stroke-opacity="1" stroke-width="3.2"/>
<circle clip-path="url(#clip022)" cx="1341.1" cy="332.726" r="14" fill="#e26f46" fill-rule="evenodd" fill-opacity="1" stroke="#000000" stroke-opacity="1" stroke-width="3.2"/>
<circle clip-path="url(#clip022)" cx="1360.55" cy="288.978" r="14" fill="#e26f46" fill-rule="evenodd" fill-opacity="1" stroke="#000000" stroke-opacity="1" stroke-width="3.2"/>
<circle clip-path="url(#clip022)" cx="1380.01" cy="244.821" r="14" fill="#e26f46" fill-rule="evenodd" fill-opacity="1" stroke="#000000" stroke-opacity="1" stroke-width="3.2"/>
<circle clip-path="url(#clip022)" cx="1399.46" cy="204.788" r="14" fill="#e26f46" fill-rule="evenodd" fill-opacity="1" stroke="#000000" stroke-opacity="1" stroke-width="3.2"/>
<circle clip-path="url(#clip022)" cx="1418.92" cy="164.167" r="14" fill="#e26f46" fill-rule="evenodd" fill-opacity="1" stroke="#000000" stroke-opacity="1" stroke-width="3.2"/>
<circle clip-path="url(#clip022)" cx="1438.37" cy="137.517" r="14" fill="#e26f46" fill-rule="evenodd" fill-opacity="1" stroke="#000000" stroke-opacity="1" stroke-width="3.2"/>
<circle clip-path="url(#clip022)" cx="1457.83" cy="139.871" r="14" fill="#e26f46" fill-rule="evenodd" fill-opacity="1" stroke="#000000" stroke-opacity="1" stroke-width="3.2"/>
<circle clip-path="url(#clip022)" cx="1477.28" cy="142.25" r="14" fill="#e26f46" fill-rule="evenodd" fill-opacity="1" stroke="#000000" stroke-opacity="1" stroke-width="3.2"/>
<circle clip-path="url(#clip022)" cx="1496.74" cy="122.008" r="14" fill="#e26f46" fill-rule="evenodd" fill-opacity="1" stroke="#000000" stroke-opacity="1" stroke-width="3.2"/>
<circle clip-path="url(#clip022)" cx="1516.19" cy="115.184" r="14" fill="#e26f46" fill-rule="evenodd" fill-opacity="1" stroke="#000000" stroke-opacity="1" stroke-width="3.2"/>
<circle clip-path="url(#clip022)" cx="1535.65" cy="108.678" r="14" fill="#e26f46" fill-rule="evenodd" fill-opacity="1" stroke="#000000" stroke-opacity="1" stroke-width="3.2"/>
<circle clip-path="url(#clip022)" cx="1555.1" cy="117.916" r="14" fill="#e26f46" fill-rule="evenodd" fill-opacity="1" stroke="#000000" stroke-opacity="1" stroke-width="3.2"/>
<circle clip-path="url(#clip022)" cx="1574.56" cy="107.946" r="14" fill="#e26f46" fill-rule="evenodd" fill-opacity="1" stroke="#000000" stroke-opacity="1" stroke-width="3.2"/>
<circle clip-path="url(#clip022)" cx="1594.01" cy="85.0257" r="14" fill="#e26f46" fill-rule="evenodd" fill-opacity="1" stroke="#000000" stroke-opacity="1" stroke-width="3.2"/>
<circle clip-path="url(#clip022)" cx="1613.47" cy="120.661" r="14" fill="#e26f46" fill-rule="evenodd" fill-opacity="1" stroke="#000000" stroke-opacity="1" stroke-width="3.2"/>
<circle clip-path="url(#clip022)" cx="1632.92" cy="174.053" r="14" fill="#e26f46" fill-rule="evenodd" fill-opacity="1" stroke="#000000" stroke-opacity="1" stroke-width="3.2"/>
<circle clip-path="url(#clip022)" cx="1652.38" cy="217.155" r="14" fill="#e26f46" fill-rule="evenodd" fill-opacity="1" stroke="#000000" stroke-opacity="1" stroke-width="3.2"/>
<circle clip-path="url(#clip022)" cx="1671.83" cy="270.992" r="14" fill="#e26f46" fill-rule="evenodd" fill-opacity="1" stroke="#000000" stroke-opacity="1" stroke-width="3.2"/>
<circle clip-path="url(#clip022)" cx="1691.29" cy="321.717" r="14" fill="#e26f46" fill-rule="evenodd" fill-opacity="1" stroke="#000000" stroke-opacity="1" stroke-width="3.2"/>
<circle clip-path="url(#clip022)" cx="1710.74" cy="367.807" r="14" fill="#e26f46" fill-rule="evenodd" fill-opacity="1" stroke="#000000" stroke-opacity="1" stroke-width="3.2"/>
<circle clip-path="url(#clip022)" cx="1730.2" cy="393.556" r="14" fill="#e26f46" fill-rule="evenodd" fill-opacity="1" stroke="#000000" stroke-opacity="1" stroke-width="3.2"/>
<circle clip-path="url(#clip022)" cx="1749.65" cy="432.93" r="14" fill="#e26f46" fill-rule="evenodd" fill-opacity="1" stroke="#000000" stroke-opacity="1" stroke-width="3.2"/>
<circle clip-path="url(#clip022)" cx="1769.11" cy="482.37" r="14" fill="#e26f46" fill-rule="evenodd" fill-opacity="1" stroke="#000000" stroke-opacity="1" stroke-width="3.2"/>
<circle clip-path="url(#clip022)" cx="1788.56" cy="505.336" r="14" fill="#e26f46" fill-rule="evenodd" fill-opacity="1" stroke="#000000" stroke-opacity="1" stroke-width="3.2"/>
<circle clip-path="url(#clip022)" cx="1808.02" cy="542.125" r="14" fill="#e26f46" fill-rule="evenodd" fill-opacity="1" stroke="#000000" stroke-opacity="1" stroke-width="3.2"/>
<circle clip-path="url(#clip022)" cx="1827.47" cy="620.695" r="14" fill="#e26f46" fill-rule="evenodd" fill-opacity="1" stroke="#000000" stroke-opacity="1" stroke-width="3.2"/>
<circle clip-path="url(#clip022)" cx="1846.93" cy="649.265" r="14" fill="#e26f46" fill-rule="evenodd" fill-opacity="1" stroke="#000000" stroke-opacity="1" stroke-width="3.2"/>
<circle clip-path="url(#clip022)" cx="1866.38" cy="687.998" r="14" fill="#e26f46" fill-rule="evenodd" fill-opacity="1" stroke="#000000" stroke-opacity="1" stroke-width="3.2"/>
<circle clip-path="url(#clip022)" cx="1885.84" cy="754.079" r="14" fill="#e26f46" fill-rule="evenodd" fill-opacity="1" stroke="#000000" stroke-opacity="1" stroke-width="3.2"/>
<circle clip-path="url(#clip022)" cx="1905.29" cy="792.859" r="14" fill="#e26f46" fill-rule="evenodd" fill-opacity="1" stroke="#000000" stroke-opacity="1" stroke-width="3.2"/>
<circle clip-path="url(#clip022)" cx="1924.75" cy="844.343" r="14" fill="#e26f46" fill-rule="evenodd" fill-opacity="1" stroke="#000000" stroke-opacity="1" stroke-width="3.2"/>
<circle clip-path="url(#clip022)" cx="1944.2" cy="860.872" r="14" fill="#e26f46" fill-rule="evenodd" fill-opacity="1" stroke="#000000" stroke-opacity="1" stroke-width="3.2"/>
<circle clip-path="url(#clip022)" cx="1963.66" cy="882.244" r="14" fill="#e26f46" fill-rule="evenodd" fill-opacity="1" stroke="#000000" stroke-opacity="1" stroke-width="3.2"/>
<circle clip-path="url(#clip022)" cx="1983.11" cy="889.572" r="14" fill="#e26f46" fill-rule="evenodd" fill-opacity="1" stroke="#000000" stroke-opacity="1" stroke-width="3.2"/>
<circle clip-path="url(#clip022)" cx="2002.57" cy="914.008" r="14" fill="#e26f46" fill-rule="evenodd" fill-opacity="1" stroke="#000000" stroke-opacity="1" stroke-width="3.2"/>
<circle clip-path="url(#clip022)" cx="2022.02" cy="970.375" r="14" fill="#e26f46" fill-rule="evenodd" fill-opacity="1" stroke="#000000" stroke-opacity="1" stroke-width="3.2"/>
<circle clip-path="url(#clip022)" cx="2041.48" cy="1047.52" r="14" fill="#e26f46" fill-rule="evenodd" fill-opacity="1" stroke="#000000" stroke-opacity="1" stroke-width="3.2"/>
<circle clip-path="url(#clip022)" cx="2060.93" cy="1116.15" r="14" fill="#e26f46" fill-rule="evenodd" fill-opacity="1" stroke="#000000" stroke-opacity="1" stroke-width="3.2"/>
<circle clip-path="url(#clip022)" cx="2080.39" cy="1189.79" r="14" fill="#e26f46" fill-rule="evenodd" fill-opacity="1" stroke="#000000" stroke-opacity="1" stroke-width="3.2"/>
<circle clip-path="url(#clip022)" cx="2099.84" cy="1256.79" r="14" fill="#e26f46" fill-rule="evenodd" fill-opacity="1" stroke="#000000" stroke-opacity="1" stroke-width="3.2"/>
<path clip-path="url(#clip020)" d="
M359.267 247.262 L1322.15 247.262 L1322.15 91.7425 L359.267 91.7425  Z
  " fill="#ffffff" fill-rule="evenodd" fill-opacity="1"/>
<polyline clip-path="url(#clip020)" style="stroke:#000000; stroke-linecap:butt; stroke-linejoin:round; stroke-width:4; stroke-opacity:1; fill:none" points="
  359.267,247.262 1322.15,247.262 1322.15,91.7425 359.267,91.7425 359.267,247.262 
  "/>
<polyline clip-path="url(#clip020)" style="stroke:#009af9; stroke-linecap:butt; stroke-linejoin:round; stroke-width:4; stroke-opacity:1; fill:none" points="
  382.181,143.582 519.663,143.582 
  "/>
<path clip-path="url(#clip020)" d="M549.984 127.576 L549.984 134.937 L558.757 134.937 L558.757 138.247 L549.984 138.247 L549.984 152.321 Q549.984 155.492 550.84 156.395 Q551.72 157.298 554.382 157.298 L558.757 157.298 L558.757 160.862 L554.382 160.862 Q549.451 160.862 547.576 159.034 Q545.701 157.182 545.701 152.321 L545.701 138.247 L542.576 138.247 L542.576 134.937 L545.701 134.937 L545.701 127.576 L549.984 127.576 Z" fill="#000000" fill-rule="evenodd" fill-opacity="1" /><path clip-path="url(#clip020)" d="M585.909 145.214 L585.909 160.862 L581.65 160.862 L581.65 145.353 Q581.65 141.673 580.215 139.844 Q578.78 138.015 575.909 138.015 Q572.46 138.015 570.47 140.214 Q568.479 142.414 568.479 146.21 L568.479 160.862 L564.197 160.862 L564.197 124.844 L568.479 124.844 L568.479 138.964 Q570.007 136.627 572.067 135.469 Q574.15 134.312 576.859 134.312 Q581.326 134.312 583.618 137.089 Q585.909 139.844 585.909 145.214 Z" fill="#000000" fill-rule="evenodd" fill-opacity="1" /><path clip-path="url(#clip020)" d="M616.581 146.835 L616.581 148.918 L596.997 148.918 Q597.275 153.316 599.636 155.631 Q602.02 157.923 606.257 157.923 Q608.71 157.923 611.002 157.321 Q613.317 156.719 615.585 155.515 L615.585 159.543 Q613.294 160.515 610.886 161.025 Q608.479 161.534 606.002 161.534 Q599.798 161.534 596.164 157.923 Q592.553 154.312 592.553 148.154 Q592.553 141.789 595.979 138.062 Q599.428 134.312 605.261 134.312 Q610.493 134.312 613.525 137.691 Q616.581 141.048 616.581 146.835 M612.321 145.585 Q612.275 142.089 610.354 140.006 Q608.456 137.923 605.307 137.923 Q601.743 137.923 599.59 139.937 Q597.46 141.951 597.136 145.608 L612.321 145.585 Z" fill="#000000" fill-rule="evenodd" fill-opacity="1" /><path clip-path="url(#clip020)" d="M633.617 137.923 Q630.192 137.923 628.201 140.608 Q626.21 143.27 626.21 147.923 Q626.21 152.575 628.178 155.261 Q630.168 157.923 633.617 157.923 Q637.02 157.923 639.011 155.238 Q641.002 152.552 641.002 147.923 Q641.002 143.316 639.011 140.631 Q637.02 137.923 633.617 137.923 M633.617 134.312 Q639.173 134.312 642.344 137.923 Q645.516 141.534 645.516 147.923 Q645.516 154.288 642.344 157.923 Q639.173 161.534 633.617 161.534 Q628.039 161.534 624.868 157.923 Q621.719 154.288 621.719 147.923 Q621.719 141.534 624.868 137.923 Q628.039 134.312 633.617 134.312 Z" fill="#000000" fill-rule="evenodd" fill-opacity="1" /><path clip-path="url(#clip020)" d="M667.599 138.918 Q666.881 138.501 666.025 138.316 Q665.191 138.108 664.173 138.108 Q660.562 138.108 658.617 140.469 Q656.696 142.807 656.696 147.205 L656.696 160.862 L652.414 160.862 L652.414 134.937 L656.696 134.937 L656.696 138.964 Q658.039 136.603 660.191 135.469 Q662.344 134.312 665.423 134.312 Q665.863 134.312 666.395 134.381 Q666.927 134.427 667.576 134.543 L667.599 138.918 Z" fill="#000000" fill-rule="evenodd" fill-opacity="1" /><path clip-path="url(#clip020)" d="M693.2 146.835 L693.2 148.918 L673.617 148.918 Q673.895 153.316 676.256 155.631 Q678.64 157.923 682.876 157.923 Q685.33 157.923 687.622 157.321 Q689.937 156.719 692.205 155.515 L692.205 159.543 Q689.913 160.515 687.506 161.025 Q685.099 161.534 682.622 161.534 Q676.418 161.534 672.784 157.923 Q669.173 154.312 669.173 148.154 Q669.173 141.789 672.599 138.062 Q676.048 134.312 681.881 134.312 Q687.113 134.312 690.145 137.691 Q693.2 141.048 693.2 146.835 M688.941 145.585 Q688.895 142.089 686.974 140.006 Q685.076 137.923 681.927 137.923 Q678.363 137.923 676.21 139.937 Q674.08 141.951 673.756 145.608 L688.941 145.585 Z" fill="#000000" fill-rule="evenodd" fill-opacity="1" /><path clip-path="url(#clip020)" d="M704.404 127.576 L704.404 134.937 L713.177 134.937 L713.177 138.247 L704.404 138.247 L704.404 152.321 Q704.404 155.492 705.261 156.395 Q706.14 157.298 708.802 157.298 L713.177 157.298 L713.177 160.862 L708.802 160.862 Q703.872 160.862 701.997 159.034 Q700.122 157.182 700.122 152.321 L700.122 138.247 L696.997 138.247 L696.997 134.937 L700.122 134.937 L700.122 127.576 L704.404 127.576 Z" fill="#000000" fill-rule="evenodd" fill-opacity="1" /><path clip-path="url(#clip020)" d="M718.779 134.937 L723.038 134.937 L723.038 160.862 L718.779 160.862 L718.779 134.937 M718.779 124.844 L723.038 124.844 L723.038 130.238 L718.779 130.238 L718.779 124.844 Z" fill="#000000" fill-rule="evenodd" fill-opacity="1" /><path clip-path="url(#clip020)" d="M750.608 135.932 L750.608 139.914 Q748.802 138.918 746.973 138.432 Q745.168 137.923 743.316 137.923 Q739.172 137.923 736.881 140.562 Q734.589 143.177 734.589 147.923 Q734.589 152.668 736.881 155.307 Q739.172 157.923 743.316 157.923 Q745.168 157.923 746.973 157.437 Q748.802 156.927 750.608 155.932 L750.608 159.867 Q748.825 160.7 746.904 161.117 Q745.006 161.534 742.853 161.534 Q736.997 161.534 733.547 157.853 Q730.098 154.173 730.098 147.923 Q730.098 141.58 733.571 137.946 Q737.066 134.312 743.131 134.312 Q745.098 134.312 746.973 134.728 Q748.848 135.122 750.608 135.932 Z" fill="#000000" fill-rule="evenodd" fill-opacity="1" /><path clip-path="url(#clip020)" d="M769.797 147.83 Q764.635 147.83 762.645 149.011 Q760.654 150.191 760.654 153.038 Q760.654 155.307 762.135 156.65 Q763.64 157.969 766.209 157.969 Q769.751 157.969 771.881 155.469 Q774.033 152.946 774.033 148.779 L774.033 147.83 L769.797 147.83 M778.293 146.071 L778.293 160.862 L774.033 160.862 L774.033 156.927 Q772.575 159.288 770.399 160.423 Q768.223 161.534 765.075 161.534 Q761.094 161.534 758.733 159.312 Q756.395 157.066 756.395 153.316 Q756.395 148.941 759.311 146.719 Q762.251 144.497 768.061 144.497 L774.033 144.497 L774.033 144.08 Q774.033 141.14 772.089 139.543 Q770.168 137.923 766.672 137.923 Q764.45 137.923 762.344 138.455 Q760.237 138.988 758.293 140.052 L758.293 136.117 Q760.631 135.214 762.83 134.775 Q765.029 134.312 767.112 134.312 Q772.737 134.312 775.515 137.228 Q778.293 140.145 778.293 146.071 Z" fill="#000000" fill-rule="evenodd" fill-opacity="1" /><path clip-path="url(#clip020)" d="M787.066 124.844 L791.325 124.844 L791.325 160.862 L787.066 160.862 L787.066 124.844 Z" fill="#000000" fill-rule="evenodd" fill-opacity="1" /><path clip-path="url(#clip020)" d="M816.718 156.927 L824.357 156.927 L824.357 130.562 L816.047 132.228 L816.047 127.969 L824.311 126.302 L828.987 126.302 L828.987 156.927 L836.626 156.927 L836.626 160.862 L816.718 160.862 L816.718 156.927 Z" fill="#000000" fill-rule="evenodd" fill-opacity="1" /><path clip-path="url(#clip020)" d="M861.996 135.701 L861.996 139.728 Q860.19 138.802 858.246 138.339 Q856.301 137.877 854.218 137.877 Q851.047 137.877 849.45 138.849 Q847.876 139.821 847.876 141.765 Q847.876 143.247 849.01 144.103 Q850.144 144.937 853.57 145.701 L855.028 146.025 Q859.565 146.997 861.463 148.779 Q863.385 150.538 863.385 153.71 Q863.385 157.321 860.514 159.427 Q857.667 161.534 852.667 161.534 Q850.584 161.534 848.315 161.117 Q846.07 160.724 843.57 159.913 L843.57 155.515 Q845.931 156.742 848.223 157.367 Q850.514 157.969 852.76 157.969 Q855.769 157.969 857.389 156.95 Q859.01 155.909 859.01 154.034 Q859.01 152.298 857.829 151.372 Q856.672 150.446 852.714 149.589 L851.232 149.242 Q847.274 148.409 845.514 146.696 Q843.755 144.96 843.755 141.951 Q843.755 138.293 846.348 136.302 Q848.94 134.312 853.709 134.312 Q856.07 134.312 858.153 134.659 Q860.237 135.006 861.996 135.701 Z" fill="#000000" fill-rule="evenodd" fill-opacity="1" /><path clip-path="url(#clip020)" d="M874.38 127.576 L874.38 134.937 L883.153 134.937 L883.153 138.247 L874.38 138.247 L874.38 152.321 Q874.38 155.492 875.237 156.395 Q876.116 157.298 878.778 157.298 L883.153 157.298 L883.153 160.862 L878.778 160.862 Q873.848 160.862 871.973 159.034 Q870.098 157.182 870.098 152.321 L870.098 138.247 L866.973 138.247 L866.973 134.937 L870.098 134.937 L870.098 127.576 L874.38 127.576 Z" fill="#000000" fill-rule="evenodd" fill-opacity="1" /><path clip-path="url(#clip020)" d="M913.871 137.923 Q910.445 137.923 908.454 140.608 Q906.463 143.27 906.463 147.923 Q906.463 152.575 908.431 155.261 Q910.422 157.923 913.871 157.923 Q917.273 157.923 919.264 155.238 Q921.255 152.552 921.255 147.923 Q921.255 143.316 919.264 140.631 Q917.273 137.923 913.871 137.923 M913.871 134.312 Q919.426 134.312 922.597 137.923 Q925.769 141.534 925.769 147.923 Q925.769 154.288 922.597 157.923 Q919.426 161.534 913.871 161.534 Q908.292 161.534 905.121 157.923 Q901.973 154.288 901.973 147.923 Q901.973 141.534 905.121 137.923 Q908.292 134.312 913.871 134.312 Z" fill="#000000" fill-rule="evenodd" fill-opacity="1" /><path clip-path="url(#clip020)" d="M947.852 138.918 Q947.134 138.501 946.278 138.316 Q945.445 138.108 944.426 138.108 Q940.815 138.108 938.87 140.469 Q936.949 142.807 936.949 147.205 L936.949 160.862 L932.667 160.862 L932.667 134.937 L936.949 134.937 L936.949 138.964 Q938.292 136.603 940.445 135.469 Q942.597 134.312 945.676 134.312 Q946.116 134.312 946.648 134.381 Q947.181 134.427 947.829 134.543 L947.852 138.918 Z" fill="#000000" fill-rule="evenodd" fill-opacity="1" /><path clip-path="url(#clip020)" d="M968.546 138.872 L968.546 124.844 L972.805 124.844 L972.805 160.862 L968.546 160.862 L968.546 156.974 Q967.204 159.288 965.143 160.423 Q963.106 161.534 960.236 161.534 Q955.537 161.534 952.574 157.784 Q949.634 154.034 949.634 147.923 Q949.634 141.812 952.574 138.062 Q955.537 134.312 960.236 134.312 Q963.106 134.312 965.143 135.446 Q967.204 136.557 968.546 138.872 M954.032 147.923 Q954.032 152.622 955.954 155.307 Q957.898 157.969 961.278 157.969 Q964.657 157.969 966.602 155.307 Q968.546 152.622 968.546 147.923 Q968.546 143.224 966.602 140.562 Q964.657 137.877 961.278 137.877 Q957.898 137.877 955.954 140.562 Q954.032 143.224 954.032 147.923 Z" fill="#000000" fill-rule="evenodd" fill-opacity="1" /><path clip-path="url(#clip020)" d="M1003.75 146.835 L1003.75 148.918 L984.171 148.918 Q984.449 153.316 986.81 155.631 Q989.194 157.923 993.43 157.923 Q995.884 157.923 998.176 157.321 Q1000.49 156.719 1002.76 155.515 L1002.76 159.543 Q1000.47 160.515 998.06 161.025 Q995.653 161.534 993.176 161.534 Q986.972 161.534 983.338 157.923 Q979.727 154.312 979.727 148.154 Q979.727 141.789 983.153 138.062 Q986.602 134.312 992.435 134.312 Q997.666 134.312 1000.7 137.691 Q1003.75 141.048 1003.75 146.835 M999.495 145.585 Q999.449 142.089 997.528 140.006 Q995.629 137.923 992.481 137.923 Q988.916 137.923 986.764 139.937 Q984.634 141.951 984.31 145.608 L999.495 145.585 Z" fill="#000000" fill-rule="evenodd" fill-opacity="1" /><path clip-path="url(#clip020)" d="M1025.77 138.918 Q1025.05 138.501 1024.19 138.316 Q1023.36 138.108 1022.34 138.108 Q1018.73 138.108 1016.79 140.469 Q1014.87 142.807 1014.87 147.205 L1014.87 160.862 L1010.58 160.862 L1010.58 134.937 L1014.87 134.937 L1014.87 138.964 Q1016.21 136.603 1018.36 135.469 Q1020.51 134.312 1023.59 134.312 Q1024.03 134.312 1024.56 134.381 Q1025.1 134.427 1025.75 134.543 L1025.77 138.918 Z" fill="#000000" fill-rule="evenodd" fill-opacity="1" /><path clip-path="url(#clip020)" d="M1062.37 138.872 L1062.37 124.844 L1066.62 124.844 L1066.62 160.862 L1062.37 160.862 L1062.37 156.974 Q1061.02 159.288 1058.96 160.423 Q1056.93 161.534 1054.06 161.534 Q1049.36 161.534 1046.39 157.784 Q1043.45 154.034 1043.45 147.923 Q1043.45 141.812 1046.39 138.062 Q1049.36 134.312 1054.06 134.312 Q1056.93 134.312 1058.96 135.446 Q1061.02 136.557 1062.37 138.872 M1047.85 147.923 Q1047.85 152.622 1049.77 155.307 Q1051.72 157.969 1055.1 157.969 Q1058.48 157.969 1060.42 155.307 Q1062.37 152.622 1062.37 147.923 Q1062.37 143.224 1060.42 140.562 Q1058.48 137.877 1055.1 137.877 Q1051.72 137.877 1049.77 140.562 Q1047.85 143.224 1047.85 147.923 Z" fill="#000000" fill-rule="evenodd" fill-opacity="1" /><path clip-path="url(#clip020)" d="M1097.57 146.835 L1097.57 148.918 L1077.99 148.918 Q1078.27 153.316 1080.63 155.631 Q1083.01 157.923 1087.25 157.923 Q1089.7 157.923 1091.99 157.321 Q1094.31 156.719 1096.58 155.515 L1096.58 159.543 Q1094.29 160.515 1091.88 161.025 Q1089.47 161.534 1086.99 161.534 Q1080.79 161.534 1077.16 157.923 Q1073.55 154.312 1073.55 148.154 Q1073.55 141.789 1076.97 138.062 Q1080.42 134.312 1086.25 134.312 Q1091.49 134.312 1094.52 137.691 Q1097.57 141.048 1097.57 146.835 M1093.31 145.585 Q1093.27 142.089 1091.35 140.006 Q1089.45 137.923 1086.3 137.923 Q1082.74 137.923 1080.58 139.937 Q1078.45 141.951 1078.13 145.608 L1093.31 145.585 Z" fill="#000000" fill-rule="evenodd" fill-opacity="1" /><path clip-path="url(#clip020)" d="M1119.59 138.918 Q1118.87 138.501 1118.01 138.316 Q1117.18 138.108 1116.16 138.108 Q1112.55 138.108 1110.61 140.469 Q1108.68 142.807 1108.68 147.205 L1108.68 160.862 L1104.4 160.862 L1104.4 134.937 L1108.68 134.937 L1108.68 138.964 Q1110.03 136.603 1112.18 135.469 Q1114.33 134.312 1117.41 134.312 Q1117.85 134.312 1118.38 134.381 Q1118.92 134.427 1119.56 134.543 L1119.59 138.918 Z" fill="#000000" fill-rule="evenodd" fill-opacity="1" /><path clip-path="url(#clip020)" d="M1124.05 134.937 L1128.31 134.937 L1128.31 160.862 L1124.05 160.862 L1124.05 134.937 M1124.05 124.844 L1128.31 124.844 L1128.31 130.238 L1124.05 130.238 L1124.05 124.844 Z" fill="#000000" fill-rule="evenodd" fill-opacity="1" /><path clip-path="url(#clip020)" d="M1134.17 134.937 L1138.68 134.937 L1146.79 156.696 L1154.89 134.937 L1159.4 134.937 L1149.68 160.862 L1143.89 160.862 L1134.17 134.937 Z" fill="#000000" fill-rule="evenodd" fill-opacity="1" /><path clip-path="url(#clip020)" d="M1177.06 147.83 Q1171.9 147.83 1169.91 149.011 Q1167.92 150.191 1167.92 153.038 Q1167.92 155.307 1169.4 156.65 Q1170.91 157.969 1173.48 157.969 Q1177.02 157.969 1179.15 155.469 Q1181.3 152.946 1181.3 148.779 L1181.3 147.83 L1177.06 147.83 M1185.56 146.071 L1185.56 160.862 L1181.3 160.862 L1181.3 156.927 Q1179.84 159.288 1177.67 160.423 Q1175.49 161.534 1172.34 161.534 Q1168.36 161.534 1166 159.312 Q1163.66 157.066 1163.66 153.316 Q1163.66 148.941 1166.58 146.719 Q1169.52 144.497 1175.33 144.497 L1181.3 144.497 L1181.3 144.08 Q1181.3 141.14 1179.36 139.543 Q1177.43 137.923 1173.94 137.923 Q1171.72 137.923 1169.61 138.455 Q1167.5 138.988 1165.56 140.052 L1165.56 136.117 Q1167.9 135.214 1170.1 134.775 Q1172.3 134.312 1174.38 134.312 Q1180 134.312 1182.78 137.228 Q1185.56 140.145 1185.56 146.071 Z" fill="#000000" fill-rule="evenodd" fill-opacity="1" /><path clip-path="url(#clip020)" d="M1198.55 127.576 L1198.55 134.937 L1207.32 134.937 L1207.32 138.247 L1198.55 138.247 L1198.55 152.321 Q1198.55 155.492 1199.4 156.395 Q1200.28 157.298 1202.94 157.298 L1207.32 157.298 L1207.32 160.862 L1202.94 160.862 Q1198.01 160.862 1196.14 159.034 Q1194.26 157.182 1194.26 152.321 L1194.26 138.247 L1191.14 138.247 L1191.14 134.937 L1194.26 134.937 L1194.26 127.576 L1198.55 127.576 Z" fill="#000000" fill-rule="evenodd" fill-opacity="1" /><path clip-path="url(#clip020)" d="M1212.92 134.937 L1217.18 134.937 L1217.18 160.862 L1212.92 160.862 L1212.92 134.937 M1212.92 124.844 L1217.18 124.844 L1217.18 130.238 L1212.92 130.238 L1212.92 124.844 Z" fill="#000000" fill-rule="evenodd" fill-opacity="1" /><path clip-path="url(#clip020)" d="M1223.04 134.937 L1227.55 134.937 L1235.65 156.696 L1243.75 134.937 L1248.27 134.937 L1238.54 160.862 L1232.76 160.862 L1223.04 134.937 Z" fill="#000000" fill-rule="evenodd" fill-opacity="1" /><path clip-path="url(#clip020)" d="M1276.32 146.835 L1276.32 148.918 L1256.74 148.918 Q1257.02 153.316 1259.38 155.631 Q1261.76 157.923 1266 157.923 Q1268.45 157.923 1270.74 157.321 Q1273.06 156.719 1275.33 155.515 L1275.33 159.543 Q1273.04 160.515 1270.63 161.025 Q1268.22 161.534 1265.74 161.534 Q1259.54 161.534 1255.91 157.923 Q1252.29 154.312 1252.29 148.154 Q1252.29 141.789 1255.72 138.062 Q1259.17 134.312 1265 134.312 Q1270.23 134.312 1273.27 137.691 Q1276.32 141.048 1276.32 146.835 M1272.06 145.585 Q1272.02 142.089 1270.1 140.006 Q1268.2 137.923 1265.05 137.923 Q1261.48 137.923 1259.33 139.937 Q1257.2 141.951 1256.88 145.608 L1272.06 145.585 Z" fill="#000000" fill-rule="evenodd" fill-opacity="1" /><circle clip-path="url(#clip020)" cx="450.922" cy="195.422" r="23" fill="#e26f46" fill-rule="evenodd" fill-opacity="1" stroke="#000000" stroke-opacity="1" stroke-width="5.12"/>
<path clip-path="url(#clip020)" d="M561.002 187.541 L561.002 191.568 Q559.197 190.642 557.252 190.179 Q555.308 189.717 553.224 189.717 Q550.053 189.717 548.456 190.689 Q546.882 191.661 546.882 193.605 Q546.882 195.087 548.016 195.943 Q549.15 196.777 552.576 197.541 L554.035 197.865 Q558.572 198.837 560.47 200.619 Q562.391 202.378 562.391 205.55 Q562.391 209.161 559.521 211.267 Q556.673 213.374 551.673 213.374 Q549.59 213.374 547.322 212.957 Q545.076 212.564 542.576 211.753 L542.576 207.355 Q544.937 208.582 547.229 209.207 Q549.521 209.809 551.766 209.809 Q554.775 209.809 556.396 208.79 Q558.016 207.749 558.016 205.874 Q558.016 204.138 556.835 203.212 Q555.678 202.286 551.72 201.429 L550.238 201.082 Q546.28 200.249 544.521 198.536 Q542.761 196.8 542.761 193.791 Q542.761 190.133 545.354 188.142 Q547.947 186.152 552.715 186.152 Q555.076 186.152 557.16 186.499 Q559.243 186.846 561.002 187.541 Z" fill="#000000" fill-rule="evenodd" fill-opacity="1" /><path clip-path="url(#clip020)" d="M589.358 191.754 Q590.956 188.883 593.178 187.517 Q595.4 186.152 598.409 186.152 Q602.46 186.152 604.659 188.999 Q606.858 191.823 606.858 197.054 L606.858 212.702 L602.576 212.702 L602.576 197.193 Q602.576 193.466 601.257 191.661 Q599.937 189.855 597.229 189.855 Q593.919 189.855 591.997 192.054 Q590.076 194.254 590.076 198.05 L590.076 212.702 L585.794 212.702 L585.794 197.193 Q585.794 193.443 584.474 191.661 Q583.155 189.855 580.4 189.855 Q577.136 189.855 575.215 192.078 Q573.294 194.277 573.294 198.05 L573.294 212.702 L569.011 212.702 L569.011 186.777 L573.294 186.777 L573.294 190.804 Q574.752 188.42 576.789 187.286 Q578.826 186.152 581.627 186.152 Q584.451 186.152 586.419 187.587 Q588.409 189.022 589.358 191.754 Z" fill="#000000" fill-rule="evenodd" fill-opacity="1" /><path clip-path="url(#clip020)" d="M625.4 189.763 Q621.974 189.763 619.983 192.448 Q617.993 195.11 617.993 199.763 Q617.993 204.415 619.96 207.101 Q621.951 209.763 625.4 209.763 Q628.803 209.763 630.793 207.078 Q632.784 204.392 632.784 199.763 Q632.784 195.156 630.793 192.471 Q628.803 189.763 625.4 189.763 M625.4 186.152 Q630.955 186.152 634.127 189.763 Q637.298 193.374 637.298 199.763 Q637.298 206.128 634.127 209.763 Q630.955 213.374 625.4 213.374 Q619.821 213.374 616.65 209.763 Q613.502 206.128 613.502 199.763 Q613.502 193.374 616.65 189.763 Q619.821 186.152 625.4 186.152 Z" fill="#000000" fill-rule="evenodd" fill-opacity="1" /><path clip-path="url(#clip020)" d="M654.404 189.763 Q650.978 189.763 648.988 192.448 Q646.997 195.11 646.997 199.763 Q646.997 204.415 648.965 207.101 Q650.955 209.763 654.404 209.763 Q657.807 209.763 659.798 207.078 Q661.789 204.392 661.789 199.763 Q661.789 195.156 659.798 192.471 Q657.807 189.763 654.404 189.763 M654.404 186.152 Q659.96 186.152 663.131 189.763 Q666.302 193.374 666.302 199.763 Q666.302 206.128 663.131 209.763 Q659.96 213.374 654.404 213.374 Q648.826 213.374 645.654 209.763 Q642.506 206.128 642.506 199.763 Q642.506 193.374 645.654 189.763 Q648.826 186.152 654.404 186.152 Z" fill="#000000" fill-rule="evenodd" fill-opacity="1" /><path clip-path="url(#clip020)" d="M677.576 179.416 L677.576 186.777 L686.349 186.777 L686.349 190.087 L677.576 190.087 L677.576 204.161 Q677.576 207.332 678.432 208.235 Q679.312 209.138 681.974 209.138 L686.349 209.138 L686.349 212.702 L681.974 212.702 Q677.043 212.702 675.168 210.874 Q673.293 209.022 673.293 204.161 L673.293 190.087 L670.168 190.087 L670.168 186.777 L673.293 186.777 L673.293 179.416 L677.576 179.416 Z" fill="#000000" fill-rule="evenodd" fill-opacity="1" /><path clip-path="url(#clip020)" d="M713.501 197.054 L713.501 212.702 L709.242 212.702 L709.242 197.193 Q709.242 193.513 707.807 191.684 Q706.372 189.855 703.501 189.855 Q700.052 189.855 698.062 192.054 Q696.071 194.254 696.071 198.05 L696.071 212.702 L691.788 212.702 L691.788 176.684 L696.071 176.684 L696.071 190.804 Q697.599 188.467 699.659 187.309 Q701.742 186.152 704.45 186.152 Q708.918 186.152 711.21 188.929 Q713.501 191.684 713.501 197.054 Z" fill="#000000" fill-rule="evenodd" fill-opacity="1" /><path clip-path="url(#clip020)" d="M744.172 198.675 L744.172 200.758 L724.589 200.758 Q724.867 205.156 727.228 207.471 Q729.612 209.763 733.848 209.763 Q736.302 209.763 738.594 209.161 Q740.909 208.559 743.177 207.355 L743.177 211.383 Q740.885 212.355 738.478 212.865 Q736.071 213.374 733.594 213.374 Q727.39 213.374 723.756 209.763 Q720.145 206.152 720.145 199.994 Q720.145 193.629 723.571 189.902 Q727.02 186.152 732.853 186.152 Q738.085 186.152 741.117 189.531 Q744.172 192.888 744.172 198.675 M739.913 197.425 Q739.867 193.929 737.946 191.846 Q736.047 189.763 732.899 189.763 Q729.335 189.763 727.182 191.777 Q725.052 193.791 724.728 197.448 L739.913 197.425 Z" fill="#000000" fill-rule="evenodd" fill-opacity="1" /><path clip-path="url(#clip020)" d="M768.223 190.712 L768.223 176.684 L772.482 176.684 L772.482 212.702 L768.223 212.702 L768.223 208.814 Q766.881 211.128 764.82 212.263 Q762.783 213.374 759.913 213.374 Q755.214 213.374 752.251 209.624 Q749.311 205.874 749.311 199.763 Q749.311 193.652 752.251 189.902 Q755.214 186.152 759.913 186.152 Q762.783 186.152 764.82 187.286 Q766.881 188.397 768.223 190.712 M753.709 199.763 Q753.709 204.462 755.631 207.147 Q757.575 209.809 760.955 209.809 Q764.334 209.809 766.279 207.147 Q768.223 204.462 768.223 199.763 Q768.223 195.064 766.279 192.402 Q764.334 189.717 760.955 189.717 Q757.575 189.717 755.631 192.402 Q753.709 195.064 753.709 199.763 Z" fill="#000000" fill-rule="evenodd" fill-opacity="1" /><path clip-path="url(#clip020)" d="M797.737 208.767 L805.376 208.767 L805.376 182.402 L797.066 184.068 L797.066 179.809 L805.33 178.142 L810.005 178.142 L810.005 208.767 L817.644 208.767 L817.644 212.702 L797.737 212.702 L797.737 208.767 Z" fill="#000000" fill-rule="evenodd" fill-opacity="1" /><path clip-path="url(#clip020)" d="M843.015 187.541 L843.015 191.568 Q841.209 190.642 839.265 190.179 Q837.32 189.717 835.237 189.717 Q832.065 189.717 830.468 190.689 Q828.894 191.661 828.894 193.605 Q828.894 195.087 830.028 195.943 Q831.163 196.777 834.589 197.541 L836.047 197.865 Q840.584 198.837 842.482 200.619 Q844.403 202.378 844.403 205.55 Q844.403 209.161 841.533 211.267 Q838.686 213.374 833.686 213.374 Q831.603 213.374 829.334 212.957 Q827.089 212.564 824.589 211.753 L824.589 207.355 Q826.95 208.582 829.241 209.207 Q831.533 209.809 833.778 209.809 Q836.788 209.809 838.408 208.79 Q840.028 207.749 840.028 205.874 Q840.028 204.138 838.848 203.212 Q837.69 202.286 833.732 201.429 L832.251 201.082 Q828.292 200.249 826.533 198.536 Q824.774 196.8 824.774 193.791 Q824.774 190.133 827.366 188.142 Q829.959 186.152 834.728 186.152 Q837.089 186.152 839.172 186.499 Q841.255 186.846 843.015 187.541 Z" fill="#000000" fill-rule="evenodd" fill-opacity="1" /><path clip-path="url(#clip020)" d="M855.399 179.416 L855.399 186.777 L864.172 186.777 L864.172 190.087 L855.399 190.087 L855.399 204.161 Q855.399 207.332 856.255 208.235 Q857.135 209.138 859.797 209.138 L864.172 209.138 L864.172 212.702 L859.797 212.702 Q854.866 212.702 852.991 210.874 Q851.116 209.022 851.116 204.161 L851.116 190.087 L847.991 190.087 L847.991 186.777 L851.116 186.777 L851.116 179.416 L855.399 179.416 Z" fill="#000000" fill-rule="evenodd" fill-opacity="1" /><path clip-path="url(#clip020)" d="M894.889 189.763 Q891.463 189.763 889.473 192.448 Q887.482 195.11 887.482 199.763 Q887.482 204.415 889.449 207.101 Q891.44 209.763 894.889 209.763 Q898.292 209.763 900.283 207.078 Q902.273 204.392 902.273 199.763 Q902.273 195.156 900.283 192.471 Q898.292 189.763 894.889 189.763 M894.889 186.152 Q900.445 186.152 903.616 189.763 Q906.787 193.374 906.787 199.763 Q906.787 206.128 903.616 209.763 Q900.445 213.374 894.889 213.374 Q889.311 213.374 886.139 209.763 Q882.991 206.128 882.991 199.763 Q882.991 193.374 886.139 189.763 Q889.311 186.152 894.889 186.152 Z" fill="#000000" fill-rule="evenodd" fill-opacity="1" /><path clip-path="url(#clip020)" d="M928.871 190.758 Q928.153 190.341 927.296 190.156 Q926.463 189.948 925.445 189.948 Q921.834 189.948 919.889 192.309 Q917.968 194.647 917.968 199.045 L917.968 212.702 L913.685 212.702 L913.685 186.777 L917.968 186.777 L917.968 190.804 Q919.31 188.443 921.463 187.309 Q923.616 186.152 926.695 186.152 Q927.134 186.152 927.667 186.221 Q928.199 186.267 928.847 186.383 L928.871 190.758 Z" fill="#000000" fill-rule="evenodd" fill-opacity="1" /><path clip-path="url(#clip020)" d="M949.565 190.712 L949.565 176.684 L953.824 176.684 L953.824 212.702 L949.565 212.702 L949.565 208.814 Q948.222 211.128 946.162 212.263 Q944.125 213.374 941.255 213.374 Q936.556 213.374 933.593 209.624 Q930.653 205.874 930.653 199.763 Q930.653 193.652 933.593 189.902 Q936.556 186.152 941.255 186.152 Q944.125 186.152 946.162 187.286 Q948.222 188.397 949.565 190.712 M935.051 199.763 Q935.051 204.462 936.972 207.147 Q938.917 209.809 942.296 209.809 Q945.676 209.809 947.62 207.147 Q949.565 204.462 949.565 199.763 Q949.565 195.064 947.62 192.402 Q945.676 189.717 942.296 189.717 Q938.917 189.717 936.972 192.402 Q935.051 195.064 935.051 199.763 Z" fill="#000000" fill-rule="evenodd" fill-opacity="1" /><path clip-path="url(#clip020)" d="M984.773 198.675 L984.773 200.758 L965.19 200.758 Q965.468 205.156 967.829 207.471 Q970.213 209.763 974.449 209.763 Q976.903 209.763 979.194 209.161 Q981.509 208.559 983.778 207.355 L983.778 211.383 Q981.486 212.355 979.079 212.865 Q976.671 213.374 974.194 213.374 Q967.991 213.374 964.356 209.763 Q960.745 206.152 960.745 199.994 Q960.745 193.629 964.171 189.902 Q967.62 186.152 973.454 186.152 Q978.685 186.152 981.717 189.531 Q984.773 192.888 984.773 198.675 M980.514 197.425 Q980.467 193.929 978.546 191.846 Q976.648 189.763 973.5 189.763 Q969.935 189.763 967.782 191.777 Q965.653 193.791 965.329 197.448 L980.514 197.425 Z" fill="#000000" fill-rule="evenodd" fill-opacity="1" /><path clip-path="url(#clip020)" d="M1006.79 190.758 Q1006.07 190.341 1005.21 190.156 Q1004.38 189.948 1003.36 189.948 Q999.75 189.948 997.805 192.309 Q995.884 194.647 995.884 199.045 L995.884 212.702 L991.602 212.702 L991.602 186.777 L995.884 186.777 L995.884 190.804 Q997.227 188.443 999.379 187.309 Q1001.53 186.152 1004.61 186.152 Q1005.05 186.152 1005.58 186.221 Q1006.12 186.267 1006.76 186.383 L1006.79 190.758 Z" fill="#000000" fill-rule="evenodd" fill-opacity="1" /><path clip-path="url(#clip020)" d="M1043.38 190.712 L1043.38 176.684 L1047.64 176.684 L1047.64 212.702 L1043.38 212.702 L1043.38 208.814 Q1042.04 211.128 1039.98 212.263 Q1037.94 213.374 1035.07 213.374 Q1030.37 213.374 1027.41 209.624 Q1024.47 205.874 1024.47 199.763 Q1024.47 193.652 1027.41 189.902 Q1030.37 186.152 1035.07 186.152 Q1037.94 186.152 1039.98 187.286 Q1042.04 188.397 1043.38 190.712 M1028.87 199.763 Q1028.87 204.462 1030.79 207.147 Q1032.74 209.809 1036.12 209.809 Q1039.49 209.809 1041.44 207.147 Q1043.38 204.462 1043.38 199.763 Q1043.38 195.064 1041.44 192.402 Q1039.49 189.717 1036.12 189.717 Q1032.74 189.717 1030.79 192.402 Q1028.87 195.064 1028.87 199.763 Z" fill="#000000" fill-rule="evenodd" fill-opacity="1" /><path clip-path="url(#clip020)" d="M1078.59 198.675 L1078.59 200.758 L1059.01 200.758 Q1059.29 205.156 1061.65 207.471 Q1064.03 209.763 1068.27 209.763 Q1070.72 209.763 1073.01 209.161 Q1075.33 208.559 1077.6 207.355 L1077.6 211.383 Q1075.3 212.355 1072.9 212.865 Q1070.49 213.374 1068.01 213.374 Q1061.81 213.374 1058.18 209.763 Q1054.56 206.152 1054.56 199.994 Q1054.56 193.629 1057.99 189.902 Q1061.44 186.152 1067.27 186.152 Q1072.5 186.152 1075.54 189.531 Q1078.59 192.888 1078.59 198.675 M1074.33 197.425 Q1074.29 193.929 1072.37 191.846 Q1070.47 189.763 1067.32 189.763 Q1063.75 189.763 1061.6 191.777 Q1059.47 193.791 1059.15 197.448 L1074.33 197.425 Z" fill="#000000" fill-rule="evenodd" fill-opacity="1" /><path clip-path="url(#clip020)" d="M1100.61 190.758 Q1099.89 190.341 1099.03 190.156 Q1098.2 189.948 1097.18 189.948 Q1093.57 189.948 1091.62 192.309 Q1089.7 194.647 1089.7 199.045 L1089.7 212.702 L1085.42 212.702 L1085.42 186.777 L1089.7 186.777 L1089.7 190.804 Q1091.05 188.443 1093.2 187.309 Q1095.35 186.152 1098.43 186.152 Q1098.87 186.152 1099.4 186.221 Q1099.93 186.267 1100.58 186.383 L1100.61 190.758 Z" fill="#000000" fill-rule="evenodd" fill-opacity="1" /><path clip-path="url(#clip020)" d="M1105.07 186.777 L1109.33 186.777 L1109.33 212.702 L1105.07 212.702 L1105.07 186.777 M1105.07 176.684 L1109.33 176.684 L1109.33 182.078 L1105.07 182.078 L1105.07 176.684 Z" fill="#000000" fill-rule="evenodd" fill-opacity="1" /><path clip-path="url(#clip020)" d="M1115.19 186.777 L1119.7 186.777 L1127.8 208.536 L1135.91 186.777 L1140.42 186.777 L1130.7 212.702 L1124.91 212.702 L1115.19 186.777 Z" fill="#000000" fill-rule="evenodd" fill-opacity="1" /><path clip-path="url(#clip020)" d="M1158.08 199.67 Q1152.92 199.67 1150.93 200.851 Q1148.94 202.031 1148.94 204.878 Q1148.94 207.147 1150.42 208.49 Q1151.92 209.809 1154.49 209.809 Q1158.04 209.809 1160.17 207.309 Q1162.32 204.786 1162.32 200.619 L1162.32 199.67 L1158.08 199.67 M1166.58 197.911 L1166.58 212.702 L1162.32 212.702 L1162.32 208.767 Q1160.86 211.128 1158.68 212.263 Q1156.51 213.374 1153.36 213.374 Q1149.38 213.374 1147.02 211.152 Q1144.68 208.906 1144.68 205.156 Q1144.68 200.781 1147.6 198.559 Q1150.54 196.337 1156.35 196.337 L1162.32 196.337 L1162.32 195.92 Q1162.32 192.98 1160.37 191.383 Q1158.45 189.763 1154.96 189.763 Q1152.74 189.763 1150.63 190.295 Q1148.52 190.828 1146.58 191.892 L1146.58 187.957 Q1148.92 187.054 1151.11 186.615 Q1153.31 186.152 1155.4 186.152 Q1161.02 186.152 1163.8 189.068 Q1166.58 191.985 1166.58 197.911 Z" fill="#000000" fill-rule="evenodd" fill-opacity="1" /><path clip-path="url(#clip020)" d="M1179.56 179.416 L1179.56 186.777 L1188.34 186.777 L1188.34 190.087 L1179.56 190.087 L1179.56 204.161 Q1179.56 207.332 1180.42 208.235 Q1181.3 209.138 1183.96 209.138 L1188.34 209.138 L1188.34 212.702 L1183.96 212.702 Q1179.03 212.702 1177.16 210.874 Q1175.28 209.022 1175.28 204.161 L1175.28 190.087 L1172.16 190.087 L1172.16 186.777 L1175.28 186.777 L1175.28 179.416 L1179.56 179.416 Z" fill="#000000" fill-rule="evenodd" fill-opacity="1" /><path clip-path="url(#clip020)" d="M1193.94 186.777 L1198.2 186.777 L1198.2 212.702 L1193.94 212.702 L1193.94 186.777 M1193.94 176.684 L1198.2 176.684 L1198.2 182.078 L1193.94 182.078 L1193.94 176.684 Z" fill="#000000" fill-rule="evenodd" fill-opacity="1" /><path clip-path="url(#clip020)" d="M1204.05 186.777 L1208.57 186.777 L1216.67 208.536 L1224.77 186.777 L1229.29 186.777 L1219.56 212.702 L1213.78 212.702 L1204.05 186.777 Z" fill="#000000" fill-rule="evenodd" fill-opacity="1" /><path clip-path="url(#clip020)" d="M1257.34 198.675 L1257.34 200.758 L1237.76 200.758 Q1238.04 205.156 1240.4 207.471 Q1242.78 209.763 1247.02 209.763 Q1249.47 209.763 1251.76 209.161 Q1254.08 208.559 1256.35 207.355 L1256.35 211.383 Q1254.05 212.355 1251.65 212.865 Q1249.24 213.374 1246.76 213.374 Q1240.56 213.374 1236.92 209.763 Q1233.31 206.152 1233.31 199.994 Q1233.31 193.629 1236.74 189.902 Q1240.19 186.152 1246.02 186.152 Q1251.25 186.152 1254.29 189.531 Q1257.34 192.888 1257.34 198.675 M1253.08 197.425 Q1253.04 193.929 1251.11 191.846 Q1249.22 189.763 1246.07 189.763 Q1242.5 189.763 1240.35 191.777 Q1238.22 193.791 1237.9 197.448 L1253.08 197.425 Z" fill="#000000" fill-rule="evenodd" fill-opacity="1" /></svg>
