<?xml version="1.0" encoding="utf-8"?>
<svg xmlns="http://www.w3.org/2000/svg" xmlns:xlink="http://www.w3.org/1999/xlink" width="600" height="400" viewBox="0 0 2400 1600">
<defs>
  <clipPath id="clip010">
    <rect x="0" y="0" width="2400" height="1600"/>
  </clipPath>
</defs>
<path clip-path="url(#clip010)" d="
M0 1600 L2400 1600 L2400 0 L0 0  Z
  " fill="#ffffff" fill-rule="evenodd" fill-opacity="1"/>
<defs>
  <clipPath id="clip011">
    <rect x="480" y="0" width="1681" height="1600"/>
  </clipPath>
</defs>
<path clip-path="url(#clip010)" d="
M206.992 1401.01 L2352.76 1401.01 L2352.76 47.2441 L206.992 47.2441  Z
  " fill="#ffffff" fill-rule="evenodd" fill-opacity="1"/>
<defs>
  <clipPath id="clip012">
    <rect x="206" y="47" width="2147" height="1355"/>
  </clipPath>
</defs>
<polyline clip-path="url(#clip012)" style="stroke:#000000; stroke-width:2; stroke-opacity:0.1; fill:none" points="
  470.152,1401.01 470.152,47.2441 
  "/>
<polyline clip-path="url(#clip012)" style="stroke:#000000; stroke-width:2; stroke-opacity:0.1; fill:none" points="
  875.013,1401.01 875.013,47.2441 
  "/>
<polyline clip-path="url(#clip012)" style="stroke:#000000; stroke-width:2; stroke-opacity:0.1; fill:none" points="
  1279.87,1401.01 1279.87,47.2441 
  "/>
<polyline clip-path="url(#clip012)" style="stroke:#000000; stroke-width:2; stroke-opacity:0.1; fill:none" points="
  1684.74,1401.01 1684.74,47.2441 
  "/>
<polyline clip-path="url(#clip012)" style="stroke:#000000; stroke-width:2; stroke-opacity:0.1; fill:none" points="
  2089.6,1401.01 2089.6,47.2441 
  "/>
<polyline clip-path="url(#clip010)" style="stroke:#000000; stroke-width:4; stroke-opacity:1; fill:none" points="
  206.992,1401.01 2352.76,1401.01 
  "/>
<polyline clip-path="url(#clip010)" style="stroke:#000000; stroke-width:4; stroke-opacity:1; fill:none" points="
  470.152,1401.01 470.152,1384.76 
  "/>
<polyline clip-path="url(#clip010)" style="stroke:#000000; stroke-width:4; stroke-opacity:1; fill:none" points="
  875.013,1401.01 875.013,1384.76 
  "/>
<polyline clip-path="url(#clip010)" style="stroke:#000000; stroke-width:4; stroke-opacity:1; fill:none" points="
  1279.87,1401.01 1279.87,1384.76 
  "/>
<polyline clip-path="url(#clip010)" style="stroke:#000000; stroke-width:4; stroke-opacity:1; fill:none" points="
  1684.74,1401.01 1684.74,1384.76 
  "/>
<polyline clip-path="url(#clip010)" style="stroke:#000000; stroke-width:4; stroke-opacity:1; fill:none" points="
  2089.6,1401.01 2089.6,1384.76 
  "/>
<path clip-path="url(#clip010)" d="M 0 0 M439.052 1444.85 L468.728 1444.85 L468.728 1448.79 L439.052 1448.79 L439.052 1444.85 Z" fill="#000000" fill-rule="evenodd" fill-opacity="1" /><path clip-path="url(#clip010)" d="M 0 0 M491.668 1431.19 L479.862 1449.64 L491.668 1449.64 L491.668 1431.19 M490.441 1427.12 L496.321 1427.12 L496.321 1449.64 L501.251 1449.64 L501.251 1453.53 L496.321 1453.53 L496.321 1461.68 L491.668 1461.68 L491.668 1453.53 L476.066 1453.53 L476.066 1449.02 L490.441 1427.12 Z" fill="#000000" fill-rule="evenodd" fill-opacity="1" /><path clip-path="url(#clip010)" d="M 0 0 M844.955 1444.85 L874.631 1444.85 L874.631 1448.79 L844.955 1448.79 L844.955 1444.85 Z" fill="#000000" fill-rule="evenodd" fill-opacity="1" /><path clip-path="url(#clip010)" d="M 0 0 M888.751 1457.74 L905.071 1457.74 L905.071 1461.68 L883.126 1461.68 L883.126 1457.74 Q885.788 1454.99 890.372 1450.36 Q894.978 1445.71 896.159 1444.37 Q898.404 1441.84 899.284 1440.11 Q900.186 1438.35 900.186 1436.66 Q900.186 1433.9 898.242 1432.17 Q896.321 1430.43 893.219 1430.43 Q891.02 1430.43 888.566 1431.19 Q886.136 1431.96 883.358 1433.51 L883.358 1428.79 Q886.182 1427.65 888.636 1427.07 Q891.089 1426.49 893.126 1426.49 Q898.497 1426.49 901.691 1429.18 Q904.885 1431.87 904.885 1436.36 Q904.885 1438.49 904.075 1440.41 Q903.288 1442.3 901.182 1444.9 Q900.603 1445.57 897.501 1448.79 Q894.399 1451.98 888.751 1457.74 Z" fill="#000000" fill-rule="evenodd" fill-opacity="1" /><path clip-path="url(#clip010)" d="M 0 0 M1279.87 1430.2 Q1276.26 1430.2 1274.43 1433.76 Q1272.63 1437.31 1272.63 1444.43 Q1272.63 1451.54 1274.43 1455.11 Q1276.26 1458.65 1279.87 1458.65 Q1283.51 1458.65 1285.31 1455.11 Q1287.14 1451.54 1287.14 1444.43 Q1287.14 1437.31 1285.31 1433.76 Q1283.51 1430.2 1279.87 1430.2 M1279.87 1426.49 Q1285.68 1426.49 1288.74 1431.1 Q1291.82 1435.68 1291.82 1444.43 Q1291.82 1453.16 1288.74 1457.77 Q1285.68 1462.35 1279.87 1462.35 Q1274.06 1462.35 1270.99 1457.77 Q1267.93 1453.16 1267.93 1444.43 Q1267.93 1435.68 1270.99 1431.1 Q1274.06 1426.49 1279.87 1426.49 Z" fill="#000000" fill-rule="evenodd" fill-opacity="1" /><path clip-path="url(#clip010)" d="M 0 0 M1679.39 1457.74 L1695.71 1457.74 L1695.71 1461.68 L1673.76 1461.68 L1673.76 1457.74 Q1676.42 1454.99 1681.01 1450.36 Q1685.61 1445.71 1686.8 1444.37 Q1689.04 1441.84 1689.92 1440.11 Q1690.82 1438.35 1690.82 1436.66 Q1690.82 1433.9 1688.88 1432.17 Q1686.96 1430.43 1683.86 1430.43 Q1681.66 1430.43 1679.2 1431.19 Q1676.77 1431.96 1673.99 1433.51 L1673.99 1428.79 Q1676.82 1427.65 1679.27 1427.07 Q1681.73 1426.49 1683.76 1426.49 Q1689.13 1426.49 1692.33 1429.18 Q1695.52 1431.87 1695.52 1436.36 Q1695.52 1438.49 1694.71 1440.41 Q1693.92 1442.3 1691.82 1444.9 Q1691.24 1445.57 1688.14 1448.79 Q1685.04 1451.98 1679.39 1457.74 Z" fill="#000000" fill-rule="evenodd" fill-opacity="1" /><path clip-path="url(#clip010)" d="M 0 0 M2092.61 1431.19 L2080.8 1449.64 L2092.61 1449.64 L2092.61 1431.19 M2091.38 1427.12 L2097.26 1427.12 L2097.26 1449.64 L2102.19 1449.64 L2102.19 1453.53 L2097.26 1453.53 L2097.26 1461.68 L2092.61 1461.68 L2092.61 1453.53 L2077 1453.53 L2077 1449.02 L2091.38 1427.12 Z" fill="#000000" fill-rule="evenodd" fill-opacity="1" /><path clip-path="url(#clip010)" d="M 0 0 M1296.49 1510.22 L1283.6 1527.57 L1297.16 1545.87 L1290.25 1545.87 L1279.87 1531.87 L1269.5 1545.87 L1262.59 1545.87 L1276.44 1527.22 L1263.77 1510.22 L1270.68 1510.22 L1280.13 1522.92 L1289.58 1510.22 L1296.49 1510.22 Z" fill="#000000" fill-rule="evenodd" fill-opacity="1" /><polyline clip-path="url(#clip012)" style="stroke:#000000; stroke-width:2; stroke-opacity:0.1; fill:none" points="
  206.992,1362.87 2352.76,1362.87 
  "/>
<polyline clip-path="url(#clip012)" style="stroke:#000000; stroke-width:2; stroke-opacity:0.1; fill:none" points="
  206.992,1043.44 2352.76,1043.44 
  "/>
<polyline clip-path="url(#clip012)" style="stroke:#000000; stroke-width:2; stroke-opacity:0.1; fill:none" points="
  206.992,724.009 2352.76,724.009 
  "/>
<polyline clip-path="url(#clip012)" style="stroke:#000000; stroke-width:2; stroke-opacity:0.1; fill:none" points="
  206.992,404.579 2352.76,404.579 
  "/>
<polyline clip-path="url(#clip012)" style="stroke:#000000; stroke-width:2; stroke-opacity:0.1; fill:none" points="
  206.992,85.1489 2352.76,85.1489 
  "/>
<polyline clip-path="url(#clip010)" style="stroke:#000000; stroke-width:4; stroke-opacity:1; fill:none" points="
  206.992,1401.01 206.992,47.2441 
  "/>
<polyline clip-path="url(#clip010)" style="stroke:#000000; stroke-width:4; stroke-opacity:1; fill:none" points="
  206.992,1362.87 232.741,1362.87 
  "/>
<polyline clip-path="url(#clip010)" style="stroke:#000000; stroke-width:4; stroke-opacity:1; fill:none" points="
  206.992,1043.44 232.741,1043.44 
  "/>
<polyline clip-path="url(#clip010)" style="stroke:#000000; stroke-width:4; stroke-opacity:1; fill:none" points="
  206.992,724.009 232.741,724.009 
  "/>
<polyline clip-path="url(#clip010)" style="stroke:#000000; stroke-width:4; stroke-opacity:1; fill:none" points="
  206.992,404.579 232.741,404.579 
  "/>
<polyline clip-path="url(#clip010)" style="stroke:#000000; stroke-width:4; stroke-opacity:1; fill:none" points="
  206.992,85.1489 232.741,85.1489 
  "/>
<path clip-path="url(#clip010)" d="M 0 0 M64.0483 1363.32 L93.724 1363.32 L93.724 1367.26 L64.0483 1367.26 L64.0483 1363.32 Z" fill="#000000" fill-rule="evenodd" fill-opacity="1" /><path clip-path="url(#clip010)" d="M 0 0 M104.627 1376.21 L112.266 1376.21 L112.266 1349.85 L103.955 1351.51 L103.955 1347.26 L112.219 1345.59 L116.895 1345.59 L116.895 1376.21 L124.534 1376.21 L124.534 1380.15 L104.627 1380.15 L104.627 1376.21 Z" fill="#000000" fill-rule="evenodd" fill-opacity="1" /><path clip-path="url(#clip010)" d="M 0 0 M133.978 1374.27 L138.863 1374.27 L138.863 1380.15 L133.978 1380.15 L133.978 1374.27 Z" fill="#000000" fill-rule="evenodd" fill-opacity="1" /><path clip-path="url(#clip010)" d="M 0 0 M159.048 1348.67 Q155.437 1348.67 153.608 1352.23 Q151.802 1355.77 151.802 1362.9 Q151.802 1370.01 153.608 1373.57 Q155.437 1377.12 159.048 1377.12 Q162.682 1377.12 164.488 1373.57 Q166.316 1370.01 166.316 1362.9 Q166.316 1355.77 164.488 1352.23 Q162.682 1348.67 159.048 1348.67 M159.048 1344.96 Q164.858 1344.96 167.913 1349.57 Q170.992 1354.15 170.992 1362.9 Q170.992 1371.63 167.913 1376.24 Q164.858 1380.82 159.048 1380.82 Q153.238 1380.82 150.159 1376.24 Q147.103 1371.63 147.103 1362.9 Q147.103 1354.15 150.159 1349.57 Q153.238 1344.96 159.048 1344.96 Z" fill="#000000" fill-rule="evenodd" fill-opacity="1" /><path clip-path="url(#clip010)" d="M 0 0 M65.0436 1043.89 L94.7194 1043.89 L94.7194 1047.83 L65.0436 1047.83 L65.0436 1043.89 Z" fill="#000000" fill-rule="evenodd" fill-opacity="1" /><path clip-path="url(#clip010)" d="M 0 0 M114.812 1029.24 Q111.201 1029.24 109.372 1032.8 Q107.567 1036.34 107.567 1043.47 Q107.567 1050.58 109.372 1054.14 Q111.201 1057.69 114.812 1057.69 Q118.446 1057.69 120.252 1054.14 Q122.08 1050.58 122.08 1043.47 Q122.08 1036.34 120.252 1032.8 Q118.446 1029.24 114.812 1029.24 M114.812 1025.53 Q120.622 1025.53 123.678 1030.14 Q126.756 1034.72 126.756 1043.47 Q126.756 1052.2 123.678 1056.81 Q120.622 1061.39 114.812 1061.39 Q109.002 1061.39 105.923 1056.81 Q102.867 1052.2 102.867 1043.47 Q102.867 1034.72 105.923 1030.14 Q109.002 1025.53 114.812 1025.53 Z" fill="#000000" fill-rule="evenodd" fill-opacity="1" /><path clip-path="url(#clip010)" d="M 0 0 M134.974 1054.84 L139.858 1054.84 L139.858 1060.72 L134.974 1060.72 L134.974 1054.84 Z" fill="#000000" fill-rule="evenodd" fill-opacity="1" /><path clip-path="url(#clip010)" d="M 0 0 M150.089 1026.16 L168.446 1026.16 L168.446 1030.09 L154.372 1030.09 L154.372 1038.57 Q155.39 1038.22 156.409 1038.06 Q157.427 1037.87 158.446 1037.87 Q164.233 1037.87 167.613 1041.04 Q170.992 1044.21 170.992 1049.63 Q170.992 1055.21 167.52 1058.31 Q164.048 1061.39 157.728 1061.39 Q155.552 1061.39 153.284 1061.02 Q151.039 1060.65 148.631 1059.91 L148.631 1055.21 Q150.714 1056.34 152.937 1056.9 Q155.159 1057.45 157.636 1057.45 Q161.64 1057.45 163.978 1055.35 Q166.316 1053.24 166.316 1049.63 Q166.316 1046.02 163.978 1043.91 Q161.64 1041.81 157.636 1041.81 Q155.761 1041.81 153.886 1042.22 Q152.034 1042.64 150.089 1043.52 L150.089 1026.16 Z" fill="#000000" fill-rule="evenodd" fill-opacity="1" /><path clip-path="url(#clip010)" d="M 0 0 M113.817 709.808 Q110.205 709.808 108.377 713.372 Q106.571 716.914 106.571 724.044 Q106.571 731.15 108.377 734.715 Q110.205 738.256 113.817 738.256 Q117.451 738.256 119.256 734.715 Q121.085 731.15 121.085 724.044 Q121.085 716.914 119.256 713.372 Q117.451 709.808 113.817 709.808 M113.817 706.104 Q119.627 706.104 122.682 710.71 Q125.761 715.294 125.761 724.044 Q125.761 732.77 122.682 737.377 Q119.627 741.96 113.817 741.96 Q108.006 741.96 104.928 737.377 Q101.872 732.77 101.872 724.044 Q101.872 715.294 104.928 710.71 Q108.006 706.104 113.817 706.104 Z" fill="#000000" fill-rule="evenodd" fill-opacity="1" /><path clip-path="url(#clip010)" d="M 0 0 M133.978 735.409 L138.863 735.409 L138.863 741.289 L133.978 741.289 L133.978 735.409 Z" fill="#000000" fill-rule="evenodd" fill-opacity="1" /><path clip-path="url(#clip010)" d="M 0 0 M159.048 709.808 Q155.437 709.808 153.608 713.372 Q151.802 716.914 151.802 724.044 Q151.802 731.15 153.608 734.715 Q155.437 738.256 159.048 738.256 Q162.682 738.256 164.488 734.715 Q166.316 731.15 166.316 724.044 Q166.316 716.914 164.488 713.372 Q162.682 709.808 159.048 709.808 M159.048 706.104 Q164.858 706.104 167.913 710.71 Q170.992 715.294 170.992 724.044 Q170.992 732.77 167.913 737.377 Q164.858 741.96 159.048 741.96 Q153.238 741.96 150.159 737.377 Q147.103 732.77 147.103 724.044 Q147.103 715.294 150.159 710.71 Q153.238 706.104 159.048 706.104 Z" fill="#000000" fill-rule="evenodd" fill-opacity="1" /><path clip-path="url(#clip010)" d="M 0 0 M114.812 390.378 Q111.201 390.378 109.372 393.942 Q107.567 397.484 107.567 404.614 Q107.567 411.72 109.372 415.285 Q111.201 418.827 114.812 418.827 Q118.446 418.827 120.252 415.285 Q122.08 411.72 122.08 404.614 Q122.08 397.484 120.252 393.942 Q118.446 390.378 114.812 390.378 M114.812 386.674 Q120.622 386.674 123.678 391.28 Q126.756 395.864 126.756 404.614 Q126.756 413.34 123.678 417.947 Q120.622 422.53 114.812 422.53 Q109.002 422.53 105.923 417.947 Q102.867 413.34 102.867 404.614 Q102.867 395.864 105.923 391.28 Q109.002 386.674 114.812 386.674 Z" fill="#000000" fill-rule="evenodd" fill-opacity="1" /><path clip-path="url(#clip010)" d="M 0 0 M134.974 415.979 L139.858 415.979 L139.858 421.859 L134.974 421.859 L134.974 415.979 Z" fill="#000000" fill-rule="evenodd" fill-opacity="1" /><path clip-path="url(#clip010)" d="M 0 0 M150.089 387.299 L168.446 387.299 L168.446 391.234 L154.372 391.234 L154.372 399.706 Q155.39 399.359 156.409 399.197 Q157.427 399.012 158.446 399.012 Q164.233 399.012 167.613 402.183 Q170.992 405.354 170.992 410.771 Q170.992 416.35 167.52 419.452 Q164.048 422.53 157.728 422.53 Q155.552 422.53 153.284 422.16 Q151.039 421.789 148.631 421.049 L148.631 416.35 Q150.714 417.484 152.937 418.039 Q155.159 418.595 157.636 418.595 Q161.64 418.595 163.978 416.489 Q166.316 414.382 166.316 410.771 Q166.316 407.16 163.978 405.053 Q161.64 402.947 157.636 402.947 Q155.761 402.947 153.886 403.364 Q152.034 403.78 150.089 404.66 L150.089 387.299 Z" fill="#000000" fill-rule="evenodd" fill-opacity="1" /><path clip-path="url(#clip010)" d="M 0 0 M104.627 98.4938 L112.266 98.4938 L112.266 72.1282 L103.955 73.7948 L103.955 69.5356 L112.219 67.8689 L116.895 67.8689 L116.895 98.4938 L124.534 98.4938 L124.534 102.429 L104.627 102.429 L104.627 98.4938 Z" fill="#000000" fill-rule="evenodd" fill-opacity="1" /><path clip-path="url(#clip010)" d="M 0 0 M133.978 96.5493 L138.863 96.5493 L138.863 102.429 L133.978 102.429 L133.978 96.5493 Z" fill="#000000" fill-rule="evenodd" fill-opacity="1" /><path clip-path="url(#clip010)" d="M 0 0 M159.048 70.9476 Q155.437 70.9476 153.608 74.5124 Q151.802 78.0541 151.802 85.1837 Q151.802 92.2901 153.608 95.8549 Q155.437 99.3965 159.048 99.3965 Q162.682 99.3965 164.488 95.8549 Q166.316 92.2901 166.316 85.1837 Q166.316 78.0541 164.488 74.5124 Q162.682 70.9476 159.048 70.9476 M159.048 67.2439 Q164.858 67.2439 167.913 71.8504 Q170.992 76.4337 170.992 85.1837 Q170.992 93.9105 167.913 98.5169 Q164.858 103.1 159.048 103.1 Q153.238 103.1 150.159 98.5169 Q147.103 93.9105 147.103 85.1837 Q147.103 76.4337 150.159 71.8504 Q153.238 67.2439 159.048 67.2439 Z" fill="#000000" fill-rule="evenodd" fill-opacity="1" /><path clip-path="url(#clip010)" d="M 0 0 M17.1024 722.439 Q23.4681 724.922 25.4097 727.277 Q27.3512 729.632 27.3512 733.579 L27.3512 738.258 L22.4496 738.258 L22.4496 734.82 Q22.4496 732.401 21.3038 731.065 Q20.158 729.728 15.8929 728.105 L13.2193 727.054 L-21.8557 741.473 L-21.8557 735.266 L6.02609 724.126 L-21.8557 712.986 L-21.8557 706.779 L17.1024 722.439 Z" fill="#000000" fill-rule="evenodd" fill-opacity="1" /><polyline clip-path="url(#clip012)" style="stroke:#009af9; stroke-width:4; stroke-opacity:1; fill:none" points="
  267.721,111.391 272.664,107.149 277.606,103.275 282.548,99.7717 287.49,96.64 310.339,87.0458 333.189,85.5582 356.038,92.1961 378.887,106.875 401.736,129.408 
  424.585,159.509 447.434,196.794 470.283,240.789 497.746,301.75 525.209,370.47 552.671,445.688 580.134,526.02 626.573,669.331 673.012,815.506 723.457,968.616 
  773.903,1106.61 797.156,1162.73 820.409,1213.07 843.662,1256.96 866.916,1293.83 891.845,1325 916.775,1347.06 941.705,1359.69 966.635,1362.69 995.519,1354.08 
  1024.4,1332.65 1053.29,1298.86 1082.17,1253.39 1107.84,1203.91 1133.51,1146.73 1159.17,1082.76 1184.84,1013.03 1229.86,880.247 1274.88,739.772 1323.96,585.973 
  1373.04,440.248 1397.73,372.726 1422.41,310.422 1447.1,254.26 1471.79,205.077 1499.08,159.696 1526.38,124.56 1553.67,100.304 1580.96,87.3705 1606.93,85.7919 
  1632.9,94.7028 1658.87,113.957 1684.84,143.237 1711.85,183.796 1738.85,233.953 1765.85,292.816 1792.85,359.341 1838.31,485.312 1883.77,623.271 1939.28,797.845 
  1994.78,966.904 2020.87,1040.83 2046.95,1109.49 2073.04,1171.77 2099.13,1226.62 2120.02,1264.58 2140.92,1296.79 2161.82,1322.9 2182.71,1342.63 2203.61,1355.77 
  2224.51,1362.19 2245.4,1361.82 2266.3,1354.66 2272.73,1351.09 2279.16,1346.9 2285.59,1342.07 2292.03,1336.63 
  "/>
<path clip-path="url(#clip010)" d="
M1990.38 213.33 L2281.23 213.33 L2281.23 92.3696 L1990.38 92.3696  Z
  " fill="#ffffff" fill-rule="evenodd" fill-opacity="1"/>
<polyline clip-path="url(#clip010)" style="stroke:#000000; stroke-width:4; stroke-opacity:1; fill:none" points="
  1990.38,213.33 2281.23,213.33 2281.23,92.3696 1990.38,92.3696 1990.38,213.33 
  "/>
<polyline clip-path="url(#clip010)" style="stroke:#009af9; stroke-width:4; stroke-opacity:1; fill:none" points="
  2014.22,152.85 2157.27,152.85 
  "/>
<path clip-path="url(#clip010)" d="M 0 0 M2194.96 172.537 Q2193.15 177.167 2191.44 178.579 Q2189.73 179.991 2186.86 179.991 L2183.45 179.991 L2183.45 176.426 L2185.95 176.426 Q2187.71 176.426 2188.69 175.592 Q2189.66 174.759 2190.84 171.657 L2191.6 169.713 L2181.12 144.204 L2185.63 144.204 L2193.73 164.481 L2201.83 144.204 L2206.35 144.204 L2194.96 172.537 Z" fill="#000000" fill-rule="evenodd" fill-opacity="1" /><path clip-path="url(#clip010)" d="M 0 0 M2213.64 166.194 L2221.28 166.194 L2221.28 139.829 L2212.97 141.495 L2212.97 137.236 L2221.23 135.57 L2225.91 135.57 L2225.91 166.194 L2233.55 166.194 L2233.55 170.13 L2213.64 170.13 L2213.64 166.194 Z" fill="#000000" fill-rule="evenodd" fill-opacity="1" /></svg>
