<?xml version="1.0" encoding="utf-8"?>
<svg xmlns="http://www.w3.org/2000/svg" xmlns:xlink="http://www.w3.org/1999/xlink" width="600" height="400" viewBox="0 0 2400 1600">
<defs>
  <clipPath id="clip480">
    <rect x="0" y="0" width="2400" height="1600"/>
  </clipPath>
</defs>
<path clip-path="url(#clip480)" d="
M0 1600 L2400 1600 L2400 0 L0 0  Z
  " fill="#ffffff" fill-rule="evenodd" fill-opacity="1"/>
<defs>
  <clipPath id="clip481">
    <rect x="480" y="0" width="1681" height="1600"/>
  </clipPath>
</defs>
<path clip-path="url(#clip480)" d="
M102.74 1505.26 L2352.76 1505.26 L2352.76 47.2441 L102.74 47.2441  Z
  " fill="#ffffff" fill-rule="evenodd" fill-opacity="1"/>
<defs>
  <clipPath id="clip482">
    <rect x="102" y="47" width="2251" height="1459"/>
  </clipPath>
</defs>
<polyline clip-path="url(#clip482)" style="stroke:#000000; stroke-width:2; stroke-opacity:0.1; fill:none" points="
  378.685,1505.26 378.685,47.2441 
  "/>
<polyline clip-path="url(#clip482)" style="stroke:#000000; stroke-width:2; stroke-opacity:0.1; fill:none" points="
  803.217,1505.26 803.217,47.2441 
  "/>
<polyline clip-path="url(#clip482)" style="stroke:#000000; stroke-width:2; stroke-opacity:0.1; fill:none" points="
  1227.75,1505.26 1227.75,47.2441 
  "/>
<polyline clip-path="url(#clip482)" style="stroke:#000000; stroke-width:2; stroke-opacity:0.1; fill:none" points="
  1652.28,1505.26 1652.28,47.2441 
  "/>
<polyline clip-path="url(#clip482)" style="stroke:#000000; stroke-width:2; stroke-opacity:0.1; fill:none" points="
  2076.81,1505.26 2076.81,47.2441 
  "/>
<polyline clip-path="url(#clip480)" style="stroke:#000000; stroke-width:4; stroke-opacity:1; fill:none" points="
  102.74,1505.26 2352.76,1505.26 
  "/>
<polyline clip-path="url(#clip480)" style="stroke:#000000; stroke-width:4; stroke-opacity:1; fill:none" points="
  378.685,1505.26 378.685,1487.76 
  "/>
<polyline clip-path="url(#clip480)" style="stroke:#000000; stroke-width:4; stroke-opacity:1; fill:none" points="
  803.217,1505.26 803.217,1487.76 
  "/>
<polyline clip-path="url(#clip480)" style="stroke:#000000; stroke-width:4; stroke-opacity:1; fill:none" points="
  1227.75,1505.26 1227.75,1487.76 
  "/>
<polyline clip-path="url(#clip480)" style="stroke:#000000; stroke-width:4; stroke-opacity:1; fill:none" points="
  1652.28,1505.26 1652.28,1487.76 
  "/>
<polyline clip-path="url(#clip480)" style="stroke:#000000; stroke-width:4; stroke-opacity:1; fill:none" points="
  2076.81,1505.26 2076.81,1487.76 
  "/>
<path clip-path="url(#clip480)" d="M 0 0 M350.098 1549.1 L379.773 1549.1 L379.773 1553.04 L350.098 1553.04 L350.098 1549.1 Z" fill="#000000" fill-rule="evenodd" fill-opacity="1" /><path clip-path="url(#clip480)" d="M 0 0 M397.69 1535.45 L385.885 1553.89 L397.69 1553.89 L397.69 1535.45 M396.463 1531.37 L402.343 1531.37 L402.343 1553.89 L407.273 1553.89 L407.273 1557.78 L402.343 1557.78 L402.343 1565.93 L397.69 1565.93 L397.69 1557.78 L382.088 1557.78 L382.088 1553.27 L396.463 1531.37 Z" fill="#000000" fill-rule="evenodd" fill-opacity="1" /><path clip-path="url(#clip480)" d="M 0 0 M775.671 1549.1 L805.346 1549.1 L805.346 1553.04 L775.671 1553.04 L775.671 1549.1 Z" fill="#000000" fill-rule="evenodd" fill-opacity="1" /><path clip-path="url(#clip480)" d="M 0 0 M814.444 1562 L830.763 1562 L830.763 1565.93 L808.819 1565.93 L808.819 1562 Q811.481 1559.24 816.064 1554.61 Q820.67 1549.96 821.851 1548.62 Q824.096 1546.09 824.976 1544.36 Q825.879 1542.6 825.879 1540.91 Q825.879 1538.15 823.934 1536.42 Q822.013 1534.68 818.911 1534.68 Q816.712 1534.68 814.258 1535.45 Q811.828 1536.21 809.05 1537.76 L809.05 1533.04 Q811.874 1531.9 814.328 1531.33 Q816.782 1530.75 818.819 1530.75 Q824.189 1530.75 827.383 1533.43 Q830.578 1536.12 830.578 1540.61 Q830.578 1542.74 829.768 1544.66 Q828.981 1546.56 826.874 1549.15 Q826.295 1549.82 823.194 1553.04 Q820.092 1556.23 814.444 1562 Z" fill="#000000" fill-rule="evenodd" fill-opacity="1" /><path clip-path="url(#clip480)" d="M 0 0 M1227.75 1534.45 Q1224.14 1534.45 1222.31 1538.02 Q1220.5 1541.56 1220.5 1548.69 Q1220.5 1555.79 1222.31 1559.36 Q1224.14 1562.9 1227.75 1562.9 Q1231.38 1562.9 1233.19 1559.36 Q1235.02 1555.79 1235.02 1548.69 Q1235.02 1541.56 1233.19 1538.02 Q1231.38 1534.45 1227.75 1534.45 M1227.75 1530.75 Q1233.56 1530.75 1236.61 1535.35 Q1239.69 1539.94 1239.69 1548.69 Q1239.69 1557.41 1236.61 1562.02 Q1233.56 1566.6 1227.75 1566.6 Q1221.94 1566.6 1218.86 1562.02 Q1215.8 1557.41 1215.8 1548.69 Q1215.8 1539.94 1218.86 1535.35 Q1221.94 1530.75 1227.75 1530.75 Z" fill="#000000" fill-rule="evenodd" fill-opacity="1" /><path clip-path="url(#clip480)" d="M 0 0 M1646.93 1562 L1663.25 1562 L1663.25 1565.93 L1641.31 1565.93 L1641.31 1562 Q1643.97 1559.24 1648.55 1554.61 Q1653.16 1549.96 1654.34 1548.62 Q1656.58 1546.09 1657.46 1544.36 Q1658.37 1542.6 1658.37 1540.91 Q1658.37 1538.15 1656.42 1536.42 Q1654.5 1534.68 1651.4 1534.68 Q1649.2 1534.68 1646.75 1535.45 Q1644.32 1536.21 1641.54 1537.76 L1641.54 1533.04 Q1644.36 1531.9 1646.82 1531.33 Q1649.27 1530.75 1651.31 1530.75 Q1656.68 1530.75 1659.87 1533.43 Q1663.07 1536.12 1663.07 1540.61 Q1663.07 1542.74 1662.26 1544.66 Q1661.47 1546.56 1659.36 1549.15 Q1658.78 1549.82 1655.68 1553.04 Q1652.58 1556.23 1646.93 1562 Z" fill="#000000" fill-rule="evenodd" fill-opacity="1" /><path clip-path="url(#clip480)" d="M 0 0 M2079.82 1535.45 L2068.01 1553.89 L2079.82 1553.89 L2079.82 1535.45 M2078.59 1531.37 L2084.47 1531.37 L2084.47 1553.89 L2089.4 1553.89 L2089.4 1557.78 L2084.47 1557.78 L2084.47 1565.93 L2079.82 1565.93 L2079.82 1557.78 L2064.22 1557.78 L2064.22 1553.27 L2078.59 1531.37 Z" fill="#000000" fill-rule="evenodd" fill-opacity="1" /><path clip-path="url(#clip480)" d="M 0 0 M1244.36 1614.48 L1231.47 1631.82 L1245.03 1650.12 L1238.12 1650.12 L1227.75 1636.12 L1217.37 1650.12 L1210.47 1650.12 L1224.31 1631.47 L1211.64 1614.48 L1218.55 1614.48 L1228 1627.18 L1237.46 1614.48 L1244.36 1614.48 Z" fill="#000000" fill-rule="evenodd" fill-opacity="1" /><polyline clip-path="url(#clip482)" style="stroke:#000000; stroke-width:2; stroke-opacity:0.1; fill:none" points="
  102.74,1464.18 2352.76,1464.18 
  "/>
<polyline clip-path="url(#clip482)" style="stroke:#000000; stroke-width:2; stroke-opacity:0.1; fill:none" points="
  102.74,1120.15 2352.76,1120.15 
  "/>
<polyline clip-path="url(#clip482)" style="stroke:#000000; stroke-width:2; stroke-opacity:0.1; fill:none" points="
  102.74,776.126 2352.76,776.126 
  "/>
<polyline clip-path="url(#clip482)" style="stroke:#000000; stroke-width:2; stroke-opacity:0.1; fill:none" points="
  102.74,432.097 2352.76,432.097 
  "/>
<polyline clip-path="url(#clip482)" style="stroke:#000000; stroke-width:2; stroke-opacity:0.1; fill:none" points="
  102.74,88.0679 2352.76,88.0679 
  "/>
<polyline clip-path="url(#clip480)" style="stroke:#000000; stroke-width:4; stroke-opacity:1; fill:none" points="
  102.74,1505.26 102.74,47.2441 
  "/>
<polyline clip-path="url(#clip480)" style="stroke:#000000; stroke-width:4; stroke-opacity:1; fill:none" points="
  102.74,1464.18 129.74,1464.18 
  "/>
<polyline clip-path="url(#clip480)" style="stroke:#000000; stroke-width:4; stroke-opacity:1; fill:none" points="
  102.74,1120.15 129.74,1120.15 
  "/>
<polyline clip-path="url(#clip480)" style="stroke:#000000; stroke-width:4; stroke-opacity:1; fill:none" points="
  102.74,776.126 129.74,776.126 
  "/>
<polyline clip-path="url(#clip480)" style="stroke:#000000; stroke-width:4; stroke-opacity:1; fill:none" points="
  102.74,432.097 129.74,432.097 
  "/>
<polyline clip-path="url(#clip480)" style="stroke:#000000; stroke-width:4; stroke-opacity:1; fill:none" points="
  102.74,88.0679 129.74,88.0679 
  "/>
<path clip-path="url(#clip480)" d="M 0 0 M-25.6899 1464.64 L3.98586 1464.64 L3.98586 1468.57 L-25.6899 1468.57 L-25.6899 1464.64 Z" fill="#000000" fill-rule="evenodd" fill-opacity="1" /><path clip-path="url(#clip480)" d="M 0 0 M9.86546 1477.53 L17.5043 1477.53 L17.5043 1451.16 L9.19417 1452.83 L9.19417 1448.57 L17.458 1446.9 L22.1339 1446.9 L22.1339 1477.53 L29.7728 1477.53 L29.7728 1481.46 L9.86546 1481.46 L9.86546 1477.53 Z" fill="#000000" fill-rule="evenodd" fill-opacity="1" /><path clip-path="url(#clip480)" d="M 0 0 M34.8422 1475.58 L39.7264 1475.58 L39.7264 1481.46 L34.8422 1481.46 L34.8422 1475.58 Z" fill="#000000" fill-rule="evenodd" fill-opacity="1" /><path clip-path="url(#clip480)" d="M 0 0 M54.7958 1449.98 Q51.1847 1449.98 49.356 1453.55 Q47.5504 1457.09 47.5504 1464.22 Q47.5504 1471.32 49.356 1474.89 Q51.1847 1478.43 54.7958 1478.43 Q58.43 1478.43 60.2356 1474.89 Q62.0643 1471.32 62.0643 1464.22 Q62.0643 1457.09 60.2356 1453.55 Q58.43 1449.98 54.7958 1449.98 M54.7958 1446.28 Q60.6059 1446.28 63.6615 1450.89 Q66.7402 1455.47 66.7402 1464.22 Q66.7402 1472.95 63.6615 1477.55 Q60.6059 1482.13 54.7958 1482.13 Q48.9856 1482.13 45.9069 1477.55 Q42.8514 1472.95 42.8514 1464.22 Q42.8514 1455.47 45.9069 1450.89 Q48.9856 1446.28 54.7958 1446.28 Z" fill="#000000" fill-rule="evenodd" fill-opacity="1" /><path clip-path="url(#clip480)" d="M 0 0 M-25.9214 1120.61 L3.75438 1120.61 L3.75438 1124.54 L-25.9214 1124.54 L-25.9214 1120.61 Z" fill="#000000" fill-rule="evenodd" fill-opacity="1" /><path clip-path="url(#clip480)" d="M 0 0 M18.8237 1105.95 Q15.2127 1105.95 13.384 1109.52 Q11.5784 1113.06 11.5784 1120.19 Q11.5784 1127.3 13.384 1130.86 Q15.2127 1134.4 18.8237 1134.4 Q22.458 1134.4 24.2635 1130.86 Q26.0922 1127.3 26.0922 1120.19 Q26.0922 1113.06 24.2635 1109.52 Q22.458 1105.95 18.8237 1105.95 M18.8237 1102.25 Q24.6339 1102.25 27.6894 1106.86 Q30.7681 1111.44 30.7681 1120.19 Q30.7681 1128.92 27.6894 1133.52 Q24.6339 1138.11 18.8237 1138.11 Q13.0136 1138.11 9.93491 1133.52 Q6.87937 1128.92 6.87937 1120.19 Q6.87937 1111.44 9.93491 1106.86 Q13.0136 1102.25 18.8237 1102.25 Z" fill="#000000" fill-rule="evenodd" fill-opacity="1" /><path clip-path="url(#clip480)" d="M 0 0 M35.8375 1131.56 L40.7218 1131.56 L40.7218 1137.43 L35.8375 1137.43 L35.8375 1131.56 Z" fill="#000000" fill-rule="evenodd" fill-opacity="1" /><path clip-path="url(#clip480)" d="M 0 0 M45.8375 1102.87 L64.1939 1102.87 L64.1939 1106.81 L50.1199 1106.81 L50.1199 1115.28 Q51.1384 1114.93 52.1569 1114.77 Q53.1754 1114.59 54.1939 1114.59 Q59.9809 1114.59 63.3605 1117.76 Q66.7402 1120.93 66.7402 1126.35 Q66.7402 1131.93 63.268 1135.03 Q59.7958 1138.11 53.4763 1138.11 Q51.3004 1138.11 49.0319 1137.74 Q46.7866 1137.37 44.3792 1136.62 L44.3792 1131.93 Q46.4625 1133.06 48.6847 1133.62 Q50.9069 1134.17 53.3837 1134.17 Q57.3884 1134.17 59.7263 1132.06 Q62.0643 1129.96 62.0643 1126.35 Q62.0643 1122.74 59.7263 1120.63 Q57.3884 1118.52 53.3837 1118.52 Q51.5088 1118.52 49.6338 1118.94 Q47.7819 1119.36 45.8375 1120.24 L45.8375 1102.87 Z" fill="#000000" fill-rule="evenodd" fill-opacity="1" /><path clip-path="url(#clip480)" d="M 0 0 M17.8284 761.925 Q14.2173 761.925 12.3886 765.489 Q10.5831 769.031 10.5831 776.161 Q10.5831 783.267 12.3886 786.832 Q14.2173 790.373 17.8284 790.373 Q21.4626 790.373 23.2682 786.832 Q25.0969 783.267 25.0969 776.161 Q25.0969 769.031 23.2682 765.489 Q21.4626 761.925 17.8284 761.925 M17.8284 758.221 Q23.6385 758.221 26.6941 762.827 Q29.7728 767.411 29.7728 776.161 Q29.7728 784.887 26.6941 789.494 Q23.6385 794.077 17.8284 794.077 Q12.0182 794.077 8.93954 789.494 Q5.884 784.887 5.884 776.161 Q5.884 767.411 8.93954 762.827 Q12.0182 758.221 17.8284 758.221 Z" fill="#000000" fill-rule="evenodd" fill-opacity="1" /><path clip-path="url(#clip480)" d="M 0 0 M34.8422 787.526 L39.7264 787.526 L39.7264 793.406 L34.8422 793.406 L34.8422 787.526 Z" fill="#000000" fill-rule="evenodd" fill-opacity="1" /><path clip-path="url(#clip480)" d="M 0 0 M54.7958 761.925 Q51.1847 761.925 49.356 765.489 Q47.5504 769.031 47.5504 776.161 Q47.5504 783.267 49.356 786.832 Q51.1847 790.373 54.7958 790.373 Q58.43 790.373 60.2356 786.832 Q62.0643 783.267 62.0643 776.161 Q62.0643 769.031 60.2356 765.489 Q58.43 761.925 54.7958 761.925 M54.7958 758.221 Q60.6059 758.221 63.6615 762.827 Q66.7402 767.411 66.7402 776.161 Q66.7402 784.887 63.6615 789.494 Q60.6059 794.077 54.7958 794.077 Q48.9856 794.077 45.9069 789.494 Q42.8514 784.887 42.8514 776.161 Q42.8514 767.411 45.9069 762.827 Q48.9856 758.221 54.7958 758.221 Z" fill="#000000" fill-rule="evenodd" fill-opacity="1" /><path clip-path="url(#clip480)" d="M 0 0 M18.8237 417.896 Q15.2127 417.896 13.384 421.46 Q11.5784 425.002 11.5784 432.132 Q11.5784 439.238 13.384 442.803 Q15.2127 446.344 18.8237 446.344 Q22.458 446.344 24.2635 442.803 Q26.0922 439.238 26.0922 432.132 Q26.0922 425.002 24.2635 421.46 Q22.458 417.896 18.8237 417.896 M18.8237 414.192 Q24.6339 414.192 27.6894 418.798 Q30.7681 423.382 30.7681 432.132 Q30.7681 440.858 27.6894 445.465 Q24.6339 450.048 18.8237 450.048 Q13.0136 450.048 9.93491 445.465 Q6.87937 440.858 6.87937 432.132 Q6.87937 423.382 9.93491 418.798 Q13.0136 414.192 18.8237 414.192 Z" fill="#000000" fill-rule="evenodd" fill-opacity="1" /><path clip-path="url(#clip480)" d="M 0 0 M35.8375 443.497 L40.7218 443.497 L40.7218 449.377 L35.8375 449.377 L35.8375 443.497 Z" fill="#000000" fill-rule="evenodd" fill-opacity="1" /><path clip-path="url(#clip480)" d="M 0 0 M45.8375 414.817 L64.1939 414.817 L64.1939 418.752 L50.1199 418.752 L50.1199 427.224 Q51.1384 426.877 52.1569 426.715 Q53.1754 426.53 54.1939 426.53 Q59.9809 426.53 63.3605 429.701 Q66.7402 432.872 66.7402 438.289 Q66.7402 443.868 63.268 446.969 Q59.7958 450.048 53.4763 450.048 Q51.3004 450.048 49.0319 449.678 Q46.7866 449.307 44.3792 448.567 L44.3792 443.868 Q46.4625 445.002 48.6847 445.557 Q50.9069 446.113 53.3837 446.113 Q57.3884 446.113 59.7263 444.007 Q62.0643 441.9 62.0643 438.289 Q62.0643 434.678 59.7263 432.571 Q57.3884 430.465 53.3837 430.465 Q51.5088 430.465 49.6338 430.882 Q47.7819 431.298 45.8375 432.178 L45.8375 414.817 Z" fill="#000000" fill-rule="evenodd" fill-opacity="1" /><path clip-path="url(#clip480)" d="M 0 0 M9.86546 101.413 L17.5043 101.413 L17.5043 75.0472 L9.19417 76.7138 L9.19417 72.4546 L17.458 70.7879 L22.1339 70.7879 L22.1339 101.413 L29.7728 101.413 L29.7728 105.348 L9.86546 105.348 L9.86546 101.413 Z" fill="#000000" fill-rule="evenodd" fill-opacity="1" /><path clip-path="url(#clip480)" d="M 0 0 M34.8422 99.4683 L39.7264 99.4683 L39.7264 105.348 L34.8422 105.348 L34.8422 99.4683 Z" fill="#000000" fill-rule="evenodd" fill-opacity="1" /><path clip-path="url(#clip480)" d="M 0 0 M54.7958 73.8666 Q51.1847 73.8666 49.356 77.4314 Q47.5504 80.9731 47.5504 88.1027 Q47.5504 95.2091 49.356 98.7739 Q51.1847 102.316 54.7958 102.316 Q58.43 102.316 60.2356 98.7739 Q62.0643 95.2091 62.0643 88.1027 Q62.0643 80.9731 60.2356 77.4314 Q58.43 73.8666 54.7958 73.8666 M54.7958 70.1629 Q60.6059 70.1629 63.6615 74.7694 Q66.7402 79.3527 66.7402 88.1027 Q66.7402 96.8295 63.6615 101.436 Q60.6059 106.019 54.7958 106.019 Q48.9856 106.019 45.9069 101.436 Q42.8514 96.8295 42.8514 88.1027 Q42.8514 79.3527 45.9069 74.7694 Q48.9856 70.1629 54.7958 70.1629 Z" fill="#000000" fill-rule="evenodd" fill-opacity="1" /><path clip-path="url(#clip480)" d="M 0 0 M-72.8672 774.565 Q-66.5015 777.048 -64.56 779.403 Q-62.6184 781.758 -62.6184 785.705 L-62.6184 790.384 L-67.52 790.384 L-67.52 786.946 Q-67.52 784.527 -68.6658 783.191 Q-69.8117 781.854 -74.0767 780.231 L-76.7503 779.18 L-111.825 793.599 L-111.825 787.392 L-83.9435 776.252 L-111.825 765.112 L-111.825 758.905 L-72.8672 774.565 Z" fill="#000000" fill-rule="evenodd" fill-opacity="1" /><polyline clip-path="url(#clip482)" style="stroke:#009af9; stroke-width:4; stroke-opacity:1; fill:none" points="
  166.42,116.33 171.602,111.762 176.785,107.59 181.967,103.817 187.149,100.444 211.109,90.1109 235.068,88.5087 259.027,95.6578 282.986,111.467 306.946,135.736 
  330.905,168.155 354.864,208.311 378.823,255.694 407.62,321.349 436.417,395.362 465.214,476.372 494.011,562.89 542.706,717.237 591.401,874.669 644.298,1039.57 
  697.194,1188.2 721.577,1248.64 745.96,1302.85 770.343,1350.12 794.726,1389.82 820.867,1423.4 847.008,1447.16 873.149,1460.76 899.29,1464 929.577,1454.72 
  959.864,1431.64 990.151,1395.25 1020.44,1346.27 1047.35,1292.98 1074.27,1231.4 1101.18,1162.5 1128.1,1087.4 1175.31,944.395 1222.51,793.103 1273.98,627.46 
  1325.44,470.513 1351.33,397.791 1377.21,330.689 1403.1,270.203 1428.99,217.231 1457.61,168.356 1486.23,130.514 1514.85,104.39 1543.47,90.4606 1570.7,88.7605 
  1597.93,98.3576 1625.16,119.094 1652.39,150.63 1680.71,194.312 1709.02,248.331 1737.34,311.727 1765.65,383.375 1813.32,519.047 1860.99,667.63 1919.19,855.648 
  1977.39,1037.73 2004.74,1117.34 2032.1,1191.3 2059.45,1258.37 2086.8,1317.44 2108.72,1358.32 2130.63,1393.01 2152.54,1421.13 2174.45,1442.38 2196.36,1456.54 
  2218.28,1463.46 2240.19,1463.05 2262.1,1455.34 2268.84,1451.5 2275.59,1446.98 2282.33,1441.79 2289.08,1435.92 
  "/>
<path clip-path="url(#clip480)" d="
M1976.74 216.805 L2277.76 216.805 L2277.76 95.8446 L1976.74 95.8446  Z
  " fill="#ffffff" fill-rule="evenodd" fill-opacity="1"/>
<polyline clip-path="url(#clip480)" style="stroke:#000000; stroke-width:4; stroke-opacity:1; fill:none" points="
  1976.74,216.805 2277.76,216.805 2277.76,95.8446 1976.74,95.8446 1976.74,216.805 
  "/>
<polyline clip-path="url(#clip480)" style="stroke:#009af9; stroke-width:4; stroke-opacity:1; fill:none" points="
  2001.74,156.325 2151.74,156.325 
  "/>
<path clip-path="url(#clip480)" d="M 0 0 M2190.58 176.012 Q2188.77 180.642 2187.06 182.054 Q2185.35 183.466 2182.48 183.466 L2179.07 183.466 L2179.07 179.901 L2181.57 179.901 Q2183.33 179.901 2184.31 179.068 Q2185.28 178.234 2186.46 175.132 L2187.22 173.188 L2176.74 147.679 L2181.25 147.679 L2189.35 167.957 L2197.45 147.679 L2201.97 147.679 L2190.58 176.012 Z" fill="#000000" fill-rule="evenodd" fill-opacity="1" /><path clip-path="url(#clip480)" d="M 0 0 M2207.85 169.669 L2215.49 169.669 L2215.49 143.304 L2207.18 144.971 L2207.18 140.711 L2215.44 139.045 L2220.12 139.045 L2220.12 169.669 L2227.76 169.669 L2227.76 173.605 L2207.85 173.605 L2207.85 169.669 Z" fill="#000000" fill-rule="evenodd" fill-opacity="1" /></svg>
