<?xml version="1.0" encoding="utf-8"?>
<svg xmlns="http://www.w3.org/2000/svg" xmlns:xlink="http://www.w3.org/1999/xlink" width="600" height="400" viewBox="0 0 2400 1600">
<defs>
  <clipPath id="clip500">
    <rect x="0" y="0" width="2400" height="1600"/>
  </clipPath>
</defs>
<path clip-path="url(#clip500)" d="
M0 1600 L2400 1600 L2400 0 L0 0  Z
  " fill="#ffffff" fill-rule="evenodd" fill-opacity="1"/>
<defs>
  <clipPath id="clip501">
    <rect x="480" y="0" width="1681" height="1600"/>
  </clipPath>
</defs>
<path clip-path="url(#clip500)" d="
M102.74 1505.26 L2352.76 1505.26 L2352.76 47.2441 L102.74 47.2441  Z
  " fill="#ffffff" fill-rule="evenodd" fill-opacity="1"/>
<defs>
  <clipPath id="clip502">
    <rect x="102" y="47" width="2251" height="1459"/>
  </clipPath>
</defs>
<polyline clip-path="url(#clip502)" style="stroke:#000000; stroke-width:2; stroke-opacity:0.1; fill:none" points="
  378.685,1505.26 378.685,47.2441 
  "/>
<polyline clip-path="url(#clip502)" style="stroke:#000000; stroke-width:2; stroke-opacity:0.1; fill:none" points="
  803.217,1505.26 803.217,47.2441 
  "/>
<polyline clip-path="url(#clip502)" style="stroke:#000000; stroke-width:2; stroke-opacity:0.1; fill:none" points="
  1227.75,1505.26 1227.75,47.2441 
  "/>
<polyline clip-path="url(#clip502)" style="stroke:#000000; stroke-width:2; stroke-opacity:0.1; fill:none" points="
  1652.28,1505.26 1652.28,47.2441 
  "/>
<polyline clip-path="url(#clip502)" style="stroke:#000000; stroke-width:2; stroke-opacity:0.1; fill:none" points="
  2076.81,1505.26 2076.81,47.2441 
  "/>
<polyline clip-path="url(#clip500)" style="stroke:#000000; stroke-width:4; stroke-opacity:1; fill:none" points="
  102.74,1505.26 2352.76,1505.26 
  "/>
<polyline clip-path="url(#clip500)" style="stroke:#000000; stroke-width:4; stroke-opacity:1; fill:none" points="
  378.685,1505.26 378.685,1487.76 
  "/>
<polyline clip-path="url(#clip500)" style="stroke:#000000; stroke-width:4; stroke-opacity:1; fill:none" points="
  803.217,1505.26 803.217,1487.76 
  "/>
<polyline clip-path="url(#clip500)" style="stroke:#000000; stroke-width:4; stroke-opacity:1; fill:none" points="
  1227.75,1505.26 1227.75,1487.76 
  "/>
<polyline clip-path="url(#clip500)" style="stroke:#000000; stroke-width:4; stroke-opacity:1; fill:none" points="
  1652.28,1505.26 1652.28,1487.76 
  "/>
<polyline clip-path="url(#clip500)" style="stroke:#000000; stroke-width:4; stroke-opacity:1; fill:none" points="
  2076.81,1505.26 2076.81,1487.76 
  "/>
<path clip-path="url(#clip500)" d="M 0 0 M347.586 1549.1 L377.262 1549.1 L377.262 1553.04 L347.586 1553.04 L347.586 1549.1 Z" fill="#000000" fill-rule="evenodd" fill-opacity="1" /><path clip-path="url(#clip500)" d="M 0 0 M400.202 1535.45 L388.396 1553.89 L400.202 1553.89 L400.202 1535.45 M398.975 1531.37 L404.854 1531.37 L404.854 1553.89 L409.785 1553.89 L409.785 1557.78 L404.854 1557.78 L404.854 1565.93 L400.202 1565.93 L400.202 1557.78 L384.6 1557.78 L384.6 1553.27 L398.975 1531.37 Z" fill="#000000" fill-rule="evenodd" fill-opacity="1" /><path clip-path="url(#clip500)" d="M 0 0 M773.159 1549.1 L802.835 1549.1 L802.835 1553.04 L773.159 1553.04 L773.159 1549.1 Z" fill="#000000" fill-rule="evenodd" fill-opacity="1" /><path clip-path="url(#clip500)" d="M 0 0 M816.955 1562 L833.274 1562 L833.274 1565.93 L811.33 1565.93 L811.33 1562 Q813.992 1559.24 818.575 1554.61 Q823.182 1549.96 824.362 1548.62 Q826.608 1546.09 827.487 1544.36 Q828.39 1542.6 828.39 1540.91 Q828.39 1538.15 826.446 1536.42 Q824.525 1534.68 821.423 1534.68 Q819.224 1534.68 816.77 1535.45 Q814.339 1536.21 811.562 1537.76 L811.562 1533.04 Q814.386 1531.9 816.839 1531.33 Q819.293 1530.75 821.33 1530.75 Q826.7 1530.75 829.895 1533.43 Q833.089 1536.12 833.089 1540.61 Q833.089 1542.74 832.279 1544.66 Q831.492 1546.56 829.386 1549.15 Q828.807 1549.82 825.705 1553.04 Q822.603 1556.23 816.955 1562 Z" fill="#000000" fill-rule="evenodd" fill-opacity="1" /><path clip-path="url(#clip500)" d="M 0 0 M1227.75 1534.45 Q1224.14 1534.45 1222.31 1538.02 Q1220.5 1541.56 1220.5 1548.69 Q1220.5 1555.79 1222.31 1559.36 Q1224.14 1562.9 1227.75 1562.9 Q1231.38 1562.9 1233.19 1559.36 Q1235.02 1555.79 1235.02 1548.69 Q1235.02 1541.56 1233.19 1538.02 Q1231.38 1534.45 1227.75 1534.45 M1227.75 1530.75 Q1233.56 1530.75 1236.61 1535.35 Q1239.69 1539.94 1239.69 1548.69 Q1239.69 1557.41 1236.61 1562.02 Q1233.56 1566.6 1227.75 1566.6 Q1221.94 1566.6 1218.86 1562.02 Q1215.8 1557.41 1215.8 1548.69 Q1215.8 1539.94 1218.86 1535.35 Q1221.94 1530.75 1227.75 1530.75 Z" fill="#000000" fill-rule="evenodd" fill-opacity="1" /><path clip-path="url(#clip500)" d="M 0 0 M1646.93 1562 L1663.25 1562 L1663.25 1565.93 L1641.31 1565.93 L1641.31 1562 Q1643.97 1559.24 1648.55 1554.61 Q1653.16 1549.96 1654.34 1548.62 Q1656.58 1546.09 1657.46 1544.36 Q1658.37 1542.6 1658.37 1540.91 Q1658.37 1538.15 1656.42 1536.42 Q1654.5 1534.68 1651.4 1534.68 Q1649.2 1534.68 1646.75 1535.45 Q1644.32 1536.21 1641.54 1537.76 L1641.54 1533.04 Q1644.36 1531.9 1646.82 1531.33 Q1649.27 1530.75 1651.31 1530.75 Q1656.68 1530.75 1659.87 1533.43 Q1663.07 1536.12 1663.07 1540.61 Q1663.07 1542.74 1662.26 1544.66 Q1661.47 1546.56 1659.36 1549.15 Q1658.78 1549.82 1655.68 1553.04 Q1652.58 1556.23 1646.93 1562 Z" fill="#000000" fill-rule="evenodd" fill-opacity="1" /><path clip-path="url(#clip500)" d="M 0 0 M2079.82 1535.45 L2068.01 1553.89 L2079.82 1553.89 L2079.82 1535.45 M2078.59 1531.37 L2084.47 1531.37 L2084.47 1553.89 L2089.4 1553.89 L2089.4 1557.78 L2084.47 1557.78 L2084.47 1565.93 L2079.82 1565.93 L2079.82 1557.78 L2064.22 1557.78 L2064.22 1553.27 L2078.59 1531.37 Z" fill="#000000" fill-rule="evenodd" fill-opacity="1" /><path clip-path="url(#clip500)" d="M 0 0 M1244.36 1614.48 L1231.47 1631.82 L1245.03 1650.12 L1238.12 1650.12 L1227.75 1636.12 L1217.37 1650.12 L1210.47 1650.12 L1224.31 1631.47 L1211.64 1614.48 L1218.55 1614.48 L1228 1627.18 L1237.46 1614.48 L1244.36 1614.48 Z" fill="#000000" fill-rule="evenodd" fill-opacity="1" /><polyline clip-path="url(#clip502)" style="stroke:#000000; stroke-width:2; stroke-opacity:0.1; fill:none" points="
  102.74,1464.18 2352.76,1464.18 
  "/>
<polyline clip-path="url(#clip502)" style="stroke:#000000; stroke-width:2; stroke-opacity:0.1; fill:none" points="
  102.74,1120.15 2352.76,1120.15 
  "/>
<polyline clip-path="url(#clip502)" style="stroke:#000000; stroke-width:2; stroke-opacity:0.1; fill:none" points="
  102.74,776.126 2352.76,776.126 
  "/>
<polyline clip-path="url(#clip502)" style="stroke:#000000; stroke-width:2; stroke-opacity:0.1; fill:none" points="
  102.74,432.097 2352.76,432.097 
  "/>
<polyline clip-path="url(#clip502)" style="stroke:#000000; stroke-width:2; stroke-opacity:0.1; fill:none" points="
  102.74,88.0679 2352.76,88.0679 
  "/>
<polyline clip-path="url(#clip500)" style="stroke:#000000; stroke-width:4; stroke-opacity:1; fill:none" points="
  102.74,1505.26 102.74,47.2441 
  "/>
<polyline clip-path="url(#clip500)" style="stroke:#000000; stroke-width:4; stroke-opacity:1; fill:none" points="
  102.74,1464.18 129.74,1464.18 
  "/>
<polyline clip-path="url(#clip500)" style="stroke:#000000; stroke-width:4; stroke-opacity:1; fill:none" points="
  102.74,1120.15 129.74,1120.15 
  "/>
<polyline clip-path="url(#clip500)" style="stroke:#000000; stroke-width:4; stroke-opacity:1; fill:none" points="
  102.74,776.126 129.74,776.126 
  "/>
<polyline clip-path="url(#clip500)" style="stroke:#000000; stroke-width:4; stroke-opacity:1; fill:none" points="
  102.74,432.097 129.74,432.097 
  "/>
<polyline clip-path="url(#clip500)" style="stroke:#000000; stroke-width:4; stroke-opacity:1; fill:none" points="
  102.74,88.0679 129.74,88.0679 
  "/>
<path clip-path="url(#clip500)" d="M 0 0 M-40.2037 1464.64 L-10.5279 1464.64 L-10.5279 1468.57 L-40.2037 1468.57 L-40.2037 1464.64 Z" fill="#000000" fill-rule="evenodd" fill-opacity="1" /><path clip-path="url(#clip500)" d="M 0 0 M0.374772 1477.53 L8.01362 1477.53 L8.01362 1451.16 L-0.29652 1452.83 L-0.29652 1448.57 L7.96732 1446.9 L12.6432 1446.9 L12.6432 1477.53 L20.2821 1477.53 L20.2821 1481.46 L0.374772 1481.46 L0.374772 1477.53 Z" fill="#000000" fill-rule="evenodd" fill-opacity="1" /><path clip-path="url(#clip500)" d="M 0 0 M29.7265 1475.58 L34.6107 1475.58 L34.6107 1481.46 L29.7265 1481.46 L29.7265 1475.58 Z" fill="#000000" fill-rule="evenodd" fill-opacity="1" /><path clip-path="url(#clip500)" d="M 0 0 M54.7958 1449.98 Q51.1847 1449.98 49.356 1453.55 Q47.5504 1457.09 47.5504 1464.22 Q47.5504 1471.32 49.356 1474.89 Q51.1847 1478.43 54.7958 1478.43 Q58.43 1478.43 60.2356 1474.89 Q62.0643 1471.32 62.0643 1464.22 Q62.0643 1457.09 60.2356 1453.55 Q58.43 1449.98 54.7958 1449.98 M54.7958 1446.28 Q60.6059 1446.28 63.6615 1450.89 Q66.7402 1455.47 66.7402 1464.22 Q66.7402 1472.95 63.6615 1477.55 Q60.6059 1482.13 54.7958 1482.13 Q48.9856 1482.13 45.9069 1477.55 Q42.8514 1472.95 42.8514 1464.22 Q42.8514 1455.47 45.9069 1450.89 Q48.9856 1446.28 54.7958 1446.28 Z" fill="#000000" fill-rule="evenodd" fill-opacity="1" /><path clip-path="url(#clip500)" d="M 0 0 M-39.2083 1120.61 L-9.53258 1120.61 L-9.53258 1124.54 L-39.2083 1124.54 L-39.2083 1120.61 Z" fill="#000000" fill-rule="evenodd" fill-opacity="1" /><path clip-path="url(#clip500)" d="M 0 0 M10.5599 1105.95 Q6.94881 1105.95 5.12012 1109.52 Q3.31457 1113.06 3.31457 1120.19 Q3.31457 1127.3 5.12012 1130.86 Q6.94881 1134.4 10.5599 1134.4 Q14.1941 1134.4 15.9997 1130.86 Q17.8284 1127.3 17.8284 1120.19 Q17.8284 1113.06 15.9997 1109.52 Q14.1941 1105.95 10.5599 1105.95 M10.5599 1102.25 Q16.3701 1102.25 19.4256 1106.86 Q22.5043 1111.44 22.5043 1120.19 Q22.5043 1128.92 19.4256 1133.52 Q16.3701 1138.11 10.5599 1138.11 Q4.74975 1138.11 1.67106 1133.52 Q-1.38448 1128.92 -1.38448 1120.19 Q-1.38448 1111.44 1.67106 1106.86 Q4.74975 1102.25 10.5599 1102.25 Z" fill="#000000" fill-rule="evenodd" fill-opacity="1" /><path clip-path="url(#clip500)" d="M 0 0 M30.7218 1131.56 L35.6061 1131.56 L35.6061 1137.43 L30.7218 1137.43 L30.7218 1131.56 Z" fill="#000000" fill-rule="evenodd" fill-opacity="1" /><path clip-path="url(#clip500)" d="M 0 0 M45.8375 1102.87 L64.1939 1102.87 L64.1939 1106.81 L50.1199 1106.81 L50.1199 1115.28 Q51.1384 1114.93 52.1569 1114.77 Q53.1754 1114.59 54.1939 1114.59 Q59.9809 1114.59 63.3605 1117.76 Q66.7402 1120.93 66.7402 1126.35 Q66.7402 1131.93 63.268 1135.03 Q59.7958 1138.11 53.4763 1138.11 Q51.3004 1138.11 49.0319 1137.74 Q46.7866 1137.37 44.3792 1136.62 L44.3792 1131.93 Q46.4625 1133.06 48.6847 1133.62 Q50.9069 1134.17 53.3837 1134.17 Q57.3884 1134.17 59.7263 1132.06 Q62.0643 1129.96 62.0643 1126.35 Q62.0643 1122.74 59.7263 1120.63 Q57.3884 1118.52 53.3837 1118.52 Q51.5088 1118.52 49.6338 1118.94 Q47.7819 1119.36 45.8375 1120.24 L45.8375 1102.87 Z" fill="#000000" fill-rule="evenodd" fill-opacity="1" /><path clip-path="url(#clip500)" d="M 0 0 M9.56454 761.925 Q5.95345 761.925 4.12475 765.489 Q2.31921 769.031 2.31921 776.161 Q2.31921 783.267 4.12475 786.832 Q5.95345 790.373 9.56454 790.373 Q13.1988 790.373 15.0043 786.832 Q16.833 783.267 16.833 776.161 Q16.833 769.031 15.0043 765.489 Q13.1988 761.925 9.56454 761.925 M9.56454 758.221 Q15.3747 758.221 18.4302 762.827 Q21.5089 767.411 21.5089 776.161 Q21.5089 784.887 18.4302 789.494 Q15.3747 794.077 9.56454 794.077 Q3.75438 794.077 0.675697 789.494 Q-2.37984 784.887 -2.37984 776.161 Q-2.37984 767.411 0.675697 762.827 Q3.75438 758.221 9.56454 758.221 Z" fill="#000000" fill-rule="evenodd" fill-opacity="1" /><path clip-path="url(#clip500)" d="M 0 0 M29.7265 787.526 L34.6107 787.526 L34.6107 793.406 L29.7265 793.406 L29.7265 787.526 Z" fill="#000000" fill-rule="evenodd" fill-opacity="1" /><path clip-path="url(#clip500)" d="M 0 0 M54.7958 761.925 Q51.1847 761.925 49.356 765.489 Q47.5504 769.031 47.5504 776.161 Q47.5504 783.267 49.356 786.832 Q51.1847 790.373 54.7958 790.373 Q58.43 790.373 60.2356 786.832 Q62.0643 783.267 62.0643 776.161 Q62.0643 769.031 60.2356 765.489 Q58.43 761.925 54.7958 761.925 M54.7958 758.221 Q60.6059 758.221 63.6615 762.827 Q66.7402 767.411 66.7402 776.161 Q66.7402 784.887 63.6615 789.494 Q60.6059 794.077 54.7958 794.077 Q48.9856 794.077 45.9069 789.494 Q42.8514 784.887 42.8514 776.161 Q42.8514 767.411 45.9069 762.827 Q48.9856 758.221 54.7958 758.221 Z" fill="#000000" fill-rule="evenodd" fill-opacity="1" /><path clip-path="url(#clip500)" d="M 0 0 M10.5599 417.896 Q6.94881 417.896 5.12012 421.46 Q3.31457 425.002 3.31457 432.132 Q3.31457 439.238 5.12012 442.803 Q6.94881 446.344 10.5599 446.344 Q14.1941 446.344 15.9997 442.803 Q17.8284 439.238 17.8284 432.132 Q17.8284 425.002 15.9997 421.46 Q14.1941 417.896 10.5599 417.896 M10.5599 414.192 Q16.3701 414.192 19.4256 418.798 Q22.5043 423.382 22.5043 432.132 Q22.5043 440.858 19.4256 445.465 Q16.3701 450.048 10.5599 450.048 Q4.74975 450.048 1.67106 445.465 Q-1.38448 440.858 -1.38448 432.132 Q-1.38448 423.382 1.67106 418.798 Q4.74975 414.192 10.5599 414.192 Z" fill="#000000" fill-rule="evenodd" fill-opacity="1" /><path clip-path="url(#clip500)" d="M 0 0 M30.7218 443.497 L35.6061 443.497 L35.6061 449.377 L30.7218 449.377 L30.7218 443.497 Z" fill="#000000" fill-rule="evenodd" fill-opacity="1" /><path clip-path="url(#clip500)" d="M 0 0 M45.8375 414.817 L64.1939 414.817 L64.1939 418.752 L50.1199 418.752 L50.1199 427.224 Q51.1384 426.877 52.1569 426.715 Q53.1754 426.53 54.1939 426.53 Q59.9809 426.53 63.3605 429.701 Q66.7402 432.872 66.7402 438.289 Q66.7402 443.868 63.268 446.969 Q59.7958 450.048 53.4763 450.048 Q51.3004 450.048 49.0319 449.678 Q46.7866 449.307 44.3792 448.567 L44.3792 443.868 Q46.4625 445.002 48.6847 445.557 Q50.9069 446.113 53.3837 446.113 Q57.3884 446.113 59.7263 444.007 Q62.0643 441.9 62.0643 438.289 Q62.0643 434.678 59.7263 432.571 Q57.3884 430.465 53.3837 430.465 Q51.5088 430.465 49.6338 430.882 Q47.7819 431.298 45.8375 432.178 L45.8375 414.817 Z" fill="#000000" fill-rule="evenodd" fill-opacity="1" /><path clip-path="url(#clip500)" d="M 0 0 M0.374772 101.413 L8.01362 101.413 L8.01362 75.0472 L-0.29652 76.7138 L-0.29652 72.4546 L7.96732 70.7879 L12.6432 70.7879 L12.6432 101.413 L20.2821 101.413 L20.2821 105.348 L0.374772 105.348 L0.374772 101.413 Z" fill="#000000" fill-rule="evenodd" fill-opacity="1" /><path clip-path="url(#clip500)" d="M 0 0 M29.7265 99.4683 L34.6107 99.4683 L34.6107 105.348 L29.7265 105.348 L29.7265 99.4683 Z" fill="#000000" fill-rule="evenodd" fill-opacity="1" /><path clip-path="url(#clip500)" d="M 0 0 M54.7958 73.8666 Q51.1847 73.8666 49.356 77.4314 Q47.5504 80.9731 47.5504 88.1027 Q47.5504 95.2091 49.356 98.7739 Q51.1847 102.316 54.7958 102.316 Q58.43 102.316 60.2356 98.7739 Q62.0643 95.2091 62.0643 88.1027 Q62.0643 80.9731 60.2356 77.4314 Q58.43 73.8666 54.7958 73.8666 M54.7958 70.1629 Q60.6059 70.1629 63.6615 74.7694 Q66.7402 79.3527 66.7402 88.1027 Q66.7402 96.8295 63.6615 101.436 Q60.6059 106.019 54.7958 106.019 Q48.9856 106.019 45.9069 101.436 Q42.8514 96.8295 42.8514 88.1027 Q42.8514 79.3527 45.9069 74.7694 Q48.9856 70.1629 54.7958 70.1629 Z" fill="#000000" fill-rule="evenodd" fill-opacity="1" /><path clip-path="url(#clip500)" d="M 0 0 M-87.1495 774.565 Q-80.7838 777.048 -78.8423 779.403 Q-76.9008 781.758 -76.9008 785.705 L-76.9008 790.384 L-81.8024 790.384 L-81.8024 786.946 Q-81.8024 784.527 -82.9482 783.191 Q-84.094 781.854 -88.359 780.231 L-91.0326 779.18 L-126.108 793.599 L-126.108 787.392 L-98.2259 776.252 L-126.108 765.112 L-126.108 758.905 L-87.1495 774.565 Z" fill="#000000" fill-rule="evenodd" fill-opacity="1" /><polyline clip-path="url(#clip502)" style="stroke:#009af9; stroke-width:4; stroke-opacity:1; fill:none" points="
  166.42,116.33 171.602,111.762 176.785,107.59 181.967,103.817 187.149,100.444 211.109,90.1109 235.068,88.5087 259.027,95.6578 282.986,111.467 306.946,135.736 
  330.905,168.155 354.864,208.311 378.823,255.694 407.62,321.349 436.417,395.362 465.214,476.372 494.011,562.89 542.706,717.237 591.401,874.669 644.298,1039.57 
  697.194,1188.2 721.577,1248.64 745.96,1302.85 770.343,1350.12 794.726,1389.82 820.867,1423.4 847.008,1447.16 873.149,1460.76 899.29,1464 929.577,1454.72 
  959.864,1431.64 990.151,1395.25 1020.44,1346.27 1047.35,1292.98 1074.27,1231.4 1101.18,1162.5 1128.1,1087.4 1175.31,944.395 1222.51,793.103 1273.98,627.46 
  1325.44,470.513 1351.33,397.791 1377.21,330.689 1403.1,270.203 1428.99,217.231 1457.61,168.356 1486.23,130.514 1514.85,104.39 1543.47,90.4606 1570.7,88.7605 
  1597.93,98.3576 1625.16,119.094 1652.39,150.63 1680.71,194.312 1709.02,248.331 1737.34,311.727 1765.65,383.375 1813.32,519.047 1860.99,667.63 1919.19,855.648 
  1977.39,1037.73 2004.74,1117.34 2032.1,1191.3 2059.45,1258.37 2086.8,1317.44 2108.72,1358.32 2130.63,1393.01 2152.54,1421.13 2174.45,1442.38 2196.36,1456.54 
  2218.28,1463.46 2240.19,1463.05 2262.1,1455.34 2268.84,1451.5 2275.59,1446.98 2282.33,1441.79 2289.08,1435.92 
  "/>
<path clip-path="url(#clip500)" d="
M1975.32 216.805 L2277.76 216.805 L2277.76 95.8446 L1975.32 95.8446  Z
  " fill="#ffffff" fill-rule="evenodd" fill-opacity="1"/>
<polyline clip-path="url(#clip500)" style="stroke:#000000; stroke-width:4; stroke-opacity:1; fill:none" points="
  1975.32,216.805 2277.76,216.805 2277.76,95.8446 1975.32,95.8446 1975.32,216.805 
  "/>
<polyline clip-path="url(#clip500)" style="stroke:#009af9; stroke-width:4; stroke-opacity:1; fill:none" points="
  2000.32,156.325 2150.32,156.325 
  "/>
<path clip-path="url(#clip500)" d="M 0 0 M2189.17 176.012 Q2187.36 180.642 2185.65 182.054 Q2183.94 183.466 2181.07 183.466 L2177.66 183.466 L2177.66 179.901 L2180.16 179.901 Q2181.92 179.901 2182.89 179.068 Q2183.87 178.234 2185.05 175.132 L2185.81 173.188 L2175.32 147.679 L2179.84 147.679 L2187.94 167.957 L2196.04 147.679 L2200.56 147.679 L2189.17 176.012 Z" fill="#000000" fill-rule="evenodd" fill-opacity="1" /><path clip-path="url(#clip500)" d="M 0 0 M2207.85 169.669 L2215.49 169.669 L2215.49 143.304 L2207.18 144.971 L2207.18 140.711 L2215.44 139.045 L2220.12 139.045 L2220.12 169.669 L2227.76 169.669 L2227.76 173.605 L2207.85 173.605 L2207.85 169.669 Z" fill="#000000" fill-rule="evenodd" fill-opacity="1" /></svg>
