<?xml version="1.0" encoding="utf-8"?>
<svg xmlns="http://www.w3.org/2000/svg" xmlns:xlink="http://www.w3.org/1999/xlink" width="600" height="400" viewBox="0 0 2400 1600">
<defs>
  <clipPath id="clip460">
    <rect x="0" y="0" width="2400" height="1600"/>
  </clipPath>
</defs>
<path clip-path="url(#clip460)" d="
M0 1600 L2400 1600 L2400 0 L0 0  Z
  " fill="#ffffff" fill-rule="evenodd" fill-opacity="1"/>
<defs>
  <clipPath id="clip461">
    <rect x="480" y="0" width="1681" height="1600"/>
  </clipPath>
</defs>
<path clip-path="url(#clip460)" d="
M361.456 1318.93 L2352.76 1318.93 L2352.76 47.2441 L361.456 47.2441  Z
  " fill="#ffffff" fill-rule="evenodd" fill-opacity="1"/>
<defs>
  <clipPath id="clip462">
    <rect x="361" y="47" width="1992" height="1273"/>
  </clipPath>
</defs>
<polyline clip-path="url(#clip462)" style="stroke:#000000; stroke-linecap:round; stroke-linejoin:round; stroke-width:2; stroke-opacity:0.1; fill:none" points="
  605.672,1318.93 605.672,47.2441 
  "/>
<polyline clip-path="url(#clip462)" style="stroke:#000000; stroke-linecap:round; stroke-linejoin:round; stroke-width:2; stroke-opacity:0.1; fill:none" points="
  981.389,1318.93 981.389,47.2441 
  "/>
<polyline clip-path="url(#clip462)" style="stroke:#000000; stroke-linecap:round; stroke-linejoin:round; stroke-width:2; stroke-opacity:0.1; fill:none" points="
  1357.11,1318.93 1357.11,47.2441 
  "/>
<polyline clip-path="url(#clip462)" style="stroke:#000000; stroke-linecap:round; stroke-linejoin:round; stroke-width:2; stroke-opacity:0.1; fill:none" points="
  1732.82,1318.93 1732.82,47.2441 
  "/>
<polyline clip-path="url(#clip462)" style="stroke:#000000; stroke-linecap:round; stroke-linejoin:round; stroke-width:2; stroke-opacity:0.1; fill:none" points="
  2108.54,1318.93 2108.54,47.2441 
  "/>
<polyline clip-path="url(#clip460)" style="stroke:#000000; stroke-linecap:round; stroke-linejoin:round; stroke-width:4; stroke-opacity:1; fill:none" points="
  361.456,1318.93 2352.76,1318.93 
  "/>
<polyline clip-path="url(#clip460)" style="stroke:#000000; stroke-linecap:round; stroke-linejoin:round; stroke-width:4; stroke-opacity:1; fill:none" points="
  605.672,1318.93 605.672,1300.03 
  "/>
<polyline clip-path="url(#clip460)" style="stroke:#000000; stroke-linecap:round; stroke-linejoin:round; stroke-width:4; stroke-opacity:1; fill:none" points="
  981.389,1318.93 981.389,1300.03 
  "/>
<polyline clip-path="url(#clip460)" style="stroke:#000000; stroke-linecap:round; stroke-linejoin:round; stroke-width:4; stroke-opacity:1; fill:none" points="
  1357.11,1318.93 1357.11,1300.03 
  "/>
<polyline clip-path="url(#clip460)" style="stroke:#000000; stroke-linecap:round; stroke-linejoin:round; stroke-width:4; stroke-opacity:1; fill:none" points="
  1732.82,1318.93 1732.82,1300.03 
  "/>
<polyline clip-path="url(#clip460)" style="stroke:#000000; stroke-linecap:round; stroke-linejoin:round; stroke-width:4; stroke-opacity:1; fill:none" points="
  2108.54,1318.93 2108.54,1300.03 
  "/>
<path clip-path="url(#clip460)" d="M574.573 1364.5 L604.248 1364.5 L604.248 1368.43 L574.573 1368.43 L574.573 1364.5 Z" fill="#000000" fill-rule="evenodd" fill-opacity="1" /><path clip-path="url(#clip460)" d="M627.188 1350.84 L615.383 1369.29 L627.188 1369.29 L627.188 1350.84 M625.961 1346.77 L631.841 1346.77 L631.841 1369.29 L636.771 1369.29 L636.771 1373.18 L631.841 1373.18 L631.841 1381.33 L627.188 1381.33 L627.188 1373.18 L611.586 1373.18 L611.586 1368.67 L625.961 1346.77 Z" fill="#000000" fill-rule="evenodd" fill-opacity="1" /><path clip-path="url(#clip460)" d="M951.331 1364.5 L981.007 1364.5 L981.007 1368.43 L951.331 1368.43 L951.331 1364.5 Z" fill="#000000" fill-rule="evenodd" fill-opacity="1" /><path clip-path="url(#clip460)" d="M995.127 1377.39 L1011.45 1377.39 L1011.45 1381.33 L989.502 1381.33 L989.502 1377.39 Q992.164 1374.64 996.748 1370.01 Q1001.35 1365.36 1002.53 1364.01 Q1004.78 1361.49 1005.66 1359.75 Q1006.56 1357.99 1006.56 1356.3 Q1006.56 1353.55 1004.62 1351.81 Q1002.7 1350.08 999.595 1350.08 Q997.396 1350.08 994.942 1350.84 Q992.512 1351.61 989.734 1353.16 L989.734 1348.43 Q992.558 1347.3 995.012 1346.72 Q997.465 1346.14 999.502 1346.14 Q1004.87 1346.14 1008.07 1348.83 Q1011.26 1351.51 1011.26 1356 Q1011.26 1358.13 1010.45 1360.05 Q1009.66 1361.95 1007.56 1364.55 Q1006.98 1365.22 1003.88 1368.43 Q1000.78 1371.63 995.127 1377.39 Z" fill="#000000" fill-rule="evenodd" fill-opacity="1" /><path clip-path="url(#clip460)" d="M1357.11 1349.85 Q1353.49 1349.85 1351.67 1353.41 Q1349.86 1356.95 1349.86 1364.08 Q1349.86 1371.19 1351.67 1374.75 Q1353.49 1378.3 1357.11 1378.3 Q1360.74 1378.3 1362.55 1374.75 Q1364.37 1371.19 1364.37 1364.08 Q1364.37 1356.95 1362.55 1353.41 Q1360.74 1349.85 1357.11 1349.85 M1357.11 1346.14 Q1362.92 1346.14 1365.97 1350.75 Q1369.05 1355.33 1369.05 1364.08 Q1369.05 1372.81 1365.97 1377.42 Q1362.92 1382 1357.11 1382 Q1351.3 1382 1348.22 1377.42 Q1345.16 1372.81 1345.16 1364.08 Q1345.16 1355.33 1348.22 1350.75 Q1351.3 1346.14 1357.11 1346.14 Z" fill="#000000" fill-rule="evenodd" fill-opacity="1" /><path clip-path="url(#clip460)" d="M1727.48 1377.39 L1743.8 1377.39 L1743.8 1381.33 L1721.85 1381.33 L1721.85 1377.39 Q1724.51 1374.64 1729.1 1370.01 Q1733.7 1365.36 1734.88 1364.01 Q1737.13 1361.49 1738.01 1359.75 Q1738.91 1357.99 1738.91 1356.3 Q1738.91 1353.55 1736.97 1351.81 Q1735.05 1350.08 1731.94 1350.08 Q1729.74 1350.08 1727.29 1350.84 Q1724.86 1351.61 1722.08 1353.16 L1722.08 1348.43 Q1724.91 1347.3 1727.36 1346.72 Q1729.81 1346.14 1731.85 1346.14 Q1737.22 1346.14 1740.42 1348.83 Q1743.61 1351.51 1743.61 1356 Q1743.61 1358.13 1742.8 1360.05 Q1742.01 1361.95 1739.91 1364.55 Q1739.33 1365.22 1736.23 1368.43 Q1733.12 1371.63 1727.48 1377.39 Z" fill="#000000" fill-rule="evenodd" fill-opacity="1" /><path clip-path="url(#clip460)" d="M2111.55 1350.84 L2099.74 1369.29 L2111.55 1369.29 L2111.55 1350.84 M2110.32 1346.77 L2116.2 1346.77 L2116.2 1369.29 L2121.13 1369.29 L2121.13 1373.18 L2116.2 1373.18 L2116.2 1381.33 L2111.55 1381.33 L2111.55 1373.18 L2095.95 1373.18 L2095.95 1368.67 L2110.32 1346.77 Z" fill="#000000" fill-rule="evenodd" fill-opacity="1" /><path clip-path="url(#clip460)" d="M1373.72 1428.14 L1360.83 1445.49 L1374.39 1463.79 L1367.48 1463.79 L1357.11 1449.79 L1346.73 1463.79 L1339.82 1463.79 L1353.67 1445.14 L1341 1428.14 L1347.91 1428.14 L1357.36 1440.84 L1366.81 1428.14 L1373.72 1428.14 Z" fill="#000000" fill-rule="evenodd" fill-opacity="1" /><polyline clip-path="url(#clip462)" style="stroke:#000000; stroke-linecap:round; stroke-linejoin:round; stroke-width:2; stroke-opacity:0.1; fill:none" points="
  361.456,1282.96 2352.76,1282.96 
  "/>
<polyline clip-path="url(#clip462)" style="stroke:#000000; stroke-linecap:round; stroke-linejoin:round; stroke-width:2; stroke-opacity:0.1; fill:none" points="
  361.456,983.028 2352.76,983.028 
  "/>
<polyline clip-path="url(#clip462)" style="stroke:#000000; stroke-linecap:round; stroke-linejoin:round; stroke-width:2; stroke-opacity:0.1; fill:none" points="
  361.456,683.096 2352.76,683.096 
  "/>
<polyline clip-path="url(#clip462)" style="stroke:#000000; stroke-linecap:round; stroke-linejoin:round; stroke-width:2; stroke-opacity:0.1; fill:none" points="
  361.456,383.164 2352.76,383.164 
  "/>
<polyline clip-path="url(#clip462)" style="stroke:#000000; stroke-linecap:round; stroke-linejoin:round; stroke-width:2; stroke-opacity:0.1; fill:none" points="
  361.456,83.232 2352.76,83.232 
  "/>
<polyline clip-path="url(#clip460)" style="stroke:#000000; stroke-linecap:round; stroke-linejoin:round; stroke-width:4; stroke-opacity:1; fill:none" points="
  361.456,1318.93 361.456,47.2441 
  "/>
<polyline clip-path="url(#clip460)" style="stroke:#000000; stroke-linecap:round; stroke-linejoin:round; stroke-width:4; stroke-opacity:1; fill:none" points="
  361.456,1282.96 380.354,1282.96 
  "/>
<polyline clip-path="url(#clip460)" style="stroke:#000000; stroke-linecap:round; stroke-linejoin:round; stroke-width:4; stroke-opacity:1; fill:none" points="
  361.456,983.028 380.354,983.028 
  "/>
<polyline clip-path="url(#clip460)" style="stroke:#000000; stroke-linecap:round; stroke-linejoin:round; stroke-width:4; stroke-opacity:1; fill:none" points="
  361.456,683.096 380.354,683.096 
  "/>
<polyline clip-path="url(#clip460)" style="stroke:#000000; stroke-linecap:round; stroke-linejoin:round; stroke-width:4; stroke-opacity:1; fill:none" points="
  361.456,383.164 380.354,383.164 
  "/>
<polyline clip-path="url(#clip460)" style="stroke:#000000; stroke-linecap:round; stroke-linejoin:round; stroke-width:4; stroke-opacity:1; fill:none" points="
  361.456,83.232 380.354,83.232 
  "/>
<path clip-path="url(#clip460)" d="M218.512 1283.41 L248.188 1283.41 L248.188 1287.35 L218.512 1287.35 L218.512 1283.41 Z" fill="#000000" fill-rule="evenodd" fill-opacity="1" /><path clip-path="url(#clip460)" d="M259.091 1296.31 L266.729 1296.31 L266.729 1269.94 L258.419 1271.61 L258.419 1267.35 L266.683 1265.68 L271.359 1265.68 L271.359 1296.31 L278.998 1296.31 L278.998 1300.24 L259.091 1300.24 L259.091 1296.31 Z" fill="#000000" fill-rule="evenodd" fill-opacity="1" /><path clip-path="url(#clip460)" d="M288.442 1294.36 L293.327 1294.36 L293.327 1300.24 L288.442 1300.24 L288.442 1294.36 Z" fill="#000000" fill-rule="evenodd" fill-opacity="1" /><path clip-path="url(#clip460)" d="M313.512 1268.76 Q309.901 1268.76 308.072 1272.32 Q306.266 1275.87 306.266 1283 Q306.266 1290.1 308.072 1293.67 Q309.901 1297.21 313.512 1297.21 Q317.146 1297.21 318.951 1293.67 Q320.78 1290.1 320.78 1283 Q320.78 1275.87 318.951 1272.32 Q317.146 1268.76 313.512 1268.76 M313.512 1265.06 Q319.322 1265.06 322.377 1269.66 Q325.456 1274.25 325.456 1283 Q325.456 1291.72 322.377 1296.33 Q319.322 1300.91 313.512 1300.91 Q307.701 1300.91 304.623 1296.33 Q301.567 1291.72 301.567 1283 Q301.567 1274.25 304.623 1269.66 Q307.701 1265.06 313.512 1265.06 Z" fill="#000000" fill-rule="evenodd" fill-opacity="1" /><path clip-path="url(#clip460)" d="M219.507 983.48 L249.183 983.48 L249.183 987.415 L219.507 987.415 L219.507 983.48 Z" fill="#000000" fill-rule="evenodd" fill-opacity="1" /><path clip-path="url(#clip460)" d="M269.276 968.827 Q265.665 968.827 263.836 972.392 Q262.03 975.934 262.03 983.063 Q262.03 990.17 263.836 993.734 Q265.665 997.276 269.276 997.276 Q272.91 997.276 274.716 993.734 Q276.544 990.17 276.544 983.063 Q276.544 975.934 274.716 972.392 Q272.91 968.827 269.276 968.827 M269.276 965.123 Q275.086 965.123 278.141 969.73 Q281.22 974.313 281.22 983.063 Q281.22 991.79 278.141 996.396 Q275.086 1000.98 269.276 1000.98 Q263.466 1000.98 260.387 996.396 Q257.331 991.79 257.331 983.063 Q257.331 974.313 260.387 969.73 Q263.466 965.123 269.276 965.123 Z" fill="#000000" fill-rule="evenodd" fill-opacity="1" /><path clip-path="url(#clip460)" d="M289.438 994.429 L294.322 994.429 L294.322 1000.31 L289.438 1000.31 L289.438 994.429 Z" fill="#000000" fill-rule="evenodd" fill-opacity="1" /><path clip-path="url(#clip460)" d="M304.553 965.748 L322.91 965.748 L322.91 969.684 L308.836 969.684 L308.836 978.156 Q309.854 977.809 310.873 977.647 Q311.891 977.461 312.91 977.461 Q318.697 977.461 322.076 980.633 Q325.456 983.804 325.456 989.221 Q325.456 994.799 321.984 997.901 Q318.512 1000.98 312.192 1000.98 Q310.016 1000.98 307.748 1000.61 Q305.502 1000.24 303.095 999.498 L303.095 994.799 Q305.178 995.933 307.401 996.489 Q309.623 997.045 312.1 997.045 Q316.104 997.045 318.442 994.938 Q320.78 992.832 320.78 989.221 Q320.78 985.609 318.442 983.503 Q316.104 981.397 312.1 981.397 Q310.225 981.397 308.35 981.813 Q306.498 982.23 304.553 983.109 L304.553 965.748 Z" fill="#000000" fill-rule="evenodd" fill-opacity="1" /><path clip-path="url(#clip460)" d="M268.28 668.895 Q264.669 668.895 262.841 672.46 Q261.035 676.001 261.035 683.131 Q261.035 690.237 262.841 693.802 Q264.669 697.344 268.28 697.344 Q271.915 697.344 273.72 693.802 Q275.549 690.237 275.549 683.131 Q275.549 676.001 273.72 672.46 Q271.915 668.895 268.28 668.895 M268.28 665.191 Q274.091 665.191 277.146 669.798 Q280.225 674.381 280.225 683.131 Q280.225 691.858 277.146 696.464 Q274.091 701.048 268.28 701.048 Q262.47 701.048 259.392 696.464 Q256.336 691.858 256.336 683.131 Q256.336 674.381 259.392 669.798 Q262.47 665.191 268.28 665.191 Z" fill="#000000" fill-rule="evenodd" fill-opacity="1" /><path clip-path="url(#clip460)" d="M288.442 694.497 L293.327 694.497 L293.327 700.376 L288.442 700.376 L288.442 694.497 Z" fill="#000000" fill-rule="evenodd" fill-opacity="1" /><path clip-path="url(#clip460)" d="M313.512 668.895 Q309.901 668.895 308.072 672.46 Q306.266 676.001 306.266 683.131 Q306.266 690.237 308.072 693.802 Q309.901 697.344 313.512 697.344 Q317.146 697.344 318.951 693.802 Q320.78 690.237 320.78 683.131 Q320.78 676.001 318.951 672.46 Q317.146 668.895 313.512 668.895 M313.512 665.191 Q319.322 665.191 322.377 669.798 Q325.456 674.381 325.456 683.131 Q325.456 691.858 322.377 696.464 Q319.322 701.048 313.512 701.048 Q307.701 701.048 304.623 696.464 Q301.567 691.858 301.567 683.131 Q301.567 674.381 304.623 669.798 Q307.701 665.191 313.512 665.191 Z" fill="#000000" fill-rule="evenodd" fill-opacity="1" /><path clip-path="url(#clip460)" d="M269.276 368.963 Q265.665 368.963 263.836 372.528 Q262.03 376.069 262.03 383.199 Q262.03 390.305 263.836 393.87 Q265.665 397.412 269.276 397.412 Q272.91 397.412 274.716 393.87 Q276.544 390.305 276.544 383.199 Q276.544 376.069 274.716 372.528 Q272.91 368.963 269.276 368.963 M269.276 365.259 Q275.086 365.259 278.141 369.866 Q281.22 374.449 281.22 383.199 Q281.22 391.926 278.141 396.532 Q275.086 401.115 269.276 401.115 Q263.466 401.115 260.387 396.532 Q257.331 391.926 257.331 383.199 Q257.331 374.449 260.387 369.866 Q263.466 365.259 269.276 365.259 Z" fill="#000000" fill-rule="evenodd" fill-opacity="1" /><path clip-path="url(#clip460)" d="M289.438 394.565 L294.322 394.565 L294.322 400.444 L289.438 400.444 L289.438 394.565 Z" fill="#000000" fill-rule="evenodd" fill-opacity="1" /><path clip-path="url(#clip460)" d="M304.553 365.884 L322.91 365.884 L322.91 369.819 L308.836 369.819 L308.836 378.291 Q309.854 377.944 310.873 377.782 Q311.891 377.597 312.91 377.597 Q318.697 377.597 322.076 380.768 Q325.456 383.94 325.456 389.356 Q325.456 394.935 321.984 398.037 Q318.512 401.115 312.192 401.115 Q310.016 401.115 307.748 400.745 Q305.502 400.375 303.095 399.634 L303.095 394.935 Q305.178 396.069 307.401 396.625 Q309.623 397.18 312.1 397.18 Q316.104 397.18 318.442 395.074 Q320.78 392.967 320.78 389.356 Q320.78 385.745 318.442 383.639 Q316.104 381.532 312.1 381.532 Q310.225 381.532 308.35 381.949 Q306.498 382.366 304.553 383.245 L304.553 365.884 Z" fill="#000000" fill-rule="evenodd" fill-opacity="1" /><path clip-path="url(#clip460)" d="M259.091 96.5768 L266.729 96.5768 L266.729 70.2112 L258.419 71.8779 L258.419 67.6186 L266.683 65.952 L271.359 65.952 L271.359 96.5768 L278.998 96.5768 L278.998 100.512 L259.091 100.512 L259.091 96.5768 Z" fill="#000000" fill-rule="evenodd" fill-opacity="1" /><path clip-path="url(#clip460)" d="M288.442 94.6324 L293.327 94.6324 L293.327 100.512 L288.442 100.512 L288.442 94.6324 Z" fill="#000000" fill-rule="evenodd" fill-opacity="1" /><path clip-path="url(#clip460)" d="M313.512 69.0307 Q309.901 69.0307 308.072 72.5955 Q306.266 76.1371 306.266 83.2667 Q306.266 90.3732 308.072 93.938 Q309.901 97.4796 313.512 97.4796 Q317.146 97.4796 318.951 93.938 Q320.78 90.3732 320.78 83.2667 Q320.78 76.1371 318.951 72.5955 Q317.146 69.0307 313.512 69.0307 M313.512 65.327 Q319.322 65.327 322.377 69.9335 Q325.456 74.5168 325.456 83.2667 Q325.456 91.9935 322.377 96.6 Q319.322 101.183 313.512 101.183 Q307.701 101.183 304.623 96.6 Q301.567 91.9935 301.567 83.2667 Q301.567 74.5168 304.623 69.9335 Q307.701 65.327 313.512 65.327 Z" fill="#000000" fill-rule="evenodd" fill-opacity="1" /><path clip-path="url(#clip460)" d="M171.566 681.399 Q177.932 683.882 179.874 686.237 Q181.815 688.592 181.815 692.539 L181.815 697.218 L176.913 697.218 L176.913 693.78 Q176.913 691.361 175.768 690.025 Q174.622 688.688 170.357 687.065 L167.683 686.014 L132.608 700.433 L132.608 694.226 L160.49 683.086 L132.608 671.946 L132.608 665.739 L171.566 681.399 Z" fill="#000000" fill-rule="evenodd" fill-opacity="1" /><polyline clip-path="url(#clip462)" style="stroke:#009af9; stroke-linecap:round; stroke-linejoin:round; stroke-width:4; stroke-opacity:1; fill:none" points="
  417.814,107.872 420.871,105.179 423.929,102.638 426.987,100.252 430.044,98.0201 444.18,89.7241 458.317,84.7865 465.385,83.5865 472.453,83.2351 479.521,83.7328 
  486.589,85.0789 493.657,87.2714 500.725,90.3073 507.793,94.1822 514.861,98.8907 528.998,110.781 543.134,125.91 551.629,136.525 560.124,148.258 568.62,161.084 
  577.115,174.978 585.61,189.91 594.105,205.851 602.601,222.768 611.096,240.626 625.461,272.862 639.827,307.495 654.192,344.324 668.557,383.132 684.162,427.268 
  699.767,473.169 715.371,520.516 730.976,568.985 759.748,660.166 788.521,751.884 803.944,800.523 819.368,848.37 834.791,895.104 850.215,940.409 868.085,990.713 
  885.954,1038.24 894.889,1060.82 903.824,1082.55 912.759,1103.37 921.693,1123.25 929.634,1140.07 937.574,1156.09 945.514,1171.25 953.454,1185.55 961.395,1198.95 
  969.335,1211.42 977.275,1222.95 985.215,1233.52 999.141,1249.67 1013.07,1262.71 1026.99,1272.56 1040.92,1279.18 1048.51,1281.41 1056.1,1282.66 1063.69,1282.94 
  1071.28,1282.23 1078.87,1280.55 1086.47,1277.89 1094.06,1274.26 1101.65,1269.66 1109.29,1264.07 1116.92,1257.52 1124.56,1250.03 1132.2,1241.59 1147.47,1221.97 
  1162.74,1198.79 1171.18,1184.5 1179.63,1169.2 1188.07,1152.91 1196.51,1135.68 1204.96,1117.53 1213.4,1098.51 1221.84,1078.65 1230.29,1057.99 1246.35,1016.62 
  1262.42,972.806 1278.49,926.877 1294.55,879.167 1327.96,775.776 1361.38,669.461 1389.5,580.162 1417.63,493.167 1434.8,442.029 1451.97,392.903 1469.13,346.2 
  1486.3,302.308 1494.17,283.244 1502.03,264.882 1509.9,247.251 1517.76,230.385 1533.49,199.059 1549.21,171.125 1556.48,159.424 1563.74,148.507 1571,138.388 
  1578.27,129.083 1585.53,120.607 1592.79,112.971 1600.06,106.187 1607.32,100.265 1614.68,95.1552 1622.03,90.9465 1629.39,87.646 1636.75,85.2586 1644.1,83.788 
  1651.46,83.2365 1658.82,83.605 1666.18,84.8928 1674.42,87.4261 1682.67,91.1067 1690.91,95.9275 1699.16,101.879 1707.4,108.951 1715.65,117.128 1723.89,126.395 
  1732.14,136.735 1747.08,158.14 1762.02,182.865 1769.5,196.425 1776.97,210.754 1784.44,225.83 1791.91,241.63 1800.46,260.575 1809.02,280.396 1817.57,301.052 
  1826.13,322.5 1843.24,367.593 1860.35,415.301 1876.19,461.463 1892.03,509.199 1907.87,558.171 1923.71,608.032 1954.95,707.567 1986.18,806.428 2001.35,853.36 
  2016.51,899.183 2031.67,943.599 2046.84,986.319 2062.38,1028.06 2077.92,1067.44 2093.47,1104.19 2109.01,1138.06 2117.53,1155.31 2126.04,1171.59 2134.56,1186.86 
  2143.07,1201.1 2151.59,1214.28 2160.11,1226.36 2168.62,1237.33 2177.14,1247.16 2189.51,1259.37 2201.88,1269.08 2214.25,1276.25 2226.62,1280.85 2238.99,1282.86 
  2251.36,1282.27 2263.73,1279.09 2276.1,1273.32 2281.17,1270.21 2286.25,1266.67 2291.32,1262.71 2296.4,1258.32 
  "/>
<path clip-path="url(#clip460)" d="
M2012.69 193.314 L2286.38 193.314 L2286.38 89.6336 L2012.69 89.6336  Z
  " fill="#ffffff" fill-rule="evenodd" fill-opacity="1"/>
<polyline clip-path="url(#clip460)" style="stroke:#000000; stroke-linecap:round; stroke-linejoin:round; stroke-width:4; stroke-opacity:1; fill:none" points="
  2012.69,193.314 2286.38,193.314 2286.38,89.6336 2012.69,89.6336 2012.69,193.314 
  "/>
<polyline clip-path="url(#clip460)" style="stroke:#009af9; stroke-linecap:round; stroke-linejoin:round; stroke-width:4; stroke-opacity:1; fill:none" points="
  2034.82,141.474 2167.57,141.474 
  "/>
<path clip-path="url(#clip460)" d="M2203.54 161.161 Q2201.73 165.791 2200.02 167.203 Q2198.31 168.615 2195.44 168.615 L2192.04 168.615 L2192.04 165.05 L2194.54 165.05 Q2196.3 165.05 2197.27 164.216 Q2198.24 163.383 2199.42 160.281 L2200.18 158.337 L2189.7 132.828 L2194.21 132.828 L2202.31 153.105 L2210.42 132.828 L2214.93 132.828 L2203.54 161.161 Z" fill="#000000" fill-rule="evenodd" fill-opacity="1" /><path clip-path="url(#clip460)" d="M2222.22 154.818 L2229.86 154.818 L2229.86 128.453 L2221.55 130.119 L2221.55 125.86 L2229.81 124.194 L2234.49 124.194 L2234.49 154.818 L2242.13 154.818 L2242.13 158.754 L2222.22 158.754 L2222.22 154.818 Z" fill="#000000" fill-rule="evenodd" fill-opacity="1" /></svg>
