<?xml version="1.0" encoding="utf-8"?>
<svg xmlns="http://www.w3.org/2000/svg" xmlns:xlink="http://www.w3.org/1999/xlink" width="600" height="400" viewBox="0 0 2400 1600">
<defs>
  <clipPath id="clip260">
    <rect x="0" y="0" width="2400" height="1600"/>
  </clipPath>
</defs>
<path clip-path="url(#clip260)" d="
M0 1600 L2400 1600 L2400 0 L0 0  Z
  " fill="#ffffff" fill-rule="evenodd" fill-opacity="1"/>
<defs>
  <clipPath id="clip261">
    <rect x="480" y="0" width="1681" height="1600"/>
  </clipPath>
</defs>
<path clip-path="url(#clip260)" d="
M361.456 1318.93 L2352.76 1318.93 L2352.76 47.2441 L361.456 47.2441  Z
  " fill="#ffffff" fill-rule="evenodd" fill-opacity="1"/>
<defs>
  <clipPath id="clip262">
    <rect x="361" y="47" width="1992" height="1273"/>
  </clipPath>
</defs>
<polyline clip-path="url(#clip262)" style="stroke:#000000; stroke-linecap:butt; stroke-linejoin:round; stroke-width:2; stroke-opacity:0.1; fill:none" points="
  605.672,1318.93 605.672,47.2441 
  "/>
<polyline clip-path="url(#clip262)" style="stroke:#000000; stroke-linecap:butt; stroke-linejoin:round; stroke-width:2; stroke-opacity:0.1; fill:none" points="
  981.389,1318.93 981.389,47.2441 
  "/>
<polyline clip-path="url(#clip262)" style="stroke:#000000; stroke-linecap:butt; stroke-linejoin:round; stroke-width:2; stroke-opacity:0.1; fill:none" points="
  1357.11,1318.93 1357.11,47.2441 
  "/>
<polyline clip-path="url(#clip262)" style="stroke:#000000; stroke-linecap:butt; stroke-linejoin:round; stroke-width:2; stroke-opacity:0.1; fill:none" points="
  1732.82,1318.93 1732.82,47.2441 
  "/>
<polyline clip-path="url(#clip262)" style="stroke:#000000; stroke-linecap:butt; stroke-linejoin:round; stroke-width:2; stroke-opacity:0.1; fill:none" points="
  2108.54,1318.93 2108.54,47.2441 
  "/>
<polyline clip-path="url(#clip260)" style="stroke:#000000; stroke-linecap:butt; stroke-linejoin:round; stroke-width:4; stroke-opacity:1; fill:none" points="
  361.456,1318.93 2352.76,1318.93 
  "/>
<polyline clip-path="url(#clip260)" style="stroke:#000000; stroke-linecap:butt; stroke-linejoin:round; stroke-width:4; stroke-opacity:1; fill:none" points="
  605.672,1318.93 605.672,1300.03 
  "/>
<polyline clip-path="url(#clip260)" style="stroke:#000000; stroke-linecap:butt; stroke-linejoin:round; stroke-width:4; stroke-opacity:1; fill:none" points="
  981.389,1318.93 981.389,1300.03 
  "/>
<polyline clip-path="url(#clip260)" style="stroke:#000000; stroke-linecap:butt; stroke-linejoin:round; stroke-width:4; stroke-opacity:1; fill:none" points="
  1357.11,1318.93 1357.11,1300.03 
  "/>
<polyline clip-path="url(#clip260)" style="stroke:#000000; stroke-linecap:butt; stroke-linejoin:round; stroke-width:4; stroke-opacity:1; fill:none" points="
  1732.82,1318.93 1732.82,1300.03 
  "/>
<polyline clip-path="url(#clip260)" style="stroke:#000000; stroke-linecap:butt; stroke-linejoin:round; stroke-width:4; stroke-opacity:1; fill:none" points="
  2108.54,1318.93 2108.54,1300.03 
  "/>
<path clip-path="url(#clip260)" d="M574.573 1364.5 L604.248 1364.5 L604.248 1368.43 L574.573 1368.43 L574.573 1364.5 Z" fill="#000000" fill-rule="evenodd" fill-opacity="1" /><path clip-path="url(#clip260)" d="M627.188 1350.84 L615.383 1369.29 L627.188 1369.29 L627.188 1350.84 M625.961 1346.77 L631.841 1346.77 L631.841 1369.29 L636.771 1369.29 L636.771 1373.18 L631.841 1373.18 L631.841 1381.33 L627.188 1381.33 L627.188 1373.18 L611.586 1373.18 L611.586 1368.67 L625.961 1346.77 Z" fill="#000000" fill-rule="evenodd" fill-opacity="1" /><path clip-path="url(#clip260)" d="M951.331 1364.5 L981.007 1364.5 L981.007 1368.43 L951.331 1368.43 L951.331 1364.5 Z" fill="#000000" fill-rule="evenodd" fill-opacity="1" /><path clip-path="url(#clip260)" d="M995.127 1377.39 L1011.45 1377.39 L1011.45 1381.33 L989.502 1381.33 L989.502 1377.39 Q992.164 1374.64 996.748 1370.01 Q1001.35 1365.36 1002.53 1364.01 Q1004.78 1361.49 1005.66 1359.75 Q1006.56 1357.99 1006.56 1356.3 Q1006.56 1353.55 1004.62 1351.81 Q1002.7 1350.08 999.595 1350.08 Q997.396 1350.08 994.942 1350.84 Q992.512 1351.61 989.734 1353.16 L989.734 1348.43 Q992.558 1347.3 995.012 1346.72 Q997.465 1346.14 999.502 1346.14 Q1004.87 1346.14 1008.07 1348.83 Q1011.26 1351.51 1011.26 1356 Q1011.26 1358.13 1010.45 1360.05 Q1009.66 1361.95 1007.56 1364.55 Q1006.98 1365.22 1003.88 1368.43 Q1000.78 1371.63 995.127 1377.39 Z" fill="#000000" fill-rule="evenodd" fill-opacity="1" /><path clip-path="url(#clip260)" d="M1357.11 1349.85 Q1353.49 1349.85 1351.67 1353.41 Q1349.86 1356.95 1349.86 1364.08 Q1349.86 1371.19 1351.67 1374.75 Q1353.49 1378.3 1357.11 1378.3 Q1360.74 1378.3 1362.55 1374.75 Q1364.37 1371.19 1364.37 1364.08 Q1364.37 1356.95 1362.55 1353.41 Q1360.74 1349.85 1357.11 1349.85 M1357.11 1346.14 Q1362.92 1346.14 1365.97 1350.75 Q1369.05 1355.33 1369.05 1364.08 Q1369.05 1372.81 1365.97 1377.42 Q1362.92 1382 1357.11 1382 Q1351.3 1382 1348.22 1377.42 Q1345.16 1372.81 1345.16 1364.08 Q1345.16 1355.33 1348.22 1350.75 Q1351.3 1346.14 1357.11 1346.14 Z" fill="#000000" fill-rule="evenodd" fill-opacity="1" /><path clip-path="url(#clip260)" d="M1727.48 1377.39 L1743.8 1377.39 L1743.8 1381.33 L1721.85 1381.33 L1721.85 1377.39 Q1724.51 1374.64 1729.1 1370.01 Q1733.7 1365.36 1734.88 1364.01 Q1737.13 1361.49 1738.01 1359.75 Q1738.91 1357.99 1738.91 1356.3 Q1738.91 1353.55 1736.97 1351.81 Q1735.05 1350.08 1731.94 1350.08 Q1729.74 1350.08 1727.29 1350.84 Q1724.86 1351.61 1722.08 1353.16 L1722.08 1348.43 Q1724.91 1347.3 1727.36 1346.72 Q1729.81 1346.14 1731.85 1346.14 Q1737.22 1346.14 1740.42 1348.83 Q1743.61 1351.51 1743.61 1356 Q1743.61 1358.13 1742.8 1360.05 Q1742.01 1361.95 1739.91 1364.55 Q1739.33 1365.22 1736.23 1368.43 Q1733.12 1371.63 1727.48 1377.39 Z" fill="#000000" fill-rule="evenodd" fill-opacity="1" /><path clip-path="url(#clip260)" d="M2111.55 1350.84 L2099.74 1369.29 L2111.55 1369.29 L2111.55 1350.84 M2110.32 1346.77 L2116.2 1346.77 L2116.2 1369.29 L2121.13 1369.29 L2121.13 1373.18 L2116.2 1373.18 L2116.2 1381.33 L2111.55 1381.33 L2111.55 1373.18 L2095.95 1373.18 L2095.95 1368.67 L2110.32 1346.77 Z" fill="#000000" fill-rule="evenodd" fill-opacity="1" /><path clip-path="url(#clip260)" d="M1373.72 1428.14 L1360.83 1445.49 L1374.39 1463.79 L1367.48 1463.79 L1357.11 1449.79 L1346.73 1463.79 L1339.82 1463.79 L1353.67 1445.14 L1341 1428.14 L1347.91 1428.14 L1357.36 1440.84 L1366.81 1428.14 L1373.72 1428.14 Z" fill="#000000" fill-rule="evenodd" fill-opacity="1" /><polyline clip-path="url(#clip262)" style="stroke:#000000; stroke-linecap:butt; stroke-linejoin:round; stroke-width:2; stroke-opacity:0.1; fill:none" points="
  361.456,1283.1 2352.76,1283.1 
  "/>
<polyline clip-path="url(#clip262)" style="stroke:#000000; stroke-linecap:butt; stroke-linejoin:round; stroke-width:2; stroke-opacity:0.1; fill:none" points="
  361.456,983.039 2352.76,983.039 
  "/>
<polyline clip-path="url(#clip262)" style="stroke:#000000; stroke-linecap:butt; stroke-linejoin:round; stroke-width:2; stroke-opacity:0.1; fill:none" points="
  361.456,682.976 2352.76,682.976 
  "/>
<polyline clip-path="url(#clip262)" style="stroke:#000000; stroke-linecap:butt; stroke-linejoin:round; stroke-width:2; stroke-opacity:0.1; fill:none" points="
  361.456,382.913 2352.76,382.913 
  "/>
<polyline clip-path="url(#clip262)" style="stroke:#000000; stroke-linecap:butt; stroke-linejoin:round; stroke-width:2; stroke-opacity:0.1; fill:none" points="
  361.456,82.8507 2352.76,82.8507 
  "/>
<polyline clip-path="url(#clip260)" style="stroke:#000000; stroke-linecap:butt; stroke-linejoin:round; stroke-width:4; stroke-opacity:1; fill:none" points="
  361.456,1318.93 361.456,47.2441 
  "/>
<polyline clip-path="url(#clip260)" style="stroke:#000000; stroke-linecap:butt; stroke-linejoin:round; stroke-width:4; stroke-opacity:1; fill:none" points="
  361.456,1283.1 380.354,1283.1 
  "/>
<polyline clip-path="url(#clip260)" style="stroke:#000000; stroke-linecap:butt; stroke-linejoin:round; stroke-width:4; stroke-opacity:1; fill:none" points="
  361.456,983.039 380.354,983.039 
  "/>
<polyline clip-path="url(#clip260)" style="stroke:#000000; stroke-linecap:butt; stroke-linejoin:round; stroke-width:4; stroke-opacity:1; fill:none" points="
  361.456,682.976 380.354,682.976 
  "/>
<polyline clip-path="url(#clip260)" style="stroke:#000000; stroke-linecap:butt; stroke-linejoin:round; stroke-width:4; stroke-opacity:1; fill:none" points="
  361.456,382.913 380.354,382.913 
  "/>
<polyline clip-path="url(#clip260)" style="stroke:#000000; stroke-linecap:butt; stroke-linejoin:round; stroke-width:4; stroke-opacity:1; fill:none" points="
  361.456,82.8507 380.354,82.8507 
  "/>
<path clip-path="url(#clip260)" d="M218.512 1283.55 L248.188 1283.55 L248.188 1287.49 L218.512 1287.49 L218.512 1283.55 Z" fill="#000000" fill-rule="evenodd" fill-opacity="1" /><path clip-path="url(#clip260)" d="M259.091 1296.45 L266.729 1296.45 L266.729 1270.08 L258.419 1271.75 L258.419 1267.49 L266.683 1265.82 L271.359 1265.82 L271.359 1296.45 L278.998 1296.45 L278.998 1300.38 L259.091 1300.38 L259.091 1296.45 Z" fill="#000000" fill-rule="evenodd" fill-opacity="1" /><path clip-path="url(#clip260)" d="M288.442 1294.5 L293.327 1294.5 L293.327 1300.38 L288.442 1300.38 L288.442 1294.5 Z" fill="#000000" fill-rule="evenodd" fill-opacity="1" /><path clip-path="url(#clip260)" d="M313.512 1268.9 Q309.901 1268.9 308.072 1272.46 Q306.266 1276.01 306.266 1283.14 Q306.266 1290.24 308.072 1293.81 Q309.901 1297.35 313.512 1297.35 Q317.146 1297.35 318.951 1293.81 Q320.78 1290.24 320.78 1283.14 Q320.78 1276.01 318.951 1272.46 Q317.146 1268.9 313.512 1268.9 M313.512 1265.2 Q319.322 1265.2 322.377 1269.8 Q325.456 1274.39 325.456 1283.14 Q325.456 1291.86 322.377 1296.47 Q319.322 1301.05 313.512 1301.05 Q307.701 1301.05 304.623 1296.47 Q301.567 1291.86 301.567 1283.14 Q301.567 1274.39 304.623 1269.8 Q307.701 1265.2 313.512 1265.2 Z" fill="#000000" fill-rule="evenodd" fill-opacity="1" /><path clip-path="url(#clip260)" d="M219.507 983.49 L249.183 983.49 L249.183 987.425 L219.507 987.425 L219.507 983.49 Z" fill="#000000" fill-rule="evenodd" fill-opacity="1" /><path clip-path="url(#clip260)" d="M269.276 968.837 Q265.665 968.837 263.836 972.402 Q262.03 975.944 262.03 983.073 Q262.03 990.18 263.836 993.745 Q265.665 997.286 269.276 997.286 Q272.91 997.286 274.716 993.745 Q276.544 990.18 276.544 983.073 Q276.544 975.944 274.716 972.402 Q272.91 968.837 269.276 968.837 M269.276 965.134 Q275.086 965.134 278.141 969.74 Q281.22 974.323 281.22 983.073 Q281.22 991.8 278.141 996.407 Q275.086 1000.99 269.276 1000.99 Q263.466 1000.99 260.387 996.407 Q257.331 991.8 257.331 983.073 Q257.331 974.323 260.387 969.74 Q263.466 965.134 269.276 965.134 Z" fill="#000000" fill-rule="evenodd" fill-opacity="1" /><path clip-path="url(#clip260)" d="M289.438 994.439 L294.322 994.439 L294.322 1000.32 L289.438 1000.32 L289.438 994.439 Z" fill="#000000" fill-rule="evenodd" fill-opacity="1" /><path clip-path="url(#clip260)" d="M304.553 965.759 L322.91 965.759 L322.91 969.694 L308.836 969.694 L308.836 978.166 Q309.854 977.819 310.873 977.657 Q311.891 977.471 312.91 977.471 Q318.697 977.471 322.076 980.643 Q325.456 983.814 325.456 989.231 Q325.456 994.809 321.984 997.911 Q318.512 1000.99 312.192 1000.99 Q310.016 1000.99 307.748 1000.62 Q305.502 1000.25 303.095 999.508 L303.095 994.809 Q305.178 995.944 307.401 996.499 Q309.623 997.055 312.1 997.055 Q316.104 997.055 318.442 994.948 Q320.78 992.842 320.78 989.231 Q320.78 985.62 318.442 983.513 Q316.104 981.407 312.1 981.407 Q310.225 981.407 308.35 981.823 Q306.498 982.24 304.553 983.12 L304.553 965.759 Z" fill="#000000" fill-rule="evenodd" fill-opacity="1" /><path clip-path="url(#clip260)" d="M268.28 668.775 Q264.669 668.775 262.841 672.339 Q261.035 675.881 261.035 683.011 Q261.035 690.117 262.841 693.682 Q264.669 697.224 268.28 697.224 Q271.915 697.224 273.72 693.682 Q275.549 690.117 275.549 683.011 Q275.549 675.881 273.72 672.339 Q271.915 668.775 268.28 668.775 M268.28 665.071 Q274.091 665.071 277.146 669.677 Q280.225 674.261 280.225 683.011 Q280.225 691.737 277.146 696.344 Q274.091 700.927 268.28 700.927 Q262.47 700.927 259.392 696.344 Q256.336 691.737 256.336 683.011 Q256.336 674.261 259.392 669.677 Q262.47 665.071 268.28 665.071 Z" fill="#000000" fill-rule="evenodd" fill-opacity="1" /><path clip-path="url(#clip260)" d="M288.442 694.376 L293.327 694.376 L293.327 700.256 L288.442 700.256 L288.442 694.376 Z" fill="#000000" fill-rule="evenodd" fill-opacity="1" /><path clip-path="url(#clip260)" d="M313.512 668.775 Q309.901 668.775 308.072 672.339 Q306.266 675.881 306.266 683.011 Q306.266 690.117 308.072 693.682 Q309.901 697.224 313.512 697.224 Q317.146 697.224 318.951 693.682 Q320.78 690.117 320.78 683.011 Q320.78 675.881 318.951 672.339 Q317.146 668.775 313.512 668.775 M313.512 665.071 Q319.322 665.071 322.377 669.677 Q325.456 674.261 325.456 683.011 Q325.456 691.737 322.377 696.344 Q319.322 700.927 313.512 700.927 Q307.701 700.927 304.623 696.344 Q301.567 691.737 301.567 683.011 Q301.567 674.261 304.623 669.677 Q307.701 665.071 313.512 665.071 Z" fill="#000000" fill-rule="evenodd" fill-opacity="1" /><path clip-path="url(#clip260)" d="M269.276 368.712 Q265.665 368.712 263.836 372.277 Q262.03 375.818 262.03 382.948 Q262.03 390.055 263.836 393.619 Q265.665 397.161 269.276 397.161 Q272.91 397.161 274.716 393.619 Q276.544 390.055 276.544 382.948 Q276.544 375.818 274.716 372.277 Q272.91 368.712 269.276 368.712 M269.276 365.008 Q275.086 365.008 278.141 369.615 Q281.22 374.198 281.22 382.948 Q281.22 391.675 278.141 396.281 Q275.086 400.865 269.276 400.865 Q263.466 400.865 260.387 396.281 Q257.331 391.675 257.331 382.948 Q257.331 374.198 260.387 369.615 Q263.466 365.008 269.276 365.008 Z" fill="#000000" fill-rule="evenodd" fill-opacity="1" /><path clip-path="url(#clip260)" d="M289.438 394.314 L294.322 394.314 L294.322 400.193 L289.438 400.193 L289.438 394.314 Z" fill="#000000" fill-rule="evenodd" fill-opacity="1" /><path clip-path="url(#clip260)" d="M304.553 365.633 L322.91 365.633 L322.91 369.569 L308.836 369.569 L308.836 378.041 Q309.854 377.693 310.873 377.531 Q311.891 377.346 312.91 377.346 Q318.697 377.346 322.076 380.518 Q325.456 383.689 325.456 389.105 Q325.456 394.684 321.984 397.786 Q318.512 400.865 312.192 400.865 Q310.016 400.865 307.748 400.494 Q305.502 400.124 303.095 399.383 L303.095 394.684 Q305.178 395.818 307.401 396.374 Q309.623 396.929 312.1 396.929 Q316.104 396.929 318.442 394.823 Q320.78 392.717 320.78 389.105 Q320.78 385.494 318.442 383.388 Q316.104 381.281 312.1 381.281 Q310.225 381.281 308.35 381.698 Q306.498 382.115 304.553 382.994 L304.553 365.633 Z" fill="#000000" fill-rule="evenodd" fill-opacity="1" /><path clip-path="url(#clip260)" d="M259.091 96.1956 L266.729 96.1956 L266.729 69.83 L258.419 71.4966 L258.419 67.2374 L266.683 65.5707 L271.359 65.5707 L271.359 96.1956 L278.998 96.1956 L278.998 100.131 L259.091 100.131 L259.091 96.1956 Z" fill="#000000" fill-rule="evenodd" fill-opacity="1" /><path clip-path="url(#clip260)" d="M288.442 94.2511 L293.327 94.2511 L293.327 100.131 L288.442 100.131 L288.442 94.2511 Z" fill="#000000" fill-rule="evenodd" fill-opacity="1" /><path clip-path="url(#clip260)" d="M313.512 68.6494 Q309.901 68.6494 308.072 72.2142 Q306.266 75.7559 306.266 82.8854 Q306.266 89.9919 308.072 93.5567 Q309.901 97.0983 313.512 97.0983 Q317.146 97.0983 318.951 93.5567 Q320.78 89.9919 320.78 82.8854 Q320.78 75.7559 318.951 72.2142 Q317.146 68.6494 313.512 68.6494 M313.512 64.9457 Q319.322 64.9457 322.377 69.5522 Q325.456 74.1355 325.456 82.8854 Q325.456 91.6122 322.377 96.2187 Q319.322 100.802 313.512 100.802 Q307.701 100.802 304.623 96.2187 Q301.567 91.6122 301.567 82.8854 Q301.567 74.1355 304.623 69.5522 Q307.701 64.9457 313.512 64.9457 Z" fill="#000000" fill-rule="evenodd" fill-opacity="1" /><path clip-path="url(#clip260)" d="M171.566 681.399 Q177.932 683.882 179.874 686.237 Q181.815 688.592 181.815 692.539 L181.815 697.218 L176.913 697.218 L176.913 693.78 Q176.913 691.361 175.768 690.025 Q174.622 688.688 170.357 687.065 L167.683 686.014 L132.608 700.433 L132.608 694.226 L160.49 683.086 L132.608 671.946 L132.608 665.739 L171.566 681.399 Z" fill="#000000" fill-rule="evenodd" fill-opacity="1" /><polyline clip-path="url(#clip262)" style="stroke:#009af9; stroke-linecap:butt; stroke-linejoin:round; stroke-width:4; stroke-opacity:1; fill:none" points="
  417.814,107.501 422.4,103.517 426.987,99.8782 431.573,96.5869 436.159,93.6451 457.364,84.6326 478.568,83.2351 499.772,89.4706 520.977,103.26 542.181,124.427 
  563.385,152.702 584.59,187.727 605.794,229.054 631.28,286.319 656.766,350.873 682.251,421.53 707.737,496.991 750.833,631.613 793.929,768.926 840.743,912.753 
  887.557,1042.38 909.137,1095.1 930.716,1142.38 952.295,1183.61 973.874,1218.24 997.01,1247.53 1020.14,1268.25 1043.28,1280.12 1066.42,1282.94 1093.22,1274.84 
  1120.02,1254.72 1146.83,1222.98 1173.63,1180.26 1197.45,1133.78 1221.27,1080.06 1245.1,1019.97 1268.92,954.47 1310.69,829.741 1352.47,697.784 1398.02,553.309 
  1443.57,416.42 1466.48,352.992 1489.39,294.465 1512.3,241.709 1535.2,195.507 1560.53,152.878 1585.86,119.872 1611.19,97.0872 1636.52,84.9376 1660.62,83.4547 
  1684.72,91.8254 1708.82,109.912 1732.92,137.417 1757.98,175.517 1783.04,222.632 1808.1,277.927 1833.16,340.418 1875.35,458.751 1917.53,588.346 1969.04,752.336 
  2020.55,911.144 2044.76,980.584 2068.97,1045.09 2093.18,1103.59 2117.38,1155.11 2136.78,1190.77 2156.17,1221.03 2175.56,1245.55 2194.95,1264.09 2214.35,1276.44 
  2233.74,1282.47 2253.13,1282.12 2272.52,1275.39 2278.49,1272.04 2284.46,1268.1 2290.43,1263.57 2296.4,1258.45 
  "/>
<path clip-path="url(#clip260)" d="
M2012.69 193.314 L2286.38 193.314 L2286.38 89.6336 L2012.69 89.6336  Z
  " fill="#ffffff" fill-rule="evenodd" fill-opacity="1"/>
<polyline clip-path="url(#clip260)" style="stroke:#000000; stroke-linecap:butt; stroke-linejoin:round; stroke-width:4; stroke-opacity:1; fill:none" points="
  2012.69,193.314 2286.38,193.314 2286.38,89.6336 2012.69,89.6336 2012.69,193.314 
  "/>
<polyline clip-path="url(#clip260)" style="stroke:#009af9; stroke-linecap:butt; stroke-linejoin:round; stroke-width:4; stroke-opacity:1; fill:none" points="
  2034.82,141.474 2167.57,141.474 
  "/>
<path clip-path="url(#clip260)" d="M2203.54 161.161 Q2201.73 165.791 2200.02 167.203 Q2198.31 168.615 2195.44 168.615 L2192.04 168.615 L2192.04 165.05 L2194.54 165.05 Q2196.3 165.05 2197.27 164.216 Q2198.24 163.383 2199.42 160.281 L2200.18 158.337 L2189.7 132.828 L2194.21 132.828 L2202.31 153.105 L2210.42 132.828 L2214.93 132.828 L2203.54 161.161 Z" fill="#000000" fill-rule="evenodd" fill-opacity="1" /><path clip-path="url(#clip260)" d="M2222.22 154.818 L2229.86 154.818 L2229.86 128.453 L2221.55 130.119 L2221.55 125.86 L2229.81 124.194 L2234.49 124.194 L2234.49 154.818 L2242.13 154.818 L2242.13 158.754 L2222.22 158.754 L2222.22 154.818 Z" fill="#000000" fill-rule="evenodd" fill-opacity="1" /></svg>
