<?xml version="1.0" encoding="utf-8"?>
<svg xmlns="http://www.w3.org/2000/svg" xmlns:xlink="http://www.w3.org/1999/xlink" width="150" height="100" viewBox="0 0 600 400">
<defs>
  <clipPath id="clip660">
    <rect x="0" y="0" width="600" height="400"/>
  </clipPath>
</defs>
<path clip-path="url(#clip660)" d="
M0 400 L600 400 L600 0 L0 0  Z
  " fill="#ffffff" fill-rule="evenodd" fill-opacity="1"/>
<defs>
  <clipPath id="clip661">
    <rect x="120" y="0" width="421" height="400"/>
  </clipPath>
</defs>
<path clip-path="url(#clip660)" d="
M51.748 350.252 L588.189 350.252 L588.189 11.811 L51.748 11.811  Z
  " fill="#ffffff" fill-rule="evenodd" fill-opacity="1"/>
<defs>
  <clipPath id="clip662">
    <rect x="51" y="11" width="537" height="339"/>
  </clipPath>
</defs>
<polyline clip-path="url(#clip662)" style="stroke:#000000; stroke-width:0.5; stroke-opacity:0.1; fill:none" points="
  117.538,350.252 117.538,11.811 
  "/>
<polyline clip-path="url(#clip662)" style="stroke:#000000; stroke-width:0.5; stroke-opacity:0.1; fill:none" points="
  218.753,350.252 218.753,11.811 
  "/>
<polyline clip-path="url(#clip662)" style="stroke:#000000; stroke-width:0.5; stroke-opacity:0.1; fill:none" points="
  319.969,350.252 319.969,11.811 
  "/>
<polyline clip-path="url(#clip662)" style="stroke:#000000; stroke-width:0.5; stroke-opacity:0.1; fill:none" points="
  421.184,350.252 421.184,11.811 
  "/>
<polyline clip-path="url(#clip662)" style="stroke:#000000; stroke-width:0.5; stroke-opacity:0.1; fill:none" points="
  522.399,350.252 522.399,11.811 
  "/>
<polyline clip-path="url(#clip660)" style="stroke:#000000; stroke-width:1; stroke-opacity:1; fill:none" points="
  51.748,350.252 588.189,350.252 
  "/>
<polyline clip-path="url(#clip660)" style="stroke:#000000; stroke-width:1; stroke-opacity:1; fill:none" points="
  117.538,350.252 117.538,346.191 
  "/>
<polyline clip-path="url(#clip660)" style="stroke:#000000; stroke-width:1; stroke-opacity:1; fill:none" points="
  218.753,350.252 218.753,346.191 
  "/>
<polyline clip-path="url(#clip660)" style="stroke:#000000; stroke-width:1; stroke-opacity:1; fill:none" points="
  319.969,350.252 319.969,346.191 
  "/>
<polyline clip-path="url(#clip660)" style="stroke:#000000; stroke-width:1; stroke-opacity:1; fill:none" points="
  421.184,350.252 421.184,346.191 
  "/>
<polyline clip-path="url(#clip660)" style="stroke:#000000; stroke-width:1; stroke-opacity:1; fill:none" points="
  522.399,350.252 522.399,346.191 
  "/>
<path clip-path="url(#clip660)" d="M 0 0 M110.391 361.213 L117.81 361.213 L117.81 362.197 L110.391 362.197 L110.391 361.213 Z" fill="#000000" fill-rule="evenodd" fill-opacity="1" /><path clip-path="url(#clip660)" d="M 0 0 M122.289 357.798 L119.338 362.411 L122.289 362.411 L122.289 357.798 M121.982 356.78 L123.452 356.78 L123.452 362.411 L124.685 362.411 L124.685 363.383 L123.452 363.383 L123.452 365.42 L122.289 365.42 L122.289 363.383 L118.389 363.383 L118.389 362.254 L121.982 356.78 Z" fill="#000000" fill-rule="evenodd" fill-opacity="1" /><path clip-path="url(#clip660)" d="M 0 0 M211.867 361.213 L219.286 361.213 L219.286 362.197 L211.867 362.197 L211.867 361.213 Z" fill="#000000" fill-rule="evenodd" fill-opacity="1" /><path clip-path="url(#clip660)" d="M 0 0 M221.56 364.436 L225.64 364.436 L225.64 365.42 L220.154 365.42 L220.154 364.436 Q220.819 363.748 221.965 362.59 Q223.117 361.427 223.412 361.091 Q223.973 360.461 224.193 360.026 Q224.419 359.587 224.419 359.164 Q224.419 358.476 223.933 358.042 Q223.452 357.608 222.677 357.608 Q222.127 357.608 221.514 357.798 Q220.906 357.989 220.212 358.377 L220.212 357.197 Q220.918 356.913 221.531 356.768 Q222.144 356.624 222.654 356.624 Q223.996 356.624 224.795 357.295 Q225.593 357.966 225.593 359.089 Q225.593 359.621 225.391 360.102 Q225.194 360.576 224.668 361.224 Q224.523 361.392 223.747 362.197 Q222.972 362.995 221.56 364.436 Z" fill="#000000" fill-rule="evenodd" fill-opacity="1" /><path clip-path="url(#clip660)" d="M 0 0 M319.969 357.55 Q319.066 357.55 318.609 358.441 Q318.157 359.326 318.157 361.109 Q318.157 362.885 318.609 363.776 Q319.066 364.662 319.969 364.662 Q320.877 364.662 321.328 363.776 Q321.786 362.885 321.786 361.109 Q321.786 359.326 321.328 358.441 Q320.877 357.55 319.969 357.55 M319.969 356.624 Q321.421 356.624 322.185 357.775 Q322.955 358.921 322.955 361.109 Q322.955 363.29 322.185 364.442 Q321.421 365.588 319.969 365.588 Q318.516 365.588 317.746 364.442 Q316.982 363.29 316.982 361.109 Q316.982 358.921 317.746 357.775 Q318.516 356.624 319.969 356.624 Z" fill="#000000" fill-rule="evenodd" fill-opacity="1" /><path clip-path="url(#clip660)" d="M 0 0 M419.847 364.436 L423.927 364.436 L423.927 365.42 L418.441 365.42 L418.441 364.436 Q419.106 363.748 420.252 362.59 Q421.404 361.427 421.699 361.091 Q422.26 360.461 422.48 360.026 Q422.706 359.587 422.706 359.164 Q422.706 358.476 422.22 358.042 Q421.739 357.608 420.964 357.608 Q420.414 357.608 419.801 357.798 Q419.193 357.989 418.499 358.377 L418.499 357.197 Q419.205 356.913 419.818 356.768 Q420.431 356.624 420.941 356.624 Q422.283 356.624 423.082 357.295 Q423.881 357.966 423.881 359.089 Q423.881 359.621 423.678 360.102 Q423.481 360.576 422.955 361.224 Q422.81 361.392 422.034 362.197 Q421.259 362.995 419.847 364.436 Z" fill="#000000" fill-rule="evenodd" fill-opacity="1" /><path clip-path="url(#clip660)" d="M 0 0 M523.151 357.798 L520.2 362.411 L523.151 362.411 L523.151 357.798 M522.845 356.78 L524.315 356.78 L524.315 362.411 L525.547 362.411 L525.547 363.383 L524.315 363.383 L524.315 365.42 L523.151 365.42 L523.151 363.383 L519.251 363.383 L519.251 362.254 L522.845 356.78 Z" fill="#000000" fill-rule="evenodd" fill-opacity="1" /><path clip-path="url(#clip660)" d="M 0 0 M324.122 377.556 L320.899 381.893 L324.289 386.468 L322.563 386.468 L319.969 382.967 L317.374 386.468 L315.648 386.468 L319.109 381.805 L315.942 377.556 L317.669 377.556 L320.032 380.731 L322.395 377.556 L324.122 377.556 Z" fill="#000000" fill-rule="evenodd" fill-opacity="1" /><polyline clip-path="url(#clip662)" style="stroke:#000000; stroke-width:0.5; stroke-opacity:0.1; fill:none" points="
  51.748,340.717 588.189,340.717 
  "/>
<polyline clip-path="url(#clip662)" style="stroke:#000000; stroke-width:0.5; stroke-opacity:0.1; fill:none" points="
  51.748,260.86 588.189,260.86 
  "/>
<polyline clip-path="url(#clip662)" style="stroke:#000000; stroke-width:0.5; stroke-opacity:0.1; fill:none" points="
  51.748,181.002 588.189,181.002 
  "/>
<polyline clip-path="url(#clip662)" style="stroke:#000000; stroke-width:0.5; stroke-opacity:0.1; fill:none" points="
  51.748,101.145 588.189,101.145 
  "/>
<polyline clip-path="url(#clip662)" style="stroke:#000000; stroke-width:0.5; stroke-opacity:0.1; fill:none" points="
  51.748,21.2872 588.189,21.2872 
  "/>
<polyline clip-path="url(#clip660)" style="stroke:#000000; stroke-width:1; stroke-opacity:1; fill:none" points="
  51.748,350.252 51.748,11.811 
  "/>
<polyline clip-path="url(#clip660)" style="stroke:#000000; stroke-width:1; stroke-opacity:1; fill:none" points="
  51.748,340.717 58.1853,340.717 
  "/>
<polyline clip-path="url(#clip660)" style="stroke:#000000; stroke-width:1; stroke-opacity:1; fill:none" points="
  51.748,260.86 58.1853,260.86 
  "/>
<polyline clip-path="url(#clip660)" style="stroke:#000000; stroke-width:1; stroke-opacity:1; fill:none" points="
  51.748,181.002 58.1853,181.002 
  "/>
<polyline clip-path="url(#clip660)" style="stroke:#000000; stroke-width:1; stroke-opacity:1; fill:none" points="
  51.748,101.145 58.1853,101.145 
  "/>
<polyline clip-path="url(#clip660)" style="stroke:#000000; stroke-width:1; stroke-opacity:1; fill:none" points="
  51.748,21.2872 58.1853,21.2872 
  "/>
<path clip-path="url(#clip660)" d="M 0 0 M19.6405 340.83 L27.0595 340.83 L27.0595 341.814 L19.6405 341.814 L19.6405 340.83 Z" fill="#000000" fill-rule="evenodd" fill-opacity="1" /><path clip-path="url(#clip660)" d="M 0 0 M28.5294 344.053 L30.4391 344.053 L30.4391 337.462 L28.3615 337.879 L28.3615 336.814 L30.4275 336.397 L31.5965 336.397 L31.5965 344.053 L33.5062 344.053 L33.5062 345.037 L28.5294 345.037 L28.5294 344.053 Z" fill="#000000" fill-rule="evenodd" fill-opacity="1" /><path clip-path="url(#clip660)" d="M 0 0 M34.7735 343.567 L35.9946 343.567 L35.9946 345.037 L34.7735 345.037 L34.7735 343.567 Z" fill="#000000" fill-rule="evenodd" fill-opacity="1" /><path clip-path="url(#clip660)" d="M 0 0 M39.7619 337.167 Q38.8592 337.167 38.402 338.058 Q37.9506 338.943 37.9506 340.726 Q37.9506 342.502 38.402 343.394 Q38.8592 344.279 39.7619 344.279 Q40.6705 344.279 41.1219 343.394 Q41.5791 342.502 41.5791 340.726 Q41.5791 338.943 41.1219 338.058 Q40.6705 337.167 39.7619 337.167 M39.7619 336.241 Q41.2145 336.241 41.9784 337.393 Q42.748 338.538 42.748 340.726 Q42.748 342.908 41.9784 344.059 Q41.2145 345.205 39.7619 345.205 Q38.3094 345.205 37.5397 344.059 Q36.7758 342.908 36.7758 340.726 Q36.7758 338.538 37.5397 337.393 Q38.3094 336.241 39.7619 336.241 Z" fill="#000000" fill-rule="evenodd" fill-opacity="1" /><path clip-path="url(#clip660)" d="M 0 0 M19.5826 260.973 L27.0016 260.973 L27.0016 261.956 L19.5826 261.956 L19.5826 260.973 Z" fill="#000000" fill-rule="evenodd" fill-opacity="1" /><path clip-path="url(#clip660)" d="M 0 0 M30.7689 257.309 Q29.8662 257.309 29.409 258.201 Q28.9576 259.086 28.9576 260.868 Q28.9576 262.645 29.409 263.536 Q29.8662 264.422 30.7689 264.422 Q31.6775 264.422 32.1289 263.536 Q32.586 262.645 32.586 260.868 Q32.586 259.086 32.1289 258.201 Q31.6775 257.309 30.7689 257.309 M30.7689 256.383 Q32.2215 256.383 32.9854 257.535 Q33.755 258.681 33.755 260.868 Q33.755 263.05 32.9854 264.202 Q32.2215 265.348 30.7689 265.348 Q29.3164 265.348 28.5467 264.202 Q27.7828 263.05 27.7828 260.868 Q27.7828 258.681 28.5467 257.535 Q29.3164 256.383 30.7689 256.383 Z" fill="#000000" fill-rule="evenodd" fill-opacity="1" /><path clip-path="url(#clip660)" d="M 0 0 M35.0224 263.71 L36.2434 263.71 L36.2434 265.18 L35.0224 265.18 L35.0224 263.71 Z" fill="#000000" fill-rule="evenodd" fill-opacity="1" /><path clip-path="url(#clip660)" d="M 0 0 M37.5224 256.54 L42.1115 256.54 L42.1115 257.523 L38.593 257.523 L38.593 259.642 Q38.8476 259.555 39.1022 259.514 Q39.3568 259.468 39.6115 259.468 Q41.0582 259.468 41.9031 260.261 Q42.748 261.054 42.748 262.408 Q42.748 263.802 41.88 264.578 Q41.0119 265.348 39.4321 265.348 Q38.8881 265.348 38.321 265.255 Q37.7596 265.162 37.1578 264.977 L37.1578 263.802 Q37.6786 264.086 38.2342 264.225 Q38.7897 264.364 39.4089 264.364 Q40.4101 264.364 40.9946 263.837 Q41.5791 263.311 41.5791 262.408 Q41.5791 261.505 40.9946 260.978 Q40.4101 260.452 39.4089 260.452 Q38.9402 260.452 38.4714 260.556 Q38.0085 260.66 37.5224 260.88 L37.5224 256.54 Z" fill="#000000" fill-rule="evenodd" fill-opacity="1" /><path clip-path="url(#clip660)" d="M 0 0 M30.5201 177.452 Q29.6173 177.452 29.1601 178.343 Q28.7088 179.228 28.7088 181.011 Q28.7088 182.788 29.1601 183.679 Q29.6173 184.564 30.5201 184.564 Q31.4286 184.564 31.88 183.679 Q32.3372 182.788 32.3372 181.011 Q32.3372 179.228 31.88 178.343 Q31.4286 177.452 30.5201 177.452 M30.5201 176.526 Q31.9726 176.526 32.7365 177.678 Q33.5062 178.823 33.5062 181.011 Q33.5062 183.193 32.7365 184.344 Q31.9726 185.49 30.5201 185.49 Q29.0675 185.49 28.2979 184.344 Q27.534 183.193 27.534 181.011 Q27.534 178.823 28.2979 177.678 Q29.0675 176.526 30.5201 176.526 Z" fill="#000000" fill-rule="evenodd" fill-opacity="1" /><path clip-path="url(#clip660)" d="M 0 0 M34.7735 183.852 L35.9946 183.852 L35.9946 185.322 L34.7735 185.322 L34.7735 183.852 Z" fill="#000000" fill-rule="evenodd" fill-opacity="1" /><path clip-path="url(#clip660)" d="M 0 0 M39.7619 177.452 Q38.8592 177.452 38.402 178.343 Q37.9506 179.228 37.9506 181.011 Q37.9506 182.788 38.402 183.679 Q38.8592 184.564 39.7619 184.564 Q40.6705 184.564 41.1219 183.679 Q41.5791 182.788 41.5791 181.011 Q41.5791 179.228 41.1219 178.343 Q40.6705 177.452 39.7619 177.452 M39.7619 176.526 Q41.2145 176.526 41.9784 177.678 Q42.748 178.823 42.748 181.011 Q42.748 183.193 41.9784 184.344 Q41.2145 185.49 39.7619 185.49 Q38.3094 185.49 37.5397 184.344 Q36.7758 183.193 36.7758 181.011 Q36.7758 178.823 37.5397 177.678 Q38.3094 176.526 39.7619 176.526 Z" fill="#000000" fill-rule="evenodd" fill-opacity="1" /><path clip-path="url(#clip660)" d="M 0 0 M30.7689 97.5944 Q29.8662 97.5944 29.409 98.4856 Q28.9576 99.371 28.9576 101.153 Q28.9576 102.93 29.409 103.821 Q29.8662 104.707 30.7689 104.707 Q31.6775 104.707 32.1289 103.821 Q32.586 102.93 32.586 101.153 Q32.586 99.371 32.1289 98.4856 Q31.6775 97.5944 30.7689 97.5944 M30.7689 96.6685 Q32.2215 96.6685 32.9854 97.8201 Q33.755 98.9659 33.755 101.153 Q33.755 103.335 32.9854 104.487 Q32.2215 105.633 30.7689 105.633 Q29.3164 105.633 28.5467 104.487 Q27.7828 103.335 27.7828 101.153 Q27.7828 98.9659 28.5467 97.8201 Q29.3164 96.6685 30.7689 96.6685 Z" fill="#000000" fill-rule="evenodd" fill-opacity="1" /><path clip-path="url(#clip660)" d="M 0 0 M35.0224 103.995 L36.2434 103.995 L36.2434 105.465 L35.0224 105.465 L35.0224 103.995 Z" fill="#000000" fill-rule="evenodd" fill-opacity="1" /><path clip-path="url(#clip660)" d="M 0 0 M37.5224 96.8247 L42.1115 96.8247 L42.1115 97.8085 L38.593 97.8085 L38.593 99.9266 Q38.8476 99.8398 39.1022 99.7992 Q39.3568 99.7529 39.6115 99.7529 Q41.0582 99.7529 41.9031 100.546 Q42.748 101.339 42.748 102.693 Q42.748 104.087 41.88 104.863 Q41.0119 105.633 39.4321 105.633 Q38.8881 105.633 38.321 105.54 Q37.7596 105.447 37.1578 105.262 L37.1578 104.087 Q37.6786 104.371 38.2342 104.51 Q38.7897 104.649 39.4089 104.649 Q40.4101 104.649 40.9946 104.122 Q41.5791 103.596 41.5791 102.693 Q41.5791 101.79 40.9946 101.263 Q40.4101 100.737 39.4089 100.737 Q38.9402 100.737 38.4714 100.841 Q38.0085 100.945 37.5224 101.165 L37.5224 96.8247 Z" fill="#000000" fill-rule="evenodd" fill-opacity="1" /><path clip-path="url(#clip660)" d="M 0 0 M28.5294 24.6234 L30.4391 24.6234 L30.4391 18.032 L28.3615 18.4487 L28.3615 17.3839 L30.4275 16.9672 L31.5965 16.9672 L31.5965 24.6234 L33.5062 24.6234 L33.5062 25.6072 L28.5294 25.6072 L28.5294 24.6234 Z" fill="#000000" fill-rule="evenodd" fill-opacity="1" /><path clip-path="url(#clip660)" d="M 0 0 M34.7735 24.1373 L35.9946 24.1373 L35.9946 25.6072 L34.7735 25.6072 L34.7735 24.1373 Z" fill="#000000" fill-rule="evenodd" fill-opacity="1" /><path clip-path="url(#clip660)" d="M 0 0 M39.7619 17.7369 Q38.8592 17.7369 38.402 18.6281 Q37.9506 19.5135 37.9506 21.2959 Q37.9506 23.0725 38.402 23.9637 Q38.8592 24.8491 39.7619 24.8491 Q40.6705 24.8491 41.1219 23.9637 Q41.5791 23.0725 41.5791 21.2959 Q41.5791 19.5135 41.1219 18.6281 Q40.6705 17.7369 39.7619 17.7369 M39.7619 16.811 Q41.2145 16.811 41.9784 17.9626 Q42.748 19.1084 42.748 21.2959 Q42.748 23.4776 41.9784 24.6292 Q41.2145 25.7751 39.7619 25.7751 Q38.3094 25.7751 37.5397 24.6292 Q36.7758 23.4776 36.7758 21.2959 Q36.7758 19.1084 37.5397 17.9626 Q38.3094 16.811 39.7619 16.811 Z" fill="#000000" fill-rule="evenodd" fill-opacity="1" /><path clip-path="url(#clip660)" d="M 0 0 M7.84619 180.61 Q9.43761 181.23 9.923 181.819 Q10.4084 182.408 10.4084 183.395 L10.4084 184.564 L9.18299 184.564 L9.18299 183.705 Q9.18299 183.1 8.89653 182.766 Q8.61007 182.432 7.54382 182.026 L6.87542 181.764 L-1.89334 185.368 L-1.89334 183.816 L5.07711 181.031 L-1.89334 178.246 L-1.89334 176.695 L7.84619 180.61 Z" fill="#000000" fill-rule="evenodd" fill-opacity="1" /><polyline clip-path="url(#clip662)" style="stroke:#009af9; stroke-width:1; stroke-opacity:1; fill:none" points="
  66.9303,27.8476 68.1659,26.7873 69.4014,25.8189 70.637,24.9429 71.8726,24.16 77.5849,21.7614 83.2971,21.3895 89.0094,23.049 94.7217,26.7188 100.434,32.3521 
  106.146,39.8773 111.859,49.1986 117.571,60.1973 124.436,75.4375 131.302,92.6176 138.168,111.422 145.034,131.505 156.643,167.333 168.253,203.877 180.864,242.154 
  193.476,276.654 199.289,290.683 205.102,303.268 210.916,314.24 216.729,323.457 222.961,331.249 229.194,336.766 235.426,339.923 241.659,340.673 248.88,338.519 
  256.101,333.164 263.321,324.716 270.542,313.347 276.96,300.977 283.377,286.682 289.794,270.689 296.211,253.256 307.465,220.062 318.72,184.943 330.99,146.493 
  343.26,110.062 349.432,93.1815 355.604,77.6054 361.775,63.5651 367.947,51.2692 374.771,39.9241 381.594,31.1399 388.418,25.0761 395.241,21.8426 401.734,21.448 
  408.226,23.6757 414.718,28.4892 421.211,35.8093 427.961,45.949 434.712,58.4882 441.463,73.2041 448.213,89.8351 459.578,121.328 470.944,155.818 484.819,199.461 
  498.695,241.726 505.216,260.206 511.738,277.373 518.26,292.942 524.782,306.654 530.006,316.145 535.23,324.197 540.454,330.724 545.678,335.657 550.902,338.944 
  556.127,340.549 561.351,340.455 566.575,338.664 568.183,337.773 569.791,336.725 571.399,335.519 573.007,334.157 
  "/>
<path clip-path="url(#clip660)" d="
M497.949 53.3324 L570.308 53.3324 L570.308 23.0924 L497.949 23.0924  Z
  " fill="#ffffff" fill-rule="evenodd" fill-opacity="1"/>
<polyline clip-path="url(#clip660)" style="stroke:#000000; stroke-width:1; stroke-opacity:1; fill:none" points="
  497.949,53.3324 570.308,53.3324 570.308,23.0924 497.949,23.0924 497.949,53.3324 
  "/>
<polyline clip-path="url(#clip660)" style="stroke:#009af9; stroke-width:1; stroke-opacity:1; fill:none" points="
  503.909,38.2124 539.672,38.2124 
  "/>
<path clip-path="url(#clip660)" d="M 0 0 M549.093 43.1342 Q548.641 44.2916 548.213 44.6446 Q547.785 44.9977 547.067 44.9977 L546.217 44.9977 L546.217 44.1065 L546.842 44.1065 Q547.281 44.1065 547.524 43.8981 Q547.768 43.6898 548.063 42.9143 L548.254 42.4282 L545.632 36.0509 L546.761 36.0509 L548.786 41.1204 L550.812 36.0509 L551.94 36.0509 L549.093 43.1342 Z" fill="#000000" fill-rule="evenodd" fill-opacity="1" /><path clip-path="url(#clip660)" d="M 0 0 M553.41 41.5486 L555.32 41.5486 L555.32 34.9572 L553.242 35.3739 L553.242 34.3091 L555.308 33.8924 L556.477 33.8924 L556.477 41.5486 L558.387 41.5486 L558.387 42.5324 L553.41 42.5324 L553.41 41.5486 Z" fill="#000000" fill-rule="evenodd" fill-opacity="1" /></svg>
